<svg id="Ebene_1" data-name="Ebene 1" xmlns="http://www.w3.org/2000/svg" xmlns:xlink="http://www.w3.org/1999/xlink" viewBox="0 0 1395 1080.2">
  <defs>
    <style>
      .cls-1 {
        opacity: 0.3;
        fill: url(#linear-gradient);
      }

      .cls-2 {
        fill: #abd8c8;
      }

      .cls-3 {
        fill: url(#linear-gradient-2);
      }
    </style>
    <linearGradient id="linear-gradient" x1="528.65" y1="202.75" x2="1141.89" y2="1267.69" gradientUnits="userSpaceOnUse">
      <stop offset="0" stop-color="#b37cff"/>
      <stop offset="1" stop-color="#f895e7"/>
    </linearGradient>
    <linearGradient id="linear-gradient-2" x1="489.37" y1="111.37" x2="1440.64" y2="1499.39" gradientUnits="userSpaceOnUse">
      <stop offset="0" stop-color="#3672e2"/>
      <stop offset="1" stop-color="#570065"/>
    </linearGradient>
  </defs>
  <title>bg-1</title>
  <g>
    <g>
      <path class="cls-1" d="M377.24.1l69.42,0C404.22-.56,377.24.1,377.24.1Z" transform="translate(0 0.2)"/>
      <path class="cls-2" d="M1354.19,509.43c10.47-206.41-154.54-184-162.29-297.65-6-88.71,116.42-117.12,203.1-114.26V-.2L446.66.08C597.27,2.34,932,28.29,968.79,118.3c77.08,188.42-355.12,52.22-398,264.91-27,133.65,64.09,185.57,47.38,297-14.57,97.1-104,72.83-181.87,178.68-54.45,74-56.26,149.4-270.58,192.71C115.57,1061.68,62.07,1077.12,0,1080H1395V621.86C1368,582.56,1352,551.92,1354.19,509.43Z" transform="translate(0 0.2)"/>
    </g>
    <path class="cls-3" d="M1349.86,508.21C1359.44,313.33,1185.35,315.69,1178,202c-5.77-88.71,148.85-134.61,217-150.49V-.2L308.23.08c143.64,2.26,655-11.81,688.13,144.27,30,141.13-319.78,54.64-387,206.72C500.49,597.39,903.68,642.8,632.08,769.89c-235.35,110.13-35,244.3-461,310.11H1395V664.87C1367.61,605.19,1347.77,550.7,1349.86,508.21Z" transform="translate(0 0.2)"/>
  </g>
</svg>
