<svg xmlns="http://www.w3.org/2000/svg" viewBox="0 0 1462.66 2325.2" preserveAspectRatio="xMaxYMin meet" >
  <defs>
    <style>
      .cls-1 {
        opacity: 0.3;
        fill: url(#linear-gradient);
      }

      .cls-2 {
        fill: #abd8c8;
      }

      .cls-3 {
        fill: url(#Unbenannter_Verlauf_4);
      }
    </style>
    <linearGradient id="linear-gradient" x1="596.31" y1="202.8" x2="1209.55" y2="1267.74" gradientUnits="userSpaceOnUse">
      <stop offset="0" stop-color="#b37cff"/>
      <stop offset="1" stop-color="#f895e7"/>
    </linearGradient>
    <radialGradient id="Unbenannter_Verlauf_4" data-name="Unbenannter Verlauf 4" cx="2568.61" cy="1112.48" r="2491.76" gradientUnits="userSpaceOnUse">
      <stop offset="0.28" stop-color="#570065"/>
      <stop offset="1" stop-color="#3672e2"/>
    </radialGradient>
  </defs>
  <path class="cls-1" d="M444.91.15l69.41,0C471.88-.51,444.91.15,444.91.15Z" transform="translate(0 0.15)"/>
  <path class="cls-2" d="M1462.66,97.57V-.15L514.32.13c150.62,2.26,485.31,28.21,522.14,118.22,77.08,188.42-355.12,52.22-398.06,264.91-27,133.65,64.09,185.57,47.38,297-14.57,97.1-104,72.83-181.87,178.68-54.45,74-56.25,149.4-270.58,192.71-50.1,10.12-137.29,19.23-167.07,38.21-33.39,21.27-156.21,166.6,52.79,346.6S668.21,1522.68,705.53,1881c35.61,341.8,757.13,444.05,757.13,444.05V621.91c-27-39.3-43-69.94-40.81-112.43,10.47-206.41-154.54-184-162.28-297.65C1253.52,123.12,1376,94.71,1462.66,97.57Z" transform="translate(0 0.15)"/>
  <path class="cls-3" d="M1462.66,51.58V-.15L375.89.13c143.64,2.26,655-11.81,688.13,144.27C1094,285.53,744.24,199,677,351.12,568.15,597.44,971.35,642.85,699.75,769.94c-235.36,110.13-260.86,344.37-436.51,331.32-171.91-12.78-257.36,142.16-48.36,322.16s409.64,45,516.64,389,731.14,467.61,731.14,467.61V664.92c-27.38-59.68-47.23-114.17-45.14-156.66,9.59-194.88-164.51-192.52-171.89-306.19C1239.87,113.36,1394.48,67.46,1462.66,51.58Z" transform="translate(0 0.15)"/>
</svg>
