<svg id="Ebene_1" data-name="Ebene 1" xmlns="http://www.w3.org/2000/svg" xmlns:xlink="http://www.w3.org/1999/xlink" viewBox="0 0 1462.72 2325.11">
  <defs>
    <style>
      .bg2-1 {
        opacity: 0.3;
        isolation: isolate;
        fill: url(#bg2-gradient);
      }

      .bg2-2 {
        fill: #fff;
      }

      .bg2-3 {
        opacity: 0.8;
      }

      .bg2-4 {
        fill: #abd8c8;
      }

      .bg2-5 {
        fill: url(#bg2-gradient_2);
      }
    </style>
    <linearGradient id="bg2-gradient" data-name="Unbenannter Verlauf" x1="596.3" y1="-1279.19" x2="1209.54" y2="-214.25" gradientTransform="translate(0 1482.15)" gradientUnits="userSpaceOnUse">
      <stop offset="0" stop-color="#b37cff"/>
      <stop offset="1" stop-color="#f895e7"/>
    </linearGradient>
    <radialGradient id="bg2-gradient_2" data-name="Unbenannter Verlauf 2" cx="2568.61" cy="-369.52" r="2491.76" gradientTransform="translate(0 1482.15)" gradientUnits="userSpaceOnUse">
      <stop offset="0.28" stop-color="#570065"/>
      <stop offset="1" stop-color="#3672e2"/>
    </radialGradient>
  </defs>
  <title>bg-2</title>
  <path class="bg2-1" d="M444.9.3h69.4C471.9-.4,444.9.3,444.9.3Z" transform="translate(0.02 0.01)"/>
  <path class="bg2-2" d="M1462.7,97.7V0L375.9.3C423.5,1,511.4,0,608.8,3.9c165.2,9.8,397.3,40.5,427.6,114.6,77.1,188.4-355.1,52.2-398.1,264.9-27,133.7,64.1,185.6,47.4,297-14.6,97.1-104,72.8-181.9,178.7-54.5,74-56.3,149.4-270.6,192.7C183.2,1061.9,96,1071,66.3,1090,32.9,1111.3-90,1256.6,119,1436.6s549.2,86.2,586.5,444.5c35.6,341.8,757.1,444,757.1,444V622.1c-27-39.3-43-69.9-40.8-112.4,10.5-206.4-154.5-184-162.3-297.6C1253.5,123.3,1376,94.9,1462.7,97.7Z" transform="translate(0.02 0.01)"/>
  <g class="bg2-3">
    <path class="bg2-4" d="M1462.7,97.7V0L514.3.3c150.6,2.3,485.3,28.2,522.1,118.2,77.1,188.4-355.1,52.2-398.1,264.9-27,133.6,64.1,185.6,47.4,297-14.6,97.1-104,72.8-181.9,178.7-54.5,74-56.3,149.4-270.6,192.7C183.2,1061.9,96,1071,66.3,1090,32.9,1111.3-90,1256.6,119,1436.6s549.2,86.2,586.5,444.5c35.6,341.8,757.1,444,757.1,444V622.1c-27-39.3-43-69.9-40.8-112.4,10.5-206.4-154.5-184-162.3-297.7C1253.5,123.3,1376,94.9,1462.7,97.7Z" transform="translate(0.02 0.01)"/>
    <path class="bg2-5" d="M1462.7,51.7V0L375.9.3c143.6,2.3,655-11.8,688.1,144.3,30,141.1-319.8,54.6-387,206.7C568.2,597.6,971.3,643,699.8,770.1c-235.4,110.1-260.9,344.4-436.5,331.3-171.9-12.8-257.4,142.2-48.4,322.2s409.6,45,516.6,389,731.1,467.6,731.1,467.6V665.1c-27.4-59.7-47.2-114.2-45.1-156.7,9.6-194.9-164.5-192.5-171.9-306.2C1239.9,113.5,1394.5,67.6,1462.7,51.7Z" transform="translate(0.02 0.01)"/>
  </g>
</svg>
