<svg id="Ebene_1" data-name="Ebene 1" xmlns="http://www.w3.org/2000/svg" viewBox="0 0 1919.68 353.33">
  <defs>
    <style>
      .cls-1 {
        fill: #abd8c8;
      }

      .cls-2 {
        fill: #f3f5fe;
      }
    </style>
  </defs>
  <title>footer2</title>
  <g>
    <path class="cls-1" d="M194.24,167.05c17.26-2.06,40-7.27,66.07-13.8C167,132.31,76.1,88.65.32-.18V113C36.29,161.28,116.29,176.37,194.24,167.05Z" transform="translate(-0.32 0.18)"/>
    <path class="cls-1" d="M1269.46,243.1c-145.63,0-274-123.57-416.12-125.25-85.51-1-154.39,15.26-222.09,30.14,33.28,28.6,41,61.7,92.4,75.48,56.94,15.27,177.56-30.87,333.54,84.75,174.58,129.39,420.29-59.32,564.91-84.07,102.64-17.56,236.65-6.22,297.9,45.88V34.78C1597.31,8.85,1459.8,243.1,1269.46,243.1Z" transform="translate(-0.32 0.18)"/>
  </g>
  <path class="cls-2" d="M.47,0C76.23,88.71,167.05,132.32,260.32,153.25c91.31-22.86,223.59-61.89,305.15-38.68,31.08,8.84,51,20.69,65.78,33.42,67.7-14.88,136.58-31.15,222.09-30.14,142.15,1.68,270.49,125.25,416.12,125.25C1459.8,243.1,1597.31,8.85,1920,34.78V0Z" transform="translate(-0.32 0.18)"/>
</svg>
