<svg id="Ebene_1" data-name="Ebene 1" xmlns="http://www.w3.org/2000/svg" viewBox="0 0 1919.7 353.34">
  <defs>
    <style>
      .ftr2-1 {
        fill: #fff;
      }

      .ftr2-2 {
        opacity: 0.8;
      }

      .ftr2-3 {
        fill: #abd8c8;
      }

      .ftr2-4 {
        fill: #f3f5fe;
      }
    </style>
  </defs>
  <title>footer2</title>
  <g>
    <g>
      <path class="ftr2-1" d="M193.9,167.2c17.3-2.1,40-7.3,66.1-13.8C166.7,132.5,75.8,88.8,0,0V113.2C36,161.5,116,176.5,193.9,167.2Z" transform="translate(0 0)"/>
      <path class="ftr2-1" d="M1269.1,243.3c-145.6,0-274-123.6-416.1-125.3-85.5-1-154.4,15.3-222.1,30.1,33.3,28.6,41,61.7,92.4,75.5,56.9,15.3,177.6-30.9,333.5,84.8,174.6,129.4,420.3-59.3,564.9-84.1,102.6-17.6,236.7-6.2,297.9,45.9V35C1597,9,1459.5,243.3,1269.1,243.3Z" transform="translate(0 0)"/>
    </g>
    <g class="ftr2-2">
      <path class="ftr2-3" d="M193.9,167.2c17.3-2.1,40-7.3,66.1-13.8C166.7,132.5,75.8,88.8,0,0V113.2C36,161.5,116,176.5,193.9,167.2Z" transform="translate(0 0)"/>
      <path class="ftr2-3" d="M1269.1,243.3c-145.6,0-274-123.6-416.1-125.3-85.5-1-154.4,15.3-222.1,30.1,33.3,28.6,41,61.7,92.4,75.5,56.9,15.3,177.6-30.9,333.5,84.8,174.6,129.4,420.3-59.3,564.9-84.1,102.6-17.6,236.7-6.2,297.9,45.9V35C1597,9,1459.5,243.3,1269.1,243.3Z" transform="translate(0 0)"/>
    </g>
  </g>
  <path class="ftr2-4" d="M.2.2C75.9,88.9,166.7,132.5,260,153.4c91.3-22.9,223.6-61.9,305.1-38.7,31.1,8.8,51,20.7,65.8,33.4C698.6,133.3,767.5,117,853,118c142.2,1.7,270.5,125.3,416.1,125.3C1459.5,243.3,1597,9,1919.7,35V.2Z" transform="translate(0 0)"/>
</svg>
