<svg id="Ebene_1" data-name="Ebene 1" xmlns="http://www.w3.org/2000/svg" xmlns:xlink="http://www.w3.org/1999/xlink" viewBox="0 0 749.78 436.78">
  <defs>
    <style>
      .cls-1 {
        fill: #abd8c8;
      }

      .cls-2 {
        fill: url(#Unbenannter_Verlauf_738);
      }
    </style>
    <linearGradient id="Unbenannter_Verlauf_738" data-name="Unbenannter Verlauf 738" x1="131.81" y1="420.47" x2="877.26" y2="-88.2" gradientUnits="userSpaceOnUse">
      <stop offset="0" stop-color="#3672e2"/>
      <stop offset="1" stop-color="#570065"/>
    </linearGradient>
  </defs>
  <title>form-1</title>
  <path class="cls-1" d="M2.33,240.36c27,120.74,102.88,102.18,223.39,85.6,171.81-23.62,228,175,420.65,89.33C784.08,354,857-39.83,383.05,3.4,264.84,14.18,188.15,27.88,117.33,67.83,56.56,102.12-13.24,170.72,2.33,240.36Z" transform="translate(-0.12 -0.09)"/>
  <path class="cls-2" d="M24.42,217.28c-47.74,108.92,83.2,158.86,196.81,125.09,212.64-63.22,293.39,155.55,448,43.54C787.58,300.15,791.41.2,483.37,7.85,312.51,12.09,105.18,33.06,24.42,217.28Z" transform="translate(-0.12 -0.09)"/>
</svg>
