<svg id="Ebene_1" data-name="Ebene 1" xmlns="http://www.w3.org/2000/svg" xmlns:xlink="http://www.w3.org/1999/xlink" viewBox="0 0 749.82 436.81">
  <defs>
    <style>
      .form1-1 {
        fill: #fff;
      }

      .form1-2 {
        opacity: 0.8;
      }

      .form1-3 {
        fill: #abd8c8;
      }

      .form1-4 {
        fill: url(#form1-gradient);
      }
    </style>
    <linearGradient id="form1-gradient" data-name="Unbenannter Verlauf" x1="131.81" y1="826.48" x2="877.26" y2="317.81" gradientTransform="translate(-0.12 -406.09)" gradientUnits="userSpaceOnUse">
      <stop offset="0" stop-color="#3672e2"/>
      <stop offset="1" stop-color="#570065"/>
    </linearGradient>
  </defs>
  <title>form-1</title>
  <g>
    <path class="form1-1" d="M382.9,3.3C264.7,14.1,188,27.8,117.2,67.7,56.4,102-13.4,170.6,2.2,240.3,6.8,260.6,12.7,277,20,290.1c23.9,56.4,117.2,77.1,201.1,52.2,30.3-9,58-12.3,83.6-11.6,115.9,31.1,181.8,155.6,341.6,84.5C784,353.9,856.9-39.9,382.9,3.3Z" transform="translate(0.02 0)"/>
    <g class="form1-2">
      <path class="form1-3" d="M2.2,240.3c27,120.7,102.9,102.2,223.4,85.6,171.8-23.6,228,175,420.6,89.3C784,353.9,856.9-39.9,382.9,3.3,264.7,14.1,188,27.8,117.2,67.7,56.4,102-13.4,170.6,2.2,240.3Z" transform="translate(0.02 0)"/>
      <path class="form1-4" d="M24.3,217.2C-23.4,326.1,107.5,376,221.1,342.3c212.6-63.2,293.4,155.5,448,43.5C787.5,300.1,791.3.1,483.3,7.8,312.4,12,105.1,33,24.3,217.2Z" transform="translate(0.02 0)"/>
    </g>
  </g>
</svg>
