<svg xmlns="http://www.w3.org/2000/svg"
  viewBox="-30 -30 1324.06 300.89"
  style="width: 100%;">
  <defs>
    <style>
      .gal-1 {
        isolation: isolate;
      }

      .gal-2 {
        fill: #cbcfeb;
      }

      .gal-3 {
        fill: url(#gal-gradient);
      }

      .gal-4 {
        fill: url(#gal-gradient-2);
      }

      .gal-5 {
        fill: url(#gal-gradient-3);
      }

      .gal-50, .gal-6 {
        mix-blend-mode: multiply;
      }

      .gal-6 {
        fill: url(#gal-gradient-4);
      }

      .gal-7 {
        fill: #eba502;
      }

      .gal-8 {
        fill: #f9ca02;
      }

      .gal-9 {
        fill: #3844a1;
      }

      .gal-10 {
        fill: #e62e2e;
      }

      .gal-11 {
        fill: #008c83;
      }

      .gal-12 {
        fill: #fcd3b2;
      }

      .gal-13 {
        fill: #2a2b6a;
      }

      .gal-14 {
        fill: #dda17b;
      }

      .gal-15 {
        fill: #16133f;
      }

      .gal-16 {
        fill: #faaf40;
      }

      .gal-17 {
        fill: url(#gal-gradient-5);
      }

      .gal-18, .gal-50 {
        fill: #db9327;
      }

      .gal-19 {
        fill: url(#gal-gradient-6);
      }

      .gal-20 {
        fill: #ddac8c;
      }

      .gal-21 {
        fill: url(#gal-gradient-7);
      }

      .gal-22 {
        fill: url(#gal-gradient-8);
      }

      .gal-23 {
        fill: url(#gal-gradient-9);
      }

      .gal-24 {
        fill: url(#gal-gradient-10);
      }

      .gal-25 {
        fill: url(#gal-gradient-11);
      }

      .gal-26 {
        fill: url(#gal-gradient-12);
      }

      .gal-27 {
        fill: url(#gal-gradient-13);
      }

      .gal-28 {
        opacity: 0.43;
        fill: url(#Unbenannter_Verlauf_27);
      }

      .gal-29 {
        opacity: 0.5;
      }

      .gal-30 {
        fill: #e1e6f4;
      }

      .gal-31 {
        fill: url(#gal-gradient-14);
      }

      .gal-32 {
        fill: url(#gal-gradient-15);
      }

      .gal-33 {
        fill: url(#gal-gradient-16);
      }

      .gal-34 {
        fill: url(#gal-gradient-17);
      }

      .gal-35 {
        fill: url(#gal-gradient-18);
      }

      .gal-36 {
        fill: url(#gal-gradient-19);
      }

      .gal-37 {
        fill: url(#gal-gradient-20);
      }

      .gal-38 {
        fill: #c2c9f0;
      }

      .gal-39 {
        fill: #686e8f;
      }

      .gal-40 {
        fill: #232f63;
      }

      .gal-41 {
        fill: #606685;
      }

      .gal-42 {
        fill: #343f6e;
      }

      .gal-43 {
        fill: #5263ad;
      }

      .gal-44 {
        fill: #f08929;
      }

      .gal-45 {
        fill: #3c4d99;
      }

      .gal-46 {
        fill: #99a1d1;
      }

      .gal-47 {
        fill: url(#Unbenannter_Verlauf_16);
      }

      .gal-48 {
        fill: url(#Unbenannter_Verlauf_8);
      }

      .gal-49 {
        fill: #b9bfe0;
      }

      .gal-50 {
        opacity: 0.53;
      }

      .gal-51 {
        fill: url(#Unbenannter_Verlauf_7);
      }

      .gal-52 {
        fill: url(#gal-gradient-21);
      }

      .gal-53 {
        fill: url(#Unbenannter_Verlauf_7-2);
      }

      .gal-54 {
        fill: url(#Unbenannter_Verlauf_16-2);
      }

      .gal-55 {
        fill: #1d174b;
      }

      .gal-56 {
        fill: url(#gal-gradient-22);
      }

      .gal-57 {
        fill: url(#gal-gradient-23);
      }

      .gal-58 {
        fill: url(#gal-gradient-24);
      }

      .gal-59 {
        fill: url(#gal-gradient-25);
      }

      .gal-60 {
        fill: url(#gal-gradient-26);
      }

      .gal-61 {
        fill: url(#gal-gradient-27);
      }

      .gal-62 {
        fill: url(#gal-gradient-28);
      }

      .gal-63 {
        fill: #ec297b;
      }

      .gal-64 {
        fill: url(#gal-gradient-29);
      }

      .gal-65 {
        fill: url(#gal-gradient-30);
      }

      .gal-66 {
        fill: url(#gal-gradient-31);
      }

      .gal-67 {
        fill: url(#gal-gradient-32);
      }

      .gal-68 {
        fill: url(#gal-gradient-33);
      }

      .gal-69 {
        fill: url(#gal-gradient-34);
      }

      .gal-70 {
        fill: #00a69c;
      }

      .gal-71 {
        fill: url(#gal-gradient-35);
      }

      .gal-72 {
        fill: url(#gal-gradient-36);
      }

      .gal-73 {
        fill: url(#gal-gradient-37);
      }

      .gal-74 {
        fill: url(#gal-gradient-38);
      }

      .gal-75 {
        fill: url(#gal-gradient-39);
      }

      .gal-76 {
        fill: #1d1c4c;
      }

      .gal-77 {
        fill: #373a82;
      }

      .gal-78 {
        fill: url(#gal-gradient-40);
      }

      .gal-79 {
        fill: url(#gal-gradient-41);
      }

      .gal-80 {
        fill: url(#gal-gradient-42);
      }

      .gal-81 {
        fill: url(#gal-gradient-43);
      }

      .gal-82 {
        fill: url(#gal-gradient-44);
      }
    </style>
    <linearGradient id="gal-gradient" x1="1050.13" y1="265.59" x2="1077.72" y2="109.14" gradientUnits="userSpaceOnUse">
      <stop offset="0" stop-color="#b37cff"/>
      <stop offset="1" stop-color="#f895e7"/>
    </linearGradient>
    <linearGradient id="gal-gradient-2" x1="1228.87" y1="253.22" x2="1205.23" y2="131.58" xlink:href="#gal-gradient"/>
    <linearGradient id="gal-gradient-3" x1="1101.27" y1="142.04" x2="1251.88" y2="142.04" xlink:href="#gal-gradient"/>
    <linearGradient id="gal-gradient-4" x1="1212.85" y1="159.24" x2="1126.61" y2="159.24" xlink:href="#gal-gradient"/>
    <linearGradient id="gal-gradient-5" x1="830.86" y1="192.46" x2="860.37" y2="192.46" gradientUnits="userSpaceOnUse">
      <stop offset="0" stop-color="#fdf53f"/>
      <stop offset="1" stop-color="#d93c65"/>
    </linearGradient>
    <linearGradient id="gal-gradient-6" x1="833.01" y1="208.79" x2="860.37" y2="208.79" gradientUnits="userSpaceOnUse">
      <stop offset="0" stop-color="#50e7b7"/>
      <stop offset="1" stop-color="#323992"/>
    </linearGradient>
    <linearGradient id="gal-gradient-7" x1="808.9" y1="174.38" x2="829.29" y2="174.38" gradientUnits="userSpaceOnUse">
      <stop offset="0" stop-color="#2b3582"/>
      <stop offset="1" stop-color="#150e42"/>
    </linearGradient>
    <linearGradient id="gal-gradient-8" x1="807.32" y1="213.26" x2="824.33" y2="213.26" xlink:href="#gal-gradient-6"/>
    <linearGradient id="gal-gradient-9" x1="832.3" y1="210.06" x2="848.61" y2="210.06" xlink:href="#gal-gradient-6"/>
    <linearGradient id="gal-gradient-10" x1="836.46" y1="187.52" x2="846.73" y2="187.52" xlink:href="#gal-gradient-5"/>
    <linearGradient id="gal-gradient-11" x1="149.27" y1="139.7" x2="218.7" y2="139.7" gradientUnits="userSpaceOnUse">
      <stop offset="0" stop-color="#a737d5"/>
      <stop offset="1" stop-color="#ef497a"/>
    </linearGradient>
    <linearGradient id="gal-gradient-12" x1="31.81" y1="206.22" x2="198.63" y2="206.22" xlink:href="#gal-gradient-11"/>
    <linearGradient id="gal-gradient-13" x1="18.86" y1="161.38" x2="190.43" y2="161.38" xlink:href="#gal-gradient-11"/>
    <linearGradient id="Unbenannter_Verlauf_27" data-name="Unbenannter Verlauf 27" x1="52.68" y1="171.63" x2="185.84" y2="171.63" gradientUnits="userSpaceOnUse">
      <stop offset="0" stop-color="#ef497a"/>
      <stop offset="0.7" stop-color="#a737d5"/>
    </linearGradient>
    <linearGradient id="gal-gradient-14" x1="933.27" y1="90.4" x2="960.48" y2="90.4" xlink:href="#gal-gradient-11"/>
    <linearGradient id="gal-gradient-15" x1="928.25" y1="23.7" x2="955.45" y2="23.7" xlink:href="#gal-gradient-11"/>
    <linearGradient id="gal-gradient-16" x1="897.89" y1="59.07" x2="941.66" y2="59.07" xlink:href="#gal-gradient-11"/>
    <linearGradient id="gal-gradient-17" x1="242.58" y1="90.28" x2="269.79" y2="90.28" xlink:href="#gal-gradient"/>
    <linearGradient id="gal-gradient-18" x1="229.84" y1="51.66" x2="257.04" y2="51.66" xlink:href="#gal-gradient"/>
    <linearGradient id="gal-gradient-19" x1="260.18" y1="61.74" x2="303.96" y2="61.74" xlink:href="#gal-gradient"/>
    <linearGradient id="gal-gradient-20" x1="112.27" y1="208.15" x2="1186.4" y2="208.15" xlink:href="#gal-gradient-11"/>
    <linearGradient id="Unbenannter_Verlauf_16" data-name="Unbenannter Verlauf 16" x1="244.51" y1="184.86" x2="278.63" y2="184.86" gradientUnits="userSpaceOnUse">
      <stop offset="0" stop-color="#d93c65"/>
      <stop offset="1" stop-color="#fdf53f"/>
    </linearGradient>
    <linearGradient id="Unbenannter_Verlauf_8" data-name="Unbenannter Verlauf 8" x1="237.18" y1="203" x2="278.63" y2="203" gradientUnits="userSpaceOnUse">
      <stop offset="0" stop-color="#323992"/>
      <stop offset="1" stop-color="#50e7b7"/>
    </linearGradient>
    <linearGradient id="Unbenannter_Verlauf_7" data-name="Unbenannter Verlauf 7" x1="249.24" y1="200.57" x2="266.74" y2="200.57" xlink:href="#Unbenannter_Verlauf_8"/>
    <linearGradient id="gal-gradient-21" x1="279.9" y1="156.68" x2="302.03" y2="156.68" xlink:href="#gal-gradient-7"/>
    <linearGradient id="Unbenannter_Verlauf_7-2" data-name="Unbenannter Verlauf 7" x1="274.08" y1="222.25" x2="283.54" y2="222.25" xlink:href="#Unbenannter_Verlauf_8"/>
    <linearGradient id="Unbenannter_Verlauf_16-2" x1="260.53" y1="176.07" x2="272.92" y2="176.07" xlink:href="#Unbenannter_Verlauf_16"/>
    <linearGradient id="gal-gradient-22" x1="588.11" y1="206.29" x2="573.18" y2="211.43" xlink:href="#gal-gradient-6"/>
    <linearGradient id="gal-gradient-23" x1="577.24" y1="185.04" x2="559.35" y2="214.82" xlink:href="#gal-gradient-5"/>
    <linearGradient id="gal-gradient-24" x1="573.53" y1="181.31" x2="562.7" y2="184.83" xlink:href="#gal-gradient-6"/>
    <linearGradient id="gal-gradient-25" x1="580.52" y1="233.12" x2="568.37" y2="237.07" xlink:href="#gal-gradient-6"/>
    <linearGradient id="gal-gradient-26" x1="580.6" y1="200.3" x2="556.22" y2="208.23" xlink:href="#gal-gradient-6"/>
    <linearGradient id="gal-gradient-27" x1="605.39" y1="203.07" x2="592.56" y2="207.23" xlink:href="#gal-gradient-6"/>
    <linearGradient id="gal-gradient-28" x1="550.56" y1="176.92" x2="561.29" y2="176.92" xlink:href="#gal-gradient-7"/>
    <linearGradient id="gal-gradient-29" x1="558.15" y1="164.9" x2="578.07" y2="164.9" xlink:href="#gal-gradient-7"/>
    <linearGradient id="gal-gradient-30" x1="570.8" y1="190.08" x2="579.57" y2="190.08" xlink:href="#gal-gradient-5"/>
    <linearGradient id="gal-gradient-31" x1="1200.64" y1="48.29" x2="1224.31" y2="48.29" xlink:href="#gal-gradient-7"/>
    <linearGradient id="gal-gradient-32" x1="1211.38" y1="62.14" x2="1226.19" y2="62.14" xlink:href="#gal-gradient-7"/>
    <linearGradient id="gal-gradient-33" x1="1185.42" y1="157.85" x2="1193.11" y2="157.85" xlink:href="#gal-gradient-6"/>
    <linearGradient id="gal-gradient-34" x1="1168.87" y1="140.07" x2="1174.23" y2="140.07" gradientTransform="translate(1926.69 1046.65) rotate(-136.61)" xlink:href="#gal-gradient-6"/>
    <linearGradient id="gal-gradient-35" x1="1174.22" y1="146.91" x2="1185.07" y2="146.91" xlink:href="#gal-gradient-6"/>
    <linearGradient id="gal-gradient-36" x1="1172.27" y1="142.51" x2="1181.03" y2="142.51" xlink:href="#gal-gradient-6"/>
    <linearGradient id="gal-gradient-37" x1="1181.94" y1="115.64" x2="1190.55" y2="115.64" xlink:href="#gal-gradient-5"/>
    <linearGradient id="gal-gradient-38" x1="1186.03" y1="119.81" x2="1210.91" y2="119.81" xlink:href="#gal-gradient-5"/>
    <linearGradient id="gal-gradient-39" x1="1183.14" y1="86.99" x2="1201.71" y2="86.99" xlink:href="#gal-gradient-7"/>
    <linearGradient id="gal-gradient-40" x1="1190.53" y1="157.33" x2="1215.97" y2="157.33" xlink:href="#gal-gradient-6"/>
    <linearGradient id="gal-gradient-41" x1="1205.34" y1="105.2" x2="1214.52" y2="105.2" xlink:href="#gal-gradient-5"/>
    <linearGradient id="gal-gradient-42" x1="1177.08" y1="140.32" x2="1183.81" y2="140.32" xlink:href="#gal-gradient-6"/>
    <linearGradient id="gal-gradient-43" x1="1215.47" y1="71.46" x2="1226.05" y2="71.46" xlink:href="#gal-gradient-6"/>
    <linearGradient id="gal-gradient-44" x1="1192.21" y1="105.14" x2="1202.12" y2="105.14" xlink:href="#gal-gradient-7"/>
  </defs>
  <g class="gal-1">
    <g id="Layer_1" data-name="Layer 1">
      <ellipse class="gal-2" cx="638.13" cy="250.54" rx="572.87" ry="20.35"/>
      <g>
        <path class="gal-3 tree-r" d="M1107.15,275.65c-.53-2.42-27.17-38.87-50.34-45.67s-3.61-21.18,13.56-14.77-5.53-25-33.11-34.2-.91-27.19,17-17.38-17-32.67-39.62-41.59-6.68-31,18.48-19.53,33.81,42.21,36.62,50.61,9.62,3.45,9.13-12.45,29.88-16.84,23.88,14.59-6.41,56.85,2,50,5.11-26.42,16.06-30.5S1143,191,1130,217.46s-11.58,55.73-11.58,55.73Z" transform="translate(-18.86 -27.19)"/>
        <path class="gal-4 tree-r" d="M1133.63,271.73c1.71-2.26,44.51-29.13,69.07-27.16s14-20.17-4.85-20.24,17.74-23.3,47.55-22.1,14.65-27.32-6.64-24.21,32.11-26.72,57.24-27.12,21.82-29-6.91-27-52.25,30-59.08,37.47-10.52-.19-2-16.18-18.65-28.6-29.16,5.69-23.06,60.32-27.18,50.1,8.77-28.86.87-37.21-28.55,8-30.17,39.94-17.79,61.17-17.79,61.17Z" transform="translate(-18.86 -27.19)"/>
        <g class="tree-r">
          <path class="gal-5" d="M1130.1,256.88c.68-3.12,31.82-50.92,57.93-60.52s4.85-27.32-14.54-18.44,7.15-32.28,38.27-45.15,2.09-34.93-18.27-21.67,20.27-42.57,45.83-54.88,8.67-40-19.84-24.37-39.36,55.46-42.82,66.35-10.87,4.78-9.7-15.63-32.65-20.49-27.19,19.62,4.9,72.73-4.16,64.21-4.66-33.73-16.71-38.55-25.47,21.72-12,55.21,10.71,71.1,10.71,71.1Z" transform="translate(-18.86 -27.19)"/>
          <path class="gal-6" d="M1126.61,255.32c.12-4.62.57-9,1.11-13.52s1.24-8.89,2.06-13.3c1.61-8.82,3.67-17.54,6.09-26.16A350.84,350.84,0,0,1,1154.4,152,395.41,395.41,0,0,1,1180,105a443.62,443.62,0,0,1,31.33-43.39.87.87,0,0,1,1.35,1.09,442.31,442.31,0,0,0-30.81,43.47,393.7,393.7,0,0,0-25,47,348,348,0,0,0-17.92,50c-2.33,8.55-4.29,17.2-5.79,25.91q-1.15,6.54-1.91,13.12c-.49,4.37-.89,8.83-1,13.11v.07a1.83,1.83,0,1,1-3.66-.06Z" transform="translate(-18.86 -27.19)"/>
        </g>
      </g>
      <g>
        <path class="gal-7" d="M430.89,220.86a1.6,1.6,0,0,1-1.56,1.23H415.76a1.05,1.05,0,0,1-1.13-1.23l.76-4.34a1.59,1.59,0,0,1,1.55-1.21h13.58a1.05,1.05,0,0,1,1.13,1.21Zm6.59-8.6A1.19,1.19,0,0,0,436.2,211h-24a1.8,1.8,0,0,0-1.7,1.22L394,267.61a1.16,1.16,0,0,0,1.22,1.51h6.5a1.58,1.58,0,0,0,1.55-1.22l.91-5.16a1.59,1.59,0,0,1,1.55-1.22H425a1,1,0,0,1,1.12,1.22l-.9,5.16a1,1,0,0,0,1.12,1.22h6.5a1.73,1.73,0,0,0,1.75-1.51Z" transform="translate(-18.86 -27.19)"/>
        <path class="gal-8" d="M434.32,221.78a1.24,1.24,0,0,1-1.26,1.34H419.49a1.46,1.46,0,0,1-1.44-1.34l-.32-4.74a1.23,1.23,0,0,1,1.25-1.33h13.57A1.46,1.46,0,0,1,434,217Zm4.43-9.41a1.63,1.63,0,0,0-1.58-1.33h-24a1.38,1.38,0,0,0-1.4,1.33l-2.64,60.54a1.62,1.62,0,0,0,1.6,1.65h6.51a1.24,1.24,0,0,0,1.24-1.34l-.39-5.64a1.22,1.22,0,0,1,1.24-1.33h19.29a1.44,1.44,0,0,1,1.42,1.33l.39,5.64a1.45,1.45,0,0,0,1.43,1.34h6.5a1.37,1.37,0,0,0,1.37-1.65Z" transform="translate(-18.86 -27.19)"/>
        <path class="gal-9" d="M437.27,258.11H420.66a2.62,2.62,0,0,1-2.26-1.28,2.57,2.57,0,0,1-.08-2.56l7.88-14.93a2.52,2.52,0,0,1,2.2-1.36,2.65,2.65,0,0,1,2.33,1.31l8.73,14.94a2.59,2.59,0,0,1,0,2.61A2.54,2.54,0,0,1,437.27,258.11Zm-8.84-18.31h0a.32.32,0,0,0-.31.19l-8.27,15.66a.42.42,0,0,0,0,.42.46.46,0,0,0,.39.23h17.42a.36.36,0,0,0,.32-.18.43.43,0,0,0,0-.43L428.82,240A.43.43,0,0,0,428.43,239.8Z" transform="translate(-18.86 -27.19)"/>
        <path class="gal-9" d="M435.26,255a.3.3,0,0,1-.29.29h-3.52a.48.48,0,0,1-.26.07.52.52,0,0,1-.27-.07h-7a.29.29,0,0,1-.29-.29.3.3,0,0,1,.29-.29h6.67v-2.09l-1.05-1.78-1.08-1.25-.58,1.19.53,1.71a.57.57,0,0,1-.38.72l-.17,0a.58.58,0,0,1-.55-.41l-.6-1.93a.55.55,0,0,1,0-.42l.9-1.84-.05,0a1.55,1.55,0,0,1-.83.24,1.59,1.59,0,1,1,0-3.17,1.57,1.57,0,0,1,1.58,1.58,1.6,1.6,0,0,1,0,.3l.44-.64V245.1a.58.58,0,1,1,1.15,0v2a.55.55,0,0,1-.1.32l-.75,1.1,1.05,1.21,1.45-1.2a.57.57,0,0,1,.77,0l1.7,1.75a.57.57,0,0,1-.41,1,.58.58,0,0,1-.41-.17l-1.33-1.37-1.1.92.88,1.5a.47.47,0,0,1,.09.28v2.24H435A.3.3,0,0,1,435.26,255Z" transform="translate(-18.86 -27.19)"/>
        <g>
          <path class="gal-10" d="M417.11,229.3a2.31,2.31,0,0,1,.37,0l.34.07a3.37,3.37,0,0,1,.34.09v.85l-.36-.12a2.59,2.59,0,0,0-.42-.09,1.48,1.48,0,0,0-.42,0,.81.81,0,0,0-.37.15,1,1,0,0,0-.27.37,1.6,1.6,0,0,0-.1.63,1.62,1.62,0,0,0,.1.64.78.78,0,0,0,.25.37.73.73,0,0,0,.36.15,1.49,1.49,0,0,0,.42,0,2.41,2.41,0,0,0,.43-.1l.38-.12v.84l-.34.11-.34.07-.37,0-.37,0a2.34,2.34,0,0,1-.41-.12,2.82,2.82,0,0,1-.41-.23,1.78,1.78,0,0,1-.35-.37,2.28,2.28,0,0,1-.25-.52,2.55,2.55,0,0,1-.09-.71,2.48,2.48,0,0,1,.09-.7,2.28,2.28,0,0,1,.25-.52,1.78,1.78,0,0,1,.35-.37,2.12,2.12,0,0,1,.41-.23,2.41,2.41,0,0,1,.41-.13Z" transform="translate(-18.86 -27.19)"/>
          <path class="gal-10" d="M420.68,232.38h-1.15l-.29.82h-.93l1.18-3.84h1.23L422,233.2h-1Zm-.22-.72c0-.11,0-.2,0-.29s0-.18-.07-.29,0-.23-.07-.34,0-.22-.08-.32-.05-.19-.08-.26c-.07.28-.14.53-.2.75s-.05.18-.08.27,0,.17-.06.24l-.06.24Z" transform="translate(-18.86 -27.19)"/>
          <path class="gal-10" d="M423.8,233.26a1.46,1.46,0,0,1-.6-.11,1.4,1.4,0,0,1-.47-.32,1.31,1.31,0,0,1-.32-.47,1.58,1.58,0,0,1-.11-.58V229.3h1V232a.6.6,0,0,0,.05.24.37.37,0,0,0,.16.17.75.75,0,0,0,.33.06.72.72,0,0,0,.33-.06.55.55,0,0,0,.16-.18.71.71,0,0,0,0-.26c0-.1,0-.2,0-.3V229.3h1v2.48a1.58,1.58,0,0,1-.11.58,1.43,1.43,0,0,1-.31.47,1.55,1.55,0,0,1-.48.32A1.46,1.46,0,0,1,423.8,233.26Z" transform="translate(-18.86 -27.19)"/>
          <path class="gal-10" d="M428.25,229.36v.81h-.82v3h-1v-3h-.82v-.81Z" transform="translate(-18.86 -27.19)"/>
          <path class="gal-10" d="M429.67,229.36v3.84h-1v-3.84Z" transform="translate(-18.86 -27.19)"/>
          <path class="gal-10" d="M431.94,229.3a2.28,2.28,0,0,1,.36,0,1.9,1.9,0,0,1,.38.13,1.56,1.56,0,0,1,.36.23,1.61,1.61,0,0,1,.3.37,1.89,1.89,0,0,1,.21.52,3,3,0,0,1,.07.7,3,3,0,0,1-.07.71,1.77,1.77,0,0,1-.21.52,1.61,1.61,0,0,1-.3.37,1.56,1.56,0,0,1-.36.23,1.86,1.86,0,0,1-.38.12,2.28,2.28,0,0,1-.36,0,1.88,1.88,0,0,1-.55-.08,1.3,1.3,0,0,1-.55-.3,1.65,1.65,0,0,1-.42-.61,2.94,2.94,0,0,1,0-2,1.65,1.65,0,0,1,.42-.61,1.44,1.44,0,0,1,.55-.31A2.28,2.28,0,0,1,431.94,229.3Zm-.7,2a3.19,3.19,0,0,0,0,.45,1.31,1.31,0,0,0,.11.38.67.67,0,0,0,.22.25.63.63,0,0,0,.68,0,.58.58,0,0,0,.21-.25,1.31,1.31,0,0,0,.11-.38,2.15,2.15,0,0,0,0-.45,2.25,2.25,0,0,0,0-.46,1.31,1.31,0,0,0-.11-.38.67.67,0,0,0-.22-.25.58.58,0,0,0-.33-.09.59.59,0,0,0-.34.09.76.76,0,0,0-.22.25,1.31,1.31,0,0,0-.11.38A3.33,3.33,0,0,0,431.24,231.28Z" transform="translate(-18.86 -27.19)"/>
          <path class="gal-10" d="M437.28,233.2h-1.2l-1.1-2.63v2.63h-.85v-3.84h1.24l1,2.61v-2.61h.87Z" transform="translate(-18.86 -27.19)"/>
        </g>
      </g>
      <g>
        <g>
          <path class="gal-11" d="M862.82,240.16H840s4.68-14,11.42-14.67S862.82,240.16,862.82,240.16Z" transform="translate(-18.86 -27.19)"/>
          <path class="gal-12" d="M857.51,277.1c.62,1.07,3.22,1.07,6.53,1.23s5.78-.57,6.63-.08,2.13.6,4.35.52c1-.57.39-2.58-.94-5.3a5.11,5.11,0,0,1-.27-.64,15.15,15.15,0,0,1-.54-5.93,15.44,15.44,0,0,0-5.26,1.42,6.21,6.21,0,0,1-1.16,4.1c-2.39,3-6.27,2.67-7.07,2.86C858.73,275.53,857.44,275.78,857.51,277.1Z" transform="translate(-18.86 -27.19)"/>
          <path class="gal-13" d="M857.51,277.1c.62,1.07,3.22,1.07,6.53,1.23s5.78-.57,6.63-.08,2.13.6,4.35.52c1-.57.39-2.58-.94-5.3a5.11,5.11,0,0,1-.27-.64c-.6.06-2.41.72-3.41.8s-2.41-1.47-3.55-1.21c-2.39,3-6.27,2.67-7.07,2.86C858.73,275.53,857.44,275.78,857.51,277.1Z" transform="translate(-18.86 -27.19)"/>
          <path class="gal-12" d="M822.1,277.13c.42,1.09,3,1.09,6.3,1.26s5.89-.59,6.65-.09,2.35.59,4.58.5c1.06-.58.54-2.6-.3-5.37a4.83,4.83,0,0,1-.14-.66c-.46-2.69,1-6.06,1-6.06a21.72,21.72,0,0,0-5.46,1.61,11.24,11.24,0,0,1-2.41,4c-2.95,3.09-6.76,2.72-7.59,2.92C823.61,275.53,822.27,275.78,822.1,277.13Z" transform="translate(-18.86 -27.19)"/>
          <path class="gal-12" d="M837.62,190.56l-6,11.17c-1.78,3.64-14.49,17-12,14.71a3.48,3.48,0,0,1-2.64-2.75s7.78-11.85,9.15-14.36c1.82-2.4,5.28-13,6.43-15.31S837.62,190.56,837.62,190.56Z" transform="translate(-18.86 -27.19)"/>
          <path class="gal-14" d="M831.22,202.47a6.22,6.22,0,0,0,.43-.74l6-11.17s-3.9-8.82-5-6.54c-.4.8-1.1,2.65-1.9,4.8A31.73,31.73,0,0,1,831.22,202.47Z" transform="translate(-18.86 -27.19)"/>
          <path class="gal-13" d="M847.47,216.21a78.42,78.42,0,0,0,3,10.77c.39,1.1.83,2.25,1.31,3.44a62.85,62.85,0,0,0,5.51,10.65c8.35,11.79,10.44,27.53,10.44,27.53s0,.51,6.06-.86c.34-19.4-4.7-29-9.86-33.12-.56-1-1.2-7.89-1.65-13.89-.38-4.85-.63-9.11-.63-9.11l-4.82,1.56Z" transform="translate(-18.86 -27.19)"/>
          <path class="gal-13" d="M822.1,277.13c.42,1.09,3,1.09,6.3,1.26s5.89-.59,6.65-.09,2.35.59,4.58.5c1.06-.58.54-2.6-.3-5.37a4.83,4.83,0,0,1-.14-.66c-.62.07-2.54.74-3.56.82s-2.14-1.5-3.33-1.23c-2.95,3.09-6.76,2.72-7.59,2.92C823.61,275.53,822.27,275.78,822.1,277.13Z" transform="translate(-18.86 -27.19)"/>
          <path class="gal-15" d="M850.49,227c.39,1.1,2.18,5.35,2.66,6.54,2.79-2.14,5.88-9.47,9.15-12.79-.38-4.85-.63-9.11-.63-9.11l-4.82,1.56C854.83,217.23,852.09,223,850.49,227Z" transform="translate(-18.86 -27.19)"/>
          <path class="gal-13" d="M857.08,199.83l3.29,1.79s3.36,8.63,2.21,12.64-12.15,16.82-17,21.86a28.51,28.51,0,0,1,0,18c-2,5.73-4.8,15.24-4.8,15.24s-4.69.46-6.41-.75c1.49-7.5,2.38-27.2,2.05-32.7.24-5,5.14-20,11.62-28.31S857.08,199.83,857.08,199.83Z" transform="translate(-18.86 -27.19)"/>
          <path class="gal-16" d="M844.4,213.26s11.67-.29,18-4.47c-1.4-5.26-2.07-7.17-2.07-7.17s-13.06,7.28-16,11.64Z" transform="translate(-18.86 -27.19)"/>
          <path class="gal-17" d="M860.37,201.62s-6.52,5-14,6.67c-2.41-6.67-4.89-9.15-4.89-9.15s-6.05-2.49-7.35-4.21-3.56-7.84-3.24-11.69,1.33-8.36,11.91-5.91S858.75,198.17,860.37,201.62Z" transform="translate(-18.86 -27.19)"/>
          <path class="gal-18" d="M851.4,199.82s-10.71-5.64-13.78-10.37C838.77,185.24,855.75,188.69,851.4,199.82Z" transform="translate(-18.86 -27.19)"/>
          <path class="gal-19" d="M859.68,199.82l.69,1.8s-12.75,17-15.74,29.15-1.89,9.39-1.89,9.39-6.24.73-6.22,0-.11-5.53-.11-5.53,3-17.46,10.64-26.51c-2.45-4-6.27-9.15-8.36-10.24s-4.28-2.09-4.28-2.09L833.08,193s3.11.36,1.79-3.84a24.43,24.43,0,0,1-1.1-10.85c.21-1.2-.76-1-.76-1l1.06-.22a.82.82,0,0,1,1,.91,21.19,21.19,0,0,0-.18,3.84c.79,9.56,9.41,16.34,15.71,20.54C853.84,204.28,859.68,199.82,859.68,199.82Z" transform="translate(-18.86 -27.19)"/>
          <path class="gal-12" d="M840.49,209.17l0,0S840.49,209.17,840.49,209.17Z" transform="translate(-18.86 -27.19)"/>
          <path class="gal-12" d="M843.21,192.79a24.81,24.81,0,0,0,5.87,2.39,113.17,113.17,0,0,1-8.57,14c.08,0,.4.29,1.62,1.82,12-4.52,14.74-17,13.9-18.2-.68-.92-5.86-4.77-9.34-6.9a19,19,0,0,0-2.36-1.29c-2-2.18-5.16-3.87-7.25,0-2.65,4.92,4.06,7,4.06,7S842,192.11,843.21,192.79Z" transform="translate(-18.86 -27.19)"/>
          <path class="gal-12" d="M832.5,185.87c-1.92-2.15-3.78-3.4-4-2.44s-1.39,4.13-1.93,4.44-3.55-.07-5.78-.84c-.62.85-.85.9-1.08.95s-2.16-3.26-2.7-3.65-3.08-.61-3.46-.84a11.25,11.25,0,0,1-2.78-3.08c-.38-1,6.7-10.79,6.7-10.79s8.86,4.16,9.09,4.32,2.72,1.61,2.72,1.61a23.21,23.21,0,0,0,4.4,1.95c.48.15.09.93-.24,1.3A7.43,7.43,0,0,0,832.5,185.87Z" transform="translate(-18.86 -27.19)"/>
          <path class="gal-14" d="M826.58,187.87a10.13,10.13,0,0,0,1.89-4.18c.2-.74,1.69,0,2.63.77a44.92,44.92,0,0,0-3.85-6.11h0l-.36-1-.73,1a27,27,0,0,1,1.45,4.36C827.79,184.08,826.58,187.87,826.58,187.87Z" transform="translate(-18.86 -27.19)"/>
          <path class="gal-20" d="M825,178.64a1.72,1.72,0,0,0,1.27-2.59,3.51,3.51,0,0,1,1,0A2.19,2.19,0,0,1,825,178.64Z" transform="translate(-18.86 -27.19)"/>
          <path class="gal-21" d="M823.49,178s-1.82-1-2-1.82,1.33-2.93,3.7-1.44a10.21,10.21,0,0,1,1.32,1.6,13.42,13.42,0,0,0,2.77-.83c-1.27-.55-2.66-2.84-3.65-4.58s-4.08-5.13-7-4.31a9,9,0,0,0-8.72,6c-1.27,3.81-1.16,8.73-.67,9.33s2.6-.33,2.6-.33a16.47,16.47,0,0,0,2.15-3.92,3.57,3.57,0,0,0,4.58,0c.67-.5,3.81,1.05,3.81,1.05Z" transform="translate(-18.86 -27.19)"/>
          <path class="gal-22" d="M824.25,211.29s-3.15-1.7-3.89-3c-.61,1-3.74,5.72-3.74,5.72l-5-.87s-2.87,1.4-3.07,1.47a8,8,0,0,0-1.27,2.87c.13.34,1.57.47,1.57.47l1-1.13s-.34,1.07.33,1.13a28.57,28.57,0,0,0,3.41-.33s4.08,1.54,4.55-.27C819.49,217.28,825.09,211.75,824.25,211.29Z" transform="translate(-18.86 -27.19)"/>
          <path class="gal-23" d="M848.61,207.69s-4.44-4-4.66-3.65-4,5.2-4,5.29c.13,1.75-4.61.56-5.24-1-.16-.41-2.14,2.4-2.41,2.92s1.42,4.74,2.08,4.87,3.68-.67,3.21-1.2a2.09,2.09,0,0,1-.54-1s4.74.07,5.21-.93.4-.6.4-.6S847.77,209,848.61,207.69Z" transform="translate(-18.86 -27.19)"/>
        </g>
        <path class="gal-24" d="M841.14,191.58s.85.53,2.07,1.21c2.14-1.35,3.81-6.73,3.48-6.92h0a19,19,0,0,0-2.36-1.29c-2-2.18-5.16-3.87-7.25,0C834.43,189.49,841.14,191.58,841.14,191.58Z" transform="translate(-18.86 -27.19)"/>
      </g>
      <g>
        <g>
          <path class="gal-25 tree-l" d="M204.59,210.36c-.71-1.66-.25-34.57,10.65-48.38s-6.79-14.11-14.29-3.06-7.25-17.18,5.26-34.3-10.93-16.54-17.44-3.16-3.66-26.59,6-41.43-9.09-21.23-19.23-3.82-2.29,39.36-.41,45.54-4.27,6.1-10.68-3.55-24.87,2.6-8,18.74,27.79,31.09,19.91,30.53-14.19-13.55-22.42-11.36-6.37,19.07,12.53,29.32,30.39,28.24,30.39,28.24Z" transform="translate(-18.86 -27.19)"/>
          <path class="gal-26 tree-l" d="M196.13,224.19c-2-.62-38.75,1.46-52.51,13s-16.87-6.07-5.66-14.08-20.38-6.37-37.59,6.92S80.14,220,94.11,212.84s-30.36-2.34-45.47,8-25.19-8-7.27-18.94,43.71-4.22,50.92-2.66,6.18-4.55-5.64-10.45-1-24.88,19.73-8.93,39.16,26.13,37.3,18.32-17.39-13.46-16.22-21.76,20.36-7.28,34.79,11,36.38,28.86,36.38,28.86Z" transform="translate(-18.86 -27.19)"/>
          <g class="tree-l">
            <path class="gal-27 " d="M184.15,212.68c-1.72-1.57-40.4-16.84-60-11.54s-14.42-14.19.86-17.1-17.87-16.17-41.8-10.69-16-19.88,1.72-20.58S55,136,34.58,139.48s-22-20.12,1.51-22.86S82.88,133,89.53,138s8.48-1.73-.83-13.38,10.77-25.95,24.44.19,27.77,45.3,29.56,36.42-11.45-22-6.33-30,24.31,2.17,30.44,27.75,23.62,46.78,23.62,46.78Z" transform="translate(-18.86 -27.19)"/>
            <path class="gal-28" d="M183.39,211.83a138.28,138.28,0,0,0-12.78-14.36l-3.47-3.38c-1.16-1.12-2.39-2.17-3.58-3.26s-2.38-2.17-3.61-3.22l-3.73-3.09a267.08,267.08,0,0,0-31.74-22.22L116,157.57c-1.43-.77-2.81-1.62-4.26-2.33l-4.35-2.15c-2.91-1.41-5.78-2.91-8.72-4.26L89.78,145,85.32,143l-4.55-1.69L71.67,138c-1.51-.59-3.06-1.06-4.61-1.54L62.43,135l-9.28-2.9h0a.63.63,0,0,1,.37-1.2l9.34,2.82,4.67,1.42c1.56.46,3.12.92,4.63,1.51l9.18,3.32,4.59,1.66,4.5,1.89,9,3.8c3,1.33,5.87,2.81,8.81,4.21l4.4,2.12c1.47.71,2.87,1.54,4.31,2.31l8.57,4.69a267,267,0,0,1,32.2,22.12l3.8,3.08c1.25,1.05,2.45,2.16,3.68,3.23s2.47,2.14,3.65,3.26l3.54,3.39a138.11,138.11,0,0,1,13.21,14.59,1.33,1.33,0,1,1-2.11,1.62h0Z" transform="translate(-18.86 -27.19)"/>
          </g>
        </g>
        <g>
          <g class="gal-29 cloud">
            <path class="gal-30" d="M215.58,119a13.29,13.29,0,1,1,13.28-13.29A13.3,13.3,0,0,1,215.58,119Zm0-20.82a7.53,7.53,0,1,0,7.53,7.53A7.54,7.54,0,0,0,215.58,98.16Z" transform="translate(-18.86 -27.19)"/>
          </g>
          <g class="gal-29 cloud">
            <path class="gal-30" d="M188.07,188.77A17.78,17.78,0,1,1,205.85,171,17.8,17.8,0,0,1,188.07,188.77Zm0-27.86A10.08,10.08,0,1,0,198.15,171,10.09,10.09,0,0,0,188.07,160.91Z" transform="translate(-18.86 -27.19)"/>
          </g>
          <g class="gal-29 cloud">
            <path class="gal-30" d="M239.45,220a20.41,20.41,0,1,1,20.4-20.41A20.43,20.43,0,0,1,239.45,220Zm0-32A11.57,11.57,0,1,0,251,199.6,11.58,11.58,0,0,0,239.45,188Z" transform="translate(-18.86 -27.19)"/>
          </g>
        </g>
      </g>
      <g>
        <polygon class="gal-31 sparkle" points="946.88 73.85 949.79 87.48 960.48 90.4 949.79 93.32 946.88 106.95 943.96 93.32 933.27 90.4 943.96 87.48 946.88 73.85"/>
        <polygon class="gal-32 sparkle" points="941.85 7.14 944.77 20.78 955.45 23.7 944.77 26.62 941.85 40.25 938.93 26.62 928.25 23.7 938.93 20.78 941.85 7.14"/>
        <polygon class="gal-33 sparkle" points="919.78 32.43 924.47 54.37 941.66 59.07 924.47 63.76 919.78 85.7 915.08 63.76 897.89 59.07 915.08 54.37 919.78 32.43"/>
      </g>
      <g>
        <polygon class="gal-34 sparkle" points="256.19 73.73 259.1 87.36 269.79 90.28 259.1 93.2 256.19 106.84 253.27 93.2 242.58 90.28 253.27 87.36 256.19 73.73"/>
        <polygon class="gal-35 sparkle" points="243.44 35.1 246.36 48.74 257.04 51.66 246.36 54.57 243.44 68.21 240.52 54.57 229.84 51.66 240.52 48.74 243.44 35.1"/>
        <polygon class="gal-36 sparkle" points="282.07 35.1 286.77 57.04 303.96 61.74 286.77 66.43 282.07 88.37 277.38 66.43 260.18 61.74 277.38 57.04 282.07 35.1"/>
      </g>
      <path class="gal-37" d="M241.31,199V270a108.91,108.91,0,0,1-25.12,8,146.82,146.82,0,0,1-28.75,2.81q-23.12,0-40.1-8.74a60.8,60.8,0,0,1-26-25.13q-9-16.38-9-38.89,0-21.9,9-38.39a61.89,61.89,0,0,1,25.63-25.33q16.59-8.84,38.89-8.84a101.82,101.82,0,0,1,29,4q13.56,4,22,11.05l-11.46,26.13a77,77,0,0,0-18.89-9.24,64.48,64.48,0,0,0-19.3-2.81q-19.1,0-28.44,10.65t-9.35,32.76q0,22.71,9.75,33.67t29.85,10.95a91.58,91.58,0,0,0,19.1-2V224.33H183.22V199Zm148.13,80-12.66-29.34H314.07L301.41,279H264.22l66.13-141.7H359.7L426,279Zm-63.51-57.08h39l-19.49-45.43ZM450.55,279V137.3h37V249.06h60.3V279Zm131.05,0V137.3h37V249.06h60.3V279Zm131,0V137.3h100.7v28.54H748.63v26.93h60.7v28.35h-60.7v29.34h64.72V279Zm263.51,0H935.55L911,233.78q-4.62-7.84-14.67-7.84H885.1V279H848.72V137.3h67.54q25.72,0,38.69,11.15t13,32.27q0,16.08-8.84,27.23t-24.92,15q12.26,2.61,19.49,15.87ZM928,194.38q5.31-3.81,5.32-12.46,0-8.83-5.32-12.76t-17.59-3.92H884.7v33h25.73Q922.69,198.2,928,194.38ZM1006.91,279V137.3h37V279Zm78.79,0V137.3h100.7v28.54h-64.72v26.93h60.7v28.35h-60.7v29.34h64.72V279Z" transform="translate(-18.86 -27.19)"/>
      <g>
        <path class="gal-38" d="M303.66,262.12a1.37,1.37,0,0,1-1.11-.56L260.46,203.9a1.37,1.37,0,1,1,2.22-1.62l42.09,57.66a1.38,1.38,0,0,1-.3,1.92A1.35,1.35,0,0,1,303.66,262.12Z" transform="translate(-18.86 -27.19)"/>
        <path class="gal-39" d="M272.08,219.31a1.81,1.81,0,0,1-1.48-.75l-10.51-14.39a1.83,1.83,0,0,1,3-2.16l10.5,14.39a1.83,1.83,0,0,1-.4,2.56A1.78,1.78,0,0,1,272.08,219.31Z" transform="translate(-18.86 -27.19)"/>
        <path class="gal-40" d="M338.19,286.11l-28.24,2a.55.55,0,0,1-.39-.12l-5.69-4.49a.6.6,0,0,1-.21-.49l.11-1.35a.56.56,0,0,1,.54-.52l28.18-.68a.59.59,0,0,1,.29.07l5.75,3.19a.59.59,0,0,1,.29.54l-.11,1.31A.56.56,0,0,1,338.19,286.11Z" transform="translate(-18.86 -27.19)"/>
        <path class="gal-41" d="M337.4,284l-27.28,2a.6.6,0,0,1-.39-.11l-4.79-3.79a.56.56,0,0,1,.31-1l27.28-1.95a.55.55,0,0,1,.39.12l4.79,3.78A.56.56,0,0,1,337.4,284Z" transform="translate(-18.86 -27.19)"/>
        <path class="gal-39" d="M321.7,283.21a1.82,1.82,0,0,1-1.13-.39L310.73,275a1.9,1.9,0,0,1-.4-.45l-8.21-12.85a1.83,1.83,0,0,1,3.08-2l8.05,12.59,9.59,7.59a1.83,1.83,0,0,1-1.14,3.27Z" transform="translate(-18.86 -27.19)"/>
        <g>
          <path class="gal-42" d="M180.74,280.62c0,4.33-1.55,7.84-3.47,7.84h-4V272.78h4C179.19,272.78,180.74,276.29,180.74,280.62Z" transform="translate(-18.86 -27.19)"/>
          <ellipse class="gal-42" cx="154.43" cy="253.43" rx="3.47" ry="7.84"/>
          <path class="gal-43" d="M184,220.31v1.15a.86.86,0,0,1-.85.86h-6a.86.86,0,0,1-.85-.86v-1.57a.85.85,0,0,0-.85-.85H164a.85.85,0,0,1-.85-.85V216a.85.85,0,0,1,.85-.85h12.38v0h2.46A5.19,5.19,0,0,1,184,220.31Z" transform="translate(-18.86 -27.19)"/>
          <path class="gal-44" d="M195.87,232v45.9a1.15,1.15,0,0,1,0,.19,4,4,0,0,1-4,3.86H152.74a4,4,0,0,1-4-4.05V232a4,4,0,0,1,4-4h39.09A4,4,0,0,1,195.87,232Z" transform="translate(-18.86 -27.19)"/>
          <path class="gal-16" d="M196.79,232v45.9a1.15,1.15,0,0,1,0,.19H162.54a4.05,4.05,0,0,1-4-4V228.2a1.27,1.27,0,0,1,0-.2h34.24A4.05,4.05,0,0,1,196.79,232Z" transform="translate(-18.86 -27.19)"/>
          <path class="gal-39" d="M199,286.21c0,2.05-1.3,3.72-2.89,3.72h-3.66v-7.42h3.66C197.66,282.51,199,284.16,199,286.21Z" transform="translate(-18.86 -27.19)"/>
          <path class="gal-42" d="M195.29,286.21c0,2.05-1.29,3.72-2.88,3.72s-2.88-1.67-2.88-3.72,1.29-3.71,2.88-3.71S195.29,284.16,195.29,286.21Z" transform="translate(-18.86 -27.19)"/>
          <path class="gal-42" d="M153.09,280.62c0,4.33-1.55,7.84-3.47,7.84h-4V272.78h4C151.54,272.78,153.09,276.29,153.09,280.62Z" transform="translate(-18.86 -27.19)"/>
          <path class="gal-39" d="M149.11,280.62c0,4.33-1.55,7.84-3.46,7.84s-3.47-3.51-3.47-7.84,1.55-7.84,3.47-7.84S149.11,276.29,149.11,280.62Z" transform="translate(-18.86 -27.19)"/>
          <path class="gal-39" d="M171.65,286.21c0,2.05-1.29,3.72-2.88,3.72H165.1v-7.42h3.67C170.36,282.51,171.65,284.16,171.65,286.21Z" transform="translate(-18.86 -27.19)"/>
          <rect class="gal-42" x="173.03" y="254.79" width="1.63" height="0.52"/>
          <rect class="gal-42" x="147.49" y="254.79" width="1.63" height="0.52"/>
          <path class="gal-42" d="M168,286.21c0,2.05-1.29,3.72-2.88,3.72s-2.88-1.67-2.88-3.72,1.29-3.71,2.88-3.71S168,284.16,168,286.21Z" transform="translate(-18.86 -27.19)"/>
          <path class="gal-45" d="M193.78,226.2v1.57a3.94,3.94,0,0,1-.53,2l.33-4.73A3.64,3.64,0,0,1,193.78,226.2Z" transform="translate(-18.86 -27.19)"/>
          <path class="gal-16" d="M129.46,212.92h4.77a0,0,0,0,1,0,0v12.13a0,0,0,0,1,0,0h-4.77a1.37,1.37,0,0,1-1.37-1.37v-9.38A1.37,1.37,0,0,1,129.46,212.92Z"/>
          <rect class="gal-39" x="128.09" y="213.89" width="6.14" height="10.19"/>
          <path class="gal-43" d="M193.58,225l-.33,4.73L191.2,258a4.62,4.62,0,0,1-4.61,4.3h-8.7a4.64,4.64,0,0,1-4.33-3l-8.62-22.81a7.39,7.39,0,0,0-6.92-4.79h-4.73a3.88,3.88,0,0,1-3.89-3.88V226.2a3.88,3.88,0,0,1,3.89-3.88h36.6A3.85,3.85,0,0,1,193.58,225Z" transform="translate(-18.86 -27.19)"/>
          <path class="gal-40" d="M158,222.32v9.34h-4.75a3.88,3.88,0,0,1-3.88-3.88V226.2a3.88,3.88,0,0,1,3.88-3.88Z" transform="translate(-18.86 -27.19)"/>
          <path class="gal-40" d="M176,254.2a6.22,6.22,0,1,0,5.24-7A6.22,6.22,0,0,0,176,254.2Z" transform="translate(-18.86 -27.19)"/>
          <rect class="gal-46" x="157.9" y="207.56" width="8.53" height="7.83" rx="1.86"/>
          <path class="gal-39" d="M181.51,249.25l3.45-.51,1.19,8.07-3,.44-.46.1a4.09,4.09,0,1,1-1.19-8.1Z" transform="translate(-18.86 -27.19)"/>
          <path class="gal-40" d="M180.39,253.4a4.09,4.09,0,1,0,3.45-4.64A4.09,4.09,0,0,0,180.39,253.4Z" transform="translate(-18.86 -27.19)"/>
        </g>
        <g>
          <path class="gal-12" d="M217,285.92c1,.26,4.44-.47,8.27.54s9.19-.54,9.19-.54a5.51,5.51,0,0,0-.4-2.18c-.41-.6-1.72-.71-5.35-1.32a3.36,3.36,0,0,1-2.42-2.22,17,17,0,0,1-1-6.15s-4.55-4-5.56.94a15.34,15.34,0,0,1-1.73,4.65c-1.09,1.93-2.25,3-2.5,3.6A2.32,2.32,0,0,0,217,285.92Z" transform="translate(-18.86 -27.19)"/>
          <path class="gal-12" d="M225,274.05s-.2,7.77,3.43,8.38,5,.7,5.35,1.31a5.39,5.39,0,0,1,.41,2.18s-5.36,1.55-9.19.54-7.26-.27-8.27-.54a2.35,2.35,0,0,1-1.52-2.69c.41-.9,3.23-3.26,4.24-8.24S225,274.05,225,274.05Z" transform="translate(-18.86 -27.19)"/>
          <path class="gal-12" d="M262.16,272.84a17.81,17.81,0,0,1,1,5.75,7.22,7.22,0,0,1-.57,2.36c-.51,1.46-.7,4.21,0,4.67s3.74-.57,7.38-.17,8.37.72,10.47.21,1.94-3-.19-3.64a11.25,11.25,0,0,1-8.78-3.46,11.79,11.79,0,0,1-2.78-5.1L267,268.4S260.51,267.28,262.16,272.84Z" transform="translate(-18.86 -27.19)"/>
          <path class="gal-13" d="M217,285.92c1,.26,4.44-.47,8.27.54s9.19-.54,9.19-.54a5.51,5.51,0,0,0-.4-2.18c-.41-.6-1.72-.71-5.35-1.32a3.36,3.36,0,0,1-2.42-2.22,13.23,13.23,0,0,0-5.19,1.11c-1.37.38-2.5-.78-3.11-1.67-1.09,1.93-2.25,3-2.5,3.6A2.32,2.32,0,0,0,217,285.92Z" transform="translate(-18.86 -27.19)"/>
          <path class="gal-13" d="M262.62,285.62c.69.47,3.74-.57,7.38-.17s8.37.72,10.47.21,1.94-3-.19-3.64a11.25,11.25,0,0,1-8.78-3.46,12,12,0,0,0-4.18,1.45c-1.3.56-3-.24-4.13-1.42a7.22,7.22,0,0,1-.57,2.36C262.11,282.41,261.92,285.16,262.62,285.62Z" transform="translate(-18.86 -27.19)"/>
          <path class="gal-13" d="M258.56,198.9s10.77,23.94,12.49,35.34c.63,2.34-2.65,31.4-1.87,39.05-5.94,2.18-7.61.77-7.61.77s-7.39-20.5-1-37.35c-.78-3.56-12.81-20.59-12.81-20.59Z" transform="translate(-18.86 -27.19)"/>
          <path class="gal-13" d="M262.62,194c-.47.4-2.71,12.12-5.57,15.24-1.62,8.59-7.4,23.13-14.74,31.64-6.4,9.91-16.55,33.41-17,36.11-5.78-.75-6.56-2-6.56-2s4.37-27.46,9.22-34c4.52-5.24,6.4-7.11,6.4-7.11s5.15-22.14,5.47-28.17,4.69-10.82,4.69-10.82Z" transform="translate(-18.86 -27.19)"/>
          <path class="gal-12" d="M277.17,178.78s-2.81,14.41-1.91,18.34c1.35,1.71,3.46,16.08,5,20.15L276.76,219s-7.46-11.39-8.66-19.94-.09-12.65-.09-12.65Z" transform="translate(-18.86 -27.19)"/>
          <path class="gal-47" d="M278.61,170.36c.15.26-.71,16.57-5.69,20.13s-11.21,9.19-13,12.6c-4.06,0-14.68-5.93-15.42-8.15,1.18-1.49,12.6-22.52,15.86-25.57s11-3.49,14.24-1.64A20.55,20.55,0,0,1,278.61,170.36Z" transform="translate(-18.86 -27.19)"/>
          <path class="gal-16" d="M256.05,207.66s-11.34-3.14-15.38-6.57a18.09,18.09,0,0,1,3.84-6.15S254.49,203.15,256.05,207.66Z" transform="translate(-18.86 -27.19)"/>
          <path class="gal-48" d="M278.06,174.15s-1.09,9.92-2.85,10.48-.8-3.53-.44-7.56.42-5.39.1-6.71a10.62,10.62,0,0,1-.26-2.63,5.19,5.19,0,0,0-2.54-.86c-1.47-.19-2.19.92-1.39,1.43a15,15,0,0,1,2.71,2.69c.21.38.65,7.62-1,11.86S256.17,200,245.48,193.4a20,20,0,0,1-1.24,1.85l2.13,1.68s-7.39,28.55-9.19,39.78c7,3.38,33.95,2.25,33.95,2.25a11.67,11.67,0,0,0,0-6c-.92-2.63-4.63-17.73-10.77-30.65,3.75-3.6,10.1-9.62,13.26-12.48,2.37-2.11,3.47-5.31,5-15.1C278.48,173.22,278.06,174.15,278.06,174.15Z" transform="translate(-18.86 -27.19)"/>
          <path class="gal-49" d="M198.81,265.58a15.5,15.5,0,0,1-8.36-2.27,17.21,17.21,0,0,1-7.1-9.94,1.51,1.51,0,0,1,1.13-1.8,1.49,1.49,0,0,1,1.79,1.13,14.39,14.39,0,0,0,5.79,8.08c3,1.88,6.91,2.29,11.49,1.2,8-1.9,13.83-17.69,18.09-29.22,1.21-3.28,2.35-6.37,3.41-8.8,7.76-17.78,17-23.41,36.6-22.37a1.5,1.5,0,1,1-.16,3c-18.28-1-26.46,4-33.69,20.57-1,2.35-2.16,5.4-3.35,8.64-4.74,12.84-10.64,28.83-20.21,31.1A23.66,23.66,0,0,1,198.81,265.58Z" transform="translate(-18.86 -27.19)"/>
          <path class="gal-50" d="M271.13,177.37l1.33,1s-1.33,8.41-20.88,5.57c-.64,0,1.32-3.1,2.59-4.61S271.13,177.37,271.13,177.37Z" transform="translate(-18.86 -27.19)"/>
          <path class="gal-12" d="M242.32,176.71c-.42,12.09,12.61,22.19,12.61,22.19s.61-.07,3.63-2.76a32.6,32.6,0,0,1-7.14-15.43c1.53.73,4.73.21,9.84.3.93,0,1.93,0,3,.11,7.69,2.68,9.13-3.37,8.56-7.17-.73-4.84-7.69-3.42-8-3.34,0,0-1.41,0-3.54.19h0C255.56,171.2,244.65,172.54,242.32,176.71Z" transform="translate(-18.86 -27.19)"/>
          <path class="gal-51" d="M254.92,191.32s-4.3,3.06-5,3.13l-.48-.54s-.67.17.26,1.2,4.82,5.19,4.82,5.19,1.09,4.54,1.53,5.75a4,4,0,0,0,1.88,2.27c.35,0,8.58,3.72,6.85,1.7-1.22-1.43-1.65-2.47-.18-3.75a1.25,1.25,0,0,1,1.56,0,12.34,12.34,0,0,0,.52-3.2c-.3-1.21-1.31-2.24-3.81-4.19a8.54,8.54,0,0,0-3.11-1.35c-.81-1-4-7.84-5.1-7Z" transform="translate(-18.86 -27.19)"/>
          <path class="gal-12" d="M299.45,163s-2.27,4.88-3.49,5.18a13.67,13.67,0,0,0-2.56.64c-.58.29-.18,4.94-.53,5.06a7.25,7.25,0,0,1-1.9-.35s-5.25,4-5.89,4.25-1.68-.89-2.67-1.71-2.74-2.17-2.74-2.17a10.06,10.06,0,0,0-3,3.36c-.47-4.7-2.21-9.47-4.6-9.18a26.43,26.43,0,0,0,8-7,73.25,73.25,0,0,1,7.66-8.08Z" transform="translate(-18.86 -27.19)"/>
          <path class="gal-14" d="M283.88,165.7S279,171,282.64,176.27c-1.08-1-3-2.37-3-2.37S278.33,170.23,283.88,165.7Z" transform="translate(-18.86 -27.19)"/>
          <path class="gal-14" d="M283.51,159.21s-2.16,5.24.85,5.63c-3.23.43-3-3.66-2-5.41Z" transform="translate(-18.86 -27.19)"/>
          <path class="gal-52" d="M302,162.83s-2.8,4.34-9-1.47c-1.34,1.8-1.87,3.27-3.47,2.14-1.27-.74-2.61,1.34-2.61,1.34l-1-.87s1.07-1.94,1.87-3.48-2.68-4.54-5-.2c-.74,1.2-3.08,1.09-2.88,1.15s1-3.76,1.27-6.36,4.08-6,7.09-6.55c2.4-.14,8.82,1,11.89,9.89C301.23,162,302,162.83,302,162.83Z" transform="translate(-18.86 -27.19)"/>
          <path class="gal-53" d="M279.6,213.16c-.32.34-5.62,1.61-5.52,2.12a39.68,39.68,0,0,0,2.06,3.72,6.09,6.09,0,0,1-.14,3.68c-.75,1.42-1.65,1.77-1.53,2s3.79,6.85,5.21,6.65,4.27-3.68,3.82-5-2.05-5.76-2.05-5.76S280.06,212.68,279.6,213.16Z" transform="translate(-18.86 -27.19)"/>
          <path class="gal-54" d="M261.24,181l0,0c.93,0,1.93,0,3,.11,7.69,2.68,9.13-3.37,8.56-7.17-.73-4.84-7.69-3.42-8-3.34,0,0-1.41,0-3.54.19h0a2.68,2.68,0,0,0-.28.18C259.81,175.27,261.24,181,261.24,181Z" transform="translate(-18.86 -27.19)"/>
        </g>
      </g>
      <g>
        <path class="gal-12" d="M555.43,280.58s-1.66,4.54.52,6.71,6.46,2,7,2,1.8,1.38.69,2.21-7.95.28-9.54,0-6,1-7.05-.07-.35-2.21.48-3.38a17,17,0,0,0,2.5-6.17c.61-2.89,4.35-2.51,4.35-2.51Z" transform="translate(-18.86 -27.19)"/>
        <path class="gal-12" d="M579.62,281.91l-.3,2.66a8.91,8.91,0,0,1,.3,3.85c-.35,1.94-.76,2.42-.69,2.63s.27,1.52,1.31,1.66,3.32-.35,5-.42S592.89,294,596,292c.42-1.59-1.24-2-1.93-1.94s-7.93-1.13-10.15-7.23C581.07,280.89,579.62,281.91,579.62,281.91Z" transform="translate(-18.86 -27.19)"/>
        <path class="gal-11" d="M559.17,252.49c-.1.32,9.2.33,14.15.67C570.85,238.22,564.56,234.4,559.17,252.49Z" transform="translate(-18.86 -27.19)"/>
        <path class="gal-13" d="M558.12,221.7s-.65,23.66-1.16,25.58c-2.18,3.08-6.39,8.07-6.4,16.91s-.52,17.72-.52,17.72h5s5.26-20.15,9.46-29.63S570,225.43,570,225.43Z" transform="translate(-18.86 -27.19)"/>
        <path class="gal-13" d="M563.65,291.53c-1.11.83-7.95.28-9.54,0s-6,1-7.05-.07-.35-2.2.48-3.38a10.07,10.07,0,0,0,.54-.86,9.68,9.68,0,0,0,2.85,1c2.42.35,4.21-.15,4.39-1.8a3.34,3.34,0,0,0,.62.88c2.18,2.17,6.47,2,7,2S564.75,290.7,563.65,291.53Z" transform="translate(-18.86 -27.19)"/>
        <path class="gal-13" d="M596,292c-3.12,1.94-9.13.22-10.79.28s-3.94.55-5,.42-1.24-1.45-1.32-1.66.35-.69.7-2.62c0-.12,0-.23,0-.35a4.89,4.89,0,0,1,1.08.41c1.69.89,5.73,1.26,6.27-1.32a13.35,13.35,0,0,0,7.05,2.91C594.76,290,596.42,290.43,596,292Z" transform="translate(-18.86 -27.19)"/>
        <path class="gal-55" d="M570,225.43s-1.4,14.44-4.24,23.68c-.9-4.55-4.37-13.2-8-17,.19-5.52.33-10.42.33-10.42Z" transform="translate(-18.86 -27.19)"/>
        <path class="gal-13" d="M563.19,208.64l-5.07,5.44s-3.59,5.53-1.54,10.4,9.61,13.14,13.32,25.34c-1.66,8.22-1.54,12.9,2.44,20.43s7,14.32,7,14.32,4.64-.76,4.72-2.05c-1.07-2.82-6-23.89-6-32.7a132.83,132.83,0,0,0-3.55-27.1l.71-5.31Z" transform="translate(-18.86 -27.19)"/>
        <path class="gal-56" d="M582.38,212.13c-.53-.06-4.44-1.18-4.44-1.18s-3.45.39-4.32.32-.54-.58-.54-.58l.6.05c.38-.5.53-4.09.53-4.09l-.6-.22a.43.43,0,0,1,.42-.23A26.67,26.67,0,0,0,578,207a1.16,1.16,0,0,0,.15-.37,6.79,6.79,0,0,1,2.27-1.55c.58-.19,4.47-.94,4.51-.95.42-.09,1,.27.37,1.24-.25.5-1,.76-2.29,1a1.61,1.61,0,0,0,.91.35c3.06.31,6,.63,4.68,3.24C587.89,211.21,586.57,212.63,582.38,212.13Z" transform="translate(-18.86 -27.19)"/>
        <path class="gal-12" d="M560.45,186.4l-2.3,2.94s-3.58,10.14-3,14.79c.48,4.45,18.86,6.44,18.86,6.44v-3.88s-8.18-2.19-12.71-5.41a81,81,0,0,1,2.1-10.42S564.72,186.59,560.45,186.4Z" transform="translate(-18.86 -27.19)"/>
        <path class="gal-57" d="M558.12,214.08s10.1,3,17.11,3.33c-.47-7.12-2-10.21,2.47-18.57,1.24-8.18-1.08-12.4-1.08-12.4a43.1,43.1,0,0,0-5.54-5.1c-1.91-1.19-6.82-.42-6.82-.42a12,12,0,0,0-6.11,8.42c-.45,3.32,4,9.29,3.34,14.6A31.75,31.75,0,0,1,558.12,214.08Z" transform="translate(-18.86 -27.19)"/>
        <path class="gal-58" d="M562,182.54s8.82-.14,12.57,1.85L571.86,182a33.19,33.19,0,0,0-7.6-1.06A27.54,27.54,0,0,0,562,182.54Z" transform="translate(-18.86 -27.19)"/>
        <path class="gal-59" d="M568.09,215.16s8.6,21.15,5.91,39.24c7-.16,7,.58,7,.58s-2.34-27.08-5.88-36.32a4.67,4.67,0,0,0,.1-2C572.9,214.92,568.09,215.16,568.09,215.16Z" transform="translate(-18.86 -27.19)"/>
        <path class="gal-60" d="M577.7,198.85c-4.45,8.36-2.94,11.44-2.46,18.56-7-.28-17.12-3.33-17.12-3.33s.4-.72.93-1.91c0,0,8.28,1.65,10.94,1.42s6-16.56,5.58-18.33.51-8.85.51-8.85,1,3.25,2,6.69A29.42,29.42,0,0,1,577.7,198.85Z" transform="translate(-18.86 -27.19)"/>
        <path class="gal-61" d="M595.89,197.35c0,.2-1.18,16.48-1.18,16.48h4.71v1.54l6.48-.6L605,210.5l2.54-.74s-6.51-16.55-8.8-16.35S595.89,197.35,595.89,197.35Z" transform="translate(-18.86 -27.19)"/>
        <path class="gal-12" d="M597,198.42c-.27.34-8.79,6.15-15.31,5.19-3.22-1.62-8.58-10.13-8.58-10.13s-3.78-4.26-1-6.73,5.89-.48,6.86,3.91a61.29,61.29,0,0,0,5.1,6.59s8-.07,11.18-2.2A6.18,6.18,0,0,1,597,198.42Z" transform="translate(-18.86 -27.19)"/>
        <path class="gal-12" d="M576.62,166.78a4.93,4.93,0,0,0,2.63,3.12c.49,1-1.68,1.67-1.68,1.67Z" transform="translate(-18.86 -27.19)"/>
        <path class="gal-12" d="M563.48,169.6l.78,5.14s1.28,4.8,0,6.18a49.18,49.18,0,0,1,7.6,1.06,8.88,8.88,0,0,1-1.24-3.62c0-1.44,3.89.31,4.94.25s3.43-2.94,2.8-7.51c-.87-2.06-1.18-2.12-.81-3.94a8.13,8.13,0,0,0-.37-5.69c-1-1.81-12.38-3-12.38-3S561.48,164.85,563.48,169.6Z" transform="translate(-18.86 -27.19)"/>
        <path class="gal-62" d="M560.87,167.23c-.22.05-3,.45-2.25,3.83s4.53,11.79-1.35,15.27c-3.72,2.2-6.71-.23-6.71-1.07,1.3.56,5.52-.06,4.79-5.64s-3.13-11.89,5.48-13C561.83,166.66,560.87,167.23,560.87,167.23Z" transform="translate(-18.86 -27.19)"/>
        <path class="gal-14" d="M565.31,169.9a4.73,4.73,0,0,0,4.62,1.91c.05,2.65,2.44,6.16,5.63,6.8-2.28.53-4.62-1.17-5.13,0-.34-2-1.14-5.16-1.67-5.74C567.22,173,565.84,171.49,565.31,169.9Z" transform="translate(-18.86 -27.19)"/>
        <path class="gal-63" d="M590.21,196.69l.73-.13s1.95,3.68,1.87,4.4l-.63.31s0,.7.88.26,4.14-2.86,4.14-2.86,4.84-.88,5.14-1.43-.88-5.9-1.69-6.31-1.72.44-2,.55c-.26-.88-.44-.88-.44-.88a5.86,5.86,0,0,0-1.93.19c-.56.25-1.55,3.3-1.48,3.44a1.46,1.46,0,0,1,.07.46,30.38,30.38,0,0,1-4.4,1.52A.52.52,0,0,0,590.21,196.69Z" transform="translate(-18.86 -27.19)"/>
        <path class="gal-64" d="M564.26,174.74a4.26,4.26,0,0,0,1.31-4.2c-.71-2-1.13-4.17.75-4.72s3.2,2.24,3.16,3.71a1.57,1.57,0,0,0,1.14-.05s-.91-2.29,0-3,3.57-3.12,1-5.41c1.65-1.41,4.9.32,6.23,1.74,1.1-3.29-1.42-5.12-4.49-6-1.28-2.33-12.17-3.7-14.92,3.94-1.23,5.31,2.34,8.24,4.08,10.11A6.39,6.39,0,0,1,564.26,174.74Z" transform="translate(-18.86 -27.19)"/>
        <path class="gal-65" d="M579.57,191.62c-1.36-4.55-3-7.25-6.78-5.74s-1.38,7.31,1.11,8.81C573.9,194.69,578.22,192.45,579.57,191.62Z" transform="translate(-18.86 -27.19)"/>
      </g>
      <g>
        <path class="gal-66" d="M1202.64,54.16a2,2,0,0,1-.73-3.86l19.66-7.74a2,2,0,1,1,1.47,3.73L1203.37,54A1.89,1.89,0,0,1,1202.64,54.16Z" transform="translate(-18.86 -27.19)"/>
        <path class="gal-49" d="M1194.18,286.08h2.72l-16.29-74a4.31,4.31,0,0,1,4.22-5.24h20.58a4.35,4.35,0,0,1,4.22,3.39l16.69,75.9H1229l-16.82-76.47a7,7,0,0,0-6.81-5.48h-20.58a7,7,0,0,0-6.81,8.47Z" transform="translate(-18.86 -27.19)"/>
        <rect class="gal-49" x="1144.44" y="245.37" width="32.14" height="1.47"/>
        <rect class="gal-49" x="1148.9" y="227.61" width="32.14" height="1.47"/>
        <path class="gal-67" d="M1225.32,76.39a.85.85,0,0,1-.77-.49l-13.08-26.77a.87.87,0,0,1,.4-1.16.86.86,0,0,1,1.15.4l13.08,26.78a.86.86,0,0,1-.4,1.15A.85.85,0,0,1,1225.32,76.39Z" transform="translate(-18.86 -27.19)"/>
        <rect class="gal-49" x="1152.86" y="209.85" width="32.14" height="1.47"/>
        <rect class="gal-49" x="1157.92" y="191.91" width="32.14" height="1.47"/>
        <path class="gal-49" d="M1162.25,286.08l20.88-88.51a4.35,4.35,0,0,1,4.22-3.39h20.58a4.32,4.32,0,0,1,4.22,5.23l-20.45,86.67h2.73L1214.74,200a7,7,0,0,0-6.81-8.47h-20.58a7,7,0,0,0-6.81,5.45l-21,89.1Z" transform="translate(-18.86 -27.19)"/>
        <g>
          <path class="gal-68" d="M1190.53,138.25l-2.21,4s-4.07,27.62-2.57,35.1c3.21.16,7,0,7,0l.37-37Z" transform="translate(-18.86 -27.19)"/>
          <path class="gal-12" d="M1190.55,108.26l-.52,9.22s-.93,2.68-1.76,5.74a32,32,0,0,0-1.22,6.62c-.09,4.13-3.68,11.18-5.55,12s-3.73-2-3.47-2.47,2.78-10.79,2.78-10.79.34-2.79,1.13-7.64c.16-1,.35-2.13.56-3.32-.3-6.64,3.26-8.53,4.25-9.18S1190.55,108.26,1190.55,108.26Z" transform="translate(-18.86 -27.19)"/>
          <rect class="gal-69" x="1168.33" y="139.27" width="6.44" height="1.58" rx="0.49" transform="translate(2100.27 -590.14) rotate(136.61)"/>
          <rect class="gal-70" x="1172.94" y="139.05" width="3.01" height="4.09" transform="translate(2106 -590.32) rotate(136.61)"/>
          <path class="gal-71" d="M1181.27,152.17l3.24-3.06a1.6,1.6,0,0,0,0-2.41l-6.21-5.17a1.54,1.54,0,0,0-2,.07l-1.57,1.48a1.54,1.54,0,0,0-.18,2l4.35,6.94A1.6,1.6,0,0,0,1181.27,152.17Z" transform="translate(-18.86 -27.19)"/>
          <path class="gal-72" d="M1180.27,144.9l-3.74,2.29a1.6,1.6,0,0,1-2.21-.52l-1.81-2.95a1.61,1.61,0,0,1,.52-2.21l1.27-.78a.76.76,0,0,1-.2-.2l-.27-.44a.66.66,0,0,1,.22-.91l2.44-1.5a.66.66,0,0,1,.91.22l.27.44a.64.64,0,0,1,0,.64,1.59,1.59,0,0,1,1.3.76l1.8,2.95A1.62,1.62,0,0,1,1180.27,144.9Z" transform="translate(-18.86 -27.19)"/>
          <path class="gal-73" d="M1190.55,108.26l-.52,9.22s-.93,2.68-1.76,5.74c-1.69-4.63-6.33-2.32-6.33-2.32.16-1,.35-2.13.56-3.32-.3-6.64,3.26-8.53,4.25-9.18S1190.55,108.26,1190.55,108.26Z" transform="translate(-18.86 -27.19)"/>
          <path class="gal-12" d="M1197.58,91.18l.14,4.9s.45,5.74,4.26,6.13-10.24,6.47-10.24,6.47,2.61-5.05-.91-12.48S1197.58,91.18,1197.58,91.18Z" transform="translate(-18.86 -27.19)"/>
          <path class="gal-74" d="M1186.75,108.39a9.46,9.46,0,0,0,.59,8.41c2.56,4.23,5.88,9.1,6.15,10.7s-2.64,6.43-3,7.16,13.25,6.65,20.38,1.51a50,50,0,0,1-.26-18.2c1-4.82-2.61-15.52-4-16.5S1189.22,106.33,1186.75,108.39Z" transform="translate(-18.86 -27.19)"/>
          <path class="gal-12" d="M1221.29,73.4c0,1.9.68,15.52-1.32,20-1.06,2.35-3.17,7.47-5.45,11.61-2,3.66-4.17,6.54-5.86,6-3.6-1-3.76-6.91-2.86-8.43.36-.63,1.39-1.74,2.66-3.29a43,43,0,0,0,5.91-9.08c.09-4.36,3-17,3.11-17.46C1217.76,71.29,1221,71.53,1221.29,73.4Z" transform="translate(-18.86 -27.19)"/>
          <path class="gal-12" d="M1187,93.16c1.16.68,1.74,1.82,1.31,2.56s-1.72.8-2.87.12-1.73-1.81-1.3-2.55S1185.81,92.49,1187,93.16Z" transform="translate(-18.86 -27.19)"/>
          <path class="gal-75" d="M1192.45,97s3.44-1.37,5.27-.89c3-3.56,4.6-6.45,3.77-10.33s-3.35-10.54-11.66-8.28-7.61,10.63-4.66,15.21A8.59,8.59,0,0,0,1192.45,97Z" transform="translate(-18.86 -27.19)"/>
          <path class="gal-12" d="M1201.78,88s-1.66,2.61-1.46,4.25,2.36.92,3-1.52C1204,87.94,1202.83,87.59,1201.78,88Z" transform="translate(-18.86 -27.19)"/>
          <path class="gal-11" d="M1192.33,178.19s16.58-1,19.54,0c3.12-16.88,2-26,2-26l-15.92,1.13Z" transform="translate(-18.86 -27.19)"/>
          <path class="gal-13" d="M1191.54,141.34l-3,3.81s3.16,25.48,3,27.49c-4.4,4.53-4.9,9.46-4.53,17.26s2.9,22.13,2.9,22.13l3.95,1.05s4-32.41,5.4-40.3,5.32-30,5.32-30Z" transform="translate(-18.86 -27.19)"/>
          <path class="gal-76" d="M1189.62,216.61s-1.27,2.72-.57,3.07,12.79.14,13.15-.49.07-2-2-2.3-7.73-3.34-7.73-3.34Z" transform="translate(-18.86 -27.19)"/>
          <path class="gal-15" d="M1199.26,172.78c-1.42,7.89-5.4,40.29-5.4,40.29l-3.95-1s-2.52-14.35-2.9-22.14c0-.44,0-1.87,0-2.28C1190.84,190.76,1199.26,172.78,1199.26,172.78Z" transform="translate(-18.86 -27.19)"/>
          <path class="gal-12" d="M1200.47,221.22c-4-.13-6.79-.5-9-2.52-3-1.51-2.77-.5-3.85-2.13-.89-1.34.22-3.26,1.34-4.53.26-.29.51-.55.74-.76,1.27-1.13,2.88-5.16,2.88-5.16l2.66-6s2,4.65,1.51,8.68a20.93,20.93,0,0,0,0,6.76,3.42,3.42,0,0,0,1.4,2.29C1200,219,1200.35,219,1200.47,221.22Z" transform="translate(-18.86 -27.19)"/>
          <path class="gal-15" d="M1204.58,142.74s-2.84,16.14-4.55,25.77c-1.42-6.06-6.23-11.67-10.6-15.8-.52-4.29-.92-7.57-.92-7.57l3-3.81Z" transform="translate(-18.86 -27.19)"/>
          <path class="gal-77" d="M1200.47,221.22c-4-.13-6.79-.5-9-2.52-3-1.51-3.7-1.19-4.46-2-1.1-1.17.83-3.39,2-4.66a3,3,0,0,1,1,0c2.41.32,2.84,2.15,3.59,3.49s2.63,2,3.18,0a3.42,3.42,0,0,0,1.4,2.29C1200,219,1200.35,219,1200.47,221.22Z" transform="translate(-18.86 -27.19)"/>
          <path class="gal-13" d="M1190.53,134.66s10.07,4.78,20.38,1.51c3.9,7.42,7,17.48-.88,40.37-9.81,21-13.33,32.22-13.33,32.22s-2.89-3-4.91-2.64c1-6.91,2.27-27.69,11-34.36C1200.47,157.3,1199,152,1199,152S1182.48,152.39,1190.53,134.66Z" transform="translate(-18.86 -27.19)"/>
          <path class="gal-78" d="M1190.53,134.66s7.11,4.52,19.72,1.94c0,0,4.17,20.75,2.29,31.73s-3.21,12.86-3.21,12.86h4.25s6.87-30.15-2.67-45c-.34-2.28-.25-1.51-.25-1.51s-10.22,2.45-19.56-1.18Z" transform="translate(-18.86 -27.19)"/>
          <path class="gal-79" d="M1214.52,105c-2,3.66-4.17,6.54-5.86,6-3.6-1-3.76-6.91-2.86-8.43.36-.63,1.39-1.74,2.66-3.29C1210.45,99.45,1213.5,100.47,1214.52,105Z" transform="translate(-18.86 -27.19)"/>
          <path class="gal-80" d="M1178.59,137.37s-.11,1.37,1.84,2.56,3-.11,3-.11a.88.88,0,0,1,.21,1.27,22.39,22.39,0,0,1-3.18,2.33,3.49,3.49,0,0,1-3.34-2.65C1177,140,1178,136.47,1178.59,137.37Z" transform="translate(-18.86 -27.19)"/>
          <path class="gal-81" d="M1225.86,68.42c-.31-.42-3.2-5.45-3.53-5.55a8.15,8.15,0,0,0-2,.47l.49,1.09c.25.77-.83,1.38-1.45.84l-.57-1.34a5.68,5.68,0,0,1-1.32.79c-.38.06-.79,2.43-.79,2.43a9,9,0,0,0-.08,2.52,5.57,5.57,0,0,1,.73,1.64l0,0c-.46,2.59-1.8,7.5-1.8,7.5a.67.67,0,0,0,.56.68l.1-.46s3.66-1.16,5.29.53V80a.63.63,0,0,0,.75-.44c.18-.58-.88-6.2-.88-6.2s0-.08-.06-.21c1.08-.73,3.62-2.43,4.19-2.65C1226.16,70.25,1226.16,68.84,1225.86,68.42Z" transform="translate(-18.86 -27.19)"/>
          <path class="gal-70" d="M1191.43,106a111,111,0,0,1,11.21-4c-.93-.7-3.66-1.53-10,2A3.46,3.46,0,0,0,1191.43,106Z" transform="translate(-18.86 -27.19)"/>
          <path class="gal-82" d="M1193.65,94a4.59,4.59,0,0,0-.74,4.93c1.26,2.85,3.86,16.32-.7,15.68,3.2,4.53,11.68-.73,9.59-7.46s-7.75-9.63-7.55-12.9Z" transform="translate(-18.86 -27.19)"/>
        </g>
      </g>
    </g>
  </g>
</svg>
