<svg id="Ebene_1" data-name="Ebene 1" xmlns="http://www.w3.org/2000/svg" xmlns:xlink="http://www.w3.org/1999/xlink" viewBox="0 0 1294.12 270.84" style="width: 100%;  height: calc(150px + 10vw);">
  <defs>
    <style>
      .gal-1 {
        fill: #cbcfeb;
      }

      .gal-2 {
        fill: #fff;
      }

      .gal-3, .gal-38 {
        opacity: 0.8;
      }

      .gal-4 {
        fill: url(#gal-gradient);
      }

      .gal-5 {
        fill: url(#gal-gradient_2);
      }

      .gal-6 {
        fill: url(#gal-gradient_3);
      }

      .gal-7 {
        fill: url(#gal-gradient_4);
      }

      .gal-8 {
        fill: #eba502;
      }

      .gal-9 {
        fill: #f9ca02;
      }

      .gal-10 {
        fill: #3844a1;
      }

      .gal-11 {
        fill: #e62e2e;
      }

      .gal-12 {
        fill: #008c83;
      }

      .gal-13 {
        fill: #fcd3b2;
      }

      .gal-14 {
        fill: #2a2b6a;
      }

      .gal-15 {
        fill: #dda17b;
      }

      .gal-16 {
        fill: #16133f;
      }

      .gal-17 {
        fill: #faaf40;
      }

      .gal-18 {
        fill: url(#gal-gradient_5);
      }

      .gal-19, .gal-51 {
        fill: #db9327;
      }

      .gal-20 {
        fill: url(#gal-gradient_6);
      }

      .gal-21 {
        fill: #ddac8c;
      }

      .gal-22 {
        fill: url(#gal-gradient_7);
      }

      .gal-23 {
        fill: url(#gal-gradient_8);
      }

      .gal-24 {
        fill: url(#gal-gradient_9);
      }

      .gal-25 {
        fill: url(#gal-gradient_10);
      }

      .gal-26 {
        fill: url(#gal-gradient_11);
      }

      .gal-27 {
        fill: url(#gal-gradient_12);
      }

      .gal-28 {
        fill: url(#gal-gradient_13);
      }

      .gal-29 {
        opacity: 0.43;
        fill: url(#gal-gradient_14);
      }

      .gal-29, .gal-38, .gal-51 {
        isolation: isolate;
      }

      .gal-30 {
        opacity: 0.5;
      }

      .gal-31 {
        fill: #e1e6f4;
      }

      .gal-32 {
        fill: url(#gal-gradient_15);
      }

      .gal-33 {
        fill: url(#gal-gradient_16);
      }

      .gal-34 {
        fill: url(#gal-gradient_17);
      }

      .gal-35 {
        fill: url(#gal-gradient_18);
      }

      .gal-36 {
        fill: url(#gal-gradient_19);
      }

      .gal-37 {
        fill: url(#gal-gradient_20);
      }

      .gal-38 {
        fill: url(#gal-gradient_21);
      }

      .gal-39 {
        fill: #c2c9f0;
      }

      .gal-40 {
        fill: #686e8f;
      }

      .gal-41 {
        fill: #232f63;
      }

      .gal-42 {
        fill: #606685;
      }

      .gal-43 {
        fill: #343f6e;
      }

      .gal-44 {
        fill: #5263ad;
      }

      .gal-45 {
        fill: #f08929;
      }

      .gal-46 {
        fill: #3c4d99;
      }

      .gal-47 {
        fill: #99a1d1;
      }

      .gal-48 {
        fill: url(#gal-gradient_22);
      }

      .gal-49 {
        fill: url(#gal-gradient_23);
      }

      .gal-50 {
        fill: #b9bfe0;
      }

      .gal-51 {
        opacity: 0.53;
      }

      .gal-52 {
        fill: url(#gal-gradient_24);
      }

      .gal-53 {
        fill: url(#gal-gradient_25);
      }

      .gal-54 {
        fill: url(#gal-gradient_26);
      }

      .gal-55 {
        fill: url(#gal-gradient_27);
      }

      .gal-56 {
        fill: #1d174b;
      }

      .gal-57 {
        fill: url(#gal-gradient_28);
      }

      .gal-58 {
        fill: url(#gal-gradient_29);
      }

      .gal-59 {
        fill: url(#gal-gradient_30);
      }

      .gal-60 {
        fill: url(#gal-gradient_31);
      }

      .gal-61 {
        fill: url(#gal-gradient_32);
      }

      .gal-62 {
        fill: url(#gal-gradient_33);
      }

      .gal-63 {
        fill: url(#gal-gradient_34);
      }

      .gal-64 {
        fill: #ec297b;
      }

      .gal-65 {
        fill: url(#gal-gradient_35);
      }

      .gal-66 {
        fill: url(#gal-gradient_36);
      }

      .gal-67 {
        fill: url(#gal-gradient_37);
      }

      .gal-68 {
        fill: url(#gal-gradient_38);
      }

      .gal-69 {
        fill: url(#gal-gradient_39);
      }

      .gal-70 {
        fill: url(#gal-gradient_40);
      }

      .gal-71 {
        fill: #00a69c;
      }

      .gal-72 {
        fill: url(#gal-gradient_41);
      }

      .gal-73 {
        fill: url(#gal-gradient_42);
      }

      .gal-74 {
        fill: url(#gal-gradient_43);
      }

      .gal-75 {
        fill: url(#gal-gradient_44);
      }

      .gal-76 {
        fill: url(#gal-gradient_45);
      }

      .gal-77 {
        fill: #1d1c4c;
      }

      .gal-78 {
        fill: #373a82;
      }

      .gal-79 {
        fill: url(#gal-gradient_46);
      }

      .gal-80 {
        fill: url(#gal-gradient_47);
      }

      .gal-81 {
        fill: url(#gal-gradient_48);
      }

      .gal-82 {
        fill: url(#gal-gradient_49);
      }

      .gal-83 {
        fill: url(#gal-gradient_50);
      }
    </style>
    <linearGradient id="gal-gradient" data-name="Unbenannter Verlauf" x1="1080.25" y1="835.65" x2="1107.86" y2="679.11" gradientTransform="translate(-18.86 -567.19)" gradientUnits="userSpaceOnUse">
      <stop offset="0" stop-color="#b37cff"/>
      <stop offset="1" stop-color="#f895e7"/>
    </linearGradient>
    <linearGradient id="gal-gradient_2" data-name="Unbenannter Verlauf 2" x1="1258.97" y1="823.17" x2="1235.34" y2="701.56" xlink:href="#gal-gradient"/>
    <linearGradient id="gal-gradient_3" data-name="Unbenannter Verlauf 3" x1="1131.23" y1="712.02" x2="1281.8" y2="712.02" xlink:href="#gal-gradient"/>
    <linearGradient id="gal-gradient_4" data-name="Unbenannter Verlauf 4" x1="1242.84" y1="729.24" x2="1156.65" y2="729.24" xlink:href="#gal-gradient"/>
    <linearGradient id="gal-gradient_5" data-name="Unbenannter Verlauf 5" x1="860.86" y1="762.48" x2="890.37" y2="762.48" gradientTransform="translate(-18.86 -567.19)" gradientUnits="userSpaceOnUse">
      <stop offset="0" stop-color="#fdf53f"/>
      <stop offset="1" stop-color="#d93c65"/>
    </linearGradient>
    <linearGradient id="gal-gradient_6" data-name="Unbenannter Verlauf 6" x1="863.01" y1="778.74" x2="890.37" y2="778.74" gradientTransform="translate(-18.86 -567.19)" gradientUnits="userSpaceOnUse">
      <stop offset="0" stop-color="#50e7b7"/>
      <stop offset="1" stop-color="#323992"/>
    </linearGradient>
    <linearGradient id="gal-gradient_7" data-name="Unbenannter Verlauf 7" x1="838.9" y1="744.38" x2="859.28" y2="744.38" gradientTransform="translate(-18.86 -567.19)" gradientUnits="userSpaceOnUse">
      <stop offset="0" stop-color="#2b3582"/>
      <stop offset="1" stop-color="#150e42"/>
    </linearGradient>
    <linearGradient id="gal-gradient_8" data-name="Unbenannter Verlauf 8" x1="837.32" y1="783.28" x2="854.33" y2="783.28" xlink:href="#gal-gradient_6"/>
    <linearGradient id="gal-gradient_9" data-name="Unbenannter Verlauf 9" x1="862.3" y1="780.14" x2="878.61" y2="780.14" xlink:href="#gal-gradient_6"/>
    <linearGradient id="gal-gradient_10" data-name="Unbenannter Verlauf 10" x1="866.46" y1="757.52" x2="876.73" y2="757.52" xlink:href="#gal-gradient_5"/>
    <linearGradient id="gal-gradient_11" data-name="Unbenannter Verlauf 11" x1="179.32" y1="709.55" x2="248.72" y2="709.55" gradientTransform="translate(-18.86 -567.19)" gradientUnits="userSpaceOnUse">
      <stop offset="0" stop-color="#a737d5"/>
      <stop offset="1" stop-color="#ef497a"/>
    </linearGradient>
    <linearGradient id="gal-gradient_12" data-name="Unbenannter Verlauf 12" x1="61.72" y1="776.19" x2="228.56" y2="776.19" xlink:href="#gal-gradient_11"/>
    <linearGradient id="gal-gradient_13" data-name="Unbenannter Verlauf 13" x1="48.95" y1="731.35" x2="220.46" y2="731.35" xlink:href="#gal-gradient_11"/>
    <linearGradient id="gal-gradient_14" data-name="Unbenannter Verlauf 14" x1="82.63" y1="741.66" x2="215.75" y2="741.66" gradientTransform="translate(-18.86 -567.19)" gradientUnits="userSpaceOnUse">
      <stop offset="0" stop-color="#ef497a"/>
      <stop offset="0.7" stop-color="#a737d5"/>
    </linearGradient>
    <linearGradient id="gal-gradient_15" data-name="Unbenannter Verlauf 15" x1="963.27" y1="660.35" x2="990.47" y2="660.35" gradientTransform="translate(-30.09 -569.96)" xlink:href="#gal-gradient_11"/>
    <linearGradient id="gal-gradient_16" data-name="Unbenannter Verlauf 16" x1="958.25" y1="593.65" x2="985.45" y2="593.65" gradientTransform="translate(-30.09 -569.96)" xlink:href="#gal-gradient_11"/>
    <linearGradient id="gal-gradient_17" data-name="Unbenannter Verlauf 17" x1="927.9" y1="629.05" x2="971.7" y2="629.05" gradientTransform="translate(-30.09 -569.96)" xlink:href="#gal-gradient_11"/>
    <linearGradient id="gal-gradient_18" data-name="Unbenannter Verlauf 18" x1="272.6" y1="660.25" x2="299.8" y2="660.25" gradientTransform="translate(-30.09 -569.96)" xlink:href="#gal-gradient"/>
    <linearGradient id="gal-gradient_19" data-name="Unbenannter Verlauf 19" x1="259.84" y1="621.65" x2="287.04" y2="621.65" gradientTransform="translate(-30.09 -569.96)" xlink:href="#gal-gradient"/>
    <linearGradient id="gal-gradient_20" data-name="Unbenannter Verlauf 20" x1="290.2" y1="631.75" x2="334" y2="631.75" gradientTransform="translate(-30.09 -569.96)" xlink:href="#gal-gradient"/>
    <linearGradient id="gal-gradient_21" data-name="Unbenannter Verlauf 21" x1="142.26" y1="778.19" x2="1216.36" y2="778.19" xlink:href="#gal-gradient_11"/>
    <linearGradient id="gal-gradient_22" data-name="Unbenannter Verlauf 22" x1="274.5" y1="754.86" x2="308.61" y2="754.86" gradientTransform="translate(-18.86 -567.19)" gradientUnits="userSpaceOnUse">
      <stop offset="0" stop-color="#d93c65"/>
      <stop offset="1" stop-color="#fdf53f"/>
    </linearGradient>
    <linearGradient id="gal-gradient_23" data-name="Unbenannter Verlauf 23" x1="267.16" y1="773.11" x2="308.6" y2="773.11" gradientTransform="translate(-18.86 -567.19)" gradientUnits="userSpaceOnUse">
      <stop offset="0" stop-color="#323992"/>
      <stop offset="1" stop-color="#50e7b7"/>
    </linearGradient>
    <linearGradient id="gal-gradient_24" data-name="Unbenannter Verlauf 24" x1="279.24" y1="770.55" x2="296.74" y2="770.55" xlink:href="#gal-gradient_23"/>
    <linearGradient id="gal-gradient_25" data-name="Unbenannter Verlauf 25" x1="309.9" y1="726.44" x2="332.01" y2="726.44" xlink:href="#gal-gradient_7"/>
    <linearGradient id="gal-gradient_26" data-name="Unbenannter Verlauf 26" x1="304.08" y1="792.23" x2="313.55" y2="792.23" xlink:href="#gal-gradient_23"/>
    <linearGradient id="gal-gradient_27" data-name="Unbenannter Verlauf 27" x1="290.52" y1="746.04" x2="302.91" y2="746.04" xlink:href="#gal-gradient_22"/>
    <linearGradient id="gal-gradient_28" data-name="Unbenannter Verlauf 28" x1="618.1" y1="776.27" x2="603.16" y2="781.42" xlink:href="#gal-gradient_6"/>
    <linearGradient id="gal-gradient_29" data-name="Unbenannter Verlauf 29" x1="607.27" y1="755.06" x2="589.39" y2="784.84" xlink:href="#gal-gradient_5"/>
    <linearGradient id="gal-gradient_30" data-name="Unbenannter Verlauf 30" x1="603.53" y1="751.3" x2="592.7" y2="754.82" xlink:href="#gal-gradient_6"/>
    <linearGradient id="gal-gradient_31" data-name="Unbenannter Verlauf 31" x1="610.52" y1="803.13" x2="598.37" y2="807.08" xlink:href="#gal-gradient_6"/>
    <linearGradient id="gal-gradient_32" data-name="Unbenannter Verlauf 32" x1="610.61" y1="770.35" x2="586.23" y2="778.28" xlink:href="#gal-gradient_6"/>
    <linearGradient id="gal-gradient_33" data-name="Unbenannter Verlauf 33" x1="635.38" y1="773.05" x2="622.55" y2="777.21" xlink:href="#gal-gradient_6"/>
    <linearGradient id="gal-gradient_34" data-name="Unbenannter Verlauf 34" x1="580.56" y1="746.89" x2="591.28" y2="746.89" xlink:href="#gal-gradient_7"/>
    <linearGradient id="gal-gradient_35" data-name="Unbenannter Verlauf 35" x1="588.15" y1="734.78" x2="608.06" y2="734.78" xlink:href="#gal-gradient_7"/>
    <linearGradient id="gal-gradient_36" data-name="Unbenannter Verlauf 36" x1="600.8" y1="760.06" x2="609.57" y2="760.06" xlink:href="#gal-gradient_5"/>
    <linearGradient id="gal-gradient_37" data-name="Unbenannter Verlauf 37" x1="1230.66" y1="618.32" x2="1254.33" y2="618.32" xlink:href="#gal-gradient_7"/>
    <linearGradient id="gal-gradient_38" data-name="Unbenannter Verlauf 38" x1="1241.38" y1="632.1" x2="1256.19" y2="632.1" xlink:href="#gal-gradient_7"/>
    <linearGradient id="gal-gradient_39" data-name="Unbenannter Verlauf 39" x1="1215.42" y1="727.88" x2="1223.11" y2="727.88" xlink:href="#gal-gradient_6"/>
    <linearGradient id="gal-gradient_40" data-name="Unbenannter Verlauf 40" x1="1198.87" y1="710.12" x2="1204.23" y2="710.12" gradientTransform="translate(-18.85 -567.17)" xlink:href="#gal-gradient_6"/>
    <linearGradient id="gal-gradient_41" data-name="Unbenannter Verlauf 41" x1="1204.21" y1="716.78" x2="1215.06" y2="716.78" xlink:href="#gal-gradient_6"/>
    <linearGradient id="gal-gradient_42" data-name="Unbenannter Verlauf 42" x1="1202.27" y1="712.56" x2="1211.03" y2="712.56" xlink:href="#gal-gradient_6"/>
    <linearGradient id="gal-gradient_43" data-name="Unbenannter Verlauf 43" x1="1211.94" y1="685.62" x2="1220.55" y2="685.62" xlink:href="#gal-gradient_5"/>
    <linearGradient id="gal-gradient_44" data-name="Unbenannter Verlauf 44" x1="1216.03" y1="689.82" x2="1240.93" y2="689.82" xlink:href="#gal-gradient_5"/>
    <linearGradient id="gal-gradient_45" data-name="Unbenannter Verlauf 45" x1="1213.14" y1="657.02" x2="1231.71" y2="657.02" xlink:href="#gal-gradient_7"/>
    <linearGradient id="gal-gradient_46" data-name="Unbenannter Verlauf 46" x1="1220.53" y1="727.34" x2="1245.97" y2="727.34" xlink:href="#gal-gradient_6"/>
    <linearGradient id="gal-gradient_47" data-name="Unbenannter Verlauf 47" x1="1235.34" y1="675.17" x2="1244.52" y2="675.17" xlink:href="#gal-gradient_5"/>
    <linearGradient id="gal-gradient_48" data-name="Unbenannter Verlauf 48" x1="1207.08" y1="710.37" x2="1213.81" y2="710.37" xlink:href="#gal-gradient_6"/>
    <linearGradient id="gal-gradient_49" data-name="Unbenannter Verlauf 49" x1="1245.47" y1="641.4" x2="1256.05" y2="641.4" xlink:href="#gal-gradient_6"/>
    <linearGradient id="gal-gradient_50" data-name="Unbenannter Verlauf 50" x1="1222.21" y1="675.13" x2="1232.13" y2="675.13" xlink:href="#gal-gradient_7"/>
  </defs>
  <title>gallerie</title>
  <ellipse class="gal-1" cx="638.01" cy="250.54" rx="572.9" ry="20.3"/>
  <g>
    <path class="gal-2" d="M1300.2,126.7c-28.7,2-52.3,30-59.1,37.5s-10.5-.2-2-16.2c4.6-8.7-1.2-16.3-9.3-16.1,19-12.9-6.7-30.1-25.3-18-20.4,13.3,20.3-42.6,45.8-54.9s8.7-40-19.8-24.4-39.4,55.5-42.8,66.3-10.9,4.8-9.7-15.6-32.7-20.5-27.2,19.6,4.9,72.7-4.2,64.2-4.7-33.7-16.7-38.5c-6.2-2.5-12.8,3.4-15.9,14.3-3.5-17.6-24.6-14.8-24.1-1.5.5,15.9-6.3,20.8-9.1,12.5s-11.5-39.1-36.6-50.6-41.1,10.6-18.5,19.5,57.5,51.4,39.6,41.6-44.6,8.2-17,17.4,50.3,40.6,33.1,34.2-36.7,8-13.6,14.8,49.8,43.3,50.3,45.7l11.3-2.5a115.06,115.06,0,0,1,1-18.6l7.4,1.6a1.78,1.78,0,0,0,1.6,1c-2.2,4.9-3.8,7.7-3.8,7.7l9.1,6.8c1.7-2.3,44.5-29.1,69.1-27.2s14-20.2-4.8-20.2,17.7-23.3,47.6-22.1,14.7-27.3-6.6-24.2,32.1-26.7,57.2-27.1S1329,124.7,1300.2,126.7Zm-184.3,81.4c-7.8,6.4-8-15.2-3.2-43.5a76.26,76.26,0,0,0,5.3,21.3c1.4,3.5,2.6,7.1,3.7,10.7C1120.5,201.2,1119,205.5,1115.9,208.1Zm94.1-54.4c-2.8,9.2-5.8,17.8-8.7,25.3a25.51,25.51,0,0,0-15.7,1.3c1-5.1,1.2-9.8-1.4-13.1,7.3-10,20.2-22.5,34.5-29.7C1215.4,141,1212.3,146.2,1210,153.7Z" transform="translate(-30.09 -29.96)"/>
    <g class="gal-3">
      <path class="gal-4" d="M1118.3,278.5c-.5-2.4-27.2-38.9-50.3-45.7s-3.6-21.2,13.6-14.8-5.5-25-33.1-34.2-.9-27.2,17-17.4-17-32.7-39.6-41.6-6.7-31,18.5-19.5,33.8,42.2,36.6,50.6,9.6,3.4,9.1-12.4,29.9-16.8,23.9,14.6-6.4,56.8,2,50,5.1-26.4,16.1-30.5,22.2,16.2,9.2,42.7-11.6,55.7-11.6,55.7Z" transform="translate(-30.09 -29.96)"/>
      <path class="gal-5" d="M1144.8,274.5c1.7-2.3,44.5-29.1,69.1-27.2s14-20.2-4.8-20.2,17.7-23.3,47.6-22.1,14.7-27.3-6.6-24.2,32.1-26.7,57.2-27.1,21.8-29-6.9-27-52.3,30-59.1,37.5-10.5-.2-2-16.2-18.7-28.6-29.2,5.7-23.1,60.3-27.2,50.1,8.8-28.9.9-37.2-28.6,8-30.2,39.9-17.8,61.2-17.8,61.2Z" transform="translate(-30.09 -29.96)"/>
      <g>
        <path class="gal-6" d="M1141.2,259.7c.7-3.1,31.8-50.9,57.9-60.5s4.8-27.3-14.5-18.4,7.2-32.3,38.3-45.2,2.1-34.9-18.3-21.7,20.3-42.6,45.8-54.9,8.7-40-19.8-24.4-39.4,55.5-42.8,66.3-10.9,4.8-9.7-15.6-32.7-20.5-27.2,19.6,4.9,72.7-4.2,64.2-4.7-33.7-16.7-38.6-25.5,21.7-12,55.2,10.7,71.1,10.7,71.1Z" transform="translate(-30.09 -29.96)"/>
        <path class="gal-7" d="M1137.8,258.1c.1-4.6.6-9,1.1-13.5s1.2-8.9,2.1-13.3c1.6-8.8,3.7-17.5,6.1-26.2a356.23,356.23,0,0,1,18.5-50.3,403.25,403.25,0,0,1,25.6-47,446.55,446.55,0,0,1,31.3-43.4.75.75,0,0,1,1.2,0,.79.79,0,0,1,.1,1.1A455.47,455.47,0,0,0,1193,109a398.94,398.94,0,0,0-25,47,354.32,354.32,0,0,0-17.9,50c-2.3,8.6-4.3,17.2-5.8,25.9-.8,4.4-1.4,8.7-1.9,13.1s-.9,8.8-1,13.1v.1a1.82,1.82,0,0,1-1.9,1.8,1.74,1.74,0,0,1-1.7-1.9Z" transform="translate(-30.09 -29.96)"/>
      </g>
    </g>
  </g>
  <g>
    <path class="gal-2" d="M460.9,275.7l-11-60.5a1.53,1.53,0,0,0-1.6-1.3h-25a1.74,1.74,0,0,0-1.7,1.2l-16.5,55.4a1.19,1.19,0,0,0,.7,1.5c.2,0,.3.1.5.1h6.5a1.51,1.51,0,0,0,1.5-1.2l.9-5.2a1.59,1.59,0,0,1,1.5-1.2h3.9l-.5,11.4a1.58,1.58,0,0,0,1.6,1.6h6.5a1.22,1.22,0,0,0,1.2-1.2v-.1l-.4-5.6a1.11,1.11,0,0,1,1.1-1.3h6.3l-.3,1.6a1,1,0,0,0,.7,1.2h6.9a1.82,1.82,0,0,0,1.8-1.5l.1-1.4h4a1.42,1.42,0,0,1,1.4,1.3l.4,5.6a1.49,1.49,0,0,0,1.4,1.3h6.5a1.35,1.35,0,0,0,1.4-1.3C460.9,275.9,460.9,275.8,460.9,275.7Zm-18.1-56.4-.8,4.3a1.62,1.62,0,0,1-1.6,1.2H429.2c0-.1-.1-.2-.1-.3l-.3-4.7a1.11,1.11,0,0,1,1.1-1.3h12.5a1.07,1.07,0,0,1,.2.6C442.8,219.2,442.8,219.2,442.8,219.3Z" transform="translate(-30.09 -29.96)"/>
    <g class="gal-3">
      <path class="gal-8" d="M442,223.7a1.62,1.62,0,0,1-1.6,1.2H426.8a1,1,0,0,1-1.1-.9v-.3l.8-4.3a1.59,1.59,0,0,1,1.5-1.2h13.6a1,1,0,0,1,1.1,1v.3Zm6.6-8.6a1.3,1.3,0,0,0-1.1-1.3H423.3a1.74,1.74,0,0,0-1.7,1.2l-16.5,55.4a1.19,1.19,0,0,0,.7,1.5c.2,0,.3.1.5.1h6.5a1.51,1.51,0,0,0,1.5-1.2l.9-5.2a1.59,1.59,0,0,1,1.5-1.2H436a.94.94,0,0,1,1.1.8v.4l-.9,5.2a1,1,0,0,0,.7,1.2h6.9a1.82,1.82,0,0,0,1.8-1.5Z" transform="translate(-30.09 -29.96)"/>
      <path class="gal-9" d="M445.5,224.6a1.16,1.16,0,0,1-1.1,1.3H430.7a1.35,1.35,0,0,1-1.4-1.3l-.3-4.7a1.11,1.11,0,0,1,1.1-1.3h13.7a1.6,1.6,0,0,1,1.5,1.3Zm4.4-9.4a1.53,1.53,0,0,0-1.6-1.3h-24a1.35,1.35,0,0,0-1.4,1.3l-2.6,60.5a1.58,1.58,0,0,0,1.6,1.6h6.5a1.22,1.22,0,0,0,1.2-1.2V276l-.4-5.6a1.11,1.11,0,0,1,1.1-1.3h19.4a1.42,1.42,0,0,1,1.4,1.3l.4,5.6a1.49,1.49,0,0,0,1.4,1.3h6.5a1.35,1.35,0,0,0,1.4-1.3v-.3Z" transform="translate(-30.09 -29.96)"/>
      <path class="gal-10" d="M448.4,260.9H431.8a2.77,2.77,0,0,1-2.3-1.3,2.68,2.68,0,0,1-.1-2.6l7.9-14.9a2.8,2.8,0,0,1,2.2-1.4,2.65,2.65,0,0,1,2.3,1.3l8.7,14.9a2.44,2.44,0,0,1,0,2.6A2.26,2.26,0,0,1,448.4,260.9Zm-8.8-18.3h0c-.1,0-.3.1-.3.2L431,258.5a.3.3,0,0,0,0,.4.52.52,0,0,0,.4.2h17.4c.1,0,.3-.1.3-.2a.3.3,0,0,0,0-.4l-9.2-15.7c0-.1-.2-.2-.3-.2Z" transform="translate(-30.09 -29.96)"/>
      <path class="gal-10" d="M446.4,257.8a.27.27,0,0,1-.3.3h-3.5c-.1,0-.2.1-.3.1a.37.37,0,0,1-.3-.1h-7a.27.27,0,0,1-.3-.3h0a.27.27,0,0,1,.3-.3h6.7v-2.1l-1-1.8-1.1-1.3-.6,1.2.5,1.7a.57.57,0,0,1-.4.7H439a.46.46,0,0,1-.5-.4l-.6-1.9a.3.3,0,0,1,0-.4l.9-1.8h0a1.08,1.08,0,0,1-.8.2,1.6,1.6,0,0,1-.2-3.2h.3a1.58,1.58,0,0,1,1.6,1.6h0v.3l.4-.6v-1.8a.61.61,0,1,1,1.2-.2v2.2a.37.37,0,0,1-.1.3l-.8,1.1,1,1.2,1.5-1.2a.61.61,0,0,1,.8,0l1.7,1.8a.62.62,0,0,1,.1.8.76.76,0,0,1-.5.2.52.52,0,0,1-.4-.2l-1.3-1.4-1.1.9.9,1.5a.37.37,0,0,1,.1.3v2.2h3.3C446.3,257.5,446.4,257.7,446.4,257.8Z" transform="translate(-30.09 -29.96)"/>
      <g>
        <path class="gal-11" d="M428.3,232.1h.4l.3.1c.1,0,.2.1.3.1v.9l-.4-.1c-.1,0-.3-.1-.4-.1h-.4c-.1,0-.3.1-.4.1a1.38,1.38,0,0,0-.3.4,1.85,1.85,0,0,0,0,1.2.54.54,0,0,0,.3.4c.1.1.2.1.4.1h.4c.1,0,.3-.1.4-.1l.4-.1v.8l-.3.1-.3.1h-.8c-.1,0-.3-.1-.4-.1s-.3-.1-.4-.2-.3-.2-.4-.4-.2-.3-.3-.5a2.5,2.5,0,0,1,0-1.4c.1-.2.1-.4.3-.5s.2-.3.4-.4a.76.76,0,0,1,.4-.2.6.6,0,0,1,.4-.1Z" transform="translate(-30.09 -29.96)"/>
        <path class="gal-11" d="M431.8,235.2h-1.2l-.3.8h-.9l1.2-3.8h1.2l1.3,3.8h-1Zm-.2-.7v-.3a.37.37,0,0,0-.1-.3c-.1-.1,0-.2-.1-.3s0-.2-.1-.3,0-.2-.1-.3c-.1.3-.1.5-.2.8s0,.2-.1.3,0,.2-.1.2l-.1.2Z" transform="translate(-30.09 -29.96)"/>
        <path class="gal-11" d="M434.9,236.1a1.27,1.27,0,0,1-.6-.1c-.2-.1-.3-.2-.5-.3a2.19,2.19,0,0,1-.3-.5,1.27,1.27,0,0,1-.1-.6v-2.5h1V235c0,.1.1.1.2.2s.2.1.3.1a.37.37,0,0,0,.3-.1c.1,0,.1-.1.2-.2v-3h1v2.5a1.27,1.27,0,0,1-.1.6c-.1.2-.2.3-.3.5a2.19,2.19,0,0,1-.5.3A.85.85,0,0,1,434.9,236.1Z" transform="translate(-30.09 -29.96)"/>
        <path class="gal-11" d="M439.4,232.2v.8h-.8v3h-1v-3h-.8v-.8Z" transform="translate(-30.09 -29.96)"/>
        <path class="gal-11" d="M440.8,232.2V236h-1v-3.8Z" transform="translate(-30.09 -29.96)"/>
        <path class="gal-11" d="M443.1,232.1h.4c.1,0,.3.1.4.1s.3.1.4.2a1.38,1.38,0,0,1,.3.4c.1.2.2.3.2.5a2.5,2.5,0,0,1,0,1.4.76.76,0,0,1-.2.5c-.1.1-.2.3-.3.4a.52.52,0,0,1-.4.2c-.1.1-.2.1-.4.1h-.4a.75.75,0,0,1-.5-.1,2.19,2.19,0,0,1-.5-.3,2.09,2.09,0,0,1-.4-.6,3.41,3.41,0,0,1,0-2,2.09,2.09,0,0,1,.4-.6c.2-.1.3-.2.5-.3A.75.75,0,0,0,443.1,232.1Zm-.7,2v.4c0,.1.1.3.1.4s.1.2.2.3a.85.85,0,0,0,.7,0c.1-.1.2-.1.2-.3s.1-.2.1-.4v-.9c0-.1-.1-.3-.1-.4s-.1-.2-.2-.3a.5.5,0,0,0-.6,0c-.1.1-.2.2-.2.3s-.1.2-.1.4a.9.9,0,0,0-.1.5Z" transform="translate(-30.09 -29.96)"/>
        <path class="gal-11" d="M448.4,236h-1.2l-1.1-2.6V236h-.9v-3.8h1.2l1,2.6v-2.6h.9Z" transform="translate(-30.09 -29.96)"/>
      </g>
    </g>
  </g>
  <g>
    <path class="gal-2" d="M885.2,276.3l-.3-.6a14,14,0,0,1-.6-5c.2,0,.4-.1.6-.1.3-19.4-4.7-29-9.9-33.1-.6-1-1.2-7.9-1.6-13.9h0c-.1-1.8-.3-3.5-.4-5a7.72,7.72,0,0,0,.6-1.5c1.1-4-2.2-12.6-2.2-12.6l-.7-1.8h0c-2.2-5.8-7.5-20.4-16.8-22.5-4-.9-6.6-.9-8.3-.2h-.4l-1,.2a25.9,25.9,0,0,1-3.8-1.7h0c-1.3-.6-2.7-2.8-3.7-4.6s-4.1-5.1-7-4.3a9,9,0,0,0-8.7,6c-1.3,3.8-1.2,8.7-.7,9.3s2-.1,2.5-.3a10.71,10.71,0,0,0,1.9,1.8c.4.2,2.9.5,3.5.8s2.5,3.7,2.7,3.6.5-.1,1.1-1c2.2.8,5.2,1.2,5.8.8h0a3.78,3.78,0,0,0,.5-.8,10,10,0,0,0,1.3-3.4c.2-.7,1.5-.1,2.4.6a16.52,16.52,0,0,0,.4,3c-1.5,4.1-3.8,10.3-5.1,12-.8,1.4-3.4,5.6-5.7,9.1l-.1-.1c-.6,1-3.7,5.7-3.7,5.7l-5-.9-3.1,1.5a9.53,9.53,0,0,0-1.3,2.9c.1.3,1.6.5,1.6.5l1-1.1s-.3,1.1.3,1.1c1.1,0,2.3-.2,3.4-.3,0,0,4.1,1.5,4.5-.3,1.4-.1,7-5.6,6.1-6.1a.1.1,0,0,1-.1-.1,105.51,105.51,0,0,0,7.1-8.8v.1a2.51,2.51,0,0,0,.4-.7l3.1-5.8c.5.2,1.6.8,2.8,1.4.3.2.6.3.9.5.1,0,.1.1.2.1,1.4.7,3.5,3.2,5.4,5.9-.1.1-.1.2-.2.3h0c-.2.4-4,5.2-4,5.3.1,1.8-4.6.6-5.2-1-.2-.4-2.1,2.4-2.4,2.9s1.4,4.7,2.1,4.9,3.7-.7,3.2-1.2a1.39,1.39,0,0,1-.5-1s4.7.1,5.2-.9.4-.6.4-.6,1.2-.8,2.5-1.8c-6.3,9.4-8.8,24-8.8,24v1.2c.3,5.5-.6,25.2-2,32.7.1,0,.1.1.2.1a12,12,0,0,1-2.2,3.6c-3,3.1-6.8,2.7-7.6,2.9s-2,.5-2.4,1.3a1.42,1.42,0,0,0-.2.6c.4,1.1,3,1.1,6.3,1.3s5.9-.6,6.7-.1,2.3.6,4.6.5c1.1-.6.5-2.6-.3-5.4a1.48,1.48,0,0,1-.1-.7,7.31,7.31,0,0,1,.2-3.3,9.44,9.44,0,0,0,1.4-.1s2.8-9.5,4.8-15.2a28.88,28.88,0,0,0,1-14h10.1l.6.9c8.3,11.8,10.4,27.5,10.4,27.5s0,.1.3.1a6.28,6.28,0,0,1-1.2,3.7h0a7.13,7.13,0,0,1-3.1,2.2c-.2.1-.4.1-.5.2a16.36,16.36,0,0,1-3.5.5,9.83,9.83,0,0,0-1.6.5,1.27,1.27,0,0,0-.7,1.3c.6,1.1,3.2,1.1,6.5,1.2s5.8-.6,6.6-.1,2.1.6,4.3.5C887.2,281,886.6,279,885.2,276.3Zm-40.9-96.2c.1,0,.4,0,.5.2C844.6,180.2,844.4,180.2,844.3,180.1Z" transform="translate(-30.09 -29.96)"/>
    <g class="gal-3">
      <g>
        <path class="gal-12" d="M874,243H851.2s4.7-14,11.4-14.7S874,243,874,243Z" transform="translate(-30.09 -29.96)"/>
        <path class="gal-13" d="M868.7,279.9c.6,1.1,3.2,1.1,6.5,1.2s5.8-.6,6.6-.1,2.1.6,4.3.5c1-.6.4-2.6-.9-5.3l-.3-.6a13.08,13.08,0,0,1-.5-5.9,16.65,16.65,0,0,0-5.3,1.4,6,6,0,0,1-1.2,4.1c-2.4,3-6.3,2.7-7.1,2.9S868.6,278.6,868.7,279.9Z" transform="translate(-30.09 -29.96)"/>
        <path class="gal-14" d="M868.7,279.9c.6,1.1,3.2,1.1,6.5,1.2s5.8-.6,6.6-.1,2.1.6,4.3.5c1-.6.4-2.6-.9-5.3l-.3-.6c-.6.1-2.4.7-3.4.8s-2.4-1.5-3.5-1.2c-2.4,3-6.3,2.7-7.1,2.9C869.9,278.3,868.6,278.6,868.7,279.9Z" transform="translate(-30.09 -29.96)"/>
        <path class="gal-13" d="M833.2,279.9c.4,1.1,3,1.1,6.3,1.3s5.9-.6,6.7-.1,2.3.6,4.6.5c1.1-.6.5-2.6-.3-5.4a1.48,1.48,0,0,1-.1-.7c-.5-2.7,1-6.1,1-6.1a21.62,21.62,0,0,0-5.5,1.6,10.2,10.2,0,0,1-2.4,4c-3,3.1-6.8,2.7-7.6,2.9C834.8,278.3,833.4,278.6,833.2,279.9Z" transform="translate(-30.09 -29.96)"/>
        <path class="gal-13" d="M848.8,193.4l-6,11.2c-1.8,3.6-14.5,17-12,14.7a3.42,3.42,0,0,1-2.6-2.8s7.8-11.9,9.2-14.4c1.8-2.4,5.3-13,6.4-15.3S848.8,193.4,848.8,193.4Z" transform="translate(-30.09 -29.96)"/>
        <path class="gal-15" d="M842.4,205.3a2.51,2.51,0,0,0,.4-.7l6-11.2s-3.9-8.8-5-6.5c-.4.8-1.1,2.6-1.9,4.8A32.75,32.75,0,0,1,842.4,205.3Z" transform="translate(-30.09 -29.96)"/>
        <path class="gal-14" d="M858.6,219a66.42,66.42,0,0,0,3,10.8c.4,1.1.8,2.3,1.3,3.4a59.16,59.16,0,0,0,5.5,10.6c8.3,11.8,10.4,27.5,10.4,27.5s0,.5,6.1-.9c.3-19.4-4.7-29-9.9-33.1-.6-1-1.2-7.9-1.7-13.9-.4-4.9-.6-9.1-.6-9.1L868,216Z" transform="translate(-30.09 -29.96)"/>
        <path class="gal-14" d="M833.2,279.9c.4,1.1,3,1.1,6.3,1.3s5.9-.6,6.7-.1,2.3.6,4.6.5c1.1-.6.5-2.6-.3-5.4a1.48,1.48,0,0,1-.1-.7c-.6.1-2.5.7-3.6.8s-2.1-1.5-3.3-1.2c-3,3.1-6.8,2.7-7.6,2.9C834.8,278.3,833.4,278.6,833.2,279.9Z" transform="translate(-30.09 -29.96)"/>
        <path class="gal-16" d="M861.6,229.8c.4,1.1,2.2,5.4,2.7,6.5,2.8-2.1,5.9-9.5,9.2-12.8-.4-4.9-.6-9.1-.6-9.1L868,216C866,220,863.2,225.8,861.6,229.8Z" transform="translate(-30.09 -29.96)"/>
        <path class="gal-14" d="M868.2,202.6l3.3,1.8s3.4,8.6,2.2,12.6-12.2,16.8-17,21.9a29.13,29.13,0,0,1,0,18c-2,5.7-4.8,15.2-4.8,15.2s-4.7.5-6.4-.8c1.5-7.5,2.4-27.2,2-32.7.2-5,5.1-20,11.6-28.3S868.2,202.6,868.2,202.6Z" transform="translate(-30.09 -29.96)"/>
        <path class="gal-17" d="M855.5,216.1s11.7-.3,18-4.5c-1.4-5.3-2.1-7.2-2.1-7.2s-13,7.3-15.9,11.7Z" transform="translate(-30.09 -29.96)"/>
        <path class="gal-18" d="M871.5,204.4a41.35,41.35,0,0,1-14,6.7c-2.4-6.7-4.9-9.1-4.9-9.1s-6-2.5-7.3-4.2-3.6-7.8-3.2-11.7,1.3-8.4,11.9-5.9S869.9,201,871.5,204.4Z" transform="translate(-30.09 -29.96)"/>
        <path class="gal-19" d="M862.5,202.6s-10.7-5.6-13.8-10.4C849.9,188,866.9,191.5,862.5,202.6Z" transform="translate(-30.09 -29.96)"/>
        <path class="gal-20" d="M870.8,202.6l.7,1.8s-12.8,17-15.7,29.1-1.9,9.4-1.9,9.4-6.2.7-6.2,0-.1-5.5-.1-5.5,3-17.5,10.6-26.5c-2.5-4-6.3-9.1-8.4-10.2s-4.3-2.1-4.3-2.1l-1.3-2.8s3.1.4,1.8-3.8a23.7,23.7,0,0,1-1.1-10.9c.2-1.2-.8-1-.8-1l1.1-.2a.89.89,0,0,1,1,.6v.3a24.84,24.84,0,0,0-.2,3.8c.8,9.6,9.4,16.3,15.7,20.5C865,207.1,870.8,202.6,870.8,202.6Z" transform="translate(-30.09 -29.96)"/>
        <path class="gal-13" d="M851.6,212Z" transform="translate(-30.09 -29.96)"/>
        <path class="gal-13" d="M854.4,195.6a28.05,28.05,0,0,0,5.9,2.4,111.82,111.82,0,0,1-8.6,14c.1,0,.4.3,1.6,1.8,12-4.5,14.7-17,13.9-18.2-.7-.9-5.9-4.8-9.3-6.9a18.34,18.34,0,0,0-2.4-1.3c-2-2.2-5.2-3.9-7.3,0-2.7,4.9,4.1,7,4.1,7S853.1,194.9,854.4,195.6Z" transform="translate(-30.09 -29.96)"/>
        <path class="gal-13" d="M843.6,188.7c-1.9-2.1-3.8-3.4-4-2.4s-1.4,4.1-1.9,4.4-3.5-.1-5.8-.8c-.6.9-.8.9-1.1.9s-2.2-3.3-2.7-3.6-3.1-.6-3.5-.8a10.4,10.4,0,0,1-2.8-3.1c-.4-1,6.7-10.8,6.7-10.8l9.1,4.3c.2.1,2.7,1.6,2.7,1.6a18.89,18.89,0,0,0,4.4,1.9c.5.1.1.9-.2,1.3A7.8,7.8,0,0,0,843.6,188.7Z" transform="translate(-30.09 -29.96)"/>
        <path class="gal-15" d="M837.7,190.7a10.69,10.69,0,0,0,1.9-4.2c.2-.7,1.7,0,2.6.8a47.84,47.84,0,0,0-3.8-6.1h0l-.4-1-.7,1a32.55,32.55,0,0,1,1.5,4.4C838.9,186.9,837.7,190.7,837.7,190.7Z" transform="translate(-30.09 -29.96)"/>
        <path class="gal-21" d="M836.1,181.4a1.77,1.77,0,0,0,1.5-1.9,1.85,1.85,0,0,0-.2-.7h1a2.33,2.33,0,0,1-1.7,2.6C836.5,181.4,836.3,181.5,836.1,181.4Z" transform="translate(-30.09 -29.96)"/>
        <path class="gal-22" d="M834.6,180.8s-1.8-1-2-1.8,1.3-2.9,3.7-1.4a10.1,10.1,0,0,1,1.3,1.6,22.88,22.88,0,0,0,2.8-.8c-1.3-.6-2.7-2.8-3.7-4.6s-4.1-5.1-7-4.3a9,9,0,0,0-8.7,6c-1.3,3.8-1.2,8.7-.7,9.3s2.6-.3,2.6-.3a18.65,18.65,0,0,0,2.2-3.9,3.62,3.62,0,0,0,4.6,0c.7-.5,3.8,1.1,3.8,1.1Z" transform="translate(-30.09 -29.96)"/>
        <path class="gal-23" d="M835.4,214.1s-3.2-1.7-3.9-3c-.6,1-3.7,5.7-3.7,5.7l-5-.9-3.1,1.5a9.53,9.53,0,0,0-1.3,2.9c.1.3,1.6.5,1.6.5l1-1.1s-.3,1.1.3,1.1c1.1,0,2.3-.2,3.4-.3,0,0,4.1,1.5,4.5-.3C830.6,220.1,836.2,214.6,835.4,214.1Z" transform="translate(-30.09 -29.96)"/>
        <path class="gal-24" d="M859.8,210.5s-4.4-4-4.7-3.6-4,5.2-4,5.3c.1,1.8-4.6.6-5.2-1-.2-.4-2.1,2.4-2.4,2.9s1.4,4.7,2.1,4.9,3.7-.7,3.2-1.2a1.39,1.39,0,0,1-.5-1s4.7.1,5.2-.9.4-.6.4-.6S858.9,211.8,859.8,210.5Z" transform="translate(-30.09 -29.96)"/>
      </g>
      <path class="gal-25" d="M852.3,194.4s.8.5,2.1,1.2c2.1-1.4,3.8-6.7,3.5-6.9h0a18.34,18.34,0,0,0-2.4-1.3c-2-2.2-5.2-3.9-7.3,0C845.6,192.3,852.3,194.4,852.3,194.4Z" transform="translate(-30.09 -29.96)"/>
    </g>
  </g>
  <g>
    <g>
      <path class="gal-2" d="M212.2,161.6a19.4,19.4,0,0,0-5.1-3.8c.1-7.7,3.2-20.8,10.3-30.4a18.07,18.07,0,0,0,3.5-7,13.15,13.15,0,0,0,5.9,1.4,13.36,13.36,0,0,0,13.3-13.3h0a13.3,13.3,0,1,0-26.6,0,13.15,13.15,0,0,0,1.4,5.9c-5,.1-11.8,3.6-14.9,9.9-6.5,13.4-3.7-26.6,6-41.4s-9.1-21.2-19.2-3.8-2.3,39.4-.4,45.5-4.3,6.1-10.7-3.6-24.9,2.6-8,18.7c8.4,8,15.3,15.7,19.1,21.4a18.08,18.08,0,0,0-4.4,7.1,35.85,35.85,0,0,1-3.3-2.5c-.4-1.3-.7-2.6-1.1-4-6.1-25.6-25.3-35.8-30.4-27.8s8.1,21.1,6.3,30-15.9-10.3-29.6-36.4-33.8-11.8-24.4-.2,7.5,18.4.8,13.4-29.9-24.1-53.4-21.4-21.9,26.3-1.5,22.9,68.1,12.6,50.3,13.3-25.7,26.1-1.7,20.6c17.5-4,40,2,44.8,6.7a7,7,0,0,0,.9,1.7c0,1-1.2,1.8-3.9,2.3a18.79,18.79,0,0,0-8.1,3.6c-3.4-2.4-6.9-5-10.6-7.8-20.7-16-31.6,3-19.7,8.9s12.9,12,5.6,10.5-33-8.3-50.9,2.7-7.8,29.3,7.3,18.9,59.4-15.2,45.5-8-11,30.5,6.3,17.2,48.8-14.9,37.6-6.9-8.1,25.6,5.7,14.1,50.5-13.6,52.5-13l2.5-7.9a118.51,118.51,0,0,1-11.6-6.8l3.4-3.7s-1-1.2-2.5-3.2a91,91,0,0,1,8.9,11.2l7.7-3.3c-.7-1.7-.3-34.6,10.7-48.4C237.2,151,219.7,150.7,212.2,161.6ZM226.7,101h0a7.5,7.5,0,1,1-7.5,7.5A7.49,7.49,0,0,1,226.7,101ZM149.9,203c1.4.1,2.8.3,4.2.4C153.2,203.8,151.8,203.7,149.9,203Z" transform="translate(-30.09 -29.96)"/>
      <path class="gal-2" d="M250.6,182A20.4,20.4,0,1,0,271,202.4h0A20.42,20.42,0,0,0,250.6,182Zm0,31.9A11.61,11.61,0,0,1,239,202.3a11.55,11.55,0,1,1,11.6,11.6Z" transform="translate(-30.09 -29.96)"/>
    </g>
    <g class="gal-3">
      <g>
        <path class="gal-26" d="M215.7,213.2c-.7-1.7-.3-34.6,10.6-48.4s-6.8-14.1-14.3-3.1-7.3-17.2,5.3-34.3-10.9-16.5-17.4-3.2-3.7-26.6,6-41.4-9.1-21.2-19.2-3.8-2.3,39.4-.4,45.5-4.3,6.1-10.7-3.6-24.9,2.6-8,18.7,27.8,31.1,19.9,30.5-14.2-13.6-22.4-11.4-6.4,19.1,12.5,29.3S208,216.2,208,216.2Z" transform="translate(-30.09 -29.96)"/>
        <path class="gal-27" d="M207.3,227c-2-.6-38.8,1.5-52.5,13s-16.9-6.1-5.7-14.1-20.4-6.4-37.6,6.9-20.2-10-6.3-17.2-30.4-2.3-45.5,8-25.2-8-7.3-18.9,43.7-4.2,50.9-2.7,6.2-4.6-5.6-10.4-1-24.9,19.7-8.9,39.2,26.1,37.3,18.3-17.4-13.5-16.2-21.8,20.4-7.3,34.8,11,36.4,28.9,36.4,28.9Z" transform="translate(-30.09 -29.96)"/>
        <g>
          <path class="gal-28" d="M195.3,215.5c-1.7-1.6-40.4-16.8-60-11.5s-14.4-14.2.9-17.1-17.9-16.2-41.8-10.7-16-19.9,1.7-20.6-29.9-16.8-50.3-13.3-22-20.1,1.5-22.9,46.8,16.4,53.4,21.4,8.5-1.7-.8-13.4,10.8-26,24.4.2,27.8,45.3,29.6,36.4-11.4-22-6.3-30,24.3,2.2,30.4,27.8,23.6,46.8,23.6,46.8Z" transform="translate(-30.09 -29.96)"/>
          <path class="gal-29" d="M194.5,214.6a134.4,134.4,0,0,0-12.8-14.4l-3.5-3.4-3.6-3.3c-1.2-1.1-2.4-2.2-3.6-3.2l-3.7-3.1A257.5,257.5,0,0,0,135.6,165l-8.5-4.7c-1.4-.8-2.8-1.6-4.3-2.3l-4.3-2.1c-2.9-1.4-5.8-2.9-8.7-4.3l-8.9-3.8-4.5-2-4.6-1.7-9.1-3.3a41.07,41.07,0,0,0-4.6-1.5l-4.6-1.5-9.3-2.9h0a.68.68,0,0,1-.4-.8.67.67,0,0,1,.7-.4l9.3,2.8,4.7,1.4c1.6.5,3.1.9,4.6,1.5l9.2,3.3,4.6,1.7,4.5,1.9,9,3.8c3,1.3,5.9,2.8,8.8,4.2l4.4,2.1c1.5.7,2.9,1.5,4.3,2.3l8.6,4.7a273.81,273.81,0,0,1,32.2,22.1l3.8,3.1c1.3,1.1,2.4,2.2,3.7,3.2a28.19,28.19,0,0,1,3.6,3.3l3.5,3.4a130.79,130.79,0,0,1,13.2,14.6,1.35,1.35,0,1,1-2.1,1.7h0Z" transform="translate(-30.09 -29.96)"/>
        </g>
      </g>
      <g>
        <g class="gal-30">
          <path class="gal-31" d="M226.7,121.8A13.3,13.3,0,1,1,240,108.5h0A13.23,13.23,0,0,1,226.7,121.8Zm0-20.8a7.5,7.5,0,1,0,7.5,7.5h0a7.43,7.43,0,0,0-7.5-7.5Z" transform="translate(-30.09 -29.96)"/>
        </g>
        <g class="gal-30">
          <path class="gal-31" d="M199.2,191.6A17.8,17.8,0,1,1,217,173.8h0A17.84,17.84,0,0,1,199.2,191.6Zm0-27.9a10.1,10.1,0,1,0,10.1,10.1A10.07,10.07,0,0,0,199.2,163.7Z" transform="translate(-30.09 -29.96)"/>
        </g>
        <g class="gal-30">
          <path class="gal-31" d="M250.6,222.8A20.4,20.4,0,1,1,271,202.4h0A20.36,20.36,0,0,1,250.6,222.8Zm0-32a11.6,11.6,0,1,0,11.6,11.7A11.61,11.61,0,0,0,250.6,190.8Z" transform="translate(-30.09 -29.96)"/>
        </g>
      </g>
    </g>
  </g>
  <g>
    <g>
      <polygon class="gal-2" points="946.81 73.84 949.71 87.54 960.41 90.44 949.71 93.34 946.81 106.94 943.91 93.34 933.21 90.44 943.91 87.54 946.81 73.84"/>
      <polygon class="gal-2" points="941.71 7.14 944.71 20.84 955.41 23.74 944.71 26.64 941.71 40.24 938.81 26.64 928.21 23.74 938.81 20.84 941.71 7.14"/>
      <polygon class="gal-2" points="919.71 32.44 924.41 54.44 941.61 59.14 924.41 63.84 919.71 85.74 915.01 63.84 897.81 59.14 915.01 54.44 919.71 32.44"/>
    </g>
    <g class="gal-3">
      <polygon class="gal-32" points="946.81 73.84 949.71 87.54 960.41 90.44 949.71 93.34 946.81 106.94 943.91 93.34 933.21 90.44 943.91 87.54 946.81 73.84"/>
      <polygon class="gal-33" points="941.71 7.14 944.71 20.84 955.41 23.74 944.71 26.64 941.71 40.24 938.81 26.64 928.21 23.74 938.81 20.84 941.71 7.14"/>
      <polygon class="gal-34" points="919.71 32.44 924.41 54.44 941.61 59.14 924.41 63.84 919.71 85.74 915.01 63.84 897.81 59.14 915.01 54.44 919.71 32.44"/>
    </g>
  </g>
  <g>
    <g>
      <polygon class="gal-2" points="256.11 73.74 259.01 87.44 269.71 90.34 259.01 93.24 256.11 106.84 253.21 93.24 242.51 90.34 253.21 87.44 256.11 73.74"/>
      <polygon class="gal-2" points="243.31 35.14 246.31 48.74 256.91 51.74 246.31 54.64 243.31 68.24 240.41 54.64 229.71 51.74 240.41 48.74 243.31 35.14"/>
      <polygon class="gal-2" points="282.01 35.14 286.71 57.04 303.91 61.74 286.71 66.44 282.01 88.44 277.31 66.44 260.11 61.74 277.31 57.04 282.01 35.14"/>
    </g>
    <g class="gal-3">
      <polygon class="gal-35" points="256.11 73.74 259.01 87.44 269.71 90.34 259.01 93.24 256.11 106.84 253.21 93.24 242.51 90.34 253.21 87.44 256.11 73.74"/>
      <polygon class="gal-36" points="243.31 35.14 246.31 48.74 256.91 51.74 246.31 54.64 243.31 68.24 240.41 54.64 229.71 51.74 240.41 48.74 243.31 35.14"/>
      <polygon class="gal-37" points="282.01 35.14 286.71 57.04 303.91 61.74 286.71 66.44 282.01 88.44 277.31 66.44 260.11 61.74 277.31 57.04 282.01 35.14"/>
    </g>
  </g>
  <g>
    <path class="gal-2" d="M252.4,201.8v71a106.38,106.38,0,0,1-25.1,8,146.45,146.45,0,0,1-28.8,2.8c-15.4,0-28.8-2.9-40.1-8.7a60.57,60.57,0,0,1-26-25.1c-6-10.9-9-23.9-9-38.9q0-21.9,9-38.4A61.8,61.8,0,0,1,158,147.2c11.1-5.9,24-8.8,38.9-8.8a101.53,101.53,0,0,1,29,4c9,2.7,16.4,6.4,22,11.1l-11.5,26.1a77,77,0,0,0-18.9-9.2,63.51,63.51,0,0,0-19.3-2.8c-12.7,0-22.2,3.5-28.4,10.6s-9.3,18-9.4,32.8c0,15.1,3.3,26.4,9.8,33.7s16.5,11,29.9,10.9a94.57,94.57,0,0,0,19.1-2V227.3H194.3V202h58.1Zm148.2,80-12.7-29.3H325.2l-12.7,29.3H275.3l66.1-141.7h29.4l66.3,141.7Zm-63.5-57.1h39l-19.5-45.4Zm124.6,57.1V140.1h37V251.9H559v29.9Zm131,0V140.1h37V251.9H690v29.9Zm131,0V140.1H824.4v28.5H759.7v26.9h60.7v28.4H759.7v29.3h64.7v28.5H723.7Zm263.6,0H946.7l-24.5-45.2q-4.65-7.8-14.7-7.8H896.3v53.1H859.9V140.1h67.5q25.65,0,38.7,11.1c8.6,7.4,13,18.2,13,32.3,0,10.7-2.9,19.8-8.8,27.2s-14.2,12.4-24.9,15q12.3,2.55,19.5,15.9Zm-48.2-84.6c3.5-2.5,5.3-6.7,5.3-12.5s-1.8-10.1-5.3-12.8-9.4-3.9-17.6-3.9H895.8v33h25.7C929.7,201,935.6,199.7,939.1,197.2Zm78.9,84.6V140.1h37V281.8Zm78.8,0V140.1h100.7v28.5h-64.7v26.9h60.7v28.4h-60.7v29.3h64.7v28.5H1096.8Z" transform="translate(-30.09 -29.96)"/>
    <path class="gal-38" d="M252.4,201.8v71a106.38,106.38,0,0,1-25.1,8,146.45,146.45,0,0,1-28.8,2.8c-15.4,0-28.8-2.9-40.1-8.7a60.57,60.57,0,0,1-26-25.1c-6-10.9-9-23.9-9-38.9q0-21.9,9-38.4A61.8,61.8,0,0,1,158,147.2c11.1-5.9,24-8.8,38.9-8.8a101.53,101.53,0,0,1,29,4c9,2.7,16.4,6.4,22,11.1l-11.5,26.1a77,77,0,0,0-18.9-9.2,63.51,63.51,0,0,0-19.3-2.8c-12.7,0-22.2,3.5-28.4,10.6s-9.3,18-9.4,32.8c0,15.1,3.3,26.4,9.8,33.7s16.5,11,29.9,10.9a94.57,94.57,0,0,0,19.1-2V227.3H194.3V202h58.1Zm148.2,80-12.7-29.3H325.2l-12.7,29.3H275.3l66.1-141.7h29.4l66.3,141.7Zm-63.5-57.1h39l-19.5-45.4Zm124.6,57.1V140.1h37V251.9H559v29.9Zm131,0V140.1h37V251.9H690v29.9Zm131,0V140.1H824.4v28.5H759.7v26.9h60.7v28.4H759.7v29.3h64.7v28.5H723.7Zm263.6,0H946.7l-24.5-45.2q-4.65-7.8-14.7-7.8H896.3v53.1H859.9V140.1h67.5q25.65,0,38.7,11.1c8.6,7.4,13,18.2,13,32.3,0,10.7-2.9,19.8-8.8,27.2s-14.2,12.4-24.9,15q12.3,2.55,19.5,15.9Zm-48.2-84.6c3.5-2.5,5.3-6.7,5.3-12.5s-1.8-10.1-5.3-12.8-9.4-3.9-17.6-3.9H895.8v33h25.7C929.7,201,935.6,199.7,939.1,197.2Zm78.9,84.6V140.1h37V281.8Zm78.8,0V140.1h100.7v28.5h-64.7v26.9h60.7v28.4h-60.7v29.3h64.7v28.5H1096.8Z" transform="translate(-30.09 -29.96)"/>
  </g>
  <g>
    <g>
      <path class="gal-2" d="M349.7,286.5l-.7-.4c0-.1-.1-.2-.1-.3l-4.8-3.8c-.1-.1-.2-.1-.4-.1l-9.7.7-9.5-7.6-8-12.6a2,2,0,0,0-1.2-.8L293.5,232c.8-1,1.4-2.2,1.2-2.9-.5-1.3-2-5.8-2-5.8s-1.4-7.9-1.9-7.4l-.4.2c-1.3-5.8-2.9-14.9-3.9-16.2-.4-1.9,0-6.4.6-10.4,1-2.3,1.8-5.8,2.8-11.9.3-.3.7-.6,1-.9a3.61,3.61,0,0,0,.5.4c.6.5,1.6,1.2,2.3,1.8l.1.1.1.1h0c.9.8,1.9,1.7,2.4,1.5s5.9-4.3,5.9-4.3a12.86,12.86,0,0,0,1.9.4c.4-.1,0-4.8.5-5.1a11,11,0,0,1,2.6-.6c.8-.2,2-2.3,2.8-3.8a3.85,3.85,0,0,0,3.2-1.6s-.8-.8-1.8-4.4c-3.1-8.9-9.5-10-11.9-9.9-3,.6-6.8,4-7.1,6.6a41.14,41.14,0,0,1-1.1,6h0a25.13,25.13,0,0,1-6.5,6.1,4,4,0,0,0-1.5-.3h-.1c-3.7-.7-9.1.1-11.6,2.5a13.06,13.06,0,0,0-1.4,1.6c-6,.6-14.6,2.1-16.7,5.7-.2,5.2,2.1,10,4.8,13.8-.7,1.2-1.3,2.2-1.7,3a9.06,9.06,0,0,1-1.1,1.6,1.38,1.38,0,0,0-.3.4,19.17,19.17,0,0,0-3.3,5.5l.1.1a15.89,15.89,0,0,0-.9,3.9c-6.2,3.4-10.7,9.4-14.8,18.8-1.1,2.4-2.2,5.5-3.4,8.8-4.3,11.5-10.1,27.3-18.1,29.2a17.8,17.8,0,0,1-6.8.4V234.6a4.08,4.08,0,0,0-3-3.9V229a5,5,0,0,0-.2-1.2l-.2,3h0l.2-3.1a3.87,3.87,0,0,0-3.7-2.7h-6.7a.9.9,0,0,0,.9-.9V223a5.29,5.29,0,0,0-5.2-5.2H175.3a.9.9,0,0,0-.9.9v2.2a.82.82,0,0,0,.9.8h11.5a.79.79,0,0,1,.8.8v1.6a.88.88,0,0,0,.8.9H164.5a3.9,3.9,0,0,0-3.9,3.9v1.6h0a2.93,2.93,0,0,0,.4,1.6,4,4,0,0,0-1,2.6v8.1h-.4a1.38,1.38,0,0,0-1.3,1h-.1V254h.1a1.38,1.38,0,0,0,1.3,1h.4v20.5h-3.1c-1.9,0-3.4,3.5-3.4,7.8s1.5,7.8,3.4,7.8h4c1.7,0,3.1-2.8,3.4-6.5H181c0,.3.1.6.1.9a2.66,2.66,0,0,0-1.2-.3h-3.7c-1.6,0-2.9,1.7-2.9,3.7s1.3,3.7,2.9,3.7h3.7a3,3,0,0,0,2.7-2.6,2.24,2.24,0,0,0,1.8,1.1h4c1.7,0,3.1-2.8,3.4-6.5H203a4,4,0,0,0,4-3.9h.9V268.1a13.4,13.4,0,0,0,2,.1,19.52,19.52,0,0,0,5.4-.7c9.6-2.3,15.5-18.3,20.2-31.1,1.2-3.2,2.4-6.3,3.4-8.6,3.4-7.7,7-12.9,11.7-16.2-1.3,8.4-5.1,24.9-5.1,24.9s-1.9,1.9-6.4,7.1c-4.8,6.5-9.2,34-9.2,34a1.61,1.61,0,0,0,.6.5c-1.1,4.7-3.7,6.9-4.1,7.8a2.37,2.37,0,0,0,1.5,2.7,2.22,2.22,0,0,0,.9.1,21.05,21.05,0,0,0,2.3-.1,25,25,0,0,1,5.1.5,11.23,11.23,0,0,0,3.2.3,25.79,25.79,0,0,0,6.3-.9,5.7,5.7,0,0,0-.4-2.2c-.4-.6-1.7-.7-5.3-1.3a3.34,3.34,0,0,1-2.4-2.2,22.21,22.21,0,0,1-.9-3.7c1.2-4.3,10.8-26.1,16.9-35.6.7-.8,1.3-1.6,2-2.5a130.73,130.73,0,0,0,15.5.8c-4.9,16.3,1.8,34.9,1.8,34.9a3.9,3.9,0,0,0,1.1.4,20.07,20.07,0,0,1,.5,4.2,7.06,7.06,0,0,1-.6,2.4c-.5,1.5-.7,4.2,0,4.7.1.1.2.1.4.1.9.1,3.1-.4,5.7-.4a5.7,5.7,0,0,1,1.3.1,59.44,59.44,0,0,0,7.2.5,14.84,14.84,0,0,0,3.3-.3c2.1-.5,1.9-3-.2-3.6h-1.2a11.05,11.05,0,0,1-7.6-3.5h0a12.16,12.16,0,0,1-2.8-5.1h0c.2-.1.3-.1.5-.2-.6-6,1.3-25.2,1.8-34.3h.1a12.19,12.19,0,0,0,0-6c-.7-2.1-3.2-12-7.3-22.5.4.1.7.2.9.1l5.8,7.9a1.64,1.64,0,0,0,1.1.7l3.4,4.7c-.4.4-.7.6-.6.7s3.8,6.8,5.2,6.6a1.42,1.42,0,0,0,.6-.2L313,263.2a2,2,0,0,0,.3,1.1l8.2,12.9a1.76,1.76,0,0,0,.4.5l6.6,5.2-12.1.9h-1a.47.47,0,0,0-.5.5l-.1,1.4a.76.76,0,0,0,.2.5l5.7,4.5c.1.1.2.1.4.1l28.2-2a.54.54,0,0,0,.5-.5l.1-1.3A.37.37,0,0,0,349.7,286.5ZM262.9,185.3c-.1-.6-.3-1.2-.4-1.8a4.22,4.22,0,0,0,1.2.3A10.93,10.93,0,0,1,262.9,185.3Zm22.2,35.2a3.08,3.08,0,0,0-.3-1.3L277.4,209a11.27,11.27,0,0,0,.5-3.2c-.3-1.1-1.2-2.1-3.2-3.7,1.4-1.3,2.8-2.7,4.2-4,.1,1.1.2,2.4.4,3.7.8,5.4,4,11.9,6.3,15.9q-.3.15-.3.3a27.06,27.06,0,0,0,2.1,3.7,6.8,6.8,0,0,1,.2,2Z" transform="translate(-30.09 -29.96)"/>
      <path class="gal-2" d="M207.3,285.3h-3.7c-1.6,0-2.9,1.7-2.9,3.7s1.3,3.7,2.9,3.7h3.7c1.6,0,2.9-1.7,2.9-3.7S208.8,285.3,207.3,285.3Z" transform="translate(-30.09 -29.96)"/>
      <rect class="gal-2" x="172.91" y="254.84" width="1.6" height="0.5"/>
      <rect class="gal-2" x="147.41" y="254.84" width="1.6" height="0.5"/>
    </g>
    <g class="gal-3">
      <path class="gal-39" d="M314.8,264.9a1.25,1.25,0,0,1-1.1-.6l-42.1-57.7a1.36,1.36,0,1,1,2.2-1.6l42.1,57.7a1.4,1.4,0,0,1-.3,1.9A1.14,1.14,0,0,1,314.8,264.9Z" transform="translate(-30.09 -29.96)"/>
      <path class="gal-40" d="M283.2,222.1a1.9,1.9,0,0,1-1.5-.8L271.2,207a1.86,1.86,0,0,1,3-2.2l10.5,14.4a1.9,1.9,0,0,1-.4,2.6h0A2,2,0,0,1,283.2,222.1Z" transform="translate(-30.09 -29.96)"/>
      <path class="gal-41" d="M349.3,288.9l-28.2,2a.6.6,0,0,1-.4-.1l-5.7-4.5a.76.76,0,0,1-.2-.5l.1-1.4a.54.54,0,0,1,.5-.5l28.2-.7a.37.37,0,0,1,.3.1l5.8,3.2a.55.55,0,0,1,.3.5l-.1,1.3Q349.75,288.9,349.3,288.9Z" transform="translate(-30.09 -29.96)"/>
      <path class="gal-42" d="M348.5,286.8l-27.3,2a.6.6,0,0,1-.4-.1l-4.8-3.8a.61.61,0,0,1-.1-.8.52.52,0,0,1,.4-.2l27.3-2a.6.6,0,0,1,.4.1l4.8,3.8a.61.61,0,0,1,0,.8C348.8,286.7,348.7,286.8,348.5,286.8Z" transform="translate(-30.09 -29.96)"/>
      <path class="gal-40" d="M332.8,286a1.5,1.5,0,0,1-1.1-.4l-9.8-7.8a1,1,0,0,1-.4-.5l-8.2-12.9a1.8,1.8,0,1,1,3-2l8,12.6,9.6,7.6a1.88,1.88,0,0,1,.3,2.6,1.6,1.6,0,0,1-1.4.8Z" transform="translate(-30.09 -29.96)"/>
      <g>
        <path class="gal-43" d="M191.9,283.4c0,4.3-1.6,7.8-3.5,7.8h-4V275.5h4C190.3,275.6,191.9,279.1,191.9,283.4Z" transform="translate(-30.09 -29.96)"/>
        <ellipse class="gal-43" cx="154.31" cy="253.44" rx="3.5" ry="7.8"/>
        <path class="gal-44" d="M195.1,223.1v1.1a.9.9,0,0,1-.9.9h-6a.9.9,0,0,1-.9-.9v-1.6a.88.88,0,0,0-.8-.9H175.1a.88.88,0,0,1-.9-.8h0v-2.2a.88.88,0,0,1,.8-.9h14.9A5.45,5.45,0,0,1,195.1,223.1Z" transform="translate(-30.09 -29.96)"/>
        <path class="gal-45" d="M207,234.8v46.1a4,4,0,0,1-4,3.9H163.9a4,4,0,0,1-4-4v-46a4,4,0,0,1,4-4H203a4,4,0,0,1,4,4Z" transform="translate(-30.09 -29.96)"/>
        <path class="gal-17" d="M207.9,234.8v46.1H173.6a4,4,0,0,1-4-4V230.8h34.2A4,4,0,0,1,207.9,234.8Z" transform="translate(-30.09 -29.96)"/>
        <path class="gal-40" d="M210.1,289c0,2-1.3,3.7-2.9,3.7h-3.7v-7.4h3.7C208.8,285.3,210.1,287,210.1,289Z" transform="translate(-30.09 -29.96)"/>
        <path class="gal-43" d="M206.4,289c0,2-1.3,3.7-2.9,3.7s-2.9-1.7-2.9-3.7,1.3-3.7,2.9-3.7S206.4,287,206.4,289Z" transform="translate(-30.09 -29.96)"/>
        <path class="gal-43" d="M164.2,283.4c0,4.3-1.6,7.8-3.5,7.8h-4V275.5h4C162.7,275.6,164.2,279.1,164.2,283.4Z" transform="translate(-30.09 -29.96)"/>
        <path class="gal-40" d="M160.3,283.4c0,4.3-1.6,7.8-3.5,7.8s-3.5-3.5-3.5-7.8,1.6-7.8,3.5-7.8S160.3,279.1,160.3,283.4Z" transform="translate(-30.09 -29.96)"/>
        <path class="gal-40" d="M182.8,289c0,2-1.3,3.7-2.9,3.7h-3.7v-7.4h3.7C181.5,285.3,182.8,287,182.8,289Z" transform="translate(-30.09 -29.96)"/>
        <rect class="gal-43" x="172.91" y="254.84" width="1.6" height="0.5"/>
        <rect class="gal-43" x="147.41" y="254.84" width="1.6" height="0.5"/>
        <path class="gal-43" d="M179.1,289c0,2-1.3,3.7-2.9,3.7s-2.9-1.7-2.9-3.7,1.3-3.7,2.9-3.7S179.1,287,179.1,289Z" transform="translate(-30.09 -29.96)"/>
        <path class="gal-46" d="M204.9,229v1.6a4.55,4.55,0,0,1-.5,2l.3-4.7A3.59,3.59,0,0,1,204.9,229Z" transform="translate(-30.09 -29.96)"/>
        <path class="gal-17" d="M159.5,242.9h4.8V255h-4.8a1.37,1.37,0,0,1-1.4-1.4v-9.4a1.35,1.35,0,0,1,1.4-1.3Z" transform="translate(-30.09 -29.96)"/>
        <rect class="gal-40" x="128.01" y="213.94" width="6.1" height="10.2"/>
        <path class="gal-44" d="M204.7,227.8l-.3,4.7-2.1,28.3a4.67,4.67,0,0,1-4.6,4.3H189a4.64,4.64,0,0,1-4.3-3l-8.6-22.8a7.35,7.35,0,0,0-6.9-4.8h-4.7a3.9,3.9,0,0,1-3.9-3.9h0V229a3.9,3.9,0,0,1,3.9-3.9H201A3.87,3.87,0,0,1,204.7,227.8Z" transform="translate(-30.09 -29.96)"/>
        <path class="gal-41" d="M169.1,225.1v9.3h-4.8a3.9,3.9,0,0,1-3.9-3.9h0V229a3.9,3.9,0,0,1,3.9-3.9h4.8Z" transform="translate(-30.09 -29.96)"/>
        <path class="gal-41" d="M187.1,257a6.21,6.21,0,1,0,5.3-7h-.1A6.27,6.27,0,0,0,187.1,257Z" transform="translate(-30.09 -29.96)"/>
        <path class="gal-47" d="M189.8,237.6h4.8a1.9,1.9,0,0,1,1.9,1.9v4.1a1.9,1.9,0,0,1-1.9,1.9h-4.8a1.9,1.9,0,0,1-1.9-1.9v-4.1A1.84,1.84,0,0,1,189.8,237.6Z" transform="translate(-30.09 -29.96)"/>
        <path class="gal-40" d="M192.6,252.1l3.4-.5,1.2,8.1-3,.4-.5.1a4.09,4.09,0,0,1-1.1-8.1Z" transform="translate(-30.09 -29.96)"/>
        <path class="gal-41" d="M191.5,256.2a4.09,4.09,0,1,0,3.5-4.6h0A4.06,4.06,0,0,0,191.5,256.2Z" transform="translate(-30.09 -29.96)"/>
      </g>
      <g>
        <path class="gal-13" d="M228.1,288.7c1,.3,4.4-.5,8.3.5s9.2-.5,9.2-.5a5.7,5.7,0,0,0-.4-2.2c-.4-.6-1.7-.7-5.4-1.3a3.34,3.34,0,0,1-2.4-2.2,18.56,18.56,0,0,1-1-6.1s-4.6-4-5.6.9a15,15,0,0,1-1.7,4.6c-1.1,1.9-2.3,3-2.5,3.6A2.37,2.37,0,0,0,228.1,288.7Z" transform="translate(-30.09 -29.96)"/>
        <path class="gal-13" d="M236.1,276.9s-.2,7.8,3.4,8.4,5,.7,5.4,1.3a5.38,5.38,0,0,1,.4,2.2s-5.4,1.5-9.2.5-7.3-.3-8.3-.5a2.27,2.27,0,0,1-1.5-2.7c.4-.9,3.2-3.3,4.2-8.2S236.1,276.9,236.1,276.9Z" transform="translate(-30.09 -29.96)"/>
        <path class="gal-13" d="M273.3,275.6a18.58,18.58,0,0,1,1,5.8,7.06,7.06,0,0,1-.6,2.4c-.5,1.5-.7,4.2,0,4.7s3.7-.6,7.4-.2,8.4.7,10.5.2,1.9-3-.2-3.6a11.26,11.26,0,0,1-8.8-3.5,12.16,12.16,0,0,1-2.8-5.1l-1.7-5.1S271.7,270.1,273.3,275.6Z" transform="translate(-30.09 -29.96)"/>
        <path class="gal-14" d="M228.1,288.7c1,.3,4.4-.5,8.3.5s9.2-.5,9.2-.5a5.7,5.7,0,0,0-.4-2.2c-.4-.6-1.7-.7-5.4-1.3a3.34,3.34,0,0,1-2.4-2.2,13.1,13.1,0,0,0-5.2,1.1c-1.4.4-2.5-.8-3.1-1.7-1.1,1.9-2.3,3-2.5,3.6A2.37,2.37,0,0,0,228.1,288.7Z" transform="translate(-30.09 -29.96)"/>
        <path class="gal-14" d="M273.8,288.4c.7.5,3.7-.6,7.4-.2s8.4.7,10.5.2,1.9-3-.2-3.6a11.26,11.26,0,0,1-8.8-3.5,10.6,10.6,0,0,0-4.2,1.5c-1.3.6-3-.2-4.1-1.4a7.06,7.06,0,0,1-.6,2.4C273.3,285.2,273.1,288,273.8,288.4Z" transform="translate(-30.09 -29.96)"/>
        <path class="gal-14" d="M269.7,201.7s10.8,23.9,12.5,35.3c.6,2.3-2.7,31.4-1.9,39.1-5.9,2.2-7.6.8-7.6.8s-7.4-20.5-1-37.4c-.8-3.6-12.8-20.6-12.8-20.6Z" transform="translate(-30.09 -29.96)"/>
        <path class="gal-14" d="M273.8,196.8c-.5.4-2.7,12.1-5.6,15.2-1.6,8.6-7.4,23.1-14.7,31.6-6.4,9.9-16.6,33.4-17,36.1-5.8-.8-6.6-2-6.6-2s4.4-27.5,9.2-34c4.5-5.2,6.4-7.1,6.4-7.1s5.1-22.1,5.5-28.2,4.7-10.8,4.7-10.8Z" transform="translate(-30.09 -29.96)"/>
        <path class="gal-13" d="M288.3,181.6s-2.8,14.4-1.9,18.3c1.3,1.7,3.5,16.1,5,20.1l-3.5,1.7s-7.5-11.4-8.7-19.9-.1-12.6-.1-12.6Z" transform="translate(-30.09 -29.96)"/>
        <path class="gal-48" d="M289.8,173.2c.1.3-.7,16.6-5.7,20.1s-11.2,9.2-13,12.6c-4.1,0-14.7-5.9-15.4-8.1,1.2-1.5,12.6-22.5,15.9-25.6s11-3.5,14.2-1.6A19.52,19.52,0,0,1,289.8,173.2Z" transform="translate(-30.09 -29.96)"/>
        <path class="gal-17" d="M267.2,210.5s-11.3-3.1-15.4-6.6a19.06,19.06,0,0,1,3.8-6.1C255.6,197.7,265.6,206,267.2,210.5Z" transform="translate(-30.09 -29.96)"/>
        <path class="gal-49" d="M289.2,177s-1.1,9.9-2.9,10.5-.8-3.5-.4-7.6.4-5.4.1-6.7a11.53,11.53,0,0,1-.3-2.6,5.81,5.81,0,0,0-2.5-.9c-1.5-.2-2.2.9-1.4,1.4a17.24,17.24,0,0,1,2.7,2.7c.2.4.6,7.6-1,11.9s-16.2,17.2-26.9,10.6c-.4.6-.8,1.3-1.2,1.9l2.1,1.7s-7.4,28.6-9.2,39.8c7,3.4,34,2.3,34,2.3a12.19,12.19,0,0,0,0-6c-.9-2.6-4.6-17.7-10.8-30.6,3.8-3.6,10.1-9.6,13.3-12.5,2.4-2.1,3.5-5.3,5-15.1C289.6,176,289.2,177,289.2,177Z" transform="translate(-30.09 -29.96)"/>
        <path class="gal-50" d="M209.9,268.4a15,15,0,0,1-8.4-2.3,17.37,17.37,0,0,1-7.1-9.9,1.49,1.49,0,0,1,2.9-.7h0a14.46,14.46,0,0,0,5.8,8.1c3,1.9,6.9,2.3,11.5,1.2,8-1.9,13.8-17.7,18.1-29.2,1.2-3.3,2.4-6.4,3.4-8.8,7.8-17.8,17-23.4,36.6-22.4a1.5,1.5,0,1,1-.2,3c-18.3-1-26.5,4-33.7,20.6-1,2.4-2.2,5.4-3.4,8.6-4.7,12.8-10.6,28.8-20.2,31.1A21.91,21.91,0,0,1,209.9,268.4Z" transform="translate(-30.09 -29.96)"/>
        <path class="gal-51" d="M282.3,180.2l1.3,1s-1.3,8.4-20.9,5.6c-.6,0,1.3-3.1,2.6-4.6S282.3,180.2,282.3,180.2Z" transform="translate(-30.09 -29.96)"/>
        <path class="gal-13" d="M253.5,179.5c-.4,12.1,12.6,22.2,12.6,22.2s.6-.1,3.6-2.8a31.63,31.63,0,0,1-7.1-15.4c1.5.7,4.7.2,9.8.3.9,0,1.9,0,3,.1,7.7,2.7,9.1-3.4,8.6-7.2-.7-4.8-7.7-3.4-8-3.3,0,0-1.4,0-3.5.2h0C266.7,174,255.8,175.3,253.5,179.5Z" transform="translate(-30.09 -29.96)"/>
        <path class="gal-52" d="M266.1,194.1s-4.3,3.1-5,3.1l-.5-.5s-.7.2.3,1.2,4.8,5.2,4.8,5.2,1.1,4.5,1.5,5.8a3.94,3.94,0,0,0,1.9,2.3c.4,0,8.6,3.7,6.9,1.7-1.2-1.4-1.7-2.5-.2-3.8a1.22,1.22,0,0,1,1.6,0,11.27,11.27,0,0,0,.5-3.2c-.3-1.2-1.3-2.2-3.8-4.2a8.71,8.71,0,0,0-3.1-1.4c-.8-1-4-7.8-5.1-7Z" transform="translate(-30.09 -29.96)"/>
        <path class="gal-13" d="M310.6,165.8s-2.3,4.9-3.5,5.2a12.21,12.21,0,0,0-2.6.6c-.6.3-.2,4.9-.5,5.1a4.33,4.33,0,0,1-1.9-.4s-5.3,4-5.9,4.3-1.7-.9-2.7-1.7-2.7-2.2-2.7-2.2a9.84,9.84,0,0,0-3,3.4c-.5-4.7-2.2-9.5-4.6-9.2a26.78,26.78,0,0,0,8-7,65.38,65.38,0,0,1,7.7-8.1Z" transform="translate(-30.09 -29.96)"/>
        <path class="gal-15" d="M295,168.5s-4.9,5.3-1.2,10.6c-1.1-1-3-2.4-3-2.4S289.5,173,295,168.5Z" transform="translate(-30.09 -29.96)"/>
        <path class="gal-15" d="M294.7,162s-2.2,5.2.8,5.6c-3.2.4-3-3.7-2-5.4Z" transform="translate(-30.09 -29.96)"/>
        <path class="gal-53" d="M313.1,165.6s-2.8,4.3-9-1.5c-1.3,1.8-1.9,3.3-3.5,2.1-1.3-.7-2.6,1.3-2.6,1.3l-1-.9s1.1-1.9,1.9-3.5-2.7-4.5-5-.2c-.7,1.2-3.1,1.1-2.9,1.1s1-3.8,1.3-6.4,4.1-6,7.1-6.6c2.4-.1,8.8,1,11.9,9.9C312.4,164.8,313.1,165.6,313.1,165.6Z" transform="translate(-30.09 -29.96)"/>
        <path class="gal-54" d="M290.7,216c-.3.3-5.6,1.6-5.5,2.1a27.06,27.06,0,0,0,2.1,3.7,6.66,6.66,0,0,1-.1,3.7c-.8,1.4-1.7,1.8-1.5,2s3.8,6.9,5.2,6.6,4.3-3.7,3.8-5-2-5.8-2-5.8S291.2,215.5,290.7,216Z" transform="translate(-30.09 -29.96)"/>
        <path class="gal-55" d="M272.4,183.8h0c.9,0,1.9,0,3,.1,7.7,2.7,9.1-3.4,8.6-7.2-.7-4.8-7.7-3.4-8-3.3,0,0-1.4,0-3.5.2h0c-.1.1-.2.1-.3.2C271,178.1,272.4,183.8,272.4,183.8Z" transform="translate(-30.09 -29.96)"/>
      </g>
    </g>
  </g>
  <g>
    <path class="gal-2" d="M618.7,212.6s-2.9-7.4-5.5-12.3a1.24,1.24,0,0,0,.3-.2c.3-.5-.9-5.9-1.7-6.3s-1.7.4-2,.5c-.3-.9-.4-.9-.4-.9a6.15,6.15,0,0,0-1.9.2c-.6.3-1.5,3.3-1.5,3.4a4.33,4.33,0,0,1,.1.5,32.55,32.55,0,0,1-4.4,1.5.55.55,0,0,0-.3.5l.7-.1h0a38.41,38.41,0,0,1-6.9.7,65.06,65.06,0,0,1-4.6-5.8c-.9-3-1.9-5.1-3.6-5.8a36,36,0,0,0-4.1-3.7,7.71,7.71,0,0,1-1.2-3.6c.8-.6,2.9.7,4.9.2,1-.1,3.4-2.9,2.8-7.4.6-.3,1.2-.8.9-1.3a4,4,0,0,1-1.8-1.6,5.74,5.74,0,0,1,.1-1.2,7.24,7.24,0,0,0,0-4.6l.3.3c1.1-3.3-1.4-5.1-4.5-6-1.3-2.3-12.2-3.7-14.9,3.9a8.3,8.3,0,0,0,.8,6.2c-6.7,1.7-4.6,7.5-3.9,12.7.7,5.6-3.5,6.2-4.8,5.6,0,.8,3,3.3,6.7,1.1,5.9-3.5,2.1-11.9,1.3-15.3-.4-2,.3-2.9,1.1-3.4a23.63,23.63,0,0,0,2.8,3.2,6.31,6.31,0,0,1,1.7,3.9s1.3,4.8,0,6.2h0a11.76,11.76,0,0,0-6.1,8.4h0s-3.6,10.1-3,14.8c.2,1.5,2.5,2.8,5.4,3.8a29.82,29.82,0,0,1-2.5,6.2s-3.6,5.5-1.5,10.4c.3.8.8,1.6,1.3,2.6,0,1.5-.1,3.3-.2,5.1h0c-.2,6.6-.6,14.1-.8,15.1-2.2,3.1-6.4,8.1-6.4,16.9,0,8.4-.5,16.8-.5,17.6h0a17.6,17.6,0,0,1-2.5,6.2c-.6.9-1.2,1.8-1,2.6a1.37,1.37,0,0,0,.5.8c1,1.1,5.5-.2,7,.1s8.4.8,9.5,0a.87.87,0,0,0,.4-.7,1.55,1.55,0,0,0-1.1-1.5c-.5,0-4.8.2-7-2s-.5-6.7-.5-6.7h0c1.2-4.6,5.4-19.6,8.9-27.7,1.6,0,3.4.1,5.1.2-1,6.4-.4,10.8,3,17.3,3.9,7.3,6.8,13.9,7,14.3h0a8.21,8.21,0,0,1,.3,3.5h-.1v.3c-.4,1.9-.8,2.4-.7,2.6s.3,1.4,1.2,1.6h.1c1,.1,3.3-.4,5-.4s7.7,1.7,10.8-.3a1.09,1.09,0,0,0,.1-.5c0-1.1-1.4-1.5-2-1.4h-.2c-.2,0-.5-.1-.7-.1-2.1-.4-7.4-2.1-9.3-7.1a.37.37,0,0,0,.1-.3c-.9-2.4-4.6-18-5.7-28.1,2.6.2,2.6.5,2.6.5s-2.3-27.1-5.9-36.3a4.52,4.52,0,0,0,.1-2h0c-.2-2-.4-3.8-.5-5.4,1.3-.1,3.3-.3,3.3-.3s3.9,1.1,4.4,1.2c4.2.5,5.5-.9,6.2-2.2,1.3-2.6-1.6-2.9-4.7-3.2a1.09,1.09,0,0,1-.9-.4c1.3-.2,2-.5,2.3-1,.6-1,0-1.3-.4-1.2,0,0-3.9.8-4.5,1a9.13,9.13,0,0,0-2.3,1.5.76.76,0,0,1-.2.4,15.47,15.47,0,0,1-3.1-.6,22.46,22.46,0,0,1,2.5-6.9c1.5,1.8,3,3.5,4.3,4.1,3.6.5,7.9-1,11-2.6l-.5.2s0,.7.9.3a24.69,24.69,0,0,0,2.7-1.8c-.3,4.6-1,14.1-1,14.1h4.7v1.5l6.5-.6-.9-4.3Zm-46.3-8.5a.9.9,0,0,1,.1-.5c0,.2.1.4.1.6C572.5,204.2,572.5,204.1,572.4,204.1Zm31.6-.3Z" transform="translate(-30.09 -29.96)"/>
    <g class="gal-3">
      <path class="gal-13" d="M566.6,283.4s-1.7,4.5.5,6.7,6.5,2,7,2,1.8,1.4.7,2.2-8,.3-9.5,0-6,1-7-.1-.3-2.2.5-3.4a17.6,17.6,0,0,0,2.5-6.2c.6-2.9,4.3-2.5,4.3-2.5Z" transform="translate(-30.09 -29.96)"/>
      <path class="gal-13" d="M590.8,284.7l-.3,2.7a8.53,8.53,0,0,1,.3,3.9c-.3,1.9-.8,2.4-.7,2.6s.3,1.5,1.3,1.7,3.3-.4,5-.4,7.7,1.7,10.8-.3c.4-1.6-1.2-2-1.9-1.9s-7.9-1.1-10.2-7.2C592.2,283.7,590.8,284.7,590.8,284.7Z" transform="translate(-30.09 -29.96)"/>
      <path class="gal-12" d="M570.3,255.3c-.1.3,9.2.3,14.2.7C582,241,575.7,237.2,570.3,255.3Z" transform="translate(-30.09 -29.96)"/>
      <path class="gal-14" d="M569.3,224.5s-.7,23.7-1.2,25.6c-2.2,3.1-6.4,8.1-6.4,16.9s-.5,17.7-.5,17.7h5s5.3-20.1,9.5-29.6,5.5-26.9,5.5-26.9Z" transform="translate(-30.09 -29.96)"/>
      <path class="gal-14" d="M574.8,294.3c-1.1.8-8,.3-9.5,0s-6,1-7-.1-.3-2.2.5-3.4a4.05,4.05,0,0,0,.5-.9,10.48,10.48,0,0,0,2.8,1c2.4.4,4.2-.1,4.4-1.8l.6.9c2.2,2.2,6.5,2,7,2S575.9,293.5,574.8,294.3Z" transform="translate(-30.09 -29.96)"/>
      <path class="gal-14" d="M607.1,294.8c-3.1,1.9-9.1.2-10.8.3s-3.9.5-5,.4-1.2-1.5-1.3-1.7.3-.7.7-2.6v-.4a4.87,4.87,0,0,1,1.1.4c1.7.9,5.7,1.3,6.3-1.3a14,14,0,0,0,7,2.9C605.9,292.8,607.6,293.2,607.1,294.8Z" transform="translate(-30.09 -29.96)"/>
      <path class="gal-56" d="M581.1,228.2s-1.4,14.4-4.2,23.7c-.9-4.6-4.4-13.2-8-17,.2-5.5.3-10.4.3-10.4Z" transform="translate(-30.09 -29.96)"/>
      <path class="gal-14" d="M574.3,211.4l-5.1,5.4s-3.6,5.5-1.5,10.4,9.6,13.1,13.3,25.3c-1.7,8.2-1.5,12.9,2.4,20.4s7,14.3,7,14.3,4.6-.8,4.7-2c-1.1-2.8-6-23.9-6-32.7a130.67,130.67,0,0,0-3.5-27.1l.7-5.3Z" transform="translate(-30.09 -29.96)"/>
      <path class="gal-57" d="M593.5,214.9c-.5-.1-4.4-1.2-4.4-1.2a39.12,39.12,0,0,1-4.3.3c-.8-.1-.5-.6-.5-.6l.6.1c.4-.5.5-4.1.5-4.1l-.6-.2c.1-.2.2-.2.4-.2a25.75,25.75,0,0,0,4,.8c.1-.1.1-.2.2-.4a6.34,6.34,0,0,1,2.3-1.6c.6-.2,4.5-.9,4.5-.9.4-.1,1,.3.4,1.2-.3.5-1,.8-2.3,1a3.55,3.55,0,0,0,.9.4c3.1.3,6,.6,4.7,3.2C599,214,597.7,215.4,593.5,214.9Z" transform="translate(-30.09 -29.96)"/>
      <path class="gal-13" d="M571.6,189.2l-2.3,2.9s-3.6,10.1-3,14.8c.5,4.4,18.9,6.4,18.9,6.4v-3.9s-8.2-2.2-12.7-5.4a91.18,91.18,0,0,1,2.1-10.4C574.5,193.7,575.9,189.4,571.6,189.2Z" transform="translate(-30.09 -29.96)"/>
      <path class="gal-58" d="M569.3,216.9s10.1,3,17.1,3.3c-.5-7.1-2-10.2,2.5-18.6,1.2-8.2-1.1-12.4-1.1-12.4a37.8,37.8,0,0,0-5.5-5.1c-1.9-1.2-6.8-.4-6.8-.4a11.76,11.76,0,0,0-6.1,8.4c-.5,3.3,4,9.3,3.3,14.6A36,36,0,0,1,569.3,216.9Z" transform="translate(-30.09 -29.96)"/>
      <path class="gal-59" d="M573.1,185.3s8.8-.1,12.6,1.9l-2.7-2.4a38.7,38.7,0,0,0-7.6-1.1C574.6,184.2,573.9,184.8,573.1,185.3Z" transform="translate(-30.09 -29.96)"/>
      <path class="gal-60" d="M579.2,218s8.6,21.1,5.9,39.2c7-.2,7,.6,7,.6s-2.3-27.1-5.9-36.3a4.52,4.52,0,0,0,.1-2C584,217.7,579.2,218,579.2,218Z" transform="translate(-30.09 -29.96)"/>
      <path class="gal-61" d="M588.8,201.7c-4.5,8.4-2.9,11.4-2.5,18.6-7-.3-17.1-3.3-17.1-3.3a18.73,18.73,0,0,0,.9-1.9s8.3,1.6,10.9,1.4,6-16.6,5.6-18.3.5-8.9.5-8.9,1,3.3,2,6.7A18.39,18.39,0,0,1,588.8,201.7Z" transform="translate(-30.09 -29.96)"/>
      <path class="gal-62" d="M607,200.2c0,.2-1.2,16.5-1.2,16.5h4.7v1.5l6.5-.6-.9-4.3,2.5-.7s-6.5-16.6-8.8-16.4S607,200.2,607,200.2Z" transform="translate(-30.09 -29.96)"/>
      <path class="gal-13" d="M608.1,201.2c-.3.3-8.8,6.1-15.3,5.2-3.2-1.6-8.6-10.1-8.6-10.1s-3.8-4.3-1-6.7,5.9-.5,6.9,3.9a64.54,64.54,0,0,0,5.1,6.6s8-.1,11.2-2.2A6.19,6.19,0,0,1,608.1,201.2Z" transform="translate(-30.09 -29.96)"/>
      <path class="gal-13" d="M587.8,169.6a4.76,4.76,0,0,0,2.6,3.1c.5,1-1.7,1.7-1.7,1.7Z" transform="translate(-30.09 -29.96)"/>
      <path class="gal-13" d="M574.6,172.4l.8,5.1s1.3,4.8,0,6.2a48,48,0,0,1,7.6,1.1,7.71,7.71,0,0,1-1.2-3.6c0-1.4,3.9.3,4.9.3s3.4-2.9,2.8-7.5c-.9-2.1-1.2-2.1-.8-3.9a8,8,0,0,0-.4-5.7c-1-1.8-12.4-3-12.4-3S572.6,167.7,574.6,172.4Z" transform="translate(-30.09 -29.96)"/>
      <path class="gal-63" d="M572,170c-.2.1-3,.4-2.3,3.8s4.5,11.8-1.3,15.3c-3.7,2.2-6.7-.2-6.7-1.1,1.3.6,5.5-.1,4.8-5.6s-3.1-11.9,5.5-13C573,169.5,572,170,572,170Z" transform="translate(-30.09 -29.96)"/>
      <path class="gal-15" d="M576.5,172.7a4.64,4.64,0,0,0,4.6,1.9c0,2.6,2.4,6.2,5.6,6.8-2.3.5-4.6-1.2-5.1,0-.3-2-1.1-5.2-1.7-5.7C578.4,175.8,577,174.3,576.5,172.7Z" transform="translate(-30.09 -29.96)"/>
      <path class="gal-64" d="M601.4,199.5l.7-.1s2,3.7,1.9,4.4l-.6.3s0,.7.9.3a42.66,42.66,0,0,0,4.1-2.9s4.8-.9,5.1-1.4-.9-5.9-1.7-6.3-1.7.4-2,.6c-.3-.9-.4-.9-.4-.9a6.15,6.15,0,0,0-1.9.2c-.6.3-1.5,3.3-1.5,3.4a4.33,4.33,0,0,1,.1.5,32.55,32.55,0,0,1-4.4,1.5C601.4,199.1,601.3,199.3,601.4,199.5Z" transform="translate(-30.09 -29.96)"/>
      <path class="gal-65" d="M575.4,177.5a4.16,4.16,0,0,0,1.3-4.2c-.7-2-1.1-4.2.8-4.7s3.2,2.2,3.2,3.7a1.38,1.38,0,0,0,1.1-.1s-.9-2.3,0-3,3.6-3.1,1-5.4c1.7-1.4,4.9.3,6.2,1.7,1.1-3.3-1.4-5.1-4.5-6-1.3-2.3-12.2-3.7-14.9,3.9-1.2,5.3,2.3,8.2,4.1,10.1A7.11,7.11,0,0,1,575.4,177.5Z" transform="translate(-30.09 -29.96)"/>
      <path class="gal-66" d="M590.7,194.4c-1.4-4.6-3-7.3-6.8-5.7s-1.4,7.3,1.1,8.8C585,197.5,589.4,195.3,590.7,194.4Z" transform="translate(-30.09 -29.96)"/>
    </g>
  </g>
  <g>
    <path class="gal-2" d="M1223.5,213.1l2.4-10.3a7,7,0,0,0-5.4-8.3,7.84,7.84,0,0,0-1.4-.2h-4.6c1.7-3.9,3.7-8.5,6.1-13.7.4,0,.8.1,1.1.1a12.05,12.05,0,0,1-1.2,3.3h4.3s6.8-30-2.6-44.9c0-.1-.1-.1-.1-.2h0c-.3-2.3-.2-1.5-.2-1.5h-.1a52,52,0,0,1,0-16.7,18.56,18.56,0,0,0-.5-7.2c1.4-.8,2.9-3.1,4.4-5.7,2.3-4.1,4.4-9.3,5.4-11.6,1.2-2.8,1.5-9.1,1.4-13.9a.1.1,0,0,1,.1.1v.4a.68.68,0,0,0,.8-.4c.2-.6-.9-6.2-.9-6.2a.31.31,0,0,0-.1-.2,9.38,9.38,0,0,0,1.4-1l1.8,3.7a.79.79,0,0,0,.8.5.6.6,0,0,0,.4-.1h0a.84.84,0,0,0,.4-1.1l-1.9-3.9a4.17,4.17,0,0,1,1.3-.7c.7-.3.7-1.7.4-2.1s-3.2-5.5-3.5-5.5a6.53,6.53,0,0,0-2,.5l-6.6-13.4,9.3-3.6a2,2,0,0,0-1.5-3.7L1213,53.3a2,2,0,0,0-1.3,1.9,2,2,0,0,0,2,2,1.45,1.45,0,0,0,.7-.2l8.8-3.4,6.6,13.4a7.46,7.46,0,0,1-1.2.7c-.4.1-.8,2.4-.8,2.4a10.48,10.48,0,0,0-.1,2.5,5.58,5.58,0,0,1,.7,1.6c-.5,2.6-1.8,7.5-1.8,7.5a.75.75,0,0,0,.5.7,90.82,90.82,0,0,0-1.7,10.7,45.78,45.78,0,0,1-5.9,9.1h0c-.7.9-1.4,1.6-1.8,2.2h0c-.4-.3-2.1,0-4.4.7.1,0,.3-.1.4-.1a3.75,3.75,0,0,0-2.6-.6c-2-1.6-2.3-5.1-2.3-5.3a26.45,26.45,0,0,0,2.7-3.7c.3,1.4,2.3.6,2.9-1.7.7-2.8-.5-3.1-1.5-2.7a.1.1,0,0,1-.1.1,10.14,10.14,0,0,0-.2-2.4c-.8-3.9-3.3-10.5-11.7-8.3s-7.6,10.6-4.7,15.2h0a1,1,0,0,0-1,.6c-.4.7.2,1.9,1.3,2.5s2.3.6,2.8,0a10.21,10.21,0,0,0,2.9,1.1,16.15,16.15,0,0,1,1.5,7.1h0a3.74,3.74,0,0,0-1.2,2,21.48,21.48,0,0,0-4.7,2.4h0c-.9.6-4.1,2.3-4.3,8v1.2q-.3,1.8-.6,3.3h0c-.8,4.8-1.1,7.6-1.1,7.6s-1.4,5.7-2.2,8.8v-.1c-.3-.4-.6.1-.9.9l-.2-.4h0a.65.65,0,0,0-.9-.2l-2,1.2-.3-.3a.47.47,0,0,0-.1-.6l-.4-.4a.48.48,0,0,0-.7,0l-4,3.8a.48.48,0,0,0,0,.7l.4.4a.48.48,0,0,0,.7,0l1.9-1.8.9.9a1.69,1.69,0,0,0-.4,2.1l1.8,3h0a1.62,1.62,0,0,0,1.7.7l2.9,4.6a1.59,1.59,0,0,0,2.2.3l.1-.1,3.2-3.1a1.7,1.7,0,0,0,.2-2.3c0-.1-.1-.1-.2-.2l-3.5-2.9v-.7a26.93,26.93,0,0,0,2.7-2h0a.82.82,0,0,0-.2-1.2l-.1.1c1.8-2.6,3.7-7.1,3.7-10.1a36.53,36.53,0,0,1,1.2-6.6c.3-1.2.7-2.4,1-3.3,2.1,3.3,4,6.4,4.2,7.6s-1.4,4.3-2.4,6h0l-.2.4c-.2.3-.3.6-.4.7v.1a22.19,22.19,0,0,0-2.1,7.4v.1s-4.1,27.6-2.6,35.1c.8,0,1.7.1,2.6.1-1.4,3.4-1.6,7.3-1.3,12.5h0c0,.5.1,1.1.1,1.6a6.94,6.94,0,0,0-6.6,5.4l-21,89.1h2.7l2.8-12h26.4l1.5,6.6-1.3,5.4h5.2l-1.2-5.4,15.2-64.5,15.4,70h2.7Zm-29.2-12.7a4.28,4.28,0,0,1,4.2-3.4c.3,2.5.6,5.2,1,7.7.1.8.2,1.6.3,2.3h-3.9a6.4,6.4,0,0,0-3.4.9Zm.7,9.4a2.77,2.77,0,0,1,.9-.1h4.2c.3,1.9.6,3.5.7,4.4l-.1.1a5.72,5.72,0,0,0-.7.8c-.2.2-.3.4-.5.6-1.1,1.3-2.4,3.1-1.5,4.1a2.73,2.73,0,0,0,1.3.7,1.88,1.88,0,0,0,.9.4,3.45,3.45,0,0,0-.3,1.3h-6.7l-1.5-7A4.43,4.43,0,0,1,1195,209.8Zm-5.1,9.1.7,3h-1.4Zm-1.1,4.5h2l3.6,16.5h-9.5Zm-4.2,17.9h10.2l3.6,16.3h-17.7Zm-8,34.1,3.8-16.3h18.3l3.6,16.3Zm28.9,2.1-.1-.6h.3Zm.5-2.1h-1l-3.6-16.3h8.4Zm4.2-17.8h-9.1l-3.6-16.3H1214Zm4.2-17.8h-17.2l-3.6-16.5h12.5a22,22,0,0,0,5.5.6c0-.2,0-.5-.1-.6h6.7Zm4.2-17.9h-5.3c.3-.7-.1-1.9-2-2.2a14,14,0,0,1-3.4-1.2v-.1h0a19.41,19.41,0,0,1,0-6.8v-.3c.1-.3.3-.9.6-1.7h8.1a4.38,4.38,0,0,1,4.2,3.3Zm4.7-19.7-1.7,7a7,7,0,0,0-5.1-2.3h-7.1c.9-2.4,2.2-5.8,3.9-10h5.7a4.27,4.27,0,0,1,4.3,4.3A1.7,1.7,0,0,1,1223.3,202.2Z" transform="translate(-30.09 -29.96)"/>
    <g class="gal-3">
      <path class="gal-67" d="M1213.8,57a2,2,0,0,1-2-2,2.05,2.05,0,0,1,1.3-1.9l19.7-7.7a2,2,0,1,1,1.5,3.7l-19.7,7.7A3.09,3.09,0,0,1,1213.8,57Z" transform="translate(-30.09 -29.96)"/>
      <path class="gal-50" d="M1205.3,288.9h2.7l-16.3-74a4.32,4.32,0,0,1,3.3-5.1,2.77,2.77,0,0,1,.9-.1h20.6a4.28,4.28,0,0,1,4.2,3.4l16.7,75.9h2.7l-16.8-76.5a7,7,0,0,0-6.8-5.5h-20.6a7,7,0,0,0-7,7,5.9,5.9,0,0,0,.2,1.4Z" transform="translate(-30.09 -29.96)"/>
      <rect class="gal-50" x="1144.31" y="245.44" width="32.1" height="1.5"/>
      <rect class="gal-50" x="1148.81" y="227.64" width="32.1" height="1.5"/>
      <path class="gal-68" d="M1236.5,79.2a1,1,0,0,1-.8-.5l-13.1-26.8a1,1,0,0,1,.4-1.2.84.84,0,0,1,1.1.4h0l13.1,26.8a.84.84,0,0,1-.4,1.1h0C1236.7,79.2,1236.6,79.2,1236.5,79.2Z" transform="translate(-30.09 -29.96)"/>
      <rect class="gal-50" x="1152.81" y="209.84" width="32.1" height="1.5"/>
      <rect class="gal-50" x="1157.81" y="191.94" width="32.1" height="1.5"/>
      <path class="gal-50" d="M1173.4,288.9l20.9-88.5a4.28,4.28,0,0,1,4.2-3.4h20.6a4.27,4.27,0,0,1,4.3,4.3,2.77,2.77,0,0,1-.1.9l-20.4,86.7h2.7l20.3-86.1a7,7,0,0,0-5.4-8.3,7.84,7.84,0,0,0-1.4-.2h-20.6a7,7,0,0,0-6.8,5.4l-21,89.1h2.7Z" transform="translate(-30.09 -29.96)"/>
      <g>
        <path class="gal-69" d="M1201.7,141.1l-2.2,4s-4.1,27.6-2.6,35.1c3.2.2,7,0,7,0l.4-37Z" transform="translate(-30.09 -29.96)"/>
        <path class="gal-13" d="M1201.7,111.1l-.5,9.2s-.9,2.7-1.8,5.7a38.19,38.19,0,0,0-1.2,6.6c-.1,4.1-3.7,11.2-5.6,12s-3.7-2-3.5-2.5,2.8-10.8,2.8-10.8.3-2.8,1.1-7.6c.2-1,.3-2.1.6-3.3-.3-6.6,3.3-8.5,4.3-9.2S1201.7,111.1,1201.7,111.1Z" transform="translate(-30.09 -29.96)"/>
        <path class="gal-70" d="M1185.2,141.6l-4,3.8a.48.48,0,0,1-.7,0l-.4-.4a.48.48,0,0,1,0-.7l4-3.8a.48.48,0,0,1,.7,0l.4.4A.48.48,0,0,1,1185.2,141.6Z" transform="translate(-30.09 -29.96)"/>
        <rect class="gal-71" x="1184.12" y="141.86" width="3" height="4.1" transform="translate(195.11 823.87) rotate(-43.39)"/>
        <path class="gal-72" d="M1192.4,155l3.2-3.1a1.7,1.7,0,0,0,.2-2.3c0-.1-.1-.1-.2-.2l-6.2-5.2a1.53,1.53,0,0,0-2,.1l-1.6,1.5a1.66,1.66,0,0,0-.2,2l4.3,6.9a1.59,1.59,0,0,0,2.2.3C1192.3,155.1,1192.4,155,1192.4,155Z" transform="translate(-30.09 -29.96)"/>
        <path class="gal-73" d="M1191.4,147.7l-3.7,2.3a1.62,1.62,0,0,1-2.2-.5h0l-1.8-2.9a1.6,1.6,0,0,1,.5-2.2l1.3-.8-.2-.2-.3-.4a.65.65,0,0,1,.2-.9h0l2.4-1.5a.65.65,0,0,1,.9.2h0l.3.4a.64.64,0,0,1,0,.6,1.56,1.56,0,0,1,1.3.8l1.8,2.9A1.6,1.6,0,0,1,1191.4,147.7Z" transform="translate(-30.09 -29.96)"/>
        <path class="gal-74" d="M1201.7,111.1l-.5,9.2s-.9,2.7-1.8,5.7c-1.7-4.6-6.3-2.3-6.3-2.3.2-1,.3-2.1.6-3.3-.3-6.6,3.3-8.5,4.3-9.2S1201.7,111.1,1201.7,111.1Z" transform="translate(-30.09 -29.96)"/>
        <path class="gal-13" d="M1208.7,94l.1,4.9s.4,5.7,4.3,6.1-10.2,6.5-10.2,6.5,2.6-5.1-.9-12.5S1208.7,94,1208.7,94Z" transform="translate(-30.09 -29.96)"/>
        <path class="gal-75" d="M1197.9,111.2a9.55,9.55,0,0,0,.6,8.4c2.6,4.2,5.9,9.1,6.2,10.7s-2.6,6.4-3,7.2,13.3,6.6,20.4,1.5a50.62,50.62,0,0,1-.3-18.2c1-4.8-2.6-15.5-4-16.5S1200.4,109.1,1197.9,111.2Z" transform="translate(-30.09 -29.96)"/>
        <path class="gal-13" d="M1232.4,76.2c0,1.9.7,15.5-1.3,20-1.1,2.3-3.2,7.5-5.4,11.6-2,3.7-4.2,6.5-5.9,6-3.6-1-3.8-6.9-2.9-8.4.4-.6,1.4-1.7,2.7-3.3a45.78,45.78,0,0,0,5.9-9.1c.1-4.4,3-17,3.1-17.5C1228.9,74.1,1232.1,74.3,1232.4,76.2Z" transform="translate(-30.09 -29.96)"/>
        <path class="gal-13" d="M1198.1,96c1.2.7,1.7,1.8,1.3,2.6s-1.7.8-2.9.1-1.7-1.8-1.3-2.6S1197,95.3,1198.1,96Z" transform="translate(-30.09 -29.96)"/>
        <path class="gal-76" d="M1203.6,99.8s3.4-1.4,5.3-.9c3-3.6,4.6-6.4,3.8-10.3s-3.3-10.5-11.7-8.3-7.6,10.6-4.7,15.2A8.53,8.53,0,0,0,1203.6,99.8Z" transform="translate(-30.09 -29.96)"/>
        <path class="gal-13" d="M1212.9,90.8s-1.7,2.6-1.5,4.3,2.4.9,3-1.5C1215.1,90.7,1214,90.4,1212.9,90.8Z" transform="translate(-30.09 -29.96)"/>
        <path class="gal-12" d="M1203.5,181s16.6-1,19.5,0c3.1-16.9,2-26,2-26l-15.9,1.1Z" transform="translate(-30.09 -29.96)"/>
        <path class="gal-14" d="M1202.7,144.1l-3,3.8s3.2,25.5,3,27.5c-4.4,4.5-4.9,9.5-4.5,17.3s2.9,22.1,2.9,22.1l3.9,1.1s4-32.4,5.4-40.3,5.3-30,5.3-30Z" transform="translate(-30.09 -29.96)"/>
        <path class="gal-77" d="M1200.8,219.4s-1.3,2.7-.6,3.1,12.8.1,13.2-.5.1-2-2-2.3-7.7-3.3-7.7-3.3Z" transform="translate(-30.09 -29.96)"/>
        <path class="gal-16" d="M1210.4,175.6c-1.4,7.9-5.4,40.3-5.4,40.3l-3.9-1s-2.5-14.4-2.9-22.1v-2.3C1202,193.6,1210.4,175.6,1210.4,175.6Z" transform="translate(-30.09 -29.96)"/>
        <path class="gal-13" d="M1211.6,224c-4-.1-6.8-.5-9-2.5-3-1.5-2.8-.5-3.8-2.1-.9-1.3.2-3.3,1.3-4.5.3-.3.5-.6.7-.8,1.3-1.1,2.9-5.2,2.9-5.2l2.7-6s2,4.6,1.5,8.7a19.41,19.41,0,0,0,0,6.8,3.34,3.34,0,0,0,1.4,2.3C1211.1,221.8,1211.5,221.8,1211.6,224Z" transform="translate(-30.09 -29.96)"/>
        <path class="gal-16" d="M1215.7,145.5s-2.8,16.1-4.6,25.8c-1.4-6.1-6.2-11.7-10.6-15.8-.5-4.3-.9-7.6-.9-7.6l3-3.8Z" transform="translate(-30.09 -29.96)"/>
        <path class="gal-78" d="M1211.6,224c-4-.1-6.8-.5-9-2.5-3-1.5-3.7-1.2-4.5-2-1.1-1.2.8-3.4,2-4.7a1.7,1.7,0,0,1,1,0c2.4.3,2.8,2.1,3.6,3.5s2.6,2,3.2,0a3.34,3.34,0,0,0,1.4,2.3C1211.1,221.8,1211.5,221.8,1211.6,224Z" transform="translate(-30.09 -29.96)"/>
        <path class="gal-14" d="M1201.7,137.5s10.1,4.8,20.4,1.5c3.9,7.4,7,17.5-.9,40.4-9.8,21-13.3,32.2-13.3,32.2s-2.9-3-4.9-2.6c1-6.9,2.3-27.7,11-34.4-2.3-14.5-3.8-19.8-3.8-19.8S1193.6,155.2,1201.7,137.5Z" transform="translate(-30.09 -29.96)"/>
        <path class="gal-79" d="M1201.7,137.5s7.1,4.5,19.7,1.9c0,0,4.2,20.8,2.3,31.7s-3.2,12.9-3.2,12.9h4.3s6.9-30.1-2.7-45c-.3-2.3-.3-1.5-.3-1.5s-10.2,2.4-19.6-1.2Z" transform="translate(-30.09 -29.96)"/>
        <path class="gal-80" d="M1225.7,107.8c-2,3.7-4.2,6.5-5.9,6-3.6-1-3.8-6.9-2.9-8.4.4-.6,1.4-1.7,2.7-3.3C1221.6,102.3,1224.6,103.3,1225.7,107.8Z" transform="translate(-30.09 -29.96)"/>
        <path class="gal-81" d="M1189.7,140.2s-.1,1.4,1.8,2.6,3-.1,3-.1a.83.83,0,0,1,.2,1.2v.1a23.49,23.49,0,0,1-3.2,2.3,3.34,3.34,0,0,1-3.3-2.6C1188.1,142.8,1189.1,139.3,1189.7,140.2Z" transform="translate(-30.09 -29.96)"/>
        <path class="gal-82" d="M1237,71.2c-.3-.4-3.2-5.4-3.5-5.5a6.53,6.53,0,0,0-2,.5l.5,1.1c.3.8-.8,1.4-1.4.8l-.6-1.3a5.67,5.67,0,0,1-1.3.8c-.4.1-.8,2.4-.8,2.4a10.48,10.48,0,0,0-.1,2.5,5.58,5.58,0,0,1,.7,1.6h0c-.5,2.6-1.8,7.5-1.8,7.5a.73.73,0,0,0,.6.7l.1-.5s3.7-1.2,5.3.5v.4a.68.68,0,0,0,.8-.4c.2-.6-.9-6.2-.9-6.2a.31.31,0,0,0-.1-.2c1.1-.7,3.6-2.4,4.2-2.7C1237.3,73.1,1237.3,71.6,1237,71.2Z" transform="translate(-30.09 -29.96)"/>
        <path class="gal-71" d="M1202.6,108.8a115,115,0,0,1,11.2-4c-.9-.7-3.7-1.5-10,2A3.22,3.22,0,0,0,1202.6,108.8Z" transform="translate(-30.09 -29.96)"/>
        <path class="gal-83" d="M1204.8,96.8a4.44,4.44,0,0,0-.7,4.9c1.3,2.8,3.9,16.3-.7,15.7,3.2,4.5,11.7-.7,9.6-7.5s-7.8-9.6-7.6-12.9Z" transform="translate(-30.09 -29.96)"/>
      </g>
    </g>
  </g>
</svg>
