<svg xmlns="http://www.w3.org/2000/svg" viewBox="0 0 143.52 169.2">
  <defs>
    <style>
      .cls-1, .cls-11, .cls-12, .cls-13, .cls-14, .cls-15 {
        fill: none;
      }

      .cls-1 {
        stroke: #b9328a;
        stroke-width: 4px;
      }

      .cls-1, .cls-11, .cls-12, .cls-13, .cls-14 {
        stroke-miterlimit: 10;
      }

      .cls-2 {
        fill: #2f388e;
      }

      .cls-3 {
        fill: #abd8c8;
      }

      .cls-4 {
        fill: #b9328a;
      }

      .cls-5 {
        fill: #fcc347;
      }

      .cls-6 {
        fill: #363a77;
      }

      .cls-7 {
        fill: #b8358b;
      }

      .cls-8 {
        fill: #ba3188;
      }

      .cls-9 {
        fill: #b83189;
      }

      .cls-10 {
        fill: #a9d6c8;
      }

      .cls-11, .cls-13 {
        stroke: #2f388e;
      }

      .cls-11, .cls-12, .cls-14 {
        stroke-width: 2px;
      }

      .cls-12 {
        stroke: #a9d6c8;
      }

      .cls-13 {
        stroke-width: 2.5px;
      }

      .cls-14 {
        stroke: #2c378d;
      }

      .cls-16 {
        fill: #2c378d;
      }
    </style>
  </defs>
  <title>logo</title>
  <g id="Ebene_1" data-name="Ebene 1">
    <path class="cls-1" d="M135.11,108.88A60.36,60.36,0,1,1,74.75,48.52,60.39,60.39,0,0,1,135.11,108.88Z" transform="translate(-2.67 -2.04)"/>
    <path class="cls-2" d="M26.12,132.9l3.31,2.78a4.33,4.33,0,0,1,.54,6.08l-5.56,6.62a4.32,4.32,0,0,1-6.08.53L15,146.14a4.35,4.35,0,0,1-.54-6.09l1.11-1.32,3.31,2.77-1.14,1.37,3.31,2.77L26.69,139l-3.31-2.78-1.14,1.36-3.31-2.78L20,133.43a4.32,4.32,0,0,1,6.08-.53" transform="translate(-2.67 -2.04)"/>
    <polyline class="cls-2" points="15.79 125.25 0 118.22 1.76 114.27 13.64 119.56 15.4 115.61 11.41 113.84 13.16 109.89 21.06 113.4 15.79 125.25"/>
    <path class="cls-2" d="M23.46,97.78A4.33,4.33,0,0,1,20,102.84l-8.48,1.65a4.32,4.32,0,0,1-5.06-3.41L4.85,92.59,9,91.78l1.65,8.48,2.21-.43-1.23-6.36,4.15-.81L17.05,99l2.22-.43-1.65-8.48,4.19-.81,1.65,8.48" transform="translate(-2.67 -2.04)"/>
    <path class="cls-2" d="M31.43,78.1l-3.54-2.48-2.48,3.54L29,81.63l-2.48,3.54L15.86,77.74a4.33,4.33,0,0,1-1.06-6l2.47-3.54a4.34,4.34,0,0,1,6-1.06l10.62,7.44L31.43,78.1M20.77,70.63l-2.48,3.54,3.62,2.53,2.48-3.53Z" transform="translate(-2.67 -2.04)"/>
    <polyline class="cls-2" points="42.24 63.29 34.6 56.17 37.24 64.82 33.11 66.08 28.06 49.56 32.14 48.31 40.48 56.05 37.61 46.64 41.74 45.38 46.79 61.9 42.24 63.29"/>
    <path class="cls-2" d="M127.62,98.63l4.68-1.69.37-2.08-4.25-.75.75-4.25,17,3-1.5,8.51a4.32,4.32,0,0,1-5,3.5l-4.25-.75a4.23,4.23,0,0,1-3.19-2.53l-5.48,1.93.86-4.89m12.86,2,.75-4.26-4.35-.77-.75,4.26Z" transform="translate(-2.67 -2.04)"/>
    <path class="cls-2" d="M119.48,136.86l6.21-6,12,12.43-6.22,6a4.33,4.33,0,0,1-6.11-.11l-6-6.21a4.33,4.33,0,0,1,.11-6.11m9,9.35,3.1-3-6.07-6.28-3.1,3Z" transform="translate(-2.67 -2.04)"/>
    <polyline class="cls-2" points="123.76 113.62 140.46 109.15 141.57 113.32 129.01 116.69 130.13 120.86 134.35 119.73 135.46 123.9 127.12 126.14 123.76 113.62"/>
    <path class="cls-2" d="M111.25,68.45l-7.84-3.66a4.32,4.32,0,0,1-2.08-5.74l5.47-11.74,3.92,1.82-5.5,11.79,2,.93L110.87,54l3.87,1.81-3.67,7.87,2,.92,5.5-11.79,3.91,1.83L117,66.36a4.34,4.34,0,0,1-5.74,2.09" transform="translate(-2.67 -2.04)"/>
    <path class="cls-2" d="M123,82.07l-2.78-3.31a4.33,4.33,0,0,1,.53-6.09l6.62-5.55a4.33,4.33,0,0,1,6.09.53L136.22,71a4.33,4.33,0,0,1-.53,6.09l-6.62,5.55a4.32,4.32,0,0,1-6.08-.53m10-8.36-2.78-3.31L123.48,76l2.78,3.3Z" transform="translate(-2.67 -2.04)"/>
  </g>
  <g id="Ebene_8" data-name="Ebene 8">
    <ellipse class="cls-3" cx="72.31" cy="107.11" rx="45.69" ry="45.09"/>
    <path class="cls-4" d="M73.42,34s-2-3.12-3-3.14c-.75,0-1.06.74-1.24,1.33a13.31,13.31,0,0,0-.46,2.8,11.56,11.56,0,0,0,0,1.86c0,.06,0,.42.12.44S71.37,36.72,73.42,34Z" transform="translate(-2.67 -2.04)"/>
    <path class="cls-4" d="M74.17,34s3.62-2.12,4.66-.82S76,38.83,75.58,38.87,73.5,35.65,74.17,34Z" transform="translate(-2.67 -2.04)"/>
  </g>
  <g id="Ebene_3" data-name="Ebene 3">
    <path class="cls-5" d="M76.45,7.37A4.07,4.07,0,0,0,76,9.14c0,.73-1.22,2.37-1,4s1.48,5.11-.14,5.19-7.5-2.54-8.29,1,0,4.25,1,4.67,7.12-.5,8-2.3-3.08,3.46-2.71,4.25.42,7.56,5.92,3.75,5.37-5.25,5.37-5.25a7.7,7.7,0,0,0-.46-2.16c-.25-.17,1.71,1.71,2.8,1.46s2.12-1.38,2-1.8-2-1.33-2.12-1.37,1.25,0,1.87-.75,1.63-2,1.09-2.79-.52-1.21.15-1.84A1.92,1.92,0,0,0,89,12.58c-.67-.46.08-.79.21-1.87s.54-1.38-.88-1.59S87,8.46,86.92,7.37s.45-1.33-1-.91S83.5,7,84,5.71,85.21,3.37,83.75,4s-2.46,1.5-2.88.75-2-.92-2.2-.34.39.38-.73-.12-2.31-.33-1.86.58.42,1.34.63,1.71S76.45,7.37,76.45,7.37Z" transform="translate(-2.67 -2.04)"/>
  </g>
  <g id="Ebene_14" data-name="Ebene 14">
    <path class="cls-5" d="M119.2,108.5l.63-.34s-.09-6.41-.63-7.16-.53-10.59-11-21.67l-4.54-.74L99,79.5l-2.25-1.79-5.33.83-1,.79-3.17,4.28L83.33,86v2.62L85.1,88l2.4.93,2.92-5.68,1.87,1.29.5,3-3,5L84,92,81.23,95.5l-2.56,5.41-3.92,1.22.23,1.53h2.77l3.48-3.33,10.1-.17,4.5,2.59-.58-3.66h5.08l4.42,1.91-1.67,3.94-5.94-.77.94,1.58,3.25,1.19-.75,3.14,3.59,2.75,2.16,6.86,7.25-6.86-2.66-4,.44-1Zm-9.94-2.85-2.51-6.56.92-.39,2.33,2.7.67,3.54Z" transform="translate(-2.67 -2.04)"/>
    <polyline class="cls-5" points="84.21 109.15 82.15 106.84 72.5 105.83 67.78 109.24 65.62 114.27 67.5 118.2 74 121.7 80.29 127.1 83.26 136.06 84.21 145.2 86.28 145.05 99.2 133.49 102.06 125.64 107.22 121.65 107.22 120.7 102.65 118.87 98.75 116.79 96.25 109.15 89.56 107.79 84.21 109.15"/>
    <path class="cls-5" d="M113.29,132.25l-1.87-1-5.09,5.41.34,4,3.14-2.73s2.42-3.75,2.61-3.82A10.29,10.29,0,0,0,113.29,132.25Z" transform="translate(-2.67 -2.04)"/>
    <path class="cls-5" d="M33.5,125.58l5.75.83H46l4.5,3.34,1.33,4.16,2.5,2.38v7.21l.92,5.08s-4-1.33-5.33-2.58-7.37-3.75-8.27-6-5.57-7.17-6.15-8.75a50.37,50.37,0,0,0-2.81-5C32.49,125.76,33.5,125.58,33.5,125.58Z" transform="translate(-2.67 -2.04)"/>
    <path class="cls-5" d="M49.46,72.84l3.14,3.72-3,4.78L38.39,88.72,32,96.41,33.21,92s2.41-4.59,2.5-4.71l3-4.58,2.87-3.59L44,76.58l5-4Z" transform="translate(-2.67 -2.04)"/>
  </g>
  <g id="Ebene_2" data-name="Ebene 2">
    <path class="cls-6" d="M77.5,7.5s-3.32-.2-1.41-5.27c.16-.43.88.4,1,.54a5.93,5.93,0,0,1,1,1c.27.39.38.17.57-.1A7.88,7.88,0,0,1,80.49,2a5,5,0,0,1,1,2c.06.47,3-1.07,3.29-1.07s.94.62.33,2.54c0,0,2.95-.45,3.39.78s-1.37,1.58-.46,1.9,3.42.87,2.55,2.06-1.34,1.27-.86,1.85,2.85,2.11,0,3.9c0,0,1.15,1,.73,1.89s-2,2.17-1.58,2.73a2.44,2.44,0,0,1,.54,1.57,2.37,2.37,0,0,1-.76,1.43,5.27,5.27,0,0,1-.63.52,2.23,2.23,0,0,1-.71.46c-.69.21-1.41-.21-2.11,0-.25.1-.52.54-.67.74-.46.57-.91,1.15-1.39,1.71S82,28.36,81.4,29a6.19,6.19,0,0,1-7.58,1.78,3.6,3.6,0,0,1-1.16-.88,4.18,4.18,0,0,1-.83-3.33c0-.36.09-.72.16-1.07a1.51,1.51,0,0,0,.1-.42s0-.27-.85.09-3.87.55-5.37-.84A4,4,0,0,1,64.47,21a5.27,5.27,0,0,1,.43-1.6,4.94,4.94,0,0,1,5.78-2.78c3.17.75,3.27.73,3.27.73s-.47-4,1.78-4.73a1.93,1.93,0,0,1,2.73,1.26,4.72,4.72,0,0,1,0,1.5,5.82,5.82,0,0,1-1.33,3,2.24,2.24,0,0,1-1.2.79,3.57,3.57,0,0,1-1.59-.07,20.44,20.44,0,0,1-3.28-.82,4.9,4.9,0,0,0-1.76-.4,3.59,3.59,0,0,0-1.91.75,3.89,3.89,0,0,0-1.16,3.3,3.34,3.34,0,0,0,.28,1c.55,1.06,2,1,3,1A6.2,6.2,0,0,0,72,23.25,14,14,0,0,0,74.11,22l.86-.6c.41-.27.71-.63,1.24-.45a1,1,0,0,1,.49.32c.08.15.11.64,0,.75-.41.32-.81.65-1.18,1a6.21,6.21,0,0,0-1.65,1.89,4.29,4.29,0,0,0,0,2.65,2.71,2.71,0,0,0,1.82,1.81,4.6,4.6,0,0,0,4.23-1.25A23.54,23.54,0,0,0,83.42,24a1.18,1.18,0,0,0-.52-1.31c-.65-.5.52-1.46,1.16-1.09s1.73,2.19,2.59,1.31.58-1.58-.13-1.6-2-.15-1.62-1.21,1.64-.85,2.29-.52,1.12-1,.81-1.6-1.77-2.23-.85-2.69,3.54-1.19,2-2-2.57-.37-2.61-.6-.18-.4.34-.73a11.16,11.16,0,0,0,1.39-1.27s.67-.94-.83-.94H85.23a1,1,0,0,1,.27-1.46c.85-.75.31-1.21-.4-.79a17.84,17.84,0,0,1-1.75.87s-1.45.25-1-1A4.47,4.47,0,0,1,83,6.21c.15-.19.87-.76.64-1.07s-1.69.79-1.89,1a1.35,1.35,0,0,0-.3.42c-.09.25,0,.57-.25.74s-.45,0-.61-.19c-.52-.64-.23-2-.23-2s-.23-.85-.73,0-.56,2.19-.93,2a7.48,7.48,0,0,1-1.21-1.83s-.5-.42-.63.48.69,1.18.8,1.33A.26.26,0,0,1,77.5,7.5Z" transform="translate(-2.67 -2.04)"/>
  </g>
  <g id="Ebene_4" data-name="Ebene 4">
    <path class="cls-7" d="M76.54,9.1a2.06,2.06,0,0,0-1.5.29C74.5,9.83,72.58,12,72.58,12s-.68,1.64,1.11,1c0,0,2.18-2.77,3.16-2s1.4.31,1.23-.17S76.94,9.12,76.54,9.1Z" transform="translate(-2.67 -2.04)"/>
    <path class="cls-7" d="M82.31,10.85s-1.89,1.29-1.23,1.92,2.19-.27,2.48-.67a.51.51,0,0,1,.79,0c0,.09.86.55.9-.18s-1-2.25-2.15-1.51S82.31,10.85,82.31,10.85Z" transform="translate(-2.67 -2.04)"/>
  </g>
  <g id="Ebene_5" data-name="Ebene 5">
    <path class="cls-6" d="M81.76,13.91a4.21,4.21,0,0,0-1,.6,5,5,0,0,0-1.31,1.39A3.12,3.12,0,0,0,79,17c-.31,2,.33,3.18,1.37,3.31s2.53-.58,3.69-3.58A2.23,2.23,0,0,0,84,14.46a2.43,2.43,0,0,0-1.45-.7A2,2,0,0,0,81.76,13.91Z" transform="translate(-2.67 -2.04)"/>
  </g>
  <g id="Ebene_7" data-name="Ebene 7">
    <path class="cls-8" d="M49.21,86s-4.2.54-.51,1.16S67.64,89.53,69.23,89s-3-1.29-4.06-1.47C63.43,87.24,56.07,85.62,49.21,86Z" transform="translate(-2.67 -2.04)"/>
    <path class="cls-9" d="M65.25,31.3c-.12,0-4.29,2-4.29,2s-1.88,2-2,2.08-1.58,4.36-1.58,4.36.83,3.6.87,3.73,1.75,2.12,1.88,2.25,3,1.61,3.16,1.6a20.9,20.9,0,0,1,2.3.52,25.3,25.3,0,0,0,4,.69c.12-.15,5.08,0,5.08,0s3.25-.86,3.46-.86,3.54-1.66,3.71-1.79,2.41-1.66,2.58-1.79,2.75-4.16,2.75-4.16L88,37.25l-.62-2s-1.5-1.38-1.63-1.42-1,.75-1,.75-1.16,2.29-1.29,2.37-1.5,2.17-1.62,2.25S78.67,41,78.67,41,76.13,42,76,42s-3.37.7-3.37.7-3.65-.41-3.91-.45-3.26-1.71-3.26-1.71l-1.29-2.42s0-2,0-2.25.66-3,.66-3l1-1.21Z" transform="translate(-2.67 -2.04)"/>
  </g>
  <g id="Ebene_6" data-name="Ebene 6">
    <path class="cls-10" d="M77.06,13.65a1.34,1.34,0,0,0-1.1,0A2.46,2.46,0,0,0,74.79,16s.17.44.63,0,.68-1.09,1.22-.7,1,.28,1-.25A2.08,2.08,0,0,0,77.06,13.65Z" transform="translate(-2.67 -2.04)"/>
    <path class="cls-10" d="M82.39,15a1.32,1.32,0,0,0-1.09,0,2.43,2.43,0,0,0-1.18,2.39s.18.44.63,0,.69-1.09,1.22-.7,1,.28,1-.25A2,2,0,0,0,82.39,15Z" transform="translate(-2.67 -2.04)"/>
    <path class="cls-11" d="M66.42,30.53s-9.51,1.62-9.5,9.55c0,0-.37,6.88,9.25,8.44s16.7-1.65,19.25-4.86,5.22-8-.34-10.54c0,0-1.1,6-10.33,8.17-3.23.76-5.75.48-7.48-.49C64.08,39,63.62,34.82,66.42,30.53Z" transform="translate(-2.67 -2.04)"/>
    <path class="cls-12" d="M49.21,86" transform="translate(-2.67 -2.04)"/>
    <polyline class="cls-11" points="46.79 70.2 50.67 74.62 46.79 79.87 36.08 87.25 28.21 96.3"/>
    <polyline class="cls-11" points="106.09 76.74 101.33 76.5 96.46 77.12 93.92 75.08 87.79 76.29 84.42 80.79 80.21 83.87 80.17 87.37 83.17 86.41 85.52 87.58 88.25 81.6 89.63 82.5 90.13 85.46 87 90.66 81.46 89.37 77.63 93.33 75.58 98.75 71.42 99.75 72.14 102.5 75.67 102.25 78.88 99 88.71 98.62 92.67 101.12 92 103.58 93.13 101.12 99.83 102.83 101.34 99.36 97.96 97.41 93.13 97.62 95.08 104.16 98.38 105.62 97 108.75 96.71 109.41 99.21 116.62 103.42 119.37 103.79 119.37 101.04 111.04 97.71 109.15 89.67 107.41 84.21 109.15 81.92 106.58 72.5 105.83 67.38 109.54 65.5 114.58 67.31 118.97 74.67 121.97 80.29 127.1 83.33 136.27 83.63 145.62 86.25 145.62 100.38 132.39 102.06 125.64 108.44 120.7 104.04 119.39 111.96 110.35 108.81 106.63 108.86 106.26 117.17 106.84"/>
    <polyline class="cls-11" points="29.9 122.79 36.58 124.37 43.33 124.37 48.25 127.37 49.17 131.87 52.17 134.29 52.17 141.54 53.33 147.91"/>
    <polygon class="cls-11" points="103.48 96.97 105.41 96.07 107.79 99.35 108.69 103.43 106.82 104.11 103.48 96.97"/>
    <polygon class="cls-2" points="82.44 99.83 83.63 102.27 85.16 102.64 85.16 103.55 84 104.27 83.8 104.89 86.34 104.89 87.44 103.02 88.72 103.83 89.56 102.14 86.13 99.83 86 99.36 82.44 99.83"/>
    <ellipse class="cls-13" cx="72.31" cy="107.11" rx="45.69" ry="45.09"/>
    <polyline class="cls-14" points="111.66 130.05 108.75 128.58 103.67 134.62 103.67 139.91"/>
    <path class="cls-6" d="M77.8,25.45l0,0a.85.85,0,0,1-.83,0,1.38,1.38,0,0,1-.36-.92s-.27-.44-.5-.47a.79.79,0,0,0-.66.39,3,3,0,0,0,0,1.24c.25.7.76,1.62,1.61,1.59a4.19,4.19,0,0,0,2.86-1.5,9.6,9.6,0,0,0,1.69-2.13s.28-1.12-.58-.79A19.08,19.08,0,0,0,77.8,25.45Z" transform="translate(-2.67 -2.04)"/>
  </g>
  <g id="Ebene_13" data-name="Ebene 13">
    <path class="cls-4" d="M42.13,89.05a2.75,2.75,0,0,1,1.75,0c1.26.28,26.29,3.41,26.83,3.36A4.42,4.42,0,0,0,72.92,92a17.71,17.71,0,0,1,4.33-2c.88-.09,2.29.1,2.5.67A8.47,8.47,0,0,1,80.21,93c0,.62-.21,1.79-.5,1.91s-2-1.57-2-1.57-.42,2.82-.5,3-1.88-.92-2.23-1.21-.81,1.58-1.27,2-1.25.7-1.63.43a13.7,13.7,0,0,1-1.66-2c0-.13.58,1,.29,1.41s-1.79,1.59-2.33,1.42a6.81,6.81,0,0,1-2.13-1.58c-.29-.42-.54-.54-1.08-.17s-1.4,1.28-1.64,1-1.24-1.8-1.36-2-.21-.25-1,.16-2.5,1.13-3,.88a5.29,5.29,0,0,1-1.59-1.92,12.59,12.59,0,0,0-.75-1.32s.05-.43-.5.82-1.25,1.71-2,1.71-2.29-.29-2.45-.75-.42-1.31-.59-1.78-.08-.57-.75,0-.87.91-1.58,1.11a8.91,8.91,0,0,1-2.25.34c-.63,0-1.42.17-1.71-.17s-.17-.3-.12-.94.45-1.28.29-1.6a.88.88,0,0,0-1-.46c-.34.17-1,.54-1.34.71a8.22,8.22,0,0,1-1.45.33c-.21,0-1,.46-1.27.38s-.44-1.5-.44-1.5a6.42,6.42,0,0,1,.44-1.71A21.2,21.2,0,0,1,42.13,89.05Z" transform="translate(-2.67 -2.04)"/>
  </g>
  <g id="Ebene_11" data-name="Ebene 11">
    <g>
      <path class="cls-15" d="M78.6,90.15a7.29,7.29,0,0,0-3.93,1.26,6.71,6.71,0,0,1-3.82,1.44c-.6,0-27.35-3.75-27.35-3.75a3.13,3.13,0,0,0-1.83.23l-2.38,2.29s-1,1.6,1.56.5,2.57-1.84,3-1.72,1.66.1,1.35,1.25S44,94,45,94.06s2,.79,3.94-1.39,2-.55,2-.55.31,3.63,1.66,3.35,1.81-.47,2.15-1.32A3.75,3.75,0,0,0,55,92.29s1.37-.79,1.91.52.81,2.81,1.62,3,2.38-1,3-1.5,1,0,1.28.34S63.29,97,64,96.9s2.5-2.78,3-2.78.75.07.81.53-.84,1.09-.55,1.94,2.52,1.57,2.94.18c.34-1.16-1-2.3-1-2.3s-.32-1,.53-.82,1.72,2.79,2.56,3.25,1.13-.31,1.25-.53a2.53,2.53,0,0,0,.25-1.4c-.12-.32-.84-.82-.87-1s.12-.84.56-.64,2.72,2.54,3.25,2.57,0-3.59-.31-3.81.15-.75.53-.59,2.18,2.81,2.78,2.65S79.89,90.37,78.6,90.15Z" transform="translate(-2.67 -2.04)"/>
      <path class="cls-16" d="M80.51,90.55a3.14,3.14,0,0,0-3.66-1.45c-.56.09-2,1-3.12,1.45a7.4,7.4,0,0,1-4.29,1c-1.76,0-22.09-2.82-23.43-3s-3-.33-2.42-1.12a.46.46,0,0,1,.45-.14L68.71,90.5a5,5,0,0,0,2.67-.34c1.41-.58,3.6-1.66,3.6-1.66s1.81-.49-1.23-1S50.07,84.76,47.18,85c-2.37.19-1.59,0-3.22.91-.41.24-.88.38-1.28.62-.57.34-1.14.69-1.69,1.07A13.14,13.14,0,0,0,37.26,91a2.18,2.18,0,0,0-.44,2A1.9,1.9,0,0,0,39,94.11a5.71,5.71,0,0,0,1.41-.41,12.49,12.49,0,0,0,1.24-.53c.36-.2.83-.43,1.21-.14s-.13.44-.3.55a2.58,2.58,0,0,0-.71.86c-1.25,1.71.09,1.39,3.68,1.39s3.08-.44,3.46-1,.7-.21.7-.21c.87,2.29,1.75,2.29,3.6,2.35s1.93-.75,2.31-1.38.9.23.9.23c1.1,2.38,2.72,1.55,3.6,1.43s1.25-1.09,1.78-.91.73,1.28,1.18,1.72c.62.62,1.63-.28,2-.81s.75.31.75.31c.75,2,3.13,1.5,4.1,1.22S71,97.4,71.32,97.44s.57,1.28,1.6,1.37,2.25-2.72,2.47-3,1.4,1.69,1.87,1.66.59-3,.81-3,.63.81,1.19,1.31,1.47-1.94,1.47-1.94S82,92.62,80.51,90.55Zm-.81,3.57c-.6.16-2.41-2.5-2.78-2.65s-.82.37-.53.59.84,3.84.31,3.81-2.81-2.37-3.25-2.57-.6.42-.56.64.75.71.87,1a2.53,2.53,0,0,1-.25,1.4c-.12.22-.41,1-1.25.53s-1.72-3.09-2.56-3.25-.53.82-.53.82,1.38,1.14,1,2.3c-.42,1.39-2.65.67-2.94-.18s.62-1.47.55-1.94-.28-.53-.81-.53-2.34,2.72-3,2.78-.91-1.9-1.16-2.25-.62-.87-1.28-.34-2.22,1.69-3,1.5-1.07-1.62-1.62-3S55,92.29,55,92.29a3.75,3.75,0,0,1-.16,1.86c-.34.85-.81,1-2.15,1.32S51,92.12,51,92.12s-.06-1.62-2,.55S46.07,94.09,45,94.06s-.15-1.25.16-2.41-.91-1.12-1.35-1.25-.46.63-3,1.72-1.56-.5-1.56-.5l2.38-2.29a3.13,3.13,0,0,1,1.83-.23l.62.08,1.7.24,2.53.36,3.14.43L55,90.7q1.83.27,3.66.51l3.52.5c1.07.14,2.15.28,3.22.44.92.14,1.86.21,2.78.35a16.32,16.32,0,0,0,2.31.25,5,5,0,0,0,1.34,0,6.6,6.6,0,0,0,1.42-.48c.75-.34,1.36-.91,2.1-1.28.93-.45,2.14-1.09,3.21-.8S79.94,92,80,93C80,93.19,79.94,94.06,79.7,94.12Z" transform="translate(-2.67 -2.04)"/>
    </g>
    <path class="cls-4" d="M48.29,86c-.08,0-2.21.27-1.64.73s20.18,2.8,21.84,2.42-.13-.81-.13-.81S62.94,86.72,48.29,86Z" transform="translate(-2.67 -2.04)"/>
  </g>
  <g id="Ebene_12" data-name="Ebene 12">
    <path class="cls-4" d="M58,53.71s-3.92,3.37-2.79,8.08a18.51,18.51,0,0,0,4.58,9c1.29,1.16,6.21,5.87,9.88,6.37s.71,0,.71,0-4.13-4.24-4.13-9,1.92-6.59,1.92-6.59,7.46,9.71,22.29,16.17A12.94,12.94,0,0,0,93.75,69c.13-5.63-.08-16.71-8.62-18.21,0,0,.9,9.74-.55,9.58l-1.44-.15L69.67,52.81S58.37,69.58,59.42,53Z" transform="translate(-2.67 -2.04)"/>
    <path class="cls-2" d="M60.78,87.28c-.05.33-.54.33-.78.32s-1.27-.15-1.2-.64l7.48-46.32,2,.31S60.79,87.19,60.78,87.28Z" transform="translate(-2.67 -2.04)"/>
  </g>
  <g id="Ebene_10" data-name="Ebene 10">
    <path class="cls-11" d="M59.17,52.19s-.41,6.84,2.06,8.18,8.44-7.56,8.44-7.56,13.54,7.69,15.12,8.25c.88.4-.5-11.07-.5-11.07s9.81,1.2,10.13,17.32c0,0-.5,8.88-3.82,10.81,0,0-14.06-6-22.18-16.43,0,0-5.69,6.18,3,15.93,0,0-7.13.82-14.51-10.06C56.91,67.56,50.73,57.94,59.17,52.19Z" transform="translate(-2.67 -2.04)"/>
  </g>
</svg>
