<svg id="Ebene_1" data-name="Ebene 1" xmlns="http://www.w3.org/2000/svg" viewBox="0 0 72.86 88.7">
  <title>sparcles</title>
  <path d="M33.59,9.85H30.91a4.53,4.53,0,0,1-4.53-4.53V2.8A2.75,2.75,0,0,0,24,0a2.64,2.64,0,0,0-2.86,2.63V5.32a4.52,4.52,0,0,1-4.52,4.53H13.89a2.67,2.67,0,0,0-1.87.77,2.64,2.64,0,0,0-.77,2.08,2.76,2.76,0,0,0,2.8,2.44h2.52a4.52,4.52,0,0,1,4.52,4.52v2.68A2.65,2.65,0,0,0,23.74,25h0a2.64,2.64,0,0,0,1.87-.78,2.67,2.67,0,0,0,.77-1.87V19.66a4.52,4.52,0,0,1,4.53-4.52h2.68a2.65,2.65,0,0,0,2.64-2.65h0A2.64,2.64,0,0,0,33.59,9.85Z"/>
  <path d="M25,76.21a2.65,2.65,0,0,0-2.65-2.64H19.66A4.52,4.52,0,0,1,15.14,69V66.52a2.76,2.76,0,0,0-2.44-2.8,2.64,2.64,0,0,0-2.85,2.64V69a4.53,4.53,0,0,1-4.53,4.53H2.64a2.63,2.63,0,0,0-1.87.77A2.67,2.67,0,0,0,0,76.42,2.75,2.75,0,0,0,2.8,78.85H5.32a4.53,4.53,0,0,1,4.53,4.53v2.68a2.64,2.64,0,0,0,2.64,2.64h0a2.65,2.65,0,0,0,2.65-2.64V83.38a4.53,4.53,0,0,1,4.53-4.53h2.67A2.65,2.65,0,0,0,25,76.21Z"/>
  <path d="M72.86,48.72a5.11,5.11,0,0,0-5.11-5.1H62.58a8.75,8.75,0,0,1-8.75-8.75V30a5.32,5.32,0,0,0-4.7-5.4,5.1,5.1,0,0,0-5.51,5.09v5.17a8.75,8.75,0,0,1-8.75,8.75H29.7a5.1,5.1,0,0,0-5.09,5.51,5.32,5.32,0,0,0,5.4,4.7h4.86a8.75,8.75,0,0,1,8.75,8.75v5.17a5.11,5.11,0,0,0,5.1,5.11h0a5.12,5.12,0,0,0,5.11-5.11V62.58a8.75,8.75,0,0,1,8.75-8.75h5.17a5.12,5.12,0,0,0,5.11-5.11Z"/>
</svg>
