<svg id="Ebene_1" data-name="Ebene 1" xmlns="http://www.w3.org/2000/svg" xmlns:xlink="http://www.w3.org/1999/xlink" viewBox="0 0 638.08 447.85">
  <defs>
    <style>
      .cntct-1, .cntct-90 {
        opacity: 0.29;
      }

      .cntct-1, .cntct-4, .cntct-64, .cntct-68, .cntct-7, .cntct-85, .cntct-90 {
        isolation: isolate;
      }

      .cntct-1 {
        fill: url(#cntct-gradient);
      }

      .cntct-2 {
        fill: #fff;
      }

      .cntct-3 {
        fill: url(#cntct-gradient_2);
      }

      .cntct-4, .cntct-7, .cntct-9 {
        opacity: 0.8;
      }

      .cntct-4 {
        fill: url(#cntct-gradient_3);
      }

      .cntct-5 {
        fill: url(#cntct-gradient_4);
      }

      .cntct-6 {
        fill: url(#cntct-gradient_5);
      }

      .cntct-7 {
        fill: url(#cntct-gradient_6);
      }

      .cntct-8 {
        fill: url(#cntct-gradient_7);
      }

      .cntct-10 {
        fill: url(#cntct-gradient_8);
      }

      .cntct-11 {
        fill: url(#cntct-gradient_9);
      }

      .cntct-12 {
        fill: url(#cntct-gradient_10);
      }

      .cntct-13 {
        fill: url(#cntct-gradient_11);
      }

      .cntct-14 {
        fill: url(#cntct-gradient_12);
      }

      .cntct-15 {
        fill: url(#cntct-gradient_13);
      }

      .cntct-16 {
        fill: url(#cntct-gradient_14);
      }

      .cntct-17 {
        fill: url(#cntct-gradient_15);
      }

      .cntct-18 {
        fill: url(#cntct-gradient_16);
      }

      .cntct-19 {
        fill: url(#cntct-gradient_17);
      }

      .cntct-20 {
        fill: url(#cntct-gradient_18);
      }

      .cntct-21 {
        fill: url(#cntct-gradient_19);
      }

      .cntct-22 {
        fill: url(#cntct-gradient_20);
      }

      .cntct-23 {
        fill: url(#cntct-gradient_21);
      }

      .cntct-24 {
        fill: url(#cntct-gradient_22);
      }

      .cntct-25 {
        fill: url(#cntct-gradient_23);
      }

      .cntct-26 {
        fill: url(#cntct-gradient_24);
      }

      .cntct-27 {
        fill: url(#cntct-gradient_25);
      }

      .cntct-28 {
        fill: url(#cntct-gradient_26);
      }

      .cntct-29 {
        fill: url(#cntct-gradient_27);
      }

      .cntct-30 {
        fill: url(#cntct-gradient_28);
      }

      .cntct-31 {
        fill: url(#cntct-gradient_29);
      }

      .cntct-32 {
        fill: url(#cntct-gradient_30);
      }

      .cntct-33 {
        fill: url(#cntct-gradient_31);
      }

      .cntct-34 {
        fill: url(#cntct-gradient_32);
      }

      .cntct-35 {
        fill: url(#cntct-gradient_33);
      }

      .cntct-36 {
        fill: url(#cntct-gradient_34);
      }

      .cntct-37 {
        fill: url(#cntct-gradient_35);
      }

      .cntct-38 {
        fill: url(#cntct-gradient_36);
      }

      .cntct-39 {
        fill: url(#cntct-gradient_37);
      }

      .cntct-40 {
        fill: url(#cntct-gradient_38);
      }

      .cntct-41 {
        fill: url(#cntct-gradient_39);
      }

      .cntct-42 {
        fill: url(#cntct-gradient_40);
      }

      .cntct-43 {
        fill: url(#cntct-gradient_41);
      }

      .cntct-44 {
        fill: url(#cntct-gradient_42);
      }

      .cntct-45 {
        fill: url(#cntct-gradient_43);
      }

      .cntct-46 {
        fill: url(#cntct-gradient_44);
      }

      .cntct-47 {
        fill: url(#cntct-gradient_45);
      }

      .cntct-48 {
        fill: url(#cntct-gradient_46);
      }

      .cntct-49 {
        fill: url(#cntct-gradient_47);
      }

      .cntct-50 {
        fill: url(#cntct-gradient_48);
      }

      .cntct-51 {
        fill: url(#cntct-gradient_49);
      }

      .cntct-52 {
        fill: url(#cntct-gradient_50);
      }

      .cntct-53 {
        fill: url(#cntct-gradient_51);
      }

      .cntct-54 {
        fill: url(#cntct-gradient_52);
      }

      .cntct-55 {
        fill: url(#cntct-gradient_53);
      }

      .cntct-56 {
        fill: url(#cntct-gradient_54);
      }

      .cntct-57 {
        fill: url(#cntct-gradient_55);
      }

      .cntct-58 {
        fill: url(#cntct-gradient_56);
      }

      .cntct-59 {
        fill: url(#cntct-gradient_57);
      }

      .cntct-60 {
        fill: url(#cntct-gradient_58);
      }

      .cntct-61 {
        fill: url(#cntct-gradient_59);
      }

      .cntct-62 {
        fill: #e992ec;
      }

      .cntct-63 {
        fill: url(#cntct-gradient_60);
      }

      .cntct-64, .cntct-68 {
        opacity: 0.31;
      }

      .cntct-64 {
        fill: url(#cntct-gradient_61);
      }

      .cntct-65 {
        fill: url(#cntct-gradient_62);
      }

      .cntct-66 {
        fill: url(#cntct-gradient_63);
      }

      .cntct-67 {
        fill: url(#cntct-gradient_64);
      }

      .cntct-68 {
        fill: url(#cntct-gradient_65);
      }

      .cntct-69 {
        fill: url(#cntct-gradient_66);
      }

      .cntct-70 {
        fill: url(#cntct-gradient_67);
      }

      .cntct-71 {
        fill: url(#cntct-gradient_68);
      }

      .cntct-72 {
        fill: url(#cntct-gradient_69);
      }

      .cntct-73 {
        fill: url(#cntct-gradient_70);
      }

      .cntct-74 {
        fill: url(#cntct-gradient_71);
      }

      .cntct-75 {
        fill: url(#cntct-gradient_72);
      }

      .cntct-76 {
        fill: url(#cntct-gradient_73);
      }

      .cntct-77 {
        fill: url(#cntct-gradient_74);
      }

      .cntct-78 {
        fill: url(#cntct-gradient_75);
      }

      .cntct-79 {
        fill: url(#cntct-gradient_76);
      }

      .cntct-80 {
        fill: url(#cntct-gradient_77);
      }

      .cntct-81 {
        fill: url(#cntct-gradient_78);
      }

      .cntct-82 {
        fill: url(#cntct-gradient_79);
      }

      .cntct-83 {
        fill: url(#cntct-gradient_80);
      }

      .cntct-84 {
        fill: url(#cntct-gradient_81);
      }

      .cntct-85 {
        opacity: 0.37;
        fill: url(#cntct-gradient_82);
      }

      .cntct-86 {
        fill: url(#cntct-gradient_83);
      }

      .cntct-87 {
        fill: url(#cntct-gradient_84);
      }

      .cntct-88 {
        fill: #3844a1;
      }

      .cntct-89 {
        fill: #e62e2e;
      }

      .cntct-90 {
        fill: url(#cntct-gradient_85);
      }

      .cntct-91 {
        fill: url(#cntct-gradient_86);
      }

      .cntct-92 {
        fill: url(#cntct-gradient_87);
      }
    </style>
    <linearGradient id="cntct-gradient" data-name="Unbenannter Verlauf" x1="493.61" y1="822.16" x2="525.98" y2="804.02" gradientTransform="translate(0 -788)" gradientUnits="userSpaceOnUse">
      <stop offset="0" stop-color="#b37cff"/>
      <stop offset="1" stop-color="#f895e7"/>
    </linearGradient>
    <linearGradient id="cntct-gradient_2" data-name="Unbenannter Verlauf 2" x1="301.3" y1="-330.64" x2="301.3" y2="-330.55" gradientTransform="matrix(1, 0, 0, -1, 0, 53.89)" gradientUnits="userSpaceOnUse">
      <stop offset="0" stop-color="#9cfffb"/>
      <stop offset="1" stop-color="#9bfffa"/>
    </linearGradient>
    <linearGradient id="cntct-gradient_3" data-name="Unbenannter Verlauf 3" x1="475.14" y1="-330.74" x2="475.14" y2="-212.51" gradientTransform="matrix(1, 0, 0, -1, 0, 53.89)" gradientUnits="userSpaceOnUse">
      <stop offset="0" stop-color="#53d8ff"/>
      <stop offset="1" stop-color="#3840f7"/>
    </linearGradient>
    <linearGradient id="cntct-gradient_4" data-name="Unbenannter Verlauf 4" x1="553.7" y1="-212.74" x2="553.7" y2="-212.46" xlink:href="#cntct-gradient_3"/>
    <linearGradient id="cntct-gradient_5" data-name="Unbenannter Verlauf 5" x1="547.1" y1="-214.42" x2="547.1" y2="-214.77" xlink:href="#cntct-gradient_3"/>
    <linearGradient id="cntct-gradient_6" data-name="Unbenannter Verlauf 6" x1="126.65" y1="-232.3" x2="211.85" y2="-390.3" gradientTransform="matrix(1, 0, 0, -1, 0, 53.89)" gradientUnits="userSpaceOnUse">
      <stop offset="0" stop-color="#52f0c0"/>
      <stop offset="0.99" stop-color="#9f71fb"/>
    </linearGradient>
    <linearGradient id="cntct-gradient_7" data-name="Unbenannter Verlauf 7" x1="304.41" y1="-327.71" x2="307.87" y2="-334.11" xlink:href="#cntct-gradient_6"/>
    <linearGradient id="cntct-gradient_8" data-name="Unbenannter Verlauf 8" x1="492.57" y1="974.48" x2="492.57" y2="1064.19" gradientTransform="translate(0 -788)" gradientUnits="userSpaceOnUse">
      <stop offset="0" stop-color="#53eac9"/>
      <stop offset="1" stop-color="#45aed8"/>
    </linearGradient>
    <linearGradient id="cntct-gradient_9" data-name="Unbenannter Verlauf 9" x1="202.59" y1="1628.9" x2="202.59" y2="1695.1" gradientTransform="translate(68.93 -1470.19) rotate(-10.03)" gradientUnits="userSpaceOnUse">
      <stop offset="0" stop-color="#5ab6ff"/>
      <stop offset="1" stop-color="#2f68e3"/>
    </linearGradient>
    <linearGradient id="cntct-gradient_10" data-name="Unbenannter Verlauf 10" x1="-7645.59" y1="2248.7" x2="-7645.59" y2="2314.9" gradientTransform="matrix(-0.58, -0.81, 0.81, -0.58, -5753.44, -4712.7)" xlink:href="#cntct-gradient_9"/>
    <linearGradient id="cntct-gradient_11" data-name="Unbenannter Verlauf 11" x1="-4633.91" y1="-5033.59" x2="-4633.91" y2="-4967.39" gradientTransform="translate(-5895.49 2325.66) rotate(114.16)" xlink:href="#cntct-gradient_9"/>
    <linearGradient id="cntct-gradient_12" data-name="Unbenannter Verlauf 12" x1="556.98" y1="923.93" x2="554.6" y2="1050.98" gradientTransform="translate(0 -788)" xlink:href="#cntct-gradient_9"/>
    <linearGradient id="cntct-gradient_13" data-name="Unbenannter Verlauf 13" x1="558.7" y1="921.95" x2="555.59" y2="1087.91" gradientTransform="translate(0 -788)" xlink:href="#cntct-gradient_9"/>
    <linearGradient id="cntct-gradient_14" data-name="Unbenannter Verlauf 14" x1="160.37" y1="1642.96" x2="160.37" y2="1709.15" xlink:href="#cntct-gradient_9"/>
    <linearGradient id="cntct-gradient_15" data-name="Unbenannter Verlauf 15" x1="-7640.01" y1="2204.47" x2="-7640.01" y2="2270.67" gradientTransform="matrix(-0.58, -0.81, 0.81, -0.58, -5753.44, -4712.7)" xlink:href="#cntct-gradient_9"/>
    <linearGradient id="cntct-gradient_16" data-name="Unbenannter Verlauf 16" x1="-4598.53" y1="-5006.49" x2="-4598.53" y2="-4940.29" gradientTransform="translate(-5895.49 2325.66) rotate(114.16)" xlink:href="#cntct-gradient_9"/>
    <linearGradient id="cntct-gradient_17" data-name="Unbenannter Verlauf 17" x1="517.77" y1="945.14" x2="515.38" y2="1072.19" gradientTransform="translate(0 -788)" xlink:href="#cntct-gradient_9"/>
    <linearGradient id="cntct-gradient_18" data-name="Unbenannter Verlauf 18" x1="519.47" y1="942.97" x2="516.35" y2="1109.02" gradientTransform="translate(0 -788)" xlink:href="#cntct-gradient_9"/>
    <linearGradient id="cntct-gradient_19" data-name="Unbenannter Verlauf 19" x1="446.04" y1="-36.04" x2="446.04" y2="-206.57" gradientTransform="matrix(1, 0, 0, -1, 0, 53.89)" xlink:href="#cntct-gradient_8"/>
    <linearGradient id="cntct-gradient_20" data-name="Unbenannter Verlauf 20" x1="312.1" y1="-262.96" x2="602.44" y2="-262.96" gradientTransform="matrix(1, 0, 0, -1, 0, 53.89)" gradientUnits="userSpaceOnUse">
      <stop offset="0" stop-color="#5de8c7"/>
      <stop offset="1" stop-color="#53eac9"/>
    </linearGradient>
    <linearGradient id="cntct-gradient_21" data-name="Unbenannter Verlauf 21" x1="365.8" y1="-160.01" x2="365.8" y2="-277.87" xlink:href="#cntct-gradient_3"/>
    <linearGradient id="cntct-gradient_22" data-name="Unbenannter Verlauf 22" x1="359" y1="1007.56" x2="228.12" y2="1017.01" gradientTransform="translate(0 -788)" gradientUnits="userSpaceOnUse">
      <stop offset="0" stop-color="#85ccff"/>
      <stop offset="0.38" stop-color="#8dabff"/>
      <stop offset="1" stop-color="#9a76ff"/>
    </linearGradient>
    <linearGradient id="cntct-gradient_23" data-name="Unbenannter Verlauf 23" x1="355.1" y1="1005.65" x2="263.03" y2="1012.3" gradientTransform="translate(0 -788.73)" xlink:href="#cntct-gradient_3"/>
    <linearGradient id="cntct-gradient_24" data-name="Unbenannter Verlauf 24" x1="-9404.92" y1="1020.96" x2="-9415.67" y2="800.09" gradientTransform="matrix(-1, 0, 0, 1, -9227.6, -788)" gradientUnits="userSpaceOnUse">
      <stop offset="0" stop-color="#9f5699"/>
      <stop offset="1" stop-color="#202278"/>
    </linearGradient>
    <linearGradient id="cntct-gradient_25" data-name="Unbenannter Verlauf 25" x1="-9431.75" y1="1141.98" x2="-9431.75" y2="882.35" xlink:href="#cntct-gradient_24"/>
    <linearGradient id="cntct-gradient_26" data-name="Unbenannter Verlauf 26" x1="-9384.69" y1="1139.03" x2="-9384.69" y2="1016.34" xlink:href="#cntct-gradient_24"/>
    <linearGradient id="cntct-gradient_27" data-name="Unbenannter Verlauf 27" x1="397.38" y1="1145.81" x2="392.61" y2="1134.98" gradientTransform="translate(0 -788)" gradientUnits="userSpaceOnUse">
      <stop offset="0" stop-color="#cb236d"/>
      <stop offset="1" stop-color="#4c246d"/>
    </linearGradient>
    <linearGradient id="cntct-gradient_28" data-name="Unbenannter Verlauf 28" x1="-653.78" y1="-3651.32" x2="-658.55" y2="-3662.16" gradientTransform="translate(-2551.09 2706.18) rotate(60.48)" xlink:href="#cntct-gradient_27"/>
    <linearGradient id="cntct-gradient_29" data-name="Unbenannter Verlauf 29" x1="426.91" y1="876.61" x2="430.13" y2="849.14" gradientTransform="translate(0 -788)" gradientUnits="userSpaceOnUse">
      <stop offset="0" stop-color="#f9b776"/>
      <stop offset="1" stop-color="#f47960"/>
    </linearGradient>
    <linearGradient id="cntct-gradient_30" data-name="Unbenannter Verlauf 30" x1="461.34" y1="900.67" x2="464.57" y2="873.19" xlink:href="#cntct-gradient_29"/>
    <linearGradient id="cntct-gradient_31" data-name="Unbenannter Verlauf 31" x1="327.58" y1="1176.93" x2="302.23" y2="1244.21" gradientTransform="translate(20.86 -978.61) rotate(-2.59)" gradientUnits="userSpaceOnUse">
      <stop offset="0" stop-color="#a737d5"/>
      <stop offset="1" stop-color="#ef497a"/>
    </linearGradient>
    <linearGradient id="cntct-gradient_32" data-name="Unbenannter Verlauf 32" x1="617.39" y1="-1042.06" x2="592.04" y2="-974.78" gradientTransform="translate(-586.41 890.71) rotate(24.04)" xlink:href="#cntct-gradient_31"/>
    <linearGradient id="cntct-gradient_33" data-name="Unbenannter Verlauf 33" x1="400.03" y1="879.11" x2="388.53" y2="921.01" gradientTransform="translate(0 -788)" gradientUnits="userSpaceOnUse">
      <stop offset="0" stop-color="#2c50ff"/>
      <stop offset="1" stop-color="#1a1b80"/>
    </linearGradient>
    <linearGradient id="cntct-gradient_34" data-name="Unbenannter Verlauf 34" x1="370.69" y1="875.94" x2="346.63" y2="932.72" xlink:href="#cntct-gradient_27"/>
    <linearGradient id="cntct-gradient_35" data-name="Unbenannter Verlauf 35" x1="379.92" y1="916.99" x2="378.48" y2="893.21" xlink:href="#cntct-gradient_29"/>
    <linearGradient id="cntct-gradient_36" data-name="Unbenannter Verlauf 36" x1="566.5" y1="378.39" x2="526.51" y2="504.35" gradientTransform="matrix(0.99, 0.11, -0.11, 0.99, -104.05, -323.83)" xlink:href="#cntct-gradient_33"/>
    <linearGradient id="cntct-gradient_37" data-name="Unbenannter Verlauf 37" x1="558.09" y1="376.27" x2="520.44" y2="494.87" gradientTransform="matrix(0.99, 0.11, -0.11, 0.99, -104.05, -323.83)" xlink:href="#cntct-gradient_33"/>
    <linearGradient id="cntct-gradient_38" data-name="Unbenannter Verlauf 38" x1="-7935.56" y1="2283.45" x2="-7927.32" y2="2243.32" gradientTransform="matrix(-0.96, 0.29, 0.27, 0.89, -7848.95, 384.72)" xlink:href="#cntct-gradient_29"/>
    <linearGradient id="cntct-gradient_39" data-name="Unbenannter Verlauf 39" x1="365.56" y1="873.12" x2="341.51" y2="929.9" xlink:href="#cntct-gradient_27"/>
    <linearGradient id="cntct-gradient_40" data-name="Unbenannter Verlauf 40" x1="375.5" y1="921.8" x2="401.9" y2="921.8" gradientTransform="translate(0 -788)" xlink:href="#cntct-gradient_9"/>
    <linearGradient id="cntct-gradient_41" data-name="Unbenannter Verlauf 41" x1="564.09" y1="1071.56" x2="541.83" y2="1037.13" xlink:href="#cntct-gradient"/>
    <linearGradient id="cntct-gradient_42" data-name="Unbenannter Verlauf 42" x1="596.37" y1="1096.02" x2="597.88" y2="1040.46" xlink:href="#cntct-gradient"/>
    <linearGradient id="cntct-gradient_43" data-name="Unbenannter Verlauf 43" x1="367.07" y1="685.94" x2="388.71" y2="608.78" gradientTransform="translate(-93.04 -510.77) rotate(3.43)" gradientUnits="userSpaceOnUse">
      <stop offset="0" stop-color="#2b3582"/>
      <stop offset="1" stop-color="#150e42"/>
    </linearGradient>
    <linearGradient id="cntct-gradient_44" data-name="Unbenannter Verlauf 44" x1="212.19" y1="1437.44" x2="212.92" y2="1401.13" gradientTransform="matrix(1, -0.06, 0.06, 1, 49.85, -1074.07)" xlink:href="#cntct-gradient_27"/>
    <linearGradient id="cntct-gradient_45" data-name="Unbenannter Verlauf 45" x1="72.12" y1="1446.26" x2="112.67" y2="1446.26" gradientTransform="matrix(1, -0.06, 0.06, 1, 49.85, -1074.07)" xlink:href="#cntct-gradient_27"/>
    <linearGradient id="cntct-gradient_46" data-name="Unbenannter Verlauf 46" x1="-2683.01" y1="-3706.13" x2="-2681.85" y2="-3716.02" gradientTransform="matrix(0.03, 1, -1.44, 0.05, -5033.72, 3124.77)" xlink:href="#cntct-gradient_29"/>
    <linearGradient id="cntct-gradient_47" data-name="Unbenannter Verlauf 47" x1="-2179.38" y1="-3553.7" x2="-2179.36" y2="-3553.87" gradientTransform="matrix(0.14, 0.99, -1.42, 0.21, -4530.62, 3172.47)" xlink:href="#cntct-gradient_29"/>
    <linearGradient id="cntct-gradient_48" data-name="Unbenannter Verlauf 48" x1="228" y1="981.87" x2="232.84" y2="940.68" gradientTransform="translate(-19.51 -718.99) rotate(0.73)" xlink:href="#cntct-gradient_29"/>
    <linearGradient id="cntct-gradient_49" data-name="Unbenannter Verlauf 49" x1="417.61" y1="-1535.15" x2="419.9" y2="-1638.34" gradientTransform="translate(-964.99 1395.1) rotate(31.16)" gradientUnits="userSpaceOnUse">
      <stop offset="0" stop-color="#fdf53f"/>
      <stop offset="1" stop-color="#d93c65"/>
    </linearGradient>
    <linearGradient id="cntct-gradient_50" data-name="Unbenannter Verlauf 50" x1="185.67" y1="1434.2" x2="167.79" y2="1372.69" gradientTransform="matrix(1, -0.06, 0.06, 1, 49.85, -1074.07)" xlink:href="#cntct-gradient_33"/>
    <linearGradient id="cntct-gradient_51" data-name="Unbenannter Verlauf 51" x1="-408.49" y1="2446.59" x2="-406.22" y2="2344.4" gradientTransform="matrix(0.95, -0.3, 0.3, 0.95, -43.8, -2142.58)" xlink:href="#cntct-gradient_49"/>
    <linearGradient id="cntct-gradient_52" data-name="Unbenannter Verlauf 52" x1="-1445.32" y1="3348.21" x2="-1450.03" y2="3324.91" gradientTransform="translate(-437.35 -3375.94) rotate(-34.39)" xlink:href="#cntct-gradient_29"/>
    <linearGradient id="cntct-gradient_53" data-name="Unbenannter Verlauf 53" x1="396.83" y1="691.03" x2="386.62" y2="640.57" gradientTransform="translate(-93.04 -510.77) rotate(3.43)" xlink:href="#cntct-gradient_29"/>
    <linearGradient id="cntct-gradient_54" data-name="Unbenannter Verlauf 54" x1="375.73" y1="683.39" x2="374.47" y2="598.64" gradientTransform="translate(-93.04 -510.77) rotate(3.43)" xlink:href="#cntct-gradient_29"/>
    <linearGradient id="cntct-gradient_55" data-name="Unbenannter Verlauf 55" x1="373.79" y1="687.82" x2="395.43" y2="610.66" xlink:href="#cntct-gradient_43"/>
    <linearGradient id="cntct-gradient_56" data-name="Unbenannter Verlauf 56" x1="109.89" y1="1435.9" x2="166.06" y2="1333.84" gradientTransform="matrix(1, -0.06, 0.06, 1, 49.85, -1074.07)" xlink:href="#cntct-gradient_33"/>
    <linearGradient id="cntct-gradient_57" data-name="Unbenannter Verlauf 57" x1="-1536.98" y1="2073.29" x2="-1534.09" y2="2048.73" gradientTransform="matrix(1.42, -0.34, 0.23, 0.97, 1942.35, -2272.32)" xlink:href="#cntct-gradient_29"/>
    <linearGradient id="cntct-gradient_58" data-name="Unbenannter Verlauf 58" x1="-286.7" y1="2235.69" x2="-284.41" y2="2132.65" gradientTransform="translate(-5.98 -1922.96) rotate(-14.95)" xlink:href="#cntct-gradient_49"/>
    <linearGradient id="cntct-gradient_59" data-name="Unbenannter Verlauf 59" x1="256.95" y1="1015.69" x2="288.1" y2="1015.69" gradientTransform="translate(0 -788)" gradientUnits="userSpaceOnUse">
      <stop offset="0" stop-color="#e78556"/>
      <stop offset="0.47" stop-color="#fdf53f"/>
    </linearGradient>
    <linearGradient id="cntct-gradient_60" data-name="Unbenannter Verlauf 60" x1="3858.26" y1="1075.41" x2="3833.32" y2="984" gradientTransform="matrix(-1, 0, 0, 1, 3948.71, -788)" xlink:href="#cntct-gradient_49"/>
    <linearGradient id="cntct-gradient_61" data-name="Unbenannter Verlauf 61" x1="56.96" y1="1060.68" x2="132.69" y2="1060.68" xlink:href="#cntct-gradient"/>
    <linearGradient id="cntct-gradient_62" data-name="Unbenannter Verlauf 62" x1="-472.18" y1="1179.4" x2="-462.33" y2="1160.63" gradientTransform="matrix(0.75, -0.66, 0.66, 0.75, -235.78, -1047.05)" xlink:href="#cntct-gradient_2"/>
    <linearGradient id="cntct-gradient_63" data-name="Unbenannter Verlauf 63" x1="-485.54" y1="1175.49" x2="-449.16" y2="1175.49" gradientTransform="matrix(0.75, -0.66, 0.66, 0.75, -235.81, -1047.77)" xlink:href="#cntct-gradient_3"/>
    <linearGradient id="cntct-gradient_64" data-name="Unbenannter Verlauf 64" x1="-478.31" y1="1167.84" x2="-467.13" y2="1167.84" gradientTransform="matrix(0.75, -0.66, 0.66, 0.75, -235.81, -1047.76)" xlink:href="#cntct-gradient_3"/>
    <linearGradient id="cntct-gradient_65" data-name="Unbenannter Verlauf 65" x1="157.55" y1="932.98" x2="202.88" y2="932.98" xlink:href="#cntct-gradient"/>
    <linearGradient id="cntct-gradient_66" data-name="Unbenannter Verlauf 66" x1="-224.04" y1="1420.17" x2="-224.07" y2="1425.71" gradientTransform="translate(-187.13 -1027) rotate(-23.24)" xlink:href="#cntct-gradient_49"/>
    <linearGradient id="cntct-gradient_67" data-name="Unbenannter Verlauf 67" x1="-5478.87" y1="1427.22" x2="-5436.87" y2="1487.83" gradientTransform="matrix(-0.92, 0.39, 0.39, 0.92, -5417.15, 1220.26)" gradientUnits="userSpaceOnUse">
      <stop offset="0" stop-color="#50e7b7"/>
      <stop offset="1" stop-color="#323992"/>
    </linearGradient>
    <linearGradient id="cntct-gradient_68" data-name="Unbenannter Verlauf 68" x1="-222.25" y1="1411.59" x2="-227.28" y2="1430.37" gradientTransform="translate(-187.16 -1026.26) rotate(-23.24)" xlink:href="#cntct-gradient_49"/>
    <linearGradient id="cntct-gradient_69" data-name="Unbenannter Verlauf 69" x1="-207.72" y1="1415.13" x2="-226.42" y2="1419.55" gradientTransform="translate(-187.16 -1026.26) rotate(-23.24)" xlink:href="#cntct-gradient_67"/>
    <linearGradient id="cntct-gradient_70" data-name="Unbenannter Verlauf 70" x1="-200.63" y1="1406.42" x2="-223.08" y2="1406.26" gradientTransform="translate(-187.16 -1026.26) rotate(-23.24)" xlink:href="#cntct-gradient_49"/>
    <linearGradient id="cntct-gradient_71" data-name="Unbenannter Verlauf 71" x1="-214.16" y1="1415.82" x2="-233.56" y2="1394.81" gradientTransform="translate(-187.16 -1026.26) rotate(-23.24)" xlink:href="#cntct-gradient_49"/>
    <linearGradient id="cntct-gradient_72" data-name="Unbenannter Verlauf 72" x1="-223.12" y1="1414.68" x2="-235.62" y2="1400.08" gradientTransform="translate(-187.16 -1026.26) rotate(-23.24)" xlink:href="#cntct-gradient_49"/>
    <linearGradient id="cntct-gradient_73" data-name="Unbenannter Verlauf 73" x1="-228.5" y1="1416.85" x2="-228.54" y2="1425.77" gradientTransform="translate(-187.15 -1026.26) rotate(-23.24)" xlink:href="#cntct-gradient_49"/>
    <linearGradient id="cntct-gradient_74" data-name="Unbenannter Verlauf 74" x1="-227.17" y1="1416.85" x2="-227.22" y2="1425.77" gradientTransform="translate(-187.14 -1026.26) rotate(-23.24)" xlink:href="#cntct-gradient_49"/>
    <linearGradient id="cntct-gradient_75" data-name="Unbenannter Verlauf 75" x1="-225.87" y1="1416.85" x2="-225.92" y2="1425.77" gradientTransform="translate(-187.14 -1026.26) rotate(-23.24)" xlink:href="#cntct-gradient_49"/>
    <linearGradient id="cntct-gradient_76" data-name="Unbenannter Verlauf 76" x1="-224.65" y1="1416.85" x2="-224.69" y2="1425.77" gradientTransform="translate(-187.15 -1026.26) rotate(-23.24)" xlink:href="#cntct-gradient_49"/>
    <linearGradient id="cntct-gradient_77" data-name="Unbenannter Verlauf 77" x1="-223.36" y1="1416.85" x2="-223.41" y2="1425.77" gradientTransform="translate(-187.14 -1026.26) rotate(-23.24)" xlink:href="#cntct-gradient_49"/>
    <linearGradient id="cntct-gradient_78" data-name="Unbenannter Verlauf 78" x1="-222.07" y1="1416.85" x2="-222.11" y2="1425.77" gradientTransform="translate(-187.14 -1026.26) rotate(-23.24)" xlink:href="#cntct-gradient_49"/>
    <linearGradient id="cntct-gradient_79" data-name="Unbenannter Verlauf 79" x1="-220.85" y1="1416.85" x2="-220.9" y2="1425.77" gradientTransform="translate(-187.15 -1026.27) rotate(-23.24)" xlink:href="#cntct-gradient_49"/>
    <linearGradient id="cntct-gradient_80" data-name="Unbenannter Verlauf 80" x1="-219.56" y1="1416.85" x2="-219.61" y2="1425.77" gradientTransform="translate(-187.14 -1026.27) rotate(-23.24)" xlink:href="#cntct-gradient_49"/>
    <linearGradient id="cntct-gradient_81" data-name="Unbenannter Verlauf 81" x1="-222.6" y1="1443.81" x2="-222.85" y2="1492.5" gradientTransform="translate(-187.16 -1026.26) rotate(-23.24)" xlink:href="#cntct-gradient_67"/>
    <linearGradient id="cntct-gradient_82" data-name="Unbenannter Verlauf 82" x1="123.36" y1="1168.39" x2="232.86" y2="1168.39" xlink:href="#cntct-gradient"/>
    <linearGradient id="cntct-gradient_83" data-name="Unbenannter Verlauf 83" x1="457.94" y1="1066.47" x2="418.08" y2="1066.47" gradientTransform="translate(0 -788)" xlink:href="#cntct-gradient_49"/>
    <linearGradient id="cntct-gradient_84" data-name="Unbenannter Verlauf 84" x1="431.66" y1="1041.74" x2="461.98" y2="1101.24" gradientTransform="translate(0 -788)" xlink:href="#cntct-gradient_49"/>
    <linearGradient id="cntct-gradient_85" data-name="Unbenannter Verlauf 85" x1="450.03" y1="1066.73" x2="490.5" y2="1044.04" xlink:href="#cntct-gradient"/>
    <linearGradient id="cntct-gradient_86" data-name="Unbenannter Verlauf 86" x1="469.13" y1="814.01" x2="496.04" y2="814.01" gradientTransform="translate(0 -788)" xlink:href="#cntct-gradient_43"/>
    <linearGradient id="cntct-gradient_87" data-name="Unbenannter Verlauf 87" x1="481.34" y1="829.88" x2="498.18" y2="829.88" gradientTransform="translate(0 -788)" xlink:href="#cntct-gradient_43"/>
  </defs>
  <title>contact</title>
  <g>
    <path class="cntct-1" d="M517.6,12c-5.5-6.4-13.6-11-22-10.7a33.69,33.69,0,0,0-35.9,17.3,33.72,33.72,0,0,0-4.9,9.4c-3,9.3-2,20.2,3.3,28.5a34.94,34.94,0,0,0,24.1,15.3A33.63,33.63,0,0,0,499.4,70a36.2,36.2,0,0,0,23.1-17.3C529.8,39.6,527.1,23.1,517.6,12Z" transform="translate(0 -0.73)"/>
    <path class="cntct-2" d="M499.8,6.8h0c-1.3-.2-2.5-.3-3.6-.4a.44.44,0,0,1-.6-.4.44.44,0,0,1,.4-.6h.3c1.2.1,2.4.2,3.6.4a.56.56,0,0,1,.5.6A.72.72,0,0,1,499.8,6.8Z" transform="translate(0 -0.73)"/>
    <path class="cntct-2" d="M484.9,6.7a.46.46,0,0,1-.5-.4.68.68,0,0,1,.4-.6c1.5-.2,3-.3,4.5-.4a.47.47,0,0,1,.5.5h0a.47.47,0,0,1-.5.5h0c-1.5.1-2.9.2-4.4.4Z" transform="translate(0 -0.73)"/>
    <path class="cntct-2" d="M474.3,10.1a.55.55,0,0,1-.5-.3c-.1-.3-.1-.6.2-.7h0a28.75,28.75,0,0,1,4-1.8.54.54,0,1,1,.4,1h0c-1.3.5-2.6,1.1-3.8,1.7A.37.37,0,0,1,474.3,10.1Z" transform="translate(0 -0.73)"/>
    <path class="cntct-2" d="M458.8,40.3a.47.47,0,0,1-.5-.5,33.26,33.26,0,0,1,.3-6.3c.2-1,.4-2.1.6-3.1s.6-2.2,1-3.3a32.68,32.68,0,0,1,9.5-13.9.42.42,0,0,1,.7.1.43.43,0,0,1-.1.7,33.57,33.57,0,0,0-9.2,13.4c-.4,1.1-.7,2.2-1,3.3a15.94,15.94,0,0,0-.6,3,31.2,31.2,0,0,0-.3,6.1.4.4,0,0,1-.4.5Z" transform="translate(0 -0.73)"/>
    <path class="cntct-2" d="M460.8,49.5a.55.55,0,0,1-.5-.3,35.8,35.8,0,0,1-1.1-3.5.51.51,0,0,1,1-.2,31.9,31.9,0,0,0,1.1,3.3.52.52,0,0,1-.3.7Z" transform="translate(0 -0.73)"/>
    <path class="cntct-2" d="M466.4,58.5a.76.76,0,0,1-.4-.2,28.26,28.26,0,0,1-3.9-5.2.57.57,0,0,1,.2-.7.66.66,0,0,1,.7.2,25.89,25.89,0,0,0,3.7,5,.48.48,0,0,1,0,.7h0C466.7,58.5,466.6,58.5,466.4,58.5Z" transform="translate(0 -0.73)"/>
    <path class="cntct-2" d="M512.5,60.2a.47.47,0,0,1-.5-.5.76.76,0,0,1,.2-.4,29.49,29.49,0,0,0,2.5-2.5.49.49,0,0,1,.7.7h0a20.35,20.35,0,0,1-2.6,2.5C512.7,60.2,512.6,60.2,512.5,60.2Z" transform="translate(0 -0.73)"/>
    <path class="cntct-2" d="M517.7,54.3a.47.47,0,0,1-.5-.5.37.37,0,0,1,.1-.3,23.77,23.77,0,0,0,2.8-5.5.54.54,0,1,1,1,.4h0a26.22,26.22,0,0,1-2.9,5.8A4.33,4.33,0,0,1,517.7,54.3Z" transform="translate(0 -0.73)"/>
    <path class="cntct-2" d="M521.6,43.3h-.2a.52.52,0,0,1-.3-.7,29.26,29.26,0,0,0,.3-13.8,47.81,47.81,0,0,0-4.8-12,.51.51,0,0,1,.9-.5,48.64,48.64,0,0,1,4.9,12.3,28.87,28.87,0,0,1-.3,14.3A.51.51,0,0,1,521.6,43.3Z" transform="translate(0 -0.73)"/>
  </g>
  <path class="cntct-3" d="M302.8,384.5h-2.5a.75.75,0,0,1-.5-.1C300.8,384.4,301.8,384.4,302.8,384.5Z" transform="translate(0 -0.73)"/>
  <g>
    <path class="cntct-2" d="M637.8,306.2c-1.6-7.6-7.7-13-14.3-16.5a161.64,161.64,0,0,0-23.3-9.3c-1.5-.5-3-1-4.4-1.4-7-2.2-13.4-7.2-20.4-10.3a37.34,37.34,0,0,0-5.6-2h0c-1.5,0-3.1-.1-4.8-.1-1.3,0-2.6,0-3.9-.1H508c.9.3,3.1,1.1,6.3,2.3,11.7,4.2,35.7,12.8,49.1,17.4a.35.35,0,0,1,.2.1c.6.2,1.2.4,1.7.6a6.89,6.89,0,0,1,.8.3,18.88,18.88,0,0,1,1.8.6c.2.1.4.1.6.2s.4.1.5.2.3.1.5.2h.1c.2.1.3.1.5.2,1.2.4,2.1.7,2.5.8,8.2,2.1,17.3,5.9,26.2,10.3,5.3,2.6,4.6,6.7-1,8.8-6.7,2.5-22.5,4.1-40.8,5.4s-37.5,4-49.7,7.2c-9.7,2.6-23.9,5.9-19,13.3s22.3,11.8,27.7,18.9a2,2,0,0,1-.2,2.8l-.1.1c-7.3,6-81.9,7.9-91,8.7-8.7.8-17.4.4-26.1.3-11.5-.1-23,.3-34.4.3-17.3-.1-34.7.6-52.1,1.6v17.4c28.3.2,56.6-.5,84.8-1.7,21.1-.9,107.2-2,128.2-3.3a236.24,236.24,0,0,0,28.9-3.1c7-1.3,30.3-3.1,32-11.5,1.9-9.2-21.6-14.2-28.4-17-4.9-2.1-11-3.4-14.7-6.3s1.9-6.8,35.5-9c8.9-.6,17.8-1.4,26.7-2.7C632.9,324.8,639.3,313.5,637.8,306.2Z" transform="translate(0 -0.73)"/>
    <path class="cntct-4" d="M605.2,330c-8.9,1.3-17.8,2.1-26.7,2.7-33.6,2.2-39.1,6.2-35.5,9s9.7,4.2,14.7,6.3c6.8,2.8,30.3,7.8,28.4,17-1.7,8.3-25,10.2-32,11.5a232.1,232.1,0,0,1-28.9,3.1c-21.1,1.3-107.1,2.4-128.2,3.3-28.2,1.2-56.5,1.9-84.8,1.7V367.2c17.4-1,34.7-1.7,52.1-1.6,11.4.1,23-.4,34.4-.3,8.7.1,17.4.5,26.1-.3,9.2-.8,83.7-2.7,91-8.7l.1-.1a2,2,0,0,0,.2-2.8c-5.4-7.1-22.8-11.5-27.7-18.9s9.3-10.7,19-13.3c12.2-3.2,31.4-5.9,49.7-7.2s34.1-2.9,40.8-5.4c5.6-2.1,6.3-6.2,1-8.8-8.9-4.4-18-8.2-26.2-10.3-.4-.1-1.3-.4-2.5-.8-.2-.1-.3-.1-.5-.2h-.1c-.2,0-.3-.1-.5-.2s-.4-.1-.5-.2-.4-.1-.6-.2l-1.8-.6c-.3-.1-.5-.2-.8-.3-.5-.2-1.1-.4-1.7-.6a.35.35,0,0,1-.2-.1c-13.4-4.7-37.4-13.3-49.1-17.4-3.2-1.2-5.5-2-6.3-2.3h53.1c1.3,0,2.7,0,3.9.1,1.7,0,3.3.1,4.8.1h0a37.34,37.34,0,0,1,5.6,2c6.9,3.1,13.3,8.1,20.4,10.3,1.5.5,2.9.9,4.4,1.4a152.94,152.94,0,0,1,23.3,9.3c6.6,3.5,12.8,8.9,14.3,16.5C639.3,313.5,632.9,324.8,605.2,330Z" transform="translate(0 -0.73)"/>
  </g>
  <path class="cntct-5" d="M569.7,266.6c-8.7-.2-19.6-.3-32-.3h30.7C568.9,266.4,569.3,266.5,569.7,266.6Z" transform="translate(0 -0.73)"/>
  <path class="cntct-6" d="M566.1,268.6h-38c14.7-.2,35.7-.4,36.5-.3Z" transform="translate(0 -0.73)"/>
  <g>
    <path class="cntct-2" d="M312.1,384.5V367.1l-.1-79.4h0c-11.1,1.6-36.1,13.5-47.1,15.5-10.6,1.8-21.4,3.4-31.8,6.1-8.3,2.1-16.5,5.9-20.1,13.2-1.6,3.2-2.3,7-4.7,9.9a17.7,17.7,0,0,1-8.5,4.9c-7.7,2.3-15.8,2.2-23.9,2.3-11.4.1-112.4,1.2-125.5,1.2s-31.9-.8-31.9,5.7S28.8,357,38,358c4.2.5,28,5.3,16,9l-23.3,7c-5.5,1.6-11,3.2-16.4,5-4.7,1.6-9.4,3.7-12.1,7.6A12,12,0,0,0,0,393.4c1.7,4.8,10,6.3,16,7,12.6,1.6,25.5,1.2,38.2,1.2,11.1,0,22.9-.5,33.8,1.8,3.3.7,7.1,1.8,9,4.4,2.7,3.7.3,7.3-3.2,9.6-3.9.8-7.7,1.7-11.6,2.4-6,1-12.4,1.5-18,3.7-5.2,2-9.1,6.5-8.9,11.7.2,5.5,5.3,9.1,11,10.2,5.9,1.2,12.3,1.1,18.3,1.2l20.4.4,41.5.9c7.8.2,15.6.5,23.3.5,7.2,0,14.2,1.2,20.3-2.6,3.6-2.2,3.6-6.5,1.7-8.5-2.6-2.6-3.7-2.6-8-3.5-4.4-.7-12.1-1.2-13.5-5-2.5-6.8,14.8-6.8,18.6-6.8,11.8.1,42.7,2.7,49.2,2.8,12.3,0,17.5-3.8,18.6-6.1,3.6-7.4-4.7-12.1-11.8-14.9a147,147,0,0,0-24.5-7.3c-6.8-1.4-15.4-1.6-21.1-5.6-.6-.4-1.9-1.3-2-2v-.1c.4-.9,2.3-1.4,3.2-1.6,4.3-1.4,9.3-1.9,13.8-2.4,7.8-1,61.8-.5,86.1-.2a.75.75,0,0,1-.5-.1h12.2Z" transform="translate(0 -0.73)"/>
    <path class="cntct-7" d="M302.8,384.5h-2.9c.2,0,.3.1.5.1-24.3-.3-78.3-.8-86.1.2-4.6.5-9.5,1-13.8,2.4-.9.3-2.8.8-3.2,1.6v.1c.1.8,1.4,1.6,2,2,5.7,4,14.3,4.2,21.1,5.6a138.15,138.15,0,0,1,24.5,7.3c7.1,2.8,15.4,7.5,11.8,14.9-1.1,2.4-6.3,6.1-18.6,6.1-6.5-.2-37.4-2.7-49.2-2.8-3.8,0-21.1,0-18.6,6.8,1.4,3.8,9.1,4.3,13.5,5,4.3.9,5.4.9,8,3.5,1.9,1.9,1.9,6.2-1.7,8.5-6.1,3.8-13,2.6-20.3,2.6-7.8,0-15.5-.3-23.3-.5L105,447l-20.4-.4c-6.1-.1-12.4,0-18.3-1.2-5.6-1.2-10.7-4.8-11-10.2-.2-5.2,3.7-9.7,8.9-11.7,5.6-2.2,12-2.7,18-3.7,3.9-.7,7.8-1.6,11.6-2.4,3.5-2.2,5.9-5.9,3.2-9.6-1.9-2.6-5.7-3.8-9-4.4-10.9-2.3-22.6-1.8-33.8-1.8-12.7,0-25.6.3-38.2-1.2-6-.7-14.3-2.2-16-7a12,12,0,0,1,2.2-6.8c2.7-4,7.4-6.1,12.1-7.6,5.4-1.8,10.9-3.4,16.4-5L54,367c12-3.7-11.8-8.5-16-9-9.2-1-19.5-5-19.5-11.5s18.7-5.7,31.9-5.7,114.2-1.1,125.5-1.2c8,0,16.2,0,23.9-2.3a17.7,17.7,0,0,0,8.5-4.9c2.5-2.9,3.1-6.7,4.7-9.9,3.7-7.3,11.8-11,20.1-13.2,10.4-2.6,21.2-4.2,31.8-6.1,11-1.9,36-13.8,47.1-15.5h0l.1,79.4v17.4Z" transform="translate(0 -0.73)"/>
  </g>
  <path class="cntct-8" d="M312.1,384.5h0c0,.1-4.1,0-10.5,0h-1.3a.75.75,0,0,1-.5-.1h2.9C305.9,384.5,309,384.5,312.1,384.5Z" transform="translate(0 -0.73)"/>
  <g>
    <path class="cntct-2" d="M516.3,266.4H561c1.3,0,2.7,0,3.9.1,1.7,0,3.3.1,4.8.1h0c12.1.3,19.8.8,21.3,1.5a3.51,3.51,0,0,1,.8.5h11.3c-2.1-13.3-6.2-10.1-23.5-19.6-.2-.1-.5-.3-.7-.4,15.2,0,25.3.1,25.3.1-4.4-10.6-8.8-21.1-13.3-31.6-2.2-5.4-4.5-10.7-6.8-16.1-1.8-4.4-3.4-9.2-5.9-13.2-2.3-3.6-5.5-6.8-9.8-7.6a13,13,0,0,0-9.4,1.9c-.2-15.8-.3-30.1-.4-36a5,5,0,0,0,2-.8,43.65,43.65,0,0,0,5.9,4.6s27.9,9.3,18,1.4c-6.4-5.1-15.7-8.6-21.5-10.5a3.4,3.4,0,0,0-.1-1,5.66,5.66,0,0,0-3.1-4.3,36,36,0,0,0,1-9.6s-8-28.4-9-15.7c-.7,8.7,2,19,3.7,24.7a5.44,5.44,0,0,0-2.3,1.1,5.72,5.72,0,0,0-2.1,3,39.2,39.2,0,0,0-7.1,2.9s-22.2,19.5-10.3,14.9c7-2.7,14-8.1,18.6-12.2a4.63,4.63,0,0,0,1.8,1.3,1.42,1.42,0,0,0,.6.2l-.2,39.4c-2.4,2.1-4.7,4.2-8,4.8-3.9.7-8-.7-11.4-2.7-7.4-4.4-11.3-12.8-15-20.3l1.2-.6a43.65,43.65,0,0,0,5.9,4.6s27.9,9.4,18,1.4c-6.4-5.1-15.7-8.6-21.5-10.5a3.4,3.4,0,0,0-.1-1,5.66,5.66,0,0,0-3.1-4.3,36,36,0,0,0,1-9.6s-8-28.4-9-15.7c-.7,8.7,2,19,3.7,24.7-.4.1-.8.3-1.2.4a186.13,186.13,0,0,0-9.8-18.8c-4.3-6.9-11.7-13.1-20.1-9-3.8,1.8-6.3,5.3-9,8.4a89.76,89.76,0,0,1-9.7,9.8,103.79,103.79,0,0,1-17.8,12.5,72,72,0,0,1-16.1-21c-5.8-11.8-9.6-24.4-17.5-34.8a38.15,38.15,0,0,0-13.1-11.5c-6-3-12.5-3.8-19.1-3.6-7.1.1-14.3,1.1-21.3-.3a62.12,62.12,0,0,1-18.2-7.1c-12-6.9-22.7-16.1-33.2-25.5a2.18,2.18,0,0,0-.8-.5c-3.9-3.4-13.5-.8-14.4,6.6-5.7,50.7-8,101.5-4.7,152.5.9,14.5,2.6,28.8,3.9,43.3.3,3.9,2.5,9.8,6,10.2.9.1,4,.2,8.8.3,15.3.3,48.3.4,86.9.5l25.1-.6c-1.2,11.4-2.9,21.7-5.5,22.1-5.2.9-85.3-1.7-103.6-2.3l.1,79.4c17.4-1,34.7-1.7,52.1-1.6,11.4.1,23-.4,34.4-.3,8.7.1,17.4.5,26.1-.3,9.2-.8,83.7-2.7,91-8.7l.1-.1a2,2,0,0,0,.2-2.8c-5.4-7.1-22.8-11.5-27.7-18.9s9.3-10.7,19-13.3c12.2-3.2,31.4-5.9,49.7-7.2s34.1-2.9,40.8-5.4c5.6-2.1,6.3-6.2,1-8.8-8.9-4.4-18-8.2-26.2-10.3-.4-.1-1.3-.4-2.5-.8-.2-.1-.3-.1-.5-.2h-.1c-.2,0-.3-.1-.5-.2s-.4-.1-.5-.2-.4-.1-.6-.2l-1.8-.6c-.3-.1-.5-.2-.8-.3-.5-.2-1.1-.4-1.7-.6a.35.35,0,0,1-.2-.1c-13.4-4.7-37.4-13.3-49.1-17.4-3.2-1.2-5.5-2-6.3-2.3h3.9A24.23,24.23,0,0,1,516.3,266.4Z" transform="translate(0 -0.73)"/>
    <g class="cntct-9">
      <path class="cntct-10" d="M604.2,248.7c-4.4-10.6-8.8-21.1-13.3-31.6-2.2-5.4-4.5-10.7-6.8-16.1-1.8-4.4-3.4-9.1-5.9-13.2-2.3-3.6-5.5-6.8-9.8-7.6-4.7-.9-8.8,1.1-12.3,4-3,2.4-5.5,5.3-9.5,6s-8-.7-11.4-2.7c-7.8-4.6-11.8-13.9-15.7-21.7-4.6-9.3-8.8-19.2-14.2-28.1-4.3-6.9-11.7-13.1-20.1-9-3.8,1.8-6.3,5.3-9,8.4a89.76,89.76,0,0,1-9.7,9.8,102.53,102.53,0,0,1-48.6,23.6,5.27,5.27,0,0,0-5.9-2.3c-18.6,4.4-26.1,23.5-29.1,40.4-1.5,8.5-4,18.5,1,26.4,4.2,6.8,11.9,9.8,19.5,11,9.6,1.5,19.5,1.5,29.2,2.1C442.9,248.4,604.2,248.7,604.2,248.7Z" transform="translate(0 -0.73)"/>
      <g>
        <path class="cntct-11" d="M557,139.1s-6.1-16.3-5.2-29.1,9,15.7,9,15.7S561.3,138.3,557,139.1Z" transform="translate(0 -0.73)"/>
        <path class="cntct-12" d="M557.7,139.3s-12.1,12.6-24,17.2S544,141.6,544,141.6,555.2,135.8,557.7,139.3Z" transform="translate(0 -0.73)"/>
        <path class="cntct-13" d="M557.6,139.1s17,4.1,26.9,12.1-18-1.4-18-1.4S555.8,143,557.6,139.1Z" transform="translate(0 -0.73)"/>
        <path class="cntct-14" d="M562.9,139.6c-.6-4.5-6.1-6.5-9.7-3.8a5.66,5.66,0,0,0,.9,9.8,4.49,4.49,0,0,0,2.3.4,5.12,5.12,0,0,0,4.6-1.3A5.06,5.06,0,0,0,562.9,139.6Z" transform="translate(0 -0.73)"/>
        <path class="cntct-15" d="M554.8,143.2l-.5,101s6.8,1.3,6,0-1.6-101-1.6-101Z" transform="translate(0 -0.73)"/>
      </g>
      <g>
        <path class="cntct-16" d="M517.8,160.3s-6.1-16.4-5.1-29.1,9,15.7,9,15.7S522.1,159.5,517.8,160.3Z" transform="translate(0 -0.73)"/>
        <path class="cntct-17" d="M518.5,160.5s-12.1,12.6-24,17.3,10.2-14.9,10.2-14.9S515.9,157,518.5,160.5Z" transform="translate(0 -0.73)"/>
        <path class="cntct-18" d="M518.4,160.3s17,4.1,26.9,12.1-18-1.4-18-1.4S516.6,164.2,518.4,160.3Z" transform="translate(0 -0.73)"/>
        <path class="cntct-19" d="M523.7,160.8c-.6-4.5-6.2-6.5-9.7-3.8a5.83,5.83,0,0,0-2,6.8,5.66,5.66,0,0,0,2.9,3,4.49,4.49,0,0,0,2.3.4,5.12,5.12,0,0,0,4.6-1.3A5.18,5.18,0,0,0,523.7,160.8Z" transform="translate(0 -0.73)"/>
        <path class="cntct-20" d="M515.6,164.2l-.5,101.1s6.8,1.3,5.9,0-1.6-101.1-1.6-101.1Z" transform="translate(0 -0.73)"/>
      </g>
      <path class="cntct-21" d="M603.1,268.6H591.8c-.3-.2-.5-.3-.8-.5-1.4-.7-9.2-1.2-21.3-1.5h0c-1.5,0-3.1-.1-4.8-.1-1.3,0-2.6,0-3.9-.1H507.9c-27.1.2-57.7.7-86.7,1.3l-25.1.6c-38.6-.1-71.6-.3-86.9-.5-4.9-.1-8-.2-8.8-.3-3.5-.4-5.7-6.4-6-10.2-1.3-14.4-2.9-28.8-3.9-43.3-3.3-51-1-101.8,4.7-152.5.8-7.4,10.5-10,14.4-6.6a3.51,3.51,0,0,1,.8.5c10.5,9.4,21.2,18.6,33.2,25.5A62.12,62.12,0,0,0,361.8,88c7,1.4,14.2.4,21.3.3,6.4,0,12.9.7,18.9,3.7a38.15,38.15,0,0,1,13.1,11.5c7.8,10.4,11.7,23.1,17.5,34.8a72,72,0,0,0,16.1,21c9.5,8.9,20.7,16.1,30.5,24.8,8.5,7.5,14.7,16.3,19.7,26.8,2.6,5.4,5.7,9.2,10.7,11.9,4.7,2.5,10,3.7,15.1,4.8,12.9,2.8,38.6,12.3,54.9,21.3C596.9,258.5,601,255.3,603.1,268.6Z" transform="translate(0 -0.73)"/>
      <path class="cntct-22" d="M597.9,308.5c-6.7,2.5-22.5,4.1-40.8,5.4s-37.5,4-49.7,7.2c-9.7,2.6-23.9,5.9-19,13.3s22.3,11.8,27.7,18.9a2,2,0,0,1-.2,2.8l-.1.1c-7.3,6-81.9,7.9-91,8.7-8.7.8-17.4.4-26.1.3-11.5-.1-23,.3-34.4.3-17.3-.1-34.7.6-52.1,1.6l-.1-79.4c18.3.6,98.4,3.2,103.6,2.3,2.6-.5,4.4-10.8,5.5-22.1,29.1-.6,59.6-1.1,86.7-1.3.9.3,3.1,1.1,6.3,2.3,11.7,4.2,35.7,12.8,49.1,17.4a.35.35,0,0,1,.2.1c.6.2,1.2.4,1.7.6a6.89,6.89,0,0,1,.8.3,18.88,18.88,0,0,1,1.8.6c.2.1.4.1.6.2s.4.1.5.2.3.1.5.2h.1c.2.1.3.1.5.2,1.2.4,2.1.7,2.5.8,8.2,2.1,17.3,5.9,26.2,10.3C604.1,302.3,603.5,306.4,597.9,308.5Z" transform="translate(0 -0.73)"/>
    </g>
  </g>
  <path class="cntct-23" d="M423.2,237.4s-.5,16.1-2,30.5c-1.2,11.4-2.9,21.7-5.5,22.1-5.2.9-85.3-1.7-103.6-2.3h0c-2.3-.1-3.7-.1-3.7-.1l.8-19.7,1.7-41.3Z" transform="translate(0 -0.73)"/>
  <g>
    <path class="cntct-24" d="M397,198.5l-86-1.6s.6,24.4-.4,36.7c-.2,2.4,1.3,6.5,3.1,6.5,30.8.5,120,.2,120,.2Z" transform="translate(0 -0.73)"/>
    <g>
      <polygon class="cntct-2" points="317 202.27 321.2 230.77 413.5 232.07 381.4 202.27 317 202.27"/>
      <polygon class="cntct-25" points="319.4 204.27 325.5 228.37 407.4 228.37 381.6 204.47 319.4 204.27"/>
      <path class="cntct-2" d="M338.1,230.8a.84.84,0,0,1-.7-.4l-12.7-25.3a.78.78,0,0,1,.3-1,.81.81,0,0,1,1,.3l12.6,25.3a.78.78,0,0,1-.3,1C338.4,230.8,338.3,230.8,338.1,230.8Z" transform="translate(0 -0.73)"/>
      <path class="cntct-2" d="M349.8,231a1,1,0,0,1-.7-.4l-13.4-25.5a.74.74,0,1,1,1.3-.7l13.4,25.5a.78.78,0,0,1-.3,1A.37.37,0,0,1,349.8,231Z" transform="translate(0 -0.73)"/>
      <path class="cntct-2" d="M363.5,231.8a.84.84,0,0,1-.7-.4l-13.7-26.3a.74.74,0,1,1,1.3-.7l13.7,26.3a.78.78,0,0,1-.3,1C363.7,231.7,363.6,231.8,363.5,231.8Z" transform="translate(0 -0.73)"/>
      <path class="cntct-2" d="M376.3,231.8a.84.84,0,0,1-.7-.4l-12.8-26.3a.76.76,0,1,1,1.4-.6h0L377,230.8a.73.73,0,0,1-.4,1Z" transform="translate(0 -0.73)"/>
      <path class="cntct-2" d="M398.2,231a.76.76,0,0,1-.5-.2c-9.6-9.8-24.2-24.6-25.5-25.4a.63.63,0,0,1-.4-.9v-.1a.73.73,0,0,1,1-.4c1.2.5,18.5,18.1,25.9,25.7a.78.78,0,0,1,0,1.1h0A.76.76,0,0,1,398.2,231Z" transform="translate(0 -0.73)"/>
      <path class="cntct-2" d="M386.9,210.9H319.3a.58.58,0,0,1-.6-.6.67.67,0,0,1,.6-.7h67.6c.4,0,.6.3.6.7s-.2.6-.6.6Z" transform="translate(0 -0.73)"/>
      <path class="cntct-2" d="M321.6,219.3c-.4,0-.6-.3-.6-.7a.58.58,0,0,1,.6-.6l73-1.5h0c.4,0,.6.3.6.7a.58.58,0,0,1-.6.6Z" transform="translate(0 -0.73)"/>
      <path class="cntct-2" d="M323.1,225.9a.58.58,0,0,1-.6-.6.67.67,0,0,1,.6-.7h0l76.4-3.4c.4,0,.6.3.6.7a.58.58,0,0,1-.6.6l-76.4,3.4Z" transform="translate(0 -0.73)"/>
    </g>
  </g>
  <g>
    <path class="cntct-2" d="M312.1,198.3a3.57,3.57,0,0,0-.7-.7l.1-141c-12-12.7-36.9-25.8-54.9-23.2-16.5,2.4-31.3,13-37.3,27.8-2.5,6.3-3.3,13-4.9,19.5-1.4,5.7-3.3,11.8-8.6,15.2-6.3,4.1-14.5,4.9-21.3,8.1a37.18,37.18,0,0,0-16.2,15.2c-2,3.6-2.7,7.7-4.6,11.3-1.4,2.5-3.8,3.7-6.7,4.4-8,1.8-16.4-1.3-24.5-.6-14.7,1.2-30.5,13.9-25.6,29,1.9,5.8,6.7,10.9,1.7,16.5-4,4.6-11,2.7-16.5,2.9-7.6.2-14.8,3.4-16.7,11-.9,3.8,0,7.5-.3,11.3-.2,2.3-1.1,3-3.3,3.9-6.2,2.5-12.4,3.7-15.8,9.9-1.9,3.4-2,6.2-5.5,8.5-3.1,2.1-6.1,4.2-7.8,7.4-3.4,6.5-.5,14.5,5.2,19A21.17,21.17,0,0,0,58,258a16.57,16.57,0,0,0-5.2,2.5,35.39,35.39,0,0,0-11,12.4c-3,5.4-4.8,11.3-7.8,16.8a44.66,44.66,0,0,1-11,12.7c-4.3,3.6-8.8,6.9-13.1,10.5s-10.2,8.5-7.2,15c2.4,5.2,8.7,8.2,13.9,9.9,5.6,1.8,11.7,2.2,17.6,2.7,28.1,2.3,56.2,3.4,84.5,3.1,28.1-.3,56.1-2.5,84.2-2.9a352.12,352.12,0,0,1,41.1,1.5c13.2,1.4,54.2,11.4,67.2,8.2V315.7a11,11,0,0,0,.6-4.2,6.15,6.15,0,0,0-.1-1.3Z" transform="translate(0 -0.73)"/>
    <g class="cntct-9">
      <path class="cntct-26" d="M48.2,253.8c6.9,5.5,16.1,5.3,24.5,4.4,3.3-.3,238.8,2.7,238.8,2.7V238.3h0v-26h0l.1-155.7c-12-12.7-36.9-25.8-54.9-23.2-16.6,2.4-31.3,13-37.3,27.8-2.5,6.3-3.3,13-4.9,19.5-1.4,5.7-3.3,11.8-8.6,15.2-6.3,4.1-14.5,4.9-21.3,8.1a37.18,37.18,0,0,0-16.2,15.2c-2,3.6-2.7,7.7-4.6,11.3-1.4,2.6-3.9,3.7-6.7,4.4-8,1.8-16.4-1.3-24.5-.6-14.7,1.2-30.4,13.9-25.6,29,1.9,5.8,6.7,10.9,1.7,16.6-4,4.6-11,2.7-16.5,2.9-7.6.2-14.8,3.4-16.7,11-.9,3.8,0,7.5-.3,11.3-.2,2.3-1.1,3-3.3,3.9-6.2,2.5-12.4,3.7-15.8,9.9-1.9,3.4-2,6.2-5.5,8.5-3.1,2.1-6.1,4.1-7.8,7.4C39.5,241.3,42.5,249.3,48.2,253.8Z" transform="translate(0 -0.73)"/>
      <path class="cntct-27" d="M96.2,297.8c.9,9,7.6,15.3,15.6,18.7,8.8,3.7,18.8,4.4,28.3,4.6a286.16,286.16,0,0,0,33.4-1.5c22.5-1.9,45.1-3.3,67.7-3.6,22.4-.3,44.8.8,67.2,1.6,3.3.1,3.8-2.9,3.8-6.1a6.15,6.15,0,0,0-.1-1.3l.1-112s-13.1-13.6-15.6-17.5c-4.7-7-10.3-14.2-18.3-17.6-7-3-15.9-3.9-22.5.8-3.4,2.4-5.2,5.7-7.3,9.1a6.1,6.1,0,0,1-1.2,1.6h-.1a32.38,32.38,0,0,0-5.3-1.6c-8.5-1.3-15.8,3.3-23,7.1-2.9,1.6-6.2,3.3-9.5,3.8-4.9.6-9.6-.8-14.4,1.2-3.9,1.6-6.9,4.6-9.6,7.8-2.4,2.8-4.7,6-8.1,7.6-7.1,3.2-16,0-22.8-2.6-8.5-3.1-16.5-6.6-25.6-7.2s-18,2.6-23.5,10.1c-5.3,7.2-5.5,16.7-3.9,25.2,1.7,9.3,6.4,17.6,8.9,26.6,1.2,4.3,1.9,8.9.7,13.3-1,3.7-3.4,6.9-5.7,9.9C100.6,282.3,95.3,289.2,96.2,297.8Z" transform="translate(0 -0.73)"/>
      <path class="cntct-28" d="M3,327.9c2.4,5.2,8.7,8.2,13.9,9.9,5.6,1.8,11.7,2.2,17.6,2.7,28.1,2.3,56.2,3.4,84.5,3.1,28.1-.3,56.1-2.5,84.2-2.9a352.12,352.12,0,0,1,41.1,1.5c13.2,1.4,54.2,11.4,67.2,8.2l.5-54.1s-55.7-9.7-60.1-10.7c-7.8-1.8-18.1-2.1-24.2-8-3.8-3.7-4.5-9.2-6.8-13.8-2.5-4.8-6.7-7.8-11.4-10.1a43.29,43.29,0,0,1-7-3.9,20.27,20.27,0,0,1-4.4-5.7c-2.8-4.8-5.8-9-10.6-11.9a27.08,27.08,0,0,0-30.1,1.5c-4.7,3.5-8.3,8.1-12.7,11.9-3.4,3-8.5,6-13.1,3.9-5-2.3-8.3-7-13.5-9-5.6-2.1-12-1.3-17.4.9-5.7,2.3-10.6,5.9-15.6,9.4-4.4,3.1-9.2,6.2-14.7,6.3-6.3.1-11.8-.1-17.2,3.5a35.39,35.39,0,0,0-11,12.4c-3,5.4-4.8,11.3-7.8,16.8a44.66,44.66,0,0,1-11,12.7c-4.3,3.6-8.8,6.9-13.1,10.5C5.8,316.6,0,321.4,3,327.9Z" transform="translate(0 -0.73)"/>
    </g>
  </g>
  <g>
    <path class="cntct-2" d="M474.3,88.7c-5.8,2.6-6.1,4-10.8,2.8h-.2a9.63,9.63,0,0,1,1.9-2.9c1.6-2.1.7-4.4-1.2-2.8-3.1,2.7-6.9,4.7-7.9,8.8-.3.3-.8.8-1.3,1.4h-.2c-11.3,7.6-30,18.4-47.7,23.3l1.8-2.1A77.19,77.19,0,0,0,421.8,94c1.3-3.7,3.8-8.8,3.6-12.8-.2-.3-.5-.6-.8-1,3.7-3.3,6.7-1.2,16.6-11,1.7-1.9,4.5-7.2-1.3-4.6s-6.1,4-10.8,2.8h-.2c.7-1.7.7-1.3,1.9-2.9,1.6-2.1.7-4.5-1.2-2.8-3.1,2.7-6.9,4.7-7.9,8.8a31.28,31.28,0,0,0-5.1,6.1c-.2,0-.3.1-.3.2a10.09,10.09,0,0,1-.7,1.5,15.39,15.39,0,0,0-.8,1.9c-6.4,14.6-15.1,29.9-28.5,38.5a34.09,34.09,0,0,0-1.5-7.6v-.2a6.6,6.6,0,0,0,3.8-2.4c3.6-5,1.7-10.7-.6-15.6-.3-.7.6-3.3.3-4-1.3-2.4-4.1-2.7-5.8-4.8a16.67,16.67,0,0,0-5.9-5.9c-.4-.4-.7-.8-1.1-1.2a19.14,19.14,0,0,0-16.9-4.7,19.39,19.39,0,0,0-4.8.9,20.7,20.7,0,0,0-14.5,18.5,15.15,15.15,0,0,0,.7,5.6c.6,2.1,2.7,4.4,2.7,6.5-.2,4-6.7,7.1-9.3,9.6a14.43,14.43,0,0,0-4.4,12.7c.6,4.3,3.4,8.7,3,13.1-.3,2.4-1.4,4.6-1.7,7a12.08,12.08,0,0,0,1.5,7.7c2.5,4.3,7.1,7.2,11.8,8.7a29,29,0,0,0,25.5-3.8c-.2,9.2-.7,17.8-2.2,23.1-1.8,6.5-9,22.5-9,22.5a4.35,4.35,0,0,0,.7.4,118.73,118.73,0,0,0-7.9,29.3c-1.6,5.6-2.6,11.6-4.9,17s-7.2,8.4-11.1,12.2a53.39,53.39,0,0,0-9.6,13c-5.2,9.6-10.3,29.5-10.3,29.5a.91.91,0,0,0,.3.5,55.26,55.26,0,0,0-6.1,4.3c-2.1,1.8-.7,4.2.1,6.5a112.86,112.86,0,0,0,4.4,10.9c1.3,2.7,2.6,7,4.9,8.9,4.6,4,3.1-4.3,3-6.8a47.17,47.17,0,0,0-1.9-9.8,26,26,0,0,1,0-10.8c.1,0,.1-.1.2-.1l.1-.1c6.6-7.6,13.3-14.9,19.4-22.9S351,270.3,356.5,262c4.7-7.1,9.1-14.1,13.3-21.3.8,3.1,1.7,6.1,2.7,9.1,1.1,5.8,2.9,11.6,3.3,17.4s-2.6,10.7-4.5,15.9a53.68,53.68,0,0,0-2.8,15.9c-.3,10.9,1.6,22.4,6.8,32a69.91,69.91,0,0,0,.9,9.2c.6,2.7,3.3,2.6,5.7,3.1a115,115,0,0,0,11.6,1.5c3,.2,7.3,1.2,10.2.2,5.8-2.1-2.2-4.9-4.4-6a52.09,52.09,0,0,0-9.4-3.2,26.66,26.66,0,0,1-9.3-5.2c2.4-9.6,3.1-19.1,5.1-28.8s3.3-19.7,4.6-29.6,2-19.6,2.6-29.4c.3-4.8.5-9.6.6-14.3.2-5.1.6-10.3-.2-15.4,9-37.9,8.3-49.3,7.6-56.2-.4-3.5,5.6-6.2,4.9-9.6a91.76,91.76,0,0,0-3.2-11.7,72.83,72.83,0,0,0,11.9-2.7c8.1-2.5,29.6-13.3,36.4-18.6,3.1-2.4,7.8-5.7,9.8-9.2a2.75,2.75,0,0,0,.2-2.2c3.2-1.9,6.5-1.4,15.2-9.9C477.4,91.4,480.1,86.1,474.3,88.7Z" transform="translate(0 -0.73)"/>
    <g class="cntct-9">
      <path class="cntct-29" d="M398.8,339.4a52.09,52.09,0,0,0-9.4-3.2c-2.8-.8-9.8-4.2-10.9-7.4-.6-1.6-3.3-1.6-3.4.1a.67.67,0,0,0-.4.7c.3,3.6.3,7.5,1,11,.6,2.7,3.3,2.6,5.7,3.1a115,115,0,0,0,11.6,1.5c3,.2,7.3,1.2,10.2.2C409,343.4,401,340.5,398.8,339.4Z" transform="translate(0 -0.73)"/>
      <path class="cntct-30" d="M320.9,330.4a47.17,47.17,0,0,0-1.9-9.8c-.7-2.9-1.2-10.6,1.1-13.1,1.2-1.3-.2-3.6-1.8-2.9a.61.61,0,0,0-.8,0c-3,2.1-6.3,3.9-9,6.3-2.1,1.8-.7,4.2.1,6.5a112.86,112.86,0,0,0,4.4,10.9c1.3,2.7,2.6,7,4.9,8.9C322.5,341.2,321,332.9,320.9,330.4Z" transform="translate(0 -0.73)"/>
      <path class="cntct-31" d="M439.9,64.6c-5.8,2.6-6.1,4-10.8,2.8h-.2c.7-1.7.7-1.3,1.9-2.9,1.6-2.1.7-4.5-1.2-2.8-3.1,2.7-6.9,4.7-7.9,8.8-1.4,1.5-6.7,6.2-7.9,13.3s7.3.9,7.3.9c6-9.9,7.3-2.9,20.1-15.4C442.9,67.3,445.6,62.1,439.9,64.6Z" transform="translate(0 -0.73)"/>
      <path class="cntct-32" d="M474.3,88.7c-5.8,2.6-6.1,4-10.8,2.8h-.2a9.63,9.63,0,0,1,1.9-2.9c1.6-2.1.7-4.4-1.2-2.8-3.1,2.7-6.9,4.7-7.9,8.8-1.4,1.5-6.7,6.2-7.9,13.3s7.3.9,7.3.9c6-9.9,7.3-2.9,20.1-15.4C477.4,91.4,480.1,86.1,474.3,88.7Z" transform="translate(0 -0.73)"/>
      <path class="cntct-33" d="M392.8,213.2a3.64,3.64,0,0,0-2.9-2.8c.2-2.1.4-4.2.7-6.4.3-3.1.9-6.2,0-9.3a4.2,4.2,0,0,0-4.9-3.2c0-3.3-2.8-6.6-6.5-5.1-5.7,2.2-8.9,8.5-10.9,13.9a46.08,46.08,0,0,0-2.5,18.8,121,121,0,0,0,6.1,30.9c1.1,5.8,2.9,11.6,3.3,17.4s-2.6,10.7-4.5,15.9a53.68,53.68,0,0,0-2.8,15.9c-.3,10.9,1.6,22.5,6.9,32.1.3.5,3.5.6,4,.5a.89.89,0,0,0,1.1-.5v-.1c2.5-9.7,3.2-19.3,5.1-29.1s3.4-19.7,4.6-29.6,2-19.6,2.6-29.4c.3-4.8.5-9.6.6-14.3C393.1,223.7,393.6,218.4,392.8,213.2Z" transform="translate(0 -0.73)"/>
      <path class="cntct-34" d="M385.3,210.6a3.32,3.32,0,0,0-1.3-3.7c1.1-1.8,2.3-3.6,3.4-5.4,1.7-2.7,3.6-5.1,4.2-8.3a4.06,4.06,0,0,0-2.9-5c1.5-2.9.4-7.1-3.5-7.5-6.1-.6-11.8,3.6-16,7.6A48.15,48.15,0,0,0,358.5,204a118.1,118.1,0,0,0-8.3,30.4c-1.6,5.6-2.6,11.6-4.9,17s-7.2,8.4-11.1,12.2a53.39,53.39,0,0,0-9.6,13c-5.2,9.6-10.3,29.5-10.3,29.5,0,.6,3.1,3.6,3.6,3.6a.91.91,0,0,0,1.2,0l.1-.1c6.6-7.6,13.3-14.9,19.4-22.9s11.8-16.1,17.4-24.4,10.6-16.6,15.5-25.2c2.4-4.1,4.7-8.3,7-12.5C381,220.1,383.8,215.5,385.3,210.6Z" transform="translate(0 -0.73)"/>
      <path class="cntct-35" d="M416.2,76.9c-8.4,19.8-20.6,42.1-43.2,47.8-2.3.6-4.8,1-6.1,3.2a4.71,4.71,0,0,0,.8,5.9c1.3,1.2,3,1.2,4.7,1.1,6,1,12.9-.9,18.2-3.2,7.9-3.3,12.6-8,18.1-14.6a77.19,77.19,0,0,0,13.1-23.2c1.3-3.7,3.8-8.8,3.6-12.8C424,78.8,416.8,75.6,416.2,76.9Z" transform="translate(0 -0.73)"/>
      <path class="cntct-36" d="M384.7,107.9a88,88,0,0,0-2.4-16.2,38.68,38.68,0,0,0-2.9-8.7,1.65,1.65,0,0,0-.4-2.4h0l-2.4-1.8a17.88,17.88,0,0,0-1.3-1.4,19.14,19.14,0,0,0-16.9-4.7,21.1,21.1,0,0,0-4.9.9A20.7,20.7,0,0,0,339,92.1a15.15,15.15,0,0,0,.7,5.6c.6,2.1,2.7,4.4,2.6,6.5-.1,4-6.7,7.1-9.3,9.6a14.43,14.43,0,0,0-4.4,12.7c.6,4.3,3.4,8.7,3,13.1-.3,2.4-1.4,4.6-1.7,7a12.08,12.08,0,0,0,1.5,7.7c2.5,4.3,7.1,7.2,11.8,8.7,8.6,2.9,19.1,1.3,26.2-4.4a17.91,17.91,0,0,0,6.7-10.6c.9-5-1.4-9.6-1.1-14.5.1-2.3,1.5-3.7,3-5.3a25.49,25.49,0,0,0,4.2-6.1A30.34,30.34,0,0,0,384.7,107.9Z" transform="translate(0 -0.73)"/>
      <path class="cntct-37" d="M379.7,105a5.53,5.53,0,0,0-4.7,1.8,1.65,1.65,0,0,0-1.5,1.7,81.4,81.4,0,0,1-.8,8.5c-.6,2.3-.4,4.9,2.3,5.7,2,.6,10.6,3.2,11.1.8C387,119,384.9,105.6,379.7,105Z" transform="translate(0 -0.73)"/>
      <path class="cntct-38" d="M454.6,96c-17.9,12-53.9,31.8-75.9,24.3-2.2-.8-4.6-1.8-6.9-.6a4.84,4.84,0,0,0-2.6,5.4c.5,1.7,2.7,3.4,2.7,3.4,4.5,4.1,11.9,6.2,17.6,7.3,8.4,1.5,16.3.1,24.5-2.5s29.6-13.3,36.4-18.6c3.1-2.4,7.8-5.7,9.8-9.2C462,102.3,455.8,95.2,454.6,96Z" transform="translate(0 -0.73)"/>
      <path class="cntct-39" d="M400.4,157.3c-.4-3.5,5.6-6.2,4.9-9.6a91.65,91.65,0,0,0-4.9-16.2c-1.7-4.3-3.9-7.5-8.6-8.4-4.5-.9-16.2-2.1-20.8-2.5-4-.3,0,45.7-4.4,61.6-1.8,6.5-9,22.5-9,22.5,6.3,4.2,27.5,9.6,35.2,9.2C401.8,175.7,401.1,164.3,400.4,157.3Z" transform="translate(0 -0.73)"/>
      <path class="cntct-40" d="M360,84.6c2.6-5.7,9.1-9.4,15.3-6.8a16.53,16.53,0,0,1,7.1,6.5c1.7,2.1,4.5,2.4,5.9,4.8.4.7-.6,3.3-.3,4,2.3,4.8,4.2,10.5.6,15.6-3.9,5.4-17.5,2-23-.8-4.7-2.4-2.5-2.7-4.9-7.2A17.92,17.92,0,0,1,360,84.6Z" transform="translate(0 -0.73)"/>
      <path class="cntct-41" d="M370.5,76.8a3.06,3.06,0,0,0-3.9-1.6,3.94,3.94,0,0,0-3.5.2c-5,3-6.4,9.7-8.1,14.8-1.5,4.3-6.3,13-.6,16.2a5,5,0,0,0,6.2-.4,3.61,3.61,0,0,0,2.5-.6C371.1,100,374.1,85.5,370.5,76.8Z" transform="translate(0 -0.73)"/>
      <path class="cntct-42" d="M396.5,136.7a41.36,41.36,0,0,1-7-.6,49,49,0,0,1-14-4.6l.3-.6a47.74,47.74,0,0,0,13.8,4.6,41.61,41.61,0,0,0,12.2.3l.1.6A48.86,48.86,0,0,1,396.5,136.7Z" transform="translate(0 -0.73)"/>
    </g>
  </g>
  <g>
    <path class="cntct-2" d="M625.8,264.8c-1.1-3.7-3.4-6.7-5-10.1-2-4-.4-8.1-1.3-12.4a13.93,13.93,0,0,0-7.3-9.4c-1.5-.8-3.3-1-4.8-1.8s-1.4-2.4-1.5-4c-.4-4.2-1.8-7.9-5.6-10.1a12.12,12.12,0,0,0-10.8-.8c-8.8,3.6-10.8,13.9-8.7,22.3.4,1.6,2,4.5,1.5,6.1-.5,1.3-3.8,2.4-5,3.3a21.9,21.9,0,0,0-7.7,10.5,23.59,23.59,0,0,0-1,6.1,9.33,9.33,0,0,0-.4-2.2c-.7-2.4-2.2-4.5-3.3-6.7-1.3-2.7-.3-5.4-.8-8.2a9.19,9.19,0,0,0-4.8-6.2c-1-.5-2.2-.7-3.2-1.2s-.9-1.6-1-2.6c-.3-2.8-1.2-5.2-3.7-6.7a8,8,0,0,0-7.2-.5c-5.8,2.4-7.2,9.2-5.8,14.8.3,1,1.3,3,1,4.1-.3.9-2.5,1.6-3.3,2.2a14.86,14.86,0,0,0-5.1,7c-1.9,5.5.1,14.1,4.5,17.6,5.2,3.9,5.9,3.1,10,3.9a15.26,15.26,0,0,0,3,.3c-.1,2-.2,4.1-.4,6.1h0c0,.4.2.7.6.7s.7-.2.7-.6c.2-2.1.3-4.1.4-6.2a22.42,22.42,0,0,0,12-3.8c3.4-2.4,6.5-6.1,6.8-10.3.1,7.2,3,15.2,7.9,19,7.9,5.9,8.9,4.6,15,5.9a36.57,36.57,0,0,0,6.5.6c-.2,5.2-.4,10.4-.8,15.6h0c0,.4.2.7.6.7h0c.4,0,.7-.2.7-.6.4-5.2.7-10.5.8-15.7a31.89,31.89,0,0,0,16.7-5.7C622.7,280.9,628.3,273.2,625.8,264.8Z" transform="translate(0 -0.73)"/>
    <g>
      <g class="cntct-9">
        <path class="cntct-43" d="M568.2,262.2c-.7-2.4-2.2-4.5-3.3-6.7-1.3-2.7-.3-5.4-.8-8.2a9.19,9.19,0,0,0-4.8-6.2c-1-.5-2.2-.7-3.2-1.2s-.9-1.6-1-2.6c-.3-2.8-1.2-5.2-3.7-6.7a8.29,8.29,0,0,0-7.2-.6c-5.8,2.4-7.2,9.2-5.8,14.8.3,1,1.3,3,1,4.1-.3.9-2.5,1.6-3.3,2.2a14.86,14.86,0,0,0-5.1,7c-1.9,5.5.1,14.1,4.5,17.6,5.2,3.9,5.9,3.1,10,3.9a21.86,21.86,0,0,0,16.3-3.4C566.1,272.9,569.8,267.8,568.2,262.2Z" transform="translate(0 -0.73)"/>
        <path class="cntct-2" d="M548.7,286.5h0c-.4,0-.6-.3-.6-.7h0a192,192,0,0,0-1.3-41.5.66.66,0,0,1,.5-.8.62.62,0,0,1,.8.5v.1a201.67,201.67,0,0,1,1.3,41.8A.73.73,0,0,1,548.7,286.5Z" transform="translate(0 -0.73)"/>
        <path class="cntct-2" d="M549.2,256.8c-.2,0-.3-.1-.5-.2a.56.56,0,0,1,0-.9h0a30.25,30.25,0,0,0,5.5-8.2.63.63,0,1,1,1.2.4v.1a32.48,32.48,0,0,1-5.7,8.5A.55.55,0,0,1,549.2,256.8Z" transform="translate(0 -0.73)"/>
        <path class="cntct-2" d="M549.2,266.8a.37.37,0,0,1-.3-.1,25.49,25.49,0,0,1-7-6.5.63.63,0,0,1,.1-.9h0a.74.74,0,0,1,.9.1,23.3,23.3,0,0,0,6.7,6.2.65.65,0,0,1,.2.9h0A.6.6,0,0,1,549.2,266.8Z" transform="translate(0 -0.73)"/>
      </g>
      <g class="cntct-9">
        <path class="cntct-44" d="M625.8,264.8c-1.1-3.7-3.4-6.7-5-10.1-2-4-.4-8.1-1.3-12.4a13.93,13.93,0,0,0-7.3-9.4c-1.5-.8-3.3-1-4.8-1.9s-1.4-2.4-1.5-4c-.4-4.2-1.8-7.9-5.6-10.1a12.12,12.12,0,0,0-10.8-.8c-8.8,3.6-10.8,13.9-8.7,22.3.4,1.6,2,4.5,1.5,6.1-.5,1.3-3.8,2.4-5,3.3a21.9,21.9,0,0,0-7.7,10.5c-2.8,8.3.2,21.2,6.9,26.5,7.9,5.9,8.9,4.6,15,5.9a33,33,0,0,0,24.6-5.1C622.7,280.9,628.3,273.2,625.8,264.8Z" transform="translate(0 -0.73)"/>
        <path class="cntct-2" d="M597.8,307.4h0c-.4,0-.6-.3-.6-.7h0a336.1,336.1,0,0,0-2.2-71.6c0-.4.2-.7.6-.7a.75.75,0,0,1,.7.5,338.91,338.91,0,0,1,2.2,71.9.73.73,0,0,1-.7.6Z" transform="translate(0 -0.73)"/>
        <path class="cntct-2" d="M598.7,256.2c-.2,0-.3-.1-.5-.2a.56.56,0,0,1,0-.9h0a51.45,51.45,0,0,0,9.5-14.1.67.67,0,0,1,1.2.6,57,57,0,0,1-9.8,14.5A1,1,0,0,1,598.7,256.2Z" transform="translate(0 -0.73)"/>
        <path class="cntct-2" d="M598.7,273.4a.37.37,0,0,1-.3-.1,43.8,43.8,0,0,1-12-11.1.74.74,0,0,1,.1-.9h0a.63.63,0,0,1,.9.1h0a41.57,41.57,0,0,0,11.7,10.8.65.65,0,0,1,.2.9.6.6,0,0,1-.6.3Z" transform="translate(0 -0.73)"/>
      </g>
    </g>
  </g>
  <path class="cntct-2" d="M25.4,384.1a16.15,16.15,0,0,0-10.9,7.4c-.7,1.1,1,2,1.7,1a14.15,14.15,0,0,1,9.7-6.4A1,1,0,0,0,25.4,384.1Z" transform="translate(0 -0.73)"/>
  <path class="cntct-2" d="M43.8,380.1a282.54,282.54,0,0,0,31-10.5c1.1-.5.6-2.4-.5-1.9a262.89,262.89,0,0,1-31,10.5,1,1,0,0,0-.4,1.4A.94.94,0,0,0,43.8,380.1Z" transform="translate(0 -0.73)"/>
  <path class="cntct-2" d="M108.3,406.3c1.6,6.2-3.6,10.6-8.7,12.9-1.1.5-.2,2.2,1,1.7,5.9-2.8,11.4-8,9.6-15.1a1,1,0,0,0-1.3-.5A1,1,0,0,0,108.3,406.3Z" transform="translate(0 -0.73)"/>
  <path class="cntct-2" d="M89.6,425.5c-5.6,1.3-11.3,2.5-16.8,4-3.4.9-6.5,2.2-8.8,5-.8,1,.6,2.4,1.4,1.4,2.8-3.6,7.1-4.3,11.2-5.3l13.5-3.2A1,1,0,0,0,89.6,425.5Z" transform="translate(0 -0.73)"/>
  <path class="cntct-2" d="M246.1,412.2c-2.9-3.6-7.7-4.9-11.9-6.3a141.52,141.52,0,0,0-18.1-4.7c-1.2-.2-1.8,1.6-.5,1.9a147.56,147.56,0,0,1,14.6,3.5c4.9,1.5,11.4,2.8,14.6,6.9C245.5,414.6,246.9,413.2,246.1,412.2Z" transform="translate(0 -0.73)"/>
  <path class="cntct-2" d="M34.6,346.6c-.2,2.2,2.2,2.6,3.8,3l11.4,3a.94.94,0,0,0,1-1,1.05,1.05,0,0,0-.5-.9c-1.4-.4-13.9-3-13.8-4.2S34.7,345.4,34.6,346.6Z" transform="translate(0 -0.73)"/>
  <path class="cntct-2" d="M543.3,322.5a17.13,17.13,0,0,0,5.5-.9c1.2-.4.7-2.3-.5-1.9a12,12,0,0,1-4.9.8,1.1,1.1,0,0,0-.8,1.2A.85.85,0,0,0,543.3,322.5Z" transform="translate(0 -0.73)"/>
  <path class="cntct-2" d="M580.4,317.9a164.39,164.39,0,0,0,19.5-5.1c3.5-1.1,6.7-2.2,8.2-5.8.5-1.2-1.4-1.7-1.9-.5-1.7,4.2-9,5.2-13,6.3-4.4,1.3-8.9,2.3-13.4,3.2C578.7,316.3,579.2,318.2,580.4,317.9Z" transform="translate(0 -0.73)"/>
  <path class="cntct-2" d="M471.8,376.3l60-1.5a1.1,1.1,0,0,0,.8-1.2,1.09,1.09,0,0,0-.8-.8l-60,1.5a1.1,1.1,0,0,0-.8,1.2A1.09,1.09,0,0,0,471.8,376.3Z" transform="translate(0 -0.73)"/>
  <path class="cntct-2" d="M544.9,373.3l11.8-1.8c1.2-.2.7-2.1-.5-1.9l-11.8,1.8C543.2,371.6,543.7,373.5,544.9,373.3Z" transform="translate(0 -0.73)"/>
  <path class="cntct-2" d="M567,369.7l4.8-1.9c1.2-.5.7-2.3-.5-1.9l-4.8,1.9C565.3,368.2,565.8,370.1,567,369.7Z" transform="translate(0 -0.73)"/>
  <path class="cntct-2" d="M578.3,362.3a4.45,4.45,0,0,0-.4-3c-.6-1.1-2.3-.1-1.7,1a2.51,2.51,0,0,1,.2,1.5,1,1,0,1,0,1.8,1,4.33,4.33,0,0,1,.1-.5Z" transform="translate(0 -0.73)"/>
  <g>
    <path class="cntct-2" d="M360.6,317.1c-.2-1.7-.2-3.5-1.3-4.8-1.9-2.3-5.3-1.8-7.7-.5a8.5,8.5,0,0,0-4.1,5.4,3.18,3.18,0,0,0-1.4.2c-6.9,1.8-14.1,4-21.2,4.7-5.8.6-12.2-.4-15.1-6a31.76,31.76,0,0,1-2.5-9c-.5-2.8-.9-5.6-1.4-8.3,4.6-1.4,8.9-3.3,12.4-6.6,7.3-6.8,7.1-17.4,4.7-27.1.1-.1.3-.1.4-.2s-4.6-13.3-7.4-19.1c-8.4-23.9-33.8-49-33.8-49-7.2-4.5-14.1-5.8-19.6-3.3a14.34,14.34,0,0,0-3.7-3.7,47.6,47.6,0,0,0,8.4-24.2c.3-4.4.2-9.8-1.6-13.7-2.3-5-6.8-5.2-11-5.5-9.6-.8-21.2-2.5-29.6,5.3a11.61,11.61,0,0,0-3.8,6.9c-.2,1.2,3.6,4.6,7.7,8.1-.9,2.3-.9,4.8-.6,7.8.5,5.5,1.9,18.8,6.6,22.3s8.9,2.5,11.3.9c.3-.2.7-.5,1.3-.9.1.1.2.3.3.4.4.5.8,1.2,1.3,1.8a3.4,3.4,0,0,0,.1,1c0,.2.1.4.1.6s.1.6.1.9l-1.2.9a21.47,21.47,0,0,0-3.1,2.7c-2.5,1.6-6.2,7.1-10.6,10.8-5.9,5.1-11.6,9-12.5,10.3-.2.3.2,1.5,1,2.8-5.9,4.3-29.5,19.5-40.5,19.9-3.6-1.9-7.5-.4-11.4,0-2.4.3-1.3,2.5,1.2,2.6,1.9.1,1.7-.1,3.3.5l-.1.1c-2.1,4.1-3.4,3.5-9,6s0,3.9,2.5,3.9c17.2-1.2,11.6-3.4,22.1-6.2,3.9-1.2,29.8-10.3,39-18.1l1.3,1.3c3.7,3.4,3.7,3.4,9.3-4.3a65.19,65.19,0,0,0,7.3-10.7,25,25,0,0,1,2.8,5.8c.5,1.8,2.4,5.6,5,10.4-2.7,2.8-7,5.8-13.8,7.7-8,2.1-16.3,5.4-24.7,6.5-.2,0-.4.1-.6.1a19.38,19.38,0,0,0-9-1.5c-1.6.1-3.1.6-3.5,1.4s.3,1.5,1.8,1.9c.2.1.8.3.2,0l.6.2.2.1c.2.1.6.1.8.2-.1-.1-.4.4.3-.1,0,0-.1.2,0,.2s-.1.1-.1.1h0c-1.3.7-5.1,3.2-6.3,3.7-4.1,1.7-9.1,1.4-5.9,3.9,4.2,3.3,11,2.9,15.5,1,4-1.7,3.3-2.4,6.6-2.7a151.88,151.88,0,0,0,26-4.4c8.5-2.4,11.1-1.8,18-5.8.2-.1.3-.2.5-.3,4,7.2,8,14.7,10.7,20.2a1.42,1.42,0,0,0-.2.6c-5.1,2-9.8,3.7-13.4,4.9a103.14,103.14,0,0,0-14.2,5.8c-4.4,2.3-8.3,5.1-10.3,10.3-1.9,4.8-2.1,10.2-2.3,15.4a156.25,156.25,0,0,0,.4,18.1c.4,6,1.1,12,1.8,18,.5,4.2.9,8.7,3.3,11.8a15.2,15.2,0,0,1-5.7,2.8c-6.3,1.6-13,.8-19.3,2.6H213a8.64,8.64,0,0,0,.2,5.5c1.5,3.9,5.5,5.1,9.3,4.8,5.1-.3,10.2-.9,15.3-1.4,2.5-.2,4.9-.5,7.4-.8,2.1-.3,4.4-.4,6.1-1.8,2.6-2.2,2.2-5.8.9-8.7-.4-7.4-.7-14.8-.4-22.2.3-7.6,1.1-16.7,4.7-23.6a21.26,21.26,0,0,1,2.5-5c4.2-6,11.4-7.9,18.1-8.8l1.2,6c2.2,10,4.5,20.3,8,30,1.5,4.1,3.9,7.8,8,9.6,3.6,1.6,7.6,1.6,11.4,1.1a147.84,147.84,0,0,0,30-7.4c4-1.5,8.5-3.2,12-6-2.5,2.5-5.6,5.3-5.9,6-1.6,4.3,2.2,6.9,6.1,7.2,10.2.7,12.6-9.8,13-14C361,329.5,360.7,318.1,360.6,317.1Z" transform="translate(0 -0.73)"/>
    <g class="cntct-9">
      <path class="cntct-45" d="M265.6,151.9c-2.3-5-6.8-5.2-11-5.5-9.6-.8-21.2-2.5-29.6,5.3a11.61,11.61,0,0,0-3.8,6.9c-.4,2.6,16,14,17.1,16.8,2.8,7.1,16.5,19.6,19.1,16.3a47.55,47.55,0,0,0,9.8-26.1C267.4,161.1,267.3,155.8,265.6,151.9Z" transform="translate(0 -0.73)"/>
      <path class="cntct-46" d="M360.6,317.1c-.2-1.6-.2-3.5-1.3-4.8-1.9-2.3-5.4-1.8-7.7-.5a8.66,8.66,0,0,0-4.4,7.1,3.4,3.4,0,0,0,.1,1,11.38,11.38,0,0,1,2.8,3,12.1,12.1,0,0,0,.1,1.9,35,35,0,0,1,.2,5.6c-.1,1.7-8.4,8.5-8.9,9.7-1.6,4.3,2.2,6.9,6.1,7.2,10.2.7,12.6-9.8,13-14C361,329.5,360.7,318.1,360.6,317.1Z" transform="translate(0 -0.73)"/>
      <path class="cntct-47" d="M251.5,359.4a10.89,10.89,0,0,0-9.2-5.4,2.54,2.54,0,0,0-1.2.2,15.46,15.46,0,0,1-8.8,6c-6.3,1.6-13,.8-19.3,2.6h-.3a8.64,8.64,0,0,0,.2,5.5c1.5,3.9,5.5,5.1,9.3,4.8,5.1-.3,10.2-.9,15.3-1.4,2.5-.2,4.9-.5,7.4-.8,2.1-.3,4.4-.4,6.1-1.8C254,366.7,253.3,362.4,251.5,359.4Z" transform="translate(0 -0.73)"/>
      <g>
        <path class="cntct-48" d="M218.1,256.3c-.1-2.4-6-3.6-10.6-3.3-1.6.1-3.1.6-3.5,1.4s.3,1.5,1.8,1.9c.2.1.8.3.2,0l.6.2.2.1c.2.1.6.1.8.2-.1-.1-.4.4.3-.1h0s-.1.2,0,.2-.1.1-.1.1l.3.3a7.07,7.07,0,0,0,2.6,1.3C213.9,259.5,218.2,257.9,218.1,256.3Z" transform="translate(0 -0.73)"/>
        <path class="cntct-49" d="M212.8,268.4c.1,0,.2.1.3.1h0C213,268.5,212.9,268.4,212.8,268.4Z" transform="translate(0 -0.73)"/>
      </g>
      <path class="cntct-50" d="M229.8,229.7c-1.1-1.1-4.3-2.8-6-1.5-3.6,2.9-29.7,20.2-41.5,20.6-3.6-1.9-7.5-.4-11.4,0-2.4.3-1.3,2.5,1.2,2.6,1.9.1,1.7-.1,3.3.5l-.1.1c-2.1,4.1-3.4,3.5-8.9,6s0,3.9,2.5,3.9c17.2-1.1,11.6-3.4,22.1-6.2,4.4-1.4,35.6-12.3,41.3-20.6C233.8,233.1,232,230.1,229.8,229.7Z" transform="translate(0 -0.73)"/>
      <path class="cntct-51" d="M248.5,222.9c1.1-2,2-4.1,2.9-6.1s2-4.2,1.9-6.4c-.1-2.4-4.9-5.5-6.7-5.8-2.4-.6-6.8,6.6-12.2,11.2-5.9,5.1-11.6,9-12.5,10.3-.5.8,2.8,6.1,4.2,7.5,1.7,1.8,3.4,3.7,5.2,5.4,3.7,3.4,3.7,3.4,9.3-4.3A67.5,67.5,0,0,0,248.5,222.9Z" transform="translate(0 -0.73)"/>
      <path class="cntct-52" d="M350.5,318.9a4.08,4.08,0,0,0-4.6-1.5c-6.9,1.8-14.1,4-21.2,4.7-5.8.6-12.2-.4-15.1-6a31.76,31.76,0,0,1-2.5-9c-.6-3.7-1.3-7.4-1.9-11.1-1.2-7.4-2.5-14.8-3.7-22.3-.6-3.3-1.1-6.8-4.3-8.7-2.6-1.6-5.9-1.4-8.8-1.3-6,.2-12.7,2.5-15.3,8.4-2.5,5.6.2,12.8,2,18.7.9,5.4,1.9,10.7,3.1,16.1,2.2,10,4.5,20.3,8,30,1.5,4.1,3.9,7.8,8,9.6,3.6,1.6,7.6,1.6,11.4,1.1a147.84,147.84,0,0,0,30-7.4c4.7-1.8,10.1-3.8,13.6-7.5S353.6,323.1,350.5,318.9Z" transform="translate(0 -0.73)"/>
      <path class="cntct-53" d="M315.8,245.8c-8.4-23.9-33.8-49-33.8-49-7.8-4.9-15.3-6-21-2.6l-.3.3c-4.1,2.3-6.4,2.8-12.6,7.7,0,0-6.7,4.4-5.5,9.5,1.8,7.7,6.9,14,8.1,18,2,6.8,23.5,42.6,25.2,49.8.2.9,12.8,6.1,47.3-14.7C323.1,264.9,318.5,251.6,315.8,245.8Z" transform="translate(0 -0.73)"/>
      <path class="cntct-54" d="M251.2,185c-1.6-.8-3-1.4-4.6-.5a12.61,12.61,0,0,0-4,4.6,2,2,0,0,0,.5,2.2l.5.4c1.3,1.8,2.7,3.6,4.1,5.4.4.5.8,1.2,1.3,1.8a3.4,3.4,0,0,0,.1,1c0,.2.1.4.1.6.2,2,.8,4,2.5,5.1,2.9,1.9,6.8.8,8.9-1.6a12,12,0,0,0,2.4-9.1C262.4,191.3,252.8,185.8,251.2,185Z" transform="translate(0 -0.73)"/>
      <path class="cntct-55" d="M262.1,175.5c0-2.7-1-5.1-3.4-6.3a2.71,2.71,0,0,0-2.6.5l-.3.2c-1,.7-.8,6.3-.9,7.9-.2,2.7,1.2,5.1,4,3.9C261.1,180.6,262.1,177.8,262.1,175.5Z" transform="translate(0 -0.73)"/>
      <path class="cntct-56" d="M254.6,167.5a12.58,12.58,0,0,0-5.6-5.8c-1.2-.7-.2-1.1-1.7-1.6a29,29,0,0,0-7.6-1.8,9.66,9.66,0,0,0-7.7,3.3c-3.8,4.1-4.3,7.5-3.8,12.6.5,5.5,1.9,18.8,6.6,22.3s8.9,2.5,11.3.9c1.6-1.1,11.4-8.4,10.9-16.1C256.5,176.1,257,172.6,254.6,167.5Z" transform="translate(0 -0.73)"/>
      <path class="cntct-57" d="M257,163.6a1.82,1.82,0,0,0-3.3-.5,18.21,18.21,0,0,0-1.5-2.7c-1.1-1.5-6.2-3.3-6-2.7,1.6,4.4,4.6,8.6,4.8,12.4s-.8,8.4-.7,10.4,3.5-.5,4-1.6c.9-1.8,1.2-4.6,1.5-5.8C256.8,170.4,257.8,166.6,257,163.6Z" transform="translate(0 -0.73)"/>
      <path class="cntct-58" d="M321.3,260.1c-2.2-6.7-44.4,12-62,17.9a103.14,103.14,0,0,0-14.2,5.8c-4.4,2.3-8.3,5.1-10.3,10.3-1.9,4.8-2.1,10.2-2.3,15.4a156.25,156.25,0,0,0,.4,18.1c.4,6,1.1,12,1.8,18,.7,5.6,1.2,11.5,6.2,14.4a16.11,16.11,0,0,0,11.2,1.3c-.4-7.7-.7-15.4-.5-23s1.1-16.7,4.7-23.6a21.26,21.26,0,0,1,2.5-5c5.1-7.2,14.5-8.6,22.2-9.3,6.9-.6,14.3-.5,21.7-.7,5.7-1.4,11.2-3.4,15.5-7.4C326.8,284.2,324.9,271,321.3,260.1Z" transform="translate(0 -0.73)"/>
      <path class="cntct-59" d="M259.9,233.5s-2.8,10.3-18,14.3c-8,2.1-16.3,5.4-24.7,6.5-3.9.5-5.6.5-9.1,2.4-.8.4-5.3,3.4-6.6,3.9-4.1,1.7-9.1,1.4-5.9,3.9,4.2,3.3,11,2.9,15.5,1,4-1.7,3.3-2.4,6.6-2.7a151.88,151.88,0,0,0,26-4.4c8.6-2.5,11.1-1.8,18-5.8s11.1-16.2,15.3-20.9C278.3,230.2,259.9,233.5,259.9,233.5Z" transform="translate(0 -0.73)"/>
      <path class="cntct-60" d="M283,203.6c-4-4-10.7-4.3-13.9.8-.1.2-.2.3-.2.5-2.1,2.9-2.9,7.1-4,10.3-.9,2.5-1.9,5.1-2.9,7.6-1.6,3.2-3.2,6.5-4.7,9.7-1.1,2.3,8.9,7.6,12.4,8.1,3.1.5,7,1.8,9.7-.4,2.4-2,3.8-5.7,5-8.5a41.22,41.22,0,0,0,3-9.8C288.4,216,287.7,208.2,283,203.6Z" transform="translate(0 -0.73)"/>
      <path class="cntct-61" d="M275.5,241.9a22.17,22.17,0,0,1-4.4-.6l-1.4-.3c-2.9-.5-11.1-4.5-12.5-7.3a1.5,1.5,0,0,1-.1-1.3c.8-1.6,3.7-5.3,6.7-9.3s6.3-8.1,6.7-9.4c.1-.2.2-.3.4-.2s.3.2.2.4h0c-.5,1.4-3.5,5.3-6.8,9.5-2.9,3.7-5.9,7.6-6.6,9.1a.62.62,0,0,0,.1.7c1.2,2.4,9,6.4,12,6.9l1.5.3c2.8.5,5.9,1.1,8-.6s3.4-4.7,4.5-7.4l.4-.9a36.21,36.21,0,0,0,2.9-9.7,19.83,19.83,0,0,0,.3-3.5.32.32,0,0,1,.3-.3h0a.32.32,0,0,1,.3.3h0c0,1.2-.2,2.4-.3,3.5a41.22,41.22,0,0,1-3,9.8l-.4.9c-1.1,2.6-2.5,5.9-4.7,7.7A4.92,4.92,0,0,1,275.5,241.9Z" transform="translate(0 -0.73)"/>
    </g>
  </g>
  <path class="cntct-62" d="M160.6,378.8h-1.3a.81.81,0,0,1-.7-.9c0-.4.3-.6.7-.7h2a.8.8,0,0,1,0,1.6Zm5.3-.1a.75.75,0,1,1-.1-1.5l1.9-.1a.75.75,0,0,1,.1,1.5l-1.9.1Zm-11,0h0l-2-.1a.75.75,0,0,1,.1-1.5c.6,0,1.3.1,1.9.1a.79.79,0,0,1,.8.8.86.86,0,0,1-.8.7Zm17.5-.3a.85.85,0,0,1-.8-.7.77.77,0,0,1,.7-.8h0l1.9-.1a.75.75,0,0,1,.1,1.5h0l-1.9.1Zm-24-.1h0l-2-.2a.81.81,0,0,1-.7-.9.77.77,0,0,1,.8-.7h0l1.9.2a.77.77,0,0,1,.7.8h0a.71.71,0,0,1-.7.8Zm30.5-.5a.71.71,0,0,1-.7-.8.68.68,0,0,1,.7-.7l1.9-.2a.75.75,0,1,1,.1,1.5l-2,.2Zm-37-.2h-.1l-1.9-.3a.75.75,0,0,1,.1-1.5h.1l1.9.2a.77.77,0,0,1,.7.8.79.79,0,0,1-.8.8Zm43.4-.5a.71.71,0,0,1-.7-.8.67.67,0,0,1,.6-.7l1.9-.3a.81.81,0,0,1,.2,1.6h0l-2,.2Zm-49.8-.6h-.1c-.6-.1-1.3-.3-1.9-.4a.72.72,0,0,1-.5-.9.87.87,0,0,1,.9-.6l1.9.4a.78.78,0,0,1,.6.9,1.15,1.15,0,0,1-.9.6Zm56.3-.4a.79.79,0,0,1-.8-.8.87.87,0,0,1,.6-.8l1.9-.3a.78.78,0,0,1,.9.6h0a.78.78,0,0,1-.6.9l-2,.4Zm6.4-1.1a.79.79,0,0,1-.8-.8.87.87,0,0,1,.6-.8l1.9-.4a.71.71,0,0,1,.9.6.68.68,0,0,1-.6.9h-.1l-1.9.5Zm-69,0H129c-.6-.2-1.3-.3-1.9-.5a.72.72,0,0,1-.5-.9v-.1a.72.72,0,0,1,.9-.5h.1l1.9.5a.72.72,0,0,1,.5.9h0a.84.84,0,0,1-.8.6Zm75.4-1.2a.71.71,0,0,1-.7-.8.86.86,0,0,1,.6-.7l1.9-.4a.79.79,0,0,1,.5,1.5h-.1l-1.9.4Zm-81.6-.7h-.3a13.36,13.36,0,0,1-1.8-.7.83.83,0,0,1-.5-1h0a.83.83,0,0,1,1-.5c.6.2,1.2.5,1.8.7a.83.83,0,0,1,.5,1,.75.75,0,0,1-.7.5Zm87.9-.6a.79.79,0,0,1-.8-.8c0-.4.2-.7.6-.7l1.9-.4a.76.76,0,0,1,.3,1.5l-2,.4c.1-.1,0-.1,0,0Zm6.3-1.5a.76.76,0,0,1-.8-.6.78.78,0,0,1,.6-.9l1.9-.5a.72.72,0,0,1,.9.5h0a.71.71,0,0,1-.6.9l-1.9.5c.1.1,0,0-.1.1Zm-100.3-.2a.37.37,0,0,1-.3-.1c-.6-.3-1.2-.5-1.8-.8a.76.76,0,0,1,.6-1.4h0c.6.3,1.2.5,1.8.8a.73.73,0,0,1,.4,1c-.1.3-.4.4-.7.5Zm106.7-1.3a.76.76,0,0,1-.8-.6.71.71,0,0,1,.6-.9l1.9-.5a.78.78,0,0,1,.9.6.72.72,0,0,1-.5.9l-1.9.5ZM111.1,368a.6.6,0,0,1-.4-.1,9.5,9.5,0,0,1-1.7-1,.74.74,0,1,1,.7-1.3h0c.6.3,1.1.6,1.7.9a.78.78,0,0,1,.3,1,1.47,1.47,0,0,1-.6.5Zm118.7-.2a.76.76,0,0,1-.8-.6.72.72,0,0,1,.5-.9h0l1.9-.5a.78.78,0,0,1,.9.6.76.76,0,0,1-.5.9l-2,.5Zm6.3-1.7a.84.84,0,0,1-.8-.6.83.83,0,0,1,.5-1h0l1.9-.5a.72.72,0,0,1,.9.5h0a.88.88,0,0,1-.5,1H238l-1.9.5c-.1,0-.2,0-.2-.1Zm-130.6-1.4c-.2,0-.3,0-.4-.1-.6-.4-1.1-.7-1.6-1.1-.4-.2-.4-.7-.2-1.1a.89.89,0,0,1,1.1-.2l1.6,1.1a.71.71,0,0,1,.2,1.1,2.12,2.12,0,0,1-.7.3Zm136.9-.4a.75.75,0,0,1-.7-.5.83.83,0,0,1,.5-1h0l1.9-.5a.79.79,0,0,1,.5,1.5l-1.9.5Zm6.2-1.9a.75.75,0,0,1-.7-.5.83.83,0,0,1,.5-1h0l1.9-.6a.73.73,0,0,1,1,.4v.1a.82.82,0,0,1-.4,1h-.1l-1.9.6Zm-148.4-1.5c-.2,0-.3-.1-.5-.2l-1.5-1.2a.78.78,0,1,1,1-1.2l1.5,1.2a.78.78,0,0,1,.1,1.1l-.6.3Zm154.6-.4a.75.75,0,0,1-.7-.5.88.88,0,0,1,.5-1h0l1.9-.6a.88.88,0,0,1,1,.5c.2.4-.1.8-.5,1h0l-1.9.6q-.3-.15-.3,0Zm6.2-2a.75.75,0,0,1-.7-.5.73.73,0,0,1,.4-1h0l1.8-.6a.79.79,0,0,1,.5,1.5l-2,.6h0ZM95,356.9c-.2,0-.3-.1-.5-.2-.5-.4-1-.9-1.5-1.3a.78.78,0,0,1,0-1.1h0a.91.91,0,0,1,1.1-.1h0c.5.4.9.8,1.4,1.2a.79.79,0,0,1,.1,1.1.55.55,0,0,1-.6.4Zm172.1-.7a.86.86,0,0,1-.8-.8.75.75,0,0,1,.5-.7l1.8-.7a.82.82,0,0,1,1,.4h0a.73.73,0,0,1-.4,1h0l-1.8.7C267.3,356.2,267.2,356.3,267.1,356.2Zm6.1-2.2a.79.79,0,0,1-.8-.8.75.75,0,0,1,.5-.7l1.8-.7a.76.76,0,0,1,.6,1.4h-.1c-.6.2-1.2.5-1.8.7,0,.1-.1.1-.2.1ZM90.4,352.3a.86.86,0,0,1-.6-.3c-.4-.5-.8-1-1.2-1.6a.73.73,0,0,1,.2-1.1.79.79,0,0,1,1.1.1h0l1.2,1.5A.79.79,0,0,1,91,352C90.7,352.2,90.6,352.3,90.4,352.3Zm188.9-.6a.75.75,0,0,1-.7-.5.73.73,0,0,1,.4-1l1.8-.7a.76.76,0,0,1,.6,1.4h-.1l-1.8.7C279.5,351.7,279.4,351.7,279.3,351.7Zm6-2.3a.79.79,0,0,1-.8-.8.75.75,0,0,1,.5-.7l1.8-.7a.76.76,0,1,1,.6,1.4l-1.8.7a.37.37,0,0,0-.3.1ZM86.6,347a.75.75,0,0,1-.7-.4c-.3-.6-.7-1.1-1-1.7a.79.79,0,0,1,1.3-.9.1.1,0,0,0,.1.1,15.05,15.05,0,0,0,1,1.7.83.83,0,0,1-.3,1.1C86.9,347,86.8,347,86.6,347Zm204.7-.1a.75.75,0,0,1-.7-.5.73.73,0,0,1,.4-1l1.8-.8a.74.74,0,0,1,.7,1.3.1.1,0,0,0-.1.1l-1.8.8c-.1,0-.2.1-.3.1Zm6-2.6a.86.86,0,0,1-.8-.8.84.84,0,0,1,.4-.7l1.8-.8a.76.76,0,0,1,.6,1.4h0l-1.8.8c0,.1-.1.1-.2.1Zm6-2.7a.75.75,0,0,1-.7-.5.73.73,0,0,1,.4-1l1.8-.8a.76.76,0,0,1,.6,1.4h0l-1.8.8c-.1.1-.2.2-.3.1Zm-219.7-.4a.75.75,0,0,1-.7-.5c-.3-.6-.5-1.2-.8-1.8a.76.76,0,0,1,1.4-.6v.1c.3.6.5,1.2.8,1.8a.73.73,0,0,1-.4,1c-.1,0-.2.1-.3,0Zm225.6-2.3a.84.84,0,0,1-.7-.4.73.73,0,0,1,.4-1l1.8-.8a.76.76,0,1,1,.6,1.4l-1.8.9a.37.37,0,0,0-.3-.1Zm5.8-2.8a.79.79,0,0,1-.8-.8.84.84,0,0,1,.4-.7l1.8-.9a.74.74,0,0,1,.7,1.3H317l-1.8.9c.1.2-.1.2-.2.2Zm-233.7-.9a.75.75,0,0,1-.7-.5c-.2-.6-.4-1.2-.6-1.9a.88.88,0,0,1,.5-1h0a1,1,0,0,1,1,.4v.1l.6,1.8a.88.88,0,0,1-.5,1h0a.77.77,0,0,1-.3.1Zm239.5-2.1a.84.84,0,0,1-.7-.4.78.78,0,0,1,.3-1l1.7-.9a.74.74,0,0,1,.7,1.3l-1.7.9a.19.19,0,0,1-.3.1Zm5.8-3a.79.79,0,0,1-.8-.8,1,1,0,0,1,.4-.7l1.7-.9a.78.78,0,0,1,1,.3.69.69,0,0,1-.3,1l-1.7.9c-.1.2-.2.2-.3.2ZM79.4,329c-.4,0-.7-.2-.7-.6-.2-.6-.3-1.3-.5-1.9a.76.76,0,1,1,1.5-.3h0a12.86,12.86,0,0,1,.4,1.9.71.71,0,0,1-.6.9Zm252.9-2a.75.75,0,0,1-.7-.4.69.69,0,0,1,.3-1h0l1.7-1a.74.74,0,0,1,.7,1.3h0l-1.7,1C332.6,327,332.4,327,332.3,327Zm5.7-3.2a.79.79,0,0,1-.8-.8.75.75,0,0,1,.4-.7,15.05,15.05,0,0,0,1.7-1,.83.83,0,0,1,1.1.3c.3.4.1.8-.3,1.1h0l-1.7,1a.76.76,0,0,1-.4.1ZM78.1,322.6a.87.87,0,0,1-.8-.6c-.1-.6-.2-1.3-.3-1.9a1,1,0,0,1,.7-.9c.4,0,.8.2.8.6.1.6.2,1.3.3,1.9a.78.78,0,0,1-.7.9Zm265.5-2.1a.75.75,0,0,1-.7-.4.83.83,0,0,1,.3-1.1h0l1.7-1a.69.69,0,0,1,1,.3h0a.91.91,0,0,1-.2,1.1h0l-1.7,1a.76.76,0,0,1-.4.1Zm5.5-3.4a.55.55,0,0,1-.6-.4.91.91,0,0,1,.2-1.1h0l1.6-1a.79.79,0,1,1,.9,1.3h0l-1.7,1c-.1.2-.2.2-.4.2Zm-272-1a.85.85,0,0,1-.8-.7c-.1-.6-.1-1.3-.2-2a.76.76,0,1,1,1.5-.3v.1c.1.6.1,1.3.2,1.9s-.2,1-.7,1Zm277.5-2.5a.79.79,0,0,1-.8-.8.75.75,0,0,1,.4-.7l1.6-1.1a.91.91,0,0,1,1.1.2c.3.3.1.8-.2,1.1l-1.6,1.1a.65.65,0,0,1-.5.2ZM360,310a.79.79,0,0,1-.8-.8.91.91,0,0,1,.3-.7l1.6-1.1a.78.78,0,0,1,1,1.2l-.1.1-1.6,1.1a.4.4,0,0,1-.4.2Zm-283.3-.3a.85.85,0,0,1-.8-.7c0-.6-.1-1.3-.1-2a.79.79,0,0,1,.8-.8.77.77,0,0,1,.8.7h0a12.1,12.1,0,0,0,.1,1.9,1,1,0,0,1-.8.9Zm288.7-3.3a.71.71,0,0,1-.6-.3.81.81,0,0,1,.2-1.1h0l1.6-1.1a.79.79,0,0,1,.9,1.3h0l-1.6,1.1a4.33,4.33,0,0,0-.5.1ZM76.6,303.2h0a.86.86,0,0,1-.8-.8v-2a.86.86,0,0,1,.8-.8h0a.86.86,0,0,1,.8.8v1.9c-.1.5-.4.9-.8.9Zm294.1-.6a.86.86,0,0,1-.8-.8.71.71,0,0,1,.3-.6l1.6-1.1a.78.78,0,0,1,1,1.2h-.1l-1.6,1.1a.76.76,0,0,1-.4.2Zm5.2-3.9a.79.79,0,0,1-.8-.8.71.71,0,0,1,.3-.6l1.5-1.2a.78.78,0,1,1,1,1.2h0l-1.5,1.2c-.2.1-.3.2-.5.2Zm-299.1-2h0a.79.79,0,0,1-.8-.8c0-.6.1-1.3.1-2a.77.77,0,0,1,.8-.7h0a.77.77,0,0,1,.7.8c0,.6-.1,1.3-.1,1.9a.71.71,0,0,1-.7.8Zm304.2-2a.71.71,0,0,1-.6-.3.79.79,0,0,1,.1-1.1l1.5-1.2a.78.78,0,1,1,1,1.2l-1.5,1.2c-.1.2-.3.2-.5.2Zm5.1-4.1a.79.79,0,0,1-.8-.8.71.71,0,0,1,.3-.6l1.5-1.2a.78.78,0,0,1,1,1.2l-1.5,1.2c-.1.2-.3.2-.5.2Zm-308.7-.4h0a.79.79,0,0,1-.8-.8h0a13.55,13.55,0,0,0,.2-2,.81.81,0,1,1,1.6.2,13.66,13.66,0,0,0-.2,1.9.85.85,0,0,1-.8.7Zm313.7-3.8a.86.86,0,0,1-.6-.3.79.79,0,0,1,.1-1.1h0l1.5-1.3a.78.78,0,0,1,1.1,1.1l-.1.1-1.5,1.3c-.2.2-.3.3-.5.2ZM78.3,283.8h0a.78.78,0,0,1-.7-.9h0c.1-.6.2-1.3.3-1.9a.76.76,0,0,1,1.5.3c-.1.6-.2,1.3-.3,1.9A.87.87,0,0,1,78.3,283.8ZM396,282.2a.79.79,0,0,1-.8-.8.86.86,0,0,1,.3-.6l1.5-1.3a.78.78,0,1,1,1.2,1l-.2.2-1.5,1.3A.76.76,0,0,1,396,282.2Zm4.8-4.4a.86.86,0,0,1-.6-.3.78.78,0,0,1,0-1.1h0l1.4-1.3a.78.78,0,1,1,1.2,1l-.1.1-1.4,1.3a.55.55,0,0,1-.5.3Zm-321.2-.4h-.2a.78.78,0,0,1-.6-.9c.1-.6.3-1.3.4-1.9a.78.78,0,0,1,.9-.6h0a.78.78,0,0,1,.6.9,12.86,12.86,0,0,0-.4,1.9.73.73,0,0,1-.7.6Zm326-4a1.42,1.42,0,0,1-.6-.2.78.78,0,0,1,0-1.1l1.4-1.4a.79.79,0,0,1,1.1.1.91.91,0,0,1,0,1l-1.4,1.4a1.69,1.69,0,0,1-.5.2ZM81.1,271.1h-.2a.65.65,0,0,1-.5-.9h0c.2-.6.3-1.3.5-1.9a.65.65,0,0,1,.9-.5h.1a.72.72,0,0,1,.5,1h0a10.55,10.55,0,0,0-.5,1.9A.89.89,0,0,1,81.1,271.1Zm329-2.3a.86.86,0,0,1-.8-.8.76.76,0,0,1,.2-.5l1.4-1.4a.78.78,0,1,1,1.1,1.1l-1.4,1.4a.76.76,0,0,1-.5.2ZM83,264.9h-.2a.72.72,0,0,1-.5-.9v-.1c.2-.6.4-1.2.6-1.9a.79.79,0,0,1,1.5.5l-.6,1.8A.94.94,0,0,1,83,264.9Zm331.6-.8a.76.76,0,0,1-.5-.2.78.78,0,0,1,0-1.1h0l1.3-1.4a.78.78,0,0,1,1.1,1.1l-1.3,1.4a.85.85,0,0,1-.6.2Zm4.5-4.7a.76.76,0,0,1-.5-.2.91.91,0,0,1-.1-1.1h0l1.3-1.4a.91.91,0,0,1,1.1-.1h0a.79.79,0,0,1,.1,1.1h0l-1.3,1.5a1.42,1.42,0,0,1-.6.2Zm-333.9-.6h-.3a.73.73,0,0,1-.4-1c.2-.6.5-1.2.7-1.8a.79.79,0,1,1,1.5.5.1.1,0,0,1-.1.1l-.7,1.8a.84.84,0,0,1-.7.4Zm338.2-4.3a.76.76,0,0,1-.5-.2.79.79,0,0,1-.1-1.1h0l.3-.4.9-1.1a.79.79,0,0,1,1.1-.1.78.78,0,0,1,.1,1.1h0a5.24,5.24,0,0,1-1,1.1l-.3.4a.55.55,0,0,1-.5.3ZM87.8,252.8a.37.37,0,0,1-.3-.1.82.82,0,0,1-.4-1,14.17,14.17,0,0,0,.8-1.8.76.76,0,0,1,1.4.6,14.17,14.17,0,0,0-.8,1.8C88.3,252.6,88.1,252.8,87.8,252.8Zm339.7-3.3c-.2,0-.3-.1-.5-.1a.78.78,0,0,1-.1-1.1c.4-.5.8-1,1.2-1.6a.81.81,0,1,1,1.4.8l-.1.1c-.4.5-.8,1.1-1.2,1.6a1.08,1.08,0,0,1-.7.3ZM90.6,246.9a.37.37,0,0,1-.3-.1.69.69,0,0,1-.3-1c.3-.6.6-1.2.9-1.7a.74.74,0,1,1,1.3.7c-.3.6-.6,1.1-.9,1.7A.75.75,0,0,1,90.6,246.9Zm340.7-2.7c-.2,0-.3,0-.4-.1-.4-.2-.4-.7-.2-1.1h0l1.1-1.6a.62.62,0,0,1,1-.2h0a.71.71,0,0,1,.2,1.1h0l-1.1,1.6a.71.71,0,0,1-.6.3Zm-337.5-3a.6.6,0,0,1-.4-.1.8.8,0,0,1-.3-1.1h0c.3-.6.7-1.1,1-1.7a.8.8,0,0,1,1.1-.3h0a.8.8,0,0,1,.3,1.1c-.3.6-.7,1.1-1,1.7A.87.87,0,0,1,93.8,241.2Zm341-2.5a.6.6,0,0,1-.4-.1.8.8,0,0,1-.3-1.1h0l1-1.7a.71.71,0,0,1,1-.3.78.78,0,0,1,.3,1l-1,1.7a.74.74,0,0,1-.6.5Zm-337.5-3c-.2,0-.3,0-.4-.1-.4-.2-.4-.7-.2-1.1h0l1.1-1.6a.79.79,0,0,1,1.1-.1c.3.2.3.6.2,1-.4.5-.7,1.1-1.1,1.6C97.8,235.6,97.5,235.8,97.3,235.7ZM438,233.1a.6.6,0,0,1-.4-.1.78.78,0,0,1-.3-1l.9-1.7a.71.71,0,0,1,1-.3.8.8,0,0,1,.3,1.1l-.9,1.7A.85.85,0,0,1,438,233.1Zm-253.8-.5h0a12.75,12.75,0,0,1-2-.1.75.75,0,1,1,.1-1.5h0c.6,0,1.3.1,1.9.1a.79.79,0,0,1,.8.8.77.77,0,0,1-.8.7Zm4.5-.3a.85.85,0,0,1-.8-.7.78.78,0,0,1,.6-.9h0c.6-.1,1.2-.2,1.9-.3a.76.76,0,1,1,.3,1.5,10.08,10.08,0,0,1-2,.4Zm-10.9-.6h-.2c-.6-.2-1.3-.4-1.9-.6a.79.79,0,0,1,.5-1.5h.1l1.8.6a.78.78,0,0,1,.5,1,1,1,0,0,1-.8.5Zm17.2-.9a.79.79,0,0,1-.8-.8.75.75,0,0,1,.5-.7l1.8-.6a.88.88,0,0,1,1,.5.81.81,0,0,1-.4.9,10.66,10.66,0,0,1-1.9.7.14.14,0,0,1-.2,0Zm-94-.3c-.2,0-.3-.1-.5-.2a.91.91,0,0,1-.2-1.1h0c.4-.5.8-1,1.2-1.6a.78.78,0,0,1,1.2,1l-1.2,1.5c0,.3-.2.4-.5.4Zm70.9-1.5c-.2,0-.3,0-.4-.1-.6-.4-1.1-.8-1.6-1.2a.78.78,0,0,1,1-1.2h0a14.31,14.31,0,0,0,1.5,1.1c.4.2.4.7.2,1.1a.91.91,0,0,1-.7.3Zm28.9-1a.79.79,0,0,1-.8-.8.71.71,0,0,1,.3-.6c.5-.4.9-.8,1.4-1.2a.78.78,0,1,1,1.1,1.1h0a10.7,10.7,0,0,1-1.6,1.4A1,1,0,0,1,200.8,228Zm240.3-.7a.76.76,0,0,1-.4-.1.69.69,0,0,1-.3-1c.3-.6.6-1.1.9-1.7a.74.74,0,0,1,1.3.7c-.3.6-.6,1.2-.9,1.7a.62.62,0,0,1-.6.4Zm-336-1.9a.76.76,0,0,1-.5-.2.79.79,0,0,1-.1-1.1h0a17.38,17.38,0,0,1,1.3-1.5.79.79,0,0,1,1.3.9l-.1.1a17.38,17.38,0,0,1-1.3,1.5.71.71,0,0,1-.6.3Zm62-.7a.86.86,0,0,1-.6-.3c-.4-.5-.9-1-1.3-1.6a.73.73,0,0,1,.2-1.1h0a.81.81,0,0,1,1.1.2h0l1.2,1.5a.79.79,0,0,1-.1,1.1c-.2.1-.3.2-.5.2Zm37.3-1.9h-.1a.78.78,0,0,1-.6-.9,5.7,5.7,0,0,0,.1-1.3v-.4a.76.76,0,0,1,1.5-.3v.6a8.6,8.6,0,0,1-.1,1.6,1,1,0,0,1-.8.7ZM444,221.5a.37.37,0,0,1-.3-.1.82.82,0,0,1-.4-1l.9-1.8a.76.76,0,0,1,1.4.6v.1l-.9,1.8A.67.67,0,0,1,444,221.5Zm-334.5-.9a.76.76,0,0,1-.5-.2.78.78,0,0,1,0-1.1h0a18.48,18.48,0,0,1,1.4-1.4.78.78,0,1,1,1.1,1.1,16.61,16.61,0,0,0-1.3,1.4,2.54,2.54,0,0,1-.7.2Zm54-1.3a1,1,0,0,1-.7-.4l-.9-1.8a.76.76,0,1,1,1.4-.6c.3.6.6,1.2.8,1.7a.78.78,0,0,1-.3,1c-.1,0-.2.1-.3.1Zm39.8-2.8a1,1,0,0,1-.7-.4,14,14,0,0,0-1-1.6.81.81,0,0,1,.2-1.1h0a.8.8,0,0,1,1.1.2c.4.6.7,1.1,1.1,1.7a.78.78,0,0,1-.3,1c-.2.1-.3.2-.4.2Zm-89.1-.4a.86.86,0,0,1-.6-.3.78.78,0,0,1,0-1.1h0c.5-.4,1-.9,1.5-1.3a.79.79,0,0,1,1.1.1h0a.71.71,0,0,1-.1,1.1h0a17.88,17.88,0,0,0-1.4,1.3c-.2.1-.4.1-.5.2Zm332.7-.4a.37.37,0,0,1-.3-.1.82.82,0,0,1-.4-1l.9-1.8a.76.76,0,0,1,1.4.6l-.9,1.8c-.2.3-.4.5-.7.5ZM161,213.3a.75.75,0,0,1-.7-.5c-.2-.6-.4-1.3-.6-1.9a.73.73,0,0,1,1.4-.4l.6,1.8a.83.83,0,0,1-.5,1H161Zm-41.9-1.4a.71.71,0,0,1-.6-.3.79.79,0,0,1,.1-1.1h0c.5-.4,1.1-.8,1.6-1.2a.83.83,0,0,1,1.1.3.8.8,0,0,1-.2,1l-1.5,1.2a4.33,4.33,0,0,1-.5.1Zm80.2-.5a.76.76,0,0,1-.5-.2,17.88,17.88,0,0,0-1.4-1.3.78.78,0,1,1,1-1.2h0c.5.4,1,.9,1.5,1.3a.78.78,0,0,1,0,1.1.86.86,0,0,1-.6.3Zm250-1.1h-.4a.79.79,0,0,1-.8-.8h0c0-.4.4-.7.8-.8h.1v-.1l.9-1.8a.74.74,0,0,1,1.3.7l-.5,1.1a.85.85,0,0,1,.8.7.77.77,0,0,1-.7.8h0a3.89,3.89,0,0,1-1.5.2Zm-5-.5h-.2l-2-.6a.73.73,0,0,1-.4-1,.74.74,0,0,1,.9-.4,12.09,12.09,0,0,0,1.8.5.78.78,0,0,1,.6.9h0c0,.4-.3.6-.7.6Zm11-.1a.77.77,0,0,1-.8-.7.87.87,0,0,1,.6-.8c.6-.1,1.3-.3,1.9-.4a.76.76,0,0,1,.3,1.5,14.16,14.16,0,0,1-2,.4Zm-330.8-1.6a.86.86,0,0,1-.8-.8.6.6,0,0,1,.3-.6l1.7-1a.69.69,0,0,1,1,.3.83.83,0,0,1-.3,1.1h0c-.6.3-1.1.7-1.6,1Zm337-.1a.79.79,0,0,1-.8-.8.75.75,0,0,1,.5-.7,13.36,13.36,0,0,0,1.8-.7.76.76,0,0,1,.6,1.4c-.6.2-1.2.5-1.9.7C461.7,208,461.6,208,461.5,208Zm-267.4-.6c-.2,0-.3,0-.4-.1-.5-.3-1.1-.7-1.6-1a.81.81,0,1,1,.8-1.4h0a16.29,16.29,0,0,1,1.7,1.1.62.62,0,0,1,.2,1h0a.75.75,0,0,1-.7.4Zm-34.8-.4a.87.87,0,0,1-.8-.6c-.1-.6-.2-1.3-.3-1.9a.76.76,0,1,1,1.5-.3h0c.1.6.2,1.3.3,1.9a.78.78,0,0,1-.7.9Zm279.2-.1a.76.76,0,0,1-.5-.2,19.2,19.2,0,0,1-1.4-1.5.78.78,0,1,1,1.2-1h0a15.38,15.38,0,0,0,1.2,1.3.79.79,0,0,1,.1,1.1.6.6,0,0,1-.6.3Zm29-1.6a.79.79,0,0,1-.8-.8,1,1,0,0,1,.4-.7c.6-.3,1.1-.6,1.7-.9a.81.81,0,1,1,.8,1.4h0c-.6.3-1.1.7-1.7,1-.2,0-.3.1-.4,0Zm-337.4-.4a.84.84,0,0,1-.7-.4.78.78,0,0,1,.3-1l1.8-.9a.74.74,0,0,1,.7,1.3h-.1l-1.7.9a.37.37,0,0,1-.3.1Zm58.4-.7a.37.37,0,0,1-.3-.1,9.82,9.82,0,0,0-1.8-.8.76.76,0,1,1,.6-1.4,14.17,14.17,0,0,0,1.8.8.73.73,0,0,1,.4,1,.75.75,0,0,1-.7.5Zm264.2-.2a.76.76,0,0,1-.4-.1.78.78,0,0,1-.3-1l.9-1.7a.74.74,0,1,1,1.3.7c-.3.6-.6,1.1-.9,1.7a.55.55,0,0,1-.6.4ZM136,202.3a.79.79,0,0,1-.8-.8.75.75,0,0,1,.5-.7c.6-.2,1.2-.5,1.8-.7a.73.73,0,0,1,1,.4h0a.83.83,0,0,1-.5,1h0a13.36,13.36,0,0,0-1.8.7C136.2,202.3,136.1,202.3,136,202.3Zm337-.5a.79.79,0,0,1-.8-.8.71.71,0,0,1,.3-.6,17.41,17.41,0,0,0,1.4-1.2.78.78,0,0,1,1.1,1.1c-.5.4-1,.9-1.5,1.3a.55.55,0,0,1-.5.2Zm-290.5-.1a.37.37,0,0,1-.3-.1l-1.8-.6a.79.79,0,0,1,.5-1.5c.6.2,1.3.4,1.9.6a.83.83,0,0,1,.5,1A.76.76,0,0,1,182.5,201.7Zm252.7-.2a.75.75,0,0,1-.7-.5,14.62,14.62,0,0,1-.5-2,.77.77,0,0,1,.7-.8.76.76,0,0,1,.8.6c.1.6.3,1.2.4,1.8a.83.83,0,0,1-.5,1h-.2v-.1Zm-276.7-.9a.85.85,0,0,1-.8-.7,12.75,12.75,0,0,1-.1-2,.75.75,0,1,1,1.5-.1h0c0,.6.1,1.3.1,1.9a.78.78,0,0,1-.7.9Zm-16.3-.4a.73.73,0,0,1-.7-.6.83.83,0,0,1,.5-1h0c.6-.2,1.3-.3,1.9-.5a.79.79,0,0,1,.5,1.5h-.1a18,18,0,0,0-1.9.5c0,.1-.1.1-.2.1Zm34.1-.4h-.2l-1.9-.4a.76.76,0,0,1,.3-1.5c.6.1,1.3.3,1.9.4a.78.78,0,0,1,.6.9.56.56,0,0,1-.7.6Zm-27.7-1a.87.87,0,0,1-.8-.6.78.78,0,0,1,.6-.9h0c.6-.1,1.3-.2,2-.3a.77.77,0,0,1,.8.7.76.76,0,0,1-.6.8l-1.9.3Zm21.3-.2h-.1l-1.9-.3a.81.81,0,0,1-.7-.9c0-.5.4-.7.9-.7l2,.3a.81.81,0,0,1-.2,1.6Zm286-.3a.6.6,0,0,1-.4-.1.8.8,0,0,1-.3-1.1,15.05,15.05,0,0,0,1-1.7.79.79,0,1,1,1.3.9c-.3.5-.7,1.1-1,1.6-.1.3-.3.5-.6.4ZM155,198a.75.75,0,0,1-.1-1.5h0a13.4,13.4,0,0,1,2-.1.76.76,0,1,1,.3,1.5H157a13.4,13.4,0,0,0-2,.1Zm8.4-.1h0l-1.9-.1a.79.79,0,0,1-.8-.8h0a.79.79,0,0,1,.8-.8h0a13.4,13.4,0,0,1,2,.1.79.79,0,0,1,.8.8c0,.5-.3.8-.9.8Zm314-.8a.6.6,0,0,1-.4-.1.71.71,0,0,1-.3-1h0a7.74,7.74,0,0,0,.7-1.6.72.72,0,0,1,.9-.5h.1a.78.78,0,0,1,.5,1h0a6.63,6.63,0,0,1-.9,1.9.71.71,0,0,1-.6.3Zm-43-2h0a.71.71,0,0,1-.7-.8h0c0-.6.1-1.3.1-2a.78.78,0,0,1,.9-.6c.4.1.7.4.6.8a12.75,12.75,0,0,0-.1,1.9.86.86,0,0,1-.8.7Zm-276.2-1h0a.79.79,0,0,1-.8-.8h0a14.08,14.08,0,0,1,.1-2,.77.77,0,0,1,.8-.7.71.71,0,0,1,.7.8,12.1,12.1,0,0,1-.1,1.9.66.66,0,0,1-.7.8ZM459.5,193c-.2,0-.3-.1-.5-.2a.78.78,0,0,1-.1-1.1,10,10,0,0,1,1.3-1.5.91.91,0,0,1,1.1-.1h0a.91.91,0,0,1,.1,1.1h0a17.41,17.41,0,0,0-1.2,1.4A.75.75,0,0,1,459.5,193Zm18-2a.6.6,0,0,1-.6-.3,3.45,3.45,0,0,0-1.2-1.2.78.78,0,0,1,1-1.2,5.72,5.72,0,0,1,1.5,1.6.81.81,0,0,1-.2,1.1h-.5Zm-42.2-2.4h-.2a.78.78,0,0,1-.6-.9h0a13.32,13.32,0,0,1,.5-1.9.76.76,0,1,1,1.5.3h0a12.86,12.86,0,0,0-.4,1.9.94.94,0,0,1-.8.6Zm28.9-.1a.79.79,0,0,1-.8-.8.75.75,0,0,1,.4-.7,16.18,16.18,0,0,1,1.8-1,.76.76,0,0,1,.6,1.4h0a5.07,5.07,0,0,0-1.6.9.4.4,0,0,1-.4.2Zm-305.6-.9h0a.79.79,0,0,1-.8-.8c.1-.7.1-1.3.2-2a.77.77,0,0,1,.8-.7h0a.88.88,0,0,1,.7.9h0c-.1.6-.1,1.3-.2,1.9.1.4-.3.7-.7.7Zm313.6-.2h-.3a11.63,11.63,0,0,0-1.8-.4.81.81,0,0,1,.2-1.6h0a14.62,14.62,0,0,1,2,.5.83.83,0,0,1,.5,1h0a.56.56,0,0,1-.6.5Zm-35.2-5h-.2a.83.83,0,0,1-.5-1h0c.2-.6.4-1.2.7-1.9a.83.83,0,0,1,1-.5h0a.83.83,0,0,1,.5,1l-.6,1.8a1.21,1.21,0,0,1-.9.6Zm-277.5-1.2h-.1a.78.78,0,0,1-.6-.9,12.86,12.86,0,0,1,.4-1.9.78.78,0,0,1,.9-.6h0a.78.78,0,0,1,.6.9c-.1.6-.3,1.3-.4,1.9a1,1,0,0,1-.8.6Zm279.8-4.9a.37.37,0,0,1-.3-.1.73.73,0,0,1-.4-1c.3-.6.5-1.2.8-1.8a.79.79,0,0,1,1.5.5c0,.1,0,.1-.1.2l-.8,1.8a.84.84,0,0,1-.7.4ZM161,174.8h-.2a.78.78,0,0,1-.6-.9h0l.5-1.9a.79.79,0,0,1,1.5.5h0a10.55,10.55,0,0,0-.5,1.9A.84.84,0,0,1,161,174.8Zm281-4.4a.86.86,0,0,1-.8-.8.37.37,0,0,1,.1-.3l.9-1.8a.71.71,0,0,1,1-.3.81.81,0,0,1,.3,1c-.3.6-.6,1.2-.9,1.7A.56.56,0,0,1,442,170.4Zm-279.1-1.8a.37.37,0,0,1-.3-.1.83.83,0,0,1-.5-1c.2-.6.5-1.2.7-1.8a.76.76,0,1,1,1.4.6h0c-.2.6-.5,1.2-.7,1.8a.56.56,0,0,1-.6.5Zm282.1-4a.6.6,0,0,1-.4-.1.8.8,0,0,1-.3-1.1c.3-.6.6-1.1.9-1.7a.74.74,0,1,1,1.3.7h0c-.3.6-.6,1.1-.9,1.7a.63.63,0,0,1-.6.5Zm-279.6-2a.86.86,0,0,1-.8-.8.37.37,0,0,1,.1-.3l.9-1.8a.8.8,0,0,1,1.1-.3.78.78,0,0,1,.3,1c-.3.6-.6,1.1-.9,1.7a.75.75,0,0,1-.7.5Zm282.7-3.7a.6.6,0,0,1-.4-.1.71.71,0,0,1-.3-1h0l1-1.7a.71.71,0,0,1,1-.3.8.8,0,0,1,.3,1.1h0l-1,1.7c0,.2-.3.3-.6.3Zm-279.6-2a.6.6,0,0,1-.4-.1.8.8,0,0,1-.3-1.1h0c.4-.6.7-1.1,1.1-1.7.2-.4.7-.4,1.1-.2s.4.7.2,1.1c-.4.5-.7,1.1-1.1,1.6,0,.3-.3.4-.6.4Zm282.8-3.7a.6.6,0,0,1-.4-.1.78.78,0,0,1-.3-1l.9-1.7a.76.76,0,0,1,1.4.6.1.1,0,0,1-.1.1l-.9,1.7c-.1.3-.3.5-.6.4Zm-279-1.6a.76.76,0,0,1-.5-.2.78.78,0,0,1-.1-1.1h0c.4-.5.9-1,1.3-1.5a.79.79,0,0,1,1.1.1,1,1,0,0,1,.1.9,8.64,8.64,0,0,1-1.3,1.4.55.55,0,0,1-.6.4Zm282.1-4.1a.76.76,0,0,1-.4-.1.78.78,0,0,1-.3-1l.9-1.7a.76.76,0,1,1,1.4.6v.1l-.9,1.7a.75.75,0,0,1-.7.4ZM176.8,147a.86.86,0,0,1-.6-.3.71.71,0,0,1,.1-1.1h0c.5-.4,1-.9,1.5-1.3a.78.78,0,1,1,1,1.2h0l-1.5,1.2A.55.55,0,0,1,176.8,147Zm280.7-5.2a.76.76,0,0,1-.4-.1.69.69,0,0,1-.3-1c.3-.6.6-1.2.9-1.7a.74.74,0,0,1,1.3.7c-.3.6-.6,1.2-.9,1.7a.82.82,0,0,1-.6.4Zm3-5.8a.76.76,0,0,1-.4-.1.69.69,0,0,1-.3-1l.9-1.7a.76.76,0,1,1,1.4.6v.1l-.9,1.8a1.08,1.08,0,0,1-.7.3Zm2.8-5.8a.37.37,0,0,1-.3-.1.82.82,0,0,1-.4-1l.8-1.8a.76.76,0,1,1,1.4.6v.1l-.8,1.8a.67.67,0,0,1-.7.4Zm2.8-5.9a.37.37,0,0,1-.3-.1.82.82,0,0,1-.4-1c.3-.6.5-1.2.8-1.8a.76.76,0,0,1,1.4.6l-.8,1.8c-.2.4-.4.5-.7.5Zm2.7-5.9a.37.37,0,0,1-.3-.1.82.82,0,0,1-.4-1c.3-.6.5-1.2.8-1.8a.76.76,0,0,1,1.4.6c-.3.6-.5,1.2-.8,1.8a1,1,0,0,1-.7.5Zm2.6-6a.37.37,0,0,1-.3-.1.73.73,0,0,1-.4-1l.8-1.8a.76.76,0,0,1,1.4.6l-.8,1.8a1,1,0,0,1-.7.5Zm2.4-6h-.3a.73.73,0,0,1-.4-1l.7-1.8a.79.79,0,0,1,1.5.5v.1l-.7,1.8a1.23,1.23,0,0,1-.8.4Zm2.4-6.1h-.3a.83.83,0,0,1-.5-1c.2-.6.5-1.2.7-1.8a.65.65,0,0,1,.9-.5c.4.2.7.5.5.9V98a13.36,13.36,0,0,1-.7,1.8.49.49,0,0,1-.6.5Zm2.2-6.1h-.3a.83.83,0,0,1-.5-1h0l.6-1.8a.83.83,0,0,1,1-.5h0a.83.83,0,0,1,.5,1h0l-.6,1.8a.71.71,0,0,1-.7.5Zm2-6.2h-.2a.83.83,0,0,1-.5-1h0c.2-.6.4-1.2.6-1.9a.83.83,0,0,1,1-.5h0a.78.78,0,0,1,.5,1h0c-.2.6-.4,1.2-.6,1.9A1,1,0,0,1,480.4,88Zm1.8-6.2a.79.79,0,0,1-.8-.8v-.2a13.32,13.32,0,0,0,.5-1.9.72.72,0,0,1,1-.5.65.65,0,0,1,.5.9h0a13.32,13.32,0,0,0-.5,1.9c0,.4-.3.6-.7.6Zm1.7-6.3h-.2a.78.78,0,0,1-.6-.9h0l.5-1.9a.76.76,0,1,1,1.5.3,13.32,13.32,0,0,1-.5,1.9.66.66,0,0,1-.7.6Zm1.4-6.3h-.2a.78.78,0,0,1-.6-.9c.1-.6.3-1.3.4-1.9a.88.88,0,0,1,.9-.7c.5,0,.7.4.7.9v.1a12.86,12.86,0,0,1-.4,1.9.87.87,0,0,1-.8.6Zm1.2-6.4h-.1a.73.73,0,0,1-.6-.9h0c.1-.7.2-1.3.3-1.9a.81.81,0,1,1,1.6.2h0c-.1.6-.2,1.3-.3,1.9a1.07,1.07,0,0,1-.9.7Zm.8-6.5h0c-.5-.1-.8-.4-.8-.8.1-.7.1-1.3.2-1.9a.75.75,0,1,1,1.5.1h0a15,15,0,0,1-.2,2c0,.4-.3.6-.7.6Zm.5-6.5h0a.71.71,0,0,1-.7-.8V47.1a.79.79,0,0,1,.8-.8h0a.79.79,0,0,1,.8.8v2c-.2.4-.5.8-.9.7Zm-.1-6.5a.85.85,0,0,1-.8-.7c0-.7-.1-1.3-.1-1.9a.77.77,0,0,1,.7-.8.87.87,0,0,1,.8.6,12.75,12.75,0,0,1,.1,2c.1.5-.2.8-.7.8Zm-.8-6.4a.87.87,0,0,1-.8-.6c-.1-.4-.1-.7-.2-1a.78.78,0,0,1,.6-.9h0a.78.78,0,0,1,.9.6c.1.3.1.7.2,1.1a.78.78,0,0,1-.6.9Z" transform="translate(0 -0.73)"/>
  <g>
    <path class="cntct-63" d="M95.8,255c-9-2.8-23.5,1-20.1,10.2S65,280.6,72,282.7s11.5.5,20.9,8.7S138.2,268.3,95.8,255Z" transform="translate(0 -0.73)"/>
    <g>
      <path class="cntct-64" d="M123.3,247.6c-5.6-6.6-14-11.4-22.7-11a34.63,34.63,0,0,0-36.9,17.8,32.59,32.59,0,0,0-5,9.6c-3.1,9.5-2.1,20.8,3.4,29.3a36.08,36.08,0,0,0,42.6,13.8,37.61,37.61,0,0,0,23.8-17.8C135.9,276,133.1,259.1,123.3,247.6Z" transform="translate(0 -0.73)"/>
      <path class="cntct-2" d="M75.6,247.8a.76.76,0,0,1-.5-.2.63.63,0,0,1,.1-.9h0a17.68,17.68,0,0,1,2.2-1.6.65.65,0,1,1,.7,1.1H78l-2.1,1.5C75.9,247.8,75.8,247.8,75.6,247.8Z" transform="translate(0 -0.73)"/>
      <path class="cntct-2" d="M60.3,277.6h0a.68.68,0,0,1-.7-.7h0c.7-9.4,3.8-17.8,9.1-24.3a.64.64,0,1,1,1,.8A41.37,41.37,0,0,0,60.9,277C61,277.3,60.7,277.6,60.3,277.6Z" transform="translate(0 -0.73)"/>
      <path class="cntct-2" d="M124.9,285.3h-.2a.75.75,0,0,1-.4-.9,33.48,33.48,0,0,0,2.4-11.7.58.58,0,0,1,.6-.6h0c.4,0,.6.3.6.7a35.32,35.32,0,0,1-2.5,12.1A.46.46,0,0,1,124.9,285.3Z" transform="translate(0 -0.73)"/>
      <path class="cntct-2" d="M99.5,304.8a.65.65,0,1,1-.1-1.3c.1,0,12.3-1.5,20.1-10.9a.63.63,0,0,1,.9-.1h0a.63.63,0,0,1,.1.9h0c-8.2,9.9-20.4,11.3-21,11.4Z" transform="translate(0 -0.73)"/>
    </g>
  </g>
  <g>
    <path class="cntct-65" d="M196,133.7c-4.4-1.8-17.6-1.9-22,2-3,2.6-6.7,6.2-8.6,8.2a3.21,3.21,0,0,0-.5,3.4l5.1,8.8a2.12,2.12,0,0,0,2.8.9c.1-.1.2-.1.3-.2L197,136C197.9,135.3,197.1,134.2,196,133.7Zm-15,6.1-10.2,9a.68.68,0,0,1-1-.1l-.1-.1-1-1.9a2.6,2.6,0,0,1,.3-2.8c1.6-1.9,4.6-5.2,6.5-6.3s4.3.3,5.4,1.2a.67.67,0,0,1,.1,1Z" transform="translate(0 -0.73)"/>
    <polygon class="cntct-66" points="170.7 156.87 198.2 132.97 198.8 133.77 171.4 157.67 170.7 156.87"/>
    <polygon class="cntct-67" points="171.1 146.37 179.6 139.07 180.2 139.77 171.8 147.17 171.1 146.37"/>
  </g>
  <g>
    <path class="cntct-2" d="M161.9,153.7a.68.68,0,0,1-.6-.4,16.66,16.66,0,0,1-1-6.3c0-.4.3-.6.7-.6s.6.3.6.7a14.4,14.4,0,0,0,.9,5.8.6.6,0,0,1-.4.8Z" transform="translate(0 -0.73)"/>
    <path class="cntct-2" d="M161.3,144h-.1a.62.62,0,0,1-.5-.8,25.4,25.4,0,0,1,2.1-6.6,21.52,21.52,0,0,1,5.4-6.9.65.65,0,0,1,.9.2.61.61,0,0,1-.1.8,18.79,18.79,0,0,0-5.1,6.4,23.15,23.15,0,0,0-2,6.3C161.9,143.8,161.6,144.1,161.3,144Z" transform="translate(0 -0.73)"/>
    <path class="cntct-2" d="M198.6,145.6h0c-.4,0-.6-.3-.6-.7h0a18.84,18.84,0,0,0-.7-5.8.67.67,0,0,1,1.3-.3,21.54,21.54,0,0,1,.8,6.2c-.2.3-.5.6-.8.6Z" transform="translate(0 -0.73)"/>
    <path class="cntct-2" d="M184.4,163.7a.67.67,0,0,1-.7-.6.75.75,0,0,1,.5-.7A18.75,18.75,0,0,0,196.3,152a10.64,10.64,0,0,0,.9-2.5.79.79,0,0,1,.8-.5h0a.68.68,0,0,1,.4.8,20,20,0,0,1-1,2.6,20.8,20.8,0,0,1-12.9,11.2C184.5,163.7,184.5,163.7,184.4,163.7Z" transform="translate(0 -0.73)"/>
    <path class="cntct-68" d="M197.3,129.9c-3.4-3.9-8.4-6.8-13.6-6.6A20.67,20.67,0,0,0,161.6,134a20,20,0,0,0-3,5.8,21,21,0,0,0,27.5,25.9A22.45,22.45,0,0,0,200.4,155C204.8,146.9,203.1,136.8,197.3,129.9Z" transform="translate(0 -0.73)"/>
  </g>
  <g>
    <polygon class="cntct-69" points="171.9 366.77 164.6 369.97 163.5 367.47 170.8 364.37 171.9 366.77"/>
    <path class="cntct-70" d="M163.2,371.8c-3.5,13.5-2.6,34.6,8.5,44.1a4.08,4.08,0,0,0,4,.3l22.4-9.6a3.66,3.66,0,0,0,2.5-3.2,38.53,38.53,0,0,0-2.6-13.9c-1.7-4.1-5.5-7.2-10.7-8.5l-6.3-1.5a2.83,2.83,0,0,1-1.8-1.4l-4.1-9.9a2.54,2.54,0,0,0-1.4-1.3h0a4.15,4.15,0,0,0-3.1.2l-5,2.1A4.4,4.4,0,0,0,163.2,371.8Z" transform="translate(0 -0.73)"/>
    <path class="cntct-71" d="M163.2,369.8l8.9-3.8a.81.81,0,0,0,.4-1.1h0l-1.8-3.6a.84.84,0,0,0-1.1-.4l-8.5,3.6a.73.73,0,0,0-.4,1l1.4,3.9a.9.9,0,0,0,1.1.4Z" transform="translate(0 -0.73)"/>
    <path class="cntct-72" d="M175.9,350.3c.8,2.3,4.1,10.3,8.9,12.6a.87.87,0,0,1,.4.9h0a.72.72,0,0,1-.9.5c-2-.5-7.4-2.2-10.2-6.7a.84.84,0,0,0-.7-.4l-5.6.2a.79.79,0,0,1-.8-.8.6.6,0,0,1,.1-.4c1.1-2,3.7-5.7,8-6.6A1.12,1.12,0,0,1,175.9,350.3Z" transform="translate(0 -0.73)"/>
    <path class="cntct-73" d="M174.6,345.4l2.6,6.1,3.5-2.2a1,1,0,0,0,.4-1.2l-1.2-3.1a1,1,0,0,0-1.3-.6Z" transform="translate(0 -0.73)"/>
    <path class="cntct-74" d="M159,352.4l-4,7.3a2.82,2.82,0,0,0-.3,2.2l.2.9a3,3,0,0,0,3.5,2.2l3.7-.8,6.9-3-.3-3.6,5.9-4.4,2.5-1.6-2.6-6.1-14.2,5.7A2.45,2.45,0,0,0,159,352.4Z" transform="translate(0 -0.73)"/>
    <path class="cntct-75" d="M161.3,353.5l1.4,7.8a1.43,1.43,0,0,1-1,1.6l-3.2.8a1.36,1.36,0,0,1-1.6-.8l-.4-1a1.29,1.29,0,0,1,.1-1.2l4.1-7.3c.1-.2.3-.2.5-.1A.35.35,0,0,1,161.3,353.5Z" transform="translate(0 -0.73)"/>
    <path class="cntct-76" d="M161.6,365.1h0c.2-.1.3,0,.4.1l1.5,3.6a.19.19,0,0,1-.1.3h-.1a.19.19,0,0,1-.3-.1l-1.5-3.6C161.4,365.2,161.5,365.1,161.6,365.1Z" transform="translate(0 -0.73)"/>
    <path class="cntct-77" d="M162.8,364.5h0c.2-.1.3,0,.4.1l1.5,3.6a.19.19,0,0,1-.1.3h-.1a.19.19,0,0,1-.3-.1l-1.5-3.6C162.6,364.7,162.7,364.6,162.8,364.5Z" transform="translate(0 -0.73)"/>
    <path class="cntct-78" d="M164,364h0c.2-.1.3,0,.4.1l1.5,3.6a.19.19,0,0,1-.1.3h-.1a.19.19,0,0,1-.3-.1l-1.5-3.6C163.8,364.2,163.8,364.1,164,364Z" transform="translate(0 -0.73)"/>
    <path class="cntct-79" d="M165.1,363.5h0c.2-.1.3,0,.4.1l1.5,3.6a.19.19,0,0,1-.1.3h-.1a.19.19,0,0,1-.3-.1l-1.5-3.6A.37.37,0,0,1,165.1,363.5Z" transform="translate(0 -0.73)"/>
    <path class="cntct-80" d="M166.3,363h0c.2-.1.3,0,.4.1l1.5,3.6a.19.19,0,0,1-.1.3H168a.19.19,0,0,1-.3-.1l-1.5-3.6C166.1,363.2,166.2,363.1,166.3,363Z" transform="translate(0 -0.73)"/>
    <path class="cntct-81" d="M167.5,362.5h0c.2-.1.3,0,.4.1l1.5,3.6a.19.19,0,0,1-.1.3h-.1a.19.19,0,0,1-.3-.1l-1.5-3.6C167.3,362.7,167.4,362.6,167.5,362.5Z" transform="translate(0 -0.73)"/>
    <path class="cntct-82" d="M168.6,362h0c.2-.1.3,0,.4.1l1.5,3.6a.19.19,0,0,1-.1.3h-.1a.19.19,0,0,1-.3-.1l-1.5-3.6A.37.37,0,0,1,168.6,362Z" transform="translate(0 -0.73)"/>
    <path class="cntct-83" d="M169.8,361.5h0c.2-.1.3,0,.4.1l1.5,3.6a.19.19,0,0,1-.1.3h-.1a.19.19,0,0,1-.3-.1l-1.5-3.6C169.6,361.7,169.7,361.6,169.8,361.5Z" transform="translate(0 -0.73)"/>
    <path class="cntct-84" d="M167.4,390.5a42.82,42.82,0,0,0,4.3,17.2,4.05,4.05,0,0,0,5.2,1.9l16-6.9a3.92,3.92,0,0,0,2.3-4.5l-1.6-7.4a3.87,3.87,0,0,0-2.9-3c-4.2-1.1-13-3-20.2-1.4A4.12,4.12,0,0,0,167.4,390.5Z" transform="translate(0 -0.73)"/>
  </g>
  <g>
    <path class="cntct-85" d="M219.3,344.1c-8.1-9.5-20.2-16.5-32.8-16-21.3-4.2-43.7,6.7-53.4,25.8a48.37,48.37,0,0,0-7.2,13.9c-4.5,13.8-3.1,30.1,4.9,42.4A51.78,51.78,0,0,0,166.7,433a50.83,50.83,0,0,0,25.6-2.7,54.19,54.19,0,0,0,34.4-25.8C237.5,385.1,233.5,360.6,219.3,344.1Z" transform="translate(0 -0.73)"/>
    <path class="cntct-2" d="M157.7,423.6h-.2a44,44,0,0,1-26.6-51.9.69.69,0,0,1,.8-.5h0a.69.69,0,0,1,.5.8h0A42.7,42.7,0,0,0,158,422.4a.68.68,0,0,1,.4.8C158.2,423.5,157.9,423.7,157.7,423.6Z" transform="translate(0 -0.73)"/>
    <path class="cntct-2" d="M218.9,401.2h-.2a.68.68,0,0,1-.4-.8c.1-.3.3-.7.4-1.1.4-1,.8-2.2,1-2.9a.67.67,0,1,1,1.3.3h0c-.3,1-.6,2-1,3-.2.4-.3.8-.4,1C219.5,401.1,219.2,401.3,218.9,401.2Z" transform="translate(0 -0.73)"/>
    <path class="cntct-2" d="M208.9,415.8a.55.55,0,0,1-.5-.3.74.74,0,0,1,.1-.9h0c3.1-2.3,5.9-6.3,7.9-9.5a.67.67,0,0,1,1.2.6.1.1,0,0,1-.1.1c-2.1,3.4-4.9,7.5-8.3,9.9C209.1,415.7,209,415.8,208.9,415.8Z" transform="translate(0 -0.73)"/>
    <path class="cntct-2" d="M221.6,390h0a.75.75,0,0,1-.7-.7h0a69,69,0,0,0,.1-20.8c-1-5.8-3.5-14.1-10-20.4a.64.64,0,1,1,.9-.9c6.8,6.6,9.4,15.1,10.4,21.1,1.1,6.2,1,13-.1,21.2A.56.56,0,0,1,221.6,390Z" transform="translate(0 -0.73)"/>
    <path class="cntct-2" d="M151.2,344.6a.76.76,0,0,1-.5-.2.75.75,0,0,1,0-.9h0a11.13,11.13,0,0,1,3.8-2.2.68.68,0,0,1,.8.4h0a.68.68,0,0,1-.4.8,10.91,10.91,0,0,0-3.3,1.9A.52.52,0,0,1,151.2,344.6Z" transform="translate(0 -0.73)"/>
    <path class="cntct-2" d="M134.9,362.3h-.2a.68.68,0,0,1-.4-.8h0a28.68,28.68,0,0,1,7.9-11,.56.56,0,0,1,.9,0h0a.75.75,0,0,1,0,.9h0a27.82,27.82,0,0,0-7.5,10.5A1.27,1.27,0,0,1,134.9,362.3Z" transform="translate(0 -0.73)"/>
  </g>
  <g>
    <g>
      <path class="cntct-86" d="M451.9,260.9a1.47,1.47,0,0,1-1.4,1.1H438.1a.94.94,0,0,1-1-1v-.1l.7-4a1.47,1.47,0,0,1,1.4-1.1h12.4a.94.94,0,0,1,1,1v.1Zm6-7.9a1,1,0,0,0-1-1.1H434.8a1.88,1.88,0,0,0-1.6,1.1l-15.1,50.7a1,1,0,0,0,.7,1.3c.1,0,.3.1.4,0h6a1.41,1.41,0,0,0,1.4-1.1l.8-4.7a1.39,1.39,0,0,1,1.4-1.1h17.6a.94.94,0,0,1,1,1v.1l-.8,4.7a1,1,0,0,0,.9,1.1h6.1a1.62,1.62,0,0,0,1.6-1.4Z" transform="translate(0 -0.73)"/>
      <path class="cntct-87" d="M455.1,261.7a1.06,1.06,0,0,1-1,1.2H441.6a1.24,1.24,0,0,1-1.3-1.2l-.3-4.3a1.06,1.06,0,0,1,1-1.2h12.5a1.24,1.24,0,0,1,1.3,1.2Zm4-8.6a1.43,1.43,0,0,0-1.5-1.2h-22a1.3,1.3,0,0,0-1.3,1.2l-2.4,55.4a1.45,1.45,0,0,0,1.4,1.5h6a1.11,1.11,0,0,0,1.1-1.1v-.1l-.4-5.2a1.06,1.06,0,0,1,1-1.2h18a1.3,1.3,0,0,1,1.3,1.2l.4,5.2A1.3,1.3,0,0,0,462,310h6a1.24,1.24,0,0,0,1.3-1.2v-.3Z" transform="translate(0 -0.73)"/>
      <path class="cntct-88" d="M457.8,295H442.6a2.47,2.47,0,0,1-2.1-1.2,2.36,2.36,0,0,1-.1-2.3l7.2-13.7a2.2,2.2,0,0,1,2-1.2,2.25,2.25,0,0,1,2.1,1.2l8,13.7a2.55,2.55,0,0,1,0,2.4A2,2,0,0,1,457.8,295Zm-8.1-16.8h0c-.1,0-.2.1-.3.2l-7.6,14.3a.3.3,0,0,0,0,.4.52.52,0,0,0,.4.2h15.9c.1,0,.2-.1.3-.2a.3.3,0,0,0,0-.4L450,278.4c0-.1-.2-.2-.3-.2Z" transform="translate(0 -0.73)"/>
      <path class="cntct-88" d="M456,292.1a.32.32,0,0,1-.3.3h-3.2a.35.35,0,0,0-.2.1.37.37,0,0,1-.3-.1h-6.4a.32.32,0,0,1-.3-.3h0a.32.32,0,0,1,.3-.3h6.1V290l-1-1.6-1-1.1-.5,1.1.5,1.6a.61.61,0,0,1-.3.7h-.2a.66.66,0,0,1-.5-.4l-.5-1.8v-.4l.8-1.7h0a1.88,1.88,0,0,1-.8.2,1.45,1.45,0,1,1-.1-2.9h0a1.37,1.37,0,0,1,1.4,1.4h0v.3l.4-.6v-1.7a.55.55,0,1,1,1.1-.1v2a.37.37,0,0,1-.1.3l-.7,1,1,1.1,1.3-1.1a.48.48,0,0,1,.7,0l1.6,1.6a.6.6,0,0,1,0,.8c-.1.1-.2.1-.4.1a.76.76,0,0,1-.4-.2l-1.2-1.2-1,.8.8,1.4c0,.1.1.2.1.3v2h2.9C455.9,291.9,456,292,456,292.1Z" transform="translate(0 -0.73)"/>
      <g>
        <path class="cntct-89" d="M439.3,268.6h.3l.3.1a.37.37,0,0,1,.3.1v.8l-.3-.1c-.1,0-.3-.1-.4-.1h-.4c-.1,0-.2.1-.3.1s-.2.2-.2.3a1.85,1.85,0,0,0,0,1.2c0,.1.1.2.2.3a.37.37,0,0,0,.3.1h.4l.4-.1.4-.1v.8l-.3.1-.3.1H439c-.1,0-.2-.1-.4-.1s-.3-.1-.4-.2l-.3-.3a.76.76,0,0,1-.2-.5,1.85,1.85,0,0,1,0-1.2c0-.2.1-.3.2-.5l.3-.3a.52.52,0,0,1,.4-.2c.1,0,.2-.1.4-.1Z" transform="translate(0 -0.73)"/>
        <path class="cntct-89" d="M442.6,271.4h-1.1l-.3.8h-.9l1.1-3.5h1.1l1.1,3.5h-.9Zm-.2-.6v-.3a9271896153422.4,9271896153422.4,0,0,1-.3-.9l-.1-.3a6.37,6.37,0,0,1-.2.7.37.37,0,0,1-.1.3c0,.1,0,.1-.1.2v.2l.8.1Z" transform="translate(0 -0.73)"/>
        <path class="cntct-89" d="M445.5,272.2a.75.75,0,0,1-.5-.1,1.38,1.38,0,0,1-.4-.3c-.1-.1-.2-.3-.3-.4a.9.9,0,0,1-.1-.5v-2.3h.9v2.6a.1.1,0,0,0,.1.1c.1,0,.2.1.3.1a.37.37,0,0,0,.3-.1c.1,0,.1-.1.1-.2v-2.6h.9v2.3a.75.75,0,0,1-.1.5,1.38,1.38,0,0,1-.3.4c-.1.1-.3.2-.4.3A.65.65,0,0,1,445.5,272.2Z" transform="translate(0 -0.73)"/>
        <path class="cntct-89" d="M449.5,268.6v.8h-.7v2.8h-.9v-2.8h-.8v-.8Z" transform="translate(0 -0.73)"/>
        <path class="cntct-89" d="M450.8,268.6v3.5h-.9v-3.5Z" transform="translate(0 -0.73)"/>
        <path class="cntct-89" d="M452.9,268.6h.3c.1,0,.2.1.3.1s.2.1.3.2l.3.3c.1.2.1.3.2.5s.1.4.1.6a1.27,1.27,0,0,1-.1.6c0,.2-.1.3-.2.5l-.3.3c-.1.1-.2.2-.3.2s-.2.1-.3.1h-.3a.9.9,0,0,1-.5-.1c-.2-.1-.4-.1-.5-.3a1.27,1.27,0,0,1-.4-.6,2.77,2.77,0,0,1,0-1.8,2.09,2.09,0,0,1,.4-.6,2.19,2.19,0,0,1,.5-.3C452.6,268.6,452.7,268.6,452.9,268.6Zm-.6,1.8v.4c0,.1.1.2.1.3a.22.22,0,0,0,.2.2.5.5,0,0,0,.6,0c.1-.1.2-.1.2-.2a.37.37,0,0,0,.1-.3V270a.37.37,0,0,0-.1-.3.22.22,0,0,0-.2-.2.64.64,0,0,0-.6,0c-.1.1-.2.1-.2.2s-.1.2-.1.3A.3.3,0,0,0,452.3,270.4Z" transform="translate(0 -0.73)"/>
        <path class="cntct-89" d="M457.8,272.2h-1.1l-1-2.4v2.4h-.8v-3.5H456l1,2.3v-2.4h.8Z" transform="translate(0 -0.73)"/>
      </g>
    </g>
    <g>
      <path class="cntct-90" d="M480.1,251.1c-6.8-8-17-13.8-27.5-13.4-17.9-3.5-36.7,5.7-44.9,21.6a43.51,43.51,0,0,0-6.1,11.7c-3.8,11.6-2.6,25.3,4.1,35.6a43.82,43.82,0,0,0,30.2,19.1,42.69,42.69,0,0,0,21.5-2.3,45.6,45.6,0,0,0,28.9-21.6C495.4,285.6,492,265,480.1,251.1Z" transform="translate(0 -0.73)"/>
      <path class="cntct-2" d="M457.7,244.6h0c-1.6-.2-3.1-.4-4.6-.5-.4,0-.6-.3-.6-.7h0c0-.4.3-.6.7-.6,1.5.1,3,.3,4.5.5a.62.62,0,0,1,.5.8C458.3,244.4,458,244.6,457.7,244.6Z" transform="translate(0 -0.73)"/>
      <path class="cntct-2" d="M439.1,244.5c-.4,0-.6-.3-.6-.7a.56.56,0,0,1,.5-.6,48.57,48.57,0,0,1,5.6-.5c.4,0,.7.2.7.6h0a.67.67,0,0,1-.6.7,35.32,35.32,0,0,0-5.6.5Z" transform="translate(0 -0.73)"/>
      <path class="cntct-2" d="M425.9,248.7a.86.86,0,0,1-.6-.3.65.65,0,0,1,.2-.9h0a32.18,32.18,0,0,1,5-2.3.63.63,0,1,1,.4,1.2h0a26.17,26.17,0,0,0-4.8,2.2A.35.35,0,0,1,425.9,248.7Z" transform="translate(0 -0.73)"/>
      <path class="cntct-2" d="M406.5,286.5a.65.65,0,0,1-.6-.6,34.92,34.92,0,0,1,.4-7.9,27,27,0,0,1,.8-3.9c.4-1.4.8-2.8,1.3-4.2a41.76,41.76,0,0,1,11.9-17.4.63.63,0,0,1,.9.1h0a.63.63,0,0,1-.1.9c-8.2,6.8-11.4,16.7-11.5,16.8-.5,1.4-.9,2.8-1.3,4.1s-.6,2.5-.8,3.7a39.37,39.37,0,0,0-.4,7.7c0,.4-.2.7-.6.7Z" transform="translate(0 -0.73)"/>
      <path class="cntct-2" d="M409,297.9a.68.68,0,0,1-.6-.4,35.88,35.88,0,0,1-1.4-4.3.67.67,0,0,1,1.3-.3,34.47,34.47,0,0,0,1.4,4.2.6.6,0,0,1-.4.8Z" transform="translate(0 -0.73)"/>
      <path class="cntct-2" d="M416.1,309.2c-.2,0-.3-.1-.5-.2a30.35,30.35,0,0,1-4.8-6.5.65.65,0,0,1,1.1-.7,34.34,34.34,0,0,0,4.6,6.2.56.56,0,0,1,0,.9h0A.37.37,0,0,1,416.1,309.2Z" transform="translate(0 -0.73)"/>
      <path class="cntct-2" d="M473.6,311.4a.76.76,0,0,1-.5-.2.63.63,0,0,1,.1-.9,30.24,30.24,0,0,0,3.1-3.1.64.64,0,0,1,.9-.1.76.76,0,0,1,.1.9,33.41,33.41,0,0,1-3.3,3.2C474,311.4,473.8,311.4,473.6,311.4Z" transform="translate(0 -0.73)"/>
      <path class="cntct-2" d="M480.2,304a.75.75,0,0,1-.7-.6.6.6,0,0,1,.1-.4,37.3,37.3,0,0,0,3.5-6.9.63.63,0,0,1,1.2.4h0a40.35,40.35,0,0,1-3.6,7.2A.55.55,0,0,1,480.2,304Z" transform="translate(0 -0.73)"/>
      <path class="cntct-2" d="M485.1,290.3h-.2a.68.68,0,0,1-.4-.8h0a35.74,35.74,0,0,0,.3-17.2c-1.2-5.5-3.4-10-6-15a.67.67,0,0,1,1.2-.6c2.6,5.1,4.9,9.7,6.1,15.4a38.68,38.68,0,0,1-.3,17.9A1.49,1.49,0,0,1,485.1,290.3Z" transform="translate(0 -0.73)"/>
    </g>
  </g>
  <g>
    <path class="cntct-91" d="M471.4,32.7a2.26,2.26,0,0,1-2.3-2.3,2.31,2.31,0,0,1,1.4-2.1l22.4-8.8a2.31,2.31,0,0,1,1.7,4.3h0l-22.4,8.8A2,2,0,0,1,471.4,32.7Z" transform="translate(0 -0.73)"/>
    <path class="cntct-92" d="M497.2,58a1.05,1.05,0,0,1-.9-.5L481.4,27a1,1,0,0,1,.7-1.2,1,1,0,0,1,1.1.4l14.9,30.5a1,1,0,0,1-.5,1.3Z" transform="translate(0 -0.73)"/>
  </g>
</svg>
