<svg xmlns="http://www.w3.org/2000/svg" xmlns:xlink="http://www.w3.org/1999/xlink" viewBox="0 0 637.98 448.39">
  <defs>
    <style>
      .cls-1, .cls-86 {
        opacity: 0.29;
      }

      .cls-1 {
        fill: url(#New_Gradient_Swatch_15);
      }

      .cls-2 {
        fill: #fff;
      }

      .cls-3 {
        fill: url(#New_Gradient_Swatch_38);
      }

      .cls-4 {
        fill: url(#linear-gradient);
      }

      .cls-5 {
        fill: url(#linear-gradient-2);
      }

      .cls-6 {
        fill: url(#New_Gradient_Swatch_3);
      }

      .cls-7 {
        fill: url(#New_Gradient_Swatch_2);
      }

      .cls-8 {
        fill: url(#New_Gradient_Swatch_8);
      }

      .cls-9 {
        fill: url(#New_Gradient_Swatch_8-2);
      }

      .cls-10 {
        fill: url(#New_Gradient_Swatch_8-3);
      }

      .cls-11 {
        fill: url(#New_Gradient_Swatch_8-4);
      }

      .cls-12 {
        fill: url(#New_Gradient_Swatch_8-5);
      }

      .cls-13 {
        fill: url(#New_Gradient_Swatch_8-6);
      }

      .cls-14 {
        fill: url(#New_Gradient_Swatch_8-7);
      }

      .cls-15 {
        fill: url(#New_Gradient_Swatch_8-8);
      }

      .cls-16 {
        fill: url(#New_Gradient_Swatch_8-9);
      }

      .cls-17 {
        fill: url(#New_Gradient_Swatch_8-10);
      }

      .cls-18 {
        fill: url(#New_Gradient_Swatch_2-2);
      }

      .cls-19 {
        fill: url(#New_Gradient_Swatch_32);
      }

      .cls-20 {
        fill: url(#linear-gradient-3);
      }

      .cls-21 {
        fill: url(#linear-gradient-4);
      }

      .cls-22 {
        fill: url(#linear-gradient-5);
      }

      .cls-23 {
        fill: url(#New_Gradient_Swatch_32-2);
      }

      .cls-24 {
        fill: url(#New_Gradient_Swatch_32-3);
      }

      .cls-25 {
        fill: url(#New_Gradient_Swatch_18);
      }

      .cls-26 {
        fill: url(#New_Gradient_Swatch_18-2);
      }

      .cls-27 {
        fill: url(#linear-gradient-6);
      }

      .cls-28 {
        fill: url(#linear-gradient-7);
      }

      .cls-29 {
        fill: url(#New_Gradient_Swatch_20);
      }

      .cls-30 {
        fill: url(#New_Gradient_Swatch_20-2);
      }

      .cls-31 {
        fill: url(#New_Gradient_Swatch_5);
      }

      .cls-32 {
        fill: url(#New_Gradient_Swatch_18-3);
      }

      .cls-33 {
        fill: url(#linear-gradient-8);
      }

      .cls-34 {
        fill: url(#New_Gradient_Swatch_5-2);
      }

      .cls-35 {
        fill: url(#New_Gradient_Swatch_5-3);
      }

      .cls-36 {
        fill: url(#linear-gradient-9);
      }

      .cls-37 {
        fill: url(#New_Gradient_Swatch_18-4);
      }

      .cls-38 {
        fill: url(#New_Gradient_Swatch_8-11);
      }

      .cls-39 {
        fill: url(#New_Gradient_Swatch_15-2);
      }

      .cls-40 {
        fill: url(#New_Gradient_Swatch_15-3);
      }

      .cls-41 {
        fill: url(#New_Gradient_Swatch_1);
      }

      .cls-42 {
        fill: url(#New_Gradient_Swatch_18-5);
      }

      .cls-43 {
        fill: url(#New_Gradient_Swatch_18-6);
      }

      .cls-44 {
        fill: url(#linear-gradient-10);
      }

      .cls-45 {
        fill: url(#linear-gradient-11);
      }

      .cls-46 {
        fill: url(#linear-gradient-12);
      }

      .cls-47 {
        fill: url(#New_Gradient_Swatch_19);
      }

      .cls-48 {
        fill: url(#New_Gradient_Swatch_5-4);
      }

      .cls-49 {
        fill: url(#New_Gradient_Swatch_19-2);
      }

      .cls-50 {
        fill: url(#linear-gradient-13);
      }

      .cls-51 {
        fill: url(#linear-gradient-14);
      }

      .cls-52 {
        fill: url(#linear-gradient-15);
      }

      .cls-53 {
        fill: url(#New_Gradient_Swatch_1-2);
      }

      .cls-54 {
        fill: url(#New_Gradient_Swatch_5-5);
      }

      .cls-55 {
        fill: url(#linear-gradient-16);
      }

      .cls-56 {
        fill: url(#New_Gradient_Swatch_19-3);
      }

      .cls-57 {
        fill: url(#linear-gradient-17);
      }

      .cls-58 {
        fill: #e992ec;
      }

      .cls-59 {
        fill: url(#linear-gradient-18);
      }

      .cls-60, .cls-64 {
        opacity: 0.31;
      }

      .cls-60 {
        fill: url(#New_Gradient_Swatch_15-4);
      }

      .cls-61 {
        fill: url(#linear-gradient-19);
      }

      .cls-62 {
        fill: url(#linear-gradient-20);
      }

      .cls-63 {
        fill: url(#linear-gradient-21);
      }

      .cls-64 {
        fill: url(#New_Gradient_Swatch_15-5);
      }

      .cls-65 {
        fill: url(#linear-gradient-22);
      }

      .cls-66 {
        fill: url(#linear-gradient-23);
      }

      .cls-67 {
        fill: url(#linear-gradient-24);
      }

      .cls-68 {
        fill: url(#linear-gradient-25);
      }

      .cls-69 {
        fill: url(#linear-gradient-26);
      }

      .cls-70 {
        fill: url(#linear-gradient-27);
      }

      .cls-71 {
        fill: url(#linear-gradient-28);
      }

      .cls-72 {
        fill: url(#linear-gradient-29);
      }

      .cls-73 {
        fill: url(#linear-gradient-30);
      }

      .cls-74 {
        fill: url(#linear-gradient-31);
      }

      .cls-75 {
        fill: url(#linear-gradient-32);
      }

      .cls-76 {
        fill: url(#linear-gradient-33);
      }

      .cls-77 {
        fill: url(#linear-gradient-34);
      }

      .cls-78 {
        fill: url(#linear-gradient-35);
      }

      .cls-79 {
        fill: url(#linear-gradient-36);
      }

      .cls-80 {
        fill: url(#linear-gradient-37);
      }

      .cls-81 {
        opacity: 0.37;
        fill: url(#New_Gradient_Swatch_15-6);
      }

      .cls-82 {
        fill: url(#Unbenannter_Verlauf_7);
      }

      .cls-83 {
        fill: url(#Unbenannter_Verlauf_7-2);
      }

      .cls-84 {
        fill: #3844a1;
      }

      .cls-85 {
        fill: #e62e2e;
      }

      .cls-86 {
        fill: url(#New_Gradient_Swatch_15-7);
      }

      .cls-87 {
        fill: url(#linear-gradient-38);
      }

      .cls-88 {
        fill: url(#linear-gradient-39);
      }
    </style>
    <linearGradient id="New_Gradient_Swatch_15" data-name="New Gradient Swatch 15" x1="493.59" y1="34.12" x2="525.96" y2="15.98" gradientUnits="userSpaceOnUse">
      <stop offset="0" stop-color="#b37cff"/>
      <stop offset="1" stop-color="#f895e7"/>
    </linearGradient>
    <linearGradient id="New_Gradient_Swatch_38" data-name="New Gradient Swatch 38" x1="450.22" y1="274.91" x2="452.17" y2="362.67" gradientUnits="userSpaceOnUse">
      <stop offset="0" stop-color="#9cfffb"/>
      <stop offset="1" stop-color="#9bfffa"/>
    </linearGradient>
    <linearGradient id="linear-gradient" x1="453.9" y1="384.58" x2="453.9" y2="252.01" gradientUnits="userSpaceOnUse">
      <stop offset="0" stop-color="#53d8ff"/>
      <stop offset="1" stop-color="#3840f7"/>
    </linearGradient>
    <linearGradient id="linear-gradient-2" x1="103.31" y1="479.95" x2="249.89" y2="208.11" gradientUnits="userSpaceOnUse">
      <stop offset="0" stop-color="#52f0c0"/>
      <stop offset="0.99" stop-color="#9f71fb"/>
    </linearGradient>
    <linearGradient id="New_Gradient_Swatch_3" data-name="New Gradient Swatch 3" x1="375.84" y1="257.52" x2="713.55" y2="258.77" gradientUnits="userSpaceOnUse">
      <stop offset="0" stop-color="#85ccff"/>
      <stop offset="1" stop-color="#9a76ff"/>
    </linearGradient>
    <linearGradient id="New_Gradient_Swatch_2" data-name="New Gradient Swatch 2" x1="492.59" y1="186.48" x2="492.59" y2="276.19" gradientUnits="userSpaceOnUse">
      <stop offset="0" stop-color="#53eac9"/>
      <stop offset="1" stop-color="#45aed8"/>
    </linearGradient>
    <linearGradient id="New_Gradient_Swatch_8" data-name="New Gradient Swatch 8" x1="338.58" y1="867.57" x2="338.58" y2="933.77" gradientTransform="translate(67.67 -696.83) rotate(-10.03)" gradientUnits="userSpaceOnUse">
      <stop offset="0" stop-color="#5ab6ff"/>
      <stop offset="1" stop-color="#2f68e3"/>
    </linearGradient>
    <linearGradient id="New_Gradient_Swatch_8-2" x1="-7114.92" y1="2777.75" x2="-7114.92" y2="2843.95" gradientTransform="matrix(-0.58, -0.81, 0.81, -0.58, -5886.16, -3992.74)" xlink:href="#New_Gradient_Swatch_8"/>
    <linearGradient id="New_Gradient_Swatch_8-3" x1="-5471.28" y1="-4787.71" x2="-5471.28" y2="-4721.51" gradientTransform="translate(-6013.87 3190.29) rotate(114.16)" xlink:href="#New_Gradient_Swatch_8"/>
    <linearGradient id="New_Gradient_Swatch_8-4" x1="557.01" y1="135.93" x2="554.63" y2="262.98" gradientTransform="matrix(1, 0, 0, 1, 0, 0)" xlink:href="#New_Gradient_Swatch_8"/>
    <linearGradient id="New_Gradient_Swatch_8-5" x1="558.68" y1="133.95" x2="555.57" y2="299.91" gradientTransform="matrix(1, 0, 0, 1, 0, 0)" xlink:href="#New_Gradient_Swatch_8"/>
    <linearGradient id="New_Gradient_Swatch_8-6" x1="296.94" y1="882.59" x2="296.94" y2="948.78" xlink:href="#New_Gradient_Swatch_8"/>
    <linearGradient id="New_Gradient_Swatch_8-7" x1="-7110.39" y1="2733.71" x2="-7110.39" y2="2799.91" gradientTransform="matrix(-0.58, -0.81, 0.81, -0.58, -5886.16, -3992.74)" xlink:href="#New_Gradient_Swatch_8"/>
    <linearGradient id="New_Gradient_Swatch_8-8" x1="-5435.46" y1="-4761.7" x2="-5435.46" y2="-4695.5" gradientTransform="translate(-6013.87 3190.29) rotate(114.16)" xlink:href="#New_Gradient_Swatch_8"/>
    <linearGradient id="New_Gradient_Swatch_8-9" x1="518.62" y1="157.97" x2="516.23" y2="285.02" gradientTransform="matrix(1, 0, 0, 1, 0, 0)" xlink:href="#New_Gradient_Swatch_8"/>
    <linearGradient id="New_Gradient_Swatch_8-10" x1="520.29" y1="155.8" x2="517.17" y2="321.85" gradientTransform="matrix(1, 0, 0, 1, 0, 0)" xlink:href="#New_Gradient_Swatch_8"/>
    <linearGradient id="New_Gradient_Swatch_2-2" x1="446.02" y1="232.28" x2="446.02" y2="61.75" xlink:href="#New_Gradient_Swatch_2"/>
    <linearGradient id="New_Gradient_Swatch_32" data-name="New Gradient Swatch 32" x1="-9572.95" y1="232.96" x2="-9583.7" y2="12.09" gradientTransform="matrix(-1, 0, 0, 1, -9395.6, 0)" gradientUnits="userSpaceOnUse">
      <stop offset="0" stop-color="#9f5699"/>
      <stop offset="1" stop-color="#202278"/>
    </linearGradient>
    <linearGradient id="linear-gradient-3" x1="365.75" y1="302.84" x2="365.75" y2="184.98" xlink:href="#linear-gradient"/>
    <linearGradient id="linear-gradient-4" x1="359" y1="219.51" x2="228.12" y2="228.96" gradientUnits="userSpaceOnUse">
      <stop offset="0" stop-color="#85ccff"/>
      <stop offset="0.38" stop-color="#8dabff"/>
      <stop offset="1" stop-color="#9a76ff"/>
    </linearGradient>
    <linearGradient id="linear-gradient-5" x1="355.1" y1="217.63" x2="263.03" y2="224.28" xlink:href="#linear-gradient"/>
    <linearGradient id="New_Gradient_Swatch_32-2" x1="-9599.7" y1="353.98" x2="-9599.7" y2="94.35" xlink:href="#New_Gradient_Swatch_32"/>
    <linearGradient id="New_Gradient_Swatch_32-3" x1="-9552.45" y1="351.07" x2="-9552.45" y2="228.33" xlink:href="#New_Gradient_Swatch_32"/>
    <linearGradient id="New_Gradient_Swatch_18" data-name="New Gradient Swatch 18" x1="397.37" y1="357.81" x2="392.6" y2="346.98" gradientUnits="userSpaceOnUse">
      <stop offset="0" stop-color="#cb236d"/>
      <stop offset="1" stop-color="#4c246d"/>
    </linearGradient>
    <linearGradient id="New_Gradient_Swatch_18-2" x1="-1382.08" y1="-4112.68" x2="-1386.85" y2="-4123.52" gradientTransform="translate(-2593.71 3567.26) rotate(60.48)" xlink:href="#New_Gradient_Swatch_18"/>
    <linearGradient id="linear-gradient-6" x1="426.92" y1="88.61" x2="430.14" y2="61.15" gradientUnits="userSpaceOnUse">
      <stop offset="0" stop-color="#f9b776"/>
      <stop offset="1" stop-color="#f47960"/>
    </linearGradient>
    <linearGradient id="linear-gradient-7" x1="461.37" y1="112.67" x2="464.6" y2="85.2" xlink:href="#linear-gradient-6"/>
    <linearGradient id="New_Gradient_Swatch_20" data-name="New Gradient Swatch 20" x1="363.23" y1="393.59" x2="337.88" y2="460.87" gradientTransform="translate(20.78 -194.39) rotate(-2.59)" gradientUnits="userSpaceOnUse">
      <stop offset="0" stop-color="#a737d5"/>
      <stop offset="1" stop-color="#ef497a"/>
    </linearGradient>
    <linearGradient id="New_Gradient_Swatch_20-2" x1="289.11" y1="-1795.9" x2="263.76" y2="-1728.62" gradientTransform="translate(-593.71 1712.96) rotate(24.04)" xlink:href="#New_Gradient_Swatch_20"/>
    <linearGradient id="New_Gradient_Swatch_5" data-name="New Gradient Swatch 5" x1="400.09" y1="91.13" x2="388.59" y2="133.03" gradientUnits="userSpaceOnUse">
      <stop offset="0" stop-color="#2c50ff"/>
      <stop offset="1" stop-color="#1a1b80"/>
    </linearGradient>
    <linearGradient id="New_Gradient_Swatch_18-3" x1="370.73" y1="87.96" x2="346.67" y2="144.74" xlink:href="#New_Gradient_Swatch_18"/>
    <linearGradient id="linear-gradient-8" x1="379.86" y1="128.99" x2="378.42" y2="105.21" xlink:href="#linear-gradient-6"/>
    <linearGradient id="New_Gradient_Swatch_5-2" x1="476.47" y1="-417.96" x2="436.48" y2="-292" gradientTransform="matrix(0.99, 0.11, -0.11, 0.99, -104.89, 473.41)" xlink:href="#New_Gradient_Swatch_5"/>
    <linearGradient id="New_Gradient_Swatch_5-3" x1="468.18" y1="-420.05" x2="430.53" y2="-301.45" gradientTransform="matrix(0.99, 0.11, -0.11, 0.99, -104.89, 473.41)" xlink:href="#New_Gradient_Swatch_5"/>
    <linearGradient id="linear-gradient-9" x1="-8353.28" y1="1493.28" x2="-8345.04" y2="1453.15" gradientTransform="matrix(-0.96, 0.29, 0.27, 0.89, -8013.59, 1197.08)" xlink:href="#linear-gradient-6"/>
    <linearGradient id="New_Gradient_Swatch_18-4" x1="365.58" y1="85.13" x2="341.53" y2="141.91" xlink:href="#New_Gradient_Swatch_18"/>
    <linearGradient id="New_Gradient_Swatch_8-11" x1="375.51" y1="133.78" x2="401.91" y2="133.78" gradientTransform="matrix(1, 0, 0, 1, 0, 0)" xlink:href="#New_Gradient_Swatch_8"/>
    <linearGradient id="New_Gradient_Swatch_15-2" x1="564.1" y1="283.55" x2="541.84" y2="249.12" xlink:href="#New_Gradient_Swatch_15"/>
    <linearGradient id="New_Gradient_Swatch_15-3" x1="596.33" y1="308.02" x2="597.84" y2="252.46" xlink:href="#New_Gradient_Swatch_15"/>
    <linearGradient id="New_Gradient_Swatch_1" data-name="New Gradient Swatch 1" x1="319.87" y1="-104.19" x2="341.51" y2="-181.35" gradientTransform="matrix(1, 0.06, -0.06, 1, -93.04, 282.27)" gradientUnits="userSpaceOnUse">
      <stop offset="0" stop-color="#2b3582"/>
      <stop offset="1" stop-color="#150e42"/>
    </linearGradient>
    <linearGradient id="New_Gradient_Swatch_18-5" x1="261.37" y1="656.24" x2="262.1" y2="619.91" gradientTransform="translate(49.68 -291.35) rotate(-3.59)" xlink:href="#New_Gradient_Swatch_18"/>
    <linearGradient id="New_Gradient_Swatch_18-6" x1="121.3" y1="665.14" x2="161.87" y2="665.14" gradientTransform="translate(49.68 -291.35) rotate(-3.59)" xlink:href="#New_Gradient_Swatch_18"/>
    <linearGradient id="linear-gradient-10" x1="-3556.57" y1="-3781.42" x2="-3555.41" y2="-3791.3" gradientTransform="matrix(0.03, 1, -1.44, 0.05, -5115.2, 3996.77)" xlink:href="#linear-gradient-6"/>
    <linearGradient id="linear-gradient-11" x1="-3037.78" y1="-3689.34" x2="-3037.76" y2="-3689.51" gradientTransform="matrix(0.14, 0.99, -1.42, 0.21, -4602.86, 4043.63)" xlink:href="#linear-gradient-6"/>
    <linearGradient id="linear-gradient-12" x1="217.94" y1="192.87" x2="222.78" y2="151.68" gradientTransform="translate(-19.52 70.07) rotate(0.73)" xlink:href="#linear-gradient-6"/>
    <linearGradient id="New_Gradient_Swatch_19" data-name="New Gradient Swatch 19" x1="0.33" y1="-2249.35" x2="2.62" y2="-2352.54" gradientTransform="matrix(0.86, 0.52, -0.52, 0.86, -976.75, 2226.78)" gradientUnits="userSpaceOnUse">
      <stop offset="0" stop-color="#fdf53f"/>
      <stop offset="1" stop-color="#d93c65"/>
    </linearGradient>
    <linearGradient id="New_Gradient_Swatch_5-4" x1="234.84" y1="652.99" x2="216.96" y2="591.48" gradientTransform="translate(49.68 -291.35) rotate(-3.59)" xlink:href="#New_Gradient_Swatch_5"/>
    <linearGradient id="New_Gradient_Swatch_19-2" x1="-176.19" y1="1717.67" x2="-173.92" y2="1615.48" gradientTransform="matrix(0.95, -0.3, 0.3, 0.95, -48, -1379.78)" xlink:href="#New_Gradient_Swatch_19"/>
    <linearGradient id="linear-gradient-13" x1="-1014.91" y1="2745.39" x2="-1019.62" y2="2722.09" gradientTransform="translate(-452.05 -2635.39) rotate(-34.39)" xlink:href="#linear-gradient-6"/>
    <linearGradient id="linear-gradient-14" x1="350.01" y1="-99.28" x2="339.8" y2="-149.74" gradientTransform="matrix(1, 0.06, -0.06, 1, -93.04, 282.27)" xlink:href="#linear-gradient-6"/>
    <linearGradient id="linear-gradient-15" x1="328.78" y1="-106.81" x2="327.52" y2="-191.56" gradientTransform="matrix(1, 0.06, -0.06, 1, -93.04, 282.27)" xlink:href="#linear-gradient-6"/>
    <linearGradient id="New_Gradient_Swatch_1-2" x1="326.69" y1="-102.28" x2="348.33" y2="-179.44" xlink:href="#New_Gradient_Swatch_1"/>
    <linearGradient id="New_Gradient_Swatch_5-5" x1="159.08" y1="654.69" x2="215.25" y2="552.63" gradientTransform="translate(49.68 -291.35) rotate(-3.59)" xlink:href="#New_Gradient_Swatch_5"/>
    <linearGradient id="linear-gradient-16" x1="-1437.85" y1="1324.49" x2="-1434.96" y2="1299.93" gradientTransform="matrix(1.42, -0.34, 0.23, 0.97, 1977.63, -1512.88)" xlink:href="#linear-gradient-6"/>
    <linearGradient id="New_Gradient_Swatch_19-3" x1="-86.13" y1="1496.07" x2="-83.84" y2="1393.03" gradientTransform="translate(-8.8 -1156.6) rotate(-14.95)" xlink:href="#New_Gradient_Swatch_19"/>
    <linearGradient id="linear-gradient-17" x1="256.94" y1="227.75" x2="288.09" y2="227.75" gradientUnits="userSpaceOnUse">
      <stop offset="0" stop-color="#e78556"/>
      <stop offset="0.47" stop-color="#fdf53f"/>
    </linearGradient>
    <linearGradient id="linear-gradient-18" x1="3690.28" y1="287.4" x2="3665.34" y2="195.99" gradientTransform="matrix(-1, 0, 0, 1, 3780.71, 0)" xlink:href="#New_Gradient_Swatch_19"/>
    <linearGradient id="New_Gradient_Swatch_15-4" x1="56.98" y1="272.75" x2="132.7" y2="272.75" xlink:href="#New_Gradient_Swatch_15"/>
    <linearGradient id="linear-gradient-19" x1="25.17" y1="640.86" x2="35.02" y2="622.09" gradientTransform="translate(-256.46 -314.25) rotate(-41.1)" xlink:href="#New_Gradient_Swatch_38"/>
    <linearGradient id="linear-gradient-20" x1="11.75" y1="636.94" x2="48.13" y2="636.94" gradientTransform="translate(154.84 -490.87)" xlink:href="#linear-gradient"/>
    <linearGradient id="linear-gradient-21" x1="18.98" y1="629.26" x2="30.16" y2="629.26" gradientTransform="translate(151.11 -485.44)" xlink:href="#linear-gradient"/>
    <linearGradient id="New_Gradient_Swatch_15-5" x1="157.56" y1="144.94" x2="202.9" y2="144.94" xlink:href="#New_Gradient_Swatch_15"/>
    <linearGradient id="linear-gradient-22" x1="80.05" y1="729.28" x2="80.02" y2="734.82" gradientTransform="translate(247.74 1097.98) rotate(180)" xlink:href="#New_Gradient_Swatch_19"/>
    <linearGradient id="linear-gradient-23" x1="-5955.49" y1="739.13" x2="-5913.49" y2="799.74" gradientTransform="matrix(-0.92, 0.39, 0.39, 0.92, -5578.43, 2041.02)" gradientUnits="userSpaceOnUse">
      <stop offset="0" stop-color="#50e7b7"/>
      <stop offset="1" stop-color="#323992"/>
    </linearGradient>
    <linearGradient id="linear-gradient-24" x1="81.93" y1="720.72" x2="76.9" y2="739.5" gradientTransform="translate(-193.96 -271.38) rotate(-23.24)" xlink:href="#New_Gradient_Swatch_19"/>
    <linearGradient id="linear-gradient-25" x1="96.39" y1="724.26" x2="77.69" y2="728.67" gradientTransform="translate(-193.96 -271.38) rotate(-23.24)" xlink:href="#linear-gradient-23"/>
    <linearGradient id="linear-gradient-26" x1="103.47" y1="715.51" x2="81.02" y2="715.35" gradientTransform="translate(-193.96 -271.38) rotate(-23.24)" xlink:href="#New_Gradient_Swatch_19"/>
    <linearGradient id="linear-gradient-27" x1="90.01" y1="724.87" x2="70.61" y2="703.86" gradientTransform="translate(-193.96 -271.38) rotate(-23.24)" xlink:href="#New_Gradient_Swatch_19"/>
    <linearGradient id="linear-gradient-28" x1="80.97" y1="723.79" x2="68.47" y2="709.19" gradientTransform="translate(-193.96 -271.38) rotate(-23.24)" xlink:href="#New_Gradient_Swatch_19"/>
    <linearGradient id="linear-gradient-29" x1="75.63" y1="725.96" x2="75.59" y2="734.88" gradientTransform="translate(86.89 -360.24)" xlink:href="#New_Gradient_Swatch_19"/>
    <linearGradient id="linear-gradient-30" x1="76.91" y1="725.96" x2="76.86" y2="734.88" gradientTransform="translate(86.79 -360.74)" xlink:href="#New_Gradient_Swatch_19"/>
    <linearGradient id="linear-gradient-31" x1="78.18" y1="725.96" x2="78.13" y2="734.88" gradientTransform="translate(86.69 -361.25)" xlink:href="#New_Gradient_Swatch_19"/>
    <linearGradient id="linear-gradient-32" x1="79.45" y1="725.96" x2="79.41" y2="734.88" gradientTransform="translate(86.58 -361.75)" xlink:href="#New_Gradient_Swatch_19"/>
    <linearGradient id="linear-gradient-33" x1="80.73" y1="725.96" x2="80.68" y2="734.88" gradientTransform="translate(86.48 -362.25)" xlink:href="#New_Gradient_Swatch_19"/>
    <linearGradient id="linear-gradient-34" x1="82" y1="725.96" x2="81.96" y2="734.88" gradientTransform="translate(86.38 -362.75)" xlink:href="#New_Gradient_Swatch_19"/>
    <linearGradient id="linear-gradient-35" x1="83.28" y1="725.96" x2="83.23" y2="734.88" gradientTransform="translate(86.27 -363.26)" xlink:href="#New_Gradient_Swatch_19"/>
    <linearGradient id="linear-gradient-36" x1="84.55" y1="725.96" x2="84.5" y2="734.88" gradientTransform="translate(86.17 -363.76)" xlink:href="#New_Gradient_Swatch_19"/>
    <linearGradient id="linear-gradient-37" x1="81.52" y1="752.92" x2="81.27" y2="801.61" gradientTransform="translate(-193.96 -271.38) rotate(-23.24)" xlink:href="#linear-gradient-23"/>
    <linearGradient id="New_Gradient_Swatch_15-6" x1="123.36" y1="380.37" x2="232.87" y2="380.37" xlink:href="#New_Gradient_Swatch_15"/>
    <linearGradient id="Unbenannter_Verlauf_7" data-name="Unbenannter Verlauf 7" x1="457.97" y1="278.47" x2="418.11" y2="278.47" gradientTransform="matrix(1, 0, 0, 1, 0, 0)" xlink:href="#New_Gradient_Swatch_19"/>
    <linearGradient id="Unbenannter_Verlauf_7-2" data-name="Unbenannter Verlauf 7" x1="431.73" y1="253.75" x2="462.02" y2="313.2" gradientTransform="matrix(1, 0, 0, 1, 0, 0)" xlink:href="#New_Gradient_Swatch_19"/>
    <linearGradient id="New_Gradient_Swatch_15-7" x1="450.04" y1="278.74" x2="490.51" y2="256.05" xlink:href="#New_Gradient_Swatch_15"/>
    <linearGradient id="linear-gradient-38" x1="469.13" y1="26.03" x2="496.04" y2="26.03" gradientTransform="matrix(1, 0, 0, 1, 0, 0)" xlink:href="#New_Gradient_Swatch_1"/>
    <linearGradient id="linear-gradient-39" x1="481.34" y1="41.77" x2="498.18" y2="41.77" gradientTransform="matrix(1, 0, 0, 1, 0, 0)" xlink:href="#New_Gradient_Swatch_1"/>
  </defs>
  <title>contact</title>
  <g id="Illustration">
    <g>
      <g>
        <path class="cls-1" d="M517.63,12c-5.45-6.39-13.56-11-22-10.72a33.64,33.64,0,0,0-35.86,17.3A32.9,32.9,0,0,0,454.89,28c-3.05,9.28-2.05,20.2,3.26,28.47a34.82,34.82,0,0,0,24.14,15.27,34.25,34.25,0,0,0,17.18-1.81,36.4,36.4,0,0,0,23.1-17.3C529.85,39.59,527.14,23.15,517.63,12Z"/>
        <path class="cls-2" d="M499.75,6.84h-.07c-1.19-.16-2.4-.29-3.58-.39a.52.52,0,1,1,.08-1c1.2.09,2.43.22,3.63.39a.52.52,0,0,1,.45.58A.52.52,0,0,1,499.75,6.84Z"/>
        <path class="cls-2" d="M484.87,6.71a.53.53,0,0,1-.52-.45.52.52,0,0,1,.44-.58,44.53,44.53,0,0,1,4.46-.4.51.51,0,0,1,.54.5.52.52,0,0,1-.5.54,42.61,42.61,0,0,0-4.35.39Z"/>
        <path class="cls-2" d="M474.29,10.08a.52.52,0,0,1-.45-.26.52.52,0,0,1,.2-.71,25.13,25.13,0,0,1,4-1.83.52.52,0,0,1,.66.32.51.51,0,0,1-.31.66A25.34,25.34,0,0,0,474.55,10,.48.48,0,0,1,474.29,10.08Z"/>
        <path class="cls-2" d="M458.75,40.34a.53.53,0,0,1-.52-.49,29.74,29.74,0,0,1,.29-6.34,26.88,26.88,0,0,1,.64-3.11c.28-1.09.62-2.23,1-3.34a33.05,33.05,0,0,1,9.47-13.9.53.53,0,0,1,.74.07.52.52,0,0,1-.07.73,32.65,32.65,0,0,0-9.16,13.44c-.39,1.09-.72,2.19-1,3.29a23.72,23.72,0,0,0-.61,3,29,29,0,0,0-.28,6.12.53.53,0,0,1-.49.55Z"/>
        <path class="cls-2" d="M460.75,49.47a.51.51,0,0,1-.48-.33,29.7,29.7,0,0,1-1.12-3.46.53.53,0,0,1,.37-.64.54.54,0,0,1,.64.38,28.41,28.41,0,0,0,1.08,3.35.52.52,0,0,1-.3.67A.58.58,0,0,1,460.75,49.47Z"/>
        <path class="cls-2" d="M466.44,58.5a.55.55,0,0,1-.38-.16,27.69,27.69,0,0,1-3.85-5.17.52.52,0,0,1,.9-.52,26.43,26.43,0,0,0,3.7,5,.52.52,0,0,1,0,.74A.54.54,0,0,1,466.44,58.5Z"/>
        <path class="cls-2" d="M512.45,60.24a.52.52,0,0,1-.34-.91,29.23,29.23,0,0,0,2.52-2.46.52.52,0,0,1,.77.7,29.9,29.9,0,0,1-2.61,2.55A.54.54,0,0,1,512.45,60.24Z"/>
        <path class="cls-2" d="M517.71,54.28a.53.53,0,0,1-.44-.81,26.42,26.42,0,0,0,2.81-5.53.52.52,0,1,1,1,.36,28,28,0,0,1-2.92,5.75A.52.52,0,0,1,517.71,54.28Z"/>
        <path class="cls-2" d="M521.63,43.32l-.15,0a.53.53,0,0,1-.35-.65,28.5,28.5,0,0,0,.26-13.76,46.8,46.8,0,0,0-4.81-12,.52.52,0,0,1,.22-.7.53.53,0,0,1,.71.22,48.28,48.28,0,0,1,4.9,12.28A29.76,29.76,0,0,1,522.13,43,.51.51,0,0,1,521.63,43.32Z"/>
      </g>
      <path class="cls-3" d="M591,268.13c-9.37-4.85-285.88,1.43-286.19,4.17-.28,2.49-6.43,77.63-8.72,107.4a4.85,4.85,0,0,0,4.82,4.83c47.09-2.08,94-5.83,141.18-5.73,11.34,0,22.72.59,34.06.2,10.32-.36,21.38-1.56,30.72-6.27,8.39-4.23,14.85-15.05,8.63-23.79-2.67-3.75-7.2-5-10-8.41-.91-1.09-1.35-1.36-.41-1.86,1.93-1,4.74-1.09,6.85-1.5l69.34-13.56c9.19-1.79,21.9-2.46,25.6-12.86C610.14,301.39,599,272.31,591,268.13Z"/>
      <path class="cls-4" d="M637.77,306.17c-1.57-7.61-7.7-13-14.32-16.47-8.74-4.54-18.4-7.77-27.76-10.74-9.75-3.1-21-9-31.11-10.61-1.19-.19-50.52.42-50.52.42s54.06,19.4,58.6,20.57c8.23,2.13,17.31,5.93,26.21,10.33,5.25,2.58,4.58,6.73-1,8.82-6.69,2.49-22.5,4.12-40.78,5.42s-37.48,4-49.66,7.2c-9.73,2.58-23.94,5.9-19,13.31s22.33,11.77,27.69,18.91a2,2,0,0,1-.36,2.94c-7.33,6-81.86,7.92-91.05,8.72-8.69.75-17.41.37-26.12.28-11.47-.11-23,.34-34.44.26-24-.18-48.07,1.22-72.08,2.87-8.82.61-16.1.81-22.1.76-.18,8.76-.08,14.34.44,14.37,42.12,1.81,84.42,1.08,126.53-.72,21.07-.9,107.15-2,128.21-3.32,9.65-.6,19.34-1.27,28.86-3.06,6.95-1.3,30.32-3.12,32-11.46,1.88-9.16-21.63-14.17-28.4-17-4.94-2.09-11.05-3.44-14.66-6.28s1.87-6.81,35.52-9c8.93-.57,17.83-1.43,26.68-2.71C632.91,324.85,639.29,313.55,637.77,306.17Z"/>
      <path class="cls-5" d="M312.07,287.72c-11.05,1.58-36.21,13.53-47.2,15.43-10.58,1.83-21.42,3.43-31.79,6.06-8.29,2.11-16.45,5.86-20.14,13.16-1.64,3.23-2.25,7-4.72,9.89-2.1,2.42-5.32,4-8.53,4.94-7.68,2.3-15.84,2.24-23.86,2.29-11.39.07-112.36,1.16-125.55,1.16s-31.92-.75-31.92,5.72,10.34,10.51,19.55,11.52c4.24.47,28,5.35,16,9l-23.27,7c-5.45,1.65-11,3.18-16.37,5-4.72,1.57-9.39,3.68-12.08,7.64A12.23,12.23,0,0,0,0,393.32c1.67,4.85,10,6.26,16,7,12.61,1.57,25.51,1.21,38.21,1.23,11.11,0,22.86-.48,33.76,1.78,3.26.68,7.08,1.81,9,4.44,2.69,3.66.31,7.35-3.19,9.58-3.86.83-7.7,1.74-11.61,2.44-6,1-12.42,1.51-18,3.68-5.2,2-9.12,6.46-8.91,11.65.22,5.45,5.35,9.07,10.95,10.22,5.93,1.22,12.27,1.06,18.32,1.18l20.41.4,41.54.85c7.77.16,15.55.48,23.32.46,7.24,0,14.15,1.17,20.27-2.61,3.6-2.23,3.6-6.54,1.67-8.45-2.57-2.56-3.69-2.62-8-3.5-4.4-.71-12.13-1.24-13.54-5-2.53-6.83,14.78-6.83,18.57-6.78,11.8.13,42.66,2.66,49.2,2.84,12.3,0,17.47-3.75,18.61-6.12,3.56-7.37-4.71-12.12-11.82-14.92a142.92,142.92,0,0,0-24.49-7.25c-6.84-1.36-15.35-1.61-21.09-5.58-.62-.43-1.86-1.25-2-2a.34.34,0,0,0,0-.08l0-.05c.42-.86,2.32-1.36,3.22-1.64,4.34-1.38,9.26-1.86,13.81-2.41,10.15-1.23,97.9-.05,97.9-.05Z"/>
      <polygon class="cls-6" points="403.37 245.71 580.9 247.49 590.99 268.13 415.63 269.58 403.37 245.71"/>
      <path class="cls-7" d="M604.21,248.68q-6.63-15.83-13.28-31.64-3.37-8.06-6.76-16.11c-1.84-4.4-3.39-9.15-5.93-13.21-2.28-3.65-5.49-6.76-9.83-7.62-4.69-.93-8.79,1.13-12.35,4-3,2.37-5.53,5.34-9.46,6s-8-.73-11.36-2.72c-7.83-4.65-11.8-13.86-15.69-21.68-4.64-9.31-8.75-19.24-14.23-28.09-4.26-6.9-11.66-13.13-20.08-9-3.78,1.84-6.3,5.28-9,8.4a97.85,97.85,0,0,1-9.7,9.83,102,102,0,0,1-48.65,23.55,5.28,5.28,0,0,0-5.86-2.33c-18.59,4.35-26.12,23.49-29.12,40.36-1.51,8.53-4,18.48,1,26.39,4.2,6.76,11.92,9.78,19.47,11,9.62,1.51,19.53,1.54,29.24,2.09C442.94,248.37,604.21,248.68,604.21,248.68Z"/>
      <g>
        <path class="cls-8" d="M557,139.07s-6.13-16.35-5.15-29.07,9,15.67,9,15.67S561.28,138.31,557,139.07Z"/>
        <path class="cls-9" d="M557.71,139.31s-12.08,12.61-24,17.24S544,141.66,544,141.66,555.17,135.78,557.71,139.31Z"/>
        <path class="cls-10" d="M557.58,139.06s17,4.13,26.94,12.09-18-1.38-18-1.38S555.8,143,557.58,139.06Z"/>
        <path class="cls-11" d="M562.94,139.61c-.61-4.53-6.14-6.52-9.68-3.79a5.8,5.8,0,0,0-2,6.84,5.44,5.44,0,0,0,2.91,3,4.88,4.88,0,0,0,2.34.41,5.32,5.32,0,0,0,4.62-1.26A5.75,5.75,0,0,0,562.94,139.61Z"/>
        <path class="cls-12" d="M554.8,143.16l-.5,101s6.79,1.29,6,0-1.64-101-1.64-101Z"/>
      </g>
      <g>
        <path class="cls-13" d="M518.6,161.11s-6.13-16.36-5.14-29.08,9,15.67,9,15.67S522.88,160.35,518.6,161.11Z"/>
        <path class="cls-14" d="M519.31,161.34s-12.08,12.61-24,17.25,10.23-14.89,10.23-14.89S516.77,157.82,519.31,161.34Z"/>
        <path class="cls-15" d="M519.18,161.1s17,4.12,26.94,12.09-18-1.38-18-1.38S517.4,165.07,519.18,161.1Z"/>
        <path class="cls-16" d="M524.55,161.65c-.61-4.54-6.15-6.53-9.69-3.79a5.82,5.82,0,0,0-2,6.84,5.44,5.44,0,0,0,2.92,3,4.83,4.83,0,0,0,2.33.42,5.36,5.36,0,0,0,4.63-1.26A5.81,5.81,0,0,0,524.55,161.65Z"/>
        <path class="cls-17" d="M516.4,165l-.49,101.09s6.79,1.25,5.94,0S520.21,165,520.21,165Z"/>
      </g>
      <path class="cls-18" d="M524.68,227.71c-5.08-1.11-10.4-2.26-15.09-4.8-5-2.72-8.07-6.51-10.67-11.91-5.08-10.56-11.26-19.28-19.73-26.82-16.33-14.56-36.25-24.72-46.61-45.87-5.75-11.75-9.64-24.43-17.49-34.81A38.87,38.87,0,0,0,402,92.05c-6-3-12.54-3.77-19.11-3.63-7.1.14-14.26,1.14-21.3-.25a61,61,0,0,1-18.19-7.08c-12-6.92-22.67-16.13-33.17-25.51a2.75,2.75,0,0,0-.76-.48c-3.89-3.45-13.55-.82-14.38,6.55-5.71,50.68-8,101.48-4.68,152.47.92,14.47,2.61,28.82,3.86,43.25.34,3.87,2.51,9.85,6,10.24,10.29,1.15,302.81,1,302.81,1C605.62,266.16,551.32,233.49,524.68,227.71Z"/>
      <path class="cls-19" d="M48.18,253.78c6.9,5.45,16.06,5.26,24.51,4.42,3.26-.32,238.78,2.67,238.78,2.67l0-22.58h0l0-26v0l.07-155.68c-12-12.65-36.85-25.79-54.91-23.22-16.55,2.36-31.25,13-37.25,27.84-2.53,6.27-3.31,13-4.87,19.51-1.37,5.71-3.28,11.77-8.65,15.24-6.32,4.08-14.47,4.9-21.27,8.14a37,37,0,0,0-16.18,15.2c-2,3.62-2.68,7.72-4.61,11.31-1.37,2.55-3.85,3.73-6.69,4.38-8,1.84-16.4-1.25-24.51-.61-14.72,1.16-30.45,13.88-25.6,29,1.87,5.83,6.72,10.87,1.73,16.55-4,4.62-11,2.71-16.51,2.85-7.57.18-14.82,3.4-16.65,11-.93,3.84,0,7.5-.28,11.34-.18,2.26-1.08,3-3.26,3.85-6.21,2.52-12.39,3.66-15.81,9.88-1.86,3.4-2,6.17-5.45,8.47-3.06,2.07-6.1,4.15-7.81,7.42C39.55,241.3,42.46,249.26,48.18,253.78Z"/>
      <path class="cls-20" d="M423.17,237.36s-1.67,51.53-7.54,52.6-107.3-2.39-107.3-2.39l2.44-61Z"/>
      <g>
        <path class="cls-21" d="M397,198.5l-86-1.62s.61,24.44-.38,36.66c-.19,2.36,1.25,6.5,3.11,6.53,30.75.52,120,.16,120,.16Z"/>
        <g>
          <polygon class="cls-2" points="316.97 202.96 321.21 231.46 413.45 232.81 381.44 203.03 316.97 202.96"/>
          <polygon class="cls-22" points="319.36 204.96 325.54 229.11 407.43 229.11 381.64 205.21 319.36 204.96"/>
          <path class="cls-2" d="M338.14,230.84a.76.76,0,0,1-.69-.43l-12.66-25.33a.77.77,0,0,1,1.38-.69l12.65,25.33a.77.77,0,0,1-.34,1A.84.84,0,0,1,338.14,230.84Z"/>
          <path class="cls-2" d="M349.8,231a.76.76,0,0,1-.68-.41l-13.35-25.52a.75.75,0,0,1,.32-1,.76.76,0,0,1,1,.32l13.35,25.51a.77.77,0,0,1-.32,1A.8.8,0,0,1,349.8,231Z"/>
          <path class="cls-2" d="M363.46,231.79a.78.78,0,0,1-.69-.41l-13.66-26.29a.77.77,0,1,1,1.37-.71l13.66,26.28a.77.77,0,0,1-.33,1A.76.76,0,0,1,363.46,231.79Z"/>
          <path class="cls-2" d="M376.26,231.79a.77.77,0,0,1-.69-.43l-12.81-26.28a.77.77,0,0,1,1.39-.68L377,230.68a.76.76,0,0,1-.35,1A.68.68,0,0,1,376.26,231.79Z"/>
          <path class="cls-2" d="M398.19,231a.74.74,0,0,1-.55-.23c-9.56-9.78-24.23-24.61-25.46-25.37a.73.73,0,0,1-.39-1,.8.8,0,0,1,1-.41c1.22.5,18.54,18.13,25.92,25.69a.76.76,0,0,1,0,1.09A.75.75,0,0,1,398.19,231Z"/>
          <path class="cls-2" d="M386.92,210.91H319.31a.65.65,0,1,1,0-1.3h67.61a.65.65,0,1,1,0,1.3Z"/>
          <path class="cls-2" d="M321.61,219.26a.65.65,0,0,1,0-1.3l73-1.51h0a.65.65,0,0,1,0,1.3l-73,1.51Z"/>
          <path class="cls-2" d="M323.15,225.88a.65.65,0,0,1,0-1.3l76.35-3.4a.65.65,0,0,1,0,1.3l-76.34,3.4Z"/>
        </g>
      </g>
      <path class="cls-23" d="M96.16,297.79c.91,9,7.55,15.28,15.57,18.67,8.84,3.74,18.77,4.38,28.26,4.64,11.17.3,22.32-.55,33.43-1.5,22.53-1.92,45.08-3.29,67.7-3.6,22.45-.31,44.79.76,67.21,1.61,3.29.12,3.81-2.88,3.81-6.08a5.73,5.73,0,0,0-.13-1.26l.13-112s-13.06-13.65-15.64-17.5c-4.72-7-10.32-14.21-18.28-17.64-7-3-15.94-3.88-22.47.77-3.36,2.39-5.16,5.7-7.32,9.1a7.24,7.24,0,0,1-1.17,1.62l-.07,0a31.86,31.86,0,0,0-5.3-1.56c-8.46-1.28-15.84,3.31-23,7.14-2.93,1.57-6.24,3.32-9.5,3.75-4.87.65-9.61-.78-14.45,1.23-3.92,1.64-6.91,4.57-9.6,7.78-2.36,2.82-4.66,6-8.12,7.56-7.08,3.16-16,0-22.77-2.55-8.46-3.14-16.51-6.63-25.65-7.23s-18,2.61-23.46,10.08c-5.32,7.23-5.49,16.67-3.91,25.16,1.71,9.27,6.4,17.57,8.89,26.61,1.19,4.33,1.91,8.9.7,13.31-1,3.7-3.42,6.89-5.67,9.93C100.56,282.31,95.29,289.22,96.16,297.79Z"/>
      <path class="cls-24" d="M3,327.87c2.41,5.22,8.71,8.22,13.92,9.88,5.64,1.78,11.73,2.2,17.59,2.69q42.13,3.51,84.47,3.13c28.08-.26,56.09-2.48,84.16-2.88a353,353,0,0,1,41.13,1.53c13.22,1.36,54.21,11.4,67.22,8.23V304.32s-14.83-1.88-16.19-1.52c-.29.08-.57.15-.86.21a16.91,16.91,0,0,0-5.71-1.32,4.75,4.75,0,0,0-4,1.56,22.78,22.78,0,0,1-6.26-2.06c-5.28-2.65-8.8-7.71-13.86-10.72a44,44,0,0,0-12.69-4.77c-7.8-1.8-18.15-2.1-24.2-8-3.78-3.69-4.49-9.23-6.84-13.78-2.47-4.8-6.72-7.77-11.43-10.13a41.17,41.17,0,0,1-7-3.9,19.13,19.13,0,0,1-4.43-5.74c-2.81-4.78-5.81-9-10.65-11.95a26.94,26.94,0,0,0-30.06,1.54c-4.66,3.51-8.28,8.08-12.69,11.87-3.42,3-8.52,6-13.07,3.87-5-2.3-8.28-7-13.54-9-5.63-2.14-12-1.33-17.44.88-5.74,2.31-10.57,5.87-15.61,9.38-4.42,3.08-9.18,6.2-14.74,6.27-6.26.08-11.78-.11-17.21,3.55A34.86,34.86,0,0,0,42.05,273c-2.95,5.42-4.83,11.34-7.78,16.75a45.39,45.39,0,0,1-11,12.68c-4.25,3.62-8.77,6.92-13.06,10.49C5.8,316.58,0,321.42,3,327.87Z"/>
      <g>
        <path class="cls-25" d="M398.8,339.43a51.47,51.47,0,0,0-9.44-3.21c-2.83-.78-9.78-4.2-10.86-7.41-.56-1.64-3.28-1.61-3.42.13a.68.68,0,0,0-.38.69c.33,3.58.29,7.45,1,11,.56,2.72,3.32,2.63,5.68,3.07q5.78,1.05,11.63,1.55c3,.24,7.31,1.19,10.16.18C409,343.36,401,340.53,398.8,339.43Z"/>
        <path class="cls-26" d="M320.9,330.44a51.25,51.25,0,0,0-1.86-9.79c-.72-2.86-1.16-10.58,1.09-13.11,1.16-1.29-.21-3.65-1.79-2.91a.67.67,0,0,0-.79,0c-2.95,2.06-6.34,3.93-9.05,6.3-2.09,1.84-.66,4.19.13,6.46q1.92,5.55,4.38,10.88c1.25,2.71,2.56,7,4.85,8.94C322.49,341.24,321,332.86,320.9,330.44Z"/>
        <path class="cls-27" d="M439.88,64.64c-5.76,2.57-6.14,4-10.81,2.78l-.19,0c.66-1.65.69-1.34,1.88-2.89,1.63-2.1.7-4.46-1.19-2.77-3.06,2.73-6.88,4.69-7.89,8.79-1.44,1.5-6.69,6.16-7.88,13.26s7.31.89,7.31.89c6-9.86,7.31-2.94,20.08-15.43C442.92,67.32,445.64,62.08,439.88,64.64Z"/>
        <path class="cls-28" d="M474.33,88.7c-5.76,2.56-6.13,4-10.8,2.77l-.19,0c.66-1.64.69-1.34,1.88-2.89,1.63-2.1.7-4.45-1.2-2.76-3.06,2.73-6.88,4.69-7.88,8.78-1.44,1.51-6.69,6.16-7.88,13.26s7.3.89,7.3.89c6-9.86,7.31-2.94,20.08-15.43C477.37,91.37,480.09,86.13,474.33,88.7Z"/>
        <path class="cls-29" d="M392.75,213.25a3.45,3.45,0,0,0-2.86-2.75c.21-2.12.44-4.23.67-6.35.34-3.15.91-6.2.05-9.3a4.12,4.12,0,0,0-4.85-3.17c0-3.3-2.82-6.57-6.49-5.13-5.68,2.21-8.87,8.52-10.88,13.95a47.56,47.56,0,0,0-2.53,18.83A118.29,118.29,0,0,0,372,250.2c1.1,5.75,2.85,11.58,3.25,17.4s-2.64,10.71-4.45,15.92a53,53,0,0,0-2.76,15.89c-.33,10.93,1.58,22.53,6.85,32.12.3.54,3.5.64,4,.45a.84.84,0,0,0,1.11-.62c2.46-9.71,3.2-19.28,5.14-29.12s3.35-19.68,4.57-29.59,2-19.6,2.6-29.44q.41-7.16.64-14.34C393.14,223.7,393.58,218.37,392.75,213.25Z"/>
        <path class="cls-30" d="M385.33,210.57a3.45,3.45,0,0,0-1.32-3.74q1.71-2.7,3.44-5.37c1.72-2.67,3.6-5.14,4.21-8.29a4.1,4.1,0,0,0-2.91-5c1.5-2.94.42-7.14-3.5-7.5-6.07-.57-11.75,3.64-16,7.6A47.49,47.49,0,0,0,358.57,204a118.14,118.14,0,0,0-8.33,30.36c-1.59,5.63-2.64,11.63-4.9,17s-7.16,8.39-11.11,12.24a53,53,0,0,0-9.59,13c-5.19,9.63-10.29,29.48-10.29,29.48,0,.61,3.12,3.58,3.65,3.64a.85.85,0,0,0,1.27-.06c6.56-7.58,13.25-14.93,19.4-22.86s11.82-16.09,17.35-24.4,10.59-16.61,15.51-25.15q3.59-6.22,7-12.53C381,220.09,383.77,215.52,385.33,210.57Z"/>
        <path class="cls-31" d="M416.23,76.94c-8.4,19.81-20.61,42.08-43.18,47.77-2.28.58-4.8,1-6.12,3.23a4.75,4.75,0,0,0,.79,5.93c1.3,1.16,3,1.19,4.67,1.08,6,1,12.86-.92,18.19-3.17,7.88-3.32,12.65-8,18.09-14.57A79.57,79.57,0,0,0,421.81,94c1.33-3.72,3.83-8.8,3.6-12.82C424,78.8,416.79,75.61,416.23,76.94Z"/>
        <path class="cls-32" d="M384.73,107.86a92.39,92.39,0,0,0-2.35-16.2A37.16,37.16,0,0,0,379.51,83a1.75,1.75,0,0,0-.41-2.48c-.77-.63-1.57-1.24-2.38-1.82a16.43,16.43,0,0,0-1.34-1.43,19.14,19.14,0,0,0-16.93-4.68,21.52,21.52,0,0,0-4.85.9A20.78,20.78,0,0,0,339.1,92a16.6,16.6,0,0,0,.66,5.56c.63,2.08,2.72,4.38,2.65,6.52-.15,4-6.72,7.08-9.26,9.6a14.55,14.55,0,0,0-4.42,12.68c.59,4.28,3.44,8.71,2.95,13.06-.27,2.39-1.42,4.61-1.74,7a12,12,0,0,0,1.53,7.74c2.5,4.3,7.13,7.19,11.75,8.71,8.63,2.85,19.06,1.3,26.23-4.36a17.6,17.6,0,0,0,6.67-10.57c.9-5-1.44-9.58-1.11-14.48.15-2.26,1.54-3.67,3-5.3a26,26,0,0,0,4.22-6.08A30.7,30.7,0,0,0,384.73,107.86Z"/>
        <path class="cls-33" d="M379.66,105A5.52,5.52,0,0,0,375,106.8a1.73,1.73,0,0,0-1.51,1.7,81.78,81.78,0,0,1-.8,8.48c-.65,2.29-.4,4.9,2.28,5.71,2,.6,10.62,3.21,11.12.79C387,119,384.89,105.63,379.66,105Z"/>
        <path class="cls-34" d="M454.62,96c-17.85,12-53.89,31.81-75.91,24.27-2.23-.76-4.58-1.75-6.89-.64a4.75,4.75,0,0,0-2.57,5.41c.46,1.68,2.67,3.45,2.67,3.45,4.53,4.11,11.93,6.24,17.62,7.27,8.42,1.52,16.32.05,24.45-2.47s29.56-13.35,36.42-18.57c3.14-2.39,7.76-5.74,9.76-9.23C462,102.3,455.81,95.2,454.62,96Z"/>
        <path class="cls-35" d="M400.42,157.31c-.35-3.46,5.59-6.18,4.88-9.58a92.9,92.9,0,0,0-4.92-16.2c-1.74-4.25-3.89-7.48-8.65-8.45-4.52-.92-16.23-2.13-20.83-2.52-4-.33,0,45.7-4.42,61.57-1.83,6.54-9,22.54-9,22.54,6.32,4.18,27.53,9.65,35.23,9.17C401.75,175.68,401.11,164.28,400.42,157.31Z"/>
        <path class="cls-36" d="M360,84.58c2.61-5.71,9.1-9.37,15.29-6.77a16.35,16.35,0,0,1,7.06,6.5c1.71,2.14,4.55,2.44,5.85,4.83.36.66-.6,3.28-.28,4,2.31,4.85,4.2,10.54.61,15.57-3.88,5.43-17.5,2-23-.8-4.72-2.41-2.53-2.69-4.85-7.23A18.13,18.13,0,0,1,360,84.58Z"/>
        <path class="cls-37" d="M370.49,76.76a3,3,0,0,0-3.87-1.57,3.77,3.77,0,0,0-3.47.24c-5,3-6.39,9.7-8.15,14.85-1.47,4.32-6.28,13-.61,16.16a5,5,0,0,0,6.19-.4,3.45,3.45,0,0,0,2.47-.59C371.11,100,374.11,85.46,370.49,76.76Z"/>
        <path class="cls-38" d="M396.49,136.7a39.73,39.73,0,0,1-7-.62,46.26,46.26,0,0,1-14-4.65l.32-.56a45.81,45.81,0,0,0,13.77,4.57,40.51,40.51,0,0,0,12.23.28l.08.64A43.94,43.94,0,0,1,396.49,136.7Z"/>
      </g>
      <g>
        <path class="cls-39" d="M568.18,262.17c-.72-2.44-2.23-4.47-3.34-6.72-1.33-2.68-.25-5.4-.84-8.21a9.21,9.21,0,0,0-4.82-6.23c-1-.5-2.2-.69-3.2-1.22s-.92-1.61-1-2.64c-.26-2.8-1.17-5.2-3.69-6.71a8.19,8.19,0,0,0-7.2-.55c-5.85,2.36-7.18,9.23-5.77,14.78.27,1,1.35,3,1,4.06-.3.87-2.51,1.56-3.31,2.16a14.35,14.35,0,0,0-5.08,7c-1.87,5.52.1,14.07,4.54,17.56,5.23,3.93,5.92,3.07,10,3.9a21.8,21.8,0,0,0,16.28-3.43C566.13,272.88,569.85,267.8,568.18,262.17Z"/>
        <path class="cls-2" d="M548.68,286.49h0a.64.64,0,0,1-.6-.69,195.54,195.54,0,0,0-1.27-41.5.65.65,0,1,1,1.28-.21,196.86,196.86,0,0,1,1.29,41.81A.65.65,0,0,1,548.68,286.49Z"/>
        <path class="cls-2" d="M549.22,256.77a.66.66,0,0,1-.45-.18.65.65,0,0,1,0-.92,29.67,29.67,0,0,0,5.5-8.16.65.65,0,1,1,1.18.54,31.08,31.08,0,0,1-5.74,8.52A.67.67,0,0,1,549.22,256.77Z"/>
        <path class="cls-2" d="M549.23,266.76a.59.59,0,0,1-.34-.1,25.27,25.27,0,0,1-7-6.54.65.65,0,0,1,.14-.91.66.66,0,0,1,.91.15,24,24,0,0,0,6.68,6.19.65.65,0,0,1,.21.9A.64.64,0,0,1,549.23,266.76Z"/>
      </g>
      <g>
        <path class="cls-40" d="M625.79,264.75c-1.09-3.67-3.37-6.74-5-10.13-2-4-.36-8.14-1.26-12.38a13.86,13.86,0,0,0-7.27-9.39c-1.54-.77-3.32-1-4.83-1.85s-1.39-2.42-1.54-4c-.39-4.22-1.76-7.85-5.56-10.12a12.35,12.35,0,0,0-10.85-.84c-8.84,3.57-10.84,13.92-8.71,22.31.4,1.56,2,4.51,1.48,6.12-.46,1.31-3.78,2.35-5,3.26a21.78,21.78,0,0,0-7.66,10.5c-2.81,8.32.15,21.22,6.86,26.48,7.88,5.93,8.92,4.63,15,5.88A32.83,32.83,0,0,0,616,285.45C622.69,280.9,628.3,273.24,625.79,264.75Z"/>
        <path class="cls-2" d="M597.77,307.42h0a.65.65,0,0,1-.6-.7,336.84,336.84,0,0,0-2.2-71.59.65.65,0,0,1,1.28-.21,337.45,337.45,0,0,1,2.22,71.9A.65.65,0,0,1,597.77,307.42Z"/>
        <path class="cls-2" d="M598.7,256.24a.66.66,0,0,1-.45-.18.65.65,0,0,1,0-.92A51.65,51.65,0,0,0,607.79,241a.65.65,0,0,1,.86-.32.66.66,0,0,1,.33.86A53.31,53.31,0,0,1,599.17,256,.67.67,0,0,1,598.7,256.24Z"/>
        <path class="cls-2" d="M598.72,273.44a.59.59,0,0,1-.34-.1,43.1,43.1,0,0,1-12-11.13.65.65,0,0,1,.15-.91.64.64,0,0,1,.9.14,41.8,41.8,0,0,0,11.65,10.8.65.65,0,0,1-.34,1.2Z"/>
      </g>
      <path class="cls-2" d="M25.37,384.07a16.15,16.15,0,0,0-10.9,7.36c-.67,1.07,1,2.05,1.68,1A14.24,14.24,0,0,1,25.89,386C27.13,385.73,26.6,383.85,25.37,384.07Z"/>
      <path class="cls-2" d="M43.79,380.09a269.08,269.08,0,0,0,31-10.53c1.14-.47.64-2.36-.52-1.88a269.08,269.08,0,0,1-31,10.53A1,1,0,0,0,43.79,380.09Z"/>
      <path class="cls-2" d="M108.28,406.31c1.6,6.24-3.64,10.58-8.7,12.93-1.14.53-.15,2.21,1,1.68,5.92-2.75,11.42-8,9.6-15.13A1,1,0,0,0,108.28,406.31Z"/>
      <path class="cls-2" d="M89.6,425.52c-5.61,1.32-11.28,2.5-16.85,4-3.45.93-6.5,2.16-8.77,5-.77,1,.6,2.36,1.38,1.38,2.81-3.56,7.07-4.34,11.23-5.33l13.52-3.2C91.34,427.11,90.82,425.23,89.6,425.52Z"/>
      <path class="cls-2" d="M246.14,412.21c-2.9-3.64-7.66-4.87-11.92-6.29a139.93,139.93,0,0,0-18.14-4.67c-1.23-.23-1.76,1.64-.52,1.88a142.45,142.45,0,0,1,14.57,3.53c4.86,1.48,11.36,2.82,14.63,6.93C245.54,414.57,246.91,413.18,246.14,412.21Z"/>
      <path class="cls-2" d="M34.57,346.63c-.22,2.16,2.2,2.62,3.84,3.05l11.38,3a1,1,0,0,0,.51-1.88c-1.41-.38-13.91-3-13.78-4.2S34.69,345.39,34.57,346.63Z"/>
      <path class="cls-2" d="M543.28,322.48a15.16,15.16,0,0,0,5.46-.9c1.17-.42.66-2.31-.52-1.88a13.65,13.65,0,0,1-4.94.83A1,1,0,0,0,543.28,322.48Z"/>
      <ellipse class="cls-2" cx="564.07" cy="318.37" rx="812.82" ry="0.97" transform="translate(-30.8 62.12) rotate(-6.14)"/>
      <path class="cls-2" d="M580.42,317.93a179.88,179.88,0,0,0,19.52-5.07c3.46-1.12,6.73-2.17,8.17-5.77.47-1.16-1.42-1.67-1.88-.52-1.69,4.22-9,5.16-13,6.26-4.41,1.25-8.87,2.3-13.37,3.22C578.68,316.3,579.2,318.18,580.42,317.93Z"/>
      <path class="cls-2" d="M471.76,376.31q30-.76,60-1.54a1,1,0,0,0,0-1.95q-30,.75-60,1.54A1,1,0,0,0,471.76,376.31Z"/>
      <path class="cls-2" d="M544.91,373.32l11.77-1.79c1.24-.19.71-2.07-.52-1.88l-11.77,1.79C543.16,371.63,543.68,373.51,544.91,373.32Z"/>
      <path class="cls-2" d="M567,369.66l4.76-1.87c1.15-.46.65-2.34-.52-1.88l-4.76,1.87C565.3,368.24,565.81,370.13,567,369.66Z"/>
      <path class="cls-2" d="M578.28,362.32a4.48,4.48,0,0,0-.43-3c-.58-1.11-2.26-.13-1.68,1a2.31,2.31,0,0,1,.23,1.46,1,1,0,1,0,1.88.51Z"/>
      <g>
        <path class="cls-41" d="M265.56,151.92c-2.28-5-6.81-5.19-11-5.53-9.59-.79-21.23-2.5-29.62,5.3a11.79,11.79,0,0,0-3.79,6.89c-.41,2.55,16,14,17.07,16.79,2.78,7.06,16.53,19.59,19.11,16.3a47.83,47.83,0,0,0,9.78-26.08C267.43,161.15,267.33,155.84,265.56,151.92Z"/>
        <path class="cls-42" d="M360.56,317.07c-.17-1.65-.21-3.48-1.32-4.81-1.94-2.32-5.35-1.78-7.71-.47a8.52,8.52,0,0,0-4.36,7.13,2.29,2.29,0,0,0,.13,1,12.83,12.83,0,0,1,2.83,3,13.3,13.3,0,0,0,.13,1.88,38.74,38.74,0,0,1,.22,5.6c-.06,1.66-8.39,8.48-8.85,9.73-1.56,4.29,2.23,6.85,6.1,7.22,10.24.72,12.64-9.78,13-14C361,329.48,360.66,318.06,360.56,317.07Z"/>
        <path class="cls-43" d="M251.52,359.39a10.81,10.81,0,0,0-9.16-5.35,2.78,2.78,0,0,0-1.21.19,15.74,15.74,0,0,1-8.79,6c-6.3,1.64-13,.81-19.27,2.57-.09,0-.17,0-.25,0a8.68,8.68,0,0,0,.21,5.49c1.53,3.92,5.47,5.06,9.32,4.81,5.1-.33,10.19-.93,15.27-1.4,2.48-.23,4.94-.51,7.41-.82,2.09-.25,4.41-.35,6.08-1.8C254,366.66,253.25,362.35,251.52,359.39Z"/>
        <g>
          <path class="cls-44" d="M218.13,256.28c-.11-2.35-6-3.64-10.55-3.3-1.56.11-3.14.59-3.49,1.36s.31,1.5,1.75,1.86c.22.06.81.3.2,0l.56.22.16.07c.19.11.58.12.81.23-.11-.07-.43.37.31-.08l0,0s-.07.18,0,.18-.09.07-.11.06c.13.09.23.23.34.32a6.6,6.6,0,0,0,2.55,1.27C213.85,259.48,218.2,257.92,218.13,256.28Z"/>
          <path class="cls-45" d="M212.8,268.41a1.05,1.05,0,0,0,.25.08h0A1.91,1.91,0,0,1,212.8,268.41Z"/>
        </g>
        <path class="cls-46" d="M229.82,229.71c-1.13-1.15-4.31-2.82-6-1.47-3.55,2.86-29.68,20.24-41.52,20.65-3.59-1.91-7.46-.43-11.39,0-2.43.27-1.33,2.46,1.22,2.64,1.88.13,1.68-.08,3.29.5l-.15.11c-2.14,4.13-3.4,3.5-8.95,6s0,3.91,2.52,3.94c17.19-1.15,11.58-3.4,22.14-6.19,4.35-1.37,35.6-12.31,41.29-20.57C233.83,233.07,232,230.08,229.82,229.71Z"/>
        <path class="cls-47" d="M248.51,222.87c1.05-2,2-4.05,2.87-6.14.8-1.94,2-4.22,1.86-6.38-.13-2.36-4.86-5.49-6.7-5.77-2.45-.65-6.78,6.6-12.19,11.24-5.93,5.08-11.59,9-12.48,10.34-.54.81,2.8,6.05,4.23,7.53,1.71,1.79,3.36,3.73,5.19,5.39,3.74,3.38,3.74,3.38,9.29-4.33A70.64,70.64,0,0,0,248.51,222.87Z"/>
        <path class="cls-48" d="M350.54,318.93a4.13,4.13,0,0,0-4.56-1.55c-6.92,1.8-14.08,4-21.21,4.71-5.76.59-12.17-.4-15.11-6-1.43-2.75-2-6-2.48-9-.64-3.7-1.25-7.41-1.87-11.12-1.24-7.42-2.46-14.84-3.72-22.25-.57-3.34-1.15-6.8-4.32-8.69-2.6-1.56-5.9-1.4-8.84-1.3-6.05.19-12.68,2.45-15.34,8.37-2.55,5.65.24,12.84,2,18.67q1.35,8.06,3.09,16.07c2.16,10,4.5,20.32,8.05,30,1.5,4.07,3.9,7.79,8,9.61,3.56,1.58,7.58,1.6,11.37,1.07a143,143,0,0,0,30-7.43c4.72-1.76,10.12-3.8,13.65-7.54S353.62,323.06,350.54,318.93Z"/>
        <path class="cls-49" d="M315.75,245.8c-8.37-23.91-33.75-49-33.75-49-7.78-4.92-15.26-6-21-2.6l-.33.33c-4.14,2.26-6.36,2.79-12.61,7.72,0,0-6.69,4.4-5.52,9.54,1.75,7.73,6.94,14,8.15,18,2,6.79,23.51,42.63,25.24,49.83.22.93,12.84,6.08,47.25-14.73C323.15,264.92,318.55,251.57,315.75,245.8Z"/>
        <path class="cls-50" d="M251.2,185c-1.6-.78-3-1.45-4.62-.51a11.67,11.67,0,0,0-4,4.65,1.88,1.88,0,0,0,.51,2.18l.52.37c1.32,1.81,2.69,3.58,4.06,5.35.38.49.8,1.16,1.28,1.77a6,6,0,0,0,.08,1,4.29,4.29,0,0,0,.14.62c.17,2,.81,4,2.49,5.13,2.95,1.95,6.77.82,8.86-1.63a12.12,12.12,0,0,0,2.39-9.12C262.4,191.3,252.83,185.8,251.2,185Z"/>
        <path class="cls-51" d="M262.11,175.52c0-2.66-1-5.09-3.43-6.3a2.69,2.69,0,0,0-2.64.53l-.27.19c-1,.68-.81,6.27-.91,7.85-.16,2.66,1.23,5.11,4,3.85C261.08,180.65,262.09,177.77,262.11,175.52Z"/>
        <path class="cls-52" d="M254.62,167.55a13,13,0,0,0-5.55-5.76c-1.23-.66-.23-1.15-1.67-1.6a26.87,26.87,0,0,0-7.65-1.75,9.71,9.71,0,0,0-7.74,3.34c-3.83,4.07-4.25,7.49-3.81,12.65.47,5.48,1.91,18.75,6.61,22.28s8.85,2.5,11.28.88c1.64-1.09,11.43-8.43,10.85-16.11C256.53,176.11,257,172.59,254.62,167.55Z"/>
        <path class="cls-53" d="M257.05,163.63c-.39-1.47-2.64-1.92-3.27-.46a13.09,13.09,0,0,0-1.53-2.67c-1.12-1.46-6.24-3.26-6-2.71,1.65,4.45,4.58,8.55,4.84,12.41s-.84,8.44-.69,10.37,3.48-.54,4-1.56c.86-1.79,1.16-4.55,1.54-5.75C256.77,170.43,257.82,166.56,257.05,163.63Z"/>
        <path class="cls-54" d="M321.34,260.13c-2.19-6.66-44.42,12-62,17.9a104.3,104.3,0,0,0-14.17,5.84c-4.4,2.25-8.3,5.14-10.34,10.3-1.9,4.83-2.13,10.16-2.33,15.4a167.51,167.51,0,0,0,.41,18.06c.43,6,1.1,12,1.82,18,.66,5.58,1.19,11.48,6.17,14.35a16.11,16.11,0,0,0,11.19,1.28c-.4-7.66-.73-15.35-.48-23s1.11-16.72,4.71-23.62a20.1,20.1,0,0,1,2.55-5c5.08-7.2,14.52-8.58,22.16-9.31,6.93-.65,14.31-.48,21.66-.71,5.66-1.44,11.19-3.4,15.45-7.44C326.76,284.16,324.93,271,321.34,260.13Z"/>
        <path class="cls-55" d="M259.88,233.54s-2.76,10.29-18,14.34c-8,2.14-16.3,5.36-24.67,6.48-3.86.51-5.6.52-9.13,2.4-.83.44-5.25,3.36-6.56,3.9-4.11,1.71-9.07,1.4-5.87,3.89,4.22,3.29,11,2.92,15.47,1,4-1.68,3.29-2.41,6.6-2.66a141.68,141.68,0,0,0,26-4.44c8.55-2.45,11.07-1.81,18-5.84S272.87,236.36,277,231.7C278.34,230.24,259.88,233.54,259.88,233.54Z"/>
        <path class="cls-56" d="M283.05,203.61c-4-4-10.71-4.25-13.91.82a2.16,2.16,0,0,0-.23.49c-2.11,2.87-2.87,7.15-4,10.33-.87,2.51-1.93,5.06-2.87,7.64q-2.37,4.85-4.72,9.7c-1.09,2.26,8.88,7.55,12.36,8.14,3.07.51,7,1.77,9.71-.39,2.43-2,3.82-5.67,5-8.47a39.7,39.7,0,0,0,3-9.75C288.37,216,287.67,208.25,283.05,203.61Z"/>
        <path class="cls-57" d="M275.47,241.89a24,24,0,0,1-4.38-.57l-1.44-.27c-2.92-.49-11.06-4.52-12.49-7.28a1.46,1.46,0,0,1-.1-1.32c.77-1.59,3.66-5.32,6.71-9.26s6.28-8.11,6.71-9.35a.33.33,0,0,1,.42-.2.32.32,0,0,1,.2.41c-.47,1.35-3.55,5.33-6.81,9.54-2.9,3.74-5.9,7.61-6.64,9.15a.8.8,0,0,0,.09.73c1.22,2.37,9,6.44,12,6.94l1.45.27c2.75.53,5.86,1.14,8-.59s3.4-4.74,4.54-7.42l.4-.93a38.8,38.8,0,0,0,2.94-9.67,31.34,31.34,0,0,0,.34-3.47.32.32,0,0,1,.34-.31.32.32,0,0,1,.31.34,32.36,32.36,0,0,1-.34,3.54,39.31,39.31,0,0,1-3,9.83l-.39.92c-1.12,2.62-2.5,5.87-4.74,7.68A6.39,6.39,0,0,1,275.47,241.89Z"/>
      </g>
      <path class="cls-58" d="M160.63,378.78h-1.25a.78.78,0,0,1,0-1.55h2a.77.77,0,1,1,0,1.54Zm5.26-.09a.76.76,0,0,1-.77-.74.78.78,0,0,1,.74-.8l1.94-.07a.77.77,0,1,1,.07,1.54l-2,.07Zm-11,0h0l-2-.09a.77.77,0,0,1,.09-1.54c.64,0,1.28.07,1.93.09a.77.77,0,0,1,0,1.54Zm17.54-.3a.78.78,0,0,1-.77-.72.76.76,0,0,1,.72-.82l1.93-.15a.78.78,0,0,1,.83.71.76.76,0,0,1-.71.83l-1.95.14Zm-24-.1h-.07l-1.95-.18a.78.78,0,0,1-.69-.85.75.75,0,0,1,.84-.68l1.93.18a.76.76,0,0,1,.7.83A.77.77,0,0,1,148.36,378.27Zm30.5-.46a.77.77,0,0,1-.08-1.53l1.93-.21a.77.77,0,0,1,.17,1.53l-1.95.21Zm-37-.27h-.11l-1.93-.29a.77.77,0,1,1,.23-1.52L142,376a.77.77,0,0,1-.11,1.54Zm43.41-.48a.77.77,0,0,1-.1-1.53l1.93-.27a.78.78,0,0,1,.87.66.77.77,0,0,1-.66.87l-1.94.26Zm-49.81-.61-.15,0c-.65-.12-1.29-.26-1.93-.4a.77.77,0,0,1,.34-1.5l1.89.39a.78.78,0,0,1,.6.91A.77.77,0,0,1,135.5,376.45Zm56.25-.33a.77.77,0,0,1-.12-1.53l1.92-.31a.77.77,0,0,1,.89.63.79.79,0,0,1-.64.89l-1.93.31Zm6.41-1.1a.77.77,0,0,1-.14-1.53l1.91-.35a.77.77,0,1,1,.29,1.51l-1.92.36Zm-69,0-.2,0c-.63-.17-1.26-.34-1.89-.53a.76.76,0,0,1-.52-1,.75.75,0,0,1,1-.52l1.86.52a.76.76,0,0,1,.54.94A.77.77,0,0,1,129.17,375Zm75.37-1.2a.77.77,0,0,1-.15-1.52l1.9-.4a.77.77,0,1,1,.32,1.5l-1.91.41Zm-81.58-.7a.74.74,0,0,1-.25-.05c-.62-.21-1.24-.43-1.85-.66a.77.77,0,0,1-.46-1,.78.78,0,0,1,1-.46c.61.23,1.21.45,1.82.66a.77.77,0,0,1-.25,1.5Zm87.93-.68a.77.77,0,0,1-.17-1.52l1.9-.43a.77.77,0,0,1,.35,1.5l-1.91.43A.47.47,0,0,1,210.89,372.39Zm6.33-1.47a.77.77,0,0,1-.75-.59.78.78,0,0,1,.57-.93l1.89-.45a.76.76,0,0,1,.93.56.78.78,0,0,1-.56.94l-1.9.45A.55.55,0,0,1,217.22,370.92Zm-100.31-.21a.81.81,0,0,1-.31-.06q-.9-.39-1.8-.81a.77.77,0,0,1,.65-1.4c.58.28,1.17.54,1.76.79a.78.78,0,0,1,.4,1A.76.76,0,0,1,116.91,370.71Zm106.62-1.33a.78.78,0,0,1-.75-.59.77.77,0,0,1,.56-.93l1.89-.48a.77.77,0,0,1,.38,1.49l-1.89.48Zm-112.48-1.5a.67.67,0,0,1-.36-.09c-.58-.31-1.16-.62-1.73-1a.77.77,0,1,1,.76-1.34c.56.32,1.13.63,1.7.94a.77.77,0,0,1,.31,1A.76.76,0,0,1,111.05,367.88Zm118.77-.13a.79.79,0,0,1-.75-.58.77.77,0,0,1,.55-.94l1.88-.5a.77.77,0,0,1,.4,1.48l-1.88.51Zm6.27-1.71a.79.79,0,0,1-.75-.57.78.78,0,0,1,.54-1l1.87-.52a.76.76,0,0,1,.95.53.77.77,0,0,1-.53,1l-1.88.53A.69.69,0,0,1,236.09,366Zm-130.63-1.46a.72.72,0,0,1-.42-.13c-.55-.35-1.1-.72-1.64-1.09a.78.78,0,0,1-.2-1.08.77.77,0,0,1,1.07-.19l1.61,1.07a.77.77,0,0,1-.42,1.42Zm136.87-.34a.77.77,0,0,1-.74-.55.78.78,0,0,1,.53-1l1.86-.55a.77.77,0,1,1,.44,1.48l-1.87.55A.78.78,0,0,1,242.33,364.24Zm6.23-1.87a.77.77,0,0,1-.74-.54.78.78,0,0,1,.51-1l1.86-.57a.75.75,0,0,1,1,.5.76.76,0,0,1-.5,1l-1.87.58A.57.57,0,0,1,248.56,362.37Zm-148.4-1.57a.78.78,0,0,1-.47-.17q-.78-.6-1.53-1.23a.78.78,0,0,1-.11-1.09.78.78,0,0,1,1.09-.1c.49.41,1,.81,1.5,1.21a.77.77,0,0,1,.13,1.08A.76.76,0,0,1,100.16,360.8Zm154.59-.39a.78.78,0,0,1-.73-.53.77.77,0,0,1,.5-1l1.85-.61a.77.77,0,0,1,.48,1.47l-1.86.6A.67.67,0,0,1,254.75,360.41Zm6.18-2a.77.77,0,0,1-.73-.53.76.76,0,0,1,.48-1l1.84-.63a.77.77,0,1,1,.5,1.46l-1.85.63A.67.67,0,0,1,260.93,358.37ZM95,356.87a.78.78,0,0,1-.48-.17c-.52-.41-1-.85-1.52-1.3a.76.76,0,0,1,0-1.09.77.77,0,0,1,1.09-.05c.47.43.95.84,1.44,1.24a.77.77,0,0,1-.48,1.37Zm172.07-.63a.77.77,0,0,1-.26-1.49l1.84-.66a.77.77,0,0,1,1,.47.76.76,0,0,1-.46,1l-1.84.66A.78.78,0,0,1,267.07,356.24Zm6.12-2.21a.77.77,0,0,1-.27-1.49l1.82-.68a.77.77,0,1,1,.54,1.44c-.6.23-1.21.46-1.83.68A.8.8,0,0,1,273.19,354ZM90.38,352.31a.76.76,0,0,1-.59-.27c-.42-.51-.83-1-1.24-1.56a.78.78,0,0,1,.15-1.08.77.77,0,0,1,1.08.15c.39.51.79,1,1.19,1.5a.77.77,0,0,1-.09,1.08A.79.79,0,0,1,90.38,352.31Zm188.89-.58a.76.76,0,0,1-.72-.49.78.78,0,0,1,.44-1l1.82-.7a.77.77,0,1,1,.56,1.43l-1.82.71A.69.69,0,0,1,279.27,351.73Zm6.05-2.38a.77.77,0,0,1-.29-1.49l1.81-.73a.77.77,0,0,1,.58,1.43l-1.81.73A.75.75,0,0,1,285.32,349.35ZM86.62,347a.76.76,0,0,1-.66-.37q-.51-.84-1-1.71a.77.77,0,1,1,1.34-.75c.32.56.64,1.12,1,1.66a.78.78,0,0,1-.26,1.06A.86.86,0,0,1,86.62,347Zm204.72-.15a.75.75,0,0,1-.71-.47.77.77,0,0,1,.41-1l1.79-.75a.77.77,0,1,1,.6,1.41l-1.8.76A.58.58,0,0,1,291.34,346.87Zm6-2.56a.77.77,0,0,1-.31-1.47l1.79-.79a.77.77,0,0,1,.62,1.41l-1.79.79A.81.81,0,0,1,297.31,344.31Zm5.94-2.65a.76.76,0,0,1-.7-.45.78.78,0,0,1,.38-1l1.78-.81a.77.77,0,1,1,.64,1.4l-1.78.81A.71.71,0,0,1,303.25,341.66Zm-219.65-.4a.78.78,0,0,1-.7-.45c-.27-.59-.53-1.2-.78-1.81a.77.77,0,1,1,1.42-.59c.25.6.5,1.19.77,1.77a.78.78,0,0,1-.39,1A.87.87,0,0,1,83.6,341.26Zm225.55-2.34a.75.75,0,0,1-.69-.44.78.78,0,0,1,.36-1l1.76-.83a.76.76,0,0,1,1,.36.77.77,0,0,1-.36,1l-1.77.85A.75.75,0,0,1,309.15,338.92Zm5.86-2.83a.77.77,0,0,1-.34-1.46l1.75-.87a.77.77,0,1,1,.68,1.38l-1.75.87A.81.81,0,0,1,315,336.09Zm-233.78-.87a.78.78,0,0,1-.73-.53c-.21-.61-.41-1.24-.61-1.87a.77.77,0,0,1,.51-1,.76.76,0,0,1,1,.51c.19.62.39,1.23.6,1.84a.77.77,0,0,1-.49,1A.69.69,0,0,1,81.23,335.22Zm239.59-2.06a.75.75,0,0,1-.68-.42.76.76,0,0,1,.33-1l1.73-.9a.78.78,0,0,1,1,.33.77.77,0,0,1-.33,1l-1.74.9A.72.72,0,0,1,320.82,333.16Zm5.76-3a.77.77,0,0,1-.36-1.45l1.72-.93a.77.77,0,0,1,1,.31.78.78,0,0,1-.31,1.05l-1.72.92A.71.71,0,0,1,326.58,330.15ZM79.4,329a.77.77,0,0,1-.74-.59c-.16-.63-.31-1.27-.46-1.91a.77.77,0,0,1,.58-.92.76.76,0,0,1,.92.58c.15.63.29,1.26.45,1.88a.77.77,0,0,1-.56.93A.63.63,0,0,1,79.4,329Zm252.9-2a.79.79,0,0,1-.68-.39.77.77,0,0,1,.31-1.05l1.69-.95a.78.78,0,0,1,1.05.29.77.77,0,0,1-.29,1.05l-1.71,1A.81.81,0,0,1,332.3,327Zm5.66-3.2a.77.77,0,0,1-.39-1.44c.57-.32,1.13-.65,1.69-1a.77.77,0,0,1,.78,1.33l-1.7,1A.75.75,0,0,1,338,323.83Zm-259.9-1.21a.77.77,0,0,1-.75-.64c-.12-.65-.22-1.29-.32-1.94a.77.77,0,0,1,1.52-.24c.1.64.2,1.28.31,1.91a.76.76,0,0,1-.62.89Zm265.51-2.09a.75.75,0,0,1-.66-.37.77.77,0,0,1,.26-1.06l1.67-1a.76.76,0,0,1,1.05.26.77.77,0,0,1-.25,1.06l-1.68,1A.79.79,0,0,1,343.57,320.53Zm5.54-3.4a.78.78,0,0,1-.65-.36.77.77,0,0,1,.25-1.06l1.65-1a.78.78,0,0,1,1.06.24.77.77,0,0,1-.24,1.07l-1.66,1A.84.84,0,0,1,349.11,317.13Zm-272-.95a.78.78,0,0,1-.76-.69c-.07-.65-.13-1.3-.19-2a.77.77,0,1,1,1.53-.13c.06.64.12,1.29.19,1.93a.76.76,0,0,1-.68.84Zm277.44-2.54a.77.77,0,0,1-.42-1.42l1.63-1.06a.77.77,0,1,1,.85,1.29L355,313.52A.79.79,0,0,1,354.6,313.64Zm5.43-3.59a.77.77,0,0,1-.44-1.41l1.62-1.09a.77.77,0,1,1,.86,1.27l-1.61,1.1A.77.77,0,0,1,360,310.05ZM76.67,309.7a.78.78,0,0,1-.77-.74c0-.65-.06-1.3-.08-2a.79.79,0,0,1,.75-.8.77.77,0,0,1,.79.75c0,.65,0,1.3.08,1.94a.77.77,0,0,1-.74.8Zm288.72-3.34a.76.76,0,0,1-.63-.32.77.77,0,0,1,.18-1.08l1.59-1.12a.77.77,0,1,1,.9,1.26l-1.6,1.12A.74.74,0,0,1,365.39,306.36ZM76.55,303.2h0a.78.78,0,0,1-.76-.78l0-2a.78.78,0,0,1,.77-.76h0a.79.79,0,0,1,.76.8c0,.64,0,1.29,0,1.93A.77.77,0,0,1,76.55,303.2Zm294.12-.62a.77.77,0,0,1-.45-1.39l1.57-1.15a.77.77,0,1,1,.91,1.24l-1.57,1.15A.79.79,0,0,1,370.67,302.58Zm5.22-3.88a.77.77,0,0,1-.46-1.39l1.54-1.18a.78.78,0,0,1,1.08.14.77.77,0,0,1-.14,1.08l-1.55,1.19A.76.76,0,0,1,375.89,298.7Zm-299.1-2h-.05a.78.78,0,0,1-.72-.82c0-.65.09-1.3.14-2a.76.76,0,0,1,.83-.71.79.79,0,0,1,.71.83c0,.65-.1,1.29-.14,1.94A.78.78,0,0,1,76.79,296.7Zm304.24-2a.74.74,0,0,1-.6-.3.77.77,0,0,1,.12-1.08l1.53-1.21a.77.77,0,0,1,1,1.21l-1.53,1.21A.78.78,0,0,1,381,294.72Zm5.07-4.08a.77.77,0,0,1-.49-1.37l1.5-1.24a.77.77,0,0,1,1,1.19l-1.51,1.24A.74.74,0,0,1,386.1,290.64Zm-308.73-.42h-.09a.76.76,0,0,1-.67-.85q.11-1,.24-1.95a.77.77,0,1,1,1.53.2q-.13,1-.24,1.92A.77.77,0,0,1,77.37,290.22Zm313.71-3.76a.78.78,0,0,1-.59-.27.76.76,0,0,1,.09-1.08l1.47-1.27a.77.77,0,1,1,1,1.16l-1.48,1.28A.79.79,0,0,1,391.08,286.46ZM78.29,283.79h-.13a.77.77,0,0,1-.63-.89c.11-.64.23-1.29.34-1.93a.77.77,0,0,1,1.52.28c-.12.63-.23,1.27-.34,1.91A.77.77,0,0,1,78.29,283.79ZM396,282.19a.77.77,0,0,1-.51-1.35l1.45-1.29a.77.77,0,1,1,1,1.14l-1.45,1.3A.79.79,0,0,1,396,282.19Zm4.81-4.37a.73.73,0,0,1-.56-.25.77.77,0,0,1,0-1.09l1.42-1.32a.77.77,0,1,1,1.05,1.12l-1.42,1.33A.77.77,0,0,1,400.78,277.82Zm-321.24-.41-.17,0a.77.77,0,0,1-.58-.92c.14-.64.29-1.27.44-1.91a.77.77,0,0,1,.93-.57.78.78,0,0,1,.57.93c-.15.63-.3,1.26-.44,1.88A.78.78,0,0,1,79.54,277.41Zm326-4.06a.82.82,0,0,1-.56-.23.78.78,0,0,1,0-1.09l1.4-1.36a.77.77,0,0,1,1.07,1.1c-.46.46-.93.91-1.4,1.36A.74.74,0,0,1,405.5,273.35ZM81.11,271.1l-.2,0a.77.77,0,0,1-.54-.95c.17-.62.35-1.25.54-1.88a.77.77,0,0,1,1-.53.78.78,0,0,1,.53,1c-.19.62-.36,1.24-.53,1.87A.78.78,0,0,1,81.11,271.1Zm329-2.31a.78.78,0,0,1-.55-1.32l1.36-1.38a.77.77,0,0,1,1.11,1.08l-1.38,1.39A.76.76,0,0,1,410.12,268.79ZM83,264.88a.67.67,0,0,1-.24,0,.76.76,0,0,1-.49-1c.2-.62.42-1.24.63-1.86a.77.77,0,0,1,1.46.51q-.33.92-.63,1.83A.77.77,0,0,1,83,264.88Zm331.63-.75a.74.74,0,0,1-.53-.22.76.76,0,0,1,0-1.08l1.34-1.42a.77.77,0,1,1,1.12,1.06l-1.34,1.42A.77.77,0,0,1,414.64,264.13Zm4.42-4.76a.76.76,0,0,1-.51-.2.77.77,0,0,1-.06-1.09l1.31-1.44a.76.76,0,0,1,1.08-.06.77.77,0,0,1,.07,1.09l-1.32,1.45A.75.75,0,0,1,419.06,259.37Zm-333.84-.6a.92.92,0,0,1-.28,0,.77.77,0,0,1-.43-1c.24-.61.48-1.22.73-1.82a.77.77,0,1,1,1.42.58l-.72,1.8A.78.78,0,0,1,85.22,258.77Zm338.17-4.25a.83.83,0,0,1-.51-.19.77.77,0,0,1-.07-1.09l.31-.36.94-1.11a.78.78,0,0,1,1.09-.09.75.75,0,0,1,.09,1.08c-.31.38-.63.76-1,1.13l-.31.36A.76.76,0,0,1,423.39,254.52ZM87.76,252.78a.71.71,0,0,1-.32-.07.76.76,0,0,1-.38-1c.27-.59.55-1.19.83-1.78a.76.76,0,0,1,1-.37.77.77,0,0,1,.37,1c-.28.59-.55,1.17-.82,1.76A.76.76,0,0,1,87.76,252.78Zm339.73-3.3a.8.8,0,0,1-.47-.15.78.78,0,0,1-.15-1.08c.39-.52.78-1,1.16-1.55a.77.77,0,1,1,1.24.9c-.38.53-.77,1.06-1.17,1.58A.76.76,0,0,1,427.49,249.48ZM90.61,246.93a.73.73,0,0,1-.35-.09.77.77,0,0,1-.33-1c.31-.58.61-1.16.93-1.73a.75.75,0,0,1,1-.31.76.76,0,0,1,.31,1c-.31.57-.61,1.14-.91,1.72A.78.78,0,0,1,90.61,246.93Zm340.65-2.74a.75.75,0,0,1-.43-.13.77.77,0,0,1-.21-1.07l1.07-1.62a.76.76,0,0,1,1.06-.23.77.77,0,0,1,.23,1.07l-1.08,1.64A.77.77,0,0,1,431.26,244.19ZM93.78,241.25a.79.79,0,0,1-.39-.11.77.77,0,0,1-.27-1.06c.33-.56.67-1.12,1-1.67a.77.77,0,0,1,1.06-.26.78.78,0,0,1,.25,1.06c-.34.55-.67,1.11-1,1.66A.8.8,0,0,1,93.78,241.25Zm341-2.55a.79.79,0,0,1-.39-.11.77.77,0,0,1-.26-1.06l1-1.67a.77.77,0,0,1,1.05-.28.76.76,0,0,1,.28,1l-1,1.7A.78.78,0,0,1,434.74,238.7ZM97.26,235.75a.75.75,0,0,1-.43-.13.77.77,0,0,1-.21-1.07l1.11-1.62a.78.78,0,0,1,1.27.89c-.38.53-.74,1.06-1.1,1.59A.75.75,0,0,1,97.26,235.75ZM438,233.06a.71.71,0,0,1-.37-.1.76.76,0,0,1-.3-1l.93-1.71a.77.77,0,0,1,1.36.74l-.94,1.71A.78.78,0,0,1,438,233.06Zm-253.82-.44h0c-.67,0-1.35,0-2-.1a.78.78,0,0,1-.7-.83.76.76,0,0,1,.84-.7q.93.07,1.89.09a.77.77,0,0,1,0,1.54Zm4.53-.3a.78.78,0,0,1-.76-.66.76.76,0,0,1,.66-.87c.62-.09,1.24-.2,1.88-.32a.77.77,0,0,1,.3,1.51c-.67.13-1.32.24-2,.33Zm-10.94-.62a.76.76,0,0,1-.21,0,17.88,17.88,0,0,1-1.91-.65.77.77,0,1,1,.56-1.43c.58.23,1.18.43,1.77.6a.77.77,0,0,1-.21,1.51Zm17.27-.85a.77.77,0,0,1-.24-1.5c.62-.2,1.21-.42,1.78-.65a.77.77,0,0,1,.58,1.42c-.59.25-1.23.48-1.88.7A1,1,0,0,1,195,230.85Zm-94-.38a.74.74,0,0,1-.46-.16.77.77,0,0,1-.15-1.08c.39-.52.79-1,1.2-1.55a.78.78,0,0,1,1.08-.13.77.77,0,0,1,.13,1.08l-1.18,1.53A.79.79,0,0,1,101,230.47ZM171.9,229a.85.85,0,0,1-.43-.12c-.55-.37-1.1-.77-1.62-1.19a.77.77,0,0,1,1-1.21c.49.39,1,.77,1.52,1.11a.77.77,0,0,1-.43,1.41Zm28.94-1a.77.77,0,0,1-.46-1.39,10.68,10.68,0,0,0,1.36-1.2.77.77,0,0,1,1.12,1.06,13.22,13.22,0,0,1-1.56,1.38A.79.79,0,0,1,200.84,228Zm240.23-.67a.72.72,0,0,1-.35-.08.77.77,0,0,1-.33-1c.3-.58.6-1.15.89-1.73a.76.76,0,0,1,1-.34.78.78,0,0,1,.34,1c-.29.58-.59,1.16-.89,1.74A.78.78,0,0,1,441.07,227.32Zm-335.95-1.91a.79.79,0,0,1-.5-.18.77.77,0,0,1-.08-1.09c.42-.5.85-1,1.28-1.48a.77.77,0,1,1,1.16,1c-.43.48-.85,1-1.27,1.46A.76.76,0,0,1,105.12,225.41Zm61.95-.74a.76.76,0,0,1-.58-.27c-.43-.5-.85-1-1.25-1.57a.77.77,0,0,1,.17-1.08.76.76,0,0,1,1.07.17c.38.51.78,1,1.18,1.48a.78.78,0,0,1-.09,1.09A.77.77,0,0,1,167.07,224.67Zm37.35-1.92-.15,0a.77.77,0,0,1-.61-.9,6.26,6.26,0,0,0,.13-1.31c0-.14,0-.29,0-.43a.77.77,0,1,1,1.53-.1c0,.18,0,.36,0,.54a8.51,8.51,0,0,1-.15,1.6A.79.79,0,0,1,204.42,222.75ZM444,221.52a.84.84,0,0,1-.34-.08.77.77,0,0,1-.35-1l.87-1.75a.77.77,0,1,1,1.38.68l-.87,1.75A.77.77,0,0,1,444,221.52Zm-334.52-.92a.79.79,0,0,1-.53-.22.77.77,0,0,1,0-1.09c.45-.47.91-.94,1.38-1.4A.77.77,0,0,1,111.4,219q-.69.68-1.35,1.38A.79.79,0,0,1,109.49,220.6Zm54-1.31a.78.78,0,0,1-.68-.41c-.31-.58-.6-1.18-.88-1.79a.77.77,0,0,1,1.4-.64q.41.87.84,1.71a.77.77,0,0,1-.31,1A.81.81,0,0,1,163.45,219.29Zm39.79-2.79a.76.76,0,0,1-.68-.41,18.33,18.33,0,0,0-1-1.59.76.76,0,0,1,.19-1.07.77.77,0,0,1,1.07.2,17,17,0,0,1,1.07,1.74.78.78,0,0,1-.32,1A.8.8,0,0,1,203.24,216.5Zm-89.11-.45a.79.79,0,0,1-.57-.25.76.76,0,0,1,0-1.09c.48-.45,1-.89,1.46-1.32a.77.77,0,0,1,1.09.08.76.76,0,0,1-.07,1.08q-.72.63-1.44,1.29A.75.75,0,0,1,114.13,216.05Zm332.75-.37a.81.81,0,0,1-.34-.08.77.77,0,0,1-.35-1l.85-1.75a.77.77,0,0,1,1-.36.78.78,0,0,1,.36,1l-.86,1.76A.77.77,0,0,1,446.88,215.68Zm-285.95-2.37a.77.77,0,0,1-.73-.53c-.21-.63-.4-1.26-.59-1.9a.78.78,0,0,1,.54-.95.77.77,0,0,1,.95.53c.17.62.36,1.23.56,1.83a.78.78,0,0,1-.49,1A1,1,0,0,1,160.93,213.31Zm-41.83-1.45a.76.76,0,0,1-.61-.3.77.77,0,0,1,.14-1.08c.52-.41,1.05-.8,1.58-1.18a.77.77,0,0,1,.9,1.24c-.51.38-1,.76-1.54,1.16A.76.76,0,0,1,119.1,211.86Zm80.15-.46a.78.78,0,0,1-.54-.21c-.44-.43-.92-.86-1.41-1.28a.77.77,0,1,1,1-1.17c.53.44,1,.88,1.49,1.34a.77.77,0,0,1-.53,1.32Zm250-1.08h-.44a.76.76,0,0,1-.76-.78.81.81,0,0,1,.78-.76H449a.17.17,0,0,1,0-.05l.87-1.75a.77.77,0,0,1,1-.34.77.77,0,0,1,.34,1l-.53,1.07a.77.77,0,0,1,.76.73.77.77,0,0,1-.73.81C450.28,210.3,449.76,210.32,449.24,210.32Zm-4.94-.54-.18,0a18.51,18.51,0,0,1-1.95-.6.77.77,0,0,1,.54-1.44,15.25,15.25,0,0,0,1.77.54.76.76,0,0,1,.57.92A.77.77,0,0,1,444.3,209.78Zm11-.07a.77.77,0,0,1-.15-1.53c.62-.12,1.25-.26,1.87-.41a.77.77,0,0,1,.37,1.5q-1,.24-1.95.42Zm-330.85-1.57a.78.78,0,0,1-.42-1.43l1.69-1a.78.78,0,0,1,1,.27.77.77,0,0,1-.27,1.06c-.55.33-1.1.66-1.64,1A.78.78,0,0,1,124.43,208.14ZM461.54,208a.77.77,0,0,1-.26-1.5c.61-.21,1.21-.44,1.8-.68a.77.77,0,0,1,.58,1.43c-.61.24-1.23.48-1.86.7A.75.75,0,0,1,461.54,208Zm-267.39-.6a.86.86,0,0,1-.43-.13q-.78-.52-1.62-1a.78.78,0,0,1-.26-1.06.77.77,0,0,1,1.06-.26c.57.34,1.13.69,1.67,1.05a.76.76,0,0,1,.22,1.07A.78.78,0,0,1,194.15,207.38ZM159.31,207a.76.76,0,0,1-.75-.62c-.13-.65-.24-1.3-.34-1.95a.77.77,0,0,1,.64-.88.76.76,0,0,1,.88.64c.1.64.21,1.27.33,1.9a.77.77,0,0,1-.61.9Zm279.23-.09a.78.78,0,0,1-.51-.2,12,12,0,0,1-1.43-1.51.77.77,0,0,1,.13-1.08.76.76,0,0,1,1.08.12,9.69,9.69,0,0,0,1.24,1.32.77.77,0,0,1-.51,1.35Zm28.95-1.56a.77.77,0,0,1-.36-1.45c.58-.3,1.13-.62,1.67-.94a.79.79,0,0,1,1.06.27.77.77,0,0,1-.27,1.06c-.56.33-1.14.66-1.74,1A.77.77,0,0,1,467.49,205.36Zm-337.41-.43a.75.75,0,0,1-.69-.42.78.78,0,0,1,.34-1c.59-.3,1.18-.58,1.77-.86a.77.77,0,1,1,.66,1.39l-1.74.85A.84.84,0,0,1,130.08,204.93Zm58.41-.75a.8.8,0,0,1-.33-.08c-.57-.28-1.15-.55-1.75-.81a.77.77,0,0,1-.39-1,.77.77,0,0,1,1-.39c.62.27,1.21.55,1.8.83a.77.77,0,0,1-.34,1.47Zm264.2-.14a.8.8,0,0,1-.36-.09.78.78,0,0,1-.32-1l.92-1.73a.77.77,0,0,1,1.36.73c-.31.56-.61,1.13-.92,1.71A.75.75,0,0,1,452.69,204ZM136,202.29a.77.77,0,0,1-.27-1.49c.61-.24,1.23-.47,1.84-.68a.76.76,0,0,1,1,.46.78.78,0,0,1-.47,1c-.6.21-1.21.43-1.81.67A.87.87,0,0,1,136,202.29Zm337-.44a.77.77,0,0,1-.48-1.38c.51-.41,1-.82,1.44-1.23a.77.77,0,0,1,1.05,1.13c-.47.44-1,.88-1.53,1.31A.78.78,0,0,1,473,201.85Zm-290.47-.17a.74.74,0,0,1-.25-.05c-.6-.21-1.21-.42-1.83-.61a.77.77,0,1,1,.47-1.47c.63.2,1.26.41,1.87.63a.77.77,0,0,1-.26,1.5Zm252.65-.2a.77.77,0,0,1-.74-.54,17,17,0,0,1-.47-2,.77.77,0,0,1,1.51-.27,14.08,14.08,0,0,0,.44,1.81.78.78,0,0,1-.51,1Zm-276.69-.91a.77.77,0,0,1-.77-.71c-.05-.65-.09-1.31-.13-2a.78.78,0,0,1,.73-.81.77.77,0,0,1,.81.73c0,.65.08,1.29.13,1.93a.78.78,0,0,1-.71.83Zm-16.27-.32a.77.77,0,0,1-.74-.57.78.78,0,0,1,.54-1c.63-.17,1.27-.34,1.91-.49a.77.77,0,1,1,.36,1.49c-.62.15-1.24.32-1.86.49A.76.76,0,0,1,142.18,200.25Zm34.09-.43a.58.58,0,0,1-.19,0l-1.88-.43a.77.77,0,0,1-.59-.91.78.78,0,0,1,.92-.6c.64.14,1.29.29,1.92.45a.77.77,0,0,1-.18,1.52Zm-27.75-1a.78.78,0,0,1-.76-.64.77.77,0,0,1,.63-.89c.65-.12,1.3-.22,2-.31a.77.77,0,0,1,.22,1.52c-.64.09-1.27.19-1.91.3Zm21.37-.26h-.12l-1.91-.25a.77.77,0,0,1,.18-1.53c.66.08,1.31.16,2,.26a.77.77,0,0,1,.65.87A.78.78,0,0,1,169.89,198.57Zm286-.21a.8.8,0,0,1-.4-.11.78.78,0,0,1-.26-1.06c.35-.58.69-1.13,1-1.67a.77.77,0,0,1,1.06-.24.78.78,0,0,1,.24,1.07c-.34.53-.68,1.07-1,1.64A.77.77,0,0,1,455.87,198.36ZM155,198a.77.77,0,0,1-.06-1.54c.66-.05,1.32-.08,2-.11a.77.77,0,1,1,.07,1.53q-1,0-1.92.12Zm8.45-.09h0l-1.93-.07a.76.76,0,0,1-.75-.78.77.77,0,0,1,.77-.76h0c.66,0,1.31,0,2,.08a.77.77,0,0,1,0,1.54Zm313.93-.84A.79.79,0,0,1,477,197a.76.76,0,0,1-.27-1.05,7.76,7.76,0,0,0,.72-1.61.76.76,0,0,1,1-.51.77.77,0,0,1,.51,1,9.31,9.31,0,0,1-.86,1.94A.8.8,0,0,1,477.35,197.1Zm-43-2h0a.76.76,0,0,1-.74-.8c0-.64.06-1.3.13-2a.77.77,0,0,1,1.53.15c-.06.66-.1,1.29-.13,1.9A.76.76,0,0,1,434.4,195.06Zm-276.16-1h0a.76.76,0,0,1-.76-.78c0-.65,0-1.31.05-2a.81.81,0,0,1,.8-.74.78.78,0,0,1,.74.8c0,.65,0,1.29-.05,1.93A.77.77,0,0,1,158.24,194.07ZM459.53,193a.78.78,0,0,1-.48-.17.77.77,0,0,1-.13-1.08c.44-.55.87-1.06,1.3-1.53a.76.76,0,0,1,1.08-.05.77.77,0,0,1,.06,1.09c-.42.45-.82.93-1.23,1.45A.77.77,0,0,1,459.53,193Zm18-2a.78.78,0,0,1-.63-.33,6,6,0,0,0-1.19-1.24.77.77,0,0,1,1-1.21,7.55,7.55,0,0,1,1.49,1.57.76.76,0,0,1-.19,1.07A.79.79,0,0,1,477.52,191Zm-42.26-2.36-.17,0a.77.77,0,0,1-.59-.92c.14-.62.29-1.27.46-1.92a.78.78,0,0,1,.94-.56.77.77,0,0,1,.55.94c-.16.64-.31,1.26-.44,1.87A.78.78,0,0,1,435.26,188.63Zm28.93-.12a.77.77,0,0,1-.42-1.42,12,12,0,0,1,1.82-1,.77.77,0,1,1,.6,1.42,10.17,10.17,0,0,0-1.58.85A.74.74,0,0,1,464.19,188.51Zm-305.58-.93h-.08a.77.77,0,0,1-.69-.84c.06-.66.14-1.31.22-2a.76.76,0,0,1,.86-.67.77.77,0,0,1,.67.86c-.08.64-.15,1.28-.22,1.92A.76.76,0,0,1,158.61,187.58Zm313.6-.18a.69.69,0,0,1-.25,0,8.85,8.85,0,0,0-1.75-.41.77.77,0,0,1,.2-1.53,11.24,11.24,0,0,1,2,.48.78.78,0,0,1,.48,1A.77.77,0,0,1,472.21,187.4Zm-35.2-5a.67.67,0,0,1-.24,0,.77.77,0,0,1-.49-1q.32-.92.66-1.86a.77.77,0,0,1,1-.46.78.78,0,0,1,.46,1c-.23.62-.44,1.22-.65,1.82A.75.75,0,0,1,437,182.37Zm-277.49-1.23h-.15a.77.77,0,0,1-.61-.9c.12-.64.24-1.29.38-1.93a.76.76,0,0,1,.91-.6.77.77,0,0,1,.59.91c-.13.63-.25,1.27-.37,1.9A.77.77,0,0,1,159.52,181.14Zm279.81-4.84a.8.8,0,0,1-.3-.06.78.78,0,0,1-.41-1c.25-.59.51-1.19.79-1.8a.77.77,0,1,1,1.4.62l-.77,1.78A.77.77,0,0,1,439.33,176.3ZM161,174.8a.69.69,0,0,1-.2,0,.77.77,0,0,1-.55-.94l.54-1.9a.77.77,0,0,1,1.48.44c-.18.62-.36,1.24-.53,1.86A.77.77,0,0,1,161,174.8ZM442,170.39a.78.78,0,0,1-.69-1.11c.28-.58.57-1.16.87-1.75a.77.77,0,1,1,1.38.69c-.3.59-.59,1.17-.86,1.74A.79.79,0,0,1,442,170.39Zm-279.11-1.78a.86.86,0,0,1-.27-.05.78.78,0,0,1-.46-1c.23-.62.47-1.23.71-1.84a.77.77,0,1,1,1.43.58c-.24.59-.47,1.19-.69,1.79A.77.77,0,0,1,162.92,168.61Zm282.09-4a.84.84,0,0,1-.37-.09.78.78,0,0,1-.31-1.05c.31-.56.62-1.14.94-1.71a.77.77,0,1,1,1.35.74c-.32.58-.63,1.14-.93,1.71A.79.79,0,0,1,445,164.61Zm-279.57-2a.79.79,0,0,1-.7-1.11c.29-.59.58-1.18.89-1.77a.77.77,0,0,1,1.36.72c-.29.56-.58,1.14-.86,1.72A.77.77,0,0,1,165.44,162.63Zm282.74-3.69a.86.86,0,0,1-.38-.1.77.77,0,0,1-.29-1.05l.95-1.7a.77.77,0,0,1,1.35.75l-1,1.7A.77.77,0,0,1,448.18,158.94Zm-279.62-2a.72.72,0,0,1-.4-.12.77.77,0,0,1-.25-1.06c.35-.56.71-1.12,1.08-1.66a.77.77,0,1,1,1.28.86q-.54.8-1.05,1.62A.79.79,0,0,1,168.56,156.93Zm282.78-3.67a.71.71,0,0,1-.37-.1.77.77,0,0,1-.31-1l.94-1.71a.77.77,0,1,1,1.35.73l-.93,1.72A.79.79,0,0,1,451.34,153.26Zm-279-1.61a.74.74,0,0,1-.49-.18.76.76,0,0,1-.11-1.08c.42-.52.85-1,1.29-1.51a.77.77,0,0,1,1.15,1c-.42.47-.84,1-1.25,1.45A.75.75,0,0,1,172.35,151.65Zm282.08-4.11a.8.8,0,0,1-.36-.09.77.77,0,0,1-.31-1l.91-1.72a.77.77,0,1,1,1.36.72l-.92,1.72A.76.76,0,0,1,454.43,147.54ZM176.84,147a.78.78,0,0,1-.58-.26.77.77,0,0,1,.07-1.09c.5-.44,1-.87,1.52-1.28a.77.77,0,1,1,1,1.2c-.49.4-1,.81-1.46,1.23A.78.78,0,0,1,176.84,147Zm280.62-5.17a.73.73,0,0,1-.35-.09.77.77,0,0,1-.33-1c.3-.58.59-1.16.89-1.73a.75.75,0,0,1,1-.33.77.77,0,0,1,.34,1c-.3.58-.59,1.16-.9,1.74A.77.77,0,0,1,457.46,141.79Zm3-5.8a.72.72,0,0,1-.35-.08.77.77,0,0,1-.34-1l.87-1.74a.77.77,0,1,1,1.38.68l-.87,1.75A.77.77,0,0,1,460.41,136Zm2.86-5.83a.67.67,0,0,1-.33-.08.78.78,0,0,1-.36-1l.84-1.75a.77.77,0,1,1,1.39.66l-.84,1.76A.77.77,0,0,1,463.27,130.16Zm2.78-5.88a.71.71,0,0,1-.32-.07.77.77,0,0,1-.38-1c.28-.59.55-1.18.82-1.77a.77.77,0,0,1,1.4.64l-.82,1.78A.77.77,0,0,1,466.05,124.28Zm2.69-5.92a.87.87,0,0,1-.32-.06.78.78,0,0,1-.39-1c.27-.6.53-1.19.78-1.78a.77.77,0,0,1,1.42.62c-.26.59-.52,1.19-.79,1.79A.78.78,0,0,1,468.74,118.36Zm2.57-6a.72.72,0,0,1-.29-.06.78.78,0,0,1-.42-1l.75-1.8a.77.77,0,0,1,1.43.59l-.76,1.8A.77.77,0,0,1,471.31,112.4Zm2.47-6a1,1,0,0,1-.29,0,.78.78,0,0,1-.43-1l.72-1.81a.77.77,0,1,1,1.43.56l-.72,1.82A.77.77,0,0,1,473.78,106.38Zm2.34-6.06a.86.86,0,0,1-.27,0,.78.78,0,0,1-.46-1c.23-.61.46-1.22.68-1.83a.77.77,0,1,1,1.44.53c-.22.61-.44,1.22-.67,1.84A.77.77,0,0,1,476.12,100.32Zm2.19-6.12a.73.73,0,0,1-.25,0,.77.77,0,0,1-.47-1c.21-.62.42-1.23.62-1.84a.77.77,0,0,1,1-.48.76.76,0,0,1,.48,1c-.2.61-.41,1.23-.63,1.85A.77.77,0,0,1,478.31,94.2ZM480.36,88a1,1,0,0,1-.24,0,.78.78,0,0,1-.5-1c.2-.63.39-1.24.58-1.86a.78.78,0,0,1,1-.51.77.77,0,0,1,.51,1c-.19.62-.38,1.24-.58,1.87A.77.77,0,0,1,480.36,88Zm1.86-6.22a.77.77,0,0,1-.74-1c.18-.63.35-1.26.52-1.88a.77.77,0,0,1,1.49.41c-.17.62-.35,1.25-.53,1.89A.77.77,0,0,1,482.22,81.81Zm1.67-6.29a.58.58,0,0,1-.19,0,.76.76,0,0,1-.56-.93l.45-1.89a.77.77,0,0,1,1.5.35c-.15.63-.3,1.26-.46,1.91A.76.76,0,0,1,483.89,75.52Zm1.43-6.33-.16,0a.78.78,0,0,1-.6-.91c.14-.64.26-1.28.38-1.9a.77.77,0,1,1,1.51.29c-.12.63-.24,1.27-.38,1.92A.76.76,0,0,1,485.32,69.19Zm1.16-6.4h-.12a.76.76,0,0,1-.64-.88c.1-.65.2-1.29.28-1.91a.78.78,0,0,1,.87-.66.77.77,0,0,1,.66.87c-.09.64-.19,1.28-.29,1.94A.77.77,0,0,1,486.48,62.79Zm.84-6.44h-.08a.79.79,0,0,1-.69-.85c.07-.66.13-1.3.18-1.93a.78.78,0,0,1,.83-.7.76.76,0,0,1,.7.83c-.05.64-.11,1.29-.18,2A.77.77,0,0,1,487.32,56.35Zm.44-6.48h0a.78.78,0,0,1-.74-.8c0-.66,0-1.31,0-1.93a.76.76,0,0,1,.77-.76h0a.77.77,0,0,1,.77.77c0,.64,0,1.29,0,2A.77.77,0,0,1,487.76,49.87Zm-.07-6.5a.77.77,0,0,1-.77-.73c0-.67-.09-1.31-.14-1.91a.77.77,0,0,1,1.53-.15c.06.62.11,1.28.15,2a.78.78,0,0,1-.73.82Zm-.78-6.45a.77.77,0,0,1-.75-.62q-.11-.55-.21-1a.76.76,0,0,1,.58-.92.78.78,0,0,1,.92.58c.07.32.15.68.22,1.06a.78.78,0,0,1-.61.91Z"/>
      <g>
        <path class="cls-59" d="M95.8,255c-9-2.81-23.53,1-20.08,10.18S65,280.56,72,282.72s11.52.51,20.86,8.7S138.18,268.32,95.8,255Z"/>
        <g>
          <path class="cls-60" d="M123.34,247.65c-5.62-6.57-14-11.38-22.69-11-14.69-2.88-30.22,4.66-36.92,17.82a33.68,33.68,0,0,0-5,9.64c-3.14,9.55-2.11,20.79,3.36,29.31A35.9,35.9,0,0,0,87,309.11a35.46,35.46,0,0,0,17.69-1.88,37.5,37.5,0,0,0,23.79-17.8C135.92,276,133.13,259.11,123.34,247.65Z"/>
          <path class="cls-2" d="M75.61,247.84a.62.62,0,0,1-.5-.24.65.65,0,0,1,.09-.92,22.3,22.3,0,0,1,2.21-1.58.65.65,0,1,1,.69,1.1A22.64,22.64,0,0,0,76,247.69.65.65,0,0,1,75.61,247.84Z"/>
          <path class="cls-2" d="M60.31,277.57h-.05a.65.65,0,0,1-.6-.7c.67-9.4,3.82-17.78,9.1-24.25a.66.66,0,0,1,.92-.1.67.67,0,0,1,.09.92C64.66,259.7,61.61,267.84,61,277A.65.65,0,0,1,60.31,277.57Z"/>
          <path class="cls-2" d="M124.93,285.31a.69.69,0,0,1-.24-.05.66.66,0,0,1-.36-.85,33.65,33.65,0,0,0,2.45-11.68.64.64,0,0,1,.65-.63h0a.65.65,0,0,1,.63.66,35,35,0,0,1-2.54,12.14A.66.66,0,0,1,124.93,285.31Z"/>
          <path class="cls-2" d="M99.5,304.79a.65.65,0,0,1-.07-1.3c.12,0,12.25-1.48,20.1-10.89a.64.64,0,0,1,.91-.09.65.65,0,0,1,.09.92c-8.19,9.82-20.43,11.29-21,11.35Z"/>
        </g>
      </g>
      <g>
        <path class="cls-61" d="M196,133.74c-4.42-1.77-17.55-1.92-22,2-3,2.64-6.71,6.21-8.59,8.24a3.12,3.12,0,0,0-.48,3.36l5.14,8.79a2.08,2.08,0,0,0,3.09.72L197,136C197.89,135.29,197.11,134.19,196,133.74Zm-15,6.1-10.19,9a.7.7,0,0,1-1.09-.2l-1-1.94a2.53,2.53,0,0,1,.33-2.79c1.61-1.88,4.62-5.22,6.48-6.28s4.29.32,5.42,1.17A.69.69,0,0,1,181,139.84Z"/>
        <rect class="cls-62" x="166.59" y="145.58" width="36.38" height="0.99" transform="translate(-50.49 157.45) rotate(-41.1)"/>
        <rect class="cls-63" x="170.09" y="143.33" width="11.18" height="0.99" transform="translate(-51.25 150.91) rotate(-41.1)"/>
      </g>
      <g>
        <path class="cls-2" d="M161.86,153.7a.64.64,0,0,1-.6-.42,16.57,16.57,0,0,1-1-6.26.68.68,0,0,1,.66-.64.66.66,0,0,1,.64.66,15.3,15.3,0,0,0,.9,5.78.65.65,0,0,1-.37.84A.67.67,0,0,1,161.86,153.7Z"/>
        <path class="cls-2" d="M161.27,144.05h-.11a.65.65,0,0,1-.53-.75,25.31,25.31,0,0,1,2.11-6.61,20.58,20.58,0,0,1,5.45-6.86.65.65,0,0,1,.82,1,19.24,19.24,0,0,0-5.1,6.42,23.89,23.89,0,0,0-2,6.26A.64.64,0,0,1,161.27,144.05Z"/>
        <path class="cls-2" d="M198.59,145.59h0a.65.65,0,0,1-.63-.67,19.28,19.28,0,0,0-.71-5.82.65.65,0,0,1,1.26-.35,20.9,20.9,0,0,1,.75,6.21A.65.65,0,0,1,198.59,145.59Z"/>
        <path class="cls-2" d="M184.43,163.67a.65.65,0,0,1-.18-1.28A19,19,0,0,0,196.34,152a17.64,17.64,0,0,0,.9-2.46.63.63,0,0,1,.8-.45.65.65,0,0,1,.45.8,19.27,19.27,0,0,1-1,2.64,20.29,20.29,0,0,1-12.92,11.16A.57.57,0,0,1,184.43,163.67Z"/>
        <path class="cls-64" d="M197.29,129.91c-3.36-3.94-8.36-6.81-13.58-6.61A20.72,20.72,0,0,0,161.6,134a20.15,20.15,0,0,0-3,5.77,21,21,0,0,0,2,17.55,21.48,21.48,0,0,0,14.88,9.42,21.14,21.14,0,0,0,10.59-1.12,22.47,22.47,0,0,0,14.25-10.66C204.83,146.9,203.15,136.77,197.29,129.91Z"/>
      </g>
      <g>
        <rect class="cls-65" x="163.75" y="366.55" width="7.89" height="2.67" transform="translate(466.95 639.74) rotate(156.76)"/>
        <path class="cls-66" d="M163.21,371.79c-3.52,13.47-2.59,34.57,8.51,44.11a3.89,3.89,0,0,0,4,.27l22.37-9.6a3.84,3.84,0,0,0,2.53-3.19A37.6,37.6,0,0,0,198,389.44c-1.7-4.15-5.54-7.19-10.7-8.48L181,379.41a2.44,2.44,0,0,1-1.75-1.38l-4.07-9.86a2.36,2.36,0,0,0-1.41-1.28h0a4.34,4.34,0,0,0-3.15.19l-5,2.14A4.15,4.15,0,0,0,163.21,371.79Z"/>
        <path class="cls-67" d="M163.23,369.8l8.94-3.84a.81.81,0,0,0,.41-1.11l-1.8-3.65a.83.83,0,0,0-1.06-.39l-8.5,3.65a.82.82,0,0,0-.45,1l1.37,3.85A.81.81,0,0,0,163.23,369.8Z"/>
        <path class="cls-68" d="M175.88,350.27c.83,2.27,4.06,10.3,8.85,12.61a.79.79,0,0,1,.42.93h0a.77.77,0,0,1-.93.53c-2-.49-7.43-2.2-10.21-6.68a.76.76,0,0,0-.69-.36l-5.63.21a.79.79,0,0,1-.71-1.16c1.1-2,3.72-5.74,8-6.57A.76.76,0,0,1,175.88,350.27Z"/>
        <path class="cls-69" d="M174.61,345.37l2.61,6.08,3.54-2.24a1,1,0,0,0,.41-1.24L180,344.83a1,1,0,0,0-1.25-.62Z"/>
        <path class="cls-70" d="M159,352.39l-4,7.25a2.91,2.91,0,0,0-.28,2.16l.24.94a3,3,0,0,0,3.53,2.17l3.68-.84,6.95-3-.3-3.62,5.91-4.4,2.54-1.62-2.61-6.08-14.16,5.71A3,3,0,0,0,159,352.39Z"/>
        <path class="cls-71" d="M161.3,353.5l1.45,7.8a1.37,1.37,0,0,1-1,1.59l-3.21.81a1.38,1.38,0,0,1-1.6-.79l-.42-1a1.41,1.41,0,0,1,.06-1.22l4.09-7.33A.35.35,0,0,1,161.3,353.5Z"/>
        <rect class="cls-72" x="162.25" y="364.85" width="0.55" height="4.37" rx="0.24" transform="translate(-131.65 93.92) rotate(-23.24)"/>
        <rect class="cls-73" x="163.42" y="364.35" width="0.55" height="4.37" rx="0.24" transform="translate(-131.35 94.34) rotate(-23.24)"/>
        <rect class="cls-74" x="164.59" y="363.85" width="0.55" height="4.37" rx="0.24" transform="translate(-131.06 94.76) rotate(-23.24)"/>
        <rect class="cls-75" x="165.76" y="363.35" width="0.55" height="4.37" rx="0.24" transform="translate(-130.77 95.18) rotate(-23.24)"/>
        <rect class="cls-76" x="166.93" y="362.84" width="0.55" height="4.37" rx="0.24" transform="translate(-130.47 95.6) rotate(-23.24)"/>
        <rect class="cls-77" x="168.1" y="362.34" width="0.55" height="4.37" rx="0.24" transform="translate(-130.18 96.02) rotate(-23.24)"/>
        <rect class="cls-78" x="169.27" y="361.84" width="0.55" height="4.37" rx="0.24" transform="translate(-129.89 96.44) rotate(-23.24)"/>
        <rect class="cls-79" x="170.44" y="361.33" width="0.55" height="4.37" rx="0.24" transform="translate(-129.59 96.86) rotate(-23.24)"/>
        <path class="cls-80" d="M167.43,390.45a43.73,43.73,0,0,0,4.29,17.17,4,4,0,0,0,5.16,1.9l16-6.87a4,4,0,0,0,2.33-4.51l-1.58-7.38a4,4,0,0,0-2.9-3c-4.18-1.09-13-2.95-20.16-1.36A4,4,0,0,0,167.43,390.45Z"/>
      </g>
      <g>
        <path class="cls-81" d="M219.34,344.08c-8.13-9.51-20.2-16.46-32.82-16-21.25-4.17-43.71,6.74-53.4,25.77a48.7,48.7,0,0,0-7.22,13.94c-4.54,13.81-3.06,30.07,4.86,42.39A51.85,51.85,0,0,0,166.7,433a51.26,51.26,0,0,0,25.58-2.7A54.28,54.28,0,0,0,226.7,404.5C237.54,385.12,233.49,360.64,219.34,344.08Z"/>
        <path class="cls-2" d="M157.69,423.65a.59.59,0,0,1-.23,0,43.94,43.94,0,0,1-26.61-51.88.64.64,0,0,1,.79-.47.65.65,0,0,1,.47.79,42.66,42.66,0,0,0,25.82,50.35.65.65,0,0,1,.37.84A.65.65,0,0,1,157.69,423.65Z"/>
        <path class="cls-2" d="M218.89,401.23l-.22,0a.67.67,0,0,1-.39-.84c.1-.28.25-.66.41-1.08.37-1,.84-2.21,1-2.87a.66.66,0,0,1,.79-.48.65.65,0,0,1,.47.79,31.94,31.94,0,0,1-1,3c-.16.41-.3.78-.39,1.05A.66.66,0,0,1,218.89,401.23Z"/>
        <path class="cls-2" d="M208.87,415.75a.68.68,0,0,1-.53-.27.65.65,0,0,1,.15-.91c3.12-2.25,5.87-6.28,7.91-9.54a.65.65,0,1,1,1.1.68c-2.1,3.37-4.94,7.53-8.25,9.91A.6.6,0,0,1,208.87,415.75Z"/>
        <path class="cls-2" d="M221.58,390h-.09a.65.65,0,0,1-.56-.73c1.1-8.14,1.14-14.76.11-20.84-1-5.82-3.51-14.07-10-20.37a.65.65,0,1,1,.9-.94c6.76,6.56,9.39,15.09,10.4,21.09,1.05,6.21,1,13-.1,21.24A.65.65,0,0,1,221.58,390Z"/>
        <path class="cls-2" d="M151.2,344.57a.61.61,0,0,1-.48-.22.65.65,0,0,1,.05-.92,11.12,11.12,0,0,1,3.76-2.16.64.64,0,0,1,.82.41.65.65,0,0,1-.41.82,9.71,9.71,0,0,0-3.31,1.91A.62.62,0,0,1,151.2,344.57Z"/>
        <path class="cls-2" d="M134.86,362.25a.52.52,0,0,1-.21,0,.65.65,0,0,1-.4-.83,28.9,28.9,0,0,1,7.89-11,.64.64,0,0,1,.91,0,.65.65,0,0,1-.05.92,27.53,27.53,0,0,0-7.52,10.5A.67.67,0,0,1,134.86,362.25Z"/>
      </g>
      <g>
        <g>
          <path class="cls-82" d="M451.94,260.87a1.48,1.48,0,0,1-1.43,1.13H438.09a1,1,0,0,1-1-1.13l.69-4a1.48,1.48,0,0,1,1.43-1.12H451.6a1,1,0,0,1,1,1.12Zm6-7.87a1.08,1.08,0,0,0-1.16-1.12h-22a1.66,1.66,0,0,0-1.56,1.12l-15.12,50.67a1.06,1.06,0,0,0,1.12,1.38h6a1.46,1.46,0,0,0,1.42-1.12l.82-4.72a1.46,1.46,0,0,1,1.42-1.12h17.65a1,1,0,0,1,1,1.12l-.83,4.72a1,1,0,0,0,1,1.12h6a1.59,1.59,0,0,0,1.6-1.38Z"/>
          <path class="cls-83" d="M455.08,261.71a1.14,1.14,0,0,1-1.15,1.24H441.51a1.35,1.35,0,0,1-1.32-1.24l-.29-4.33a1.12,1.12,0,0,1,1.14-1.22h12.42a1.34,1.34,0,0,1,1.32,1.22Zm4.06-8.61a1.51,1.51,0,0,0-1.45-1.22h-22a1.26,1.26,0,0,0-1.27,1.22L432,308.51a1.48,1.48,0,0,0,1.46,1.52h6a1.12,1.12,0,0,0,1.13-1.23l-.35-5.16a1.12,1.12,0,0,1,1.13-1.22H459a1.32,1.32,0,0,1,1.3,1.22l.36,5.16A1.33,1.33,0,0,0,462,310h6a1.26,1.26,0,0,0,1.25-1.52Z"/>
          <path class="cls-84" d="M457.78,295h-15.2a2.42,2.42,0,0,1-2.07-1.17,2.36,2.36,0,0,1-.08-2.34l7.22-13.67a2.28,2.28,0,0,1,2-1.24,2.42,2.42,0,0,1,2.14,1.2l8,13.67a2.33,2.33,0,0,1,0,2.38A2.3,2.3,0,0,1,457.78,295Zm-8.09-16.76h0a.3.3,0,0,0-.28.17l-7.57,14.34a.4.4,0,0,0,0,.38.43.43,0,0,0,.36.21h15.94a.32.32,0,0,0,.29-.16.38.38,0,0,0,0-.39l-8.38-14.34A.4.4,0,0,0,449.69,278.21Z"/>
          <path class="cls-84" d="M456,292.14a.28.28,0,0,1-.27.27h-3.22a.5.5,0,0,1-.24.06.54.54,0,0,1-.25-.06h-6.39a.26.26,0,0,1-.26-.27.26.26,0,0,1,.26-.26h6.11V290l-1-1.64-1-1.14-.52,1.09.48,1.56a.52.52,0,0,1-.35.67l-.16,0a.51.51,0,0,1-.49-.37l-.55-1.77a.53.53,0,0,1,0-.39l.82-1.68,0,0a1.38,1.38,0,0,1-.76.22,1.45,1.45,0,1,1,0-2.9,1.44,1.44,0,0,1,1.45,1.44,1.33,1.33,0,0,1,0,.28l.4-.58v-1.69a.53.53,0,1,1,1.05,0v1.86a.52.52,0,0,1-.09.29l-.69,1,1,1.11,1.34-1.1a.51.51,0,0,1,.7,0l1.56,1.59a.54.54,0,0,1,0,.76.57.57,0,0,1-.37.14.47.47,0,0,1-.37-.16l-1.22-1.24-1,.83.81,1.38a.46.46,0,0,1,.07.26v2.05h2.94A.28.28,0,0,1,456,292.14Z"/>
          <g>
            <path class="cls-85" d="M439.33,268.6l.34,0,.31.06a1.58,1.58,0,0,1,.31.09v.77l-.33-.11a2.33,2.33,0,0,0-.38-.08,1.28,1.28,0,0,0-.39,0,.85.85,0,0,0-.34.14.83.83,0,0,0-.24.33,1.63,1.63,0,0,0-.09.59,1.59,1.59,0,0,0,.08.58.88.88,0,0,0,.23.34.68.68,0,0,0,.33.13,1.28,1.28,0,0,0,.39,0l.39-.09.35-.12V272l-.31.1-.31.07-.34,0-.34,0a3,3,0,0,1-.37-.11,2,2,0,0,1-.37-.22,1.72,1.72,0,0,1-.33-.33,1.76,1.76,0,0,1-.22-.48,2.11,2.11,0,0,1-.09-.64,2.13,2.13,0,0,1,.09-.65,1.76,1.76,0,0,1,.22-.48,1.72,1.72,0,0,1,.33-.33,2,2,0,0,1,.37-.22,1.92,1.92,0,0,1,.37-.11Z"/>
            <path class="cls-85" d="M442.6,271.42h-1.06l-.26.75h-.86l1.09-3.52h1.12l1.15,3.52h-.92Zm-.2-.66c0-.1,0-.18,0-.26s0-.17-.06-.27a2.82,2.82,0,0,0-.07-.31c0-.1-.05-.2-.07-.29l-.07-.25c-.07.26-.13.49-.19.69a1.82,1.82,0,0,1-.07.25,2.18,2.18,0,0,1-.06.22,2.25,2.25,0,0,1-.05.22Z"/>
            <path class="cls-85" d="M445.45,272.23a1.37,1.37,0,0,1-.54-.11,1.33,1.33,0,0,1-.44-.28,1.46,1.46,0,0,1-.29-.44,1.32,1.32,0,0,1-.1-.53V268.6H445V271a.79.79,0,0,0,0,.23.36.36,0,0,0,.15.15.61.61,0,0,0,.3.06.56.56,0,0,0,.3-.06.35.35,0,0,0,.15-.17.56.56,0,0,0,0-.23v-2.4h.89v2.27a1.32,1.32,0,0,1-.11.53,1.27,1.27,0,0,1-.28.44,1.33,1.33,0,0,1-.44.28A1.38,1.38,0,0,1,445.45,272.23Z"/>
            <path class="cls-85" d="M449.52,268.65v.75h-.74v2.77h-.88V269.4h-.75v-.75Z"/>
            <path class="cls-85" d="M450.83,268.65v3.52h-.9v-3.52Z"/>
            <path class="cls-85" d="M452.91,268.6l.33,0a1.5,1.5,0,0,1,.34.11,1.46,1.46,0,0,1,.33.22,1.87,1.87,0,0,1,.28.33,2.09,2.09,0,0,1,.19.48,3.08,3.08,0,0,1,.07.65,3,3,0,0,1-.07.64,1.78,1.78,0,0,1-.19.48,1.64,1.64,0,0,1-.28.34,1.85,1.85,0,0,1-.33.21,2.24,2.24,0,0,1-.34.11l-.33,0a1.92,1.92,0,0,1-.51-.08,1.29,1.29,0,0,1-.5-.27,1.48,1.48,0,0,1-.39-.56,2.78,2.78,0,0,1,0-1.8,1.4,1.4,0,0,1,.39-.56,1.19,1.19,0,0,1,.5-.28A1.59,1.59,0,0,1,452.91,268.6Zm-.65,1.82a2.73,2.73,0,0,0,0,.41,1.52,1.52,0,0,0,.1.34.57.57,0,0,0,.2.23.55.55,0,0,0,.32.09.49.49,0,0,0,.3-.09.57.57,0,0,0,.2-.23,1.13,1.13,0,0,0,.1-.34,2.73,2.73,0,0,0,0-.41,2.81,2.81,0,0,0,0-.43,1,1,0,0,0-.1-.34.57.57,0,0,0-.2-.23.58.58,0,0,0-.62,0,.57.57,0,0,0-.2.23,1.37,1.37,0,0,0-.1.34A2.81,2.81,0,0,0,452.26,270.42Z"/>
            <path class="cls-85" d="M457.8,272.17h-1.11l-1-2.4v2.4h-.78v-3.52H456L457,271v-2.39h.81Z"/>
          </g>
        </g>
        <g>
          <path class="cls-86" d="M480.1,251.11c-6.82-8-17-13.82-27.55-13.41-17.85-3.5-36.71,5.66-44.86,21.64a41.07,41.07,0,0,0-6.06,11.71c-3.81,11.6-2.56,25.26,4.08,35.6a43.57,43.57,0,0,0,30.18,19.11,43,43,0,0,0,21.49-2.27,45.51,45.51,0,0,0,28.9-21.64C495.39,285.58,492,265,480.1,251.11Z"/>
          <path class="cls-2" d="M457.73,244.62h-.09c-1.48-.2-3-.37-4.47-.48a.65.65,0,0,1-.6-.7.66.66,0,0,1,.7-.6c1.51.12,3,.28,4.55.49a.65.65,0,0,1-.09,1.29Z"/>
          <path class="cls-2" d="M439.12,244.46a.65.65,0,0,1-.09-1.29c1.78-.25,3.65-.42,5.57-.5a.64.64,0,0,1,.68.62.66.66,0,0,1-.62.68c-1.88.08-3.71.24-5.45.48Z"/>
          <path class="cls-2" d="M425.9,248.68a.64.64,0,0,1-.56-.33.65.65,0,0,1,.24-.89,32.24,32.24,0,0,1,5-2.29.66.66,0,0,1,.83.4.65.65,0,0,1-.4.83,30.39,30.39,0,0,0-4.82,2.19A.62.62,0,0,1,425.9,248.68Z"/>
          <path class="cls-2" d="M406.46,286.51a.65.65,0,0,1-.65-.61,36.76,36.76,0,0,1,.37-7.93,32.07,32.07,0,0,1,.79-3.88c.35-1.37.78-2.79,1.28-4.18a41.18,41.18,0,0,1,11.85-17.38.64.64,0,0,1,.91.08.66.66,0,0,1-.08.92c-8.16,6.77-11.42,16.7-11.45,16.8-.49,1.37-.91,2.75-1.25,4.11a28.78,28.78,0,0,0-.77,3.73,35.54,35.54,0,0,0-.35,7.66.65.65,0,0,1-.61.68Z"/>
          <path class="cls-2" d="M409,297.94a.65.65,0,0,1-.61-.41,38.34,38.34,0,0,1-1.4-4.33.65.65,0,1,1,1.26-.33,37.88,37.88,0,0,0,1.35,4.19.65.65,0,0,1-.37.84A.59.59,0,0,1,409,297.94Z"/>
          <path class="cls-2" d="M416.07,309.23a.67.67,0,0,1-.47-.2,34.79,34.79,0,0,1-4.82-6.47.65.65,0,1,1,1.13-.65,33.2,33.2,0,0,0,4.63,6.22.65.65,0,0,1,0,.92A.66.66,0,0,1,416.07,309.23Z"/>
          <path class="cls-2" d="M473.62,311.41a.64.64,0,0,1-.49-.22.66.66,0,0,1,.07-.92,37.91,37.91,0,0,0,3.14-3.07.65.65,0,1,1,1,.87,39.12,39.12,0,0,1-3.26,3.18A.64.64,0,0,1,473.62,311.41Z"/>
          <path class="cls-2" d="M480.2,304a.64.64,0,0,1-.55-1,33.13,33.13,0,0,0,3.51-6.92.66.66,0,0,1,.84-.39.65.65,0,0,1,.38.84,34.64,34.64,0,0,1-3.64,7.18A.65.65,0,0,1,480.2,304Z"/>
          <path class="cls-2" d="M485.11,290.25a.58.58,0,0,1-.19,0,.65.65,0,0,1-.44-.81,35.76,35.76,0,0,0,.32-17.21c-1.17-5.47-3.42-10-6-15a.65.65,0,0,1,.28-.87.66.66,0,0,1,.88.27c2.63,5.08,4.91,9.74,6.12,15.36a37.06,37.06,0,0,1-.34,17.86A.65.65,0,0,1,485.11,290.25Z"/>
        </g>
      </g>
      <g>
        <path class="cls-87" d="M471.4,32.71a2.28,2.28,0,0,1-.83-4.4l22.36-8.79a2.27,2.27,0,0,1,1.67,4.23l-22.36,8.8A2.5,2.5,0,0,1,471.4,32.71Z"/>
        <path class="cls-88" d="M497.2,58a1,1,0,0,1-.89-.55L481.44,27a1,1,0,0,1,1.77-.86l14.87,30.45a1,1,0,0,1-.45,1.31A1,1,0,0,1,497.2,58Z"/>
      </g>
    </g>
  </g>
</svg>
