<svg id="Ebene_1" data-name="Ebene 1" xmlns="http://www.w3.org/2000/svg" xmlns:xlink="http://www.w3.org/1999/xlink" viewBox="0 0 678 476">
  <defs>
    <style>
      .eco-1 {
        mask: url(#mask);
        filter: url(#luminosity-noclip-2);
      }

      .eco-2 {
        mix-blend-mode: multiply;
        fill: url(#eco-gradient);
      }

      .eco-3, .eco-53, .eco-6, .eco-9 {
        fill: #fff;
      }

      .eco-4 {
        opacity: 0.8;
      }

      .eco-5 {
        fill: url(#eco-gradient-2);
      }

      .eco-6 {
        opacity: 0.5;
      }

      .eco-7 {
        fill: url(#eco-gradient-3);
      }

      .eco-8 {
        fill: url(#eco-gradient-4);
      }

      .eco-9 {
        opacity: 0.41;
      }

      .eco-10 {
        fill: url(#eco-gradient-5);
      }

      .eco-11 {
        mask: url(#mask-2);
      }

      .eco-12 {
        fill: url(#eco-gradient-6);
      }

      .eco-13 {
        fill: url(#eco-gradient-7);
      }

      .eco-14 {
        fill: url(#eco-gradient-8);
      }

      .eco-15 {
        fill: url(#eco-gradient-9);
      }

      .eco-16 {
        fill: url(#eco-gradient-10);
      }

      .eco-17 {
        fill: url(#eco-gradient-11);
      }

      .eco-18 {
        fill: url(#eco-gradient-12);
      }

      .eco-19 {
        fill: url(#eco-gradient-13);
      }

      .eco-20 {
        fill: url(#eco-gradient-14);
      }

      .eco-21 {
        fill: url(#eco-gradient-15);
      }

      .eco-22 {
        fill: url(#eco-gradient-16);
      }

      .eco-23 {
        fill: url(#eco-gradient-17);
      }

      .eco-24 {
        fill: url(#eco-gradient-18);
      }

      .eco-25 {
        fill: url(#eco-gradient-19);
      }

      .eco-26 {
        fill: url(#eco-gradient-20);
      }

      .eco-27 {
        fill: url(#eco-gradient-21);
      }

      .eco-28 {
        fill: url(#eco-gradient-22);
      }

      .eco-29 {
        fill: url(#eco-gradient-23);
      }

      .eco-30 {
        fill: url(#eco-gradient-24);
      }

      .eco-31 {
        fill: url(#eco-gradient-25);
      }

      .eco-32 {
        fill: url(#eco-gradient-26);
      }

      .eco-33 {
        fill: url(#eco-gradient-27);
      }

      .eco-34 {
        fill: url(#eco-gradient-28);
      }

      .eco-35 {
        fill: url(#eco-gradient-29);
      }

      .eco-36 {
        fill: url(#eco-gradient-30);
      }

      .eco-37 {
        fill: url(#eco-gradient-31);
      }

      .eco-38 {
        fill: url(#eco-gradient-32);
      }

      .eco-39 {
        fill: url(#eco-gradient-33);
      }

      .eco-40 {
        fill: url(#eco-gradient-34);
      }

      .eco-41 {
        fill: url(#eco-gradient-35);
      }

      .eco-42 {
        fill: url(#eco-gradient-36);
      }

      .eco-43 {
        fill: url(#eco-gradient-37);
      }

      .eco-44 {
        fill: url(#eco-gradient-38);
      }

      .eco-45 {
        fill: url(#eco-gradient-39);
      }

      .eco-46 {
        fill: url(#eco-gradient-40);
      }

      .eco-47 {
        fill: url(#eco-gradient-41);
      }

      .eco-48 {
        fill: url(#eco-gradient-42);
      }

      .eco-49 {
        fill: url(#eco-gradient-43);
      }

      .eco-50 {
        fill: url(#eco-gradient-44);
      }

      .eco-51 {
        fill: url(#eco-gradient-45);
      }

      .eco-52 {
        fill: url(#eco-gradient-46);
      }

      .eco-53 {
        opacity: 0.63;
      }

      .eco-54 {
        filter: url(#luminosity-noclip);
      }
    </style>
    <filter id="luminosity-noclip" x="347.37" y="-8600" width="167.11" height="32766" filterUnits="userSpaceOnUse" color-interpolation-filters="sRGB">
      <feFlood flood-color="#fff" result="bg"/>
      <feBlend in="SourceGraphic" in2="bg"/>
    </filter>
    <mask id="mask" x="347.37" y="-8600" width="167.11" height="32766" maskUnits="userSpaceOnUse">
      <g class="eco-54"/>
    </mask>
    <linearGradient id="eco-gradient" x1="501.36" y1="69.94" x2="347.3" y2="88.36" gradientUnits="userSpaceOnUse">
      <stop offset="0"/>
      <stop offset="0.07" stop-color="#2d2d2d"/>
      <stop offset="0.17" stop-color="#5e5e5e"/>
      <stop offset="0.26" stop-color="#898989"/>
      <stop offset="0.36" stop-color="#aeaeae"/>
      <stop offset="0.47" stop-color="#cbcbcb"/>
      <stop offset="0.58" stop-color="#e2e2e2"/>
      <stop offset="0.69" stop-color="#f2f2f2"/>
      <stop offset="0.83" stop-color="#fcfcfc"/>
      <stop offset="1" stop-color="#fff"/>
    </linearGradient>
    <linearGradient id="eco-gradient-2" x1="-541.14" y1="680.04" x2="-599.98" y2="814.45" gradientTransform="matrix(-0.98, 0.22, 0.22, 0.98, -635.66, -200.83)" gradientUnits="userSpaceOnUse">
      <stop offset="0" stop-color="#a737d5"/>
      <stop offset="1" stop-color="#ef497a"/>
    </linearGradient>
    <linearGradient id="eco-gradient-3" x1="-295.05" y1="860.58" x2="-390.53" y2="517.34" gradientTransform="translate(206.78 -491.66) rotate(-18.71)" gradientUnits="userSpaceOnUse">
      <stop offset="0" stop-color="#233894"/>
      <stop offset="1" stop-color="#dd397a"/>
    </linearGradient>
    <linearGradient id="eco-gradient-4" x1="560.65" y1="76.26" x2="480.57" y2="219.56" gradientUnits="userSpaceOnUse">
      <stop offset="0" stop-color="#b37cff"/>
      <stop offset="1" stop-color="#f895e7"/>
    </linearGradient>
    <linearGradient id="eco-gradient-5" x1="370.7" y1="509.66" x2="576.81" y2="264.15" gradientTransform="matrix(1, 0, 0, 1, 0, 0)" xlink:href="#eco-gradient-2"/>
    <filter id="luminosity-noclip-2" x="347.37" y="9.13" width="167.11" height="118.48" filterUnits="userSpaceOnUse" color-interpolation-filters="sRGB">
      <feFlood flood-color="#fff" result="bg"/>
      <feBlend in="SourceGraphic" in2="bg"/>
    </filter>
    <mask id="mask-2" x="347.37" y="9.13" width="167.11" height="118.48" maskUnits="userSpaceOnUse">
      <g class="eco-1">
        <polygon class="eco-2" points="347.37 65.63 347.37 71.11 514.48 127.61 514.48 9.13 347.37 65.63"/>
      </g>
    </mask>
    <linearGradient id="eco-gradient-6" x1="501.36" y1="69.94" x2="347.3" y2="88.36" gradientUnits="userSpaceOnUse">
      <stop offset="0" stop-color="#fff"/>
      <stop offset="0.1" stop-color="#fff"/>
      <stop offset="1" stop-color="#fff"/>
    </linearGradient>
    <linearGradient id="eco-gradient-7" x1="228.46" y1="156.89" x2="228.28" y2="192.22" gradientTransform="translate(456.87 324.23) rotate(-180)" gradientUnits="userSpaceOnUse">
      <stop offset="0" stop-color="#fdf53f"/>
      <stop offset="1" stop-color="#d93c65"/>
    </linearGradient>
    <linearGradient id="eco-gradient-8" x1="-5923.71" y1="219.7" x2="-5655.82" y2="606.34" gradientTransform="matrix(-1, 0, 0, 1, -5596.85, 0)" gradientUnits="userSpaceOnUse">
      <stop offset="0" stop-color="#50e7b7"/>
      <stop offset="1" stop-color="#323992"/>
    </linearGradient>
    <linearGradient id="eco-gradient-9" x1="240.45" y1="102.28" x2="208.34" y2="222.11" gradientTransform="matrix(1, 0, 0, 1, 0, 0)" xlink:href="#eco-gradient-7"/>
    <linearGradient id="eco-gradient-10" x1="332.69" y1="124.9" x2="213.37" y2="152.98" gradientTransform="matrix(1, 0, 0, 1, 0, 0)" xlink:href="#eco-gradient-8"/>
    <linearGradient id="eco-gradient-11" x1="377.83" y1="69.05" x2="234.65" y2="68.03" gradientTransform="matrix(1, 0, 0, 1, 0, 0)" xlink:href="#eco-gradient-7"/>
    <linearGradient id="eco-gradient-12" x1="291.98" y1="128.75" x2="168.23" y2="-5.23" gradientTransform="matrix(1, 0, 0, 1, 0, 0)" xlink:href="#eco-gradient-7"/>
    <linearGradient id="eco-gradient-13" x1="234.33" y1="121.84" x2="154.55" y2="28.77" gradientTransform="matrix(1, 0, 0, 1, 0, 0)" xlink:href="#eco-gradient-7"/>
    <linearGradient id="eco-gradient-14" x1="200.27" y1="135.71" x2="199.97" y2="192.63" gradientTransform="matrix(1, 0, 0, 1, 0, 0)" xlink:href="#eco-gradient-7"/>
    <linearGradient id="eco-gradient-15" x1="208.39" y1="135.71" x2="208.1" y2="192.63" gradientTransform="matrix(1, 0, 0, 1, 0, 0)" xlink:href="#eco-gradient-7"/>
    <linearGradient id="eco-gradient-16" x1="216.52" y1="135.71" x2="216.22" y2="192.63" gradientTransform="matrix(1, 0, 0, 1, 0, 0)" xlink:href="#eco-gradient-7"/>
    <linearGradient id="eco-gradient-17" x1="224.64" y1="135.71" x2="224.35" y2="192.63" gradientTransform="matrix(1, 0, 0, 1, 0, 0)" xlink:href="#eco-gradient-7"/>
    <linearGradient id="eco-gradient-18" x1="232.77" y1="135.71" x2="232.47" y2="192.63" gradientTransform="matrix(1, 0, 0, 1, 0, 0)" xlink:href="#eco-gradient-7"/>
    <linearGradient id="eco-gradient-19" x1="240.9" y1="135.71" x2="240.6" y2="192.63" gradientTransform="matrix(1, 0, 0, 1, 0, 0)" xlink:href="#eco-gradient-7"/>
    <linearGradient id="eco-gradient-20" x1="249.02" y1="135.71" x2="248.72" y2="192.63" gradientTransform="matrix(1, 0, 0, 1, 0, 0)" xlink:href="#eco-gradient-7"/>
    <linearGradient id="eco-gradient-21" x1="257.15" y1="135.71" x2="256.85" y2="192.63" gradientTransform="matrix(1, 0, 0, 1, 0, 0)" xlink:href="#eco-gradient-7"/>
    <linearGradient id="eco-gradient-22" x1="237.83" y1="307.66" x2="236.21" y2="618.28" gradientTransform="matrix(1, 0, 0, 1, 0, 0)" xlink:href="#eco-gradient-8"/>
    <linearGradient id="eco-gradient-23" x1="519.18" y1="143.09" x2="321.66" y2="252.59" gradientTransform="matrix(1, 0, 0, 1, 0, 0)" xlink:href="#eco-gradient-8"/>
    <linearGradient id="eco-gradient-24" x1="538.14" y1="177.28" x2="340.61" y2="286.78" gradientTransform="matrix(1, 0, 0, 1, 0, 0)" xlink:href="#eco-gradient-8"/>
    <linearGradient id="eco-gradient-25" x1="557.2" y1="211.67" x2="359.67" y2="321.17" gradientTransform="matrix(1, 0, 0, 1, 0, 0)" xlink:href="#eco-gradient-8"/>
    <linearGradient id="eco-gradient-26" x1="428.94" y1="288.65" x2="407.88" y2="330.76" gradientUnits="userSpaceOnUse">
      <stop offset="0" stop-color="#2b3582"/>
      <stop offset="1" stop-color="#150e42"/>
    </linearGradient>
    <linearGradient id="eco-gradient-27" x1="345.97" y1="284.76" x2="331.65" y2="232.26" gradientTransform="matrix(1, 0, 0, 1, 0, 0)" xlink:href="#eco-gradient-7"/>
    <linearGradient id="eco-gradient-28" x1="392.1" y1="429.81" x2="421.82" y2="429.81" gradientUnits="userSpaceOnUse">
      <stop offset="0" stop-color="#f9b776"/>
      <stop offset="1" stop-color="#f47960"/>
    </linearGradient>
    <linearGradient id="eco-gradient-29" x1="432.96" y1="363.34" x2="418.24" y2="459.02" gradientUnits="userSpaceOnUse">
      <stop offset="0" stop-color="#53d8ff"/>
      <stop offset="1" stop-color="#3840f7"/>
    </linearGradient>
    <linearGradient id="eco-gradient-30" x1="401.81" y1="358.55" x2="387.09" y2="454.23" xlink:href="#eco-gradient-29"/>
    <linearGradient id="eco-gradient-31" x1="374.06" y1="432.02" x2="391.28" y2="432.02" xlink:href="#eco-gradient-28"/>
    <linearGradient id="eco-gradient-32" x1="338.42" y1="303.67" x2="370.42" y2="303.67" xlink:href="#eco-gradient-28"/>
    <linearGradient id="eco-gradient-33" x1="-1589.48" y1="-4903.39" x2="-1561.26" y2="-4903.39" gradientTransform="translate(-2053.78 -4172.98) rotate(169.29)" xlink:href="#eco-gradient-28"/>
    <linearGradient id="eco-gradient-34" x1="372.76" y1="321.78" x2="435.93" y2="446.9" gradientTransform="matrix(1, 0, 0, 1, 0, 0)" xlink:href="#eco-gradient-7"/>
    <linearGradient id="eco-gradient-35" x1="358.87" y1="354.26" x2="414.07" y2="416.51" gradientTransform="matrix(1, 0, 0, 1, 0, 0)" xlink:href="#eco-gradient-7"/>
    <linearGradient id="eco-gradient-36" x1="379.28" y1="319.42" x2="389.81" y2="319.42" xlink:href="#eco-gradient-28"/>
    <linearGradient id="eco-gradient-37" x1="396.02" y1="305.81" x2="472.69" y2="311.02" xlink:href="#eco-gradient-28"/>
    <linearGradient id="eco-gradient-38" x1="400.84" y1="296.51" x2="387.3" y2="323.6" xlink:href="#eco-gradient-26"/>
    <linearGradient id="eco-gradient-39" x1="401.86" y1="296.91" x2="389.58" y2="321.49" gradientTransform="matrix(1, 0, 0, 1, 0, 0)" xlink:href="#eco-gradient-7"/>
    <linearGradient id="eco-gradient-40" x1="400.27" y1="292.39" x2="397.51" y2="297.92" gradientTransform="matrix(1, 0, 0, 1, 0, 0)" xlink:href="#eco-gradient-7"/>
    <linearGradient id="eco-gradient-41" x1="405.07" y1="289.05" x2="401.36" y2="296.48" gradientTransform="matrix(1, 0, 0, 1, 0, 0)" xlink:href="#eco-gradient-7"/>
    <linearGradient id="eco-gradient-42" x1="401.72" y1="285.66" x2="397.17" y2="294.74" gradientTransform="matrix(1, 0, 0, 1, 0, 0)" xlink:href="#eco-gradient-7"/>
    <linearGradient id="eco-gradient-43" x1="354.98" y1="388.69" x2="403.34" y2="334.2" xlink:href="#eco-gradient-29"/>
    <linearGradient id="eco-gradient-44" x1="363.71" y1="391.7" x2="408.57" y2="341.16" xlink:href="#eco-gradient-29"/>
    <linearGradient id="eco-gradient-45" x1="373.39" y1="386.59" x2="404.29" y2="351.77" xlink:href="#eco-gradient-29"/>
    <linearGradient id="eco-gradient-46" x1="379.92" y1="378.95" x2="405.31" y2="350.33" xlink:href="#eco-gradient-29"/>
  </defs>
  <title>graphics</title>
  <g>
    <g>
      <path class="eco-3" d="M19.29,297.88A8.15,8.15,0,0,0,7,305.23C8.8,348.36,26.34,475.3,171.45,461.59,171.45,461.59,102.16,346.36,19.29,297.88Z"/>
      <g class="eco-4">
        <path class="eco-5" d="M171.45,461.59S102.16,346.36,19.29,297.88A8.15,8.15,0,0,0,7,305.23C8.8,348.36,26.34,475.3,171.45,461.59Z"/>
        <path class="eco-6" d="M156.47,457.52a.35.35,0,0,1-.28.65c-15.57-5.35-78.92-35.82-126.13-121.77a.25.25,0,0,1,.42-.26C43.37,355.44,93.35,425.83,156.47,457.52Z"/>
      </g>
    </g>
    <g>
      <path class="eco-3" d="M79.78,107.16a14,14,0,0,0-24.19,4.76c-22.24,71-67.83,287,175.39,349.36C231,461.28,185.86,234.08,79.78,107.16Z"/>
      <g class="eco-4">
        <path class="eco-7" d="M231,461.28s-45.12-227.2-151.2-354.12a14,14,0,0,0-24.19,4.76C33.35,182.87-12.24,398.88,231,461.28Z"/>
        <path class="eco-6" d="M209.08,445.93a.61.61,0,0,1-.83.9c-22.13-17.75-107-104.09-133.47-270.94a.43.43,0,0,1,.84-.18C85.26,214.51,125.23,357.76,209.08,445.93Z"/>
      </g>
    </g>
    <g>
      <path class="eco-3" d="M589.76,93.41a10.92,10.92,0,0,0-16.68-8C554.35,97.23,510.86,122,409.92,173.5,228.23,266.25,318,461,318,461,613.35,467.14,598.72,171.35,589.76,93.41Z"/>
      <g class="eco-4">
        <path class="eco-8" d="M318,461S228.23,266.25,409.92,173.5C510.86,122,554.35,97.23,573.08,85.42a10.92,10.92,0,0,1,16.68,8C598.72,171.35,613.35,467.14,318,461Z"/>
        <path class="eco-9" d="M525.42,170.21s-165.93,83.92-199.63,257C325.79,427.19,364.41,276.19,525.42,170.21Z"/>
      </g>
    </g>
    <g>
      <path class="eco-3" d="M631.72,303.13c-57.32-3.56-285.24-7-313.66,160.57,0,0,246.43,37.74,322-147.16A9.72,9.72,0,0,0,631.72,303.13Z"/>
      <g class="eco-4">
        <path class="eco-10" d="M631.72,303.13c-57.32-3.56-285.24-7-313.66,160.57,0,0,246.43,37.74,322-147.16A9.72,9.72,0,0,0,631.72,303.13Z"/>
        <path class="eco-9" d="M342.93,442.9s97.49-92.11,224.79-103.24C567.72,339.66,448.65,366.37,342.93,442.9Z"/>
      </g>
    </g>
    <g>
      <g class="eco-11">
        <polygon class="eco-12" points="347.37 65.63 347.37 71.11 514.48 127.61 514.48 9.13 347.37 65.63"/>
      </g>
      <path class="eco-3" d="M352.58,51.08l-26.93-3.49-97.39-2.17a18.88,18.88,0,0,0-12,3.95L174.49,81.69a19,19,0,0,0-7.11,12l-1,6.11a18.9,18.9,0,0,0,15.24,21.56l23.71,4.39h-6.3a5.21,5.21,0,0,0-5.19,4.87l-1.66,26a5.2,5.2,0,0,0,5.19,5.53h5.87v4.27a22.78,22.78,0,0,0-10.95,7.31c-54.53,70.12-102.23,196.08-61.15,280,3.42,7,12.47,11.6,22.54,11.6H309c10.46,0,19.71-5,22.88-12.32,7.33-17,19-49.84,19.67-88.33.5-28.56-14.39-56.1-41.38-76.6l-32.6-24.75c-4.4-3.35-6.84-7.84-6.77-12.5l1-68.06a15,15,0,0,0-5.09-11.07,26,26,0,0,0-13.11-6.27v-3.24h5.93a5.21,5.21,0,0,0,5.2-5.48l-1.39-26a5.19,5.19,0,0,0-5.19-4.92h-4.55l7.39-22,27.09,10.46a5,5,0,0,1,3.13,3.86c5,33.23,32.68,57,43,64.84a5,5,0,0,0,6.72-7.26c-18.43-21.21-20.73-62.68-20.5-85.06l5.26-.86L352,85.58a6.58,6.58,0,0,0,5.55-6.27l.76-21.47A6.58,6.58,0,0,0,352.58,51.08Z"/>
      <g class="eco-4">
        <g>
          <rect class="eco-13" x="203.28" y="153.6" width="50.3" height="17.02" transform="translate(456.87 324.23) rotate(180)"/>
          <path class="eco-14" d="M192.33,173.7c-54.53,70.12-102.23,196.08-61.15,280,3.42,7,12.47,11.6,22.54,11.6H309c10.46,0,19.71-5,22.88-12.32,7.33-17,19-49.84,19.67-88.33.5-28.56-14.39-56.1-41.38-76.6l-32.6-24.75c-4.4-3.35-6.84-7.84-6.77-12.5l1-68.06a15,15,0,0,0-5.09-11.07h0c-4.55-4.29-11.53-6.8-18.93-6.8H213.14C204.55,164.83,196.6,168.2,192.33,173.7Z"/>
          <path class="eco-15" d="M197.41,162.12h62.1a5.2,5.2,0,0,0,5.19-5.48l-1.38-26a5.19,5.19,0,0,0-5.19-4.92H199.07a5.21,5.21,0,0,0-5.19,4.87l-1.66,26A5.2,5.2,0,0,0,197.41,162.12Z"/>
          <path class="eco-16" d="M320.73,79.5c-.83,15.39-2.1,70.56,20.16,96.18a5,5,0,0,1,.1,6.48h0a5,5,0,0,1-6.82.78c-10.3-7.81-38-31.61-43-64.84a5,5,0,0,0-3.13-3.86L254.54,101.3a5,5,0,0,1-1.26-8.58c11.39-8.77,36.23-24.27,63.54-18.35A5,5,0,0,1,320.73,79.5Z"/>
          <path class="eco-17" d="M325.64,47.59V89.76L352,85.58a6.58,6.58,0,0,0,5.55-6.27l.76-21.47a6.58,6.58,0,0,0-5.74-6.76Z"/>
          <path class="eco-18" d="M216.27,49.37,174.49,81.69a19,19,0,0,0-7.11,12l-1,6.11a18.9,18.9,0,0,0,15.24,21.56l23.71,4.39h48.21l7.39-22,45.72-10.92,18.95-3.1V47.59l-97.38-2.17A18.88,18.88,0,0,0,216.27,49.37Z"/>
          <path class="eco-19" d="M227.18,61.71,216,111.12a8.8,8.8,0,0,1-10,6.75l-20.8-3.32a8.81,8.81,0,0,1-7.42-8.69V99.12a8.81,8.81,0,0,1,3.43-7l42.39-32.68A2.22,2.22,0,0,1,227.18,61.71Z"/>
          <rect class="eco-20" x="198.48" y="130.2" width="3.48" height="27.86" rx="1.7"/>
          <rect class="eco-21" x="206.61" y="130.2" width="3.48" height="27.86" rx="1.7"/>
          <rect class="eco-22" x="214.73" y="130.2" width="3.48" height="27.86" rx="1.7"/>
          <rect class="eco-23" x="222.86" y="130.2" width="3.48" height="27.86" rx="1.7"/>
          <rect class="eco-24" x="230.98" y="130.2" width="3.48" height="27.86" rx="1.7"/>
          <rect class="eco-25" x="239.11" y="130.2" width="3.48" height="27.86" rx="1.7"/>
          <rect class="eco-26" x="247.24" y="130.2" width="3.48" height="27.86" rx="1.7"/>
          <rect class="eco-27" x="255.36" y="130.2" width="3.48" height="27.86" rx="1.7"/>
          <path class="eco-28" d="M170.11,293.69c-8.51,22.2-20.56,63-18.14,111.43a25.48,25.48,0,0,0,25.47,24.16H288.55a25.5,25.5,0,0,0,25-20.59l9.26-47.2a25.5,25.5,0,0,0-9.37-25.05c-21.72-16.89-68.9-50-114.74-58.66A25.53,25.53,0,0,0,170.11,293.69Z"/>
        </g>
      </g>
    </g>
    <g>
      <g>
        <path class="eco-3" d="M361.18,214.33q-9.8-8-23.78-8a41.48,41.48,0,0,0-16.27,3.17,39.55,39.55,0,0,0-16.49,12.73,35.81,35.81,0,0,0-7.5,22.23A37.25,37.25,0,0,0,301.48,262a36.87,36.87,0,0,0,8.39,10.68q10.45,9,25.91,9a43.89,43.89,0,0,0,27-8.76q6.61-4.94,6.62-10.24a7.79,7.79,0,0,0-1.84-4.85q-1.84-2.35-3.75-2.36a7.77,7.77,0,0,0-4,1.77,25.65,25.65,0,0,1-7.1,3.35,26.18,26.18,0,0,1-7.84,1.36,17.32,17.32,0,0,1-11.15-4.23q-5.19-4.25-5.19-9c0-1.33.76-2,2.28-2h34.6a6,6,0,0,0,5.15-3.05,14.18,14.18,0,0,0,2-7.84,24.76,24.76,0,0,0-3.46-12.08A32.05,32.05,0,0,0,361.18,214.33ZM340.2,233h-7.44a5.91,5.91,0,0,1-3.71-.89A3.8,3.8,0,0,1,328,229a10.23,10.23,0,0,1,2.21-6.11,7.57,7.57,0,0,1,6.47-3.24,7.7,7.7,0,0,1,6,2.51,9.21,9.21,0,0,1,2.28,6.47Q344.91,233,340.2,233Z"/>
        <path class="eco-3" d="M418,224.86q5.6,0,7.59,6.18a35,35,0,0,0,2.79,7.14q3.09,4.42,9.2,4.42a14.25,14.25,0,0,0,9.94-3.75,13.31,13.31,0,0,0,4.42-10.38q0-9.28-9.5-15.54a41.3,41.3,0,0,0-23.11-6.55q-17.37,0-29.52,10.46a34.67,34.67,0,0,0-12.73,27.53q0,17.3,13.69,28.48,10.67,8.83,25.84,8.84,13,0,22.59-5.89a25.33,25.33,0,0,0,7.14-6.37,11.76,11.76,0,0,0,2.73-7,8.47,8.47,0,0,0-1.92-5.52,5.58,5.58,0,0,0-4.41-2.35,5.1,5.1,0,0,0-2.29.51,36.6,36.6,0,0,1-6.55,2.54,25.78,25.78,0,0,1-6.18.63,17,17,0,0,1-13-5.52,22.45,22.45,0,0,1-6.33-15.68,13.69,13.69,0,0,1,2.76-8.69A8.36,8.36,0,0,1,418,224.86Z"/>
        <path class="eco-3" d="M537.62,226.33a37.53,37.53,0,0,0-11.71-13,40.63,40.63,0,0,0-23.62-7q-19.37,0-32.91,11.63-13,11-12.95,28.41,0,15.61,10.6,25.33,10.89,10,28.48,10a51.32,51.32,0,0,0,32-10.68q14.65-11.19,14.65-27.16A36.24,36.24,0,0,0,537.62,226.33Zm-35.33,37.32q-5.16,0-7.44-6a92.13,92.13,0,0,1-3.94-13.51,60.45,60.45,0,0,1-1.65-12,9.74,9.74,0,0,1,1.95-6.36,6.35,6.35,0,0,1,5.19-2.4q4.34.15,6.77,5.16a57.46,57.46,0,0,1,4,12.8,68.85,68.85,0,0,1,1.66,14.06Q508.84,263.65,502.29,263.65Z"/>
      </g>
      <g class="eco-4">
        <g>
          <path class="eco-29" d="M365.45,246.72h-34.6c-1.52,0-2.28.66-2.28,2q0,4.78,5.19,9A17.32,17.32,0,0,0,344.91,262a26.18,26.18,0,0,0,7.84-1.36,25.65,25.65,0,0,0,7.1-3.35,7.77,7.77,0,0,1,4-1.77q1.91,0,3.75,2.36a7.79,7.79,0,0,1,1.84,4.85q0,5.31-6.62,10.24a43.89,43.89,0,0,1-27,8.76q-15.45,0-25.91-9A36.87,36.87,0,0,1,301.48,262a37.25,37.25,0,0,1-4.34-17.52,35.81,35.81,0,0,1,7.5-22.23,39.55,39.55,0,0,1,16.49-12.73,41.48,41.48,0,0,1,16.27-3.17q14,0,23.78,8a32.05,32.05,0,0,1,7.95,9.42,24.76,24.76,0,0,1,3.46,12.08,14.18,14.18,0,0,1-2,7.84A6,6,0,0,1,365.45,246.72ZM332.76,233h7.44q4.71,0,4.71-4.35a9.21,9.21,0,0,0-2.28-6.47,7.7,7.7,0,0,0-6-2.51,7.57,7.57,0,0,0-6.47,3.24A10.23,10.23,0,0,0,328,229a3.8,3.8,0,0,0,1.07,3.09A5.91,5.91,0,0,0,332.76,233Z"/>
          <path class="eco-30" d="M419.33,206.38a41.3,41.3,0,0,1,23.11,6.55q9.49,6.27,9.5,15.54a13.31,13.31,0,0,1-4.42,10.38,14.25,14.25,0,0,1-9.94,3.75q-6.1,0-9.2-4.42a35,35,0,0,1-2.79-7.14q-2-6.18-7.59-6.18a8.36,8.36,0,0,0-6.81,3.53,13.69,13.69,0,0,0-2.76,8.69,22.45,22.45,0,0,0,6.33,15.68,17,17,0,0,0,13,5.52,25.78,25.78,0,0,0,6.18-.63,36.6,36.6,0,0,0,6.55-2.54,5.1,5.1,0,0,1,2.29-.51,5.58,5.58,0,0,1,4.41,2.35,8.47,8.47,0,0,1,1.92,5.52,11.76,11.76,0,0,1-2.73,7,25.33,25.33,0,0,1-7.14,6.37q-9.57,5.88-22.59,5.89-15.18,0-25.84-8.84-13.69-11.19-13.69-28.48a34.67,34.67,0,0,1,12.73-27.53Q402,206.39,419.33,206.38Z"/>
          <path class="eco-31" d="M502.29,206.31a40.63,40.63,0,0,1,23.62,7,37.53,37.53,0,0,1,11.71,13,36.24,36.24,0,0,1,4.56,17.52q0,16-14.65,27.16a51.32,51.32,0,0,1-32,10.68q-17.6,0-28.48-10-10.61-9.72-10.6-25.33,0-17.37,12.95-28.41Q482.93,206.32,502.29,206.31Zm-5.89,17a6.35,6.35,0,0,0-5.19,2.4,9.74,9.74,0,0,0-1.95,6.36,60.45,60.45,0,0,0,1.65,12,92.13,92.13,0,0,0,3.94,13.51q2.28,6,7.44,6,6.54,0,6.55-8.32a68.85,68.85,0,0,0-1.66-14.06,57.46,57.46,0,0,0-4-12.8Q500.74,223.46,496.4,223.31Z"/>
        </g>
      </g>
    </g>
    <g>
      <g class="eco-4">
        <path class="eco-3" d="M584.75,218l-1.29,1.54a.67.67,0,0,1-1-.86h0l1.29-1.54h0a.67.67,0,1,1,1,.86Z"/>
        <path class="eco-3" d="M580.43,223.15l-1.31,1.52a.67.67,0,0,1-1-.87h0l1.3-1.52h0a.67.67,0,0,1,.94-.08A.68.68,0,0,1,580.43,223.15Z"/>
        <path class="eco-3" d="M576.06,228.21l-1.32,1.51a.66.66,0,0,1-.94.06.66.66,0,0,1-.06-.94h0l1.31-1.51h0a.67.67,0,0,1,.94-.07A.68.68,0,0,1,576.06,228.21Z"/>
        <path class="eco-3" d="M571.64,233.23l-1.33,1.49a.67.67,0,0,1-1-.88h0l1.34-1.49h0a.67.67,0,1,1,1,.89Z"/>
        <path class="eco-3" d="M567.18,238.2l-1.35,1.49a.66.66,0,0,1-.94,0,.66.66,0,0,1,0-.94h0l1.35-1.48h0a.66.66,0,0,1,.94,0A.66.66,0,0,1,567.18,238.2Z"/>
        <path class="eco-3" d="M562.67,243.14l-1.37,1.47a.66.66,0,0,1-.94,0,.68.68,0,0,1,0-1h0l1.36-1.47h0a.66.66,0,0,1,.94,0A.68.68,0,0,1,562.67,243.14Z"/>
        <path class="eco-3" d="M558.11,248l-1.38,1.46a.67.67,0,0,1-1-.92h0l1.37-1.46h0a.66.66,0,0,1,.94,0A.68.68,0,0,1,558.11,248Z"/>
        <path class="eco-3" d="M553.5,252.87l-1.39,1.45a.67.67,0,1,1-1-.93h0l1.39-1.44h0a.66.66,0,0,1,1,.92Z"/>
        <path class="eco-3" d="M548.85,257.68l-1.41,1.43a.66.66,0,0,1-.94,0,.68.68,0,0,1,0-.95h0l1.4-1.43h0a.66.66,0,0,1,.94,0A.68.68,0,0,1,548.85,257.68Z"/>
        <path class="eco-3" d="M544.15,262.43l-1.42,1.42a.66.66,0,0,1-.94-.94h0l1.42-1.42h0a.66.66,0,1,1,.94.94Z"/>
        <path class="eco-3" d="M539.41,267.15l-1.43,1.4a.68.68,0,0,1-1,0,.66.66,0,0,1,0-.94h0l1.43-1.41h0a.67.67,0,0,1,.94,1Z"/>
        <path class="eco-3" d="M534.62,271.81l-1.45,1.39a.66.66,0,1,1-.92-1h0l1.44-1.39h0a.67.67,0,1,1,.93,1Z"/>
        <path class="eco-3" d="M531.55,274.41h2a.67.67,0,0,1,.67.67.66.66,0,0,1-.66.67h-2a.67.67,0,0,1-.67-.66.68.68,0,0,1,.66-.68Z"/>
        <path class="eco-3" d="M538.17,274.19l2-.18h0a.67.67,0,0,1,.73.61.66.66,0,0,1-.61.72l-2,.18a.66.66,0,0,1-.72-.61.66.66,0,0,1,.6-.72Z"/>
        <path class="eco-3" d="M544.75,273.43l2-.33h0a.67.67,0,0,1,.77.55.66.66,0,0,1-.54.77l-2,.34a.67.67,0,0,1-.76-.55.66.66,0,0,1,.54-.77Z"/>
        <path class="eco-3" d="M551.25,272.15l1.93-.48h0a.67.67,0,1,1,.32,1.3l-2,.48a.67.67,0,0,1-.81-.49.66.66,0,0,1,.49-.8Z"/>
        <path class="eco-3" d="M557.64,270.4l1.89-.62h0A.67.67,0,1,1,560,271l-1.92.63a.67.67,0,1,1-.41-1.27Z"/>
        <path class="eco-3" d="M563.9,268.19l1.84-.75h0a.68.68,0,0,1,.87.37.66.66,0,0,1-.37.87l-1.87.76a.67.67,0,0,1-.87-.37.68.68,0,0,1,.37-.87Z"/>
        <path class="eco-3" d="M570,265.56l1.79-.87h0a.67.67,0,0,1,.89.31.68.68,0,0,1-.31.9l-1.81.87a.67.67,0,1,1-.59-1.2Z"/>
        <path class="eco-3" d="M575.9,262.54l1.73-1h0a.67.67,0,0,1,.66,1.17l-1.76,1a.67.67,0,0,1-.91-.26.66.66,0,0,1,.26-.91Z"/>
        <path class="eco-3" d="M581.61,259.16l1.67-1.08h0a.67.67,0,0,1,.73,1.13l-1.7,1.09a.67.67,0,1,1-.72-1.12Z"/>
        <path class="eco-3" d="M587.11,255.45l1.62-1.17h0a.68.68,0,0,1,.94.14.67.67,0,0,1-.15.94l-1.63,1.19a.67.67,0,0,1-.93-.15.66.66,0,0,1,.15-.93Z"/>
        <path class="eco-3" d="M592.4,251.43l1.55-1.26h0a.67.67,0,0,1,.94.1.66.66,0,0,1-.09.94l-1.56,1.27a.66.66,0,1,1-.84-1Z"/>
        <path class="eco-3" d="M597.46,247.13l1.47-1.35h0a.68.68,0,0,1,.95,0,.66.66,0,0,1,0,.94l-1.48,1.36a.68.68,0,0,1-1,0,.67.67,0,0,1,.05-1Z"/>
        <path class="eco-3" d="M602.28,242.56l1.4-1.43h0a.66.66,0,0,1,.95.93l-1.41,1.44a.67.67,0,1,1-1-.94Z"/>
        <path class="eco-3" d="M606.86,237.73l1.32-1.49h0a.67.67,0,0,1,.94-.06.69.69,0,0,1,.06,1l-1.34,1.51a.68.68,0,0,1-.94.06.67.67,0,0,1-.06-.95Z"/>
        <path class="eco-3" d="M611.17,232.68l1.24-1.56h0a.66.66,0,0,1,.93-.11.67.67,0,0,1,.11.94l-1.25,1.58a.68.68,0,0,1-.94.1.67.67,0,0,1-.11-.94Z"/>
        <path class="eco-3" d="M615.23,227.41l1.17-1.61h0a.67.67,0,1,1,1.08.78l-1.18,1.63a.67.67,0,0,1-1.08-.78Z"/>
        <path class="eco-3" d="M619.05,222l1.1-1.66h0a.68.68,0,0,1,.93-.19.66.66,0,0,1,.19.92l-1.11,1.68A.67.67,0,0,1,619,222Z"/>
        <path class="eco-3" d="M622.64,216.37l1-1.71h0a.67.67,0,0,1,.92-.22.66.66,0,0,1,.23.91l-1,1.73a.68.68,0,0,1-.92.22.66.66,0,0,1-.23-.91Z"/>
        <path class="eco-3" d="M626,210.63l1-1.75h0a.67.67,0,1,1,1.17.64l-1,1.76a.67.67,0,0,1-.91.26.65.65,0,0,1-.26-.9Z"/>
        <path class="eco-3" d="M629.15,204.77l.9-1.78h0a.67.67,0,0,1,1.19.6l-.91,1.8a.67.67,0,1,1-1.19-.61Z"/>
        <path class="eco-3" d="M632.1,198.8l.84-1.81h0a.67.67,0,0,1,.89-.32.66.66,0,0,1,.32.89l-.85,1.82a.66.66,0,0,1-.88.32.67.67,0,0,1-.33-.89Z"/>
        <path class="eco-3" d="M634.85,192.73l.79-1.83h0a.67.67,0,0,1,.88-.34.65.65,0,0,1,.35.87l-.79,1.85a.68.68,0,0,1-.88.35.67.67,0,0,1-.35-.88Z"/>
        <path class="eco-3" d="M637.43,186.59l.74-1.85h0a.67.67,0,1,1,1.24.5l-.74,1.86a.68.68,0,0,1-.87.38.67.67,0,0,1-.37-.87Z"/>
        <path class="eco-3" d="M639.84,180.39l.69-1.88h0a.67.67,0,1,1,1.26.46l-.7,1.88a.67.67,0,1,1-1.25-.46Z"/>
        <path class="eco-3" d="M642.1,174.11l.65-1.89h0a.67.67,0,0,1,1.27.43l-.66,1.9a.67.67,0,1,1-1.26-.43Z"/>
        <path class="eco-3" d="M644.22,167.79l.62-1.9h0a.67.67,0,0,1,1.27.41l-.62,1.92a.67.67,0,1,1-1.27-.41Z"/>
        <path class="eco-3" d="M646.22,161.43l.58-1.92h0a.68.68,0,0,1,.83-.45.66.66,0,0,1,.45.83l-.58,1.93a.68.68,0,0,1-.83.45.67.67,0,0,1-.45-.84Z"/>
        <path class="eco-3" d="M648.11,155l.55-1.92h0a.67.67,0,1,1,1.28.37l-.55,1.93a.67.67,0,1,1-1.28-.37Z"/>
        <path class="eco-3" d="M649.9,148.6l.51-1.92v0a.66.66,0,0,1,.82-.47.65.65,0,0,1,.47.81l-.51,1.95a.67.67,0,1,1-1.29-.34Z"/>
        <path class="eco-3" d="M651.12,142.2a11.73,11.73,0,0,0-.08-1.88.67.67,0,0,1,.56-.76.68.68,0,0,1,.76.57h0a12.6,12.6,0,0,1,.1,2.12.67.67,0,0,1-1.34-.05Z"/>
        <path class="eco-3" d="M650.07,137.32l-1.57,1.27a.76.76,0,0,1-1.08-.11.78.78,0,0,1,.11-1.09l.05,0h0l1.65-1.13h0a.67.67,0,0,1,1,.18A.68.68,0,0,1,650.07,137.32Z"/>
        <path class="eco-3" d="M644.76,141.44l-1.63,1.19A1,1,0,1,1,642,141l0,0h0l1.68-1.08h0a.92.92,0,0,1,1,1.52Z"/>
        <path class="eco-3" d="M639.28,145.32l-1.68,1.12a1.16,1.16,0,1,1-1.29-1.94l0,0h0l1.71-1h0a1.12,1.12,0,0,1,1.2,1.89Z"/>
        <path class="eco-3" d="M633.65,149l-1.7,1.06a1.31,1.31,0,1,1-1.39-2.22l0,0h0l1.73-1h0a1.27,1.27,0,0,1,1.3,2.18Z"/>
        <path class="eco-3" d="M627.93,152.48l-1.73,1a1.43,1.43,0,0,1-1.94-.5,1.41,1.41,0,0,1,.5-1.94l0,0h0l1.75-1h0a1.38,1.38,0,0,1,1.37,2.4Z"/>
        <path class="eco-3" d="M622.14,155.85l-1.74,1a1.5,1.5,0,0,1-1.48-2.6h0l1.76-.95h0a1.48,1.48,0,0,1,2,.6A1.46,1.46,0,0,1,622.14,155.85Z"/>
        <path class="eco-3" d="M616.32,159.14l-1.75,1a1.56,1.56,0,0,1-1.53-2.71l0,0,1.77-.95a1.54,1.54,0,0,1,1.48,2.7Z"/>
        <path class="eco-3" d="M610.48,162.38l-1.75,1a1.58,1.58,0,0,1-1.54-2.76h0l1.76-1a1.57,1.57,0,1,1,1.52,2.75Z"/>
        <path class="eco-3" d="M604.66,165.64l-1.74,1h0a1.6,1.6,0,0,1-1.57-2.78h0l1.76-1a1.59,1.59,0,0,1,1.56,2.78Z"/>
        <path class="eco-3" d="M598.87,168.93l-1.72,1h0a1.58,1.58,0,1,1-1.6-2.73l1.73-1a1.58,1.58,0,1,1,1.61,2.73h0Z"/>
        <path class="eco-3" d="M593.15,172.32l-1.69,1.05h0a1.57,1.57,0,1,1-1.65-2.67l1.71-1.07a1.58,1.58,0,1,1,1.66,2.68h0Z"/>
        <path class="eco-3" d="M587.54,175.85l-1.66,1.1h0a1.56,1.56,0,0,1-1.73-2.6l1.69-1.12a1.56,1.56,0,1,1,1.73,2.6h0Z"/>
        <path class="eco-3" d="M582.06,179.56l-1.61,1.16h0a1.52,1.52,0,0,1-1.78-2.46l1.63-1.2a1.53,1.53,0,1,1,1.81,2.47h0Z"/>
        <path class="eco-3" d="M576.75,183.5l-1.56,1.22v0a1.48,1.48,0,0,1-1.85-2.32l1.57-1.27a1.49,1.49,0,1,1,1.88,2.32h0Z"/>
        <path class="eco-3" d="M571.64,187.68l-1.5,1.3h0a1.43,1.43,0,0,1-1.9-2.15l1.5-1.36a1.46,1.46,0,1,1,1.95,2.16v0Z"/>
        <path class="eco-3" d="M566.73,192.09l-1.42,1.38,0,0a1.36,1.36,0,0,1-1.92-1.94l1.43-1.44a1.38,1.38,0,1,1,2,1.94l0,0Z"/>
        <path class="eco-3" d="M562.1,196.79l-1.33,1.46,0,0a1.29,1.29,0,0,1-1.93-1.71l1.33-1.54a1.32,1.32,0,0,1,1.85-.13,1.3,1.3,0,0,1,.13,1.85v0Z"/>
        <path class="eco-3" d="M557.79,201.77l-1.22,1.56,0,0a1.22,1.22,0,0,1-1.93-1.48l1.22-1.63a1.24,1.24,0,1,1,2,1.49h0Z"/>
        <path class="eco-3" d="M553.86,207.06l-1.09,1.64v0a1.14,1.14,0,0,1-1.92-1.24l1.09-1.72a1.16,1.16,0,1,1,2,1.24v0Z"/>
        <path class="eco-3" d="M550.37,212.64l-1,1.73,0,0a1,1,0,0,1-1.39.4,1,1,0,0,1-.42-1.35l.92-1.82a1.06,1.06,0,1,1,1.89,1v0Z"/>
        <path class="eco-3" d="M547.39,218.5l-.78,1.82,0,0a.9.9,0,0,1-1.66-.69l.73-1.89a.94.94,0,1,1,1.75.68v.05Z"/>
        <path class="eco-3" d="M545,224.65l-.59,1.88v0a.77.77,0,0,1-1.47-.43l.52-2a.81.81,0,1,1,1.57.41v.07Z"/>
      </g>
      <g class="eco-4">
        <path class="eco-3" d="M565.09,292.15l-2-.12a.67.67,0,0,1,.08-1.34h0l2,.12h0a.67.67,0,1,1-.08,1.33Z"/>
        <path class="eco-3" d="M558.39,291.55l-2-.29a.67.67,0,1,1,.19-1.32h0l2,.28h0a.66.66,0,0,1,.56.75A.66.66,0,0,1,558.39,291.55Z"/>
        <path class="eco-3" d="M551.75,290.41l-2-.45a.66.66,0,0,1-.5-.79.67.67,0,0,1,.8-.51h0l1.94.44h0a.66.66,0,0,1,.5.79A.67.67,0,0,1,551.75,290.41Z"/>
        <path class="eco-3" d="M545.23,288.75l-1.93-.6a.67.67,0,1,1,.4-1.28h0l1.9.59h0a.67.67,0,0,1,.44.84A.68.68,0,0,1,545.23,288.75Z"/>
        <path class="eco-3" d="M538.86,286.57l-1.87-.75a.67.67,0,1,1,.49-1.24h0l1.84.74h0a.67.67,0,0,1-.5,1.24Z"/>
        <path class="eco-3" d="M532.69,283.89l-1.81-.9a.66.66,0,0,1-.3-.89.67.67,0,0,1,.89-.31h0l1.78.89h0a.68.68,0,0,1,.3.9A.66.66,0,0,1,532.69,283.89Z"/>
        <path class="eco-3" d="M534.6,280.3l1.93-.57a.87.87,0,0,1,.49,1.66H537l-1.94.46a.81.81,0,0,1-.42-1.56Z"/>
        <path class="eco-3" d="M541,278.46l1.94-.52a1,1,0,0,1,.54,2h-.06l-2,.42h0a1,1,0,0,1-1.16-.74A1,1,0,0,1,541,278.46Z"/>
        <path class="eco-3" d="M547.54,276.78l2-.47a1.21,1.21,0,0,1,1.44.89,1.19,1.19,0,0,1-.89,1.43H550l-2,.36h0a1.13,1.13,0,0,1-1.33-.91A1.14,1.14,0,0,1,547.54,276.78Z"/>
        <path class="eco-3" d="M554.11,275.34l2-.36a1.31,1.31,0,1,1,.48,2.58h-.06l-2,.3h0a1.28,1.28,0,0,1-.42-2.53Z"/>
        <path class="eco-3" d="M560.78,274.24l2-.25a1.43,1.43,0,1,1,.35,2.83h-.06l-2,.19h0a1.4,1.4,0,0,1-.3-2.78Z"/>
        <path class="eco-3" d="M567.52,273.57l2-.1a1.51,1.51,0,1,1,.15,3h-.07l-2,.05h0a1.49,1.49,0,0,1-.11-3Z"/>
        <path class="eco-3" d="M574.33,273.43l2,.08a1.59,1.59,0,1,1-.13,3.18h-.08l-1.95-.12h-.05a1.57,1.57,0,0,1,.16-3.14Z"/>
        <path class="eco-3" d="M581.15,274l2,.3a1.64,1.64,0,1,1-.47,3.25h-.08l-1.92-.31h-.06a1.63,1.63,0,0,1,.5-3.22Z"/>
        <path class="eco-3" d="M587.9,275.22l2,.54A1.69,1.69,0,1,1,589,279h0l-.07,0-1.86-.54H587a1.68,1.68,0,0,1,.9-3.24Z"/>
        <path class="eco-3" d="M594.46,277.32l1.91.8A1.72,1.72,0,0,1,595,281.3h0l-.06,0-1.78-.76-.06,0a1.72,1.72,0,0,1,1.33-3.17Z"/>
        <path class="eco-3" d="M600.68,280.22l1.8,1a1.74,1.74,0,1,1-1.66,3.05h0l0,0-1.72-1,0,0a1.73,1.73,0,0,1,1.66-3Z"/>
        <path class="eco-3" d="M606.57,283.6l1.72,1.06a1.75,1.75,0,1,1-1.85,3h0l-1.69-1.05h0a1.75,1.75,0,1,1,1.85-3Z"/>
        <path class="eco-3" d="M612.24,287.17l1.68,1.07h0a1.73,1.73,0,1,1-1.85,2.93l-1.7-1.07a1.74,1.74,0,0,1,1.85-2.95h0Z"/>
        <path class="eco-3" d="M617.87,290.67l1.7,1h0a1.72,1.72,0,0,1-1.72,3l-1.76-1a1.72,1.72,0,1,1,1.71-3h0Z"/>
        <path class="eco-3" d="M623.6,293.83c.58.3,1.17.58,1.75.85h0a1.67,1.67,0,0,1-1.39,3c-.62-.28-1.25-.56-1.87-.86a1.69,1.69,0,0,1,1.46-3h0Z"/>
        <path class="eco-3" d="M629.55,296.42l1.84.65.05,0a1.6,1.6,0,0,1-1,3l-2-.65a1.62,1.62,0,1,1,1-3.08h0Z"/>
        <path class="eco-3" d="M635.76,298.35l1.9.46h.05a1.52,1.52,0,0,1-.66,3l-2-.42a1.55,1.55,0,1,1,.63-3h.09Z"/>
        <path class="eco-3" d="M642.15,299.63l2,.25h0a1.42,1.42,0,0,1-.32,2.83l-2-.21a1.45,1.45,0,1,1,.29-2.89h.08Z"/>
        <path class="eco-3" d="M648.66,300.25l2,.06h0a1.29,1.29,0,0,1,0,2.58l-2,0a1.35,1.35,0,0,1-1.35-1.32,1.33,1.33,0,0,1,1.32-1.35h.1Z"/>
        <path class="eco-3" d="M655.2,300.21l2-.14h0a1.13,1.13,0,0,1,.22,2.25l-2,.25a1.18,1.18,0,1,1-.3-2.35h.1Z"/>
        <path class="eco-3" d="M661.73,299.51l1.94-.35h0a.94.94,0,0,1,.38,1.84l-2,.47a1,1,0,0,1-1.2-.74,1,1,0,0,1,.74-1.2h.09Z"/>
        <path class="eco-3" d="M668.16,298.11l1.9-.54h0a.72.72,0,0,1,.44,1.36l-1.9.7a.8.8,0,1,1-.56-1.49l.06,0Z"/>
        <path class="eco-3" d="M669.61,300.65,668.16,302a.67.67,0,1,1-.93-1h0l1.44-1.38h0a.68.68,0,0,1,1,0A.69.69,0,0,1,669.61,300.65Z"/>
        <path class="eco-3" d="M664.72,305.23l-1.5,1.34a.67.67,0,0,1-.89-1h0l1.49-1.33h0a.67.67,0,0,1,.89,1Z"/>
        <path class="eco-3" d="M659.67,309.64l-1.55,1.28a.67.67,0,1,1-.85-1h0l1.54-1.28h0a.67.67,0,0,1,.94.08A.68.68,0,0,1,659.67,309.64Z"/>
        <path class="eco-3" d="M654.45,313.85l-1.6,1.22a.66.66,0,0,1-.93-.12A.67.67,0,0,1,652,314h0l1.58-1.22h0a.66.66,0,0,1,.93.12A.67.67,0,0,1,654.45,313.85Z"/>
        <path class="eco-3" d="M649.07,317.85,647.42,319a.66.66,0,0,1-.93-.16.67.67,0,0,1,.16-.93h0l1.63-1.15h0a.66.66,0,0,1,.93.16A.67.67,0,0,1,649.07,317.85Z"/>
        <path class="eco-3" d="M643.51,321.61l-1.69,1.08a.67.67,0,1,1-.72-1.12h0l1.68-1.07h0a.66.66,0,0,1,.92.2A.66.66,0,0,1,643.51,321.61Z"/>
        <path class="eco-3" d="M637.79,325.12l-1.75,1a.67.67,0,0,1-.66-1.16h0l1.73-1h0a.67.67,0,1,1,.66,1.16Z"/>
        <path class="eco-3" d="M631.9,328.34l-1.8.91a.67.67,0,0,1-.6-1.19h0l1.78-.89h0a.67.67,0,1,1,.6,1.19Z"/>
        <path class="eco-3" d="M625.85,331.26l-1.84.81a.68.68,0,0,1-.88-.35.66.66,0,0,1,.34-.88h0l1.83-.8h0a.67.67,0,0,1,.88.35A.68.68,0,0,1,625.85,331.26Z"/>
        <path class="eco-3" d="M619.65,333.83l-1.89.71a.67.67,0,0,1-.47-1.26h0l1.86-.7h0a.67.67,0,0,1,.86.39A.66.66,0,0,1,619.65,333.83Z"/>
        <path class="eco-3" d="M613.31,336.05l-1.93.58a.67.67,0,0,1-.84-.44.68.68,0,0,1,.45-.84h0l1.91-.58h0a.67.67,0,0,1,.39,1.28Z"/>
        <path class="eco-3" d="M606.83,337.86l-2,.46a.66.66,0,0,1-.8-.5.67.67,0,0,1,.49-.8h0l1.93-.46h0a.66.66,0,0,1,.8.49A.67.67,0,0,1,606.83,337.86Z"/>
        <path class="eco-3" d="M600.26,339.25l-2,.34a.68.68,0,0,1-.77-.55.67.67,0,0,1,.55-.77h0l2-.33h0a.66.66,0,0,1,.77.54A.67.67,0,0,1,600.26,339.25Z"/>
        <path class="eco-3" d="M593.61,340.22l-2,.2a.67.67,0,0,1-.14-1.33h0l2-.2h0a.66.66,0,0,1,.73.59A.67.67,0,0,1,593.61,340.22Z"/>
        <path class="eco-3" d="M586.9,340.73l-2,.07a.67.67,0,0,1-.68-.65.66.66,0,0,1,.64-.69h0l2-.06h0a.66.66,0,0,1,.69.64A.67.67,0,0,1,586.9,340.73Z"/>
        <path class="eco-3" d="M580.18,340.78l-2-.08a.67.67,0,0,1,.05-1.33h0l2,.08h0a.67.67,0,1,1-.05,1.33Z"/>
        <path class="eco-3" d="M573.46,340.34l-2-.23a.66.66,0,1,1,.15-1.32h0l2,.22h0a.67.67,0,0,1,.59.74A.66.66,0,0,1,573.46,340.34Z"/>
        <path class="eco-3" d="M566.8,339.4l-2-.39a.66.66,0,0,1-.53-.78.67.67,0,0,1,.78-.53h0l1.95.37h0a.66.66,0,0,1,.53.78A.67.67,0,0,1,566.8,339.4Z"/>
        <path class="eco-3" d="M560.23,337.93l-2-.55a.67.67,0,1,1,.37-1.28h0l1.91.54h0a.67.67,0,0,1-.36,1.29Z"/>
        <path class="eco-3" d="M553.8,335.92l-1.89-.71a.67.67,0,0,1,.47-1.26h0l1.86.7h0a.66.66,0,0,1,.39.86A.67.67,0,0,1,553.8,335.92Z"/>
        <path class="eco-3" d="M547.57,333.35l-1.82-.88a.67.67,0,0,1,.58-1.2h0l1.79.86h0a.66.66,0,0,1,.31.89A.67.67,0,0,1,547.57,333.35Z"/>
        <path class="eco-3" d="M541.61,330.21l-1.73-1.07a.67.67,0,0,1,.71-1.14h0l1.68,1.05h0a.67.67,0,1,1-.7,1.14Z"/>
        <path class="eco-3" d="M536,326.4l-1.57-1.29a.66.66,0,1,1,.84-1l0,0,1.54,1.24,0,0a.67.67,0,0,1-.85,1Z"/>
        <path class="eco-3" d="M531,321.86l-1.37-1.51a.67.67,0,1,1,1-.9l0,0,1.32,1.46,0,0a.67.67,0,0,1,0,.94A.66.66,0,0,1,531,321.86Z"/>
        <path class="eco-3" d="M526.75,316.56l-1.08-1.73a.67.67,0,0,1,.21-.92.66.66,0,0,1,.92.21l0,0,1,1.67,0,0a.67.67,0,0,1-.21.92A.68.68,0,0,1,526.75,316.56Z"/>
        <path class="eco-3" d="M523.56,310.56l-.73-1.91a.67.67,0,0,1,1.25-.48l0,0,.69,1.84,0,0a.67.67,0,0,1-1.25.47Z"/>
        <path class="eco-3" d="M521.62,304c-.13-.67-.23-1.34-.31-2a.67.67,0,0,1,1.33-.16c.07.65.17,1.3.29,1.94a.67.67,0,0,1-.53.78A.66.66,0,0,1,521.62,304Z"/>
        <path class="eco-3" d="M521.16,297.23c0-.69.1-1.37.18-2.05a.67.67,0,0,1,.75-.57.66.66,0,0,1,.58.74q-.13,1-.18,1.95a.67.67,0,1,1-1.33-.07Z"/>
      </g>
      <g class="eco-4">
        <path class="eco-3" d="M96.33,376.37,97.56,378a.66.66,0,0,1-.11.93.67.67,0,0,1-.94-.11h0l-1.23-1.58h0a.68.68,0,0,1,.12-.94A.66.66,0,0,1,96.33,376.37Z"/>
        <path class="eco-3" d="M100.41,381.66l1.21,1.61a.68.68,0,0,1-.13.94.67.67,0,0,1-.94-.14h0l-1.2-1.6h0a.66.66,0,0,1,.13-.94A.67.67,0,0,1,100.41,381.66Z"/>
        <path class="eco-3" d="M104.39,387.05l1.17,1.63a.67.67,0,1,1-1.08.78h0l-1.17-1.62h0a.67.67,0,1,1,1.08-.78Z"/>
        <path class="eco-3" d="M108.26,392.51l1.14,1.65a.67.67,0,0,1-.17.93.66.66,0,0,1-.93-.17h0l-1.14-1.65h0a.67.67,0,1,1,1.1-.76Z"/>
        <path class="eco-3" d="M112,398.05l1.11,1.68a.67.67,0,0,1-1.12.73h0l-1.1-1.67h0a.67.67,0,0,1,.19-.93A.66.66,0,0,1,112,398.05Z"/>
        <path class="eco-3" d="M115.66,403.67l1.06,1.7a.66.66,0,0,1-.2.92.69.69,0,0,1-.93-.21h0l-1.06-1.69h0a.67.67,0,0,1,1.14-.71Z"/>
        <path class="eco-3" d="M119.18,409.36l1,1.72a.67.67,0,0,1-.23.91.67.67,0,0,1-.92-.22h0l-1-1.71h0a.67.67,0,1,1,1.14-.69Z"/>
        <path class="eco-3" d="M122.59,415.12l1,1.74a.67.67,0,0,1-1.16.66h0l-1-1.73h0a.67.67,0,1,1,1.16-.66Z"/>
        <path class="eco-3" d="M125.88,421l1,1.76a.66.66,0,0,1-.26.9.67.67,0,0,1-.91-.26h0l-1-1.75h0a.67.67,0,1,1,1.17-.64Z"/>
        <path class="eco-3" d="M129.05,426.84l.93,1.78a.67.67,0,0,1-.29.9.67.67,0,0,1-.9-.28h0l-.92-1.77h0a.67.67,0,0,1,1.18-.62Z"/>
        <path class="eco-3" d="M132.1,432.8l.89,1.8a.66.66,0,1,1-1.19.59h0l-.88-1.8h0a.67.67,0,0,1,.31-.89A.66.66,0,0,1,132.1,432.8Z"/>
        <path class="eco-3" d="M135,438.82l.85,1.81a.67.67,0,0,1-1.21.57h0l-.85-1.81h0a.67.67,0,0,1,1.21-.56Z"/>
        <path class="eco-3" d="M137.83,444.89l.82,1.84a.67.67,0,1,1-1.22.54h0l-.82-1.83h0a.67.67,0,1,1,1.22-.55Z"/>
        <path class="eco-3" d="M140.51,451l.78,1.85a.65.65,0,0,1-.35.87.66.66,0,0,1-.88-.35h0l-.78-1.84h0a.68.68,0,0,1,.36-.88A.67.67,0,0,1,140.51,451Z"/>
        <path class="eco-3" d="M143.07,457.21l.74,1.87a.68.68,0,0,1-.38.87.66.66,0,0,1-.86-.38h0l-.73-1.86h0a.68.68,0,0,1,.38-.87A.67.67,0,0,1,143.07,457.21Z"/>
        <path class="eco-3" d="M145.49,463.45l0,.11.39,1-1.08-.12-1.89-.21a.66.66,0,1,1,.15-1.32h0l1.85.2-.69.9,0-.11a.67.67,0,1,1,1.25-.47Z"/>
        <path class="eco-3" d="M138.29,463.5l-2-.42a.66.66,0,0,1-.51-.79.67.67,0,0,1,.79-.52h0l1.94.41h0a.67.67,0,0,1,.51.8A.66.66,0,0,1,138.29,463.5Z"/>
        <path class="eco-3" d="M131.75,461.87l-1.93-.61a.67.67,0,0,1-.44-.84.67.67,0,0,1,.84-.43h0l1.89.6h0a.67.67,0,1,1-.4,1.27Z"/>
        <path class="eco-3" d="M125.39,459.62l-1.86-.78a.67.67,0,0,1-.35-.88.65.65,0,0,1,.87-.35h0l1.83.78h0a.68.68,0,0,1,.36.88A.67.67,0,0,1,125.39,459.62Z"/>
        <path class="eco-3" d="M119.27,456.81l-1.78-.95a.67.67,0,0,1,.62-1.18h0l1.75.93h0a.67.67,0,1,1-.63,1.18Z"/>
        <path class="eco-3" d="M113.42,453.47l-1.7-1.09a.67.67,0,0,1-.19-.93.66.66,0,0,1,.92-.2h0l1.67,1.08h0a.66.66,0,0,1,.2.92A.68.68,0,0,1,113.42,453.47Z"/>
        <path class="eco-3" d="M107.87,449.66l-1.6-1.23a.68.68,0,0,1-.12-.94.67.67,0,0,1,.94-.12h0l1.58,1.21h0a.67.67,0,0,1,.12.94A.68.68,0,0,1,107.87,449.66Z"/>
        <path class="eco-3" d="M102.66,445.41l-1.5-1.36a.67.67,0,1,1,.89-1h0l1.47,1.33v0a.66.66,0,0,1,0,.94A.67.67,0,0,1,102.66,445.41Z"/>
        <path class="eco-3" d="M97.79,440.75l-1.38-1.47a.67.67,0,1,1,1-.91h0l1.36,1.44v0a.66.66,0,0,1,0,.94A.68.68,0,0,1,97.79,440.75Z"/>
        <path class="eco-3" d="M93.31,435.73l-1.26-1.58a.67.67,0,1,1,1-.83h0l1.24,1.55h0a.66.66,0,0,1-.1.94A.67.67,0,0,1,93.31,435.73Z"/>
        <path class="eco-3" d="M89.25,430.37l-1.14-1.67a.67.67,0,1,1,1.1-.75h0l1.12,1.64h0a.67.67,0,0,1-1.1.76Z"/>
        <path class="eco-3" d="M85.59,424.72l-1-1.74a.68.68,0,0,1,.24-.92.69.69,0,0,1,.92.24v0l1,1.72h0a.67.67,0,1,1-1.15.67Z"/>
        <path class="eco-3" d="M82.34,418.83,81.45,417a.67.67,0,0,1,1.2-.59h0l.89,1.79h0a.66.66,0,0,1-.3.89A.67.67,0,0,1,82.34,418.83Z"/>
        <path class="eco-3" d="M79.51,412.74l-.78-1.87a.67.67,0,0,1,.36-.87.68.68,0,0,1,.88.36h0l.76,1.84h0a.67.67,0,0,1-.36.88A.67.67,0,0,1,79.51,412.74Z"/>
        <path class="eco-3" d="M77.07,406.48l-.66-1.91a.67.67,0,0,1,1.26-.44v0l.64,1.88h0a.67.67,0,0,1-1.26.44Z"/>
        <path class="eco-3" d="M75,400.08l-.54-1.94a.67.67,0,1,1,1.29-.36h0l.54,1.92h0a.67.67,0,0,1-1.29.36Z"/>
        <path class="eco-3" d="M73.34,393.57l-.43-2a.66.66,0,1,1,1.3-.28h0l.42,1.95h0a.67.67,0,0,1-1.31.28Z"/>
        <path class="eco-3" d="M72,387l-.32-2a.67.67,0,1,1,1.32-.22h0l.32,2h0A.67.67,0,0,1,72,387Z"/>
        <path class="eco-3" d="M71.08,380.34l-.22-2a.67.67,0,1,1,1.33-.15h0l.22,2h0a.67.67,0,0,1-.59.74A.67.67,0,0,1,71.08,380.34Z"/>
        <path class="eco-3" d="M70.47,373.65l-.11-2a.67.67,0,0,1,1.33-.07h0l.12,2h0a.67.67,0,0,1-1.34.07Z"/>
        <path class="eco-3" d="M70.2,367l0-2a.67.67,0,1,1,1.33,0h0l0,2h0a.67.67,0,0,1-.66.68A.66.66,0,0,1,70.2,367Z"/>
        <path class="eco-3" d="M70.19,360.25l0-2a.67.67,0,1,1,1.33,0h0l0,2h0a.67.67,0,0,1-.68.66A.66.66,0,0,1,70.19,360.25Z"/>
        <path class="eco-3" d="M70.38,353.55l.09-2a.66.66,0,0,1,.69-.64.67.67,0,0,1,.64.7h0l-.09,2h0a.66.66,0,0,1-.69.64A.67.67,0,0,1,70.38,353.55Z"/>
        <path class="eco-3" d="M70.71,346.87l.11-2a.67.67,0,0,1,.71-.63.66.66,0,0,1,.62.71h0L72,347h0a.67.67,0,0,1-.71.63A.66.66,0,0,1,70.71,346.87Z"/>
        <path class="eco-3" d="M71.1,340.2l.13-2a.67.67,0,0,1,.7-.63.68.68,0,0,1,.63.71l-.12,2a.67.67,0,1,1-1.34-.08Z"/>
        <path class="eco-3" d="M71.51,333.54l.11-2h0a.67.67,0,0,1,1.33.08l-.11,2a.67.67,0,0,1-1.33-.07Z"/>
        <path class="eco-3" d="M71.85,326.87l.09-2h0a.66.66,0,0,1,.69-.64.67.67,0,0,1,.64.7l-.08,2a.67.67,0,0,1-.7.64.66.66,0,0,1-.64-.69Z"/>
        <path class="eco-3" d="M72.08,320.21l0-2h0a.67.67,0,0,1,1.34,0l0,2a.67.67,0,0,1-.68.66.66.66,0,0,1-.65-.68Z"/>
        <path class="eco-3" d="M72.11,313.56l0-2h0a.67.67,0,0,1,1.34,0l0,2a.68.68,0,0,1-.66.68.67.67,0,0,1-.68-.65Z"/>
        <path class="eco-3" d="M71.89,306.91l-.13-2h0a.66.66,0,0,1,.62-.71.67.67,0,0,1,.71.63l.13,2a.67.67,0,0,1-.62.7.66.66,0,0,1-.71-.62Z"/>
        <path class="eco-3" d="M71.34,300.29l-.24-2h0a.66.66,0,0,1,1.32-.16l.25,2a.68.68,0,0,1-.59.75.67.67,0,0,1-.74-.59Z"/>
        <path class="eco-3" d="M70.4,293.72l-.37-2v0a.67.67,0,0,1,.53-.78.68.68,0,0,1,.78.54l.37,2a.67.67,0,0,1-1.31.25Z"/>
        <path class="eco-3" d="M71.52,289.19l1.36,1.47a.79.79,0,1,1-1.16,1.08l0-.05-1.25-1.57a.72.72,0,0,1,1.09-.93Z"/>
        <path class="eco-3" d="M76.05,294.09l1.36,1.47h0a1,1,0,0,1-.06,1.4A1,1,0,0,1,76,296.9l0,0-1.29-1.55a.93.93,0,0,1,1.4-1.23Z"/>
        <path class="eco-3" d="M80.6,299,82,300.42h0A1.16,1.16,0,0,1,80.3,302l0,0L79,300.45A1.11,1.11,0,0,1,80.59,299Z"/>
        <path class="eco-3" d="M85.21,303.78l1.39,1.43h0a1.33,1.33,0,0,1-1.91,1.84l0,0-1.33-1.5a1.28,1.28,0,0,1,1.88-1.75Z"/>
        <path class="eco-3" d="M89.86,308.56l1.4,1.42h0a1.45,1.45,0,1,1-2.07,2l0,0L87.8,310.5a1.41,1.41,0,0,1,2-1.95Z"/>
        <path class="eco-3" d="M94.56,313.28,96,314.69h0a1.57,1.57,0,1,1-2.21,2.22l0,0-1.39-1.46a1.55,1.55,0,0,1,2.21-2.16Z"/>
        <path class="eco-3" d="M99.29,318l1.43,1.39h0a1.65,1.65,0,1,1-2.31,2.37l0,0L97,320.27A1.63,1.63,0,0,1,99.28,318Z"/>
        <path class="eco-3" d="M104.08,322.59l1.44,1.38h0a1.75,1.75,0,1,1-2.42,2.53l0,0-1.42-1.43a1.72,1.72,0,0,1,2.41-2.46Z"/>
        <path class="eco-3" d="M108.9,327.2l1.45,1.39a1.8,1.8,0,1,1-2.49,2.61l0,0-1.43-1.41a1.79,1.79,0,0,1,2.49-2.57Z"/>
        <path class="eco-3" d="M113.73,331.82l1.45,1.38a1.86,1.86,0,1,1-2.57,2.69l0,0-1.43-1.41a1.84,1.84,0,0,1,2.57-2.64Z"/>
        <path class="eco-3" d="M118.55,336.46l1.44,1.41a1.9,1.9,0,0,1-2.67,2.71h0l-1.42-1.4h0a1.89,1.89,0,0,1,2.66-2.69Z"/>
        <path class="eco-3" d="M123.31,341.18l1.42,1.44a1.92,1.92,0,0,1-2.73,2.69h0l-1.39-1.43h0a1.91,1.91,0,0,1,2.73-2.68Z"/>
        <path class="eco-3" d="M128,346l1.38,1.47a1.93,1.93,0,0,1-2.81,2.66h0l-1.36-1.46h0A1.93,1.93,0,0,1,128,346Z"/>
        <path class="eco-3" d="M132.57,350.94l1.34,1.51A1.94,1.94,0,1,1,131,355h0l-1.32-1.49h0a1.95,1.95,0,0,1,2.91-2.59Z"/>
        <path class="eco-3" d="M137,356l1.29,1.56a1.93,1.93,0,1,1-3,2.46v0L134,358.52v0a1.93,1.93,0,1,1,3-2.47Z"/>
        <path class="eco-3" d="M141.21,361.32l1.22,1.62a1.92,1.92,0,0,1-3.06,2.31v0l-1.2-1.57v0a1.92,1.92,0,0,1,3-2.33Z"/>
        <path class="eco-3" d="M145.19,366.79l1.15,1.69a1.9,1.9,0,1,1-3.15,2.13v0L142.06,369v0a1.9,1.9,0,1,1,3.14-2.15Z"/>
        <path class="eco-3" d="M148.89,372.48l1,1.75a1.88,1.88,0,0,1-3.21,1.94l0,0-1-1.68,0,0a1.89,1.89,0,0,1,3.23-2Z"/>
        <path class="eco-3" d="M152.23,378.4l.93,1.82a1.84,1.84,0,0,1-3.26,1.69l0,0-.92-1.74v0a1.85,1.85,0,1,1,3.27-1.72Z"/>
        <path class="eco-3" d="M155.18,384.54l.79,1.88a1.8,1.8,0,0,1-3.3,1.42v0l-.79-1.79,0,0a1.81,1.81,0,0,1,3.32-1.45Z"/>
        <path class="eco-3" d="M157.67,390.88l.65,1.93A1.76,1.76,0,0,1,155,394v0l-.65-1.85,0,0a1.77,1.77,0,0,1,3.34-1.17Z"/>
        <path class="eco-3" d="M159.67,397.38l.5,2a1.69,1.69,0,0,1-3.27.87l0,0-.52-1.9v0a1.72,1.72,0,1,1,3.31-.91Z"/>
        <path class="eco-3" d="M161.17,404l.36,2a1.62,1.62,0,0,1-3.19.61v0l-.39-1.93v0a1.64,1.64,0,1,1,3.22-.64Z"/>
        <path class="eco-3" d="M162.2,410.73l.21,2a1.56,1.56,0,0,1-3.09.37v0l-.24-1.95v0a1.58,1.58,0,0,1,3.13-.39Z"/>
        <path class="eco-3" d="M162.73,417.49l.07,2a1.47,1.47,0,0,1-2.94.13v0l-.12-2v0a1.5,1.5,0,0,1,3-.18Z"/>
        <path class="eco-3" d="M162.78,424.28l-.08,2a1.38,1.38,0,0,1-2.75-.07v0l0-2v0a1.41,1.41,0,1,1,2.81,0Z"/>
        <path class="eco-3" d="M162.35,431l-.23,2a1.27,1.27,0,0,1-2.53-.23v0l.15-2v0a1.32,1.32,0,0,1,1.41-1.21,1.3,1.3,0,0,1,1.2,1.41Z"/>
        <path class="eco-3" d="M161.41,437.74l-.37,2a1.14,1.14,0,0,1-1.33.91,1.13,1.13,0,0,1-.92-1.28v0l.29-2v0a1.18,1.18,0,1,1,2.34.34Z"/>
        <path class="eco-3" d="M160,444.35l-.52,2a1,1,0,0,1-2-.48v0l.42-1.93v0a1.05,1.05,0,0,1,2,.46Z"/>
        <path class="eco-3" d="M158.11,450.83l-.65,1.91a.88.88,0,0,1-1.68-.53v0l.57-1.9v0a.91.91,0,0,1,1.14-.62.93.93,0,0,1,.62,1.15Z"/>
        <path class="eco-3" d="M155.74,457.14l-.81,1.85a.71.71,0,0,1-1.31-.53v0l.7-1.86h0a.76.76,0,1,1,1.42.53Z"/>
      </g>
      <g class="eco-4">
        <path class="eco-3" d="M159.68,460.33a1.35,1.35,0,0,1-.2,1,1.64,1.64,0,0,1-.67.55,2,2,0,0,1-1.52.07h0a.72.72,0,0,1,.47-1.36l.1,0a.61.61,0,0,0,.44,0,.28.28,0,0,0,.1-.06s0,0,0,0l0-.22a.65.65,0,0,1,1.28,0Z"/>
        <path class="eco-3" d="M156.12,456.79l.35-2a.84.84,0,0,1,1.65.28v.08l-.4,1.92v0a.8.8,0,0,1-1.58-.3Z"/>
        <path class="eco-3" d="M157.75,450.14l.73-1.91a.95.95,0,1,1,1.77.68v0l0,.05-.76,1.8,0,.05a.92.92,0,0,1-1.7-.69Z"/>
        <path class="eco-3" d="M160.57,443.93l1-1.77a1,1,0,0,1,1.76,1h0l0,0-1,1.68,0,0a1,1,0,0,1-1.72-1Z"/>
        <path class="eco-3" d="M164.25,438.2c.41-.54.81-1.09,1.23-1.63h0a1.09,1.09,0,0,1,1.53-.18,1.07,1.07,0,0,1,.19,1.52l0,0c-.42.51-.81,1-1.22,1.55l0,0a1.07,1.07,0,0,1-1.69-1.3Z"/>
        <path class="eco-3" d="M168.52,432.93l1.36-1.49a1.14,1.14,0,0,1,1.61-.08,1.15,1.15,0,0,1,.08,1.62h0v0l-1.35,1.45v0a1.14,1.14,0,0,1-1.67-1.54Z"/>
        <path class="eco-3" d="M173.15,428l1.42-1.42a1.18,1.18,0,0,1,1.65,0,1.16,1.16,0,0,1,0,1.65h0l-1.42,1.4h0a1.16,1.16,0,0,1-1.63-1.65Z"/>
        <path class="eco-3" d="M177.92,423.34l1.43-1.4h0a1.18,1.18,0,1,1,1.66,1.69h0L179.56,425a1.18,1.18,0,1,1-1.64-1.69Z"/>
        <path class="eco-3" d="M182.64,418.65l1.39-1.43h0a1.21,1.21,0,0,1,1.73,1.69h0l-1.42,1.43a1.2,1.2,0,0,1-1.72-1.68Z"/>
        <path class="eco-3" d="M187.24,413.85l1.35-1.46h0a1.21,1.21,0,0,1,1.77,1.64L189,415.51a1.22,1.22,0,0,1-1.79-1.65h0Z"/>
        <path class="eco-3" d="M191.72,408.94l1.32-1.49h0a1.16,1.16,0,0,1,1.65-.1,1.17,1.17,0,0,1,.11,1.63l-1.31,1.53a1.18,1.18,0,1,1-1.8-1.54h0Z"/>
        <path class="eco-3" d="M196.09,403.94l1.29-1.52h0a1.08,1.08,0,0,1,1.52-.12,1.09,1.09,0,0,1,.15,1.49l-1.25,1.58a1.12,1.12,0,0,1-1.57.18,1.1,1.1,0,0,1-.18-1.57l0,0Z"/>
        <path class="eco-3" d="M200.35,398.83l1.25-1.55h0a1,1,0,0,1,1.51,1.18l-1.2,1.61a1,1,0,0,1-1.39.2,1,1,0,0,1-.21-1.39l0,0Z"/>
        <path class="eco-3" d="M204.5,393.63l1.23-1.58h0A.77.77,0,0,1,207,393l-1.14,1.66a.83.83,0,0,1-1.37-.94l0,0Z"/>
        <path class="eco-3" d="M208.92,392.09l.33,2a.67.67,0,0,1-.55.77.66.66,0,0,1-.77-.55h0l-.33-2h0a.67.67,0,1,1,1.32-.22Z"/>
        <path class="eco-3" d="M210,398.7l.29,2a.67.67,0,1,1-1.32.19h0l-.29-2h0a.66.66,0,0,1,.57-.75A.66.66,0,0,1,210,398.7Z"/>
        <path class="eco-3" d="M210.84,405.35l.2,2a.66.66,0,1,1-1.32.13h0l-.2-2h0a.67.67,0,0,1,1.33-.14Z"/>
        <path class="eco-3" d="M211.38,412.05l.08,2a.67.67,0,0,1-1.34.05h0l-.07-2v0a.67.67,0,0,1,1.33-.05Z"/>
        <path class="eco-3" d="M211.45,418.78l-.1,2a.67.67,0,1,1-1.33-.06v0l.09-2v0a.67.67,0,0,1,1.34.06Z"/>
        <path class="eco-3" d="M210.89,425.51l-.31,2a.68.68,0,0,1-.77.56.67.67,0,0,1-.55-.76v0l.3-1.95v0a.66.66,0,0,1,.76-.55A.67.67,0,0,1,210.89,425.51Z"/>
        <path class="eco-3" d="M209.57,432.14l-.56,1.95a.67.67,0,1,1-1.28-.37v0l.54-1.9v0a.67.67,0,1,1,1.28.37Z"/>
        <path class="eco-3" d="M207.4,438.55l-.83,1.86a.68.68,0,0,1-.89.33.67.67,0,0,1-.33-.88v0l.81-1.8v0a.67.67,0,0,1,.88-.34A.68.68,0,0,1,207.4,438.55Z"/>
        <path class="eco-3" d="M204.27,444.57l-1.13,1.69a.68.68,0,0,1-.93.19.66.66,0,0,1-.18-.93l0,0,1.09-1.63,0,0a.68.68,0,0,1,.93-.19A.66.66,0,0,1,204.27,444.57Z"/>
        <path class="eco-3" d="M200.13,450l-1.43,1.45a.67.67,0,1,1-.95-.94l0,0,1.38-1.4,0,0a.67.67,0,1,1,.95.94Z"/>
        <path class="eco-3" d="M195.07,454.48l-1.67,1.17a.67.67,0,1,1-.77-1.09l0,0,1.61-1.13,0,0a.66.66,0,0,1,.93.16A.67.67,0,0,1,195.07,454.48Z"/>
        <path class="eco-3" d="M189.32,458.07l-1.82.9a.68.68,0,0,1-.9-.31.66.66,0,0,1,.3-.89h0l1.77-.88h0a.66.66,0,0,1,.89.3A.68.68,0,0,1,189.32,458.07Z"/>
        <path class="eco-3" d="M183.12,460.77l-1.92.66a.67.67,0,1,1-.43-1.27h0l1.87-.64h0a.67.67,0,0,1,.43,1.26Z"/>
        <path class="eco-3" d="M176.65,462.7l-2,.45a.67.67,0,1,1-.29-1.3h0l1.94-.43h0a.66.66,0,0,1,.79.51A.65.65,0,0,1,176.65,462.7Z"/>
        <path class="eco-3" d="M170,464l-2,.27a.67.67,0,1,1-.18-1.32h0l2-.26h0A.67.67,0,1,1,170,464Z"/>
        <path class="eco-3" d="M163.33,464.68l-1.54.09-1.53.09,1-1.19.3-.36a.67.67,0,1,1,1,.86l-.3.36-.54-1.1,1.51-.09h0a.67.67,0,0,1,.07,1.34Z"/>
        <path class="eco-3" d="M164.51,459.71l1.26-1.56h0a.67.67,0,0,1,1,.84l-1.26,1.56a.67.67,0,0,1-.94.1.68.68,0,0,1-.1-.94Z"/>
        <path class="eco-3" d="M168.67,454.49l1.23-1.57h0a.68.68,0,0,1,.94-.12.67.67,0,0,1,.11.94l-1.23,1.59a.66.66,0,0,1-.93.11.65.65,0,0,1-.12-.93Z"/>
        <path class="eco-3" d="M172.73,449.2l1.19-1.6h0a.67.67,0,1,1,1.08.8L173.79,450a.67.67,0,0,1-.93.13.66.66,0,0,1-.14-.93Z"/>
        <path class="eco-3" d="M176.68,443.84l1.17-1.63h0a.67.67,0,1,1,1.08.78l-1.17,1.63a.67.67,0,0,1-1.08-.78Z"/>
      </g>
    </g>
    <g>
      <path class="eco-3" d="M443.07,294.15c-2.63-1.11-5.47,3.21-8.18,2s-.9-6.54-3.76-8.85c-3.9-3.15-15,.56-21.24,7.75-2.14,2.47-3.57,5.17-5,6.65a23.92,23.92,0,0,0-1.71-2.24c-.85-1.13-1.43-2.08-1.95-2.89a3.29,3.29,0,0,0,.55-2.46c7.31-.06,5-4.63,5-4.63a9.8,9.8,0,0,0-4.85,1c.07-1.5-.49-3.59-2.41-6.47a8.5,8.5,0,0,0-1.17,7.58,2.35,2.35,0,0,0-1.55,1.49c-3.63-.91-5.45-2.72-9.08,2.72h0a3.39,3.39,0,0,0-1.14.42c-.34.22-10.83,4.55-8.58,15.45a2,2,0,0,0,1.16,1.46,18.89,18.89,0,0,0,3.16,1c-.93,2.79-3.12,9.4-3.08,9.46-4.14-.9-7.69-1.84-9.42-2.32a1.21,1.21,0,0,0-1.36.55c-20.36-12.84-19.09-36-19.09-36l3.18-2.63-1.31.12a4.09,4.09,0,0,1-.7,0c2-.65,3.81-.68,6-1.36,4-1.24-4.13-4.77-2.15-10.06s-6.39-7.46-11.53-5.85c-24.34,7.64-3.66,25.62,1.7,20.91a3.88,3.88,0,0,1,1,2.62c-.66,29.43,15,42.42,18.7,45.1a2.28,2.28,0,0,0,.95,2.38l.84.55c-.61,1.8-1.41,3.67-.34,5.24A109.89,109.89,0,0,1,373,356.87l-.26,0,.12,3.63a2.29,2.29,0,0,0-.07.28c-.61,1.9-5.1,16.36-4.33,29.48a4.38,4.38,0,0,0,2.89,3.87c.54.19,1.16.39,1.86.58.27,1.76.57,3.59.92,5.5l-.08,0s10.28,49.71,13.19,59.4l-6.88,4.32-3.34,1.9a.58.58,0,0,0,.29,1.09c4.69-.05,15.19-.2,16.13-.58,1.2-.5-.44-4.83-2.17-6.3l-.83-1.31s-2-38.49-2-51.4a31.77,31.77,0,0,0,5.37-1.28c4.3,9.26,15.87,33.85,22.56,45.38,0,0,1.66,9,0,11.87l-1.41.63s-2.73.27-2.81,1.7c0,.16,5.14.09,7.94,0a2.23,2.23,0,0,0,2.14-1.76l2.11-11.11a2,2,0,0,0-1.51-2.32l-1.18-.27a3.71,3.71,0,0,0-.26.4,1.88,1.88,0,0,0-1.08-.34s-2.83-22.39-11-27.16l-6.38-22,.44-.35s-3.55-31.11-4.52-32.56a3.46,3.46,0,0,0-.22-.31,5.33,5.33,0,0,0,1.32-3.33c.5-5-6.85-5.2-8.72-5.16l-.7-4.57-.12,0v-.15l2.57-14.48c17.11,8.52,19.55,26.74,19.55,26.74l-2.33,2.8,1.12-.32a4,4,0,0,1,4.36,1.57l2.61,3.75a6.89,6.89,0,0,0,3.4,2.59l.43.15a1,1,0,0,0,1.38-.91l.12-2.06a6.81,6.81,0,0,0-2.56-5.72l-4.55-3.62a3.45,3.45,0,0,1-1.25-2.11c-3.66-22.09-15.83-31.6-21.46-34.89a5.4,5.4,0,0,0-4-2.67h0l-1.14-7a5.19,5.19,0,0,0,5.49.06h0l.14-.08,6.17-3.62c1.18.6,3.53,1.26,5-.68a27.36,27.36,0,0,0,3.75,6.06c2,2.19,6.54,7.29,13.27,7.3,6.05,0,12.79-4.09,13.05-8.4.29-4.68-7.13-7.8-6.19-10,1.08-2.48,10.73,2,14.82-2.21C447.52,303.57,446.16,295.45,443.07,294.15Zm-45.85,69.33s.69,1.51-.15,2.22a26.89,26.89,0,0,0-5.61-5.88Z"/>
      <g class="eco-4">
        <path class="eco-32" d="M399.06,299c.28-.14,1.39,3.48,3.53,3.76,2.45.32,4-4,7.3-7.74,6.25-7.19,17.34-10.9,21.24-7.75,2.86,2.31.92,7.57,3.76,8.85s5.55-3.1,8.18-2c3.09,1.3,4.45,9.42,1.11,12.83-4.09,4.18-13.74-.27-14.82,2.21-.94,2.16,6.48,5.28,6.19,10-.26,4.31-7,8.41-13.05,8.4-6.73,0-11.31-5.11-13.27-7.3s-3.29-5.06-6.19-11.06C400,302.85,398.76,299.16,399.06,299Z"/>
        <path class="eco-33" d="M342.89,266.16c5.14-1.61,13.51.56,11.53,5.85s6.14,8.82,2.15,10.06-6.61.29-12,5S318.55,273.8,342.89,266.16Z"/>
        <path class="eco-34" d="M392.1,402.37s15.9,34.66,24.24,49c0,0,1.66,9,0,11.87l-1.41.63,6.59-.2s.59-12.15.13-12.82a1.69,1.69,0,0,0-1.37-.64s-2.83-22.39-11-27.16l-7.93-27.32Z"/>
        <path class="eco-35" d="M412.12,465.58c0,.16,5.14.09,7.94,0a2.23,2.23,0,0,0,2.14-1.76l2.11-11.11a2,2,0,0,0-1.51-2.32l-1.18-.27s-1.69,2.31-1.16,4.48,1,7.81-.34,8.47-5.19.77-5.19.77S412.2,464.15,412.12,465.58Z"/>
        <path class="eco-36" d="M377,465.78a.58.58,0,0,0,.29,1.09c4.69-.05,15.19-.2,16.13-.58,1.2-.5-.44-4.83-2.17-6.3l-9.56,3.12Z"/>
        <path class="eco-37" d="M374.06,400.16s10.28,49.71,13.19,59.4l-6.88,4.32s3.45-.59,6-.77,4.91-3.12,4.91-3.12l-.83-1.31s-2.57-49.44-1.95-55.06Z"/>
        <path class="eco-38" d="M349.41,285.94s-1.35,24.56,21,37.11L365,335.33s-20.25-12.25-19.5-45.64a3.88,3.88,0,0,0-1-2.62l-4.3-5a7.72,7.72,0,0,1-1.64-6.92l.56-2.26a1.17,1.17,0,0,1,1.73-.73l.45.26a7.93,7.93,0,0,1,3.25,3.6l2.11,4.73a4.55,4.55,0,0,0,4.53,2.67l1.31-.12Z"/>
        <path class="eco-39" d="M412.48,366.93s-2.86-21.5-24.29-28.71l2.65-11.52s19.55,7.29,24.37,36.35a3.45,3.45,0,0,0,1.25,2.11l4.55,3.62a6.81,6.81,0,0,1,2.56,5.72l-.12,2.06a1,1,0,0,1-1.38.91l-.43-.15a6.89,6.89,0,0,1-3.4-2.59L415.63,371a4,4,0,0,0-4.36-1.57l-1.12.32Z"/>
        <path class="eco-40" d="M369.86,321.35a145.71,145.71,0,0,0,19.81,4.12,5.46,5.46,0,0,1,4.73,6.39l-4,22.81.41,4.71-16.68-.08s-4.69-10.9-8.4-16.34c-1.07-1.57-.27-3.44.34-5.24l-.84-.55a2.3,2.3,0,0,1-.9-2.6l4.06-12.42A1.24,1.24,0,0,1,369.86,321.35Z"/>
        <path class="eco-41" d="M372.75,356.84l.33,2.85s-4.71,14.11,2.36,47.07c0,0,15.31,4.34,27.89-6,0,0-3.55-31.11-4.52-32.56-4.83-7.22-8-8.78-8-8.78l-.15-3.12S377.16,358.69,372.75,356.84Z"/>
        <path class="eco-42" d="M379.28,323.67c-.06-.07,3.48-10.68,3.48-10.68l5.07.46,2,12S381.87,327.09,379.28,323.67Z"/>
        <path class="eco-43" d="M386.62,296.25c-.34.22-10.83,4.55-8.58,15.45a2,2,0,0,0,1.16,1.46,17.81,17.81,0,0,0,8.83,1.46c5.5-.56,9.1-10.16,9-12.95S390,294.17,386.62,296.25Z"/>
        <path class="eco-44" d="M387.76,308.52s-5.38,3.31-.87,8.46,9.95.61,9.95-2.11,1.81-.9,3.63,0,6.35,2,6.35-6.35a12.88,12.88,0,0,0-3.63-9.07c-2.72-3.63-2.72-5.44-6.35-6.35s-5.45-2.72-9.08,2.72,0,4.54,2.73,7.26S387.76,308.52,387.76,308.52Z"/>
        <path class="eco-45" d="M399.05,294s-14.82,7.39-4.89,24.56l6.31-3.7S394,300.37,399.05,294Z"/>
        <path class="eco-46" d="M396.84,293.1s.9-2.72,3.63-.91.9,5.45-.91,5.45S396.84,293.1,396.84,293.1Z"/>
        <path class="eco-47" d="M399.56,294s0-4.54,7.26-4.54C406.82,289.47,409.54,294.91,399.56,294Z"/>
        <path class="eco-48" d="M399.56,284a8.54,8.54,0,0,0,0,10S405,292.19,399.56,284Z"/>
        <path class="eco-49" d="M372.75,356.84l.12,3.7s10.2,1.84,18.37-.88l-.75-4.87S378.2,357.74,372.75,356.84Z"/>
        <path class="eco-50" d="M368.47,390.23a4.38,4.38,0,0,0,2.89,3.87,33.09,33.09,0,0,0,6.42,1.52c6.36.9,3.63-36.24,3.63-36.24l-8.54,1.16S367.64,376.16,368.47,390.23Z"/>
        <path class="eco-51" d="M388.44,359.38s-2.43,12.68,2.3,14.13,4.48-2.53,4.86-3.41-5.79-10.73-5.79-10.73,4.09,10.88,2.29,11.56S388.44,359.38,388.44,359.38Z"/>
        <path class="eco-52" d="M390.77,359.38s9.71-.62,9.14,5.14-5.42,4.23-5.42,4.23l-6.05-9.37h1.37s3.74,6.8,6.14,6.7,1.27-2.59,1.27-2.59Z"/>
        <path class="eco-53" d="M408.31,301.21a25,25,0,0,1,3-3.38,25.65,25.65,0,0,1,3.63-2.75,16.81,16.81,0,0,1,4.14-1.93,7,7,0,0,1,4.57.09,7.34,7.34,0,0,1,2,1.17,16.59,16.59,0,0,1,1.68,1.56,40.05,40.05,0,0,0,3.17,3.21,6.3,6.3,0,0,0,4,1.62,5.44,5.44,0,0,0,4-1.72l.12.11a5.65,5.65,0,0,1-4.08,1.89,6.45,6.45,0,0,1-4.22-1.65,40.67,40.67,0,0,1-3.23-3.2,14.6,14.6,0,0,0-1.65-1.5,6.59,6.59,0,0,0-6.22-1.2,16,16,0,0,0-4.06,1.85,25.88,25.88,0,0,0-6.72,5.93Z"/>
        <path class="eco-53" d="M408.75,302.38a10.54,10.54,0,0,1,2.65-2.55,12.72,12.72,0,0,1,3.37-1.55,12,12,0,0,1,7.38.21,13,13,0,0,1,3.27,1.79c1,.72,1.94,1.47,2.91,2.17a10.59,10.59,0,0,0,3.15,1.58,5.59,5.59,0,0,0,3.48,0l.06.15a5.67,5.67,0,0,1-3.66.3A11,11,0,0,1,428,303c-2.07-1.31-3.85-3-6.08-3.74A12.29,12.29,0,0,0,415,299a12.1,12.1,0,0,0-3.28,1.31,11.47,11.47,0,0,0-2.79,2.22Z"/>
        <path class="eco-53" d="M408.76,304.27a8.05,8.05,0,0,1,4.73-2.36,11.28,11.28,0,0,1,5.34.56,15.31,15.31,0,0,1,2.45,1.08c.78.44,1.51.94,2.23,1.41a15.56,15.56,0,0,0,2.19,1.27,5,5,0,0,0,2.44.47l0,.16a4.71,4.71,0,0,1-2.68-.06,11.68,11.68,0,0,1-2.44-1.1,25.78,25.78,0,0,0-4.56-2.26,12.11,12.11,0,0,0-4.91-.71,9.18,9.18,0,0,0-4.71,1.66Z"/>
      </g>
    </g>
  </g>
</svg>
