<svg id="Ebene_1" data-name="Ebene 1" xmlns="http://www.w3.org/2000/svg" xmlns:xlink="http://www.w3.org/1999/xlink" viewBox="0 0 700 476">
  <defs>
    <style>
      .cls-1 {
        mask: url(#mask);
        filter: url(#luminosity-noclip-2);
      }

      .cls-2 {
        mix-blend-mode: multiply;
        fill: url(#linear-gradient);
      }

      .cls-3, .cls-4, .cls-6 {
        opacity: 0.5;
      }

      .cls-3 {
        fill: url(#linear-gradient-2);
      }

      .cls-4 {
        fill: url(#linear-gradient-3);
      }

      .cls-5 {
        fill: url(#linear-gradient-4);
      }

      .cls-6, .cls-70, .cls-93, .cls-94 {
        fill: #fff;
      }

      .cls-7 {
        fill: url(#linear-gradient-5);
      }

      .cls-8 {
        fill: url(#linear-gradient-6);
      }

      .cls-9 {
        fill: url(#linear-gradient-7);
      }

      .cls-10 {
        fill: url(#linear-gradient-8);
      }

      .cls-11 {
        fill: url(#linear-gradient-9);
      }

      .cls-12 {
        fill: url(#linear-gradient-10);
      }

      .cls-13 {
        fill: url(#linear-gradient-11);
      }

      .cls-14 {
        fill: url(#linear-gradient-12);
      }

      .cls-15 {
        fill: url(#linear-gradient-13);
      }

      .cls-16 {
        fill: url(#linear-gradient-14);
      }

      .cls-17 {
        fill: url(#linear-gradient-15);
      }

      .cls-18 {
        fill: url(#linear-gradient-16);
      }

      .cls-19 {
        fill: url(#linear-gradient-17);
      }

      .cls-20 {
        fill: url(#linear-gradient-18);
      }

      .cls-21 {
        fill: url(#linear-gradient-19);
      }

      .cls-22 {
        fill: url(#linear-gradient-20);
      }

      .cls-23 {
        fill: url(#linear-gradient-21);
      }

      .cls-24 {
        fill: url(#linear-gradient-22);
      }

      .cls-25 {
        fill: url(#linear-gradient-23);
      }

      .cls-26 {
        fill: url(#linear-gradient-24);
      }

      .cls-27 {
        fill: url(#linear-gradient-25);
      }

      .cls-28 {
        fill: url(#linear-gradient-26);
      }

      .cls-29 {
        fill: url(#linear-gradient-27);
      }

      .cls-30 {
        fill: url(#linear-gradient-28);
      }

      .cls-31 {
        mask: url(#mask-2);
      }

      .cls-32 {
        fill: url(#linear-gradient-29);
      }

      .cls-33 {
        fill: url(#linear-gradient-30);
      }

      .cls-34 {
        fill: url(#linear-gradient-31);
      }

      .cls-35 {
        fill: url(#linear-gradient-32);
      }

      .cls-36 {
        fill: url(#linear-gradient-33);
      }

      .cls-37 {
        fill: url(#linear-gradient-34);
      }

      .cls-38 {
        fill: url(#linear-gradient-35);
      }

      .cls-39 {
        fill: url(#linear-gradient-36);
      }

      .cls-40 {
        fill: url(#linear-gradient-37);
      }

      .cls-41 {
        fill: url(#linear-gradient-38);
      }

      .cls-42 {
        fill: url(#linear-gradient-39);
      }

      .cls-43 {
        fill: url(#linear-gradient-40);
      }

      .cls-44 {
        fill: url(#linear-gradient-41);
      }

      .cls-45 {
        fill: url(#linear-gradient-42);
      }

      .cls-46 {
        fill: url(#linear-gradient-43);
      }

      .cls-47 {
        fill: url(#linear-gradient-44);
      }

      .cls-48 {
        fill: url(#linear-gradient-45);
      }

      .cls-49 {
        fill: url(#linear-gradient-46);
      }

      .cls-50 {
        fill: url(#linear-gradient-47);
      }

      .cls-51 {
        fill: url(#linear-gradient-48);
      }

      .cls-52 {
        fill: url(#linear-gradient-49);
      }

      .cls-53 {
        fill: url(#linear-gradient-50);
      }

      .cls-54 {
        fill: url(#linear-gradient-51);
      }

      .cls-55 {
        fill: url(#linear-gradient-52);
      }

      .cls-56 {
        fill: url(#linear-gradient-53);
      }

      .cls-57 {
        fill: url(#linear-gradient-54);
      }

      .cls-58 {
        fill: url(#linear-gradient-55);
      }

      .cls-59 {
        fill: url(#linear-gradient-56);
      }

      .cls-60 {
        fill: url(#linear-gradient-57);
      }

      .cls-61 {
        fill: url(#linear-gradient-58);
      }

      .cls-62 {
        fill: url(#linear-gradient-59);
      }

      .cls-63 {
        fill: url(#linear-gradient-60);
      }

      .cls-64 {
        fill: url(#linear-gradient-61);
      }

      .cls-65 {
        fill: url(#linear-gradient-62);
      }

      .cls-66 {
        fill: url(#linear-gradient-63);
      }

      .cls-67 {
        fill: url(#linear-gradient-64);
      }

      .cls-68 {
        fill: url(#linear-gradient-65);
      }

      .cls-69 {
        fill: url(#linear-gradient-66);
      }

      .cls-70 {
        opacity: 0.63;
      }

      .cls-71 {
        fill: url(#linear-gradient-67);
      }

      .cls-72 {
        fill: url(#linear-gradient-68);
      }

      .cls-73 {
        fill: url(#linear-gradient-69);
      }

      .cls-74 {
        fill: url(#linear-gradient-70);
      }

      .cls-75 {
        fill: url(#linear-gradient-71);
      }

      .cls-76 {
        fill: url(#linear-gradient-72);
      }

      .cls-77 {
        fill: url(#linear-gradient-73);
      }

      .cls-78 {
        fill: url(#linear-gradient-74);
      }

      .cls-79 {
        fill: url(#linear-gradient-75);
      }

      .cls-80 {
        fill: url(#linear-gradient-76);
      }

      .cls-81 {
        fill: url(#linear-gradient-77);
      }

      .cls-82 {
        fill: url(#linear-gradient-78);
      }

      .cls-83 {
        fill: url(#linear-gradient-79);
      }

      .cls-84 {
        fill: url(#linear-gradient-80);
      }

      .cls-85 {
        fill: url(#linear-gradient-81);
      }

      .cls-86 {
        fill: url(#linear-gradient-82);
      }

      .cls-87 {
        fill: url(#linear-gradient-83);
      }

      .cls-88 {
        fill: url(#linear-gradient-84);
      }

      .cls-89 {
        fill: url(#linear-gradient-85);
      }

      .cls-90 {
        fill: url(#linear-gradient-86);
      }

      .cls-91 {
        fill: url(#linear-gradient-87);
      }

      .cls-92 {
        fill: url(#linear-gradient-88);
      }

      .cls-93 {
        opacity: 0.57;
      }

      .cls-95 {
        filter: url(#luminosity-noclip);
      }
    </style>
    <filter id="luminosity-noclip" x="407.23" y="-8600" width="153.6" height="32766" filterUnits="userSpaceOnUse" color-interpolation-filters="sRGB">
      <feFlood flood-color="#fff" result="bg"/>
      <feBlend in="SourceGraphic" in2="bg"/>
    </filter>
    <mask id="mask" x="407.23" y="-8600" width="153.6" height="32766" maskUnits="userSpaceOnUse">
      <g class="cls-95"/>
    </mask>
    <linearGradient id="linear-gradient" x1="548.78" y1="94.9" x2="407.18" y2="111.83" gradientUnits="userSpaceOnUse">
      <stop offset="0"/>
      <stop offset="0.07" stop-color="#2d2d2d"/>
      <stop offset="0.17" stop-color="#5e5e5e"/>
      <stop offset="0.26" stop-color="#898989"/>
      <stop offset="0.36" stop-color="#aeaeae"/>
      <stop offset="0.47" stop-color="#cbcbcb"/>
      <stop offset="0.58" stop-color="#e2e2e2"/>
      <stop offset="0.69" stop-color="#f2f2f2"/>
      <stop offset="0.83" stop-color="#fcfcfc"/>
      <stop offset="1" stop-color="#fff"/>
    </linearGradient>
    <linearGradient id="linear-gradient-2" x1="12.51" y1="236.51" x2="687.49" y2="236.51" gradientUnits="userSpaceOnUse">
      <stop offset="0" stop-color="#b37cff"/>
      <stop offset="1" stop-color="#f895e7"/>
    </linearGradient>
    <linearGradient id="linear-gradient-3" x1="54.31" y1="258.57" x2="661.31" y2="258.57" xlink:href="#linear-gradient-2"/>
    <linearGradient id="linear-gradient-4" x1="460.23" y1="163.53" x2="377.16" y2="353.3" gradientUnits="userSpaceOnUse">
      <stop offset="0" stop-color="#a737d5"/>
      <stop offset="1" stop-color="#ef497a"/>
    </linearGradient>
    <linearGradient id="linear-gradient-5" x1="-220.11" y1="711.11" x2="23.7" y2="711.11" gradientTransform="translate(405.45 -394.4) rotate(-12.43)" gradientUnits="userSpaceOnUse">
      <stop offset="0" stop-color="#233894"/>
      <stop offset="1" stop-color="#dd397a"/>
    </linearGradient>
    <linearGradient id="linear-gradient-6" x1="-575.44" y1="921.28" x2="-643.51" y2="833.89" gradientTransform="translate(457.39 -651.32) rotate(-15.6)" xlink:href="#linear-gradient-4"/>
    <linearGradient id="linear-gradient-7" x1="481.49" y1="-4756.8" x2="425.22" y2="-4430.56" gradientTransform="matrix(1, 0, 0, -1, 0, -4273.49)" gradientUnits="userSpaceOnUse">
      <stop offset="0" stop-color="#53d8ff"/>
      <stop offset="1" stop-color="#3840f7"/>
    </linearGradient>
    <linearGradient id="linear-gradient-8" x1="434.76" y1="-4519.23" x2="476.18" y2="-4519.23" gradientTransform="matrix(0.61, 0.79, 0.79, -0.61, 3746.22, -2885.05)" gradientUnits="userSpaceOnUse">
      <stop offset="0" stop-color="#2b3582"/>
      <stop offset="1" stop-color="#150e42"/>
    </linearGradient>
    <linearGradient id="linear-gradient-9" x1="-5753.96" y1="-1503.94" x2="-5822.03" y2="-1591.32" gradientTransform="matrix(-0.77, -0.63, -0.63, 0.77, -4955.06, -2061.6)" xlink:href="#linear-gradient-4"/>
    <linearGradient id="linear-gradient-10" x1="588.96" y1="406.73" x2="593.04" y2="381.07" gradientTransform="matrix(1, 0, 0, 1, 0, 0)" xlink:href="#linear-gradient-7"/>
    <linearGradient id="linear-gradient-11" x1="583.35" y1="441.46" x2="592.54" y2="383.63" gradientTransform="matrix(1, 0, 0, 1, 0, 0)" xlink:href="#linear-gradient-7"/>
    <linearGradient id="linear-gradient-12" x1="587.12" y1="441.47" x2="599.04" y2="366.44" gradientTransform="matrix(1, 0, 0, 1, 0, 0)" xlink:href="#linear-gradient-7"/>
    <linearGradient id="linear-gradient-13" x1="582.95" y1="433.83" x2="587.9" y2="402.65" gradientTransform="matrix(1, 0, 0, 1, 0, 0)" xlink:href="#linear-gradient-7"/>
    <linearGradient id="linear-gradient-14" x1="577.01" y1="462.99" x2="588.9" y2="388.26" gradientTransform="matrix(1, 0, 0, 1, 0, 0)" xlink:href="#linear-gradient-5"/>
    <linearGradient id="linear-gradient-15" x1="616.01" y1="300.49" x2="585.46" y2="370.55" gradientTransform="matrix(1, 0, 0, 1, 0, 0)" xlink:href="#linear-gradient-5"/>
    <linearGradient id="linear-gradient-16" x1="563.8" y1="445.81" x2="573.48" y2="384.96" gradientTransform="matrix(1, 0, 0, 1, 0, 0)" xlink:href="#linear-gradient-7"/>
    <linearGradient id="linear-gradient-17" x1="575.42" y1="445.81" x2="585.09" y2="384.96" gradientTransform="matrix(1, 0, 0, 1, 0, 0)" xlink:href="#linear-gradient-7"/>
    <linearGradient id="linear-gradient-18" x1="587.03" y1="445.81" x2="596.71" y2="384.96" gradientTransform="matrix(1, 0, 0, 1, 0, 0)" xlink:href="#linear-gradient-7"/>
    <linearGradient id="linear-gradient-19" x1="598.65" y1="445.81" x2="608.32" y2="384.96" gradientTransform="matrix(1, 0, 0, 1, 0, 0)" xlink:href="#linear-gradient-7"/>
    <linearGradient id="linear-gradient-20" x1="610.26" y1="445.81" x2="619.94" y2="384.96" gradientTransform="matrix(1, 0, 0, 1, 0, 0)" xlink:href="#linear-gradient-7"/>
    <linearGradient id="linear-gradient-21" x1="449.57" y1="409.91" x2="491.39" y2="409.91" gradientUnits="userSpaceOnUse">
      <stop offset="0" stop-color="#9cfffb"/>
      <stop offset="1" stop-color="#9bfffa"/>
    </linearGradient>
    <linearGradient id="linear-gradient-22" x1="454.4" y1="409.91" x2="496.22" y2="409.91" xlink:href="#linear-gradient-21"/>
    <linearGradient id="linear-gradient-23" x1="612.1" y1="409.91" x2="653.92" y2="409.91" xlink:href="#linear-gradient-21"/>
    <linearGradient id="linear-gradient-24" x1="616.93" y1="409.91" x2="658.75" y2="409.91" xlink:href="#linear-gradient-21"/>
    <linearGradient id="linear-gradient-25" x1="432.62" y1="364.67" x2="661.31" y2="364.67" xlink:href="#linear-gradient-21"/>
    <linearGradient id="linear-gradient-26" x1="216.83" y1="408.85" x2="140.66" y2="135.01" gradientTransform="matrix(1, 0, 0, 1, 0, 0)" xlink:href="#linear-gradient-5"/>
    <linearGradient id="linear-gradient-27" x1="412.38" y1="-4756.8" x2="356.1" y2="-4430.56" xlink:href="#linear-gradient-7"/>
    <linearGradient id="linear-gradient-28" x1="365.65" y1="-4519.23" x2="407.06" y2="-4519.23" gradientTransform="matrix(0.38, 0.93, 0.93, -0.38, 4426.26, -1816.27)" xlink:href="#linear-gradient-8"/>
    <filter id="luminosity-noclip-2" x="407.23" y="39" width="153.6" height="108.91" filterUnits="userSpaceOnUse" color-interpolation-filters="sRGB">
      <feFlood flood-color="#fff" result="bg"/>
      <feBlend in="SourceGraphic" in2="bg"/>
    </filter>
    <mask id="mask-2" x="407.23" y="39" width="153.6" height="108.91" maskUnits="userSpaceOnUse">
      <g class="cls-1">
        <polygon class="cls-2" points="407.23 90.94 407.23 95.97 560.84 147.91 560.84 39 407.23 90.94"/>
      </g>
    </mask>
    <linearGradient id="linear-gradient-29" x1="548.78" y1="94.9" x2="407.18" y2="111.83" gradientUnits="userSpaceOnUse">
      <stop offset="0" stop-color="#fff"/>
      <stop offset="0.1" stop-color="#fff"/>
      <stop offset="1" stop-color="#fff"/>
    </linearGradient>
    <linearGradient id="linear-gradient-30" x1="297.94" y1="174.82" x2="297.77" y2="207.29" gradientTransform="translate(595.83 359.24) rotate(-180)" xlink:href="#linear-gradient-7"/>
    <linearGradient id="linear-gradient-31" x1="-7469.23" y1="232.55" x2="-7223" y2="587.94" gradientTransform="matrix(-1, 0, 0, 1, -7080.85, 0)" gradientUnits="userSpaceOnUse">
      <stop offset="0" stop-color="#fdf53f"/>
      <stop offset="1" stop-color="#d93c65"/>
    </linearGradient>
    <linearGradient id="linear-gradient-32" x1="297.94" y1="126.35" x2="297.94" y2="164.9" gradientTransform="matrix(1, 0, 0, 1, 0, 0)" xlink:href="#linear-gradient-7"/>
    <linearGradient id="linear-gradient-33" x1="427.21" y1="209.6" x2="295.59" y2="40.38" gradientTransform="matrix(1, 0, 0, 1, 0, 0)" xlink:href="#linear-gradient-31"/>
    <linearGradient id="linear-gradient-34" x1="435.24" y1="94.08" x2="303.63" y2="93.14" gradientTransform="matrix(1, 0, 0, 1, 0, 0)" xlink:href="#linear-gradient-7"/>
    <linearGradient id="linear-gradient-35" x1="356.33" y1="148.95" x2="242.57" y2="25.8" gradientTransform="matrix(1, 0, 0, 1, 0, 0)" xlink:href="#linear-gradient-7"/>
    <linearGradient id="linear-gradient-36" x1="303.33" y1="142.6" x2="230" y2="57.05" gradientTransform="matrix(1, 0, 0, 1, 0, 0)" xlink:href="#linear-gradient-7"/>
    <linearGradient id="linear-gradient-37" x1="272.03" y1="155.35" x2="271.75" y2="207.67" gradientTransform="matrix(1, 0, 0, 1, 0, 0)" xlink:href="#linear-gradient-7"/>
    <linearGradient id="linear-gradient-38" x1="279.5" y1="155.35" x2="279.22" y2="207.67" gradientTransform="matrix(1, 0, 0, 1, 0, 0)" xlink:href="#linear-gradient-7"/>
    <linearGradient id="linear-gradient-39" x1="286.96" y1="155.35" x2="286.69" y2="207.67" gradientTransform="matrix(1, 0, 0, 1, 0, 0)" xlink:href="#linear-gradient-7"/>
    <linearGradient id="linear-gradient-40" x1="294.43" y1="155.35" x2="294.16" y2="207.67" gradientTransform="matrix(1, 0, 0, 1, 0, 0)" xlink:href="#linear-gradient-7"/>
    <linearGradient id="linear-gradient-41" x1="301.9" y1="155.35" x2="301.63" y2="207.67" gradientTransform="matrix(1, 0, 0, 1, 0, 0)" xlink:href="#linear-gradient-7"/>
    <linearGradient id="linear-gradient-42" x1="309.37" y1="155.35" x2="309.09" y2="207.67" gradientTransform="matrix(1, 0, 0, 1, 0, 0)" xlink:href="#linear-gradient-7"/>
    <linearGradient id="linear-gradient-43" x1="316.84" y1="155.35" x2="316.56" y2="207.67" gradientTransform="matrix(1, 0, 0, 1, 0, 0)" xlink:href="#linear-gradient-7"/>
    <linearGradient id="linear-gradient-44" x1="324.31" y1="155.35" x2="324.03" y2="207.67" gradientTransform="matrix(1, 0, 0, 1, 0, 0)" xlink:href="#linear-gradient-7"/>
    <linearGradient id="linear-gradient-45" x1="306.55" y1="313.4" x2="305.06" y2="598.91" gradientTransform="matrix(1, 0, 0, 1, 0, 0)" xlink:href="#linear-gradient-31"/>
    <linearGradient id="linear-gradient-46" x1="538.2" y1="235.12" x2="522.84" y2="265.86" gradientTransform="matrix(1, 0, 0, 1, 0, 0)" xlink:href="#linear-gradient-8"/>
    <linearGradient id="linear-gradient-47" x1="477.65" y1="232.28" x2="467.2" y2="193.96" gradientTransform="matrix(1, 0, 0, 1, 0, 0)" xlink:href="#linear-gradient-31"/>
    <linearGradient id="linear-gradient-48" x1="511.32" y1="338.14" x2="533.01" y2="338.14" gradientUnits="userSpaceOnUse">
      <stop offset="0" stop-color="#f9b776"/>
      <stop offset="1" stop-color="#f47960"/>
    </linearGradient>
    <linearGradient id="linear-gradient-49" x1="541.14" y1="289.63" x2="530.39" y2="359.46" gradientTransform="matrix(1, 0, 0, 1, 0, 0)" xlink:href="#linear-gradient-7"/>
    <linearGradient id="linear-gradient-50" x1="518.41" y1="286.13" x2="507.66" y2="355.96" gradientTransform="matrix(1, 0, 0, 1, 0, 0)" xlink:href="#linear-gradient-7"/>
    <linearGradient id="linear-gradient-51" x1="498.16" y1="339.76" x2="510.72" y2="339.76" xlink:href="#linear-gradient-48"/>
    <linearGradient id="linear-gradient-52" x1="472.14" y1="246.08" x2="495.5" y2="246.08" xlink:href="#linear-gradient-48"/>
    <linearGradient id="linear-gradient-53" x1="-3183.54" y1="-4993.23" x2="-3162.94" y2="-4993.23" gradientTransform="translate(-3524.87 -4035.12) rotate(169.29)" xlink:href="#linear-gradient-48"/>
    <linearGradient id="linear-gradient-54" x1="497.2" y1="259.3" x2="543.31" y2="350.62" gradientTransform="matrix(1, 0, 0, 1, 0, 0)" xlink:href="#linear-gradient-31"/>
    <linearGradient id="linear-gradient-55" x1="487.07" y1="283.01" x2="527.35" y2="328.44" gradientTransform="matrix(1, 0, 0, 1, 0, 0)" xlink:href="#linear-gradient-31"/>
    <linearGradient id="linear-gradient-56" x1="501.96" y1="257.58" x2="509.65" y2="257.58" xlink:href="#linear-gradient-48"/>
    <linearGradient id="linear-gradient-57" x1="514.18" y1="247.65" x2="570.14" y2="251.45" xlink:href="#linear-gradient-48"/>
    <linearGradient id="linear-gradient-58" x1="517.7" y1="240.86" x2="507.81" y2="260.63" gradientTransform="matrix(1, 0, 0, 1, 0, 0)" xlink:href="#linear-gradient-8"/>
    <linearGradient id="linear-gradient-59" x1="518.45" y1="241.15" x2="509.48" y2="259.09" gradientTransform="matrix(1, 0, 0, 1, 0, 0)" xlink:href="#linear-gradient-31"/>
    <linearGradient id="linear-gradient-60" x1="517.29" y1="237.85" x2="515.27" y2="241.88" gradientTransform="matrix(1, 0, 0, 1, 0, 0)" xlink:href="#linear-gradient-31"/>
    <linearGradient id="linear-gradient-61" x1="520.79" y1="235.41" x2="518.08" y2="240.84" gradientTransform="matrix(1, 0, 0, 1, 0, 0)" xlink:href="#linear-gradient-31"/>
    <linearGradient id="linear-gradient-62" x1="518.34" y1="232.94" x2="515.02" y2="239.57" gradientTransform="matrix(1, 0, 0, 1, 0, 0)" xlink:href="#linear-gradient-31"/>
    <linearGradient id="linear-gradient-63" x1="484.23" y1="308.13" x2="519.52" y2="268.37" gradientTransform="matrix(1, 0, 0, 1, 0, 0)" xlink:href="#linear-gradient-7"/>
    <linearGradient id="linear-gradient-64" x1="490.6" y1="310.33" x2="523.34" y2="273.44" gradientTransform="matrix(1, 0, 0, 1, 0, 0)" xlink:href="#linear-gradient-7"/>
    <linearGradient id="linear-gradient-65" x1="497.67" y1="306.6" x2="520.22" y2="281.19" gradientTransform="matrix(1, 0, 0, 1, 0, 0)" xlink:href="#linear-gradient-7"/>
    <linearGradient id="linear-gradient-66" x1="502.43" y1="301.02" x2="520.96" y2="280.14" gradientTransform="matrix(1, 0, 0, 1, 0, 0)" xlink:href="#linear-gradient-7"/>
    <linearGradient id="linear-gradient-67" x1="127.47" y1="425.23" x2="147.19" y2="425.23" xlink:href="#linear-gradient-48"/>
    <linearGradient id="linear-gradient-68" x1="136.64" y1="449.08" x2="150.85" y2="449.08" gradientTransform="matrix(1, 0, 0, 1, 0, 0)" xlink:href="#linear-gradient-8"/>
    <linearGradient id="linear-gradient-69" x1="257.39" y1="253.33" x2="272.76" y2="253.33" gradientTransform="matrix(1, 0.08, -0.08, 1, -125.81, 151.33)" xlink:href="#linear-gradient-48"/>
    <linearGradient id="linear-gradient-70" x1="263.95" y1="281.66" x2="273.58" y2="281.66" gradientTransform="matrix(1, 0.08, -0.08, 1, -125.81, 151.33)" xlink:href="#linear-gradient-8"/>
    <linearGradient id="linear-gradient-71" x1="141.06" y1="326.62" x2="111.36" y2="414.23" gradientTransform="matrix(1, 0, 0, 1, 0, 0)" xlink:href="#linear-gradient-31"/>
    <linearGradient id="linear-gradient-72" x1="132.81" y1="323.82" x2="103.11" y2="411.43" gradientTransform="matrix(1, 0, 0, 1, 0, 0)" xlink:href="#linear-gradient-31"/>
    <linearGradient id="linear-gradient-73" x1="113.63" y1="369.69" x2="133.09" y2="369.69" gradientTransform="matrix(1, 0, 0, 1, 0, 0)" xlink:href="#linear-gradient-7"/>
    <linearGradient id="linear-gradient-74" x1="128.63" y1="335.15" x2="131.87" y2="318.79" xlink:href="#linear-gradient-48"/>
    <linearGradient id="linear-gradient-75" x1="130.75" y1="412.03" x2="173.96" y2="407.02" gradientTransform="matrix(1, 0, 0, 1, 0, 0)" xlink:href="#linear-gradient-31"/>
    <linearGradient id="linear-gradient-76" x1="187.92" y1="445.74" x2="186.06" y2="468.9" gradientTransform="matrix(1, 0, 0, 1, 0, 0)" xlink:href="#linear-gradient-7"/>
    <linearGradient id="linear-gradient-77" x1="169.33" y1="451.5" x2="204.7" y2="451.5" gradientTransform="matrix(1, 0, 0, 1, 0, 0)" xlink:href="#linear-gradient-8"/>
    <linearGradient id="linear-gradient-78" x1="117.91" y1="406.35" x2="174.97" y2="406.35" gradientTransform="matrix(1, 0, 0, 1, 0, 0)" xlink:href="#linear-gradient-8"/>
    <linearGradient id="linear-gradient-79" x1="172.83" y1="430.41" x2="173.25" y2="464.33" gradientTransform="matrix(1, 0, 0, 1, 0, 0)" xlink:href="#linear-gradient-5"/>
    <linearGradient id="linear-gradient-80" x1="168.25" y1="463.96" x2="174.08" y2="440.23" gradientTransform="matrix(1, 0, 0, 1, 0, 0)" xlink:href="#linear-gradient-5"/>
    <linearGradient id="linear-gradient-81" x1="106.38" y1="346.19" x2="127.65" y2="346.19" xlink:href="#linear-gradient-48"/>
    <linearGradient id="linear-gradient-82" x1="137.04" y1="326.12" x2="139.44" y2="294.51" xlink:href="#linear-gradient-48"/>
    <linearGradient id="linear-gradient-83" x1="80.83" y1="311.74" x2="146.43" y2="311.74" gradientTransform="matrix(1, 0, 0, 1, 0, 0)" xlink:href="#linear-gradient-8"/>
    <linearGradient id="linear-gradient-84" x1="129.2" y1="305.96" x2="140.81" y2="305.96" gradientTransform="matrix(1, 0, 0, 1, 0, 0)" xlink:href="#linear-gradient-31"/>
    <linearGradient id="linear-gradient-85" x1="139.43" y1="302.51" x2="146.75" y2="302.51" gradientTransform="matrix(1, 0, 0, 1, 0, 0)" xlink:href="#linear-gradient-31"/>
    <linearGradient id="linear-gradient-86" x1="141.45" y1="290.82" x2="137.2" y2="304.61" gradientTransform="matrix(1, 0, 0, 1, 0, 0)" xlink:href="#linear-gradient-31"/>
    <linearGradient id="linear-gradient-87" x1="144.34" y1="291.71" x2="140.09" y2="305.5" gradientTransform="matrix(1, 0, 0, 1, 0, 0)" xlink:href="#linear-gradient-31"/>
    <linearGradient id="linear-gradient-88" x1="140.15" y1="297.28" x2="137.19" y2="312.48" gradientTransform="matrix(1, 0, 0, 1, 0, 0)" xlink:href="#linear-gradient-31"/>
  </defs>
  <title>general-cleaning</title>
  <g>
    <path class="cls-3" d="M344.15,454.55s-229.18,2.73-293-58.61-39.81-122.48,9.07-139.8,57.21-35.34,30.91-59.64-59.7-74.18-4.24-124.31S205.63,94.06,255.2,84.5,285.14,42.74,350.33,65,401.14,22.47,453.55,16.6,500.59,84,554.5,56.31s98-23.82,121.17,20.07,13.11,103-37.74,138.23-45.38,32.82-26.38,67.44,36,148.46-50.46,164.71S344.15,454.55,344.15,454.55Z"/>
    <path class="cls-4" d="M352.55,450.22S146.45,452.61,89,398.7,53.24,291,97.2,275.82s51.45-31.06,27.8-52.42-53.69-65.2-3.81-109.26S228,133.36,272.55,125s26.93-36.71,85.55-17.16,45.7-37.37,92.83-42.52,42.3,59.19,90.78,34.9,88.13-20.94,109,17.64,11.79,90.53-33.94,121.49S575.93,268.17,593,298.59s32.41,130.49-45.38,144.78S352.55,450.22,352.55,450.22Z"/>
    <g>
      <path class="cls-5" d="M315,363.88S375.19,183.81,474.55,91.56a11.5,11.5,0,0,1,19.17,6.37C504.48,157.92,519.25,338.26,315,363.88Z"/>
      <path class="cls-6" d="M334.44,353.67a.5.5,0,0,0,.58.82C354.85,342.34,432.81,280.9,471.51,148a.35.35,0,0,0-.66-.23C459,178.28,411.72,290.63,334.44,353.67Z"/>
    </g>
    <g>
      <path class="cls-7" d="M364.65,443.3s-29.48-123.71,77.71-167.82c67-27.57,94.63-54.91,105.95-71.54a7.65,7.65,0,0,1,13.74,2.49C574,254.22,583,381.83,364.65,443.3Z"/>
      <path class="cls-6" d="M526.22,267.14a.42.42,0,0,1,.77.34c-6.48,18.34-43.1,92.85-145.09,147.76a.29.29,0,0,1-.31-.5C404.52,399.71,488.16,341.38,526.22,267.14Z"/>
    </g>
    <g>
      <path class="cls-8" d="M227.18,453S165.59,341.56,88.83,292.8A7.71,7.71,0,0,0,77,299.33C77.16,340.21,89.35,461,227.18,453Z"/>
      <path class="cls-6" d="M213.14,448.65a.34.34,0,0,1-.29.61c-14.55-5.6-73.45-36.65-115.15-119.63a.23.23,0,0,1,.4-.23C109.63,348.11,154.49,416.47,213.14,448.65Z"/>
    </g>
    <g>
      <rect class="cls-9" x="421.45" y="195.46" width="65.57" height="259.7" rx="9.07"/>
      <circle class="cls-10" cx="455.47" cy="245.75" r="20.71" transform="translate(-17.94 454.87) rotate(-52.18)"/>
    </g>
    <g>
      <path class="cls-11" d="M358.32,439.24s101.11-77.42,191-91.31a7.71,7.71,0,0,1,8.25,10.75C541,396,481.4,501.78,358.32,439.24Z"/>
      <path class="cls-6" d="M372.94,440.86a.34.34,0,0,0,0,.67c15.58.71,82-4.11,153.47-63.41a.24.24,0,0,0-.28-.38C508.07,390.26,439.57,434.9,372.94,440.86Z"/>
    </g>
    <g>
      <g>
        <rect class="cls-12" x="583.71" y="377.2" width="16.64" height="20.47"/>
        <rect class="cls-13" x="583.92" y="397.68" width="5.5" height="45.8"/>
        <path class="cls-14" d="M565.71,441h41.75a3.29,3.29,0,0,1,3.29,3.29v.29a0,0,0,0,1,0,0H562.6a0,0,0,0,1,0,0v-.47A3.11,3.11,0,0,1,565.71,441Z"/>
        <rect class="cls-15" x="578.35" y="397.68" width="16.65" height="25.44"/>
        <rect class="cls-16" x="556.41" y="393.66" width="60.53" height="17.17" rx="5.91"/>
        <rect class="cls-17" x="566.16" y="324.84" width="53.78" height="56.63" rx="9.87"/>
        <path class="cls-18" d="M567.9,447.14a4.31,4.31,0,1,1-4.31-4.31A4.31,4.31,0,0,1,567.9,447.14Z"/>
        <circle class="cls-19" cx="575.21" cy="447.14" r="4.31"/>
        <circle class="cls-20" cx="586.82" cy="447.14" r="4.31"/>
        <path class="cls-21" d="M602.74,447.14a4.31,4.31,0,1,1-4.3-4.31A4.3,4.3,0,0,1,602.74,447.14Z"/>
        <path class="cls-22" d="M614.36,447.14a4.31,4.31,0,1,1-4.31-4.31A4.31,4.31,0,0,1,614.36,447.14Z"/>
      </g>
      <g>
        <g>
          <path class="cls-23" d="M451.39,455.16a1.82,1.82,0,0,1-.72-.15,1.77,1.77,0,0,1-.95-2.34l38.18-86.92a1.84,1.84,0,0,1,2.39-.93,1.76,1.76,0,0,1,.95,2.34l-38.18,86.92A1.84,1.84,0,0,1,451.39,455.16Z"/>
          <path class="cls-24" d="M494.4,455.16a1.84,1.84,0,0,1-1.67-1.08l-38.18-86.92a1.77,1.77,0,0,1,.95-2.34,1.84,1.84,0,0,1,2.39.93l38.18,86.92a1.76,1.76,0,0,1-.95,2.34A1.82,1.82,0,0,1,494.4,455.16Z"/>
          <path class="cls-25" d="M613.92,455.16a1.82,1.82,0,0,1-.72-.15,1.77,1.77,0,0,1-1-2.34l38.18-86.92a1.84,1.84,0,0,1,2.39-.93,1.77,1.77,0,0,1,1,2.34l-38.19,86.92A1.83,1.83,0,0,1,613.92,455.16Z"/>
          <path class="cls-26" d="M656.93,455.16a1.84,1.84,0,0,1-1.67-1.08l-38.18-86.92a1.77,1.77,0,0,1,.95-2.34,1.84,1.84,0,0,1,2.39.93l38.19,86.92a1.77,1.77,0,0,1-1,2.34A1.82,1.82,0,0,1,656.93,455.16Z"/>
        </g>
        <path class="cls-27" d="M661.26,362.5a1.44,1.44,0,0,0-.46-1.42,2.5,2.5,0,0,0-1.71-.63H435.17a2.79,2.79,0,0,0-2.15.91,1.61,1.61,0,0,0-.16,1.91l2.42,4.09a3.57,3.57,0,0,0,3.09,1.54H657.55a2.5,2.5,0,0,0,2.53-1.63Z"/>
      </g>
    </g>
    <g>
      <path class="cls-28" d="M226.65,448.51s24-183.21-23.64-306.26a11.2,11.2,0,0,0-19.5-2.59C148.55,187.58,58.83,339.12,226.65,448.51Z"/>
      <path class="cls-6" d="M214,431.31a.49.49,0,0,1-.86.47c-12.18-19.08-54.24-106-31.51-238.87a.34.34,0,0,1,.68.07C179.68,224.77,173.23,343.23,214,431.31Z"/>
    </g>
    <g>
      <rect class="cls-29" x="352.34" y="195.46" width="65.57" height="259.7" rx="9.07"/>
      <circle class="cls-30" cx="386.36" cy="245.75" r="20.71" transform="translate(13.06 510.91) rotate(-67.85)"/>
    </g>
    <g>
      <g class="cls-31">
        <polygon class="cls-32" points="407.23 90.94 407.23 95.97 560.84 147.91 560.84 39 407.23 90.94"/>
      </g>
      <g>
        <rect class="cls-33" x="274.8" y="171.8" width="46.23" height="15.65" transform="translate(595.83 359.24) rotate(180)"/>
        <path class="cls-34" d="M264.73,190.26c-50.13,64.46-94,180.23-56.21,257.34,3.14,6.41,11.46,10.66,20.72,10.66H372c9.61,0,18.12-4.58,21-11.32,6.73-15.6,17.45-45.82,18.08-81.19.46-26.25-13.23-51.57-38-70.41l-30-22.75c-4-3.08-6.29-7.21-6.23-11.49l.89-62.56a13.71,13.71,0,0,0-4.67-10.17h0c-4.18-4-10.6-6.26-17.4-6.26H283.86C276,182.11,268.65,185.21,264.73,190.26Z"/>
        <path class="cls-35" d="M269.4,179.62h57.08a4.77,4.77,0,0,0,4.77-5L330,150.72a4.78,4.78,0,0,0-4.77-4.53H270.92a4.78,4.78,0,0,0-4.77,4.48l-1.52,23.87A4.78,4.78,0,0,0,269.4,179.62Z"/>
        <path class="cls-36" d="M382.75,103.69c-.76,14.14-1.93,64.85,18.53,88.4a4.59,4.59,0,0,1,.09,6h0a4.58,4.58,0,0,1-6.27.72c-9.46-7.19-34.93-29.06-39.51-59.6a4.54,4.54,0,0,0-2.86-3.56l-30.82-11.89a4.57,4.57,0,0,1-1.15-7.88c10.47-8.07,33.29-22.32,58.39-16.87A4.56,4.56,0,0,1,382.75,103.69Z"/>
        <path class="cls-37" d="M387.27,74.35v38.77l24.23-3.85a6.06,6.06,0,0,0,5.11-5.76l.69-19.73A6,6,0,0,0,412,77.56Z"/>
        <path class="cls-38" d="M286.73,76l-38.4,29.71a17.37,17.37,0,0,0-6.53,11l-.89,5.61a17.38,17.38,0,0,0,14,19.82l21.79,4H321L327.82,126l42-10,17.43-2.84V74.35l-89.51-2A17.36,17.36,0,0,0,286.73,76Z"/>
        <path class="cls-39" d="M296.76,87.33l-10.25,45.41a8.08,8.08,0,0,1-9.16,6.21l-19.12-3a8.09,8.09,0,0,1-6.82-8v-6.19a8.11,8.11,0,0,1,3.15-6.41l39-30A2,2,0,0,1,296.76,87.33Z"/>
        <rect class="cls-40" x="270.39" y="150.28" width="3.2" height="25.61" rx="1.47"/>
        <rect class="cls-41" x="277.85" y="150.28" width="3.2" height="25.61" rx="1.47"/>
        <rect class="cls-42" x="285.32" y="150.28" width="3.2" height="25.61" rx="1.47"/>
        <rect class="cls-43" x="292.79" y="150.28" width="3.2" height="25.61" rx="1.47"/>
        <rect class="cls-44" x="300.26" y="150.28" width="3.2" height="25.61" rx="1.47"/>
        <rect class="cls-45" x="307.73" y="150.28" width="3.2" height="25.61" rx="1.47"/>
        <rect class="cls-46" x="315.2" y="150.28" width="3.2" height="25.61" rx="1.47"/>
        <rect class="cls-47" x="322.66" y="150.28" width="3.2" height="25.61" rx="1.47"/>
        <path class="cls-48" d="M244.3,300.56C236.48,321,225.41,358.45,227.64,403A23.42,23.42,0,0,0,251,425.19H353.17a23.44,23.44,0,0,0,23-18.93l8.51-43.38a23.41,23.41,0,0,0-8.61-23c-20-15.53-63.34-46-105.47-53.92A23.47,23.47,0,0,0,244.3,300.56Z"/>
      </g>
    </g>
    <g>
      <path class="cls-49" d="M516.4,242.69c.21-.1,1,2.54,2.58,2.74,1.79.24,2.94-2.91,5.33-5.65,4.55-5.24,12.65-7.95,15.49-5.65,2.09,1.69.68,5.53,2.75,6.46s4.05-2.26,6-1.45c2.25.94,3.24,6.87.81,9.36-3,3.05-10-.2-10.82,1.61-.68,1.58,4.73,3.86,4.52,7.27-.19,3.15-5.11,6.14-9.52,6.13-4.92,0-8.26-3.73-9.69-5.32s-2.4-3.7-4.52-8.08C517.07,245.49,516.18,242.79,516.4,242.69Z"/>
      <path class="cls-50" d="M475.4,218.71c3.75-1.18,9.87.4,8.42,4.27s4.48,6.44,1.57,7.34-4.83.21-8.74,3.65S457.64,224.28,475.4,218.71Z"/>
      <path class="cls-51" d="M511.32,318.12s11.6,25.29,17.69,35.76c0,0,1.21,6.6,0,8.67l-1,.46,4.81-.15s.43-8.86.1-9.36a1.26,1.26,0,0,0-1-.46s-2.06-16.34-8-19.83l-5.79-19.93Z"/>
      <path class="cls-52" d="M525.93,364.25c0,.12,3.75.06,5.8,0a1.62,1.62,0,0,0,1.56-1.28l1.54-8.11a1.45,1.45,0,0,0-1.11-1.69l-.86-.2a4.62,4.62,0,0,0-.84,3.28c.39,1.58.73,5.7-.25,6.17A14.34,14.34,0,0,1,528,363S526,363.2,525.93,364.25Z"/>
      <path class="cls-53" d="M500.32,364.4a.42.42,0,0,0,.22.79c3.42,0,11.08-.14,11.76-.43.88-.36-.32-3.52-1.58-4.59l-7,2.27Z"/>
      <path class="cls-54" d="M498.16,316.5s7.5,36.28,9.62,43.36l-5,3.15s2.51-.43,4.38-.57,3.58-2.27,3.58-2.27l-.6-1s-1.88-36.08-1.43-40.18Z"/>
      <path class="cls-55" d="M480.16,233.14s-1,17.93,15.34,27.09l-3.93,9s-14.78-8.94-14.23-33.31a2.84,2.84,0,0,0-.69-1.91l-3.14-3.64a5.61,5.61,0,0,1-1.2-5.05l.41-1.65a.86.86,0,0,1,1.26-.54l.33.19a5.75,5.75,0,0,1,2.37,2.63l1.54,3.45a3.31,3.31,0,0,0,3.31,1.95l1-.08Z"/>
      <path class="cls-56" d="M526.19,292.25s-2.08-15.69-17.72-20.95l1.93-8.41s14.27,5.32,17.79,26.53a2.48,2.48,0,0,0,.91,1.54l3.32,2.64a5,5,0,0,1,1.86,4.18l-.08,1.5a.76.76,0,0,1-1,.67l-.31-.11a5.11,5.11,0,0,1-2.49-1.9l-1.9-2.73a2.93,2.93,0,0,0-3.18-1.15l-.82.23Z"/>
      <path class="cls-57" d="M495.09,259a107.6,107.6,0,0,0,14.46,3,4,4,0,0,1,3.45,4.67l-2.95,16.64.3,3.44-12.17-.06s-3.43-7.95-6.13-11.92c-.78-1.14-.2-2.51.24-3.82l-.61-.41a1.65,1.65,0,0,1-.65-1.89l3-9.07A.9.9,0,0,1,495.09,259Z"/>
      <path class="cls-58" d="M497.2,284.89l.24,2.08s-3.44,10.3,1.72,34.35c0,0,11.17,3.17,20.36-4.41,0,0-2.59-22.7-3.3-23.76-3.53-5.27-5.87-6.41-5.87-6.41l-.11-2.28S500.42,286.24,497.2,284.89Z"/>
      <path class="cls-59" d="M502,260.68c-.05-.05,2.54-7.8,2.54-7.8l3.7.34,1.44,8.78S503.85,263.17,502,260.68Z"/>
      <path class="cls-60" d="M507.32,240.67c-.25.16-7.91,3.32-6.26,11.27a1.52,1.52,0,0,0,.85,1.07,12.92,12.92,0,0,0,6.44,1.06c4-.4,6.64-7.41,6.53-9.44S509.77,239.15,507.32,240.67Z"/>
      <path class="cls-61" d="M508.16,249.63s-3.93,2.41-.65,6.17,7.27.45,7.27-1.54,1.32-.66,2.65,0,4.63,1.47,4.63-4.63a9.42,9.42,0,0,0-2.65-6.63c-2-2.64-2-4-4.63-4.63s-4-2-6.62,2,0,3.31,2,5.29S508.16,249.63,508.16,249.63Z"/>
      <path class="cls-62" d="M516.39,239s-10.81,5.39-3.56,17.92l4.6-2.7S512.71,243.68,516.39,239Z"/>
      <path class="cls-63" d="M514.78,238.37s.66-2,2.65-.66.66,4-.67,4S514.78,238.37,514.78,238.37Z"/>
      <path class="cls-64" d="M516.76,239s0-3.31,5.3-3.31C522.06,235.72,524.05,239.69,516.76,239Z"/>
      <path class="cls-65" d="M516.76,231.75a6.23,6.23,0,0,0,0,7.28S520.74,237.71,516.76,231.75Z"/>
      <path class="cls-66" d="M497.2,284.89l.08,2.7s7.45,1.34,13.41-.64l-.55-3.56S501.17,285.55,497.2,284.89Z"/>
      <path class="cls-67" d="M494.07,309.26a3.21,3.21,0,0,0,2.12,2.82,24.49,24.49,0,0,0,4.68,1.11c4.64.66,2.65-26.45,2.65-26.45l-6.24.85S493.47,299,494.07,309.26Z"/>
      <path class="cls-68" d="M508.65,286.74s-1.78,9.26,1.67,10.31,3.28-1.84,3.55-2.49-4.22-7.82-4.22-7.82,3,7.94,1.67,8.43S508.65,286.74,508.65,286.74Z"/>
      <path class="cls-69" d="M510.35,286.74s7.09-.45,6.67,3.75-4,3.09-4,3.09l-4.41-6.84h1s2.72,5,4.48,4.88.93-1.88.93-1.88Z"/>
      <path class="cls-70" d="M523.14,244.28a17.63,17.63,0,0,1,4.85-4.5,12.05,12.05,0,0,1,3-1.42,5.16,5.16,0,0,1,3.36.07,7.9,7.9,0,0,1,2.7,2,31.81,31.81,0,0,0,2.3,2.34,4.55,4.55,0,0,0,2.9,1.19,4,4,0,0,0,2.88-1.24l.11.11a4.14,4.14,0,0,1-3,1.39,4.83,4.83,0,0,1-3.12-1.19,30.67,30.67,0,0,1-2.36-2.34,7.3,7.3,0,0,0-2.57-1.9,5,5,0,0,0-3.12-.07,12.1,12.1,0,0,0-3,1.35,18.89,18.89,0,0,0-4.92,4.3Z"/>
      <path class="cls-70" d="M523.46,245.13a7.84,7.84,0,0,1,1.92-1.89,9.28,9.28,0,0,1,2.47-1.15,8.7,8.7,0,0,1,5.43.14c1.79.61,3.12,1.91,4.52,2.91a7.62,7.62,0,0,0,2.27,1.16,4.17,4.17,0,0,0,2.52,0l.06.14a4.14,4.14,0,0,1-2.69.24,8,8,0,0,1-2.5-1.08c-1.53-1-2.83-2.18-4.44-2.71a8.89,8.89,0,0,0-5-.23,8.54,8.54,0,0,0-2.38.93,8.07,8.07,0,0,0-2,1.59Z"/>
      <path class="cls-70" d="M523.47,246.51a5.82,5.82,0,0,1,3.45-1.79,8.24,8.24,0,0,1,3.94.39,11.65,11.65,0,0,1,1.8.81c.58.32,1.11.69,1.62,1a5.71,5.71,0,0,0,3.34,1.32l0,.15a3.34,3.34,0,0,1-2,0,8.84,8.84,0,0,1-1.8-.79,19.6,19.6,0,0,0-3.32-1.63,8.92,8.92,0,0,0-3.54-.53,7,7,0,0,0-3.44,1.14Z"/>
    </g>
    <g>
      <path class="cls-71" d="M134.82,400.84s2.32,32.66,4.54,41.23a2.87,2.87,0,0,0,1,1.51l6.85,5.62s-6.59,1.34-9.74-.8l.36-3.89a2.94,2.94,0,0,0-.52-2c-2.85-4.06-14.21-21.89-8-40.33Z"/>
      <path class="cls-72" d="M137.33,446.23a13.61,13.61,0,0,0-.69,3.27.92.92,0,0,0,.71.94c2.14.49,8.6,1.87,13.11,1.39a.43.43,0,0,0,.2-.78l-5-3.35.64.64a.44.44,0,0,1-.35.75C143.45,448.83,137.94,448,137.33,446.23Z"/>
      <path class="cls-73" d="M121.09,397.7s-5,29.36-2.61,47.87l3.7,8.07s-4.12,3.34-8.54.24l2.13-8.24s-6.36-21.41-5.87-28.78a29.71,29.71,0,0,1,4.22-13l-.85-6.25Z"/>
      <path class="cls-74" d="M113.88,452.93a10.32,10.32,0,0,0,8,.11l-.57-1.25s1.44,1,1.47,4.15a5.74,5.74,0,0,1-4.22,2.16,8.33,8.33,0,0,1-5.11-2.39,4.9,4.9,0,0,1,.6-3.95Z"/>
      <path class="cls-75" d="M127.85,358.43l8.4,43.09s-13.32,4.61-23.07,1.69c0,0-7.83-24.2-6.8-33.6a16.6,16.6,0,0,1,8.26-12.94Z"/>
      <path class="cls-76" d="M121.05,323.34c2.53.24,10.06,1,16.32,2.09A2.08,2.08,0,0,1,139,328l-.11.41a2.08,2.08,0,0,0,0,.86c.32,2,1.67,10.6,1.39,12.67s-9.62,13.21-11.9,15.9a2.06,2.06,0,0,1-1.3.71c-2,.26-7.12.74-10.83-.95a2.06,2.06,0,0,1-1.12-2.46c1.19-4,4.24-14.9,3.51-17.95s-.87-9.83.38-12.67A2,2,0,0,1,121.05,323.34Z"/>
      <path class="cls-77" d="M115.1,355.14l-1.47,2.05a9.65,9.65,0,0,0,6,3s-6.25,9.74-3.57,20.2a2.34,2.34,0,0,0,1.13,1.48,20.16,20.16,0,0,0,15,1.64,1.25,1.25,0,0,0,.9-1.48l-5.21-23.59,1.31-1.55A38.51,38.51,0,0,1,115.1,355.14Z"/>
      <path class="cls-78" d="M133.88,312.74l-9.11,11.78s5,4,10.63,1.24l2.88-9.24Z"/>
      <path class="cls-79" d="M135.34,374.7s-10,5.56-1.16,33c9.92,30.86,26.48,35.84,37.37,36.36Z"/>
      <path class="cls-80" d="M169.33,455.88H204.7a0,0,0,0,1,0,0v2a1.81,1.81,0,0,1-1.81,1.81H171.14a1.81,1.81,0,0,1-1.81-1.81v-2A0,0,0,0,1,169.33,455.88Z"/>
      <path class="cls-81" d="M204.7,455.88H169.33l.55-3a7,7,0,0,1,6.91-5.76h20.89a7,7,0,0,1,7,7Z"/>
      <path class="cls-82" d="M135.77,368.16,175,445.39l-4.18,2.07-37.32-76.58a3.37,3.37,0,0,0-2.7-1.89L119,367.75a1.25,1.25,0,0,1-1.09-1.49h0a1.24,1.24,0,0,1,1.32-1L133,366.31A3.4,3.4,0,0,1,135.77,368.16Z"/>
      <path class="cls-83" d="M179,444.61a6,6,0,1,1-6-6A6,6,0,0,1,179,444.61Z"/>
      <path class="cls-84" d="M177,444.61a3.95,3.95,0,1,1-3.95-3.95A3.95,3.95,0,0,1,177,444.61Z"/>
      <path class="cls-85" d="M119.65,323.72s-29.6,22-.4,41.54a3.73,3.73,0,0,0,3.82,3.1c3.49.18,4.58.3,4.58.3s.22-5-4.09-4.19l-2.28-.22s-16.8-15.1,0-31C121.28,333.24,122.34,327.2,119.65,323.72Z"/>
      <path class="cls-86" d="M145,308.42s-1.43,12.06-5.3,12.28-7.29-3.44-7.93-8,.4-10.35,6.84-9.85S145,308.42,145,308.42Z"/>
      <path class="cls-87" d="M133.73,315.46c1.15,5.59-4.35,12.56-10.85,15.15-1.45.57-7.89,2.9-13.1-.21-5.47-3.26-4.17-9.3-9.21-11.46-4.57-2-7.49,2.21-11.66.62-6.15-2.36-11.83-16-4.91-23.74,6.22-6.94,18.69-4.6,22.71.61,2.38,3.08,1.59,6.87,3.89,7.78s4.27-2.61,9.21-5.73c1.88-1.19,10-6.34,17.4-3.89,5.43,1.81,10.33,7.74,9,11.46-1,2.9-5.71,4.06-8.8,4.09-5.67.06-4.4-.8-4.8-.23S132.71,310.53,133.73,315.46Z"/>
      <path class="cls-88" d="M132,312.24s-2.34-10.82,8.77-11.58c0,0-6.6-3.35-10.29,2.34A6.51,6.51,0,0,0,132,312.24Z"/>
      <path class="cls-89" d="M139.43,300.59s6.64,1.22,6.94,4.54c0,0,1-1.95-.3-3.32C142.73,298.38,139.43,300.59,139.43,300.59Z"/>
      <path class="cls-90" d="M139,301.42s-2.58-2.42.52-5.6S139,301.42,139,301.42Z"/>
      <path class="cls-91" d="M139.75,301.49a4.69,4.69,0,0,1,2.83-4.75C145.87,295.2,145,299.91,139.75,301.49Z"/>
      <path class="cls-92" d="M139.2,299.75s2-1.35,1.88.21-1.31,2.91-2.13,2.46S137.31,299.53,139.2,299.75Z"/>
      <path class="cls-93" d="M85.93,300a9.92,9.92,0,0,0,.78,8.49,9.68,9.68,0,0,0,7.1,4.51,31.46,31.46,0,0,0,4.44-.06,11.18,11.18,0,0,1,4.57.46,5.83,5.83,0,0,1,2,1.25,7.84,7.84,0,0,1,1.39,1.87c.75,1.34,1.25,2.76,2,4a14.85,14.85,0,0,0,6.29,6,12.53,12.53,0,0,0,8.58.91,11.17,11.17,0,0,0,7-5,10.61,10.61,0,0,0,1.11-8.55l.14-.05a10.78,10.78,0,0,1-1,8.76,11,11,0,0,1-3,3.39,12.07,12.07,0,0,1-4.12,1.93,13,13,0,0,1-8.93-.86,15.12,15.12,0,0,1-6.58-6.16c-.77-1.33-1.27-2.76-2-4a7.59,7.59,0,0,0-1.29-1.72,5.24,5.24,0,0,0-1.78-1.11,10.85,10.85,0,0,0-4.31-.4,27.46,27.46,0,0,1-4.54.05,10,10,0,0,1-7.48-4.89,9.84,9.84,0,0,1-.47-8.82Z"/>
      <path class="cls-93" d="M90.16,309a9.89,9.89,0,0,0,3.12.75,29.07,29.07,0,0,0,3.24.11,30.28,30.28,0,0,1,3.29.14,10.42,10.42,0,0,1,3.26.86,12.88,12.88,0,0,1,4.79,4.59,41.25,41.25,0,0,0,3.83,5.22A13.1,13.1,0,0,0,117,324a10.71,10.71,0,0,0,6.29.18,9.74,9.74,0,0,0,5.08-3.69,8.39,8.39,0,0,0,1.57-6.09l.15,0a8.6,8.6,0,0,1-1.45,6.31,9.79,9.79,0,0,1-5.22,3.95,11.14,11.14,0,0,1-6.59-.08,13.38,13.38,0,0,1-5.64-3.46,43.7,43.7,0,0,1-3.92-5.28,12.32,12.32,0,0,0-4.54-4.34c-1.89-.93-4.1-1-6.26-1.06a30.6,30.6,0,0,1-3.29-.27,9.59,9.59,0,0,1-3.13-1Z"/>
      <path class="cls-93" d="M111.23,316.37a5.31,5.31,0,0,0,2,2.2,11.39,11.39,0,0,0,2.74,1.27,11.2,11.2,0,0,0,5.93.59,8.29,8.29,0,0,0,4.88-3.25,9.58,9.58,0,0,0,1.74-5.7h.16a9.8,9.8,0,0,1-.26,3.1,9.41,9.41,0,0,1-1.29,2.85,8.57,8.57,0,0,1-5.12,3.49,8.35,8.35,0,0,1-3.15.09,17.29,17.29,0,0,1-3-.78,10.93,10.93,0,0,1-2.8-1.39,5.66,5.66,0,0,1-2-2.4Z"/>
    </g>
    <path class="cls-94" d="M597.48,146.62l-.11,0-1.73-.65a.33.33,0,0,1-.18-.4.32.32,0,0,1,.4-.18l1.72.65a.31.31,0,0,1,.18.4A.3.3,0,0,1,597.48,146.62Zm-5.75-2.16a.2.2,0,0,1-.11,0l-1.73-.64a.3.3,0,0,1-.18-.39.31.31,0,0,1,.4-.18l1.72.64a.3.3,0,0,1,.18.39A.29.29,0,0,1,591.73,144.46ZM586,142.33a.22.22,0,0,1-.11,0l-1.73-.63a.31.31,0,0,1-.18-.4.32.32,0,0,1,.4-.18l1.72.64a.3.3,0,0,1,.19.39A.31.31,0,0,1,586,142.33Zm-5.77-2.11h-.1l-1.73-.63a.3.3,0,0,1-.19-.39.31.31,0,0,1,.39-.19l1.74.63a.3.3,0,0,1,.18.39A.29.29,0,0,1,580.2,140.22Zm-5.77-2.08a.22.22,0,0,1-.11,0l-1.73-.62a.3.3,0,1,1,.21-.57l1.73.62a.31.31,0,0,1,.19.39A.32.32,0,0,1,574.43,138.14Zm-5.79-2.06a.18.18,0,0,1-.1,0l-1.74-.61a.3.3,0,0,1-.18-.39.31.31,0,0,1,.39-.19l1.74.62a.3.3,0,0,1,.18.39A.3.3,0,0,1,568.64,136.08Zm-5.79-2-.1,0-1.74-.61a.31.31,0,0,1-.19-.39.31.31,0,0,1,.39-.19l1.74.61a.3.3,0,0,1,.19.39A.3.3,0,0,1,562.85,134.05Zm-5.8-2-.1,0-1.74-.6A.3.3,0,0,1,555,131a.31.31,0,0,1,.39-.19l1.74.6a.31.31,0,0,1-.1.6Zm-5.81-2-.1,0-1.74-.59a.31.31,0,0,1,.19-.58l1.75.59a.3.3,0,0,1,.19.39A.3.3,0,0,1,551.24,130.05Zm-5.82-2-.09,0-1.75-.58a.31.31,0,0,1,.19-.59l1.75.59a.3.3,0,0,1,.19.39A.31.31,0,0,1,545.42,128.09Zm-5.82-1.94-.1,0-1.75-.58a.29.29,0,0,1-.19-.38.3.3,0,0,1,.38-.2l1.75.58a.3.3,0,0,1,.2.39A.31.31,0,0,1,539.6,126.15Zm-5.84-1.92h-.09l-1.75-.57a.32.32,0,0,1-.2-.39.31.31,0,0,1,.39-.2l1.75.57a.31.31,0,0,1-.1.6Zm-5.84-1.89h-.09l-1.75-.57a.3.3,0,0,1-.2-.38.3.3,0,0,1,.38-.2l1.76.56a.31.31,0,0,1,.2.39A.32.32,0,0,1,527.92,122.34Zm-5.85-1.87H522l-1.75-.56a.29.29,0,0,1-.2-.38.3.3,0,0,1,.38-.2l1.76.55a.32.32,0,0,1,.2.39A.31.31,0,0,1,522.07,120.47Zm-5.85-1.84h-.09l-1.76-.55a.31.31,0,0,1,.18-.59l1.76.55a.31.31,0,0,1,.2.39A.3.3,0,0,1,516.22,118.63Zm-5.87-1.82h-.09l-1.76-.54a.31.31,0,0,1,.18-.59l1.76.54a.31.31,0,0,1,.21.39A.3.3,0,0,1,510.35,116.81ZM504.48,115h-.09l-1.76-.54a.3.3,0,0,1-.2-.38.3.3,0,0,1,.38-.2l1.76.53a.32.32,0,0,1,.21.38A.32.32,0,0,1,504.48,115Zm-5.88-1.77h-.08l-1.77-.53a.31.31,0,1,1,.18-.59l1.76.53a.31.31,0,0,1-.09.6Zm-5.88-1.74-.09,0-1.77-.52a.31.31,0,0,1-.21-.38.32.32,0,0,1,.39-.21l1.76.52a.3.3,0,0,1,.21.38A.31.31,0,0,1,492.72,111.51Zm-5.9-1.73h-.08l-1.77-.51a.31.31,0,1,1,.17-.59l1.77.51a.31.31,0,0,1,.21.38A.3.3,0,0,1,486.82,109.78Zm-5.9-1.69h-.08l-1.77-.51a.29.29,0,0,1-.21-.38.3.3,0,0,1,.38-.21l1.77.51a.3.3,0,0,1,.21.37A.31.31,0,0,1,480.92,108.09Zm-5.9-1.67-.09,0-1.77-.49a.31.31,0,0,1-.21-.38.29.29,0,0,1,.37-.21l1.78.49a.31.31,0,0,1-.08.61Zm-5.92-1.65H469l-1.78-.49a.31.31,0,0,1-.21-.38.3.3,0,0,1,.38-.21l1.77.49a.3.3,0,0,1,.22.37A.31.31,0,0,1,469.1,104.77Zm-5.92-1.62-.08,0-1.78-.48a.31.31,0,0,1,.16-.59l1.78.48a.32.32,0,0,1,.22.38A.32.32,0,0,1,463.18,103.15Zm-5.93-1.6h-.08l-1.78-.48a.31.31,0,0,1,.16-.59l1.78.47a.32.32,0,0,1,.22.38A.31.31,0,0,1,457.25,101.55ZM451.32,100h-.08l-1.78-.46a.32.32,0,0,1-.22-.38.31.31,0,0,1,.37-.22l1.79.47a.29.29,0,0,1,.21.37A.3.3,0,0,1,451.32,100Zm-5.94-1.55h-.08L443.52,98a.29.29,0,0,1-.22-.37.31.31,0,0,1,.37-.22l1.78.46a.29.29,0,0,1,.22.37A.3.3,0,0,1,445.38,98.42Z"/>
    <path class="cls-94" d="M625.86,119.47h0l-1.83-.23a.31.31,0,0,1,.08-.61l1.83.23a.31.31,0,0,1,0,.61Zm-6.09-.77h0l-1.83-.23a.31.31,0,0,1-.26-.35.29.29,0,0,1,.34-.26l1.83.23a.31.31,0,0,1,0,.62Zm-6.09-.8h0l-1.83-.24a.32.32,0,0,1-.26-.35.31.31,0,0,1,.35-.26l1.82.24a.3.3,0,0,1,.26.34A.3.3,0,0,1,613.68,117.9Zm-6.08-.81h-.05l-1.82-.25a.3.3,0,0,1-.26-.35.3.3,0,0,1,.34-.26l1.83.25a.31.31,0,0,1,0,.61Zm-6.09-.83h0l-1.82-.26a.3.3,0,1,1,.08-.6l1.82.25a.31.31,0,0,1,.27.34A.32.32,0,0,1,601.51,116.26Zm-6.08-.85h0l-1.83-.26a.31.31,0,0,1-.26-.34.31.31,0,0,1,.35-.26l1.82.25a.31.31,0,0,1,.26.35A.3.3,0,0,1,595.43,115.41Zm-6.08-.86h0l-1.82-.27a.3.3,0,1,1,.08-.6l1.83.26a.31.31,0,0,1,.26.35A.32.32,0,0,1,589.35,114.55Zm-6.07-.88h0l-1.82-.27a.31.31,0,0,1-.26-.35.3.3,0,0,1,.35-.26l1.82.27a.31.31,0,0,1,.26.35A.3.3,0,0,1,583.28,113.67Zm-6.08-.9h0l-1.82-.27a.31.31,0,0,1-.26-.35.31.31,0,0,1,.35-.26l1.82.27a.31.31,0,0,1,.26.35A.32.32,0,0,1,577.2,112.77Zm-6.07-.91h0l-1.83-.27a.31.31,0,0,1-.25-.35.3.3,0,0,1,.35-.26l1.82.28a.31.31,0,0,1,0,.61Zm-6.07-.93h0l-1.82-.28a.31.31,0,0,1-.26-.35.31.31,0,0,1,.35-.26l1.82.28a.31.31,0,0,1-.05.62ZM559,110h0l-1.82-.28a.32.32,0,0,1-.26-.36.32.32,0,0,1,.36-.25l1.82.29a.31.31,0,0,1,0,.61Zm-6.07-1h0l-1.82-.3a.31.31,0,0,1-.26-.35.3.3,0,0,1,.35-.25l1.82.29a.31.31,0,0,1-.05.61Zm-6.06-1h0l-1.81-.29a.32.32,0,0,1-.26-.36.32.32,0,0,1,.36-.25l1.81.3a.31.31,0,0,1,.26.35A.32.32,0,0,1,546.87,108Zm-6-1h-.05l-1.82-.3a.3.3,0,0,1-.25-.35.31.31,0,0,1,.35-.26l1.82.31a.31.31,0,0,1,.25.35A.32.32,0,0,1,540.82,107Zm-6.06-1h0l-1.82-.31a.32.32,0,0,1-.25-.36.32.32,0,0,1,.36-.25l1.81.31a.31.31,0,0,1,0,.61Zm-6-1h-.05l-1.82-.31a.31.31,0,1,1,.11-.61l1.81.32a.3.3,0,0,1,.25.35A.3.3,0,0,1,528.71,105Zm-6.05-1h0l-1.82-.32a.31.31,0,1,1,.11-.6l1.81.32a.31.31,0,0,1-.05.61Zm-6-1.07h-.05l-1.81-.32a.31.31,0,0,1-.25-.36.32.32,0,0,1,.36-.25l1.81.33a.31.31,0,0,1,.25.35A.32.32,0,0,1,516.61,102.86Zm-6-1.09h-.05l-1.82-.33a.31.31,0,0,1-.24-.36.3.3,0,0,1,.35-.25l1.82.33a.31.31,0,0,1,.24.36A.29.29,0,0,1,510.57,101.77Zm-6-1.1h0l-1.82-.33a.31.31,0,0,1-.24-.36.3.3,0,0,1,.36-.24l1.81.33a.31.31,0,0,1,.24.36A.29.29,0,0,1,504.53,100.67Zm-6-1.12h-.06l-1.81-.34a.32.32,0,0,1-.25-.36.31.31,0,0,1,.36-.25l1.81.34a.31.31,0,0,1-.05.61Zm-6-1.14h-.06l-1.81-.34a.32.32,0,0,1-.24-.36.31.31,0,0,1,.36-.25l1.81.35a.3.3,0,0,1,.24.36A.29.29,0,0,1,492.46,98.41Zm-6-1.15h-.06l-1.81-.35a.32.32,0,0,1-.24-.36.31.31,0,0,1,.36-.25l1.81.35a.31.31,0,0,1,.24.36A.3.3,0,0,1,486.43,97.26Zm-6-1.17h0l-1.81-.36a.31.31,0,0,1,.12-.6l1.8.35a.32.32,0,0,1,.25.36A.31.31,0,0,1,480.4,96.09Zm-6-1.19h-.06l-1.81-.36a.31.31,0,0,1-.24-.36.3.3,0,0,1,.36-.24l1.81.36a.3.3,0,0,1,.24.36A.31.31,0,0,1,474.38,94.9Zm-6-1.2h-.06l-1.81-.36a.31.31,0,0,1-.24-.36.31.31,0,0,1,.37-.24l1.8.36a.3.3,0,0,1,.24.36A.31.31,0,0,1,468.36,93.7Z"/>
    <path class="cls-94" d="M649,90.44h0l-1.14-.11a.3.3,0,0,1-.28-.33.31.31,0,0,1,.33-.28l1.14.11a.31.31,0,0,1,.28.33A.3.3,0,0,1,649,90.44ZM643.56,90h0l-1.84-.16a.31.31,0,0,1-.28-.33.31.31,0,0,1,.34-.28l1.83.16a.3.3,0,0,1,.28.33A.31.31,0,0,1,643.56,90Zm-6.11-.52h0l-1.83-.15a.31.31,0,1,1,0-.61l1.83.15a.31.31,0,0,1,0,.61Zm-6.12-.49h0l-1.83-.14a.31.31,0,0,1-.29-.33.3.3,0,0,1,.33-.28l1.84.14a.31.31,0,0,1,0,.61Zm-6.13-.45h0l-1.83-.13a.31.31,0,0,1-.29-.33.3.3,0,0,1,.33-.28l1.84.13a.31.31,0,0,1,0,.61Zm-6.12-.42h0L617.22,88a.3.3,0,0,1-.29-.32.31.31,0,0,1,.33-.29l1.84.12a.31.31,0,0,1,0,.61ZM613,87.69h0l-1.84-.11a.3.3,0,0,1-.28-.32.3.3,0,0,1,.32-.29l1.84.11a.3.3,0,0,1,.29.32A.31.31,0,0,1,613,87.69Zm-6.13-.35h0L605,87.25a.33.33,0,0,1-.3-.33.32.32,0,0,1,.33-.29l1.84.1a.31.31,0,0,1,0,.61ZM600.69,87h0L598.84,87a.32.32,0,0,1-.3-.32.31.31,0,0,1,.32-.3l1.84.09a.32.32,0,0,1,.3.32A.31.31,0,0,1,600.69,87Zm-100-.14a.31.31,0,1,1,0-.61l1.84-.08a.3.3,0,0,1,.32.29.32.32,0,0,1-.3.32l-1.84.08Zm93.91-.13h0l-1.84-.08a.3.3,0,0,1-.29-.32.29.29,0,0,1,.32-.29l1.84.07a.31.31,0,0,1,0,.62Zm-87.78-.13a.31.31,0,0,1,0-.61l1.84-.07a.3.3,0,0,1,.32.29.3.3,0,0,1-.29.32l-1.84.07Zm81.64-.12h0l-1.84-.06a.32.32,0,0,1-.3-.32.3.3,0,0,1,.32-.29l1.84.06a.32.32,0,0,1,.3.32A.31.31,0,0,1,588.42,86.51Zm-75.5-.1a.31.31,0,0,1-.31-.3.32.32,0,0,1,.3-.32l1.84-.06a.32.32,0,0,1,.32.3.32.32,0,0,1-.3.32l-1.84.06Zm69.36-.1h0l-1.85-.06a.3.3,0,0,1-.29-.31.33.33,0,0,1,.31-.3l1.84,0a.31.31,0,0,1,.3.32A.3.3,0,0,1,582.28,86.31Zm-63.22-.09a.3.3,0,0,1-.31-.3.31.31,0,0,1,.3-.32l1.84,0a.32.32,0,0,1,.31.3.3.3,0,0,1-.29.32l-1.84,0Zm57.09-.08h0l-1.84,0a.3.3,0,0,1-.3-.31.3.3,0,0,1,.31-.3l1.85,0a.31.31,0,0,1,0,.62Zm-51-.08a.3.3,0,0,1-.3-.3.3.3,0,0,1,.3-.31l1.84,0a.31.31,0,1,1,0,.61l-1.84,0ZM570,86h0l-1.84,0a.32.32,0,0,1-.3-.32.3.3,0,0,1,.31-.3l1.85,0a.3.3,0,0,1,.3.31A.31.31,0,0,1,570,86Zm-38.68-.06a.3.3,0,0,1-.3-.3.3.3,0,0,1,.3-.31l1.84,0a.3.3,0,0,1,.31.3.32.32,0,0,1-.3.32l-1.84,0Zm32.54,0h0l-1.84,0a.31.31,0,0,1-.31-.31.3.3,0,0,1,.31-.3l1.85,0a.33.33,0,0,1,.3.32A.31.31,0,0,1,563.87,85.9Zm-26.4,0a.31.31,0,1,1,0-.61l1.84,0h0a.31.31,0,0,1,0,.61l-1.85,0Zm20.26,0h-1.84a.31.31,0,0,1-.31-.31.34.34,0,0,1,.31-.31l1.84,0a.31.31,0,0,1,.31.31A.3.3,0,0,1,557.73,85.83Zm-14.12,0a.31.31,0,1,1,0-.61h1.84a.31.31,0,1,1,0,.61Zm8,0h-1.84a.31.31,0,0,1,0-.62h1.84a.3.3,0,0,1,.31.3A.31.31,0,0,1,551.59,85.8Z"/>
    <g>
      <path class="cls-94" d="M179.81,422.38l-.73-1.7a.32.32,0,0,1,.16-.42.31.31,0,0,1,.41.17h0l.71,1.69h0a.31.31,0,0,1-.17.4A.32.32,0,0,1,179.81,422.38Z"/>
      <path class="cls-94" d="M177.63,416.6l-.51-1.78a.34.34,0,1,1,.65-.19h0v0l.49,1.76h0a.34.34,0,0,1-.24.41A.32.32,0,0,1,177.63,416.6Z"/>
      <path class="cls-94" d="M176.19,410.59l-.29-1.83a.37.37,0,0,1,.31-.42.37.37,0,0,1,.41.31h0l.26,1.81h0a.37.37,0,0,1-.31.41A.36.36,0,0,1,176.19,410.59Z"/>
      <path class="cls-94" d="M175.48,404.45l-.08-1.85a.39.39,0,1,1,.78,0h0l.06,1.83h0a.38.38,0,1,1-.76,0Z"/>
      <path class="cls-94" d="M175.46,398.27l.12-1.85A.42.42,0,0,1,176,396a.43.43,0,0,1,.39.45h0l-.14,1.83h0a.42.42,0,0,1-.44.38A.41.41,0,0,1,175.46,398.27Z"/>
      <path class="cls-94" d="M176.08,392.12l.31-1.82a.43.43,0,0,1,.5-.37.45.45,0,0,1,.37.51h0v0l-.31,1.8h0a.43.43,0,0,1-.5.35A.43.43,0,0,1,176.08,392.12Z"/>
      <path class="cls-94" d="M177.31,386.06l.48-1.79a.47.47,0,1,1,.9.24h0v0l-.49,1.76h0a.46.46,0,1,1-.88-.24Z"/>
      <path class="cls-94" d="M179.11,380.15l.64-1.74a.49.49,0,1,1,.92.34h0l-.65,1.71v0a.48.48,0,1,1-.9-.34Z"/>
      <path class="cls-94" d="M181.45,374.42l.81-1.67a.51.51,0,0,1,.91.44h0l-.8,1.65h0a.5.5,0,0,1-.9-.44Z"/>
      <path class="cls-94" d="M184.31,368.94l.95-1.59a.52.52,0,0,1,.7-.18.5.5,0,0,1,.18.7h0l-.93,1.58h0a.51.51,0,0,1-.7.17A.51.51,0,0,1,184.31,368.94Z"/>
      <path class="cls-94" d="M187.62,363.72l1.06-1.51a.52.52,0,0,1,.86.6h0l-1.06,1.49h0a.52.52,0,0,1-.84-.6Z"/>
      <path class="cls-94" d="M191.31,358.77l1.17-1.44a.55.55,0,0,1,.75-.07.54.54,0,0,1,.07.75h0l-1.16,1.41h0a.53.53,0,0,1-.74.07A.52.52,0,0,1,191.31,358.77Z"/>
      <path class="cls-94" d="M195.33,354.09l1.27-1.35a.54.54,0,0,1,.79.73h0l-1.26,1.33h0a.52.52,0,0,1-.75,0A.53.53,0,0,1,195.33,354.09Z"/>
      <path class="cls-94" d="M199.65,349.68l1.35-1.27a.54.54,0,0,1,.77,0,.55.55,0,0,1,0,.78h0l-1.33,1.26h0a.54.54,0,1,1-.75-.79Z"/>
      <path class="cls-94" d="M204.22,345.53l1.41-1.19a.56.56,0,0,1,.79.07.56.56,0,0,1-.07.78h0l-1.4,1.18h0a.55.55,0,1,1-.71-.85Z"/>
      <path class="cls-94" d="M209,341.64l1.47-1.12a.57.57,0,1,1,.69.9h0l-1.46,1.11h0a.56.56,0,1,1-.68-.89Z"/>
      <path class="cls-94" d="M214,338l1.52-1.05a.57.57,0,1,1,.65.94h0l-1.51,1h0a.58.58,0,0,1-.8-.15A.57.57,0,0,1,214,338Z"/>
      <path class="cls-94" d="M219.09,334.55l1.56-1a.58.58,0,0,1,.8.18.6.6,0,0,1-.18.81h0l-1.55,1h0a.58.58,0,1,1-.62-1Z"/>
      <path class="cls-94" d="M224.34,331.33l1.6-.93a.58.58,0,0,1,.8.21.59.59,0,0,1-.21.81h0l-1.59.91h0a.6.6,0,0,1-.81-.22A.59.59,0,0,1,224.34,331.33Z"/>
      <path class="cls-94" d="M229.71,328.3l1.63-.86a.6.6,0,0,1,.81.24.61.61,0,0,1-.25.82h0l-1.62.86h0a.6.6,0,0,1-.81-.25A.59.59,0,0,1,229.71,328.3Z"/>
      <path class="cls-94" d="M235.18,325.48l1.67-.8a.61.61,0,1,1,.53,1.09h0l-1.65.8h0a.61.61,0,0,1-.81-.28A.61.61,0,0,1,235.18,325.48Z"/>
      <path class="cls-94" d="M240.76,322.86l1.69-.74a.61.61,0,0,1,.81.31.62.62,0,0,1-.31.82h0l-1.68.74h0a.62.62,0,1,1-.49-1.13Z"/>
      <path class="cls-94" d="M246.42,320.44l1.72-.68a.62.62,0,0,1,.81.34.63.63,0,0,1-.35.82h0l-1.71.68h0a.61.61,0,0,1-.8-.35A.62.62,0,0,1,246.42,320.44Z"/>
      <path class="cls-94" d="M252.17,318.22l1.73-.63a.63.63,0,1,1,.43,1.19h0l-1.73.63h0a.63.63,0,0,1-.42-1.19Z"/>
      <path class="cls-94" d="M258,316.19l1.75-.58a.66.66,0,0,1,.82.42.65.65,0,0,1-.42.81h0l-1.75.56h0a.64.64,0,0,1-.39-1.21Z"/>
      <path class="cls-94" d="M263.85,314.34l1.78-.52a.65.65,0,0,1,.36,1.25h0l-1.76.51h0a.65.65,0,0,1-.36-1.25Z"/>
      <path class="cls-94" d="M269.78,312.68l1.79-.47a.66.66,0,0,1,.33,1.28h0l-1.77.46h0a.66.66,0,0,1-.33-1.27Z"/>
      <path class="cls-94" d="M275.75,311.19l1.81-.41a.66.66,0,0,1,.8.5.67.67,0,0,1-.51.8h0l-1.79.41h0a.67.67,0,1,1-.3-1.3Z"/>
      <path class="cls-94" d="M281.77,309.87l1.81-.36a.67.67,0,0,1,.8.53.69.69,0,0,1-.53.8h0l-1.8.35h0a.68.68,0,0,1-.79-.54A.67.67,0,0,1,281.77,309.87Z"/>
      <path class="cls-94" d="M287.82,308.72l1.82-.32a.68.68,0,0,1,.79.56.69.69,0,0,1-.56.79h0l-1.81.31h0a.67.67,0,0,1-.79-.56A.66.66,0,0,1,287.82,308.72Z"/>
      <path class="cls-94" d="M293.89,307.72l1.83-.26a.68.68,0,0,1,.2,1.35h0l-1.82.27h0a.69.69,0,0,1-.78-.58.7.7,0,0,1,.58-.78Z"/>
      <path class="cls-94" d="M300,306.88l1.83-.22a.68.68,0,0,1,.76.6.67.67,0,0,1-.59.75h0l-1.82.22h0a.68.68,0,0,1-.76-.59.69.69,0,0,1,.6-.77Z"/>
      <path class="cls-94" d="M306.1,306.19l1.84-.18a.68.68,0,1,1,.13,1.35h0l-1.83.18h0a.68.68,0,0,1-.75-.61.69.69,0,0,1,.61-.74Z"/>
      <path class="cls-94" d="M312.23,305.63l1.84-.14a.68.68,0,0,1,.73.62.67.67,0,0,1-.62.72h0l-1.83.15h0a.68.68,0,1,1-.11-1.35Z"/>
      <path class="cls-94" d="M318.37,305.2l1.84-.1a.67.67,0,0,1,.08,1.34h0l-1.84.1h0a.67.67,0,0,1-.08-1.34Z"/>
      <path class="cls-94" d="M324.52,304.89l1.84-.07a.67.67,0,0,1,.69.65.66.66,0,0,1-.64.69h0l-1.83.07h0a.67.67,0,0,1-.7-.64.68.68,0,0,1,.64-.7Z"/>
      <path class="cls-94" d="M330.66,304.7l1.85,0a.66.66,0,0,1,.68.65.68.68,0,0,1-.66.68h0l-1.84,0h0a.67.67,0,0,1,0-1.34Z"/>
      <path class="cls-94" d="M336.81,304.62h1.85a.67.67,0,0,1,0,1.33h-1.84a.66.66,0,0,1-.67-.66.67.67,0,0,1,.66-.67Z"/>
      <path class="cls-94" d="M343,304.65l1.85,0a.66.66,0,0,1,.65.67.67.67,0,0,1-.67.65h0L343,306h0a.66.66,0,0,1-.65-.67.67.67,0,0,1,.67-.65Z"/>
      <path class="cls-94" d="M349.11,304.78l1.85.05a.66.66,0,0,1,0,1.32l-1.83-.06a.66.66,0,1,1,0-1.31Z"/>
      <path class="cls-94" d="M355.26,305l1.84.08a.65.65,0,0,1,.62.68.66.66,0,0,1-.68.63l-1.84-.09a.66.66,0,0,1-.63-.68.65.65,0,0,1,.68-.62Z"/>
      <path class="cls-94" d="M361.4,305.3l1.84.11a.65.65,0,1,1-.08,1.3l-1.84-.1a.66.66,0,0,1,.08-1.31Z"/>
      <path class="cls-94" d="M367.53,305.7l1.84.13a.65.65,0,0,1,.6.69.64.64,0,0,1-.69.6l-1.84-.13a.65.65,0,0,1-.6-.69.64.64,0,0,1,.69-.6Z"/>
      <path class="cls-94" d="M373.66,306.17l1.84.15a.65.65,0,0,1-.11,1.29l-1.83-.16a.64.64,0,1,1,.1-1.28Z"/>
      <path class="cls-94" d="M379.79,306.71l1.83.18a.64.64,0,0,1-.12,1.28l-1.83-.18a.63.63,0,0,1-.58-.7.64.64,0,0,1,.69-.58Z"/>
      <path class="cls-94" d="M385.9,307.33l1.84.19a.64.64,0,0,1,.56.71.63.63,0,0,1-.7.56l-1.83-.19a.64.64,0,1,1,.13-1.27Z"/>
      <path class="cls-94" d="M392,308l1.83.21a.64.64,0,0,1,.56.71.63.63,0,0,1-.71.55l-1.83-.21A.63.63,0,1,1,392,308Z"/>
      <path class="cls-94" d="M398.11,308.75l1.83.22a.64.64,0,0,1-.16,1.26L398,310a.62.62,0,0,1-.55-.7.63.63,0,0,1,.7-.56Z"/>
      <path class="cls-94" d="M404.21,309.52l1.82.24a.62.62,0,0,1,.55.7.63.63,0,0,1-.71.54l-1.82-.23a.64.64,0,0,1-.55-.71.62.62,0,0,1,.7-.54Z"/>
      <path class="cls-94" d="M410.29,310.31l1.83.24a.63.63,0,0,1,.54.7.62.62,0,0,1-.7.54l-1.83-.24a.63.63,0,0,1,.16-1.24Z"/>
      <path class="cls-94" d="M416.38,311.11l1.83.24a.61.61,0,0,1,.53.7.61.61,0,0,1-.69.53l-1.83-.23a.63.63,0,1,1,.16-1.24Z"/>
      <path class="cls-94" d="M422.47,311.9l1.83.24a.62.62,0,0,1-.16,1.23l-1.83-.24a.62.62,0,0,1-.54-.69.63.63,0,0,1,.7-.54Z"/>
      <path class="cls-94" d="M428.56,312.68l1.82.22a.62.62,0,0,1,.54.69.61.61,0,0,1-.69.53l-1.82-.22a.62.62,0,0,1-.54-.69.61.61,0,0,1,.69-.53Z"/>
      <path class="cls-94" d="M434.65,313.42l1.83.21a.61.61,0,0,1-.14,1.22l-1.84-.21A.62.62,0,0,1,434,314a.6.6,0,0,1,.68-.53Z"/>
      <path class="cls-94" d="M440.74,314.11l1.83.2a.61.61,0,0,1,.55.67.62.62,0,0,1-.68.54l-1.83-.2a.61.61,0,1,1,.13-1.21Z"/>
      <path class="cls-94" d="M446.84,314.75l1.83.17a.61.61,0,1,1-.11,1.21l-1.84-.18a.6.6,0,0,1,.12-1.2Z"/>
      <path class="cls-94" d="M453,315.31l1.83.15a.62.62,0,0,1,.56.65.61.61,0,0,1-.66.55l-1.83-.15a.6.6,0,1,1,.1-1.2Z"/>
      <path class="cls-94" d="M459.06,315.78l1.84.13a.6.6,0,1,1-.08,1.2L459,317a.6.6,0,1,1,.08-1.2Z"/>
      <path class="cls-94" d="M465.18,316.16l1.83.09h0a.6.6,0,0,1-.06,1.2l-1.84-.09a.6.6,0,0,1-.57-.63.59.59,0,0,1,.62-.57h0Z"/>
      <path class="cls-94" d="M471.3,316.42l1.84.06h0a.59.59,0,1,1,0,1.18l-1.85-.05a.6.6,0,1,1,0-1.19Z"/>
      <path class="cls-94" d="M477.42,316.55h1.85a.58.58,0,0,1,.58.6.58.58,0,0,1-.59.58h-1.85a.59.59,0,0,1-.58-.6.58.58,0,0,1,.59-.59Z"/>
      <path class="cls-94" d="M483.55,316.54l1.84,0h0a.58.58,0,0,1,.6.58.58.58,0,0,1-.58.59l-1.84,0a.59.59,0,0,1,0-1.17h0Z"/>
      <path class="cls-94" d="M489.67,316.36l1.83-.09h0a.57.57,0,0,1,.61.55.58.58,0,0,1-.55.62l-1.85.09a.59.59,0,0,1-.61-.56.57.57,0,0,1,.55-.61h0Z"/>
      <path class="cls-94" d="M495.78,316l1.83-.15h0a.6.6,0,0,1,.63.54.58.58,0,0,1-.54.62l-1.84.15a.58.58,0,1,1-.1-1.16Z"/>
      <path class="cls-94" d="M501.88,315.44l1.82-.2h0a.58.58,0,0,1,.14,1.15l-1.84.21a.59.59,0,0,1-.64-.51.57.57,0,0,1,.51-.64h0Z"/>
      <path class="cls-94" d="M508,314.68l1.81-.27h0a.57.57,0,0,1,.17,1.13l-1.83.28a.58.58,0,1,1-.17-1.14h0Z"/>
      <path class="cls-94" d="M514,313.69l1.8-.34h0a.58.58,0,0,1,.67.46.57.57,0,0,1-.45.67l-1.82.35a.58.58,0,0,1-.67-.46.57.57,0,0,1,.45-.67h0Z"/>
      <path class="cls-94" d="M520,312.46l1.79-.42h0a.57.57,0,1,1,.26,1.1l-1.8.43a.57.57,0,0,1-.26-1.11h0Z"/>
      <path class="cls-94" d="M525.9,311l1.77-.5h0a.56.56,0,0,1,.7.39.57.57,0,0,1-.39.7l-1.78.5a.57.57,0,0,1-.7-.39.57.57,0,0,1,.39-.7h0Z"/>
      <path class="cls-94" d="M531.76,309.22l1.74-.58h0a.56.56,0,0,1,.71.35.55.55,0,0,1-.36.71l-1.75.59a.56.56,0,1,1-.36-1.07h0Z"/>
      <path class="cls-94" d="M537.53,307.19l1.71-.66h0a.57.57,0,0,1,.73.32.55.55,0,0,1-.32.72l-1.73.67a.56.56,0,1,1-.4-1h0Z"/>
      <path class="cls-94" d="M543.19,304.89l1.67-.74h0a.57.57,0,0,1,.74.29.56.56,0,0,1-.29.73l-1.69.76a.56.56,0,0,1-.45-1h0Z"/>
      <path class="cls-94" d="M548.72,302.31l1.64-.83h0a.55.55,0,0,1,.5,1l-1.65.84a.55.55,0,1,1-.5-1Z"/>
      <path class="cls-94" d="M554.12,299.44l1.59-.91h0a.54.54,0,0,1,.75.2.55.55,0,0,1-.2.75l-1.61.92a.55.55,0,0,1-.55-.95h0Z"/>
      <path class="cls-94" d="M559.37,296.31l1.54-1h0a.55.55,0,0,1,.59.92l-1.56,1a.54.54,0,0,1-.75-.16.55.55,0,0,1,.16-.76h0Z"/>
      <path class="cls-94" d="M564.45,292.91l1.49-1.07h0a.54.54,0,1,1,.63.88l-1.5,1.08a.54.54,0,0,1-.64-.88h0Z"/>
      <path class="cls-94" d="M569.36,289.26l1.43-1.14h0a.53.53,0,0,1,.76.09.54.54,0,0,1-.09.76L570,290.12a.54.54,0,0,1-.76-.09.55.55,0,0,1,.09-.76h0Z"/>
      <path class="cls-94" d="M574.08,285.38l1.37-1.21h0a.54.54,0,1,1,.71.81l-1.39,1.22a.53.53,0,0,1-.76-.05.54.54,0,0,1,.05-.76h0Z"/>
      <path class="cls-94" d="M578.6,281.26l1.31-1.28h0a.53.53,0,0,1,.75,0,.54.54,0,0,1,0,.76L579.34,282a.55.55,0,0,1-.76,0,.54.54,0,0,1,0-.76h0Z"/>
      <path class="cls-94" d="M582.9,276.93l1.25-1.35h0a.53.53,0,0,1,.78.72l-1.26,1.36a.53.53,0,0,1-.75,0,.53.53,0,0,1,0-.75Z"/>
      <path class="cls-94" d="M587,272.38l1.18-1.4h0a.52.52,0,0,1,.8.68l-1.18,1.42a.53.53,0,0,1-.82-.68h0Z"/>
      <path class="cls-94" d="M590.84,267.63l1.11-1.46h0a.53.53,0,1,1,.84.63l-1.11,1.47a.53.53,0,1,1-.84-.63h0Z"/>
      <path class="cls-94" d="M594.45,262.7l1-1.52h0a.53.53,0,0,1,.73-.13.51.51,0,0,1,.13.72l-1,1.53a.53.53,0,0,1-.87-.59h0Z"/>
      <path class="cls-94" d="M597.79,257.58l.94-1.57h0a.52.52,0,0,1,.71-.17.51.51,0,0,1,.18.71l-1,1.58a.52.52,0,1,1-.89-.53h0Z"/>
      <path class="cls-94" d="M600.83,252.29l.86-1.63h0a.52.52,0,0,1,.7-.21.5.5,0,0,1,.21.69l-.86,1.64a.5.5,0,0,1-.69.22.51.51,0,0,1-.22-.7Z"/>
      <path class="cls-94" d="M603.56,246.82l.76-1.67h0a.51.51,0,0,1,.68-.25.52.52,0,0,1,.26.68l-.76,1.68a.51.51,0,1,1-.94-.42h0Z"/>
      <path class="cls-94" d="M606,241.2l.65-1.71h0a.51.51,0,0,1,1,.37l-.66,1.73a.51.51,0,0,1-.66.29.51.51,0,0,1-.3-.66h0Z"/>
      <path class="cls-94" d="M608,235.45l.54-1.74h0a.5.5,0,1,1,1,.3l-.55,1.77a.51.51,0,0,1-1-.31h0Z"/>
      <path class="cls-94" d="M609.72,229.59l.43-1.78h0a.5.5,0,0,1,.61-.37.49.49,0,0,1,.36.61l-.43,1.8a.51.51,0,0,1-.61.37.5.5,0,0,1-.37-.61h0Z"/>
      <path class="cls-94" d="M611,223.62l.31-1.8h0a.51.51,0,0,1,.58-.41.51.51,0,0,1,.41.58l-.32,1.83a.5.5,0,0,1-1-.18h0Z"/>
      <path class="cls-94" d="M611.92,217.59l.19-1.82v0a.49.49,0,0,1,.54-.44.5.5,0,0,1,.45.54l-.19,1.85a.49.49,0,0,1-.54.44.5.5,0,0,1-.45-.54h0Z"/>
      <path class="cls-94" d="M612.38,211.5l0-1.83h0a.48.48,0,0,1,.5-.47.47.47,0,0,1,.47.49l0,1.86a.49.49,0,0,1-.5.48.5.5,0,0,1-.48-.5h0Z"/>
      <path class="cls-94" d="M612.37,205.4l-.1-1.82h0a.48.48,0,1,1,1-.06l.11,1.85a.49.49,0,0,1-.45.51.48.48,0,0,1-.51-.45h0Z"/>
      <path class="cls-94" d="M611.85,199.33l-.25-1.81v0a.49.49,0,0,1,.4-.53.47.47,0,0,1,.53.4l.27,1.84a.47.47,0,0,1-.94.13h0Z"/>
      <path class="cls-94" d="M610.81,193.32l-.42-1.78h0a.47.47,0,0,1,.35-.55.46.46,0,0,1,.55.34l.43,1.8a.46.46,0,0,1-.34.56.47.47,0,0,1-.56-.34h0Z"/>
      <path class="cls-94" d="M609.21,187.44l-.58-1.73h0a.46.46,0,0,1,.86-.3l.6,1.76a.46.46,0,0,1-.29.58.45.45,0,0,1-.57-.29h0Z"/>
      <path class="cls-94" d="M607.06,181.74c-.24-.56-.5-1.11-.75-1.66v0a.44.44,0,0,1,.22-.58.45.45,0,0,1,.59.21c.25.57.52,1.13.77,1.69a.44.44,0,0,1-.23.59.43.43,0,0,1-.58-.23Z"/>
      <path class="cls-94" d="M604.32,176.31l-1-1.56h0a.45.45,0,0,1,.14-.6.44.44,0,0,1,.6.15l1,1.58a.44.44,0,1,1-.75.45h0Z"/>
      <path class="cls-94" d="M601,171.24l-1.12-1.45h0a.42.42,0,0,1,.67-.52l1.14,1.46a.43.43,0,0,1-.67.53h0Z"/>
      <path class="cls-94" d="M597,166.56l-1.27-1.31h0a.42.42,0,0,1,0-.59.41.41,0,0,1,.58,0l1.29,1.33a.42.42,0,0,1-.6.58h0Z"/>
      <path class="cls-94" d="M592.66,162.33l-1.4-1.18h0a.4.4,0,0,1,.52-.62l1.42,1.19a.41.41,0,0,1-.52.63h0Z"/>
      <path class="cls-94" d="M587.86,158.57l-1.52-1h0a.4.4,0,0,1-.1-.55.39.39,0,0,1,.55-.11l1.53,1a.38.38,0,0,1,.11.55.4.4,0,0,1-.55.11h0Z"/>
      <path class="cls-94" d="M582.69,155.33l-1.61-.87h0a.37.37,0,0,1-.15-.52.38.38,0,0,1,.52-.16l1.63.88a.37.37,0,0,1,.16.52.38.38,0,0,1-.52.16h0Z"/>
      <path class="cls-94" d="M577.22,152.64l-1.69-.69h0a.38.38,0,0,1-.21-.5.37.37,0,0,1,.49-.2l1.72.69a.38.38,0,0,1,.21.49.39.39,0,0,1-.5.22h0Z"/>
      <path class="cls-94" d="M571.49,150.57l-1.76-.5h0a.38.38,0,0,1-.26-.46.37.37,0,0,1,.45-.25l1.79.49a.38.38,0,0,1,.26.46.37.37,0,0,1-.46.26h0Z"/>
      <path class="cls-94" d="M565.56,149.17l-1.81-.28h0a.36.36,0,0,1-.3-.41.35.35,0,0,1,.41-.3l1.83.27a.36.36,0,1,1-.11.72h0Z"/>
      <path class="cls-94" d="M559.5,148.51l-1.82,0h0a.34.34,0,0,1-.34-.36.35.35,0,0,1,.36-.34l1.85,0a.35.35,0,0,1,.35.36.35.35,0,0,1-.36.34h0Z"/>
      <path class="cls-94" d="M553.42,148.67l-1.82.22h0a.34.34,0,0,1-.38-.3.35.35,0,0,1,.3-.38l1.84-.22a.34.34,0,0,1,.38.3.33.33,0,0,1-.3.38h0Z"/>
      <path class="cls-94" d="M547.42,149.7l-1.76.48h0a.34.34,0,0,1-.41-.23.33.33,0,0,1,.23-.41l1.79-.5a.34.34,0,0,1,.18.65h0Z"/>
      <path class="cls-94" d="M541.65,151.62l-1.67.75h0a.32.32,0,0,1-.43-.16.33.33,0,0,1,.16-.43l1.7-.76a.33.33,0,0,1,.43.16.32.32,0,0,1-.17.43h0Z"/>
      <path class="cls-94" d="M536.84,155a9.08,9.08,0,0,0-.91,1.53.31.31,0,0,1-.41.15.31.31,0,0,1-.16-.41,9,9,0,0,1,1-1.64.33.33,0,0,1,.45-.07.31.31,0,0,1,.06.44Z"/>
      <path class="cls-94" d="M536.32,160a3.46,3.46,0,0,0,.58.28.31.31,0,0,1,.19.39.32.32,0,0,1-.4.19,3.6,3.6,0,0,1-.71-.35.32.32,0,0,1-.09-.43.31.31,0,0,1,.43-.08Z"/>
    </g>
    <g>
      <path class="cls-94" d="M200.12,432.87l-1.34-1.29a.35.35,0,0,1,0-.48.34.34,0,0,1,.48,0h0l0,0,1.27,1.3v0a.3.3,0,0,1-.43.43Z"/>
      <path class="cls-94" d="M196,428.2l-1-1.57a.41.41,0,0,1,.13-.58.42.42,0,0,1,.58.12h0v0l.94,1.55v0a.4.4,0,1,1-.67.42Z"/>
      <path class="cls-94" d="M193.07,422.73l-.66-1.75a.5.5,0,1,1,.93-.35h0v0l.6,1.71v0a.47.47,0,0,1-.89.33Z"/>
      <path class="cls-94" d="M191.28,416.77l-.32-1.85a.57.57,0,0,1,.46-.65.56.56,0,0,1,.65.46h0v0l.26,1.8v0a.55.55,0,0,1-.46.61A.54.54,0,0,1,191.28,416.77Z"/>
      <path class="cls-94" d="M190.64,410.56l0-1.88a.63.63,0,0,1,1.25,0v.05l-.07,1.81v0a.61.61,0,1,1-1.21,0Z"/>
      <path class="cls-94" d="M191.13,404.33l.35-1.84a.7.7,0,0,1,1.37.27h0v0l-.39,1.76v0a.67.67,0,0,1-1.32-.28Z"/>
      <path class="cls-94" d="M192.67,398.28l.65-1.76a.75.75,0,0,1,1-.44.76.76,0,0,1,.45,1h0l0,0-.66,1.69v0a.74.74,0,0,1-1.38-.53Z"/>
      <path class="cls-94" d="M195.15,392.55l.91-1.64a.78.78,0,0,1,1.08-.31.8.8,0,0,1,.31,1.08h0l0,0-.89,1.57,0,0a.78.78,0,0,1-1.07.29A.79.79,0,0,1,195.15,392.55Z"/>
      <path class="cls-94" d="M198.41,387.23l1.11-1.51a.85.85,0,0,1,1.18-.18.83.83,0,0,1,.17,1.17h0l0,0-1.09,1.44,0,0a.83.83,0,0,1-1.33-1Z"/>
      <path class="cls-94" d="M202.33,382.37l1.28-1.37a.87.87,0,0,1,1.24,0,.88.88,0,0,1,0,1.24h0l0,0-1.26,1.3,0,0a.88.88,0,0,1-1.23,0A.85.85,0,0,1,202.33,382.37Z"/>
      <path class="cls-94" d="M206.78,378l1.43-1.21a.92.92,0,0,1,1.19,1.4h0l0,0-1.4,1.15,0,0a.91.91,0,0,1-1.16-1.39Z"/>
      <path class="cls-94" d="M211.7,374.16l1.56-1a1,1,0,0,1,1.33.26,1,1,0,0,1-.27,1.33h0l0,0-1.52,1,0,0a.95.95,0,0,1-1-1.58Z"/>
      <path class="cls-94" d="M217,370.89l1.67-.86a1,1,0,0,1,1.35.43,1,1,0,0,1-.43,1.34h0l-1.62.81,0,0a1,1,0,0,1-.9-1.76Z"/>
      <path class="cls-94" d="M222.67,368.23l1.74-.69a1,1,0,0,1,.77,1.94h0l-1.7.65h0a1,1,0,0,1-.75-1.92Z"/>
      <path class="cls-94" d="M228.53,366.12l1.79-.53a1.06,1.06,0,0,1,.61,2h0l-1.75.51h0a1.06,1.06,0,1,1-.6-2Z"/>
      <path class="cls-94" d="M234.54,364.51l1.82-.39a1.08,1.08,0,0,1,.46,2.11h0l-1.78.38h0a1.06,1.06,0,0,1-1.27-.82A1.07,1.07,0,0,1,234.54,364.51Z"/>
      <path class="cls-94" d="M240.64,363.35l1.84-.28a1.1,1.1,0,0,1,1.24.92,1.09,1.09,0,0,1-.92,1.24h0l-1.81.26h0a1.1,1.1,0,0,1-1.23-.92A1.09,1.09,0,0,1,240.64,363.35Z"/>
      <path class="cls-94" d="M246.79,362.56l1.85-.17a1.1,1.1,0,0,1,.2,2.2h0l-1.82.16h0a1.1,1.1,0,0,1-.2-2.19Z"/>
      <path class="cls-94" d="M253,362.1l1.85-.09a1.12,1.12,0,0,1,.1,2.24h0l-1.82.07h0a1.11,1.11,0,1,1-.09-2.22Z"/>
      <path class="cls-94" d="M259.14,361.9H261a1.13,1.13,0,0,1,1.14,1.12,1.14,1.14,0,0,1-1.12,1.14h-1.86A1.13,1.13,0,0,1,258,363,1.11,1.11,0,0,1,259.14,361.9Z"/>
      <path class="cls-94" d="M265.32,361.92l1.85,0a1.15,1.15,0,0,1,1.12,1.17,1.14,1.14,0,0,1-1.17,1.12h0l-1.83,0h0a1.15,1.15,0,0,1-1.12-1.17A1.14,1.14,0,0,1,265.32,361.92Z"/>
      <path class="cls-94" d="M271.48,362.09l1.85.08a1.16,1.16,0,1,1-.1,2.31h0l-1.83-.08h0a1.16,1.16,0,0,1,.1-2.31Z"/>
      <path class="cls-94" d="M277.63,362.37l1.84.1a1.17,1.17,0,1,1-.12,2.34h0l-1.84-.1h0a1.16,1.16,0,0,1-1.1-1.23A1.18,1.18,0,0,1,277.63,362.37Z"/>
      <path class="cls-94" d="M283.78,362.74l1.84.12a1.19,1.19,0,0,1-.16,2.37h0l-1.84-.14h0a1.18,1.18,0,0,1,.17-2.35Z"/>
      <path class="cls-94" d="M289.91,363.18l1.84.16a1.19,1.19,0,0,1-.19,2.38h0l-1.83-.15h0a1.19,1.19,0,1,1,.19-2.38Z"/>
      <path class="cls-94" d="M296.05,363.73l1.83.18a1.18,1.18,0,1,1-.23,2.35h0l-1.83-.17h0a1.19,1.19,0,1,1,.22-2.36Z"/>
      <path class="cls-94" d="M302.17,364.35l1.83.21a1.17,1.17,0,0,1-.25,2.33h0l-1.82-.2h0a1.18,1.18,0,0,1,.25-2.34Z"/>
      <path class="cls-94" d="M308.28,365.06l1.84.23a1.16,1.16,0,0,1-.29,2.31h0l-1.83-.22h0a1.15,1.15,0,0,1-1-1.29,1.17,1.17,0,0,1,1.3-1Z"/>
      <path class="cls-94" d="M314.39,365.84l1.83.25a1.16,1.16,0,0,1-.32,2.29h0l-1.82-.24h0a1.16,1.16,0,0,1,.3-2.3Z"/>
      <path class="cls-94" d="M320.48,366.71l1.83.27a1.14,1.14,0,0,1-.34,2.26h0l-1.82-.27h0a1.14,1.14,0,0,1,.34-2.26Z"/>
      <path class="cls-94" d="M326.56,367.65l1.83.3a1.13,1.13,0,0,1-.37,2.23h0l-1.82-.29h0a1.13,1.13,0,0,1,.36-2.24Z"/>
      <path class="cls-94" d="M332.63,368.67l1.82.32a1.12,1.12,0,0,1-.39,2.21h0l-1.81-.31h0a1.13,1.13,0,0,1,.39-2.22Z"/>
      <path class="cls-94" d="M338.69,369.76l1.81.34a1.12,1.12,0,0,1,.89,1.3,1.11,1.11,0,0,1-1.3.89l-1.81-.33a1.12,1.12,0,1,1,.4-2.2Z"/>
      <path class="cls-94" d="M344.72,370.89l1.81.33h0a1.1,1.1,0,1,1-.39,2.17l-1.82-.33a1.1,1.1,0,1,1,.39-2.17Z"/>
      <path class="cls-94" d="M350.75,372l1.81.29h0a1.08,1.08,0,0,1,.9,1.25,1.1,1.1,0,0,1-1.25.91l-1.83-.3a1.09,1.09,0,1,1,.35-2.16h0Z"/>
      <path class="cls-94" d="M356.78,372.86l1.82.24h0a1.08,1.08,0,0,1-.27,2.15L356.5,375a1.09,1.09,0,1,1,.27-2.16h0Z"/>
      <path class="cls-94" d="M362.83,373.54l1.82.14h0a1.07,1.07,0,1,1-.16,2.14l-1.86-.14a1.08,1.08,0,0,1,.16-2.15h0Z"/>
      <path class="cls-94" d="M368.9,373.87l1.81,0h0a1.06,1.06,0,1,1,0,2.12h-1.86a1.07,1.07,0,1,1,0-2.14h0Z"/>
      <path class="cls-94" d="M375,373.78l1.81-.12h0a1,1,0,0,1,.15,2.09l-1.86.14a1,1,0,0,1-1.13-1,1.06,1.06,0,0,1,1-1.14h0Z"/>
      <path class="cls-94" d="M381,373.19l1.79-.28h0a1,1,0,0,1,.33,2l-1.84.31a1,1,0,1,1-.35-2h0Z"/>
      <path class="cls-94" d="M386.9,372.05l1.75-.45h0a1,1,0,0,1,.5,1.91l-1.81.49a1,1,0,1,1-.51-1.93h0Z"/>
      <path class="cls-94" d="M392.7,370.36l1.71-.61h0a1,1,0,0,1,.65,1.8l-1.75.65a1,1,0,0,1-.67-1.82h0Z"/>
      <path class="cls-94" d="M398.33,368.14l1.64-.77,0,0a.93.93,0,0,1,.79,1.68l-1.68.81a.93.93,0,0,1-.82-1.68h0Z"/>
      <path class="cls-94" d="M403.67,365.35l1.54-1,0,0a.89.89,0,0,1,1.23.28.91.91,0,0,1-.27,1.24l-1.58,1a.92.92,0,0,1-1.26-.28.91.91,0,0,1,.28-1.25h0Z"/>
      <path class="cls-94" d="M408.63,361.93l1.38-1.16,0,0a.86.86,0,0,1,1.22.11.87.87,0,0,1-.1,1.22l-1.44,1.21a.87.87,0,1,1-1.13-1.33h0Z"/>
      <path class="cls-94" d="M413,357.85l1.18-1.36,0,0a.84.84,0,0,1,1.18-.09.85.85,0,0,1,.08,1.18L414.28,359a.84.84,0,1,1-1.29-1.09h0Z"/>
      <path class="cls-94" d="M416.64,353.09l.89-1.55,0-.05a.81.81,0,0,1,1.41.8l-.92,1.65a.82.82,0,0,1-1.11.31.81.81,0,0,1-.32-1.11h0Z"/>
      <path class="cls-94" d="M419.17,347.71l.5-1.71,0-.06a.78.78,0,0,1,1.49.43l-.52,1.83a.78.78,0,0,1-1.51-.42h0Z"/>
      <path class="cls-94" d="M420.27,341.92l0-1.77v-.07a.75.75,0,0,1,.74-.75.74.74,0,0,1,.75.72l0,1.91a.76.76,0,1,1-1.51,0h0Z"/>
      <path class="cls-94" d="M419.58,336.06l-.53-1.71,0-.05a.69.69,0,0,1,1.32-.43l.6,1.81a.71.71,0,0,1-1.35.44h0Z"/>
      <path class="cls-94" d="M417.28,330.58l-1-1.5,0,0a.66.66,0,0,1,.19-.9.65.65,0,0,1,.89.19l1.05,1.57a.66.66,0,0,1-.17.92.67.67,0,0,1-.92-.18h0Z"/>
      <path class="cls-94" d="M413.56,326l-1.38-1.13-.05,0a.6.6,0,0,1,.75-.93l1.49,1.19a.6.6,0,0,1,.1.85.61.61,0,0,1-.86.1h0Z"/>
      <path class="cls-94" d="M408.56,322.85l-1.69-.53-.07,0a.55.55,0,0,1-.36-.68.56.56,0,0,1,.68-.36l1.83.53a.56.56,0,0,1,.38.7.55.55,0,0,1-.69.38h0Z"/>
      <path class="cls-94" d="M402.77,322a13,13,0,0,0-1.75.27.49.49,0,0,1-.59-.38.49.49,0,0,1,.36-.59,13.32,13.32,0,0,1,1.89-.32.51.51,0,0,1,.56.46.52.52,0,0,1-.46.56Z"/>
      <path class="cls-94" d="M397.26,323.88a9.09,9.09,0,0,0-1.33,1.14.44.44,0,0,1-.63,0,.43.43,0,0,1,0-.62,8.42,8.42,0,0,1,1.45-1.28.46.46,0,0,1,.54.75Z"/>
      <path class="cls-94" d="M394.14,328.56a6.27,6.27,0,0,0,0,1.73.38.38,0,1,1-.75.11,7,7,0,0,1-.06-1.94.4.4,0,0,1,.44-.36.42.42,0,0,1,.36.45Z"/>
      <path class="cls-94" d="M395.93,333.85a4.48,4.48,0,0,0,1.44.92.31.31,0,1,1-.21.59,5.06,5.06,0,0,1-1.68-1,.33.33,0,0,1,0-.47.35.35,0,0,1,.48,0Z"/>
    </g>
  </g>
</svg>
