<svg id="Ebene_1" data-name="Ebene 1" xmlns="http://www.w3.org/2000/svg" xmlns:xlink="http://www.w3.org/1999/xlink" viewBox="0 0 700 476">
  <defs>
    <style>
      .gencl-1 {
        mask: url(#mask);
        filter: url(#luminosity-noclip-2);
      }

      .gencl-2 {
        mix-blend-mode: multiply;
        fill: url(#gencl-gradient);
      }

      .gencl-3 {
        opacity: 0.8;
      }

      .gencl-4, .gencl-5, .gencl-8 {
        opacity: 0.5;
      }

      .gencl-4 {
        fill: url(#gencl-gradient-2);
      }

      .gencl-5 {
        fill: url(#gencl-gradient-3);
      }

      .gencl-6, .gencl-72, .gencl-8, .gencl-95 {
        fill: #fff;
      }

      .gencl-7 {
        fill: url(#gencl-gradient-4);
      }

      .gencl-9 {
        fill: url(#gencl-gradient-5);
      }

      .gencl-10 {
        fill: url(#gencl-gradient-6);
      }

      .gencl-11 {
        fill: url(#gencl-gradient-7);
      }

      .gencl-12 {
        fill: url(#gencl-gradient-8);
      }

      .gencl-13 {
        fill: url(#gencl-gradient-9);
      }

      .gencl-14 {
        fill: url(#gencl-gradient-10);
      }

      .gencl-15 {
        fill: url(#gencl-gradient-11);
      }

      .gencl-16 {
        fill: url(#gencl-gradient-12);
      }

      .gencl-17 {
        fill: url(#gencl-gradient-13);
      }

      .gencl-18 {
        fill: url(#gencl-gradient-14);
      }

      .gencl-19 {
        fill: url(#gencl-gradient-15);
      }

      .gencl-20 {
        fill: url(#gencl-gradient-16);
      }

      .gencl-21 {
        fill: url(#gencl-gradient-17);
      }

      .gencl-22 {
        fill: url(#gencl-gradient-18);
      }

      .gencl-23 {
        fill: url(#gencl-gradient-19);
      }

      .gencl-24 {
        fill: url(#gencl-gradient-20);
      }

      .gencl-25 {
        fill: url(#gencl-gradient-21);
      }

      .gencl-26 {
        fill: url(#gencl-gradient-22);
      }

      .gencl-27 {
        fill: url(#gencl-gradient-23);
      }

      .gencl-28 {
        fill: url(#gencl-gradient-24);
      }

      .gencl-29 {
        fill: url(#gencl-gradient-25);
      }

      .gencl-30 {
        fill: url(#gencl-gradient-26);
      }

      .gencl-31 {
        fill: url(#gencl-gradient-27);
      }

      .gencl-32 {
        fill: url(#gencl-gradient-28);
      }

      .gencl-33 {
        mask: url(#mask-2);
      }

      .gencl-34 {
        fill: url(#gencl-gradient-29);
      }

      .gencl-35 {
        fill: url(#gencl-gradient-30);
      }

      .gencl-36 {
        fill: url(#gencl-gradient-31);
      }

      .gencl-37 {
        fill: url(#gencl-gradient-32);
      }

      .gencl-38 {
        fill: url(#gencl-gradient-33);
      }

      .gencl-39 {
        fill: url(#gencl-gradient-34);
      }

      .gencl-40 {
        fill: url(#gencl-gradient-35);
      }

      .gencl-41 {
        fill: url(#gencl-gradient-36);
      }

      .gencl-42 {
        fill: url(#gencl-gradient-37);
      }

      .gencl-43 {
        fill: url(#gencl-gradient-38);
      }

      .gencl-44 {
        fill: url(#gencl-gradient-39);
      }

      .gencl-45 {
        fill: url(#gencl-gradient-40);
      }

      .gencl-46 {
        fill: url(#gencl-gradient-41);
      }

      .gencl-47 {
        fill: url(#gencl-gradient-42);
      }

      .gencl-48 {
        fill: url(#gencl-gradient-43);
      }

      .gencl-49 {
        fill: url(#gencl-gradient-44);
      }

      .gencl-50 {
        fill: url(#gencl-gradient-45);
      }

      .gencl-51 {
        fill: url(#gencl-gradient-46);
      }

      .gencl-52 {
        fill: url(#gencl-gradient-47);
      }

      .gencl-53 {
        fill: url(#gencl-gradient-48);
      }

      .gencl-54 {
        fill: url(#gencl-gradient-49);
      }

      .gencl-55 {
        fill: url(#gencl-gradient-50);
      }

      .gencl-56 {
        fill: url(#gencl-gradient-51);
      }

      .gencl-57 {
        fill: url(#gencl-gradient-52);
      }

      .gencl-58 {
        fill: url(#gencl-gradient-53);
      }

      .gencl-59 {
        fill: url(#gencl-gradient-54);
      }

      .gencl-60 {
        fill: url(#gencl-gradient-55);
      }

      .gencl-61 {
        fill: url(#gencl-gradient-56);
      }

      .gencl-62 {
        fill: url(#gencl-gradient-57);
      }

      .gencl-63 {
        fill: url(#gencl-gradient-58);
      }

      .gencl-64 {
        fill: url(#gencl-gradient-59);
      }

      .gencl-65 {
        fill: url(#gencl-gradient-60);
      }

      .gencl-66 {
        fill: url(#gencl-gradient-61);
      }

      .gencl-67 {
        fill: url(#gencl-gradient-62);
      }

      .gencl-68 {
        fill: url(#gencl-gradient-63);
      }

      .gencl-69 {
        fill: url(#gencl-gradient-64);
      }

      .gencl-70 {
        fill: url(#gencl-gradient-65);
      }

      .gencl-71 {
        fill: url(#gencl-gradient-66);
      }

      .gencl-72 {
        opacity: 0.63;
      }

      .gencl-73 {
        fill: url(#gencl-gradient-67);
      }

      .gencl-74 {
        fill: url(#gencl-gradient-68);
      }

      .gencl-75 {
        fill: url(#gencl-gradient-69);
      }

      .gencl-76 {
        fill: url(#gencl-gradient-70);
      }

      .gencl-77 {
        fill: url(#gencl-gradient-71);
      }

      .gencl-78 {
        fill: url(#gencl-gradient-72);
      }

      .gencl-79 {
        fill: url(#gencl-gradient-73);
      }

      .gencl-80 {
        fill: url(#gencl-gradient-74);
      }

      .gencl-81 {
        fill: url(#gencl-gradient-75);
      }

      .gencl-82 {
        fill: url(#gencl-gradient-76);
      }

      .gencl-83 {
        fill: url(#gencl-gradient-77);
      }

      .gencl-84 {
        fill: url(#gencl-gradient-78);
      }

      .gencl-85 {
        fill: url(#gencl-gradient-79);
      }

      .gencl-86 {
        fill: url(#gencl-gradient-80);
      }

      .gencl-87 {
        fill: url(#gencl-gradient-81);
      }

      .gencl-88 {
        fill: url(#gencl-gradient-82);
      }

      .gencl-89 {
        fill: url(#gencl-gradient-83);
      }

      .gencl-90 {
        fill: url(#gencl-gradient-84);
      }

      .gencl-91 {
        fill: url(#gencl-gradient-85);
      }

      .gencl-92 {
        fill: url(#gencl-gradient-86);
      }

      .gencl-93 {
        fill: url(#gencl-gradient-87);
      }

      .gencl-94 {
        fill: url(#gencl-gradient-88);
      }

      .gencl-95 {
        opacity: 0.57;
      }

      .gencl-96 {
        filter: url(#luminosity-noclip);
      }
    </style>
    <filter id="luminosity-noclip" x="407.23" y="-8600" width="153.6" height="32766" filterUnits="userSpaceOnUse" color-interpolation-filters="sRGB">
      <feFlood flood-color="#fff" result="bg"/>
      <feBlend in="SourceGraphic" in2="bg"/>
    </filter>
    <mask id="mask" x="407.23" y="-8600" width="153.6" height="32766" maskUnits="userSpaceOnUse">
      <g class="gencl-96"/>
    </mask>
    <linearGradient id="gencl-gradient" x1="548.78" y1="91.43" x2="407.18" y2="108.36" gradientUnits="userSpaceOnUse">
      <stop offset="0"/>
      <stop offset="0.07" stop-color="#2d2d2d"/>
      <stop offset="0.17" stop-color="#5e5e5e"/>
      <stop offset="0.26" stop-color="#898989"/>
      <stop offset="0.36" stop-color="#aeaeae"/>
      <stop offset="0.47" stop-color="#cbcbcb"/>
      <stop offset="0.58" stop-color="#e2e2e2"/>
      <stop offset="0.69" stop-color="#f2f2f2"/>
      <stop offset="0.83" stop-color="#fcfcfc"/>
      <stop offset="1" stop-color="#fff"/>
    </linearGradient>
    <linearGradient id="gencl-gradient-2" x1="12.51" y1="233.05" x2="687.49" y2="233.05" gradientUnits="userSpaceOnUse">
      <stop offset="0" stop-color="#b37cff"/>
      <stop offset="1" stop-color="#f895e7"/>
    </linearGradient>
    <linearGradient id="gencl-gradient-3" x1="54.31" y1="255.1" x2="661.31" y2="255.1" xlink:href="#gencl-gradient-2"/>
    <linearGradient id="gencl-gradient-4" x1="460.23" y1="160.06" x2="377.16" y2="349.84" gradientUnits="userSpaceOnUse">
      <stop offset="0" stop-color="#a737d5"/>
      <stop offset="1" stop-color="#ef497a"/>
    </linearGradient>
    <linearGradient id="gencl-gradient-5" x1="-219.36" y1="707.73" x2="24.45" y2="707.73" gradientTransform="translate(405.45 -394.4) rotate(-12.43)" gradientUnits="userSpaceOnUse">
      <stop offset="0" stop-color="#233894"/>
      <stop offset="1" stop-color="#dd397a"/>
    </linearGradient>
    <linearGradient id="gencl-gradient-6" x1="-574.51" y1="917.94" x2="-642.58" y2="830.55" gradientTransform="translate(457.39 -651.32) rotate(-15.6)" xlink:href="#gencl-gradient-4"/>
    <linearGradient id="gencl-gradient-7" x1="481.49" y1="-4753.33" x2="425.22" y2="-4427.09" gradientTransform="matrix(1, 0, 0, -1, 0, -4273.49)" gradientUnits="userSpaceOnUse">
      <stop offset="0" stop-color="#53d8ff"/>
      <stop offset="1" stop-color="#3840f7"/>
    </linearGradient>
    <linearGradient id="gencl-gradient-8" x1="434.76" y1="-4515.77" x2="476.18" y2="-4515.77" gradientTransform="matrix(0.61, 0.79, 0.79, -0.61, 3743.48, -2886.39)" gradientUnits="userSpaceOnUse">
      <stop offset="0" stop-color="#2b3582"/>
      <stop offset="1" stop-color="#150e42"/>
    </linearGradient>
    <linearGradient id="gencl-gradient-9" x1="-5751.77" y1="-1506.62" x2="-5819.84" y2="-1594.01" gradientTransform="matrix(-0.77, -0.63, -0.63, 0.77, -4955.06, -2061.6)" xlink:href="#gencl-gradient-4"/>
    <linearGradient id="gencl-gradient-10" x1="588.96" y1="403.26" x2="593.04" y2="377.6" gradientTransform="matrix(1, 0, 0, 1, 0, 0)" xlink:href="#gencl-gradient-7"/>
    <linearGradient id="gencl-gradient-11" x1="583.35" y1="437.99" x2="592.54" y2="380.17" gradientTransform="matrix(1, 0, 0, 1, 0, 0)" xlink:href="#gencl-gradient-7"/>
    <linearGradient id="gencl-gradient-12" x1="587.12" y1="438" x2="599.04" y2="362.97" gradientTransform="matrix(1, 0, 0, 1, 0, 0)" xlink:href="#gencl-gradient-7"/>
    <linearGradient id="gencl-gradient-13" x1="582.95" y1="430.37" x2="587.9" y2="399.19" gradientTransform="matrix(1, 0, 0, 1, 0, 0)" xlink:href="#gencl-gradient-7"/>
    <linearGradient id="gencl-gradient-14" x1="577.01" y1="459.52" x2="588.9" y2="384.79" gradientTransform="matrix(1, 0, 0, 1, 0, 0)" xlink:href="#gencl-gradient-5"/>
    <linearGradient id="gencl-gradient-15" x1="616.01" y1="297.02" x2="585.46" y2="367.09" gradientTransform="matrix(1, 0, 0, 1, 0, 0)" xlink:href="#gencl-gradient-5"/>
    <linearGradient id="gencl-gradient-16" x1="563.8" y1="442.35" x2="573.48" y2="381.49" gradientTransform="matrix(1, 0, 0, 1, 0, 0)" xlink:href="#gencl-gradient-7"/>
    <linearGradient id="gencl-gradient-17" x1="575.42" y1="442.35" x2="585.09" y2="381.49" gradientTransform="matrix(1, 0, 0, 1, 0, 0)" xlink:href="#gencl-gradient-7"/>
    <linearGradient id="gencl-gradient-18" x1="587.03" y1="442.35" x2="596.71" y2="381.49" gradientTransform="matrix(1, 0, 0, 1, 0, 0)" xlink:href="#gencl-gradient-7"/>
    <linearGradient id="gencl-gradient-19" x1="598.65" y1="442.35" x2="608.32" y2="381.49" gradientTransform="matrix(1, 0, 0, 1, 0, 0)" xlink:href="#gencl-gradient-7"/>
    <linearGradient id="gencl-gradient-20" x1="610.26" y1="442.35" x2="619.94" y2="381.49" gradientTransform="matrix(1, 0, 0, 1, 0, 0)" xlink:href="#gencl-gradient-7"/>
    <linearGradient id="gencl-gradient-21" x1="449.57" y1="406.45" x2="491.39" y2="406.45" gradientUnits="userSpaceOnUse">
      <stop offset="0" stop-color="#9cfffb"/>
      <stop offset="1" stop-color="#9bfffa"/>
    </linearGradient>
    <linearGradient id="gencl-gradient-22" x1="454.4" y1="406.45" x2="496.22" y2="406.45" xlink:href="#gencl-gradient-21"/>
    <linearGradient id="gencl-gradient-23" x1="612.1" y1="406.45" x2="653.92" y2="406.45" xlink:href="#gencl-gradient-21"/>
    <linearGradient id="gencl-gradient-24" x1="616.93" y1="406.45" x2="658.75" y2="406.45" xlink:href="#gencl-gradient-21"/>
    <linearGradient id="gencl-gradient-25" x1="432.62" y1="361.21" x2="661.31" y2="361.21" xlink:href="#gencl-gradient-21"/>
    <linearGradient id="gencl-gradient-26" x1="216.83" y1="405.38" x2="140.66" y2="131.55" gradientTransform="matrix(1, 0, 0, 1, 0, 0)" xlink:href="#gencl-gradient-5"/>
    <linearGradient id="gencl-gradient-27" x1="412.38" y1="-4753.33" x2="356.1" y2="-4427.09" xlink:href="#gencl-gradient-7"/>
    <linearGradient id="gencl-gradient-28" x1="365.65" y1="-4515.77" x2="407.06" y2="-4515.77" gradientTransform="matrix(0.38, 0.93, 0.93, -0.38, 4423.05, -1818.43)" xlink:href="#gencl-gradient-8"/>
    <filter id="luminosity-noclip-2" x="407.23" y="35.53" width="153.6" height="108.91" filterUnits="userSpaceOnUse" color-interpolation-filters="sRGB">
      <feFlood flood-color="#fff" result="bg"/>
      <feBlend in="SourceGraphic" in2="bg"/>
    </filter>
    <mask id="mask-2" x="407.23" y="35.53" width="153.6" height="108.91" maskUnits="userSpaceOnUse">
      <g class="gencl-1">
        <polygon class="gencl-2" points="407.23 87.47 407.23 92.51 560.84 144.44 560.84 35.53 407.23 87.47"/>
      </g>
    </mask>
    <linearGradient id="gencl-gradient-29" x1="548.78" y1="91.43" x2="407.18" y2="108.36" gradientUnits="userSpaceOnUse">
      <stop offset="0" stop-color="#fff"/>
      <stop offset="0.1" stop-color="#fff"/>
      <stop offset="1" stop-color="#fff"/>
    </linearGradient>
    <linearGradient id="gencl-gradient-30" x1="297.94" y1="171.36" x2="297.77" y2="203.82" gradientTransform="translate(595.83 352.31) rotate(-180)" xlink:href="#gencl-gradient-7"/>
    <linearGradient id="gencl-gradient-31" x1="-7469.23" y1="229.09" x2="-7223" y2="584.47" gradientTransform="matrix(-1, 0, 0, 1, -7080.85, 0)" gradientUnits="userSpaceOnUse">
      <stop offset="0" stop-color="#fdf53f"/>
      <stop offset="1" stop-color="#d93c65"/>
    </linearGradient>
    <linearGradient id="gencl-gradient-32" x1="297.94" y1="122.89" x2="297.94" y2="161.43" gradientTransform="matrix(1, 0, 0, 1, 0, 0)" xlink:href="#gencl-gradient-7"/>
    <linearGradient id="gencl-gradient-33" x1="427.21" y1="206.13" x2="295.59" y2="36.92" gradientTransform="matrix(1, 0, 0, 1, 0, 0)" xlink:href="#gencl-gradient-31"/>
    <linearGradient id="gencl-gradient-34" x1="435.24" y1="90.61" x2="303.63" y2="89.67" gradientTransform="matrix(1, 0, 0, 1, 0, 0)" xlink:href="#gencl-gradient-7"/>
    <linearGradient id="gencl-gradient-35" x1="356.33" y1="145.49" x2="242.57" y2="22.33" gradientTransform="matrix(1, 0, 0, 1, 0, 0)" xlink:href="#gencl-gradient-7"/>
    <linearGradient id="gencl-gradient-36" x1="303.33" y1="139.14" x2="230" y2="53.59" gradientTransform="matrix(1, 0, 0, 1, 0, 0)" xlink:href="#gencl-gradient-7"/>
    <linearGradient id="gencl-gradient-37" x1="272.03" y1="151.88" x2="271.75" y2="204.2" gradientTransform="matrix(1, 0, 0, 1, 0, 0)" xlink:href="#gencl-gradient-7"/>
    <linearGradient id="gencl-gradient-38" x1="279.5" y1="151.88" x2="279.22" y2="204.2" gradientTransform="matrix(1, 0, 0, 1, 0, 0)" xlink:href="#gencl-gradient-7"/>
    <linearGradient id="gencl-gradient-39" x1="286.96" y1="151.88" x2="286.69" y2="204.2" gradientTransform="matrix(1, 0, 0, 1, 0, 0)" xlink:href="#gencl-gradient-7"/>
    <linearGradient id="gencl-gradient-40" x1="294.43" y1="151.88" x2="294.16" y2="204.2" gradientTransform="matrix(1, 0, 0, 1, 0, 0)" xlink:href="#gencl-gradient-7"/>
    <linearGradient id="gencl-gradient-41" x1="301.9" y1="151.88" x2="301.63" y2="204.2" gradientTransform="matrix(1, 0, 0, 1, 0, 0)" xlink:href="#gencl-gradient-7"/>
    <linearGradient id="gencl-gradient-42" x1="309.37" y1="151.88" x2="309.09" y2="204.2" gradientTransform="matrix(1, 0, 0, 1, 0, 0)" xlink:href="#gencl-gradient-7"/>
    <linearGradient id="gencl-gradient-43" x1="316.84" y1="151.88" x2="316.56" y2="204.2" gradientTransform="matrix(1, 0, 0, 1, 0, 0)" xlink:href="#gencl-gradient-7"/>
    <linearGradient id="gencl-gradient-44" x1="324.31" y1="151.88" x2="324.03" y2="204.2" gradientTransform="matrix(1, 0, 0, 1, 0, 0)" xlink:href="#gencl-gradient-7"/>
    <linearGradient id="gencl-gradient-45" x1="306.55" y1="309.93" x2="305.06" y2="595.44" gradientTransform="matrix(1, 0, 0, 1, 0, 0)" xlink:href="#gencl-gradient-31"/>
    <linearGradient id="gencl-gradient-46" x1="538.2" y1="231.65" x2="522.84" y2="262.39" gradientTransform="matrix(1, 0, 0, 1, 0, 0)" xlink:href="#gencl-gradient-8"/>
    <linearGradient id="gencl-gradient-47" x1="477.65" y1="228.82" x2="467.2" y2="190.5" gradientTransform="matrix(1, 0, 0, 1, 0, 0)" xlink:href="#gencl-gradient-31"/>
    <linearGradient id="gencl-gradient-48" x1="511.32" y1="334.68" x2="533.01" y2="334.68" gradientUnits="userSpaceOnUse">
      <stop offset="0" stop-color="#f9b776"/>
      <stop offset="1" stop-color="#f47960"/>
    </linearGradient>
    <linearGradient id="gencl-gradient-49" x1="541.14" y1="286.16" x2="530.39" y2="355.99" gradientTransform="matrix(1, 0, 0, 1, 0, 0)" xlink:href="#gencl-gradient-7"/>
    <linearGradient id="gencl-gradient-50" x1="518.41" y1="282.67" x2="507.66" y2="352.5" gradientTransform="matrix(1, 0, 0, 1, 0, 0)" xlink:href="#gencl-gradient-7"/>
    <linearGradient id="gencl-gradient-51" x1="498.16" y1="336.29" x2="510.72" y2="336.29" xlink:href="#gencl-gradient-48"/>
    <linearGradient id="gencl-gradient-52" x1="472.14" y1="242.62" x2="495.5" y2="242.62" xlink:href="#gencl-gradient-48"/>
    <linearGradient id="gencl-gradient-53" x1="-3184.19" y1="-4989.82" x2="-3163.59" y2="-4989.82" gradientTransform="translate(-3524.87 -4035.12) rotate(169.29)" xlink:href="#gencl-gradient-48"/>
    <linearGradient id="gencl-gradient-54" x1="497.2" y1="255.84" x2="543.31" y2="347.15" gradientTransform="matrix(1, 0, 0, 1, 0, 0)" xlink:href="#gencl-gradient-31"/>
    <linearGradient id="gencl-gradient-55" x1="487.07" y1="279.54" x2="527.35" y2="324.97" gradientTransform="matrix(1, 0, 0, 1, 0, 0)" xlink:href="#gencl-gradient-31"/>
    <linearGradient id="gencl-gradient-56" x1="501.96" y1="254.11" x2="509.65" y2="254.11" xlink:href="#gencl-gradient-48"/>
    <linearGradient id="gencl-gradient-57" x1="514.18" y1="244.18" x2="570.14" y2="247.99" xlink:href="#gencl-gradient-48"/>
    <linearGradient id="gencl-gradient-58" x1="517.7" y1="237.39" x2="507.81" y2="257.16" gradientTransform="matrix(1, 0, 0, 1, 0, 0)" xlink:href="#gencl-gradient-8"/>
    <linearGradient id="gencl-gradient-59" x1="518.45" y1="237.69" x2="509.48" y2="255.62" gradientTransform="matrix(1, 0, 0, 1, 0, 0)" xlink:href="#gencl-gradient-31"/>
    <linearGradient id="gencl-gradient-60" x1="517.29" y1="234.38" x2="515.27" y2="238.42" gradientTransform="matrix(1, 0, 0, 1, 0, 0)" xlink:href="#gencl-gradient-31"/>
    <linearGradient id="gencl-gradient-61" x1="520.79" y1="231.95" x2="518.08" y2="237.37" gradientTransform="matrix(1, 0, 0, 1, 0, 0)" xlink:href="#gencl-gradient-31"/>
    <linearGradient id="gencl-gradient-62" x1="518.34" y1="229.47" x2="515.02" y2="236.1" gradientTransform="matrix(1, 0, 0, 1, 0, 0)" xlink:href="#gencl-gradient-31"/>
    <linearGradient id="gencl-gradient-63" x1="484.23" y1="304.67" x2="519.52" y2="264.9" gradientTransform="matrix(1, 0, 0, 1, 0, 0)" xlink:href="#gencl-gradient-7"/>
    <linearGradient id="gencl-gradient-64" x1="490.6" y1="306.87" x2="523.34" y2="269.98" gradientTransform="matrix(1, 0, 0, 1, 0, 0)" xlink:href="#gencl-gradient-7"/>
    <linearGradient id="gencl-gradient-65" x1="497.67" y1="303.13" x2="520.22" y2="277.73" gradientTransform="matrix(1, 0, 0, 1, 0, 0)" xlink:href="#gencl-gradient-7"/>
    <linearGradient id="gencl-gradient-66" x1="502.43" y1="297.55" x2="520.96" y2="276.67" gradientTransform="matrix(1, 0, 0, 1, 0, 0)" xlink:href="#gencl-gradient-7"/>
    <linearGradient id="gencl-gradient-67" x1="127.47" y1="421.76" x2="147.19" y2="421.76" xlink:href="#gencl-gradient-48"/>
    <linearGradient id="gencl-gradient-68" x1="136.64" y1="445.62" x2="150.85" y2="445.62" gradientTransform="matrix(1, 0, 0, 1, 0, 0)" xlink:href="#gencl-gradient-8"/>
    <linearGradient id="gencl-gradient-69" x1="257.1" y1="249.87" x2="272.46" y2="249.87" gradientTransform="matrix(1, 0.08, -0.08, 1, -125.81, 151.33)" xlink:href="#gencl-gradient-48"/>
    <linearGradient id="gencl-gradient-70" x1="263.66" y1="278.21" x2="273.29" y2="278.21" gradientTransform="matrix(1, 0.08, -0.08, 1, -125.81, 151.33)" xlink:href="#gencl-gradient-8"/>
    <linearGradient id="gencl-gradient-71" x1="141.06" y1="323.15" x2="111.36" y2="410.76" gradientTransform="matrix(1, 0, 0, 1, 0, 0)" xlink:href="#gencl-gradient-31"/>
    <linearGradient id="gencl-gradient-72" x1="132.81" y1="320.35" x2="103.11" y2="407.97" gradientTransform="matrix(1, 0, 0, 1, 0, 0)" xlink:href="#gencl-gradient-31"/>
    <linearGradient id="gencl-gradient-73" x1="113.63" y1="366.22" x2="133.09" y2="366.22" gradientTransform="matrix(1, 0, 0, 1, 0, 0)" xlink:href="#gencl-gradient-7"/>
    <linearGradient id="gencl-gradient-74" x1="128.63" y1="331.69" x2="131.87" y2="315.33" xlink:href="#gencl-gradient-48"/>
    <linearGradient id="gencl-gradient-75" x1="130.75" y1="408.56" x2="173.96" y2="403.56" gradientTransform="matrix(1, 0, 0, 1, 0, 0)" xlink:href="#gencl-gradient-31"/>
    <linearGradient id="gencl-gradient-76" x1="187.92" y1="442.27" x2="186.06" y2="465.43" gradientTransform="matrix(1, 0, 0, 1, 0, 0)" xlink:href="#gencl-gradient-7"/>
    <linearGradient id="gencl-gradient-77" x1="169.33" y1="448.04" x2="204.7" y2="448.04" gradientTransform="matrix(1, 0, 0, 1, 0, 0)" xlink:href="#gencl-gradient-8"/>
    <linearGradient id="gencl-gradient-78" x1="117.91" y1="402.89" x2="174.97" y2="402.89" gradientTransform="matrix(1, 0, 0, 1, 0, 0)" xlink:href="#gencl-gradient-8"/>
    <linearGradient id="gencl-gradient-79" x1="172.83" y1="426.94" x2="173.25" y2="460.87" gradientTransform="matrix(1, 0, 0, 1, 0, 0)" xlink:href="#gencl-gradient-5"/>
    <linearGradient id="gencl-gradient-80" x1="168.25" y1="460.5" x2="174.08" y2="436.77" gradientTransform="matrix(1, 0, 0, 1, 0, 0)" xlink:href="#gencl-gradient-5"/>
    <linearGradient id="gencl-gradient-81" x1="106.38" y1="342.72" x2="127.65" y2="342.72" xlink:href="#gencl-gradient-48"/>
    <linearGradient id="gencl-gradient-82" x1="137.04" y1="322.66" x2="139.44" y2="291.04" xlink:href="#gencl-gradient-48"/>
    <linearGradient id="gencl-gradient-83" x1="80.83" y1="308.28" x2="146.43" y2="308.28" gradientTransform="matrix(1, 0, 0, 1, 0, 0)" xlink:href="#gencl-gradient-8"/>
    <linearGradient id="gencl-gradient-84" x1="129.2" y1="302.49" x2="140.81" y2="302.49" gradientTransform="matrix(1, 0, 0, 1, 0, 0)" xlink:href="#gencl-gradient-31"/>
    <linearGradient id="gencl-gradient-85" x1="139.43" y1="299.05" x2="146.75" y2="299.05" gradientTransform="matrix(1, 0, 0, 1, 0, 0)" xlink:href="#gencl-gradient-31"/>
    <linearGradient id="gencl-gradient-86" x1="141.45" y1="287.36" x2="137.2" y2="301.14" gradientTransform="matrix(1, 0, 0, 1, 0, 0)" xlink:href="#gencl-gradient-31"/>
    <linearGradient id="gencl-gradient-87" x1="144.34" y1="288.25" x2="140.09" y2="302.03" gradientTransform="matrix(1, 0, 0, 1, 0, 0)" xlink:href="#gencl-gradient-31"/>
    <linearGradient id="gencl-gradient-88" x1="140.15" y1="293.81" x2="137.19" y2="309.01" gradientTransform="matrix(1, 0, 0, 1, 0, 0)" xlink:href="#gencl-gradient-31"/>
  </defs>
  <title>graphics</title>
  <g>
    <g class="gencl-3">
      <path class="gencl-4" d="M344.15,451.09s-229.18,2.73-293-58.61S11.33,270,60.21,252.67,117.42,217.33,91.12,193s-59.7-74.18-4.24-124.3S205.63,90.6,255.2,81s29.94-41.76,95.13-19.53S401.14,19,453.55,13.14s47,67.34,100.95,39.7,98-23.82,121.17,20.07,13.11,103-37.74,138.23S592.55,244,611.55,278.58s36,148.46-50.46,164.72S344.15,451.09,344.15,451.09Z"/>
      <path class="gencl-5" d="M352.55,446.75S146.45,449.15,89,395.24,53.24,287.58,97.2,272.35s51.45-31.06,27.8-52.42-53.69-65.2-3.81-109.26S228,129.9,272.55,121.49s26.93-36.7,85.55-17.16S403.8,67,450.93,61.81s42.3,59.19,90.78,34.9,88.13-20.94,109,17.64,11.79,90.53-33.94,121.5S575.93,264.7,593,295.13s32.41,130.48-45.38,144.77S352.55,446.75,352.55,446.75Z"/>
    </g>
    <g>
      <path class="gencl-6" d="M493.72,94.47a11.5,11.5,0,0,0-19.17-6.38C375.19,180.35,315,360.42,315,360.42,519.25,334.79,504.48,154.45,493.72,94.47Z"/>
      <g class="gencl-3">
        <path class="gencl-7" d="M315,360.42S375.19,180.35,474.55,88.09a11.5,11.5,0,0,1,19.17,6.38C504.48,154.45,519.25,334.79,315,360.42Z"/>
        <path class="gencl-8" d="M334.44,350.2a.5.5,0,0,0,.58.82c19.83-12.15,97.79-73.58,136.49-206.52a.35.35,0,0,0-.66-.24C459,174.82,411.72,287.17,334.44,350.2Z"/>
      </g>
    </g>
    <g>
      <path class="gencl-6" d="M562.05,203a7.66,7.66,0,0,0-13.74-2.5c-11.32,16.63-39,44-105.95,71.54-107.19,44.12-77.71,167.82-77.71,167.82C583,378.36,574,250.75,562.05,203Z"/>
      <g class="gencl-3">
        <path class="gencl-9" d="M364.65,439.83S335.17,316.13,442.36,272c67-27.57,94.63-54.91,105.95-71.54a7.66,7.66,0,0,1,13.74,2.5C574,250.75,583,378.36,364.65,439.83Z"/>
        <path class="gencl-8" d="M526.22,263.68a.42.42,0,0,1,.77.33c-6.48,18.34-43.1,92.86-145.09,147.77-.32.17-.62-.3-.31-.5C404.52,396.25,488.16,337.92,526.22,263.68Z"/>
      </g>
    </g>
    <g>
      <path class="gencl-6" d="M88.83,289.33A7.72,7.72,0,0,0,77,295.87c.2,40.87,12.39,161.63,150.22,153.69C227.18,449.56,165.59,338.1,88.83,289.33Z"/>
      <g class="gencl-3">
        <path class="gencl-10" d="M227.18,449.56S165.59,338.1,88.83,289.33A7.72,7.72,0,0,0,77,295.87C77.16,336.74,89.35,457.5,227.18,449.56Z"/>
        <path class="gencl-8" d="M213.14,445.18a.34.34,0,0,1-.29.61c-14.55-5.6-73.45-36.64-115.15-119.62a.23.23,0,0,1,.4-.24C109.63,344.65,154.49,413,213.14,445.18Z"/>
      </g>
    </g>
    <g>
      <rect class="gencl-6" x="421.45" y="192" width="65.57" height="259.7" rx="9.07"/>
      <g class="gencl-3">
        <rect class="gencl-11" x="421.45" y="192" width="65.57" height="259.7" rx="9.07"/>
        <circle class="gencl-12" cx="455.47" cy="242.28" r="20.71" transform="translate(-15.2 453.53) rotate(-52.18)"/>
      </g>
    </g>
    <g>
      <path class="gencl-6" d="M549.31,344.46c-89.88,13.9-191,91.32-191,91.32C481.4,498.31,541,392.58,557.56,355.21A7.72,7.72,0,0,0,549.31,344.46Z"/>
      <g class="gencl-3">
        <path class="gencl-13" d="M358.32,435.78s101.11-77.42,191-91.32a7.72,7.72,0,0,1,8.25,10.75C541,392.58,481.4,498.31,358.32,435.78Z"/>
        <path class="gencl-8" d="M372.94,437.4a.34.34,0,0,0,0,.67c15.58.7,82-4.12,153.47-63.42a.24.24,0,0,0-.28-.38C508.07,386.8,439.57,431.43,372.94,437.4Z"/>
      </g>
    </g>
    <g>
      <path class="gencl-6" d="M660.8,357.61a2.5,2.5,0,0,0-1.71-.63H619.94V331.24a9.87,9.87,0,0,0-9.88-9.87H576a9.87,9.87,0,0,0-9.87,9.87V357h-131a2.8,2.8,0,0,0-2.15.92,1.6,1.6,0,0,0-.16,1.9l2.42,4.09a3.57,3.57,0,0,0,3.09,1.54h16.94L470.91,401,449.72,449.2a1.76,1.76,0,0,0,.95,2.34,1.82,1.82,0,0,0,2.39-.93l19.84-45.15,19.83,45.15a1.82,1.82,0,0,0,2.39.93,1.75,1.75,0,0,0,.95-2.34L474.88,401l15.6-35.52h75.68v2.7A9.87,9.87,0,0,0,576,378h7.68v12.19H562.32a5.93,5.93,0,0,0-5.91,5.91v5.35a5.93,5.93,0,0,0,5.91,5.91h16v12.29h5.57v17.93H565.71a3.1,3.1,0,0,0-2.85,1.86,4.32,4.32,0,1,0,4.21,1.71h4.66a4.25,4.25,0,0,0-.83,2.52,4.31,4.31,0,1,0,7.79-2.52h4.65a4.3,4.3,0,1,0,7.79,2.52,4.25,4.25,0,0,0-.83-2.52H595a4.25,4.25,0,0,0-.83,2.52,4.31,4.31,0,1,0,7.79-2.52h4.65a4.3,4.3,0,1,0,7,4.93l-1.37,3.12a1.76,1.76,0,0,0,1,2.34,1.82,1.82,0,0,0,2.39-.93l19.84-45.15,19.83,45.15a1.82,1.82,0,0,0,2.39.93,1.75,1.75,0,0,0,1-2.34L637.41,401,653,365.43h4.54a2.49,2.49,0,0,0,2.53-1.62l1.18-4.77A1.45,1.45,0,0,0,660.8,357.61ZM472.9,396.44l-13.63-31h27.25Zm141.31,48.29a4.11,4.11,0,0,0,.15-1.06,4.29,4.29,0,0,0-4-4.27,3.28,3.28,0,0,0-2.93-1.82h-18V419.65H595V407.36h16a5.93,5.93,0,0,0,5.91-5.91V396.1a5.93,5.93,0,0,0-5.91-5.91H600.35V378h9.71a9.87,9.87,0,0,0,9.72-8.16L633.44,401Zm21.22-48.29-13.63-31h27.25Z"/>
      <g class="gencl-3">
        <g>
          <rect class="gencl-14" x="583.71" y="373.74" width="16.64" height="20.47"/>
          <rect class="gencl-15" x="583.92" y="394.21" width="5.5" height="45.8"/>
          <path class="gencl-16" d="M565.71,437.58h41.75a3.29,3.29,0,0,1,3.29,3.29v.29a0,0,0,0,1,0,0H562.6a0,0,0,0,1,0,0v-.47a3.11,3.11,0,0,1,3.11-3.11Z"/>
          <rect class="gencl-17" x="578.35" y="394.21" width="16.65" height="25.44"/>
          <rect class="gencl-18" x="556.41" y="390.19" width="60.53" height="17.17" rx="5.91"/>
          <rect class="gencl-19" x="566.16" y="321.37" width="53.78" height="56.63" rx="9.87"/>
          <path class="gencl-20" d="M567.9,443.67a4.31,4.31,0,1,1-4.31-4.31A4.3,4.3,0,0,1,567.9,443.67Z"/>
          <circle class="gencl-21" cx="575.21" cy="443.67" r="4.31"/>
          <circle class="gencl-22" cx="586.82" cy="443.67" r="4.31"/>
          <path class="gencl-23" d="M602.74,443.67a4.31,4.31,0,1,1-4.3-4.31A4.29,4.29,0,0,1,602.74,443.67Z"/>
          <path class="gencl-24" d="M614.36,443.67a4.31,4.31,0,1,1-4.31-4.31A4.3,4.3,0,0,1,614.36,443.67Z"/>
        </g>
        <g>
          <g>
            <path class="gencl-25" d="M451.39,451.69a1.82,1.82,0,0,1-.72-.15,1.76,1.76,0,0,1-.95-2.34l38.18-86.92a1.84,1.84,0,0,1,2.39-.93,1.76,1.76,0,0,1,.95,2.34l-38.18,86.92A1.82,1.82,0,0,1,451.39,451.69Z"/>
            <path class="gencl-26" d="M494.4,451.69a1.82,1.82,0,0,1-1.67-1.08l-38.18-86.92a1.77,1.77,0,0,1,.95-2.34,1.84,1.84,0,0,1,2.39.93l38.18,86.92a1.75,1.75,0,0,1-.95,2.34A1.82,1.82,0,0,1,494.4,451.69Z"/>
            <path class="gencl-27" d="M613.92,451.69a1.82,1.82,0,0,1-.72-.15,1.76,1.76,0,0,1-1-2.34l38.18-86.92a1.84,1.84,0,0,1,2.39-.93,1.77,1.77,0,0,1,1,2.34l-38.19,86.92A1.81,1.81,0,0,1,613.92,451.69Z"/>
            <path class="gencl-28" d="M656.93,451.69a1.82,1.82,0,0,1-1.67-1.08l-38.18-86.92a1.77,1.77,0,0,1,.95-2.34,1.84,1.84,0,0,1,2.39.93l38.19,86.92a1.77,1.77,0,0,1-1,2.34A1.82,1.82,0,0,1,656.93,451.69Z"/>
          </g>
          <path class="gencl-29" d="M661.26,359a1.45,1.45,0,0,0-.46-1.43,2.5,2.5,0,0,0-1.71-.63H435.17a2.8,2.8,0,0,0-2.15.92,1.6,1.6,0,0,0-.16,1.9l2.42,4.09a3.57,3.57,0,0,0,3.09,1.54H657.55a2.49,2.49,0,0,0,2.53-1.62Z"/>
        </g>
      </g>
    </g>
    <g>
      <path class="gencl-6" d="M203,138.78a11.21,11.21,0,0,0-19.5-2.59c-35,47.92-124.68,199.47,43.14,308.85C226.65,445,250.68,261.83,203,138.78Z"/>
      <g class="gencl-3">
        <path class="gencl-30" d="M226.65,445s24-183.21-23.64-306.26a11.21,11.21,0,0,0-19.5-2.59C148.55,184.11,58.83,335.66,226.65,445Z"/>
        <path class="gencl-8" d="M214,427.84a.49.49,0,0,1-.86.47c-12.18-19.07-54.24-106-31.51-238.87a.34.34,0,0,1,.68.07C179.68,221.3,173.23,339.77,214,427.84Z"/>
      </g>
    </g>
    <g>
      <rect class="gencl-6" x="352.34" y="192" width="65.57" height="259.7" rx="9.07"/>
      <g class="gencl-3">
        <rect class="gencl-31" x="352.34" y="192" width="65.57" height="259.7" rx="9.07"/>
        <circle class="gencl-32" cx="386.36" cy="242.28" r="20.71" transform="translate(16.27 508.75) rotate(-67.85)"/>
      </g>
    </g>
    <g>
      <g class="gencl-33">
        <polygon class="gencl-34" points="407.23 87.47 407.23 92.51 560.84 144.44 560.84 35.53 407.23 87.47"/>
      </g>
      <path class="gencl-6" d="M412,74.09l-24.76-3.2-89.51-2a17.36,17.36,0,0,0-11,3.63l-38.4,29.71a17.39,17.39,0,0,0-6.53,11l-.89,5.61a17.38,17.38,0,0,0,14,19.82l21.79,4h-5.79a4.78,4.78,0,0,0-4.77,4.48l-1.52,23.87a4.78,4.78,0,0,0,4.77,5.08h5.4v3.93a21,21,0,0,0-10.07,6.72c-50.13,64.46-94,180.23-56.21,257.33,3.14,6.42,11.46,10.67,20.72,10.67H372c9.61,0,18.12-4.58,21-11.33,6.73-15.6,17.45-45.81,18.08-81.19.46-26.25-13.23-51.56-38-70.4l-30-22.76c-4-3.07-6.29-7.2-6.23-11.49l.89-62.55a13.71,13.71,0,0,0-4.67-10.18A23.83,23.83,0,0,0,321,179.14v-3h5.45a4.77,4.77,0,0,0,4.77-5L330,147.25a4.78,4.78,0,0,0-4.77-4.53H321l6.79-20.19,24.91,9.61a4.55,4.55,0,0,1,2.86,3.56c4.58,30.54,30.05,52.42,39.51,59.6a4.57,4.57,0,0,0,6.18-6.68c-16.95-19.5-19-57.62-18.84-78.18l4.83-.79,24.23-3.84a6.08,6.08,0,0,0,5.11-5.77l.69-19.73A6.05,6.05,0,0,0,412,74.09Z"/>
      <g class="gencl-3">
        <g>
          <rect class="gencl-35" x="274.8" y="168.33" width="46.23" height="15.65" transform="translate(595.83 352.31) rotate(180)"/>
          <path class="gencl-36" d="M264.73,186.8c-50.13,64.46-94,180.23-56.21,257.33,3.14,6.42,11.46,10.67,20.72,10.67H372c9.61,0,18.12-4.58,21-11.33,6.73-15.6,17.45-45.81,18.08-81.19.46-26.25-13.23-51.56-38-70.4l-30-22.76c-4-3.07-6.29-7.2-6.23-11.49l.89-62.55a13.71,13.71,0,0,0-4.67-10.18h0c-4.18-4-10.6-6.26-17.4-6.26H283.86C276,178.64,268.65,181.75,264.73,186.8Z"/>
          <path class="gencl-37" d="M269.4,176.15h57.08a4.77,4.77,0,0,0,4.77-5L330,147.25a4.78,4.78,0,0,0-4.77-4.53H270.92a4.78,4.78,0,0,0-4.77,4.48l-1.52,23.87A4.78,4.78,0,0,0,269.4,176.15Z"/>
          <path class="gencl-38" d="M382.75,100.22c-.76,14.14-1.93,64.85,18.53,88.4a4.59,4.59,0,0,1,.09,6h0a4.58,4.58,0,0,1-6.27.72c-9.46-7.18-34.93-29.06-39.51-59.6a4.55,4.55,0,0,0-2.86-3.56l-30.82-11.89a4.57,4.57,0,0,1-1.15-7.88c10.47-8.07,33.29-22.31,58.39-16.87A4.57,4.57,0,0,1,382.75,100.22Z"/>
          <path class="gencl-39" d="M387.27,70.89v38.76l24.23-3.84a6.08,6.08,0,0,0,5.11-5.77l.69-19.73A6.05,6.05,0,0,0,412,74.09Z"/>
          <path class="gencl-40" d="M286.73,72.52l-38.4,29.71a17.39,17.39,0,0,0-6.53,11l-.89,5.61a17.38,17.38,0,0,0,14,19.82l21.79,4H321l6.79-20.19,42-10,17.43-2.85V70.89l-89.51-2A17.36,17.36,0,0,0,286.73,72.52Z"/>
          <path class="gencl-41" d="M296.76,83.86l-10.25,45.42a8.08,8.08,0,0,1-9.16,6.2l-19.12-3a8.08,8.08,0,0,1-6.82-8v-6.2a8.09,8.09,0,0,1,3.15-6.4l39-30A2,2,0,0,1,296.76,83.86Z"/>
          <rect class="gencl-42" x="270.39" y="146.81" width="3.2" height="25.61" rx="1.47"/>
          <rect class="gencl-43" x="277.85" y="146.81" width="3.2" height="25.61" rx="1.47"/>
          <rect class="gencl-44" x="285.32" y="146.81" width="3.2" height="25.61" rx="1.47"/>
          <rect class="gencl-45" x="292.79" y="146.81" width="3.2" height="25.61" rx="1.47"/>
          <rect class="gencl-46" x="300.26" y="146.81" width="3.2" height="25.61" rx="1.47"/>
          <rect class="gencl-47" x="307.73" y="146.81" width="3.2" height="25.61" rx="1.47"/>
          <rect class="gencl-48" x="315.2" y="146.81" width="3.2" height="25.61" rx="1.47"/>
          <rect class="gencl-49" x="322.66" y="146.81" width="3.2" height="25.61" rx="1.47"/>
          <path class="gencl-50" d="M244.3,297.1c-7.82,20.4-18.89,57.89-16.66,102.42a23.41,23.41,0,0,0,23.4,22.2H353.17a23.44,23.44,0,0,0,23-18.92l8.51-43.39a23.41,23.41,0,0,0-8.61-23c-20-15.53-63.34-46-105.47-53.92A23.47,23.47,0,0,0,244.3,297.1Z"/>
        </g>
      </g>
    </g>
    <g>
      <path class="gencl-6" d="M548.52,235.67c-1.92-.81-4,2.34-6,1.45s-.66-4.77-2.75-6.45c-2.84-2.3-10.94.4-15.49,5.65-1.58,1.81-2.61,3.78-3.65,4.86a17.88,17.88,0,0,0-1.25-1.64c-.62-.83-1-1.52-1.42-2.11a2.41,2.41,0,0,0,.4-1.8c5.31,0,3.67-3.38,3.67-3.38a7.17,7.17,0,0,0-3.55.76c.06-1.1-.34-2.62-1.75-4.73a6.23,6.23,0,0,0-.85,5.53,1.71,1.71,0,0,0-1.13,1.09c-2.65-.66-4-2-6.62,2h0a2.37,2.37,0,0,0-.83.31c-.25.15-7.91,3.32-6.26,11.27a1.48,1.48,0,0,0,.85,1.06,12.64,12.64,0,0,0,2.3.77c-.68,2-2.28,6.86-2.24,6.91-3-.66-5.62-1.35-6.88-1.7a.9.9,0,0,0-1,.4c-14.85-9.37-13.93-26.24-13.93-26.24l2.32-1.92-1,.08a2.92,2.92,0,0,1-.51,0c1.48-.48,2.78-.5,4.37-1,2.91-.91-3-3.49-1.57-7.35s-4.67-5.44-8.42-4.27c-17.76,5.58-2.67,18.7,1.25,15.26a2.84,2.84,0,0,1,.69,1.91c-.48,21.51,11,31,13.66,32.93a1.64,1.64,0,0,0,.68,1.72l.61.41c-.44,1.31-1,2.68-.24,3.83a80.57,80.57,0,0,1,5.34,10.14l-.19,0,.08,2.65a2.09,2.09,0,0,1,0,.21c-.44,1.38-3.72,11.94-3.16,21.51a3.21,3.21,0,0,0,2.12,2.83c.38.13.84.27,1.35.41.2,1.29.42,2.63.67,4h0s7.5,36.28,9.62,43.35l-5,3.15h0l-2.44,1.39a.42.42,0,0,0,.22.79c3.42,0,11.08-.14,11.76-.42.88-.37-.32-3.53-1.58-4.6l-.6-1s-1.47-28.09-1.5-37.51a22.49,22.49,0,0,0,3.93-.93c3.14,6.76,11.57,24.71,16.46,33.12,0,0,1.21,6.59,0,8.66l-1,.46s-2,.2-2.05,1.24c0,.12,3.75.07,5.8,0a1.64,1.64,0,0,0,1.56-1.28l1.54-8.11a1.46,1.46,0,0,0-1.11-1.7l-.86-.19a2.57,2.57,0,0,0-.19.29,1.4,1.4,0,0,0-.79-.25s-2.06-16.34-8-19.82l-4.66-16.05.33-.25s-2.59-22.71-3.3-23.76l-.16-.24a3.88,3.88,0,0,0,1-2.43c.36-3.67-5-3.79-6.36-3.76l-.52-3.33-.08,0v-.11l1.87-10.57c12.49,6.22,14.27,19.52,14.27,19.52l-1.7,2,.82-.23a2.91,2.91,0,0,1,3.18,1.14l1.9,2.74a5.09,5.09,0,0,0,2.49,1.89l.31.11a.75.75,0,0,0,1-.67l.08-1.5a4.94,4.94,0,0,0-1.86-4.17l-3.32-2.65a2.48,2.48,0,0,1-.91-1.54c-2.68-16.16-11.6-23.09-15.7-25.47a3.91,3.91,0,0,0-2.87-1.94h0l-.84-5.09a3.81,3.81,0,0,0,4,0h0l0,0,0,0,4.52-2.65a2.83,2.83,0,0,0,3.66-.5,20.47,20.47,0,0,0,2.73,4.43c1.43,1.6,4.77,5.32,9.69,5.33,4.41,0,9.33-3,9.52-6.14.21-3.41-5.2-5.69-4.52-7.26.79-1.81,7.83,1.44,10.82-1.62C551.76,242.55,550.77,236.62,548.52,235.67Zm-33.46,50.6s.5,1.1-.11,1.62a20,20,0,0,0-4.09-4.29Z"/>
      <g class="gencl-3">
        <path class="gencl-51" d="M516.4,239.22c.21-.1,1,2.54,2.58,2.75,1.79.23,2.94-2.91,5.33-5.65,4.55-5.25,12.65-7.95,15.49-5.65,2.09,1.68.68,5.52,2.75,6.45s4.05-2.26,6-1.45c2.25,1,3.24,6.88.81,9.36-3,3.06-10-.19-10.82,1.62-.68,1.57,4.73,3.85,4.52,7.26-.19,3.15-5.11,6.14-9.52,6.14-4.92,0-8.26-3.73-9.69-5.33s-2.4-3.69-4.52-8.07C517.07,242,516.18,239.33,516.4,239.22Z"/>
        <path class="gencl-52" d="M475.4,215.24c3.75-1.17,9.87.41,8.42,4.27s4.48,6.44,1.57,7.35-4.83.21-8.74,3.64S457.64,220.82,475.4,215.24Z"/>
        <path class="gencl-53" d="M511.32,314.65s11.6,25.29,17.69,35.77c0,0,1.21,6.59,0,8.66l-1,.46,4.81-.14s.43-8.87.1-9.36a1.25,1.25,0,0,0-1-.47s-2.06-16.34-8-19.82l-5.79-19.94Z"/>
        <path class="gencl-54" d="M525.93,360.78c0,.12,3.75.07,5.8,0a1.64,1.64,0,0,0,1.56-1.28l1.54-8.11a1.46,1.46,0,0,0-1.11-1.7l-.86-.19a4.59,4.59,0,0,0-.84,3.27c.39,1.59.73,5.7-.25,6.18a14.21,14.21,0,0,1-3.79.56S526,359.74,525.93,360.78Z"/>
        <path class="gencl-55" d="M500.32,360.93a.42.42,0,0,0,.22.79c3.42,0,11.08-.14,11.76-.42.88-.37-.32-3.53-1.58-4.6l-7,2.28Z"/>
        <path class="gencl-56" d="M498.16,313s7.5,36.28,9.62,43.35l-5,3.15s2.51-.43,4.38-.56,3.58-2.28,3.58-2.28l-.6-1s-1.88-36.08-1.43-40.17Z"/>
        <path class="gencl-57" d="M480.16,229.68s-1,17.92,15.34,27.08l-3.93,9s-14.78-8.93-14.23-33.31a2.84,2.84,0,0,0-.69-1.91l-3.14-3.64a5.61,5.61,0,0,1-1.2-5.05l.41-1.65a.86.86,0,0,1,1.26-.53l.33.19a5.66,5.66,0,0,1,2.37,2.63l1.54,3.45a3.32,3.32,0,0,0,3.31,1.94l1-.08Z"/>
        <path class="gencl-58" d="M526.19,288.79s-2.08-15.7-17.72-21l1.93-8.41s14.27,5.33,17.79,26.53a2.48,2.48,0,0,0,.91,1.54l3.32,2.65a4.94,4.94,0,0,1,1.86,4.17l-.08,1.5a.75.75,0,0,1-1,.67l-.31-.11a5.09,5.09,0,0,1-2.49-1.89l-1.9-2.74a2.91,2.91,0,0,0-3.18-1.14l-.82.23Z"/>
        <path class="gencl-59" d="M495.09,255.52a105.71,105.71,0,0,0,14.46,3,4,4,0,0,1,3.45,4.66l-2.95,16.65.3,3.43-12.17,0s-3.43-8-6.13-11.92c-.78-1.15-.2-2.52.24-3.83l-.61-.41a1.65,1.65,0,0,1-.65-1.89l3-9.06A.9.9,0,0,1,495.09,255.52Z"/>
        <path class="gencl-60" d="M497.2,281.42l.24,2.08s-3.44,10.3,1.72,34.36c0,0,11.17,3.16,20.36-4.41,0,0-2.59-22.71-3.3-23.76-3.53-5.27-5.87-6.42-5.87-6.42l-.11-2.27S500.42,282.77,497.2,281.42Z"/>
        <path class="gencl-61" d="M502,257.22c-.05-.06,2.54-7.8,2.54-7.8l3.7.33,1.44,8.79S503.85,259.71,502,257.22Z"/>
        <path class="gencl-62" d="M507.32,237.21c-.25.15-7.91,3.32-6.26,11.27a1.48,1.48,0,0,0,.85,1.06,13,13,0,0,0,6.44,1.07c4-.41,6.64-7.41,6.53-9.45S509.77,235.68,507.32,237.21Z"/>
        <path class="gencl-63" d="M508.16,246.16s-3.93,2.41-.65,6.17,7.27.45,7.27-1.54,1.32-.66,2.65,0,4.63,1.47,4.63-4.63a9.41,9.41,0,0,0-2.65-6.62c-2-2.65-2-4-4.63-4.64s-4-2-6.62,2,0,3.31,2,5.3S508.16,246.16,508.16,246.16Z"/>
        <path class="gencl-64" d="M516.39,235.57s-10.81,5.39-3.56,17.92l4.6-2.7S512.71,240.21,516.39,235.57Z"/>
        <path class="gencl-65" d="M514.78,234.9s.66-2,2.65-.66.66,4-.67,4S514.78,234.9,514.78,234.9Z"/>
        <path class="gencl-66" d="M516.76,235.57s0-3.32,5.3-3.32C522.06,232.25,524.05,236.23,516.76,235.57Z"/>
        <path class="gencl-67" d="M516.76,228.28a6.24,6.24,0,0,0,0,7.29S520.74,234.24,516.76,228.28Z"/>
        <path class="gencl-68" d="M497.2,281.42l.08,2.7s7.45,1.35,13.41-.64l-.55-3.55S501.17,282.08,497.2,281.42Z"/>
        <path class="gencl-69" d="M494.07,305.79a3.21,3.21,0,0,0,2.12,2.83,23.87,23.87,0,0,0,4.68,1.1c4.64.66,2.65-26.45,2.65-26.45l-6.24.85S493.47,295.52,494.07,305.79Z"/>
        <path class="gencl-70" d="M508.65,283.27s-1.78,9.26,1.67,10.32,3.28-1.85,3.55-2.49-4.22-7.83-4.22-7.83,3,7.94,1.67,8.43S508.65,283.27,508.65,283.27Z"/>
        <path class="gencl-71" d="M510.35,283.27s7.09-.44,6.67,3.75-4,3.1-4,3.1l-4.41-6.85h1s2.72,5,4.48,4.89.93-1.89.93-1.89Z"/>
        <path class="gencl-72" d="M523.14,240.81a17.79,17.79,0,0,1,4.85-4.5,11.69,11.69,0,0,1,3-1.41,5.1,5.1,0,0,1,3.36.07,7.77,7.77,0,0,1,2.7,2,31.81,31.81,0,0,0,2.3,2.34,4.6,4.6,0,0,0,2.9,1.19,4,4,0,0,0,2.88-1.24l.11.1a4.19,4.19,0,0,1-3,1.4,4.84,4.84,0,0,1-3.12-1.2,30.67,30.67,0,0,1-2.36-2.34,7.39,7.39,0,0,0-2.57-1.89,4.83,4.83,0,0,0-3.12-.07,11.39,11.39,0,0,0-3,1.35,18.85,18.85,0,0,0-4.92,4.29Z"/>
        <path class="gencl-72" d="M523.46,241.67a7.66,7.66,0,0,1,1.92-1.89,9.3,9.3,0,0,1,2.47-1.16,8.84,8.84,0,0,1,5.43.14c1.79.62,3.12,1.92,4.52,2.91a7.65,7.65,0,0,0,2.27,1.17,4.09,4.09,0,0,0,2.52,0l.06.14a4.21,4.21,0,0,1-2.69.25,8,8,0,0,1-2.5-1.09c-1.53-1-2.83-2.18-4.44-2.7a8.89,8.89,0,0,0-5-.24,8.54,8.54,0,0,0-2.38.93,8.3,8.3,0,0,0-2,1.59Z"/>
        <path class="gencl-72" d="M523.47,243a5.81,5.81,0,0,1,3.45-1.78,8,8,0,0,1,3.94.39,10.73,10.73,0,0,1,1.8.8c.58.32,1.11.69,1.62,1a5.71,5.71,0,0,0,3.34,1.32l0,.15a3.34,3.34,0,0,1-2,0,8.33,8.33,0,0,1-1.8-.79,19.6,19.6,0,0,0-3.32-1.63A8.92,8.92,0,0,0,527,242a6.89,6.89,0,0,0-3.44,1.15Z"/>
      </g>
    </g>
    <g>
      <path class="gencl-6" d="M197.68,443.66H178.47a6,6,0,0,0-5.47-8.54,6.37,6.37,0,0,0-1.39.17l-35.84-70.6a3.41,3.41,0,0,0-2.77-1.84l-3.47-.27L127.85,355l.49-.57v0c.19-.22.45-.52.73-.86l.08-.09h0c3.12-3.72,10.84-13.06,11.09-14.94.28-2.08-1.07-10.65-1.39-12.68a2.08,2.08,0,0,1,0-.86l.11-.41a2.06,2.06,0,0,0-1.64-2.56l-1.78-.3,1.53-4.89a6,6,0,0,0,2.61.45C143.6,317,145,305,145,305a4.54,4.54,0,0,0-.06-.64,4.24,4.24,0,0,0,1.24-1.74,4,4,0,0,0,.19-1,2.92,2.92,0,0,0-.33-3.26,8.27,8.27,0,0,0-.79-.7,13.54,13.54,0,0,0-1.56-2.12c1.34-1.67,1-3.23-1.14-2.25a6.64,6.64,0,0,0-.76.44c-.35-.28-.72-.55-1.09-.8.22-1.15.06-1.75-1.06-.66a13.28,13.28,0,0,0-2.46-1.13c-7.36-2.45-15.52,2.71-17.4,3.89-4.94,3.12-7,6.62-9.21,5.73s-1.51-4.7-3.89-7.78c-4-5.21-16.49-7.55-22.71-.61-6.92,7.7-1.24,21.39,4.91,23.74,4.17,1.59,7.09-2.58,11.66-.61,5,2.16,3.74,8.19,9.21,11.46a10.41,10.41,0,0,0,2.28,1c-5.15,6.74-9.51,17-.37,27.41a16.93,16.93,0,0,0-5.31,10.79c-1,9.41,6.8,33.61,6.8,33.61l.88.24.06.41a29.63,29.63,0,0,0-4.22,13c-.49,7.37,5.87,28.79,5.87,28.79l-1.89,7.28.2-1.17a4.92,4.92,0,0,0-.6,4,8.31,8.31,0,0,0,5.11,2.38,5.71,5.71,0,0,0,4.22-2.15c0-3.11-1.47-4.15-1.47-4.15l-2.86-6.23c-1.71-13.13.32-31.69,1.64-41.39a46.67,46.67,0,0,0,8.83-.82c-5.39,18,5.55,35.21,8.34,39.19a2.92,2.92,0,0,1,.52,2l-.2,2.18a1.46,1.46,0,0,1-.28-.45,13.47,13.47,0,0,0-.69,3.27.91.91,0,0,0,.71.93c2.14.5,8.6,1.87,13.11,1.4a.43.43,0,0,0,.2-.79l-5-3.35.64.64a.41.41,0,0,1,.13.25l-6.1-5a2.9,2.9,0,0,1-1-1.52c-1.36-5.27-2.77-19.66-3.65-30,8.66,23.28,21.39,29.83,31.36,31.5a6.64,6.64,0,0,0-.09,1,6,6,0,0,0,4,5.65,7,7,0,0,0-1.06,2.63l-.55,3v2a1.81,1.81,0,0,0,1.81,1.81h31.75a1.81,1.81,0,0,0,1.81-1.81v-3.77A7,7,0,0,0,197.68,443.66ZM115.12,351.6c-2-5.07-2.33-11.74,3.32-18.75,0,.31.11.61.17.88C119.34,336.75,116.33,347.5,115.12,351.6Zm17.18,23.54-2.13-9.68.6.06a3.39,3.39,0,0,1,2.7,1.89l1.87,3.83A8.61,8.61,0,0,0,132.3,375.14Z"/>
      <g class="gencl-3">
        <path class="gencl-73" d="M134.82,397.37s2.32,32.66,4.54,41.23a2.9,2.9,0,0,0,1,1.52l6.85,5.62s-6.59,1.33-9.74-.81l.36-3.89a2.92,2.92,0,0,0-.52-2c-2.85-4.06-14.21-21.9-8-40.33Z"/>
        <path class="gencl-74" d="M137.33,442.77a13.47,13.47,0,0,0-.69,3.27.91.91,0,0,0,.71.93c2.14.5,8.6,1.87,13.11,1.4a.43.43,0,0,0,.2-.79l-5-3.35.64.64a.44.44,0,0,1-.35.75C143.45,445.36,137.94,444.58,137.33,442.77Z"/>
        <path class="gencl-75" d="M121.09,394.24s-5,29.35-2.61,47.86l3.7,8.07s-4.12,3.34-8.54.25l2.13-8.24s-6.36-21.42-5.87-28.79a29.63,29.63,0,0,1,4.22-13l-.85-6.26Z"/>
        <path class="gencl-76" d="M113.88,449.47a10.34,10.34,0,0,0,8,.1l-.57-1.24s1.44,1,1.47,4.15a5.71,5.71,0,0,1-4.22,2.15,8.31,8.31,0,0,1-5.11-2.38,4.92,4.92,0,0,1,.6-4Z"/>
        <path class="gencl-77" d="M127.85,355l8.4,43.1s-13.32,4.6-23.07,1.69c0,0-7.83-24.2-6.8-33.61a16.6,16.6,0,0,1,8.26-12.94Z"/>
        <path class="gencl-78" d="M121.05,319.88c2.53.23,10.06,1,16.32,2.09a2.06,2.06,0,0,1,1.64,2.56l-.11.41a2.08,2.08,0,0,0,0,.86c.32,2,1.67,10.6,1.39,12.68s-9.62,13.2-11.9,15.89a2,2,0,0,1-1.3.71c-2,.27-7.12.74-10.83-.94a2.08,2.08,0,0,1-1.12-2.47c1.19-4,4.24-14.9,3.51-17.94s-.87-9.83.38-12.68A2,2,0,0,1,121.05,319.88Z"/>
        <path class="gencl-79" d="M115.1,351.67l-1.47,2.05a9.63,9.63,0,0,0,6,3s-6.25,9.74-3.57,20.19a2.32,2.32,0,0,0,1.13,1.48,20.11,20.11,0,0,0,15,1.64,1.24,1.24,0,0,0,.9-1.47L127.85,355l1.31-1.54A38.28,38.28,0,0,1,115.1,351.67Z"/>
        <path class="gencl-80" d="M133.88,309.28l-9.11,11.78s5,4,10.63,1.23l2.88-9.24Z"/>
        <path class="gencl-81" d="M135.34,371.24s-10,5.55-1.16,33c9.92,30.86,26.48,35.84,37.37,36.36Z"/>
        <path class="gencl-82" d="M169.33,452.41H204.7a0,0,0,0,1,0,0v2a1.81,1.81,0,0,1-1.81,1.81H171.14a1.81,1.81,0,0,1-1.81-1.81v-2A0,0,0,0,1,169.33,452.41Z"/>
        <path class="gencl-83" d="M204.7,452.41H169.33l.55-3a7,7,0,0,1,6.91-5.77h20.89a7,7,0,0,1,7,7Z"/>
        <path class="gencl-84" d="M135.77,364.69,175,441.92,170.79,444l-37.32-76.58a3.39,3.39,0,0,0-2.7-1.89L119,364.28a1.25,1.25,0,0,1-1.09-1.49h0a1.24,1.24,0,0,1,1.32-1L133,362.85A3.41,3.41,0,0,1,135.77,364.69Z"/>
        <path class="gencl-85" d="M179,441.15a6,6,0,1,1-6-6A6,6,0,0,1,179,441.15Z"/>
        <path class="gencl-86" d="M177,441.15A3.95,3.95,0,1,1,173,437.2,3.95,3.95,0,0,1,177,441.15Z"/>
        <path class="gencl-87" d="M119.65,320.26s-29.6,22-.4,41.53a3.72,3.72,0,0,0,3.82,3.1c3.49.19,4.58.3,4.58.3s.22-5-4.09-4.19l-2.28-.22s-16.8-15.1,0-31C121.28,329.78,122.34,323.74,119.65,320.26Z"/>
        <path class="gencl-88" d="M145,305s-1.43,12.05-5.3,12.27-7.29-3.44-7.93-8,.4-10.36,6.84-9.86S145,305,145,305Z"/>
        <path class="gencl-89" d="M133.73,312c1.15,5.59-4.35,12.55-10.85,15.14-1.45.58-7.89,2.91-13.1-.2-5.47-3.27-4.17-9.3-9.21-11.46-4.57-2-7.49,2.2-11.66.61-6.15-2.35-11.83-16-4.91-23.74,6.22-6.94,18.69-4.6,22.71.61,2.38,3.08,1.59,6.87,3.89,7.78s4.27-2.61,9.21-5.73c1.88-1.18,10-6.34,17.4-3.89,5.43,1.81,10.33,7.74,9,11.46-1,2.9-5.71,4.06-8.8,4.1-5.67.05-4.4-.81-4.8-.24S132.71,307.07,133.73,312Z"/>
        <path class="gencl-90" d="M132,308.78s-2.34-10.82,8.77-11.59c0,0-6.6-3.35-10.29,2.34A6.53,6.53,0,0,0,132,308.78Z"/>
        <path class="gencl-91" d="M139.43,297.13s6.64,1.21,6.94,4.54c0,0,1-1.95-.3-3.33C142.73,294.91,139.43,297.13,139.43,297.13Z"/>
        <path class="gencl-92" d="M139,298s-2.58-2.43.52-5.6S139,298,139,298Z"/>
        <path class="gencl-93" d="M139.75,298a4.69,4.69,0,0,1,2.83-4.75C145.87,291.73,145,296.45,139.75,298Z"/>
        <path class="gencl-94" d="M139.2,296.28s2-1.34,1.88.22-1.31,2.91-2.13,2.46S137.31,296.07,139.2,296.28Z"/>
        <path class="gencl-95" d="M85.93,296.5a9.92,9.92,0,0,0,.78,8.49,9.71,9.71,0,0,0,7.1,4.51,31.48,31.48,0,0,0,4.44-.07,11.53,11.53,0,0,1,4.57.46,5.83,5.83,0,0,1,2,1.25A8.26,8.26,0,0,1,106.2,313c.75,1.34,1.25,2.77,2,4a14.82,14.82,0,0,0,6.29,6,12.59,12.59,0,0,0,8.58.92,11.19,11.19,0,0,0,7-5,10.61,10.61,0,0,0,1.11-8.55l.14,0a10.8,10.8,0,0,1-1,8.77,11.1,11.1,0,0,1-3,3.38,12.07,12.07,0,0,1-4.12,1.93,13.06,13.06,0,0,1-8.93-.85,15.14,15.14,0,0,1-6.58-6.17c-.77-1.33-1.27-2.75-2-4a7.59,7.59,0,0,0-1.29-1.72,5.24,5.24,0,0,0-1.78-1.11,10.85,10.85,0,0,0-4.31-.4,28.58,28.58,0,0,1-4.54.06,10.06,10.06,0,0,1-7.48-4.89,9.84,9.84,0,0,1-.47-8.82Z"/>
        <path class="gencl-95" d="M90.16,305.55a10.19,10.19,0,0,0,3.12.76c1.07.1,2.15.11,3.24.11a26,26,0,0,1,3.29.14,10.41,10.41,0,0,1,3.26.85,13,13,0,0,1,4.79,4.59,42.09,42.09,0,0,0,3.83,5.23,13.1,13.1,0,0,0,5.35,3.35,10.71,10.71,0,0,0,6.29.17,9.68,9.68,0,0,0,5.08-3.69A8.37,8.37,0,0,0,130,311l.15,0a8.58,8.58,0,0,1-1.45,6.3,9.81,9.81,0,0,1-5.22,4,11.3,11.3,0,0,1-6.59-.08,13.38,13.38,0,0,1-5.64-3.46,43,43,0,0,1-3.92-5.29,12.32,12.32,0,0,0-4.54-4.34c-1.89-.93-4.1-1-6.26-1.06a30.57,30.57,0,0,1-3.29-.26,9.61,9.61,0,0,1-3.13-1Z"/>
        <path class="gencl-95" d="M111.23,312.9a5.4,5.4,0,0,0,2,2.21,11,11,0,0,0,2.74,1.26,11.21,11.21,0,0,0,5.93.6,8.35,8.35,0,0,0,4.88-3.26,9.58,9.58,0,0,0,1.74-5.7h.16a9.76,9.76,0,0,1-.26,3.09,9.35,9.35,0,0,1-1.29,2.86,8.52,8.52,0,0,1-5.12,3.48,8.35,8.35,0,0,1-3.15.09,16.44,16.44,0,0,1-3-.78,10.93,10.93,0,0,1-2.8-1.39,5.6,5.6,0,0,1-2-2.4Z"/>
      </g>
    </g>
    <g>
      <path class="gencl-6" d="M597.48,143.15a.2.2,0,0,1-.11,0l-1.73-.65a.32.32,0,0,1-.18-.39.31.31,0,0,1,.4-.18l1.72.65a.3.3,0,0,1,.18.39A.29.29,0,0,1,597.48,143.15ZM591.73,141l-.11,0-1.73-.64a.31.31,0,0,1,.22-.58l1.72.64a.31.31,0,0,1,.18.4A.3.3,0,0,1,591.73,141ZM586,138.87l-.11,0-1.73-.64a.3.3,0,0,1-.18-.39.31.31,0,0,1,.4-.18l1.72.63a.32.32,0,0,1,.19.4A.32.32,0,0,1,586,138.87Zm-5.77-2.11-.1,0-1.73-.63a.3.3,0,1,1,.2-.57l1.74.62a.31.31,0,0,1,.18.4A.3.3,0,0,1,580.2,136.76Zm-5.77-2.08-.11,0-1.73-.62a.31.31,0,1,1,.21-.58l1.73.62a.31.31,0,0,1,.19.39A.32.32,0,0,1,574.43,134.68Zm-5.79-2.06-.1,0L566.8,132a.31.31,0,0,1-.18-.4.3.3,0,0,1,.39-.18l1.74.61a.31.31,0,0,1-.11.6Zm-5.79-2a.18.18,0,0,1-.1,0L561,130a.31.31,0,0,1-.19-.39.3.3,0,0,1,.39-.19l1.74.6a.32.32,0,0,1,.19.4A.3.3,0,0,1,562.85,130.58Zm-5.8-2-.1,0-1.74-.6a.3.3,0,0,1-.19-.39.31.31,0,0,1,.39-.19l1.74.6a.3.3,0,0,1,.19.39A.3.3,0,0,1,557.05,128.57Zm-5.81-2h-.1l-1.74-.6a.29.29,0,0,1-.19-.38.3.3,0,0,1,.38-.2l1.75.59a.3.3,0,0,1,.19.39A.3.3,0,0,1,551.24,126.58Zm-5.82-2-.09,0-1.75-.58a.3.3,0,0,1-.19-.39.29.29,0,0,1,.38-.19l1.75.58a.3.3,0,0,1,.19.39A.3.3,0,0,1,545.42,124.62Zm-5.82-1.94a.18.18,0,0,1-.1,0l-1.75-.57a.31.31,0,0,1,.19-.59l1.75.58a.31.31,0,0,1,.2.39A.3.3,0,0,1,539.6,122.68Zm-5.84-1.91-.09,0-1.75-.57a.31.31,0,0,1-.2-.39.3.3,0,0,1,.39-.19l1.75.57a.3.3,0,0,1,.2.38A.33.33,0,0,1,533.76,120.77Zm-5.84-1.9h-.09l-1.75-.56a.31.31,0,0,1,.18-.59l1.76.57a.3.3,0,0,1,.2.38A.32.32,0,0,1,527.92,118.87ZM522.07,117l-.09,0-1.75-.55a.3.3,0,0,1-.2-.39.3.3,0,0,1,.38-.2l1.76.56a.3.3,0,0,1,.2.38A.31.31,0,0,1,522.07,117Zm-5.85-1.84-.09,0-1.76-.55a.3.3,0,1,1,.18-.58l1.76.55a.3.3,0,0,1,.2.38A.31.31,0,0,1,516.22,115.17Zm-5.87-1.82-.09,0-1.76-.54a.3.3,0,1,1,.18-.58l1.76.54a.3.3,0,0,1,.21.38A.31.31,0,0,1,510.35,113.35Zm-5.87-1.8h-.09l-1.76-.53a.31.31,0,0,1-.2-.39.3.3,0,0,1,.38-.2l1.76.53a.32.32,0,0,1,.21.39A.31.31,0,0,1,504.48,111.55Zm-5.88-1.77h-.08l-1.77-.52a.32.32,0,0,1-.21-.39.31.31,0,0,1,.39-.2l1.76.52a.32.32,0,0,1,.21.39A.3.3,0,0,1,498.6,109.78ZM492.72,108h-.09l-1.77-.52a.32.32,0,0,1-.21-.38.31.31,0,0,1,.39-.21l1.76.52a.3.3,0,0,1,.21.38A.31.31,0,0,1,492.72,108Zm-5.9-1.72h-.08l-1.77-.52a.3.3,0,0,1-.21-.38.32.32,0,0,1,.38-.21l1.77.52a.3.3,0,0,1,.21.38A.31.31,0,0,1,486.82,106.32Zm-5.9-1.7h-.08l-1.77-.5a.3.3,0,0,1-.21-.38.29.29,0,0,1,.38-.21l1.77.5a.32.32,0,0,1,.21.38A.31.31,0,0,1,480.92,104.62ZM475,103h-.09l-1.77-.5a.3.3,0,0,1-.21-.38.29.29,0,0,1,.37-.21l1.78.5a.3.3,0,0,1,.21.38A.31.31,0,0,1,475,103Zm-5.92-1.65H469l-1.78-.49a.31.31,0,0,1,.17-.59l1.77.49a.31.31,0,0,1,.22.38A.31.31,0,0,1,469.1,101.3Zm-5.92-1.62h-.08l-1.78-.48a.31.31,0,0,1,.16-.6l1.78.49a.31.31,0,0,1,.22.37A.32.32,0,0,1,463.18,99.68Zm-5.93-1.6h-.08l-1.78-.47a.31.31,0,0,1,.16-.6l1.78.48a.3.3,0,0,1,.22.37A.31.31,0,0,1,457.25,98.08Zm-5.93-1.57h-.08L449.46,96a.3.3,0,0,1-.22-.37.29.29,0,0,1,.37-.22l1.79.46a.31.31,0,0,1,.21.38A.3.3,0,0,1,451.32,96.51ZM445.38,95h-.08l-1.78-.46a.3.3,0,0,1-.22-.38.31.31,0,0,1,.37-.22l1.78.46a.3.3,0,0,1,.22.38A.3.3,0,0,1,445.38,95Z"/>
      <path class="gencl-6" d="M625.86,116h0l-1.83-.23a.3.3,0,0,1-.26-.34.31.31,0,0,1,.34-.27l1.83.24a.3.3,0,0,1,.26.34A.31.31,0,0,1,625.86,116Zm-6.09-.78h0L617.9,115a.31.31,0,0,1,.08-.61l1.83.24a.3.3,0,0,1,.26.34A.3.3,0,0,1,619.77,115.23Zm-6.09-.8h0l-1.83-.24a.31.31,0,0,1-.26-.34.31.31,0,0,1,.35-.27l1.82.24a.31.31,0,0,1,.26.35A.3.3,0,0,1,613.68,114.43Zm-6.08-.81h-.05l-1.82-.25a.29.29,0,0,1-.26-.34.3.3,0,0,1,.34-.27l1.83.25a.31.31,0,0,1,.26.35A.3.3,0,0,1,607.6,113.62Zm-6.09-.83h0l-1.82-.25a.31.31,0,1,1,.08-.61l1.82.25a.31.31,0,0,1,0,.61Zm-6.08-.84h0l-1.83-.25a.32.32,0,0,1-.26-.35.31.31,0,0,1,.35-.26l1.82.26a.3.3,0,0,1,.26.34A.3.3,0,0,1,595.43,112Zm-6.08-.87h0l-1.82-.26a.31.31,0,0,1-.26-.35.3.3,0,0,1,.34-.26l1.83.26a.31.31,0,0,1,0,.61Zm-6.07-.88h0l-1.82-.27a.31.31,0,0,1-.26-.35.3.3,0,0,1,.35-.25l1.82.26a.31.31,0,0,1,.26.35A.3.3,0,0,1,583.28,110.2Zm-6.08-.89h0l-1.82-.27a.3.3,0,0,1-.26-.35.31.31,0,0,1,.35-.26l1.82.28a.3.3,0,0,1,.26.34A.32.32,0,0,1,577.2,109.31Zm-6.07-.92h0l-1.83-.28a.31.31,0,0,1,.1-.61l1.82.28a.31.31,0,0,1,.25.35A.3.3,0,0,1,571.13,108.39Zm-6.07-.93h0l-1.82-.29a.3.3,0,0,1-.26-.35.31.31,0,0,1,.35-.25l1.82.28a.31.31,0,0,1,.26.35A.32.32,0,0,1,565.06,107.46Zm-6.06-.95h0l-1.82-.29a.31.31,0,0,1-.26-.35.32.32,0,0,1,.36-.26l1.82.29a.31.31,0,0,1,.25.35A.3.3,0,0,1,559,106.51Zm-6.07-1h0l-1.82-.29a.32.32,0,0,1-.26-.35.31.31,0,0,1,.35-.26l1.82.29a.32.32,0,0,1,.26.36A.31.31,0,0,1,552.93,105.54Zm-6.06-1h0l-1.81-.3a.32.32,0,0,1-.26-.35.32.32,0,0,1,.36-.26l1.81.3a.31.31,0,0,1,0,.61Zm-6-1h-.05l-1.82-.31a.3.3,0,0,1,.1-.6l1.82.3a.31.31,0,0,1,0,.61Zm-6.06-1h0l-1.82-.31a.31.31,0,1,1,.11-.6l1.81.3a.31.31,0,0,1,.25.36A.29.29,0,0,1,534.76,102.54Zm-6-1h-.05l-1.82-.32a.31.31,0,1,1,.11-.6l1.81.31a.31.31,0,0,1,.25.36A.3.3,0,0,1,528.71,101.51Zm-6.05-1.05h0l-1.82-.32a.32.32,0,0,1-.25-.36.31.31,0,0,1,.36-.25l1.81.32a.31.31,0,0,1,.25.36A.29.29,0,0,1,522.66,100.46Zm-6-1.07h-.05l-1.81-.33a.3.3,0,0,1-.25-.35.31.31,0,0,1,.36-.25l1.81.32a.32.32,0,0,1,.25.36A.31.31,0,0,1,516.61,99.39Zm-6-1.08h-.05L508.7,98a.31.31,0,0,1,.11-.6l1.82.33a.31.31,0,0,1-.06.61Zm-6-1.11h0l-1.82-.34a.3.3,0,0,1-.24-.35.31.31,0,0,1,.36-.25l1.81.34a.3.3,0,0,1,.24.35A.29.29,0,0,1,504.53,97.2Zm-6-1.12h-.06l-1.81-.34a.31.31,0,0,1-.25-.36.31.31,0,0,1,.36-.24l1.81.34a.3.3,0,0,1,.25.35A.31.31,0,0,1,498.5,96.08Zm-6-1.13h-.06l-1.81-.34a.31.31,0,0,1-.24-.36.3.3,0,0,1,.36-.24l1.81.34a.3.3,0,0,1,.24.36A.29.29,0,0,1,492.46,95Zm-6-1.15h-.06l-1.81-.35a.31.31,0,0,1-.24-.36.3.3,0,0,1,.36-.24l1.81.35a.3.3,0,0,1,.24.36A.31.31,0,0,1,486.43,93.8Zm-6-1.17h0l-1.81-.35a.3.3,0,0,1-.24-.36.31.31,0,0,1,.36-.25l1.8.36a.31.31,0,0,1,.25.36A.32.32,0,0,1,480.4,92.63Zm-6-1.19h-.06l-1.81-.36a.31.31,0,0,1-.24-.36.32.32,0,0,1,.36-.24l1.81.36a.3.3,0,0,1,.24.36A.31.31,0,0,1,474.38,91.44Zm-6-1.21h-.06l-1.81-.37a.31.31,0,0,1-.24-.36.32.32,0,0,1,.37-.24l1.8.37a.29.29,0,0,1,.24.36A.31.31,0,0,1,468.36,90.23Z"/>
      <path class="gencl-6" d="M649,87h0l-1.14-.1a.31.31,0,0,1-.28-.34.3.3,0,0,1,.33-.27l1.14.1a.31.31,0,0,1,.28.34A.3.3,0,0,1,649,87Zm-5.43-.5h0l-1.84-.16a.31.31,0,1,1,.06-.61l1.83.16a.31.31,0,0,1,0,.61ZM637.45,86h0l-1.83-.15a.31.31,0,0,1-.29-.33.32.32,0,0,1,.34-.28l1.83.15a.31.31,0,0,1,0,.61Zm-6.12-.48h0l-1.83-.13a.31.31,0,1,1,0-.62l1.84.14a.31.31,0,0,1,0,.62ZM625.2,85h0l-1.83-.13a.3.3,0,0,1-.29-.32.31.31,0,0,1,.33-.29l1.84.13a.31.31,0,0,1,.28.33A.31.31,0,0,1,625.2,85Zm-6.12-.41h0l-1.84-.12a.31.31,0,0,1-.29-.33.3.3,0,0,1,.33-.28l1.84.11a.31.31,0,0,1,0,.62ZM613,84.23h0l-1.84-.11a.3.3,0,0,1-.28-.33.31.31,0,0,1,.32-.29l1.84.11a.31.31,0,0,1,0,.62Zm-6.13-.35h0l-1.83-.1a.32.32,0,0,1-.3-.32.31.31,0,0,1,.33-.29l1.84.1a.3.3,0,0,1,.29.32A.32.32,0,0,1,606.82,83.88Zm-6.13-.31h0l-1.83-.09a.31.31,0,0,1-.3-.32.3.3,0,0,1,.32-.29l1.84.08a.33.33,0,0,1,.3.32A.32.32,0,0,1,600.69,83.57Zm-100-.14a.31.31,0,0,1,0-.62l1.84-.08a.3.3,0,0,1,.32.29.31.31,0,0,1-.3.32l-1.84.08Zm93.91-.14h0l-1.84-.08a.29.29,0,0,1-.29-.31.3.3,0,0,1,.32-.3l1.84.08a.31.31,0,0,1,0,.61Zm-87.78-.12a.31.31,0,0,1,0-.62l1.84-.07a.31.31,0,0,1,.32.3.29.29,0,0,1-.29.31l-1.84.08Zm81.64-.12h0L586.57,83a.31.31,0,1,1,0-.61l1.84.06a.32.32,0,0,1,.3.32A.31.31,0,0,1,588.42,83.05Zm-75.5-.11a.31.31,0,1,1,0-.61l1.84-.06a.31.31,0,0,1,.32.29.32.32,0,0,1-.3.32l-1.84.06Zm69.36-.1h0l-1.85,0a.31.31,0,0,1-.29-.32.33.33,0,0,1,.31-.3l1.84.06a.31.31,0,0,1,0,.61Zm-63.22-.09a.3.3,0,0,1-.31-.3.3.3,0,0,1,.3-.31l1.84,0a.31.31,0,0,1,.31.3.29.29,0,0,1-.29.31l-1.84,0Zm57.09-.08h0l-1.84,0a.32.32,0,0,1-.3-.32.3.3,0,0,1,.31-.3l1.85,0a.3.3,0,0,1,.29.31A.3.3,0,0,1,576.15,82.67Zm-51-.07a.31.31,0,0,1-.3-.3.31.31,0,0,1,.3-.32l1.84,0a.31.31,0,0,1,0,.62l-1.84,0ZM570,82.53h0l-1.84,0a.3.3,0,0,1-.3-.31.29.29,0,0,1,.31-.3l1.85,0a.3.3,0,0,1,.3.31A.31.31,0,0,1,570,82.53Zm-38.68,0a.31.31,0,0,1-.3-.3.31.31,0,0,1,.3-.32l1.84,0a.31.31,0,1,1,0,.61l-1.84,0Zm32.54,0h0l-1.84,0a.31.31,0,0,1-.31-.31.31.31,0,0,1,.31-.31l1.85,0a.31.31,0,0,1,.3.31A.3.3,0,0,1,563.87,82.43Zm-26.4,0a.31.31,0,1,1,0-.61l1.84,0h0a.31.31,0,0,1,0,.62Zm20.26,0h0l-1.84,0a.31.31,0,0,1-.31-.31.33.33,0,0,1,.31-.3h1.84a.31.31,0,1,1,0,.62Zm-14.12,0a.31.31,0,0,1,0-.62h1.84a.31.31,0,1,1,0,.62Zm8,0h-1.84a.31.31,0,0,1-.31-.31.3.3,0,0,1,.31-.3h1.84a.31.31,0,0,1,.31.31A.3.3,0,0,1,551.59,82.33Z"/>
      <g>
        <path class="gencl-6" d="M179.81,418.91l-.73-1.7a.31.31,0,0,1,.16-.41.3.3,0,0,1,.41.16h0v0l.71,1.68h0a.31.31,0,0,1-.17.4A.3.3,0,0,1,179.81,418.91Z"/>
        <path class="gencl-6" d="M177.63,413.13l-.51-1.78a.34.34,0,1,1,.65-.18h0l.49,1.76v0a.34.34,0,0,1-.24.4A.32.32,0,0,1,177.63,413.13Z"/>
        <path class="gencl-6" d="M176.19,407.13l-.29-1.84a.36.36,0,0,1,.31-.41.35.35,0,0,1,.41.3h0v0l.26,1.8v0a.36.36,0,0,1-.31.4A.35.35,0,0,1,176.19,407.13Z"/>
        <path class="gencl-6" d="M175.48,401l-.08-1.86a.39.39,0,0,1,.78,0h0v0l.06,1.83h0a.37.37,0,0,1-.37.39A.37.37,0,0,1,175.48,401Z"/>
        <path class="gencl-6" d="M175.46,394.81l.12-1.85a.41.41,0,0,1,.44-.39.42.42,0,0,1,.39.44h0v0l-.14,1.82h0a.41.41,0,0,1-.44.38A.4.4,0,0,1,175.46,394.81Z"/>
        <path class="gencl-6" d="M176.08,388.66l.31-1.83a.43.43,0,0,1,.5-.36.44.44,0,0,1,.37.5h0l-.31,1.8h0a.43.43,0,0,1-.5.36A.44.44,0,0,1,176.08,388.66Z"/>
        <path class="gencl-6" d="M177.31,382.6l.48-1.8a.47.47,0,1,1,.9.24h0l-.49,1.77h0a.46.46,0,0,1-.88-.24Z"/>
        <path class="gencl-6" d="M179.11,376.68l.64-1.74a.5.5,0,0,1,.63-.29.48.48,0,0,1,.29.63h0L180,377h0a.48.48,0,0,1-.62.28A.47.47,0,0,1,179.11,376.68Z"/>
        <path class="gencl-6" d="M181.45,371l.81-1.67a.5.5,0,1,1,.91.43h0l-.8,1.64v0a.51.51,0,0,1-.67.23A.5.5,0,0,1,181.45,371Z"/>
        <path class="gencl-6" d="M184.31,365.48l.95-1.6a.52.52,0,0,1,.7-.18.51.51,0,0,1,.18.71h0L185.2,366h0a.51.51,0,1,1-.88-.52Z"/>
        <path class="gencl-6" d="M187.62,360.26l1.06-1.52a.53.53,0,0,1,.73-.12.52.52,0,0,1,.13.72h0l-1.06,1.49h0a.51.51,0,1,1-.84-.59Z"/>
        <path class="gencl-6" d="M191.31,355.3l1.17-1.43a.53.53,0,0,1,.82.67h0L192.13,356h0a.53.53,0,1,1-.81-.67Z"/>
        <path class="gencl-6" d="M195.33,350.62l1.27-1.35a.53.53,0,0,1,.76,0,.54.54,0,0,1,0,.76h0l-1.26,1.33h0a.54.54,0,0,1-.78-.74Z"/>
        <path class="gencl-6" d="M199.65,346.21l1.35-1.27a.55.55,0,0,1,.77,0,.54.54,0,0,1,0,.77h0L200.41,347h0a.55.55,0,0,1-.77,0A.54.54,0,0,1,199.65,346.21Z"/>
        <path class="gencl-6" d="M204.22,342.07l1.41-1.2a.58.58,0,0,1,.79.07.56.56,0,0,1-.07.78h0l-1.4,1.18h0a.56.56,0,0,1-.78-.07A.55.55,0,0,1,204.22,342.07Z"/>
        <path class="gencl-6" d="M209,338.17l1.47-1.12a.57.57,0,1,1,.69.9h0l-1.46,1.11h0a.56.56,0,0,1-.79-.11A.57.57,0,0,1,209,338.17Z"/>
        <path class="gencl-6" d="M214,334.52l1.52-1.06a.58.58,0,0,1,.65,1h0l-1.51,1h0a.59.59,0,0,1-.8-.15A.56.56,0,0,1,214,334.52Z"/>
        <path class="gencl-6" d="M219.09,331.08l1.56-1a.57.57,0,0,1,.8.18.58.58,0,0,1-.18.8h0l-1.55,1h0a.58.58,0,1,1-.62-1Z"/>
        <path class="gencl-6" d="M224.34,327.86l1.6-.93a.59.59,0,0,1,.59,1h0l-1.59.92h0a.6.6,0,0,1-.81-.22A.59.59,0,0,1,224.34,327.86Z"/>
        <path class="gencl-6" d="M229.71,324.84l1.63-.87a.61.61,0,0,1,.81.25.6.6,0,0,1-.25.81h0l-1.62.86h0a.59.59,0,0,1-.81-.25A.58.58,0,0,1,229.71,324.84Z"/>
        <path class="gencl-6" d="M235.18,322l1.67-.81a.61.61,0,0,1,.53,1.09h0l-1.65.8h0a.61.61,0,0,1-.81-.28A.61.61,0,0,1,235.18,322Z"/>
        <path class="gencl-6" d="M240.76,319.4l1.69-.75a.62.62,0,0,1,.5,1.13h0l-1.68.74h0a.61.61,0,0,1-.81-.31A.62.62,0,0,1,240.76,319.4Z"/>
        <path class="gencl-6" d="M246.42,317l1.72-.69a.62.62,0,1,1,.46,1.16h0l-1.71.68h0a.6.6,0,0,1-.8-.34A.61.61,0,0,1,246.42,317Z"/>
        <path class="gencl-6" d="M252.17,314.75l1.73-.63a.63.63,0,0,1,.81.38.64.64,0,0,1-.38.82h0l-1.73.62h0a.62.62,0,0,1-.8-.38A.63.63,0,0,1,252.17,314.75Z"/>
        <path class="gencl-6" d="M258,312.72l1.75-.57a.65.65,0,0,1,.82.41.64.64,0,0,1-.42.81h0l-1.75.57h0a.64.64,0,0,1-.39-1.22Z"/>
        <path class="gencl-6" d="M263.85,310.88l1.78-.52a.65.65,0,0,1,.36,1.25h0l-1.76.51h0a.65.65,0,0,1-.8-.44A.64.64,0,0,1,263.85,310.88Z"/>
        <path class="gencl-6" d="M269.78,309.21l1.79-.46a.66.66,0,0,1,.8.47.66.66,0,0,1-.47.81h0l-1.77.45h0a.66.66,0,0,1-.33-1.28Z"/>
        <path class="gencl-6" d="M275.75,307.72l1.81-.41a.67.67,0,1,1,.29,1.3h0l-1.79.4h0a.67.67,0,0,1-.3-1.3Z"/>
        <path class="gencl-6" d="M281.77,306.4l1.81-.36a.68.68,0,1,1,.27,1.33h0l-1.8.36h0a.68.68,0,0,1-.26-1.33Z"/>
        <path class="gencl-6" d="M287.82,305.25l1.82-.32a.69.69,0,0,1,.23,1.36h0l-1.81.31h0a.69.69,0,0,1-.79-.56A.67.67,0,0,1,287.82,305.25Z"/>
        <path class="gencl-6" d="M293.89,304.26l1.83-.27a.68.68,0,0,1,.77.58.69.69,0,0,1-.57.78h0l-1.82.26h0a.68.68,0,0,1-.78-.57.69.69,0,0,1,.58-.78Z"/>
        <path class="gencl-6" d="M300,303.42l1.83-.22a.67.67,0,0,1,.76.59.68.68,0,0,1-.59.76h0l-1.82.22h0a.68.68,0,1,1-.16-1.35Z"/>
        <path class="gencl-6" d="M306.1,302.72l1.84-.18a.68.68,0,0,1,.74.61.67.67,0,0,1-.61.74h0l-1.83.19h0a.68.68,0,1,1-.14-1.36Z"/>
        <path class="gencl-6" d="M312.23,302.16l1.84-.14a.68.68,0,0,1,.11,1.35h0l-1.83.14h0a.68.68,0,1,1-.11-1.35Z"/>
        <path class="gencl-6" d="M318.37,301.73l1.84-.1a.67.67,0,0,1,.08,1.34h0l-1.84.11h0a.68.68,0,0,1-.08-1.35Z"/>
        <path class="gencl-6" d="M324.52,301.43l1.84-.07a.66.66,0,0,1,.69.64.67.67,0,0,1-.64.7h0l-1.83.07h0a.69.69,0,0,1-.7-.65.67.67,0,0,1,.64-.69Z"/>
        <path class="gencl-6" d="M330.66,301.24l1.85,0a.68.68,0,0,1,.68.66.67.67,0,0,1-.66.67h0l-1.84,0h0a.67.67,0,0,1,0-1.33Z"/>
        <path class="gencl-6" d="M336.81,301.16h1.85a.66.66,0,0,1,0,1.32h-1.84a.67.67,0,0,1,0-1.33Z"/>
        <path class="gencl-6" d="M343,301.18l1.85,0a.67.67,0,0,1,.65.67.66.66,0,0,1-.67.65h0l-1.84,0h0a.67.67,0,0,1,0-1.33Z"/>
        <path class="gencl-6" d="M349.11,301.31l1.85.06a.66.66,0,0,1,0,1.31l-1.83-.05a.67.67,0,0,1-.65-.68.67.67,0,0,1,.68-.64Z"/>
        <path class="gencl-6" d="M355.26,301.53l1.84.08a.66.66,0,0,1,.62.69.64.64,0,0,1-.68.62l-1.84-.08a.66.66,0,1,1,.05-1.31Z"/>
        <path class="gencl-6" d="M361.4,301.84l1.84.11a.65.65,0,0,1,.61.69.66.66,0,0,1-.69.61l-1.84-.11a.66.66,0,0,1-.61-.69.65.65,0,0,1,.69-.61Z"/>
        <path class="gencl-6" d="M367.53,302.23l1.84.13a.65.65,0,0,1,.6.7.63.63,0,0,1-.69.59l-1.84-.13a.65.65,0,1,1,.09-1.29Z"/>
        <path class="gencl-6" d="M373.66,302.7l1.84.16a.64.64,0,1,1-.11,1.28l-1.83-.15a.65.65,0,0,1,.1-1.29Z"/>
        <path class="gencl-6" d="M379.79,303.25l1.83.17a.65.65,0,0,1,.58.7.65.65,0,0,1-.7.58l-1.83-.18a.64.64,0,0,1,.11-1.27Z"/>
        <path class="gencl-6" d="M385.9,303.86l1.84.2a.63.63,0,0,1,.56.7.65.65,0,0,1-.7.57l-1.83-.2a.64.64,0,0,1,.13-1.27Z"/>
        <path class="gencl-6" d="M392,304.54l1.83.22a.63.63,0,0,1,.56.7.64.64,0,0,1-.71.56l-1.83-.22a.63.63,0,1,1,.15-1.26Z"/>
        <path class="gencl-6" d="M398.11,305.28l1.83.23a.63.63,0,1,1-.16,1.25l-1.82-.23a.62.62,0,0,1-.55-.7.62.62,0,0,1,.7-.55Z"/>
        <path class="gencl-6" d="M404.21,306.05l1.82.24a.63.63,0,0,1,.55.7.64.64,0,0,1-.71.55l-1.82-.24a.63.63,0,1,1,.15-1.25Z"/>
        <path class="gencl-6" d="M410.29,306.85l1.83.24a.62.62,0,0,1,.54.7.63.63,0,0,1-.7.54l-1.83-.24a.63.63,0,0,1-.54-.7.62.62,0,0,1,.7-.54Z"/>
        <path class="gencl-6" d="M416.38,307.64l1.83.24a.63.63,0,0,1-.16,1.24l-1.83-.24a.63.63,0,0,1,.16-1.24Z"/>
        <path class="gencl-6" d="M422.47,308.44l1.83.23a.63.63,0,0,1,.53.69.62.62,0,0,1-.69.54l-1.83-.23a.63.63,0,0,1-.54-.7.62.62,0,0,1,.7-.53Z"/>
        <path class="gencl-6" d="M428.56,309.21l1.82.23a.61.61,0,0,1,.54.68.62.62,0,0,1-.69.54l-1.82-.23a.61.61,0,0,1-.54-.68.62.62,0,0,1,.69-.54Z"/>
        <path class="gencl-6" d="M434.65,310l1.83.21a.62.62,0,0,1,.53.68.6.6,0,0,1-.67.54l-1.84-.21a.61.61,0,0,1,.15-1.22Z"/>
        <path class="gencl-6" d="M440.74,310.64l1.83.2a.62.62,0,0,1,.55.67.61.61,0,0,1-.68.54l-1.83-.19a.61.61,0,0,1,.13-1.22Z"/>
        <path class="gencl-6" d="M446.84,311.28l1.83.18a.6.6,0,1,1-.11,1.2l-1.84-.17a.61.61,0,0,1,.12-1.21Z"/>
        <path class="gencl-6" d="M453,311.84l1.83.16a.6.6,0,0,1,.56.64.61.61,0,0,1-.66.56l-1.83-.15a.61.61,0,0,1-.56-.66.61.61,0,0,1,.66-.55Z"/>
        <path class="gencl-6" d="M459.06,312.32l1.84.12a.6.6,0,1,1-.08,1.2l-1.84-.12a.6.6,0,0,1,.08-1.2Z"/>
        <path class="gencl-6" d="M465.18,312.69l1.83.1h0a.58.58,0,0,1,.56.62.59.59,0,0,1-.62.57l-1.84-.09a.6.6,0,0,1-.57-.63.59.59,0,0,1,.62-.57h0Z"/>
        <path class="gencl-6" d="M471.3,313l1.84.05h0a.6.6,0,1,1,0,1.19l-1.85-.05a.61.61,0,0,1-.58-.62.6.6,0,0,1,.62-.57Z"/>
        <path class="gencl-6" d="M477.42,313.09h1.85a.58.58,0,0,1,.58.59.58.58,0,0,1-.59.59h-1.85a.58.58,0,0,1-.58-.6.58.58,0,0,1,.59-.58Z"/>
        <path class="gencl-6" d="M483.55,313.07l1.84,0h0a.59.59,0,0,1,0,1.18l-1.84,0a.59.59,0,0,1,0-1.18h0Z"/>
        <path class="gencl-6" d="M489.67,312.89l1.83-.09h0a.59.59,0,0,1,.61.56.58.58,0,0,1-.55.61l-1.85.09a.59.59,0,0,1-.06-1.17h0Z"/>
        <path class="gencl-6" d="M495.78,312.53l1.83-.14h0a.58.58,0,0,1,.63.53.6.6,0,0,1-.54.63l-1.84.14a.58.58,0,0,1-.63-.53.59.59,0,0,1,.53-.63Z"/>
        <path class="gencl-6" d="M501.88,312l1.82-.21h0a.58.58,0,0,1,.64.51.57.57,0,0,1-.5.64l-1.84.21a.58.58,0,0,1-.13-1.15h0Z"/>
        <path class="gencl-6" d="M508,311.21l1.81-.27h0a.58.58,0,0,1,.17,1.14l-1.83.28a.59.59,0,0,1-.66-.49.58.58,0,0,1,.49-.65h0Z"/>
        <path class="gencl-6" d="M514,310.22l1.8-.34h0A.57.57,0,1,1,516,311l-1.82.35a.58.58,0,0,1-.22-1.13h0Z"/>
        <path class="gencl-6" d="M520,309l1.79-.42h0a.57.57,0,1,1,.26,1.11l-1.8.42A.57.57,0,0,1,520,309h0Z"/>
        <path class="gencl-6" d="M525.9,307.5l1.77-.49h0a.57.57,0,0,1,.7.39.56.56,0,0,1-.39.7l-1.78.51a.57.57,0,0,1-.7-.4.56.56,0,0,1,.39-.69h0Z"/>
        <path class="gencl-6" d="M531.76,305.75l1.74-.58h0a.56.56,0,0,1,.35,1.07l-1.75.58a.56.56,0,1,1-.36-1.07h0Z"/>
        <path class="gencl-6" d="M537.53,303.73l1.71-.66h0a.57.57,0,0,1,.73.32.57.57,0,0,1-.32.73l-1.73.67a.55.55,0,0,1-.72-.32.57.57,0,0,1,.32-.73h0Z"/>
        <path class="gencl-6" d="M543.19,301.43l1.67-.75h0a.56.56,0,0,1,.74.28.57.57,0,0,1-.29.74l-1.69.75a.55.55,0,0,1-.73-.28.56.56,0,0,1,.28-.74h0Z"/>
        <path class="gencl-6" d="M548.72,298.84l1.64-.83h0a.55.55,0,0,1,.5,1l-1.65.84a.56.56,0,0,1-.75-.24.55.55,0,0,1,.25-.74h0Z"/>
        <path class="gencl-6" d="M554.12,296l1.59-.92h0a.55.55,0,1,1,.55.95l-1.61.93a.55.55,0,0,1-.75-.21.55.55,0,0,1,.2-.75h0Z"/>
        <path class="gencl-6" d="M559.37,292.84l1.54-1h0a.55.55,0,0,1,.59.92l-1.56,1a.55.55,0,0,1-.59-.92h0Z"/>
        <path class="gencl-6" d="M564.45,289.44l1.49-1.06h0a.55.55,0,1,1,.63.89l-1.5,1.07a.54.54,0,0,1-.64-.88h0Z"/>
        <path class="gencl-6" d="M569.36,285.8l1.43-1.14h0a.55.55,0,0,1,.76.09.54.54,0,0,1-.09.76L570,286.65a.54.54,0,0,1-.76-.08.56.56,0,0,1,.09-.77h0Z"/>
        <path class="gencl-6" d="M574.08,281.91l1.37-1.21h0a.53.53,0,1,1,.71.8l-1.39,1.23a.55.55,0,0,1-.76-.05.54.54,0,0,1,.05-.76h0Z"/>
        <path class="gencl-6" d="M578.6,277.8l1.31-1.28h0a.53.53,0,0,1,.74.77l-1.32,1.29a.54.54,0,0,1-.75-.77h0Z"/>
        <path class="gencl-6" d="M582.9,273.46l1.25-1.34h0a.53.53,0,0,1,.75,0,.53.53,0,0,1,0,.75l-1.26,1.35a.53.53,0,0,1-.78-.72h0Z"/>
        <path class="gencl-6" d="M587,268.91l1.18-1.4h0a.52.52,0,0,1,.8.68l-1.18,1.42a.53.53,0,1,1-.82-.68h0Z"/>
        <path class="gencl-6" d="M590.84,264.17l1.11-1.46h0a.53.53,0,0,1,.74-.1.51.51,0,0,1,.1.73l-1.11,1.48a.53.53,0,0,1-.84-.64Z"/>
        <path class="gencl-6" d="M594.45,259.23l1-1.52h0a.53.53,0,0,1,.73-.14.52.52,0,0,1,.13.72l-1,1.53a.52.52,0,0,1-.87-.58h0Z"/>
        <path class="gencl-6" d="M597.79,254.11l.94-1.56h0a.52.52,0,0,1,.89.53l-1,1.59a.52.52,0,1,1-.89-.54h0Z"/>
        <path class="gencl-6" d="M600.83,248.82l.86-1.62h0a.52.52,0,0,1,.7-.22.51.51,0,0,1,.21.7l-.86,1.64a.51.51,0,0,1-.69.22.52.52,0,0,1-.22-.7h0Z"/>
        <path class="gencl-6" d="M603.56,243.35l.76-1.66h0a.51.51,0,0,1,.68-.26.52.52,0,0,1,.26.68l-.76,1.69a.52.52,0,0,1-.68.25.51.51,0,0,1-.26-.68h0Z"/>
        <path class="gencl-6" d="M606,237.74l.65-1.71h0a.51.51,0,0,1,1,.36l-.66,1.73a.52.52,0,0,1-.66.3.51.51,0,0,1-.3-.66h0Z"/>
        <path class="gencl-6" d="M608,232l.54-1.75h0a.5.5,0,0,1,1,.3L609,232.3a.49.49,0,0,1-.63.33A.5.5,0,0,1,608,232h0Z"/>
        <path class="gencl-6" d="M609.72,226.12l.43-1.78h0a.51.51,0,0,1,.61-.37.5.5,0,0,1,.36.61l-.43,1.8a.5.5,0,0,1-1-.24h0Z"/>
        <path class="gencl-6" d="M611,220.16l.31-1.81h0a.5.5,0,0,1,.58-.4.49.49,0,0,1,.41.57l-.32,1.83a.5.5,0,1,1-1-.17h0Z"/>
        <path class="gencl-6" d="M611.92,214.12l.19-1.82h0a.5.5,0,1,1,1,.1l-.19,1.84a.5.5,0,0,1-.54.45.51.51,0,0,1-.45-.55h0Z"/>
        <path class="gencl-6" d="M612.38,208l0-1.83v0a.49.49,0,0,1,.5-.47.48.48,0,0,1,.47.5l0,1.85a.48.48,0,0,1-.5.48.5.5,0,0,1-.48-.5h0Z"/>
        <path class="gencl-6" d="M612.37,201.94l-.1-1.83h0a.48.48,0,1,1,1,0l.11,1.84a.48.48,0,0,1-.45.51.48.48,0,0,1-.51-.45h0Z"/>
        <path class="gencl-6" d="M611.85,195.86l-.25-1.81h0a.48.48,0,0,1,.4-.53.46.46,0,0,1,.53.4l.27,1.83a.48.48,0,0,1-.4.54.49.49,0,0,1-.54-.4h0Z"/>
        <path class="gencl-6" d="M610.81,189.86l-.42-1.78v0a.47.47,0,0,1,.35-.55.46.46,0,0,1,.55.34l.43,1.81a.46.46,0,0,1-.34.55.46.46,0,0,1-.56-.34h0Z"/>
        <path class="gencl-6" d="M609.21,184l-.58-1.73h0a.45.45,0,0,1,.86-.29l.6,1.75a.46.46,0,0,1-.86.3h0Z"/>
        <path class="gencl-6" d="M607.06,178.27c-.24-.56-.5-1.11-.75-1.66v0a.44.44,0,0,1,.22-.58.45.45,0,0,1,.59.22c.25.56.52,1.12.77,1.69a.44.44,0,0,1-.81.36Z"/>
        <path class="gencl-6" d="M604.32,172.84l-1-1.56h0a.43.43,0,0,1,.74-.45l1,1.58a.44.44,0,0,1-.75.46h0Z"/>
        <path class="gencl-6" d="M601,167.77l-1.12-1.45h0a.42.42,0,0,1,.08-.59.43.43,0,0,1,.59.07l1.14,1.47a.42.42,0,1,1-.67.52h0Z"/>
        <path class="gencl-6" d="M597,163.1l-1.27-1.32h0a.42.42,0,0,1,0-.59.41.41,0,0,1,.58,0l1.29,1.33a.41.41,0,0,1,0,.59.42.42,0,0,1-.59,0h0Z"/>
        <path class="gencl-6" d="M592.66,158.86l-1.4-1.17h0a.41.41,0,0,1,0-.57.39.39,0,0,1,.57-.05l1.42,1.19a.4.4,0,0,1-.52.62h0Z"/>
        <path class="gencl-6" d="M587.86,155.11l-1.52-1h0a.4.4,0,0,1,.45-.66l1.53,1a.39.39,0,0,1,.11.56.39.39,0,0,1-.55.1h0Z"/>
        <path class="gencl-6" d="M582.69,151.86l-1.61-.87h0a.39.39,0,0,1,.37-.68l1.63.87a.39.39,0,0,1-.36.69h0Z"/>
        <path class="gencl-6" d="M577.22,149.17l-1.69-.68h0a.38.38,0,0,1,.28-.7l1.72.69a.38.38,0,0,1-.29.71h0Z"/>
        <path class="gencl-6" d="M571.49,147.1l-1.76-.49h0a.37.37,0,0,1-.26-.45.37.37,0,0,1,.45-.26l1.79.5a.37.37,0,0,1,.26.46.37.37,0,0,1-.46.25h0Z"/>
        <path class="gencl-6" d="M565.56,145.7l-1.81-.28h0a.35.35,0,0,1-.3-.41.36.36,0,0,1,.41-.3l1.83.28a.36.36,0,1,1-.11.71h0Z"/>
        <path class="gencl-6" d="M559.5,145.05l-1.82,0h0a.35.35,0,0,1-.34-.36.34.34,0,0,1,.36-.34l1.85,0a.36.36,0,1,1,0,.71h0Z"/>
        <path class="gencl-6" d="M553.42,145.21l-1.82.21h0a.33.33,0,0,1-.38-.29.34.34,0,0,1,.3-.38l1.84-.23a.34.34,0,0,1,.38.3.35.35,0,0,1-.3.39h0Z"/>
        <path class="gencl-6" d="M547.42,146.24l-1.76.48h0a.33.33,0,0,1-.18-.64l1.79-.49a.33.33,0,1,1,.18.64h0Z"/>
        <path class="gencl-6" d="M541.65,148.15l-1.67.75h0a.33.33,0,0,1-.43-.17.32.32,0,0,1,.16-.42l1.7-.77a.33.33,0,0,1,.26.6h0Z"/>
        <path class="gencl-6" d="M536.84,151.54a9,9,0,0,0-.91,1.52.31.31,0,0,1-.41.16.32.32,0,0,1-.16-.42,9.31,9.31,0,0,1,1-1.64.33.33,0,0,1,.45-.07.32.32,0,0,1,.06.45Z"/>
        <path class="gencl-6" d="M536.32,156.57a2.39,2.39,0,0,0,.58.28.31.31,0,1,1-.21.58,3.6,3.6,0,0,1-.71-.35.31.31,0,0,1-.09-.42.32.32,0,0,1,.43-.09Z"/>
      </g>
      <g>
        <path class="gencl-6" d="M200.12,429.41l-1.34-1.3a.34.34,0,1,1,.47-.48h0l1.27,1.3v0a.3.3,0,0,1,0,.43A.31.31,0,0,1,200.12,429.41Z"/>
        <path class="gencl-6" d="M196,424.74l-1-1.58a.42.42,0,0,1,.71-.45h0v0l.94,1.56v0a.39.39,0,0,1-.13.54A.4.4,0,0,1,196,424.74Z"/>
        <path class="gencl-6" d="M193.07,419.26l-.66-1.75a.5.5,0,0,1,.93-.35h0v0l.6,1.71v0a.46.46,0,0,1-.29.6A.47.47,0,0,1,193.07,419.26Z"/>
        <path class="gencl-6" d="M191.28,413.3l-.32-1.85a.56.56,0,0,1,.46-.64.55.55,0,0,1,.65.45h0v0l.26,1.79v0a.54.54,0,0,1-.46.61A.53.53,0,0,1,191.28,413.3Z"/>
        <path class="gencl-6" d="M190.64,407.09l0-1.87a.63.63,0,1,1,1.25,0h0v0l-.07,1.8v0a.61.61,0,0,1-1.21,0Z"/>
        <path class="gencl-6" d="M191.13,400.87l.35-1.84a.7.7,0,0,1,1.37.26h0v0l-.39,1.77v0a.67.67,0,0,1-.8.51A.66.66,0,0,1,191.13,400.87Z"/>
        <path class="gencl-6" d="M192.67,394.82l.65-1.76a.76.76,0,1,1,1.42.52h0l0,0-.66,1.68v0a.74.74,0,0,1-1.38-.52Z"/>
        <path class="gencl-6" d="M195.15,389.09l.91-1.65a.79.79,0,1,1,1.39.77h0l0,0-.89,1.57,0,0a.79.79,0,0,1-1.07.3A.8.8,0,0,1,195.15,389.09Z"/>
        <path class="gencl-6" d="M198.41,383.76l1.11-1.5a.84.84,0,1,1,1.35,1h0l0,0-1.09,1.44,0,0a.83.83,0,0,1-1.33-1Z"/>
        <path class="gencl-6" d="M202.33,378.9l1.28-1.36a.87.87,0,0,1,1.24,0,.88.88,0,0,1,0,1.24h0l0,0-1.26,1.3,0,0a.86.86,0,1,1-1.25-1.19Z"/>
        <path class="gencl-6" d="M206.78,374.53l1.43-1.21a.92.92,0,0,1,1.19,1.41h0l0,0L208,375.9l0,0a.89.89,0,0,1-1.27-.12A.9.9,0,0,1,206.78,374.53Z"/>
        <path class="gencl-6" d="M211.7,370.69l1.56-1a1,1,0,1,1,1.06,1.59h0l0,0-1.52,1h0a.95.95,0,1,1-1-1.58Z"/>
        <path class="gencl-6" d="M217,367.42l1.67-.86a1,1,0,1,1,.92,1.78h0l0,0-1.62.81h0a1,1,0,0,1-.9-1.76Z"/>
        <path class="gencl-6" d="M222.67,364.77l1.74-.69a1,1,0,0,1,.77,1.93h0l-1.7.65h0a1,1,0,0,1-.75-1.91Z"/>
        <path class="gencl-6" d="M228.53,362.65l1.79-.53a1.07,1.07,0,0,1,1.32.72,1.06,1.06,0,0,1-.71,1.32h0l-1.75.51h0a1.06,1.06,0,0,1-.6-2Z"/>
        <path class="gencl-6" d="M234.54,361.05l1.82-.39a1.07,1.07,0,1,1,.46,2.1h0l-1.78.37h0a1.07,1.07,0,0,1-1.27-.83A1.06,1.06,0,0,1,234.54,361.05Z"/>
        <path class="gencl-6" d="M240.64,359.88l1.84-.27a1.09,1.09,0,0,1,.32,2.16h0L241,362h0a1.08,1.08,0,0,1-1.23-.92A1.1,1.1,0,0,1,240.64,359.88Z"/>
        <path class="gencl-6" d="M246.79,359.1l1.85-.17a1.09,1.09,0,0,1,1.2,1,1.11,1.11,0,0,1-1,1.21h0l-1.82.16h0a1.1,1.1,0,0,1-1.19-1A1.09,1.09,0,0,1,246.79,359.1Z"/>
        <path class="gencl-6" d="M253,358.63l1.85-.08a1.12,1.12,0,1,1,.1,2.23h0l-1.82.08h0a1.12,1.12,0,1,1-.09-2.23Z"/>
        <path class="gencl-6" d="M259.14,358.44l1.86,0a1.13,1.13,0,1,1,0,2.26h-1.86a1.13,1.13,0,0,1-1.13-1.12A1.11,1.11,0,0,1,259.14,358.44Z"/>
        <path class="gencl-6" d="M265.32,358.45l1.85,0a1.15,1.15,0,1,1-.05,2.29h0l-1.83,0h0a1.15,1.15,0,0,1-1.12-1.17A1.14,1.14,0,0,1,265.32,358.45Z"/>
        <path class="gencl-6" d="M271.48,358.62l1.85.08a1.16,1.16,0,1,1-.1,2.31h0l-1.83-.08h0a1.16,1.16,0,0,1,.1-2.31Z"/>
        <path class="gencl-6" d="M277.63,358.91l1.84.1a1.17,1.17,0,0,1,1.11,1.23,1.18,1.18,0,0,1-1.23,1.11h0l-1.84-.11h0a1.17,1.17,0,1,1,.13-2.33Z"/>
        <path class="gencl-6" d="M283.78,359.27l1.84.13a1.18,1.18,0,0,1-.16,2.36h0l-1.84-.13h0a1.18,1.18,0,0,1,.17-2.36Z"/>
        <path class="gencl-6" d="M289.91,359.72l1.84.15a1.19,1.19,0,0,1-.19,2.38h0l-1.83-.15h0a1.19,1.19,0,1,1,.19-2.38Z"/>
        <path class="gencl-6" d="M296.05,360.26l1.83.18a1.19,1.19,0,0,1,1.07,1.29,1.2,1.2,0,0,1-1.3,1.07h0l-1.83-.18h0a1.19,1.19,0,0,1,.22-2.36Z"/>
        <path class="gencl-6" d="M302.17,360.89l1.83.2a1.17,1.17,0,1,1-.25,2.33h0l-1.82-.19h0a1.18,1.18,0,0,1,.25-2.34Z"/>
        <path class="gencl-6" d="M308.28,361.59l1.84.23a1.16,1.16,0,1,1-.29,2.31h0l-1.83-.22h0a1.17,1.17,0,0,1,.28-2.32Z"/>
        <path class="gencl-6" d="M314.39,362.38l1.83.25a1.15,1.15,0,1,1-.32,2.28h0l-1.82-.24h0a1.15,1.15,0,1,1,.3-2.29Z"/>
        <path class="gencl-6" d="M320.48,363.24l1.83.27a1.15,1.15,0,0,1-.34,2.27h0l-1.82-.27h0a1.15,1.15,0,0,1,.34-2.27Z"/>
        <path class="gencl-6" d="M326.56,364.18l1.83.3a1.14,1.14,0,0,1-.37,2.24h0l-1.82-.29h0a1.14,1.14,0,0,1,.36-2.25Z"/>
        <path class="gencl-6" d="M332.63,365.2l1.82.32a1.13,1.13,0,0,1-.39,2.22h0l-1.81-.32h0a1.13,1.13,0,0,1,.39-2.22Z"/>
        <path class="gencl-6" d="M338.69,366.3l1.81.34a1.11,1.11,0,1,1-.41,2.19l-1.81-.34a1.11,1.11,0,1,1,.4-2.19Z"/>
        <path class="gencl-6" d="M344.72,367.42l1.81.33h0a1.1,1.1,0,1,1-.39,2.17l-1.82-.32a1.11,1.11,0,0,1,.39-2.18Z"/>
        <path class="gencl-6" d="M350.75,368.48l1.81.3h0a1.09,1.09,0,0,1-.35,2.16l-1.83-.29a1.1,1.1,0,0,1,.35-2.17h0Z"/>
        <path class="gencl-6" d="M356.78,369.4l1.82.23h0a1.09,1.09,0,0,1,.94,1.21,1.08,1.08,0,0,1-1.21.94l-1.84-.23a1.08,1.08,0,1,1,.27-2.15h0Z"/>
        <path class="gencl-6" d="M362.83,370.07l1.82.14h0a1.08,1.08,0,0,1,1,1.16,1.07,1.07,0,0,1-1.15,1l-1.86-.13a1.08,1.08,0,0,1-1-1.16,1.07,1.07,0,0,1,1.15-1h0Z"/>
        <path class="gencl-6" d="M368.9,370.41l1.81,0h0a1.07,1.07,0,1,1,0,2.13l-1.86,0a1.07,1.07,0,1,1,0-2.13h0Z"/>
        <path class="gencl-6" d="M375,370.32l1.81-.12h0a1.05,1.05,0,0,1,.15,2.1l-1.86.14a1.06,1.06,0,0,1-1.13-1,1,1,0,0,1,1-1.13h0Z"/>
        <path class="gencl-6" d="M381,369.73l1.79-.29h0a1,1,0,0,1,1.17.84,1,1,0,0,1-.84,1.17l-1.84.31a1,1,0,1,1-.35-2h0Z"/>
        <path class="gencl-6" d="M386.9,368.58l1.75-.45h0a1,1,0,0,1,1.2.71,1,1,0,0,1-.7,1.2l-1.81.48a1,1,0,0,1-.51-1.93h0Z"/>
        <path class="gencl-6" d="M392.7,366.89l1.71-.61h0a1,1,0,0,1,1.22.58,1,1,0,0,1-.57,1.22l-1.75.65a1,1,0,0,1-.67-1.81h0Z"/>
        <path class="gencl-6" d="M398.33,364.67l1.64-.77h0a.92.92,0,1,1,.79,1.67l-1.68.82a.94.94,0,0,1-.82-1.69h0Z"/>
        <path class="gencl-6" d="M403.67,361.88l1.54-1,0,0a.9.9,0,0,1,1,1.52l-1.58,1a.91.91,0,1,1-1-1.53h0Z"/>
        <path class="gencl-6" d="M408.63,358.46l1.38-1.15,0,0a.88.88,0,0,1,1.22.11.87.87,0,0,1-.1,1.22l-1.44,1.22a.88.88,0,0,1-1.13-1.34h0Z"/>
        <path class="gencl-6" d="M413,354.38l1.18-1.36,0,0a.83.83,0,0,1,1.26,1.09l-1.22,1.44a.85.85,0,0,1-1.29-1.1h0Z"/>
        <path class="gencl-6" d="M416.64,349.63l.89-1.56,0,0a.81.81,0,0,1,1.41.79l-.92,1.65a.82.82,0,1,1-1.43-.79h0Z"/>
        <path class="gencl-6" d="M419.17,344.25l.5-1.72,0,0a.78.78,0,1,1,1.49.43l-.52,1.83a.79.79,0,0,1-1.51-.43h0Z"/>
        <path class="gencl-6" d="M420.27,338.45l0-1.77v-.07a.75.75,0,0,1,.74-.75.74.74,0,0,1,.75.72l0,1.91a.76.76,0,1,1-1.51,0h0Z"/>
        <path class="gencl-6" d="M419.58,332.59l-.53-1.7,0-.06a.7.7,0,0,1,.46-.87.69.69,0,0,1,.86.45l.6,1.8a.71.71,0,1,1-1.35.45h0Z"/>
        <path class="gencl-6" d="M417.28,327.12l-1-1.5,0-.05a.64.64,0,0,1,.19-.89.65.65,0,0,1,.89.18l1.05,1.57a.66.66,0,0,1-.17.92.67.67,0,0,1-.92-.18h0Z"/>
        <path class="gencl-6" d="M413.56,322.5l-1.38-1.13-.05,0a.6.6,0,0,1-.08-.84.59.59,0,0,1,.83-.08l1.49,1.18a.61.61,0,0,1,.1.86.63.63,0,0,1-.86.1h0Z"/>
        <path class="gencl-6" d="M408.56,319.38l-1.69-.52-.07,0a.55.55,0,0,1,.32-1l1.83.54a.56.56,0,1,1-.31,1.07h0Z"/>
        <path class="gencl-6" d="M402.77,318.53a13,13,0,0,0-1.75.27.5.5,0,0,1-.23-1,13.32,13.32,0,0,1,1.89-.32.52.52,0,0,1,.56.47.51.51,0,0,1-.46.55Z"/>
        <path class="gencl-6" d="M397.26,320.42a8.46,8.46,0,0,0-1.33,1.13.45.45,0,1,1-.65-.61,8.86,8.86,0,0,1,1.45-1.28.46.46,0,0,1,.54.75Z"/>
        <path class="gencl-6" d="M394.14,325.09a6.27,6.27,0,0,0,0,1.73.38.38,0,0,1-.75.12,7.07,7.07,0,0,1-.06-1.95.39.39,0,0,1,.44-.35.4.4,0,0,1,.36.44Z"/>
        <path class="gencl-6" d="M395.93,330.39a4.45,4.45,0,0,0,1.44.91.32.32,0,0,1,.19.41.31.31,0,0,1-.4.18,5.21,5.21,0,0,1-1.68-1,.34.34,0,0,1,.45-.51Z"/>
      </g>
    </g>
  </g>
</svg>
