<svg id="Ebene_1" data-name="Ebene 1" xmlns="http://www.w3.org/2000/svg" xmlns:xlink="http://www.w3.org/1999/xlink" viewBox="0 0 621.05 404.4">
  <defs>
    <style>
      .pool-1{mask:url(#mask)}.pool-2{mix-blend-mode:multiply;fill:url(#linear-gradient)}.pool-3{fill:url(#linear-gradient-2)}.pool-4{fill:url(#linear-gradient-3)}.pool-10,.pool-5,.pool-6,.pool-61,.pool-8{fill:#fff}.pool-5{opacity:.3}.pool-7{fill:url(#linear-gradient-4)}.pool-8{opacity:.47}.pool-9{fill:url(#linear-gradient-5)}.pool-10{opacity:.57}.pool-11{fill:url(#linear-gradient-6)}.pool-12{fill:url(#linear-gradient-7)}.pool-13{fill:url(#linear-gradient-8)}.pool-14{clip-path:url(#clip-path)}.pool-15{fill:url(#linear-gradient-10)}.pool-16{fill:url(#linear-gradient-11)}.pool-17{fill:url(#linear-gradient-12)}.pool-18{fill:url(#linear-gradient-13)}.pool-19{fill:url(#linear-gradient-14)}.pool-20{fill:url(#linear-gradient-15)}.pool-21{fill:url(#linear-gradient-16)}.pool-22{fill:url(#linear-gradient-17)}.pool-23{fill:url(#linear-gradient-18)}.pool-24{fill:url(#linear-gradient-19)}.pool-25{fill:url(#linear-gradient-20)}.pool-26{fill:url(#linear-gradient-21)}.pool-27{fill:url(#linear-gradient-22)}.pool-28{fill:url(#linear-gradient-23)}.pool-29{fill:url(#linear-gradient-24)}.pool-30{fill:url(#linear-gradient-25)}.pool-31{fill:url(#linear-gradient-26)}.pool-32{fill:url(#linear-gradient-27)}.pool-33{fill:url(#linear-gradient-28)}.pool-34{fill:url(#linear-gradient-29)}.pool-35{fill:url(#linear-gradient-30)}.pool-36{fill:url(#linear-gradient-31)}.pool-37{fill:url(#linear-gradient-32)}.pool-38{fill:url(#linear-gradient-33)}.pool-39{fill:url(#linear-gradient-34)}.pool-40{fill:url(#linear-gradient-35)}.pool-41{fill:url(#linear-gradient-36)}.pool-42{mask:url(#mask-2)}.pool-43{fill:url(#linear-gradient-37)}.pool-44{fill:url(#linear-gradient-38)}.pool-45{fill:url(#linear-gradient-39)}.pool-46{fill:url(#linear-gradient-40)}.pool-47{fill:url(#linear-gradient-41)}.pool-48{fill:url(#linear-gradient-42)}.pool-49{fill:url(#linear-gradient-43)}.pool-50{fill:url(#linear-gradient-44)}.pool-51{fill:url(#linear-gradient-45)}.pool-52{fill:url(#linear-gradient-46)}.pool-53{fill:url(#linear-gradient-47)}.pool-54{fill:url(#linear-gradient-48)}.pool-55{fill:url(#linear-gradient-49)}.pool-56{fill:url(#linear-gradient-50)}.pool-57{fill:url(#linear-gradient-51)}.pool-58{fill:url(#linear-gradient-52)}.pool-59{fill:url(#linear-gradient-53)}.pool-60{fill:url(#linear-gradient-54)}.pool-61{opacity:.5}.pool-62{filter:url(#luminosity-noclip-2)}.pool-63{filter:url(#luminosity-noclip)}
    </style>
    <filter id="luminosity-noclip" x="270.45" y="-8576" width="146.52" height="32766" filterUnits="userSpaceOnUse" color-interpolation-filters="sRGB">
      <feFlood flood-color="#fff" result="bg"/>
      <feBlend in="SourceGraphic" in2="bg"/>
    </filter>
    <mask id="mask" x="270.45" y="-8576" width="146.52" height="32766" maskUnits="userSpaceOnUse">
      <g class="pool-63"/>
    </mask>
    <linearGradient id="linear-gradient" x1="405.47" y1="67.38" x2="270.4" y2="83.53" gradientUnits="userSpaceOnUse">
      <stop offset="0"/>
      <stop offset="0.07" stop-color="#2d2d2d"/>
      <stop offset="0.17" stop-color="#5e5e5e"/>
      <stop offset="0.26" stop-color="#898989"/>
      <stop offset="0.36" stop-color="#aeaeae"/>
      <stop offset="0.47" stop-color="#cbcbcb"/>
      <stop offset="0.58" stop-color="#e2e2e2"/>
      <stop offset="0.69" stop-color="#f2f2f2"/>
      <stop offset="0.83" stop-color="#fcfcfc"/>
      <stop offset="1" stop-color="#fff"/>
    </linearGradient>
    <linearGradient id="linear-gradient-2" x1="96.27" y1="290.57" x2="600.14" y2="290.57" gradientUnits="userSpaceOnUse">
      <stop offset="0" stop-color="#233894"/>
      <stop offset="1" stop-color="#dd397a"/>
    </linearGradient>
    <linearGradient id="linear-gradient-3" x1="522.93" y1="26.76" x2="489.73" y2="297.19" gradientUnits="userSpaceOnUse">
      <stop offset="0" stop-color="#53d8ff"/>
      <stop offset="1" stop-color="#3840f7"/>
    </linearGradient>
    <linearGradient id="linear-gradient-4" x1="1077.9" y1="407.67" x2="1281.59" y2="407.67" gradientTransform="translate(-916.62 118.28) rotate(-18.6)" gradientUnits="userSpaceOnUse">
      <stop offset="0" stop-color="#a737d5"/>
      <stop offset="1" stop-color="#ef497a"/>
    </linearGradient>
    <linearGradient id="linear-gradient-5" x1="-1079.33" y1="-91.44" x2="-1058.67" y2="-278.1" gradientTransform="translate(1315.24 969.63) rotate(35.63)" xlink:href="#linear-gradient-2"/>
    <linearGradient id="linear-gradient-6" x1="738.76" y1="527.93" x2="845.93" y2="527.93" gradientTransform="matrix(0.96, -0.27, 0.27, 0.96, -814.86, -102.44)" xlink:href="#linear-gradient-4"/>
    <linearGradient id="linear-gradient-7" x1="-692.5" y1="199.26" x2="-755.61" y2="-111.38" gradientTransform="translate(950.25 333.96) rotate(19.61)" xlink:href="#linear-gradient-2"/>
    <linearGradient id="linear-gradient-8" x1="349.99" y1="428.47" x2="345.33" y2="211.66" xlink:href="#linear-gradient-2"/>
    <clipPath id="clip-path" transform="translate(-8.46 -10.29)">
      <path class="pool-3" d="M98.49,344.88a2.36,2.36,0,0,1-1.78-3.77l.19-.26,1.23-1.7,5.49-7.59,8.62-11.94L123,304.81l11.72-16.23,11.7-16.18L157,257.73,165.44,246l5.21-7.21c.81-1.12,1.49-2.47,3-2.54.76,0,1.54,0,2.3,0H510.47a3,3,0,0,1,2.62.93c1.17,1.32,2.27,2.72,3.39,4.08l7.34,8.79L534,262.33,546.2,276.9l12.9,15.49,12.69,15.22,11.42,13.7,9.11,10.94,5.77,6.92,1.31,1.57.2.24c1,1.28.58,3.64-1.25,3.89a11.55,11.55,0,0,1-1.44,0H98.49Z"/>
    </clipPath>
    <linearGradient id="linear-gradient-10" x1="474.35" y1="167.14" x2="610.83" y2="372.39" xlink:href="#linear-gradient-2"/>
    <linearGradient id="linear-gradient-11" x1="78.57" y1="282.45" x2="173.88" y2="282.45" xlink:href="#linear-gradient-2"/>
    <linearGradient id="linear-gradient-12" x1="369.2" y1="225.17" x2="329.52" y2="473.32" xlink:href="#linear-gradient-3"/>
    <linearGradient id="linear-gradient-13" x1="324.36" y1="145.02" x2="322.19" y2="259.68" xlink:href="#linear-gradient-3"/>
    <linearGradient id="linear-gradient-14" x1="386.6" y1="146.22" x2="384.43" y2="260.86" xlink:href="#linear-gradient-3"/>
    <linearGradient id="linear-gradient-15" x1="324.96" y1="188.56" x2="382.58" y2="188.56" xlink:href="#linear-gradient-3"/>
    <linearGradient id="linear-gradient-16" x1="324.96" y1="212.38" x2="382.58" y2="212.38" xlink:href="#linear-gradient-3"/>
    <linearGradient id="linear-gradient-17" x1="324.96" y1="236.2" x2="382.58" y2="236.2" xlink:href="#linear-gradient-3"/>
    <linearGradient id="linear-gradient-18" x1="5542.78" y1="278.94" x2="5560.03" y2="278.94" gradientTransform="matrix(-1, 0, 0, 1, 6115.4, 0)" gradientUnits="userSpaceOnUse">
      <stop offset="0" stop-color="#2b3582"/>
      <stop offset="1" stop-color="#150e42"/>
    </linearGradient>
    <linearGradient id="linear-gradient-19" x1="5542.82" y1="282.06" x2="5560.02" y2="282.06" gradientTransform="matrix(-1, 0, 0, 1, 6115.4, 0)" xlink:href="#linear-gradient-3"/>
    <linearGradient id="linear-gradient-20" x1="5512.18" y1="278.41" x2="5520.27" y2="278.41" xlink:href="#linear-gradient-18"/>
    <linearGradient id="linear-gradient-21" x1="5512.18" y1="282.7" x2="5520.02" y2="282.7" gradientTransform="matrix(-1, 0, 0, 1, 6115.4, 0)" xlink:href="#linear-gradient-3"/>
    <linearGradient id="linear-gradient-22" x1="5266.42" y1="415.18" x2="5271.67" y2="415.18" gradientTransform="matrix(-0.99, 0.16, 0.16, 0.99, 5736.96, -957.98)" gradientUnits="userSpaceOnUse">
      <stop offset="0" stop-color="#f9b776"/>
      <stop offset="1" stop-color="#f47960"/>
    </linearGradient>
    <linearGradient id="linear-gradient-23" x1="5543.66" y1="273.12" x2="5548.03" y2="273.12" gradientTransform="matrix(-1, 0, 0, 1, 6115.4, 0)" xlink:href="#linear-gradient-22"/>
    <linearGradient id="linear-gradient-24" x1="628.69" y1="240.57" x2="570.27" y2="239.84" gradientTransform="matrix(1, 0, 0, 1, 0, 0)" xlink:href="#linear-gradient-4"/>
    <linearGradient id="linear-gradient-25" x1="569.26" y1="218.73" x2="572.26" y2="218.73" xlink:href="#linear-gradient-2"/>
    <linearGradient id="linear-gradient-26" x1="558.29" y1="175.02" x2="593.09" y2="140.22" gradientUnits="userSpaceOnUse">
      <stop offset="0" stop-color="#fdf53f"/>
      <stop offset="1" stop-color="#d93c65"/>
    </linearGradient>
    <linearGradient id="linear-gradient-27" x1="567.97" y1="184.73" x2="602.72" y2="149.98" xlink:href="#linear-gradient-26"/>
    <linearGradient id="linear-gradient-28" x1="5556.83" y1="166.01" x2="5558.78" y2="154" gradientTransform="matrix(-1, 0, 0, 1, 6115.4, 0)" xlink:href="#linear-gradient-22"/>
    <linearGradient id="linear-gradient-29" x1="4704.79" y1="494.48" x2="4690.95" y2="505.07" gradientTransform="matrix(-0.94, 0.33, 0.33, 0.94, 4822.07, -1878.49)" xlink:href="#linear-gradient-22"/>
    <linearGradient id="linear-gradient-30" x1="4695.01" y1="486.08" x2="4707.59" y2="502.28" gradientTransform="matrix(-0.94, 0.33, 0.33, 0.94, 4822.07, -1878.49)" xlink:href="#linear-gradient-18"/>
    <linearGradient id="linear-gradient-31" x1="4703.11" y1="492.16" x2="4689.03" y2="502.93" gradientTransform="matrix(-0.94, 0.33, 0.33, 0.94, 4822.07, -1878.49)" xlink:href="#linear-gradient-22"/>
    <linearGradient id="linear-gradient-32" x1="1374.22" y1="499.64" x2="1409.07" y2="464.78" gradientTransform="translate(-884.47 125.85) rotate(-17.79)" xlink:href="#linear-gradient-26"/>
    <linearGradient id="linear-gradient-33" x1="490.94" y1="217.75" x2="597.87" y2="217.75" gradientTransform="matrix(1, 0, 0, 1, 0, 0)" xlink:href="#linear-gradient-18"/>
    <linearGradient id="linear-gradient-34" x1="1353.57" y1="499.61" x2="1382.36" y2="512.88" gradientTransform="translate(-884.47 125.85) rotate(-17.79)" xlink:href="#linear-gradient-22"/>
    <linearGradient id="linear-gradient-35" x1="1353.08" y1="500.7" x2="1381.82" y2="513.95" gradientTransform="translate(-884.47 125.85) rotate(-17.79)" xlink:href="#linear-gradient-22"/>
    <linearGradient id="linear-gradient-36" x1="542.86" y1="210.26" x2="551.47" y2="211.31" gradientTransform="matrix(1, 0, 0, 1, 0, 0)" xlink:href="#linear-gradient-22"/>
    <filter id="luminosity-noclip-2" x="270.45" y="14.07" width="146.59" height="103.88" filterUnits="userSpaceOnUse" color-interpolation-filters="sRGB">
      <feFlood flood-color="#fff" result="bg"/>
      <feBlend in="SourceGraphic" in2="bg"/>
    </filter>
    <mask id="mask-2" x="261.99" y="3.78" width="146.59" height="103.88" maskUnits="userSpaceOnUse">
      <g class="pool-62">
        <g transform="translate(-8.46 -10.29)">
          <g class="pool-1">
            <polygon class="pool-2" points="270.45 63.61 270.45 68.41 416.97 117.95 416.97 14.07 270.45 63.61"/>
          </g>
        </g>
      </g>
    </mask>
    <linearGradient id="linear-gradient-37" x1="405.48" y1="67.38" x2="270.41" y2="83.53" gradientUnits="userSpaceOnUse">
      <stop offset="0" stop-color="#fff"/>
      <stop offset="1" stop-color="#fff"/>
    </linearGradient>
    <linearGradient id="linear-gradient-38" x1="166.15" y1="143.58" x2="165.99" y2="174.65" xlink:href="#linear-gradient-3"/>
    <linearGradient id="linear-gradient-39" x1="-4427.32" y1="198.65" x2="-4192.4" y2="537.71" gradientTransform="matrix(-1, 0, 0, 1, -4174.85, 0)" xlink:href="#linear-gradient-26"/>
    <linearGradient id="linear-gradient-40" x1="166.23" y1="97.38" x2="166.23" y2="134.15" xlink:href="#linear-gradient-3"/>
    <linearGradient id="linear-gradient-41" x1="289.51" y1="176.77" x2="163.93" y2="15.32" xlink:href="#linear-gradient-26"/>
    <linearGradient id="linear-gradient-42" x1="297.15" y1="66.6" x2="171.65" y2="65.71" xlink:href="#linear-gradient-3"/>
    <linearGradient id="linear-gradient-43" x1="221.81" y1="118.89" x2="113.45" y2="1.57" xlink:href="#linear-gradient-3"/>
    <linearGradient id="linear-gradient-44" x1="171.33" y1="112.88" x2="101.42" y2="31.31" xlink:href="#linear-gradient-3"/>
    <linearGradient id="linear-gradient-45" x1="141.47" y1="125.04" x2="141.21" y2="174.97" xlink:href="#linear-gradient-3"/>
    <linearGradient id="linear-gradient-46" x1="148.6" y1="125.04" x2="148.34" y2="174.97" xlink:href="#linear-gradient-3"/>
    <linearGradient id="linear-gradient-47" x1="155.72" y1="125.04" x2="155.46" y2="174.97" xlink:href="#linear-gradient-3"/>
    <linearGradient id="linear-gradient-48" x1="162.85" y1="125.04" x2="162.58" y2="174.97" xlink:href="#linear-gradient-3"/>
    <linearGradient id="linear-gradient-49" x1="169.97" y1="125.04" x2="169.71" y2="174.97" xlink:href="#linear-gradient-3"/>
    <linearGradient id="linear-gradient-50" x1="177.09" y1="125.04" x2="176.83" y2="174.97" xlink:href="#linear-gradient-3"/>
    <linearGradient id="linear-gradient-51" x1="184.22" y1="125.04" x2="183.96" y2="174.97" xlink:href="#linear-gradient-3"/>
    <linearGradient id="linear-gradient-52" x1="191.34" y1="125.04" x2="191.08" y2="174.97" xlink:href="#linear-gradient-3"/>
    <linearGradient id="linear-gradient-53" x1="174.41" y1="275.81" x2="172.98" y2="548.12" xlink:href="#linear-gradient-26"/>
    <linearGradient id="linear-gradient-54" x1="1352.99" y1="941.46" x2="1376.91" y2="725.33" gradientTransform="translate(-1509.67 74.13) rotate(-21.46)" xlink:href="#linear-gradient-2"/>
  </defs>
  <g>
    <g class="tree-r">
      <path class="pool-4" d="M446.79,260.58c-7.8-3.88-13.94-10.39-18.43-17.77a82.51,82.51,0,0,1-10.05-27.23,117.86,117.86,0,0,1-1.7-31.71,110.61,110.61,0,0,1,6.73-30.79c3.48-9.13,8.42-17.86,15.25-24.92a61.65,61.65,0,0,1,12.67-9.83c4.51-2.73,9.15-5.25,13.44-8.32a84.18,84.18,0,0,0,15.68-14.9,85.16,85.16,0,0,0,11.48-17.77c4.48-9.4,6.75-19.83,12.93-28.37,7.27-10.06,18.37-17.49,29.58-22.49,12-5.31,25.84-8.3,38.72-4.78,11.56,3.17,20.47,11.67,25.58,22.34a60.76,60.76,0,0,1,5.19,33.36A47.48,47.48,0,0,1,599,93.62a46.06,46.06,0,0,1-10.18,12.52c-3.88,3.53-8,6.81-11.53,10.7a50.79,50.79,0,0,0-10.07,16.77,46.5,46.5,0,0,0-2.73,20c.48,5.77,1.92,11.4,2.88,17.1a53.19,53.19,0,0,1,.24,18.15,56,56,0,0,1-4.3,13.41c-4.34,9.51-10.79,18-18.06,25.44a133.78,133.78,0,0,1-26.66,21,120.89,120.89,0,0,1-30.45,13.36c-9.44,2.58-19.49,3.87-29.21,2.3A42.21,42.21,0,0,1,446.79,260.58Z" transform="translate(-8.46 -10.29)"/>
      <path class="pool-5" d="M467.66,256.29a38.51,38.51,0,0,1-16.4-3.3,32.66,32.66,0,0,1-9.56-7.05c-6.56-6.89-10.59-15.91-13.11-25a108.33,108.33,0,0,1,2.64-63.86c3.25-8.78,7.94-17.3,14.7-23.87s15.42-10.17,23-15.45A95.42,95.42,0,0,0,492,94.39a103.55,103.55,0,0,0,12.18-23.84,89.87,89.87,0,0,1,5.36-12.72,43.56,43.56,0,0,1,9.7-11.55,75.38,75.38,0,0,1,27.89-15.12c10.31-3,22.12-3.5,31.51,2.46,8.62,5.48,13.65,15.19,15.72,25,2.23,10.54,1.76,23-3.92,32.4-4.58,7.6-12.49,12.46-18.54,18.77a59.9,59.9,0,0,0-15.06,28.15c-2.11,9.34-1.15,18.56.68,27.85,1.14,5.76,2.35,11.56,2,17.47a42.58,42.58,0,0,1-3.21,13.23c-3.79,9.27-9.95,17.5-16.85,24.68a125.66,125.66,0,0,1-27.94,21.63,105,105,0,0,1-30.31,12A65.34,65.34,0,0,1,467.66,256.29Z" transform="translate(-8.46 -10.29)"/>
      <path class="pool-5" d="M565,45.18c-9.17,16.51-18.53,32.93-27.83,49.38l-12.76,22.58c-4.56,8.07-9,16.18-13.59,24.26-5.89,10.45-11.59,21-17.28,31.57q-11.79,21.89-22.79,44.19-3.53,7.17-6.93,14.4-1.71,3.62-3.37,7.25c-.23.51-.9,2.56-1.35,2.62a2.45,2.45,0,0,1-.82-.32c-.23-.28.23-1.11.37-1.52,2.61-7.52,5.37-15,8.36-22.32,4.61-11.39,9.74-22.54,15-33.64,4.44-9.32,9.09-18.57,14-27.67,8.71-16.24,17.61-32.36,27.07-48.18,10.85-18.17,22.12-36.1,34.11-53.55q2.14-3.12,4.33-6.21a20,20,0,0,1,2.27-3.16c.35-.32.19-.34.64,0Z" transform="translate(-8.46 -10.29)"/>
      <path class="pool-6" d="M546.66,63.59a59.6,59.6,0,0,1-1.14-18.12,64.48,64.48,0,0,1,1.14-8.86c.64.14.49,0,.49.51a13.16,13.16,0,0,1-.29,1.74q-.52,3.31-.76,6.65a72.78,72.78,0,0,0-.09,9.34c.1,1.73.27,3.45.54,5.17.13.81.27,1.61.45,2.41,0,.22.28.92.17,1S546.77,63.56,546.66,63.59Z" transform="translate(-8.46 -10.29)"/>
      <path class="pool-6" d="M537.11,74.16a61.33,61.33,0,0,1-2.82-30.8c.12-.78.25-1.57.43-2.34.57.14.48,0,.52.39a5.16,5.16,0,0,1-.22,1.16c-.29,1.64-.5,3.29-.64,5A64.58,64.58,0,0,0,535,64.24a54,54,0,0,0,1.29,5.63c.28,1,.59,2,.94,3,.07.2.46,1,.37,1.13S537.22,74.12,537.11,74.16Z" transform="translate(-8.46 -10.29)"/>
      <path class="pool-6" d="M526.32,88.13c-5.67-10.71-6.64-23.62-4.16-35.37.19-.92.39-1.85.67-2.75.6.19.52.05.46.52a12,12,0,0,1-.36,1.46,54.89,54.89,0,0,0-1,5.82,55.75,55.75,0,0,0,.87,19.06,46,46,0,0,0,1.88,6.22c.41,1.06.85,2.11,1.34,3.13.13.26.9,1.4.82,1.64C526.81,87.93,526.39,88.09,526.32,88.13Z" transform="translate(-8.46 -10.29)"/>
      <path class="pool-6" d="M518.8,103.12c-7.1-9.7-9.07-22.51-7.87-34.26.1-1,.21-2,.4-2.91.65.13.5,0,.5.51a13.9,13.9,0,0,1-.21,1.56,55.7,55.7,0,0,0-.4,6A53.79,53.79,0,0,0,514,92.69a40.61,40.61,0,0,0,2.55,5.81c.5.92,1,1.82,1.6,2.7a7.17,7.17,0,0,1,.9,1.32C519.24,102.94,519.22,102.81,518.8,103.12Z" transform="translate(-8.46 -10.29)"/>
      <path class="pool-6" d="M511.39,116.05c-5.39-6.38-8.06-15-9.35-23.13-.11-.73-.22-1.45-.29-2.18.53,0,.45-.14.61.17A4.09,4.09,0,0,1,502.5,92q.31,2.16.78,4.29a54,54,0,0,0,4.51,13.14,34,34,0,0,0,2.16,3.7c.43.64.87,1.25,1.35,1.85S512,115.58,511.39,116.05Z" transform="translate(-8.46 -10.29)"/>
      <path class="pool-6" d="M501.82,130.55c-5.44-6.56-10-14.64-11.1-23.23a11.46,11.46,0,0,1-.13-1.65c.82,0,.57.24.65,1a26.24,26.24,0,0,0,.57,3.42,43.88,43.88,0,0,0,5.08,12.45q1.31,2.22,2.81,4.32c.59.81,1.2,1.62,1.82,2.4.13.17.76.78.72.94S501.9,130.48,501.82,130.55Z" transform="translate(-8.46 -10.29)"/>
      <path class="pool-6" d="M492.32,150.09c-8-8.19-11.28-20.16-11.64-31.35,0-1-.06-1.93,0-2.89.66,0,.5-.06.57.43s0,1,0,1.52a56.88,56.88,0,0,0,.39,5.83,51.12,51.12,0,0,0,5,17.49,37.8,37.8,0,0,0,3,4.9c.59.82,1.22,1.61,1.88,2.37a6.71,6.71,0,0,1,1,1.08C492.72,149.84,492.67,149.74,492.32,150.09Z" transform="translate(-8.46 -10.29)"/>
      <path class="pool-6" d="M480.74,167.4c-9.61-9.38-13.57-23.28-13.46-36.43,0-1.1,0-2.22.14-3.31.65.07.59,0,.54.55s-.06,1.2-.08,1.8a59.2,59.2,0,0,0,.21,6.66,53.67,53.67,0,0,0,5.56,20.12,42,42,0,0,0,3.59,5.73c.7.94,1.45,1.85,2.23,2.72.41.45.82.88,1.24,1.31S481.17,167,480.74,167.4Z" transform="translate(-8.46 -10.29)"/>
      <path class="pool-6" d="M470.89,188.4a74.19,74.19,0,0,1-14.84-28.81,69,69,0,0,1-2.22-20.27,32.14,32.14,0,0,1,.34-3.79c.68.11.57.08.5.68s-.15,1.38-.19,2.07a61.56,61.56,0,0,0,0,7.92,72,72,0,0,0,6.73,26,73.22,73.22,0,0,0,4.8,8.61c1,1.46,1.94,2.88,3,4.27.52.7,1.06,1.39,1.61,2.06.16.21.74.73.67.92S471,188.32,470.89,188.4Z" transform="translate(-8.46 -10.29)"/>
      <path class="pool-6" d="M458,211.31c-8.62-8.3-14-19.3-16.19-31a80.76,80.76,0,0,1-.69-25.21,45.32,45.32,0,0,1,.84-5c.77.19.52.3.39,1-.19.93-.34,1.88-.48,2.82a81.36,81.36,0,0,0-.81,10.22c-.19,10.44,1.51,21,5.9,30.57a55.24,55.24,0,0,0,5.1,8.82,54.45,54.45,0,0,0,3.43,4.31c.6.67,1.21,1.33,1.84,2,.16.16,1.09.87,1.08,1.07S458,211.25,458,211.31Z" transform="translate(-8.46 -10.29)"/>
      <path class="pool-6" d="M447.13,233.24c-7.67-6.92-12.61-16.23-15.08-26.18a82.22,82.22,0,0,1-1.49-29.33,69.25,69.25,0,0,1,1.52-8.92c.79.2.51.38.35,1.11-.22,1-.41,2.06-.59,3.09a96,96,0,0,0-1.19,11.21c-.51,11,.8,22.27,5.26,32.37a50.29,50.29,0,0,0,5.09,8.94,46.49,46.49,0,0,0,3.38,4.16q1,1.06,2,2.07c.2.19,1,.72,1,1S447.36,233,447.13,233.24Z" transform="translate(-8.46 -10.29)"/>
    </g>
    <g class="tree-l">
      <path class="pool-7" d="M270.63,234.83c-11.9-8.8-19.71-22.87-22.79-37.19a48.05,48.05,0,0,1-.68-18.92c1-5.21,3.4-10.43,8.23-13.11,6.11-3.4,13.73-2.31,20.4-2,5.52.28,12.87.65,16.14-4.8,2.76-4.59.81-10.41-1.06-14.94-2.51-6.06-5.88-11.73-8.38-17.8-2.08-5.06-4-11.18-1.6-16.49s8.2-7.37,13.63-8.2c6.49-1,13.08-.72,19.58-1.54,5.47-.69,11.57-2.26,14.51-7.39,2.84-5,1.14-10.74-1-15.59-2.83-6.34-6.7-12.17-9.71-18.42s-5.31-12.94-4.25-19.82S318.94,26.22,324.13,22c12.48-10.17,30.52-13.73,46.15-10.62a57,57,0,0,1,23.52,11c6.49,5,12.34,11.41,15.74,19,2.64,5.87,3.66,12.76.71,18.71-2.39,4.84-6.87,8.2-11.46,10.81-5.27,3-11,5.18-16.49,7.59-5.24,2.27-10.61,4.67-15,8.33-4,3.32-6.89,7.84-7.1,13.17-.24,6,2.87,11.34,6.37,15.91,3.9,5.1,8.54,9.58,12.64,14.52,3.4,4.1,7,9,7.18,14.5.41,11.49-13,16.41-21.87,19.39-5.56,1.86-11.24,3.39-16.71,5.52-4,1.57-8.72,3.58-11.11,7.39-2.49,4-.9,8.34,2,11.58,3.86,4.34,9.07,7.39,13.81,10.66,4.27,3,9.38,6.29,11.67,11.16,1.79,3.81.56,7.69-1.74,11-2.93,4.15-7.12,7.39-11.36,10.1a82.48,82.48,0,0,1-17.73,8.4c-13.75,4.72-29,6.63-43.33,3.42A51.45,51.45,0,0,1,270.63,234.83Z" transform="translate(-8.46 -10.29)"/>
      <path class="pool-5" d="M331.18,235.62c-12.93,4.35-27.32,6.13-40.72,3a47.07,47.07,0,0,1-28.1-19.4A61.88,61.88,0,0,1,251.6,190c-.48-5.43-.33-11.72,2.59-16.52,3.33-5.49,10.19-5.45,15.9-5.2,6.59.29,13.94,1.48,20.12-1.5a14.58,14.58,0,0,0,7.93-14.6c-.55-6.76-4-13.08-7-19-1.59-3.18-3.2-6.37-4.5-9.68a22.78,22.78,0,0,1-2-8.58,7.38,7.38,0,0,1,3.17-6.17c2.48-1.68,5.68-2.21,8.59-2.57,6.89-.87,13.89-.53,20.75-1.73,5.79-1,11.58-3.35,15-8.39,3.83-5.66,3.22-12.38.91-18.49-2.56-6.77-6.63-12.85-9.91-19.27-3-5.8-5.82-12.45-4.69-19.11.89-5.21,4.32-9.59,8.28-12.92a46,46,0,0,1,16.3-8.55c12.68-3.84,26.64-3.18,38.53,2.85A57,57,0,0,1,397.13,32c4.34,4.55,8.27,10.1,9.62,16.34A14.18,14.18,0,0,1,403,61.77c-4,4-9.44,6.47-14.55,8.72-5.3,2.34-10.71,4.44-15.86,7.1-4.57,2.37-9.06,5.23-12.37,9.25a21.76,21.76,0,0,0-5,14.88c.3,5.86,3.06,11.21,6.44,15.88,3.74,5.16,8.29,9.66,12.45,14.46,3.41,3.93,8.58,9.68,7,15.39-1.39,5.08-7.22,7.87-11.65,9.74-6.25,2.65-12.85,4.36-19.28,6.53-7.72,2.6-17.94,6.45-19.57,15.59-2.07,11.68,11.44,18.89,19.38,24.42a50.74,50.74,0,0,1,7.35,5.87c1.42,1.45,3,3.38,2.67,5.55-.39,2.39-2.24,4.51-3.86,6.18a42.79,42.79,0,0,1-7.6,6.08A78.51,78.51,0,0,1,331.18,235.62Z" transform="translate(-8.46 -10.29)"/>
      <path class="pool-8" d="M363,38.82c-5.63,20.3-11.94,40.42-18.59,60.41q-7.28,21.88-15.12,43.57-4.68,12.94-9.67,25.76c-4.83,12.48-9.87,24.89-15.38,37.08-2.12,4.68-4.31,9.32-6.62,13.91-.58,1.14-1.16,2.29-1.75,3.43l-.81,1.53c-.09.19-.14.49-.34.48-.37,0-.09-.27-.07-.47a8.79,8.79,0,0,1,.77-1.79l.77-1.8,1.5-3.6c4-9.62,7.7-19.33,11.34-29.08,3.31-8.85,6.55-17.73,9.79-26.61q5.12-14.05,10.08-28.19l5.79-16.38,9.63-27.22c4.46-12.58,8.91-25.16,13.46-37.71l2.58-7.08c.45-1.25.91-2.49,1.36-3.73l.69-1.86C362.48,39.14,362.49,38.53,363,38.82Z" transform="translate(-8.46 -10.29)"/>
    </g>
    <g class="tree-r">
      <path class="pool-9" d="M523.31,249c-3.63-2.22-5.89-6.1-7.31-10a51.07,51.07,0,0,1-2.71-16,97.15,97.15,0,0,1,6.64-37.69c3.8-9.76,9.87-21,20-25.35a25,25,0,0,1,12.63-1.41c4.2.45,8.4,1.54,12.64,1.35a12.19,12.19,0,0,0,10-5.49c2.08-3.28,2.22-7.3,2.15-11.06-.07-4.28-.42-8.6.4-12.83a21.09,21.09,0,0,1,6-11.15,34.37,34.37,0,0,1,20.35-9.08c7.36-.73,15.27,1.08,20.12,7,5,6.17,6.23,15.08,4.51,22.68a23.4,23.4,0,0,1-5.15,10.46,21.2,21.2,0,0,1-9.11,5.74c-6.72,2.27-14.14,2.11-20.64,5.05a16.21,16.21,0,0,0-7.65,6.89,15.78,15.78,0,0,0-1.57,9.88,103.71,103.71,0,0,0,2.55,10.86,42.51,42.51,0,0,1,1.43,12.79c-.92,14.71-11.7,27.32-22.9,35.91a74.48,74.48,0,0,1-18.79,10.66c-5.38,2-11.34,3.55-17.13,2.89A15.84,15.84,0,0,1,523.31,249Z" transform="translate(-8.46 -10.29)"/>
      <path class="pool-8" d="M516.36,215.83a88.27,88.27,0,0,1,8.55-36c4.16-8.46,10.74-17.9,20.86-19.09,6.25-.74,12.28,1.54,18.45,2.06.38,0,1.38-.06,1.52.23.24.51-.88.4-1.14.42a30.18,30.18,0,0,1-5,0c-3-.24-6-.74-9.07-.88a20.58,20.58,0,0,0-8.63,1.18,21,21,0,0,0-6.56,4.39A44.42,44.42,0,0,0,527,179.44a85.05,85.05,0,0,0-6.77,17.36q-1.37,4.95-2.27,10-.47,2.63-.79,5.27c-.12.88-.22,1.76-.3,2.65C516.85,215.16,517,216.06,516.36,215.83Z" transform="translate(-8.46 -10.29)"/>
      <path class="pool-8" d="M622.84,120.39c6.82,9.59,5.08,26.4-6,32.1-6.11,3.14-13.27,3.15-19.79,5-6.27,1.73-11.84,5.5-14.21,11.79-2.18,5.79-.55,11.85.83,17.61.07.32.57,1.6.4,1.84-.37.55-.63-.8-.68-1l-.78-2.7a37.08,37.08,0,0,1-1.76-10.22,18.82,18.82,0,0,1,9.46-16c6-3.51,13.16-3.81,19.8-5.35a21.93,21.93,0,0,0,9.2-4.12,16.55,16.55,0,0,0,4.23-5.55,25.26,25.26,0,0,0,.64-19.85,20.75,20.75,0,0,0-1.1-2.34C622.83,121.19,622.21,120.62,622.84,120.39Z" transform="translate(-8.46 -10.29)"/>
      <path class="pool-10" d="M605.84,130.71c-13.68,17.15-27.17,34.45-40.24,52.07-10.24,13.82-20.06,28-29.27,42.48-2.34,3.69-4.6,7.42-6.82,11.17-.66,1.11-1.31,2.22-2,3.33-.14.23-.39,1-.71,1.1-.61.13.22-1.26.26-1.34q1.78-3.65,3.69-7.23c5-9.43,10.56-18.58,16.41-27.53,9.35-14.29,19.45-28.08,30.07-41.45C585,153.55,593,144,601.43,134.8l2.63-2.83a8.78,8.78,0,0,1,1.32-1.4C605.61,130.43,606,130.24,605.84,130.71Z" transform="translate(-8.46 -10.29)"/>
    </g>
    <g class="tree-l">
      <path class="pool-11" d="M130.86,323.46c-17.13,5.75-36.21.58-50.4-9.91-10-7.38-22.29-21.1-16.29-34.48,2.74-6.1,8.06-10.7,12.92-15.11,4.31-3.91,9.58-8.13,11.58-13.81,4.52-12.82-12.93-18.51-21.7-21.86-5.56-2.12-11.73-4.2-16.22-8.28a11.16,11.16,0,0,1-2.57-13.81c2.93-5.81,8.49-10.12,13.22-14.4,4.29-3.88,9.79-8.42,11.2-14.32a9.24,9.24,0,0,0-1.28-7.36c-1.6-2.3-4.18-3.72-6.7-4.81-7-3.06-14.56-4.6-21.26-8.45a34.63,34.63,0,0,1-14.37-16,59.47,59.47,0,0,1-4.79-19.69C23,106.82,25.42,91.6,31.79,78.64A44.28,44.28,0,0,1,43,63.75a25.7,25.7,0,0,1,16.48-5.94c7.17,0,14.19,2.52,20.44,5.9A75.91,75.91,0,0,1,98.82,78.46C109,89.24,118.11,104.6,115.51,120c-1.26,7.42-5.18,14-9.66,19.88-3.95,5.2-8.68,10-11.91,15.69-2.5,4.42-3.28,9.6.24,13.75,3.66,4.31,9.93,5.74,15.22,6.78,6.51,1.26,13.16,1.8,19.62,3.3,4.65,1.08,10.52,2.85,12.52,7.7,1.93,4.66-.78,9.67-3.44,13.43-3.79,5.38-8.6,10-13.18,14.7-4.37,4.47-9,9-12.22,14.45-2.21,3.76-3.63,8.73-.31,12.33,3.51,3.79,9.87,4.27,14.67,4.73,6.89.66,13.84.76,20.65,2.06,6.13,1.16,12.57,3.44,16.28,8.77,3.14,4.5,3.91,10.29,3.69,15.64-.6,14.26-7.77,28.47-17.84,38.39A49.9,49.9,0,0,1,130.86,323.46Z" transform="translate(-8.46 -10.29)"/>
      <path class="pool-8" d="M82.62,230.2c-5.51-2.92-11.49-4.78-17.3-7a61.74,61.74,0,0,1-8.52-3.79c-2.38-1.35-5-3.2-5.84-6-1.11-3.66,1.54-7.29,3.78-9.87,4.27-4.91,9.52-8.85,14.12-13.42,4.34-4.33,8.61-9.64,8.4-16.1,0-.48-.33-1.51-.1-1.95.48-.87,1,.18,1.08.63a15.85,15.85,0,0,1,.23,4.66,19.16,19.16,0,0,1-3.2,8.31c-3.39,5.21-8.2,9.27-12.74,13.42A66.14,66.14,0,0,0,55.74,206a13.77,13.77,0,0,0-2.56,4.23c-.74,2.29.36,4.19,2.1,5.68a32,32,0,0,0,8,4.53C69.16,223,75.32,225,81,228.1A13,13,0,0,1,83,229.23c.23.19.46.32.36.66A.49.49,0,0,1,82.62,230.2Z" transform="translate(-8.46 -10.29)"/>
      <path class="pool-8" d="M124.25,320.52c-13.35,3.31-27.54-.43-38.92-7.71a51.44,51.44,0,0,1-14.5-13.54c-3.34-4.76-6-10.92-4.13-16.75,2-6.32,7.85-10.86,12.89-14.78.34-.26,1.56-1,1.37.1-.09.54-1,1.18-1.4,1.56-1.19,1.26-2.39,2.51-3.55,3.8a32,32,0,0,0-5.7,8C67.44,287.49,71,294.07,75,299a53.56,53.56,0,0,0,12.18,11c10.14,6.68,22,10.65,34.29,9.75a13.05,13.05,0,0,1,2.61-.26C124.56,319.61,124.94,320.35,124.25,320.52Z" transform="translate(-8.46 -10.29)"/>
      <path class="pool-8" d="M111.39,115.58c.55,10.11-5.64,18.77-11.69,26.21-6.46,7.92-16.6,18.69-9.33,29.3a18,18,0,0,0,5.77,5.22c1.09.65,2.25,1.14,3.37,1.73.32.16.79.34.59.8-.3.67-1.44,0-1.88-.16-4.88-1.82-9.41-5.07-11.44-10-4-9.71,2.61-18.58,8.45-25.83,3.51-4.35,7.17-8.65,10-13.45a40.32,40.32,0,0,0,3.44-7,32.22,32.22,0,0,0,1.3-4.61,12.14,12.14,0,0,1,.36-2.21C110.59,115.1,111.35,114.87,111.39,115.58Z" transform="translate(-8.46 -10.29)"/>
      <path class="pool-8" d="M38,146.79c-5.13-5.38-7.88-12.65-9.32-19.84a75.11,75.11,0,0,1-.63-24A77,77,0,0,1,32,86.6c2.53-7,6.37-14.07,12.06-19a22.72,22.72,0,0,1,9.42-5.17,24,24,0,0,1,11.34.23c1,.24,1.89.51,2.81.83.35.12,2.25.87,1,1.33-.33.12-1-.17-1.34-.23s-.85-.17-1.28-.24c-1-.17-2.08-.31-3.12-.39A21.4,21.4,0,0,0,52,65.62c-6.56,3.12-11,9.6-14.07,15.93a69.72,69.72,0,0,0-5.4,15.8,83.15,83.15,0,0,0-1.8,24.37c.61,7.61,2.27,15.39,6.35,21.95.46.75,1,1.45,1.48,2.17.16.24.42.47.29.79A.53.53,0,0,1,38,146.79Z" transform="translate(-8.46 -10.29)"/>
      <path class="pool-8" d="M62.6,96.81l5.3,18.83,3.66,13.09q2.76,10,5.53,19.94,1.66,5.94,3.31,11.9l6.82,24.61q2.13,7.69,4.27,15.39Q93.77,208.79,96,217q1.86,6.75,3.75,13.5l6,21.38c1.32,4.71,2.62,9.42,4,14.12q2.43,8.55,4.9,17.09,2.68,9.29,5.45,18.53l.66,2.18c0,.17.34.76.2,1-.44.65-1-1.65-1.11-1.92-.34-1-.67-2-1-3-.72-2.14-1.43-4.27-2.12-6.41-1.08-3.32-2.12-6.66-3.18-10-1.79-5.66-3.5-11.33-5.22-17-2.17-7.19-4.32-14.38-6.39-21.6q-3.53-12.3-7-24.61Q90.88,206,87,191.7c-1.94-7.14-3.9-14.28-5.83-21.42q-4-14.82-7.88-29.68c-1.79-6.86-3.61-13.71-5.36-20.58l-3.09-12.11q-.78-3.07-1.55-6.15c-.26-1-.51-2.06-.77-3.09a9.12,9.12,0,0,1-.38-1.54c0-.18-.12-.32.06-.45A.25.25,0,0,1,62.6,96.81Z" transform="translate(-8.46 -10.29)"/>
    </g>
    <g class="tree-r">
      <path class="pool-12" d="M218.46,258.4c-12.11-4.41-21.4-14.6-27-25.95A57,57,0,0,1,186,215.67c-.72-4.76-.8-9.85.74-14.47a15,15,0,0,1,10.76-9.87c6-1.66,12.25-1.25,18.33-2.22,5.22-.83,10.41-3.12,11.93-8.65,1.39-5-.84-10.38-3-14.85-2.67-5.56-6-10.8-8.4-16.47-2.1-4.92-3.69-10.61-1.65-15.82s7.19-8.06,12.4-9.66c5.51-1.69,11.35-2.35,16.69-4.56,4.87-2,8.9-5.9,9-11.47s-3.5-10.57-6.2-15.13c-3.15-5.31-6.12-11-5.78-17.38.35-6.78,4.25-13,9-17.62a40,40,0,0,1,20.34-10.8,35.77,35.77,0,0,1,23.27,3.5A40.15,40.15,0,0,1,309,64.63c3.06,5,5.17,11.24,3.8,17.14-1.21,5.17-5.15,8.88-9.48,11.64-4.64,3-9.76,5.08-14.56,7.76-4.15,2.31-8.52,5.24-10.38,9.81s-.6,9.33,2,13.27c6.16,9.25,16.74,14.46,23.25,23.4,2.63,3.61,4.23,8,2.93,12.39-1.12,3.84-4,6.86-7.14,9.23-8.19,6.25-18.43,9.66-27.95,13.3-4.46,1.7-9,3.39-13.26,5.5-2.83,1.39-6.16,3.06-8,5.78-4.81,7.3,10,10.73,14.25,12,5,1.49,10.13,2.84,14.82,5.18,3.57,1.77,7.32,4.45,7.88,8.7.51,4-1.36,8-3.34,11.32A55.23,55.23,0,0,1,273,243.69c-9.79,8.68-22.24,15.26-35.35,16.79A41.89,41.89,0,0,1,218.46,258.4Z" transform="translate(-8.46 -10.29)"/>
      <path class="pool-8" d="M280.15,71.43l-7.65,23q-3.31,10-6.64,20Q262,126,258.23,137.55q-5.3,16.09-10.42,32.23-4.49,14-8.73,28.15c-3.56,11.75-7,23.56-10.09,35.46q-.75,2.88-1.51,5.76c-.08.27-.43,2.7-1,2-.16-.19.36-1.83.41-2.12.14-.7.28-1.4.43-2.11.28-1.4.57-2.8.87-4.21,2.38-11.22,5.18-22.35,8.2-33.42,2.25-8.29,4.67-16.53,7.12-24.77,3.5-11.71,7.29-23.34,11.17-34.93q9.14-27.3,19.44-54.18c1-2.55,2-5.1,3-7.64.53-1.33,1.06-2.67,1.6-4,.24-.61.49-1.21.74-1.81S279.56,71.21,280.15,71.43Z" transform="translate(-8.46 -10.29)"/>
      <path class="pool-8" d="M274.61,75.09c-2.3-4.3-2.31-9.58-1.77-14.3a43.28,43.28,0,0,1,1.63-8.12c.57.18.43.11.33.59s-.29,1.07-.42,1.6a50.09,50.09,0,0,0-1.06,6,34.28,34.28,0,0,0-.11,7.71A20.17,20.17,0,0,0,274,72.2a13.24,13.24,0,0,0,.63,1.73c.06.14.49.81.45.93S274.69,75.05,274.61,75.09Z" transform="translate(-8.46 -10.29)"/>
      <path class="pool-8" d="M272.18,82a31.86,31.86,0,0,1-6.66-15.28,36.3,36.3,0,0,1-.6-8.26c.59,0,.44,0,.47.47s0,1.12,0,1.68a43.23,43.23,0,0,0,.6,6,36.85,36.85,0,0,0,2.28,8,29.42,29.42,0,0,0,2.13,4.14c.43.69.89,1.35,1.38,2,.1.14.79.82.77,1S272.25,82,272.18,82Z" transform="translate(-8.46 -10.29)"/>
      <path class="pool-8" d="M268.4,88.19C261.08,84,256.2,76.41,254,68.4a19.36,19.36,0,0,1-.47-2c.57-.09.34-.13.52.18a4.84,4.84,0,0,1,.24,1,36.26,36.26,0,0,0,8.08,15.19,28.38,28.38,0,0,0,3.19,2.91c.63.49,1.29,1,2,1.39.22.14.89.4,1,.6S268.56,87.92,268.4,88.19Z" transform="translate(-8.46 -10.29)"/>
      <path class="pool-8" d="M267.8,94.63c-7.59-3.28-14-9.33-18.51-16.16-.37-.55-.74-1.11-1.07-1.69.49-.27.28-.25.54,0a3.79,3.79,0,0,1,.54.86c.73,1.13,1.51,2.22,2.33,3.28A47.5,47.5,0,0,0,261,90.17a38.3,38.3,0,0,0,3.82,2.47c.66.37,1.33.72,2,1,.21.1.85.27,1,.45S267.92,94.35,267.8,94.63Z" transform="translate(-8.46 -10.29)"/>
      <path class="pool-8" d="M265.8,100.3a33.74,33.74,0,0,1-12-8,35.43,35.43,0,0,1-4.5-5.35c.53-.34.28-.26.6,0a8.32,8.32,0,0,1,.83,1.12,42.05,42.05,0,0,0,3.41,3.88,38.72,38.72,0,0,0,5.51,4.63,29.52,29.52,0,0,0,3.51,2.09c.62.32,1.26.62,1.91.88S266,99.66,265.8,100.3Z" transform="translate(-8.46 -10.29)"/>
      <path class="pool-8" d="M263.92,105.45,256.08,101c.35-.62.52-.26,1.1.07l2.71,1.55,4.27,2.42Z" transform="translate(-8.46 -10.29)"/>
      <path class="pool-8" d="M262,110.85l-2.7-1.74-1.6-1c-.44-.28-.48-.2-.17-.68l2.69,1.75,1.61,1C262.25,110.46,262.29,110.38,262,110.85Z" transform="translate(-8.46 -10.29)"/>
      <path class="pool-8" d="M259.63,117.29l-3.45-3.53c.41-.41.23-.32.61-.06a9.73,9.73,0,0,1,1.19,1.21l2,2Z" transform="translate(-8.46 -10.29)"/>
      <path class="pool-8" d="M257.45,123.35l-4-5c.46-.37.39-.28.73.15l1.41,1.76,2.26,2.83Z" transform="translate(-8.46 -10.29)"/>
      <path class="pool-8" d="M255,130.2l-4.68-9.43c.42-.22.28-.22.52,0a3.35,3.35,0,0,1,.46,1l1.61,3.23L255.4,130Z" transform="translate(-8.46 -10.29)"/>
      <path class="pool-8" d="M251.9,138.81l-7.18-14.74a9.91,9.91,0,0,1-.66-1.35c-.13-.43-.27-.3.26-.56l7.18,14.74a11.23,11.23,0,0,1,.66,1.35C252.29,138.68,252.43,138.55,251.9,138.81Z" transform="translate(-8.46 -10.29)"/>
      <path class="pool-8" d="M248.92,147.18,238.54,128l-1.48-2.74c.52-.28.38-.24.64.17s.52,1,.78,1.45l2.8,5.19,6.55,12.14,1.51,2.8Z" transform="translate(-8.46 -10.29)"/>
      <path class="pool-8" d="M246.2,158.69,240.85,148l-8.54-17.07-2-4c.58-.29.48-.11.75.42l1.09,2.17L235.9,137l8.72,17.43,2,4Z" transform="translate(-8.46 -10.29)"/>
      <path class="pool-8" d="M243.79,165.64c-5.15-5-8.76-11.54-11.72-18a127.36,127.36,0,0,1-6.1-16.38c-.34-1.14-.68-2.28-1-3.43.6-.15.48-.06.62.47s.34,1.24.52,1.86c.67,2.3,1.41,4.59,2.2,6.86a100.88,100.88,0,0,0,8.85,19.34,54.21,54.21,0,0,0,3.51,5.1c.64.82,1.3,1.62,2,2.39.33.36.66.71,1,1.06S244.18,165.24,243.79,165.64Z" transform="translate(-8.46 -10.29)"/>
      <path class="pool-8" d="M238.51,176.5c-9.19-11.72-15.24-26.09-18.24-40.63-.22-1.09-.44-2.18-.59-3.28.59-.08.47,0,.56.49s.21,1.19.32,1.79q.67,3.45,1.61,6.86a106.26,106.26,0,0,0,8.52,21.77c1.24,2.33,2.57,4.61,4,6.82.77,1.2,1.57,2.37,2.41,3.52.41.57.82,1.12,1.24,1.67S239,176.09,238.51,176.5Z" transform="translate(-8.46 -10.29)"/>
      <path class="pool-8" d="M236.83,185l-2.44-4.19-1.53-2.64c-.33-.57-.7-.75-.09-1.1l2.44,4.19,1.53,2.63C237.07,184.5,237.44,184.67,236.83,185Z" transform="translate(-8.46 -10.29)"/>
      <path class="pool-8" d="M234.1,192.65l-4.29-8.19c.64-.33.59.09.9.69L232.2,188l2.33,4.45Z" transform="translate(-8.46 -10.29)"/>
      <path class="pool-8" d="M232.44,200.66,229,194.87l-2.21-3.74a5.51,5.51,0,0,1-.65-1.09c-.11-.39-.26-.21.25-.52l3.43,5.79,2.22,3.74a5.76,5.76,0,0,1,.64,1.09C232.81,200.53,233,200.36,232.44,200.66Z" transform="translate(-8.46 -10.29)"/>
      <path class="pool-8" d="M230.64,208.08l-9.33-13a10,10,0,0,1-.87-1.21c-.2-.4-.3-.24.17-.58l9.34,13a9.34,9.34,0,0,1,.87,1.22C231,207.89,231.12,207.74,230.64,208.08Z" transform="translate(-8.46 -10.29)"/>
      <path class="pool-8" d="M228.56,214a155.38,155.38,0,0,1-15.86-20.37c.51-.33.29-.26.6.05a8.73,8.73,0,0,1,.87,1.28c1.14,1.67,2.32,3.32,3.52,4.95q2.64,3.59,5.44,7.05c1.07,1.31,2.16,2.62,3.27,3.9.54.61,1.07,1.23,1.62,1.83.12.14.92.85.89,1S228.63,213.94,228.56,214Z" transform="translate(-8.46 -10.29)"/>
      <path class="pool-8" d="M224.87,222.14c-8.24-6.2-14.71-14.87-19.66-23.85-.41-.73-.81-1.47-1.17-2.22.51-.25.33-.23.59.11a9.75,9.75,0,0,1,.63,1.2q1.22,2.26,2.58,4.46a83.78,83.78,0,0,0,10.08,13.33c1.24,1.34,2.55,2.62,3.91,3.84.65.58,1.32,1.15,2,1.7a6.24,6.24,0,0,1,1.1.86C225.16,221.92,225.17,221.74,224.87,222.14Z" transform="translate(-8.46 -10.29)"/>
      <path class="pool-8" d="M222.11,232.25c-11.29-7.9-19.86-19.7-25.52-32.16-.44-1-.89-2-1.26-3,.56-.21.45-.15.65.33s.45,1.1.69,1.65c.91,2.07,1.92,4.1,3,6.09a86.42,86.42,0,0,0,12.49,17.68,69,69,0,0,0,5.13,5c.93.81,1.87,1.59,2.85,2.34.53.41,1.07.82,1.62,1.21S222.47,231.73,222.11,232.25Z" transform="translate(-8.46 -10.29)"/>
      <path class="pool-8" d="M220.58,241.14a54.64,54.64,0,0,1-28.26-29.76,28.17,28.17,0,0,1-1-3c.58-.15.46-.11.62.39s.37,1.11.57,1.65a50.39,50.39,0,0,0,2.69,6,55.27,55.27,0,0,0,13.33,16.6,52,52,0,0,0,6.11,4.4c1.1.68,2.23,1.31,3.37,1.91.64.33,1.29.65,1.94.95S220.86,240.51,220.58,241.14Z" transform="translate(-8.46 -10.29)"/>
      <path class="pool-8" d="M220.59,252.52c-7.11-2.54-13-7.77-17.88-13.4a89,89,0,0,1-10.24-14.79c-.61-1.1-1.22-2.2-1.75-3.34.56-.26.46-.13.72.37s.63,1.24,1,1.84c1.2,2.23,2.51,4.4,3.89,6.52a69.65,69.65,0,0,0,14.33,16.47,40.61,40.61,0,0,0,5.4,3.7,31.1,31.1,0,0,0,2.89,1.44c.46.2.91.39,1.38.56s.87.12.65.75Z" transform="translate(-8.46 -10.29)"/>
    </g>
    <path class="pool-13" d="M173.59,221.23h337.3a26.18,26.18,0,0,1,16.77,5.89,48.24,48.24,0,0,1,5.18,5.42l7.25,8.26L551,253.24l13.16,15,14.15,16.13L592,300,604,313.61l8.78,10,4.26,4.85a25.82,25.82,0,0,1,6.62,17.46A26.26,26.26,0,0,1,613,366.44a25.8,25.8,0,0,1-15.27,4.84H98.63a25.73,25.73,0,0,1-16.06-5.47,26.19,26.19,0,0,1-9.75-21.58,26.55,26.55,0,0,1,5.76-14.81l4.9-6.45,8.94-11.74,11.63-15.3L117,279l12.76-16.77,11.2-14.73,8.25-10.84,3.88-5.1A26,26,0,0,1,173.59,221.23Z" transform="translate(-8.46 -10.29)"/>
    <g>
      <path class="pool-3" d="M98.49,344.88a2.36,2.36,0,0,1-1.78-3.77l.19-.26,1.23-1.7,5.49-7.59,8.62-11.94L123,304.81l11.72-16.23,11.7-16.18L157,257.73,165.44,246l5.21-7.21c.81-1.12,1.49-2.47,3-2.54.76,0,1.54,0,2.3,0H510.47a3,3,0,0,1,2.62.93c1.17,1.32,2.27,2.72,3.39,4.08l7.34,8.79L534,262.33,546.2,276.9l12.9,15.49,12.69,15.22,11.42,13.7,9.11,10.94,5.77,6.92,1.31,1.57.2.24c1,1.28.58,3.64-1.25,3.89a11.55,11.55,0,0,1-1.44,0H98.49Z" transform="translate(-8.46 -10.29)"/>
      <g class="pool-14">
        <path class="pool-15" d="M516.75,192.82l-2.5,19.93c-1,7.71-2,15.4-2.9,23.12a41.5,41.5,0,0,0-.05,4.6V272.7a3.76,3.76,0,0,0,0,1.21,3.26,3.26,0,0,0,.58.65l1.33,1.5,4.56,5.12,15.2,17.1,19.76,22.21,20.08,22.57,16.31,18.34,8.4,9.45.39.43,13.76-17.6,8.65-11.07,2.23-2.84c.19-.25.27-.27.23-.5s-.42-.57-.55-.76L621.17,337l-3.56-4.91-11.8-16.31-16.32-22.53-18.62-25.72-18.69-25.8-16.64-23-12.45-17.18-6.08-8.4Z" transform="translate(-8.46 -10.29)"/>
        <path class="pool-16" d="M159.37,205a8.41,8.41,0,0,0,1.16,2.81c.89,1.89,1.83,3.76,2.77,5.63q3.33,6.63,6.77,13.2,1.05,2,2.11,4a2,2,0,0,1,.31,1.1L172.9,242l.58,14.87.23,5.79a11.66,11.66,0,0,1,.11,2.7,7.28,7.28,0,0,1-1.2,1.89l-3.76,5.68-13,19.71-16.6,25.08-15.73,23.77-10.41,15.74-1.25,1.89c-.12.17-.37.77-.57.86s-.85-.22-1.1-.3l-4.32-1.39-25.4-8.13-1.87-.6,2.17-3.87,5.89-10.54,8.67-15.52,10.62-19,11.64-20.82,11.69-20.93,10.95-19.59,9.25-16.55,6.63-11.86,3.15-5.64Z" transform="translate(-8.46 -10.29)"/>
        <path class="pool-17" d="M587.87,360l-5.53-7.91-13.85-19.85-18.11-25.94L532.1,280.08l-14.37-20.59-4.47-6.4-1.3-1.87c-.14-.2-.39-.77-.62-.89-.84-.44-3,2-3.53,2.52a40.21,40.21,0,0,1-3.05,2.78,2.43,2.43,0,0,1-2.82.26c-1.88-.71-2-2.39-3.13-3.73-1.66-1.92-4.92-1.65-7.2-1.59-4.61.13-9.18,1.06-13.73,1.72-8,1.17-16.12,2.56-24.21,3a18,18,0,0,1-6.5-.61c-3.45-1.06-6.28-3-9.21-5a15.63,15.63,0,0,0-8.81-3.12c-2.94-.06-5.35,1-8,2.09a38.38,38.38,0,0,1-10.23,2.81,49.41,49.41,0,0,1-8.25.14c-8.79-.34-17.63-.68-26.43-.39a88.13,88.13,0,0,0-23,3.58,39,39,0,0,1-6.69,1.75,24.71,24.71,0,0,1-9.67-.89c-3-.88-5.72-2.58-8.67-3.71A26.8,26.8,0,0,0,317,250.24a35.1,35.1,0,0,0-7.56,1.72,45.32,45.32,0,0,1-11.1,1.74,42.68,42.68,0,0,1-9-.57c-2.77-.48-5.52-1.08-8.33-1.39a79.15,79.15,0,0,0-12.88-.35c-2.88.16-5.73.63-8.6.78a85.64,85.64,0,0,1-13.4-.39c-3.34-.35-6.63-1-10-1.39a69.25,69.25,0,0,0-23.5,1.06c-6.53,1.39-13.05,2.5-19.75,2.05a54.53,54.53,0,0,1-11.54-2.1c-1.1-.32-2.2-.67-3.29-1a31.83,31.83,0,0,0-3.88-1.43c-.56-.1-.21-.17-.45,0s-.55.87-.72,1.15l-1.41,2.25-4.53,7.23-14.17,22.66-17.23,27.53L119.85,335l-9.95,15.91-1.39,2.21,3.34.05,9.51.13,15,.21,19.87.29,24,.34,27.63.39,30.3.43,32.64.47,33.95.48,35,.5,34.95.5,34.63.49,33.26.47,31.6.45,29,.42,25.81.36,22,.32,17.38.24,12.28.18,6.36.09Z" transform="translate(-8.46 -10.29)"/>
      </g>
    </g>
    <path class="pool-18" d="M328.2,259.17a3.28,3.28,0,0,1-3.23-3.34c0-.37,0-.74,0-1.12V171a3.75,3.75,0,0,0,0-1.25.75.75,0,0,1,0-.15,4.88,4.88,0,0,0-3.89,4.92v43.16c0,2.23.08,4.48,0,6.71-.1,3.07-4.1,4.58-5.91,1.84a4.74,4.74,0,0,1-.53-2.79V175.14a15.2,15.2,0,0,1,.27-3.36,11.35,11.35,0,0,1,6.46-7.82,11.56,11.56,0,0,1,4.57-.93,10,10,0,0,1,3.32.18,3.37,3.37,0,0,1,2.16,3.37c0,5.27,0,10.53,0,15.8V240.6c0,5.05.06,10.1,0,15.14A3.29,3.29,0,0,1,328.2,259.17Z" transform="translate(-8.46 -10.29)"/>
    <path class="pool-19" d="M380.5,259.17a3.27,3.27,0,0,0,3.22-3.34c0-.37,0-.74,0-1.12V171a4,4,0,0,1,0-1.25s0-.11,0-.15a4.87,4.87,0,0,1,3.89,4.92c0,.85,0,1.71,0,2.56v40.6c0,2.23-.07,4.48,0,6.71.11,3.07,4.11,4.58,5.91,1.84a4.67,4.67,0,0,0,.54-2.79V175.14a15.2,15.2,0,0,0-.27-3.36,11.35,11.35,0,0,0-6.46-7.82,11.56,11.56,0,0,0-4.57-.93,10,10,0,0,0-3.33.18,3.37,3.37,0,0,0-2.15,3.37c0,5.27,0,10.53,0,15.8V240.6c0,5.05-.06,10.1,0,15.14A3.29,3.29,0,0,0,380.5,259.17Z" transform="translate(-8.46 -10.29)"/>
    <path class="pool-20" d="M379.36,191.83H331c-.86,0-1.72,0-2.58,0-2.73-.06-4.57-3.2-2.54-5.4,1.52-1.65,5.08-1,7.09-1h42.53c2.52,0,6.8-.67,7.11,3A3.24,3.24,0,0,1,379.36,191.83Z" transform="translate(-8.46 -10.29)"/>
    <path class="pool-21" d="M379.36,215.65H331c-.86,0-1.72,0-2.58,0-2.73-.07-4.57-3.2-2.54-5.4,1.52-1.65,5.08-1,7.09-1h42.53c2.52,0,6.8-.67,7.11,2.94A3.24,3.24,0,0,1,379.36,215.65Z" transform="translate(-8.46 -10.29)"/>
    <path class="pool-22" d="M379.36,239.47H331c-.86,0-1.72,0-2.58,0-2.73-.07-4.57-3.21-2.54-5.41,1.52-1.64,5.08-1,7.09-1h42.53c2.52,0,6.8-.68,7.11,2.94A3.25,3.25,0,0,1,379.36,239.47Z" transform="translate(-8.46 -10.29)"/>
    <path class="pool-6" d="M430.9,276.9a41.87,41.87,0,0,1-11.4-1.57c-3-.86-5.93-2-8.9-3a51.09,51.09,0,0,0-21.33-2.48,42.4,42.4,0,0,0-9.58,2.05c-2.53.86-5,1.93-7.52,2.77a42.83,42.83,0,0,1-21.59.94c-6.24-1.25-12-4.07-18.24-5.37a67.76,67.76,0,0,0-25.47-.14c-2.19.38-4.35.86-6.5,1.42-1.06.28-2.12.58-3.18.89l-1.49.47a8.66,8.66,0,0,1-1.88.63c-.36,0-.7,0-.76-.48s.37-.61.75-.76c1.1-.42,2.26-.74,3.39-1.08,2.16-.64,4.34-1.21,6.54-1.68a72.21,72.21,0,0,1,25.8-1,61.59,61.59,0,0,1,10.1,2.5c2.93,1,5.82,2.1,8.81,2.87a42.33,42.33,0,0,0,21.78.13c2.63-.75,5.14-1.82,7.7-2.76a44.64,44.64,0,0,1,8.65-2.28,50.74,50.74,0,0,1,22.15,1.5c5.81,1.75,11.32,4.28,17.41,5a43.81,43.81,0,0,0,21.52-2.93c2.74-1.12,5.42-2.35,8.22-3.3a57.29,57.29,0,0,1,11.2-2.53,77.75,77.75,0,0,1,23.24.74,105.32,105.32,0,0,1,12.62,3q3.24,1,6.43,2.16c.42.15,2.25.71,1.24,1.43-.6.43-2.5-.64-3.14-.87a101.39,101.39,0,0,0-25-5.59,67.6,67.6,0,0,0-23,1.75c-6,1.57-11.34,4.74-17.31,6.25A46.39,46.39,0,0,1,430.9,276.9Z" transform="translate(-8.46 -10.29)"/>
    <path class="pool-6" d="M356.32,290.7a58.33,58.33,0,0,1-18.46-3.2,79.35,79.35,0,0,1-9.63-4c-1.66-.81-3.29-1.68-4.9-2.59a9.25,9.25,0,0,1-2.3-1.36c-.48-.58.06-1.11.69-.93a12.81,12.81,0,0,1,2.39,1.39c.84.47,1.69.93,2.54,1.38,1.6.83,3.23,1.63,4.88,2.36a72.66,72.66,0,0,0,9.57,3.52,53.93,53.93,0,0,0,18.26,2.15,44.73,44.73,0,0,0,16.7-4.65c4.78-2.29,9.5-4.36,14.78-5.16a40.81,40.81,0,0,1,18.38,1.21c4.67,1.48,9,3.82,13.72,5.2a40,40,0,0,0,18.48.65c5.3-1,10.09-3.31,15.06-5.29,12.37-4.94,26.08-4.31,38.58-.08a9.24,9.24,0,0,1,2.5.92c.56.47.14,1.11-.52,1a14.27,14.27,0,0,1-2.58-.93c-.92-.3-1.84-.59-2.77-.86A63.35,63.35,0,0,0,481,279.37a50.13,50.13,0,0,0-19.39,1.47c-4.8,1.42-9.24,3.78-14,5.4a43.59,43.59,0,0,1-18.89,2.13c-5.12-.58-9.78-2.44-14.49-4.41a42.32,42.32,0,0,0-15.57-3.69A41.47,41.47,0,0,0,381,283.73c-4.77,2.1-9.28,4.61-14.39,5.82A44.86,44.86,0,0,1,356.32,290.7Z" transform="translate(-8.46 -10.29)"/>
    <g>
      <path class="pool-23" d="M566.13,282.44c-3.49.16-7,.12-10.5-.06,1.87-1.33,3.79-2.58,5.77-3.72,1.23-.71,2.49-1.39,3.79-2a12,12,0,0,1,3-1.11c.73-.11,2.58-.47,3.06,0a5.5,5.5,0,0,1,.79,2.12c.22.81.84,2.52.34,3.18a3.87,3.87,0,0,1-1.84.92A18.68,18.68,0,0,1,566.13,282.44Z" transform="translate(-8.46 -10.29)"/>
      <path class="pool-24" d="M555.6,282.4c.31-.22,1.58.05,2,.06.92,0,1.85.06,2.77.07,2,0,4.11,0,6.16-.11,1.77-.1,4.8-.16,6-1.73.22,2.11-1.38,2.11-3,2.22s-3.44.23-5.16.32-3.62.18-5.42.2c-.79,0-1.59,0-2.38,0-.28,0-.74.05-1-.13A.55.55,0,0,1,555.6,282.4Z" transform="translate(-8.46 -10.29)"/>
      <path class="pool-25" d="M595.16,281.37a21,21,0,0,1,1-5.06c.5-1.13,1.76-.72,2.64-.25,0-.34.2-1.62.66-1.66s.9,1.43,1,1.72c.5,1.11,1,2.22,1.48,3.32.33.71,1.24,1.93,1.22,2.73l-4.32.15-2.68.09C595.44,282.44,595,282.47,595.16,281.37Z" transform="translate(-8.46 -10.29)"/>
      <path class="pool-26" d="M603.22,282.17c0,1.32-2.85.92-3.66.94-1.17,0-3.44.52-4.18-.67Z" transform="translate(-8.46 -10.29)"/>
      <path class="pool-27" d="M593.63,268.79c.79,1.64,1.32,3.46,2,5.16.34.91.6,2.58,1.83,2.61,1.4,0,2.52-.79,2.37-2.22a30.81,30.81,0,0,0-.66-3.82c-.22-.91-.47-2.34-1.29-2.93C596.59,266.69,594.63,268,593.63,268.79Z" transform="translate(-8.46 -10.29)"/>
      <path class="pool-28" d="M571.74,271.2c-.32,0-.16,1.5-.16,1.68,0,1,.06,2.43-.55,3.23a2.22,2.22,0,0,1-2.33.32,1.38,1.38,0,0,1-.81-1.21c-.3-1.83-.35-3.74-.52-5.58Z" transform="translate(-8.46 -10.29)"/>
      <path class="pool-29" d="M559.59,210.06c.94,4.55,1.54,9.19,2.24,13.78,1.42,9.29,2.71,18.61,3.73,27.95.51,4.64,1,9.3,1.24,14,.06,1.05.12,2.1.16,3.16,0,.75-.22,2.36.2,3,.55.84,3.08.51,3.93.41s1.15-.27,1.2-1.1q.62-10.17.83-20.37c.2-9.31.33-18.73-.7-28q-.15-1.4-.36-2.79,5.18,10.89,10.1,21.88c2.56,5.72,5.09,11.45,7.48,17.24,1,2.5,2,5,3,7.55.37,1,.73,2,1.06,3a22.23,22.23,0,0,0,.75,2.44c.38.83,1.33.51,2.1.41s2.57-.2,3-1.05c.3-.55-.09-1.45-.23-2q-.65-2.59-1.3-5.19-2.07-8.1-4.33-16.17c-1.8-6.43-3.69-12.83-5.78-19.17a143.42,143.42,0,0,0-6.21-16.32c-.46-1-1-1.95-1.48-2.89a9.48,9.48,0,0,0-1.41-2.25c-.37-.34-.46-.22-1-.14l-2.66.39-14.49,2.12Z" transform="translate(-8.46 -10.29)"/>
      <path class="pool-30" d="M572.06,220.32c.76,0-.89-1.53-1-1.63-.26-.27-1.18-1.58-1.62-1.55-.76.06.86,1.51,1,1.63C570.73,219.07,571.59,220.32,572.06,220.32Z" transform="translate(-8.46 -10.29)"/>
      <path class="pool-31" d="M547.07,164.16a72.91,72.91,0,0,0-4.57,14.21c-1.92,8.65-2.63,18.4,1.21,26.64a12.91,12.91,0,0,0,1.68,3c.34.38.13.29.56.18a7.59,7.59,0,0,0,1.14-.47c.83-.35,1.16-.21,1-1-.33-2.42-.55-4.86-.68-7.31a63.12,63.12,0,0,1,.25-11.25c.39-3.08,1.06-6.63,3.21-9,.21-.25.9-.69,1-1s-.25-.71-.31-.9l-1.38-4-2.92-8.53Z" transform="translate(-8.46 -10.29)"/>
      <path class="pool-32" d="M548.62,162.66A96.48,96.48,0,0,1,562.19,160a46.51,46.51,0,0,1,7.65-.32c.74,0,3-.1,3.37.53a4.47,4.47,0,0,1,.23,1.22l.41,2.23,1.28,6.83,3.49,18.69,3.14,16.84.82,4.41c0,.21.1.43.12.65.09,1.21-.86,1.42-1.79,1.42l-16.77.06c-1.46,0-4,.53-4.77-1.12-.49-1.11-.82-2.32-1.22-3.46l-6-17c-1.52-4.31-3.14-8.59-4.57-12.93a23.77,23.77,0,0,1-.72-3.76c-.43-3-.89-6.33-.08-9.26A3,3,0,0,1,548.62,162.66Z" transform="translate(-8.46 -10.29)"/>
      <path class="pool-33" d="M557.09,150.17a70.59,70.59,0,0,1,3.8,6.58c.35.69.68,1.4,1,2.12.13.34.73,1.56.53,1.92s-2.27.62-2.73.71a21.66,21.66,0,0,1-4.88.61c-.34,0-1.39,0-1.62-.32-.07-.11,0-.55,0-.67l.17-8.06c0-.4-.18-1.94.1-2.22s1.52-.28,1.9-.35Z" transform="translate(-8.46 -10.29)"/>
      <g>
        <path class="pool-34" d="M547.06,145.14a30.58,30.58,0,0,0,.24,8.33c.28,1.3.57,3.22,1.5,4.23,1.15,1.24,3.41.65,4.73.06,3.09-1.38,4.14-4.47,4.39-7.6.11-1.4.32-3.3-.38-4.59-.49-.91-1.78-.93-2.69-1A39.13,39.13,0,0,0,547.06,145.14Z" transform="translate(-8.46 -10.29)"/>
        <path class="pool-35" d="M555.93,150.32a1.8,1.8,0,0,1-.41.14c.12-1.09.28-2.89-.54-3.76-.46-.48-1.21-.34-1.82-.31-1,0-2,.11-3.06.13-1.76,0-4.19.16-5.67-1a4,4,0,0,1-1.41-3.12c0-.61.3-2.56,1.12-2.7.34-.06.4.39.78.23.19-.09,0-.38.34-.4.13,0,.32.2.42.25a5.46,5.46,0,0,0,2.61.59c2.69,0,5.33-.93,8,.13a4.31,4.31,0,0,1,2.18,1.83c.27.48.21.79.73.61s.9-.46,1.59-.1a2.62,2.62,0,0,1,1,2.53,6.17,6.17,0,0,1-.45,1.93c-.15.38-.44.76-.56,1.14s-.13.3.14.54.58.18.66.61c.11.58-.49,1.18-.83,1.54s-1.88,1.93-2.72,1.67c-.5-.15-.62-1.5-.75-1.94,0-.18-.1-.73-.31-.84S556.16,150.24,555.93,150.32Z" transform="translate(-8.46 -10.29)"/>
        <path class="pool-36" d="M556,150.86a6.06,6.06,0,0,1,.2-2.28c.32-1,1.55-1.5,2.11-.36s-.12,2.54-.73,3.36c-.11.15-.31.47-.5.52s-.06.08-.29-.08A5,5,0,0,1,556,150.86Z" transform="translate(-8.46 -10.29)"/>
      </g>
      <path class="pool-37" d="M571.37,159.67,572,172l.14,2.66c0,.37,0,.51.19.68s.63.15.84.21c.52.14,1,.29,1.53.47a15.68,15.68,0,0,1,3.4,1.64A6.72,6.72,0,0,1,581,181c.73,2.31-1.14,3.72-3,4.68a10.3,10.3,0,0,1,5,7.18c3.6-1.19,7.14-3.42,8.32-7.23,1.24-4-.22-8.63-2.09-12.19-3-5.63-8.15-9.77-13.89-12.33A25.91,25.91,0,0,0,571.37,159.67Z" transform="translate(-8.46 -10.29)"/>
      <path class="pool-38" d="M492.05,312.33c-1.14,0-1.32-1.16-.9-1.95.14-.28.31-.56.47-.84l2-3.5,7.51-13.41,11.24-20.06L526.12,248l15.2-27.12,15.36-27.4L570.94,168l12-21.48,8.65-15.44c1.31-2.35,2.57-4.74,4-7,.34-.58.85-1.05,1.6-.74s.8,1.2.45,1.87-.87,1.55-1.3,2.33l-6.42,11.45-10.47,18.69-13.29,23.72L551.22,208,535.79,235.5l-14.67,26.19-12.69,22.63-9.54,17-5.21,9.31C493.31,311.31,492.94,312.33,492.05,312.33Z" transform="translate(-8.46 -10.29)"/>
      <path class="pool-39" d="M578,185.68c-3.85,2-8.33,2.83-12.56,3.54-.86.14-1.39,0-1.91.71l-2.44,3.12a25.47,25.47,0,0,0,6.31,1.17,47.27,47.27,0,0,0,8.66,0,36,36,0,0,0,4.61-.73,6.62,6.62,0,0,0,2-.55c.32,0,.39-.14.21-.43s-.1-.43-.16-.64-.18-.61-.28-.9A10,10,0,0,0,578,185.68Z" transform="translate(-8.46 -10.29)"/>
      <path class="pool-40" d="M564.37,190.37a9.1,9.1,0,0,0-2.69-3c-1.91-1.4-5-2.17-7-.56a2.84,2.84,0,0,0,.72,4.91c1.12.43,2,0,3.11,0a3.17,3.17,0,0,1,1.66.81,2.73,2.73,0,0,0,1.93.78C563.31,193.11,564,191.36,564.37,190.37Z" transform="translate(-8.46 -10.29)"/>
      <path class="pool-41" d="M546.38,207.27c-1.79,2.28-4.54,7.52-.53,9.17,1.83.76,3.31-.76,3.74-2.43a6.79,6.79,0,0,0,0-3.29,6.39,6.39,0,0,1-.16-3.25c.14-.59,1.18-2.56-.21-2.3A5.88,5.88,0,0,0,546.38,207.27Z" transform="translate(-8.46 -10.29)"/>
    </g>
    <g>
      <g class="pool-42">
        <path class="pool-43" d="M270.45,63.61V67.9c0,.42-.05.38.15.56a6.34,6.34,0,0,0,1.84.62l9.24,3.13,15.13,5.11L316,83.82l21.53,7.28,21.93,7.42,20.74,7,17.65,6,12.76,4.31,4,1.35a8.79,8.79,0,0,0,2.08.7,1.34,1.34,0,0,1,.26.09V15.65a4.38,4.38,0,0,0,0-1.4.54.54,0,0,1,0-.18l-3.92,1.32L402.42,19l-15.78,5.33-19.27,6.52-21,7.1-21.3,7.2L305.2,51.86l-16.71,5.65-12.08,4.08-5.71,1.93Z" transform="translate(-8.46 -10.29)"/>
      </g>
      <g>
        <path class="pool-44" d="M144.13,155.66h43.2c.87,0,.9.17.9-.73V143.7a18.66,18.66,0,0,0,0-2.59c-.06-.38.07-.25-.15-.37s-.84,0-1.08,0H145.82c-.3,0-1.53-.16-1.69,0s0,1.63,0,2v12.88Z" transform="translate(-8.46 -10.29)"/>
        <path class="pool-45" d="M134.52,158.35a315.34,315.34,0,0,0-27.87,43A355.89,355.89,0,0,0,83.91,252.1,295.5,295.5,0,0,0,70,306.38c-2.68,17.54-3.55,35.45-1.55,53.11a146.17,146.17,0,0,0,5,25c1.19,4,2.57,8,4.15,11.85,1.49,3.67,2.94,7.85,5.66,10.82C87.68,412,94.55,414,101,414H227c4.85,0,10.06.42,14.86-.45a22.54,22.54,0,0,0,11.68-5.63c2.55-2.45,3.75-5.6,5.06-8.81A220.69,220.69,0,0,0,266.22,377a212,212,0,0,0,6.23-29.51c.75-5.57,1.27-11.17,1.52-16.78a87,87,0,0,0-.33-14.44c-2.22-18.6-11.92-35.43-25.13-48.44-7.91-7.79-17.24-14.2-26.06-20.9L210.73,238a27.51,27.51,0,0,1-3.66-3.08,13.15,13.15,0,0,1-3.74-9.12c0-8,.23-16.09.34-24.14l.45-31.69c0-1.1,0-2.2,0-3.29a12.89,12.89,0,0,0-2.09-7.34c-4.29-6.52-12.51-8.75-19.89-8.75H153.5C146.54,150.58,139,152.63,134.52,158.35Z" transform="translate(-8.46 -10.29)"/>
        <path class="pool-46" d="M139,148.2h52.77c2.17,0,4.33-.08,5.6-2.24,1.18-2,.49-5.2.37-7.38L197.11,127c-.12-2.2-.1-4.46-.37-6.66a4.63,4.63,0,0,0-4.56-4c-.4,0-.81,0-1.21,0H142.6c-1.88,0-3.78-.18-5.29,1.24-1.87,1.76-1.56,5-1.71,7.36-.39,6.14-.95,12.29-1.17,18.43A4.61,4.61,0,0,0,139,148.2Z" transform="translate(-8.46 -10.29)"/>
        <path class="pool-47" d="M247.1,75.77c-.37,6.92-.41,13.86-.16,20.79a180.47,180.47,0,0,0,3.37,30c2,9.89,5.12,19.88,10.66,28.42.65,1,1.34,2,2.07,3a29.36,29.36,0,0,1,2.26,2.87,4.4,4.4,0,0,1-3.43,6.5c-2,.17-3.51-1.25-5-2.42-1.3-1-2.57-2.1-3.83-3.19a112.26,112.26,0,0,1-19.3-21.48,83.27,83.27,0,0,1-8.22-15.13,70.86,70.86,0,0,1-2.91-8.61c-.39-1.47-.73-3-1-4.45s-.29-3-1.15-4.28c-1.18-1.66-3.81-2.25-5.63-3l-10.05-3.88c-5.23-2-10.53-3.91-15.7-6.06a4.42,4.42,0,0,1-2.69-5.11c.51-2.14,2.77-3.34,4.44-4.54A93.88,93.88,0,0,1,204,77.35c11.55-5.65,24.59-8.69,37.41-6.51,1.44.24,3,.39,4.16,1.38A4.38,4.38,0,0,1,247.1,75.77Z" transform="translate(-8.46 -10.29)"/>
        <path class="pool-48" d="M251.41,47.79v37L267,82.29l7.16-1.14a6,6,0,0,0,5.22-5.93c.22-5.78.4-11.55.61-17.33a9.47,9.47,0,0,0-.17-2.86A5.87,5.87,0,0,0,275,50.84c-1.85-.28-3.71-.48-5.57-.72l-17.66-2.28Z" transform="translate(-8.46 -10.29)"/>
        <path class="pool-49" d="M155.51,49.35,144.8,57.63,126.15,72.06c-4.27,3.3-9.61,6.51-12,11.49a22.1,22.1,0,0,0-1.72,6.28c-.27,1.7-.63,3.41-.75,5.13a16.71,16.71,0,0,0,6.58,14.46c2.82,2.12,6,2.88,9.39,3.5L138.75,115c2.36.44,4.81,1.12,7.2,1.33,1.36.12,2.78,0,4.14,0h36.38c.37,0,1.35.19,1.68,0s.37-.86.47-1.17l1.46-4.33,3.67-10.92.62-1.85c.08-.22.14-.74.31-.91s.54-.2.79-.26l7-1.68,22.82-5.45c3.75-.89,7.49-1.94,11.29-2.56l11.08-1.81,2.24-.36a4,4,0,0,0,1.31-.22c.28-.18.19-.3.19-.74V49.62c0-.31.2-1.51,0-1.77s-1.51-.1-1.84-.1l-5.78-.13-19.7-.44-24.5-.55-21.65-.48-11.5-.26A17.07,17.07,0,0,0,155.51,49.35Z" transform="translate(-8.46 -10.29)"/>
        <path class="pool-50" d="M165.07,60.17,159,87.22l-3.26,14.47a15.22,15.22,0,0,1-1.07,3.62,7.89,7.89,0,0,1-8.53,4c-5.25-.82-10.49-1.67-15.74-2.51-2.53-.4-4.92-.84-6.7-2.94-2.25-2.63-1.85-6-1.85-9.2a12.76,12.76,0,0,1,.39-4.13,8,8,0,0,1,2.69-3.75c.86-.68,1.74-1.34,2.6-2L140,75.13,154.74,63.8c2.4-1.86,4.74-3.89,7.25-5.59A2,2,0,0,1,165.07,60.17Z" transform="translate(-8.46 -10.29)"/>
        <path class="pool-51" d="M141.48,144.64c-1.7.06-1.56-1.68-1.56-2.83v-18c0-.9-.26-2.42.44-3.13a1.55,1.55,0,0,1,2.61,1.06c0,.3,0,.61,0,.9v18.46C143,142.29,143.34,144.64,141.48,144.64Z" transform="translate(-8.46 -10.29)"/>
        <path class="pool-52" d="M148.61,144.64c-1.71.06-1.57-1.68-1.57-2.83v-18c0-.9-.26-2.42.44-3.13a1.55,1.55,0,0,1,2.61,1.06c0,.3,0,.61,0,.9v18.46C150.09,142.29,150.47,144.64,148.61,144.64Z" transform="translate(-8.46 -10.29)"/>
        <path class="pool-53" d="M155.73,144.64c-1.71.06-1.57-1.68-1.57-2.83v-18c0-.9-.26-2.42.44-3.13a1.55,1.55,0,0,1,2.62,1.06c0,.3,0,.61,0,.9v18.46C157.22,142.29,157.59,144.64,155.73,144.64Z" transform="translate(-8.46 -10.29)"/>
        <path class="pool-54" d="M162.85,144.64c-1.7.06-1.56-1.68-1.56-2.83v-18c0-.9-.26-2.42.44-3.13a1.55,1.55,0,0,1,2.61,1.06c0,.3,0,.61,0,.9v18.46C164.34,142.29,164.72,144.64,162.85,144.64Z" transform="translate(-8.46 -10.29)"/>
        <path class="pool-55" d="M170,144.64c-1.71.06-1.57-1.68-1.57-2.83v-18c0-.9-.26-2.42.44-3.13a1.55,1.55,0,0,1,2.62,1.06c0,.3,0,.61,0,.9v18.46C171.47,142.29,171.84,144.64,170,144.64Z" transform="translate(-8.46 -10.29)"/>
        <path class="pool-56" d="M177.1,144.64c-1.7.06-1.56-1.68-1.56-2.83v-18c0-.9-.26-2.42.44-3.13a1.55,1.55,0,0,1,2.61,1.06c0,.3,0,.61,0,.9v18.46C178.59,142.29,179,144.64,177.1,144.64Z" transform="translate(-8.46 -10.29)"/>
        <path class="pool-57" d="M184.22,144.64c-1.7.06-1.56-1.68-1.56-2.83v-18c0-.9-.26-2.42.44-3.13a1.55,1.55,0,0,1,2.61,1.06c0,.3,0,.61,0,.9v18.46C185.71,142.29,186.09,144.64,184.22,144.64Z" transform="translate(-8.46 -10.29)"/>
        <path class="pool-58" d="M191.35,144.64c-1.71.06-1.57-1.68-1.57-2.83v-18c0-.9-.26-2.42.44-3.13a1.55,1.55,0,0,1,2.62,1.06c0,.3,0,.61,0,.9v18.46C192.84,142.29,193.21,144.64,191.35,144.64Z" transform="translate(-8.46 -10.29)"/>
        <path class="pool-59" d="M115,263.57a242.44,242.44,0,0,0-7.72,23.83,248.1,248.1,0,0,0-6.43,32.19A231.35,231.35,0,0,0,99,358a34.42,34.42,0,0,0,1,8.29,22.33,22.33,0,0,0,13.89,14.84c3.53,1.28,7.08,1.33,10.75,1.33h94.21A22.58,22.58,0,0,0,239.37,369c1.7-3.9,2.2-8.46,3-12.6l3.92-19.95c.86-4.42,1.74-8.83,2.6-13.25a22.9,22.9,0,0,0-.85-12.09,22.51,22.51,0,0,0-4-6.91,33.25,33.25,0,0,0-5.2-4.64q-10.61-8.12-21.75-15.48a312.18,312.18,0,0,0-29-17,205.79,205.79,0,0,0-33-13.71q-4.17-1.29-8.41-2.33a66.68,66.68,0,0,0-8.39-1.7A22.36,22.36,0,0,0,115,263.57Z" transform="translate(-8.46 -10.29)"/>
      </g>
    </g>
    <g class="tree-l">
      <path class="pool-60" d="M97.12,413.07c-4.86,2.33-10.57,1.83-15.63.49a65.56,65.56,0,0,1-18.85-8.95,113.81,113.81,0,0,1-18.7-15.51,105.33,105.33,0,0,1-14.95-19c-3.64-6-6.69-12.59-7.87-19.56a29.3,29.3,0,0,1-.2-9.11,26.18,26.18,0,0,1,4.84-11.37c2.48-3.49,5.52-6.51,8.22-9.81,2.39-2.93,4.57-6.22,5-10.06a13.86,13.86,0,0,0-3.07-10.15c-2.29-2.81-5.42-4.78-8.48-6.64a75.75,75.75,0,0,1-9.8-6.56,24.53,24.53,0,0,1-7.43-10.38c-2.88-7.95-1.91-17.17,1-25s8.43-15.38,16.52-18.32c9.21-3.35,19.68.25,27,6.21a29.61,29.61,0,0,1,8.76,11.4,23.1,23.1,0,0,1,1.18,13.48c-1.7,8.57-7,16-8.41,24.63a18.81,18.81,0,0,0,2,12.42,19,19,0,0,0,9.39,7.85c4.29,1.87,8.87,3,13.25,4.65a43.62,43.62,0,0,1,14.18,8.29c5.8,5.27,9.85,12.24,12.61,19.51a83.66,83.66,0,0,1,5.12,24.62,85.11,85.11,0,0,1-1.74,24.09c-1.44,6.36-3.75,12.93-8,18A18.24,18.24,0,0,1,97.12,413.07Z" transform="translate(-8.46 -10.29)"/>
      <path class="pool-8" d="M60.48,398.92a102.67,102.67,0,0,1-29.22-30.26c-6-9.72-11.37-22.74-5.51-33.7,3.21-6,8.7-10.23,12.89-15.47.26-.33,1.07-1.78,1.44-1.86.75-.16,0,1.13-.15,1.32a31.54,31.54,0,0,1-2.62,4.12c-2.16,3-4.64,5.65-6.82,8.6a24.72,24.72,0,0,0-4.55,9.11,24.4,24.4,0,0,0,.08,10A52.31,52.31,0,0,0,32,365.92c6.53,11.63,15.76,21.83,26,30.33.65.54,1.31,1.07,2,1.6.13.11.84.53.86.68S60.54,398.84,60.48,398.92Z" transform="translate(-8.46 -10.29)"/>
      <path class="pool-8" d="M34.69,235.38c13.46-.59,28.43,11.35,27.46,25.51-.56,8.15-5.33,15.35-7.72,23-2.31,7.42-2,15.55,3.09,21.8,4.31,5.31,11,7.42,17.17,9.62.36.12,1.84.42,2,.74.35.76-1.61,0-1.8-.07l-2.95-.91a41.77,41.77,0,0,1-10.83-4.66,21.77,21.77,0,0,1-9.56-19.22c.37-8.21,4.72-15.45,7.39-23a24.93,24.93,0,0,0,1.66-11,19.16,19.16,0,0,0-2.69-7.64,29.27,29.27,0,0,0-18.67-13.15,23.71,23.71,0,0,0-3-.43,4.49,4.49,0,0,1-1.33-.07C34.63,235.74,34.69,235.76,34.69,235.38Z" transform="translate(-8.46 -10.29)"/>
      <path class="pool-10" d="M34,258.4c8.06,24.05,16.37,48,25.27,71.78,7,18.6,14.52,37,22.82,55.06,2.07,4.51,4.24,9,6.45,13.44q1.05,2.11,2.11,4.21c.16.31.76,1.09.71,1.4-.15,1-.85-.45-1-.75q-2.38-4-4.64-8c-6.1-10.92-11.56-22.18-16.62-33.61-8-18.06-15-36.54-21.36-55.24-4.57-13.56-8.78-27.25-12.41-41.09-.38-1.46-.76-2.92-1.12-4.38-.19-.76-.44-1.53-.56-2.29C33.61,258.72,33.64,257.77,34,258.4Z" transform="translate(-8.46 -10.29)"/>
    </g>
    <path class="pool-61 cloud" d="M554.59,51.32a13.94,13.94,0,0,0-2.69-10A11.15,11.15,0,0,0,541.57,37a21.61,21.61,0,0,0-9.15,3.67c-.08-1.21-1.23-2.32-2.07-3.07a15.48,15.48,0,0,0-4.92-2.94,13.5,13.5,0,0,0-13.94,2.75c-3.53,3.18-5.76,7.63-7.38,12-.54-2.71-3.35-3.59-5.8-3.42a13.67,13.67,0,0,0-8.86,4.47,14.11,14.11,0,0,0-3.22,5.9c-2.73-1.53-6.39,1.12-8,3.18a6.16,6.16,0,0,0-1.52,4.3,5.33,5.33,0,0,0,3.17,4,23.48,23.48,0,0,0,7.44,1.93c2.24.34,4.5.61,6.75.85,5.3.54,10.63.85,15.95,1,11.17.26,22.57-.13,33.54-2.41a47.59,47.59,0,0,0,12.76-4.27,17.2,17.2,0,0,0,7.93-8.45c.62-1.37,1.36-3.26.63-4.73a3.31,3.31,0,0,0-2.76-1.57,17.26,17.26,0,0,0-7,1Z" transform="translate(-8.46 -10.29)"/>
    <path class="pool-61 cloud" d="M606.7,76.61a9.86,9.86,0,0,0-4.55-8.44c-4.17-2.48-9-.21-12.34,2.57a3.86,3.86,0,0,0-1.72-2A11,11,0,0,0,584.25,67a9.81,9.81,0,0,0-9.86,3.19,21.75,21.75,0,0,0-4.29,9.23c-.86-2.67-4.25-2.31-6.28-1.42a10.33,10.33,0,0,0-6.05,7.92c-2-.84-4.32,1.17-5.35,2.69-1.39,2-1.36,4.53,1,5.78a12.56,12.56,0,0,0,5.35,1c1.62.08,3.24.1,4.86.1,3.86,0,7.73-.21,11.58-.53a110.14,110.14,0,0,0,24.44-4.42,35.94,35.94,0,0,0,9.13-4.12A12.65,12.65,0,0,0,614,79.86c.7-2,.92-4.65-1.84-4.72A12.23,12.23,0,0,0,607,76.45Z" transform="translate(-8.46 -10.29)"/>
  </g>
</svg>
