<svg id="Ebene_1" data-name="Ebene 1" xmlns="http://www.w3.org/2000/svg" viewBox="0 0 71 65">
  <defs>
    <style>
      .cls-1 {
        fill: none;
        stroke: #fff;
        stroke-miterlimit: 10;
        stroke-width: 2px;
      }
    </style>
  </defs>
  <title>sauber</title>
  <g>
    <polygon class="cls-1" points="36.5 60.45 60.5 60.45 62.5 42.45 62.5 38.45 34.5 38.45 34.5 42.45 36.5 60.45"/>
    <rect class="cls-1" x="48.5" y="34.45" width="12" height="4" transform="translate(109 72.9) rotate(180)"/>
    <line class="cls-1" x1="67.5" y1="60.45" x2="63.5" y2="60.45"/>
    <line class="cls-1" x1="59.5" y1="42.45" x2="37.5" y2="42.45"/>
    <line class="cls-1" x1="18.5" y1="2.45" x2="18.42" y2="44.45"/>
    <path class="cls-1" d="M27.5,60.45h0a3,3,0,0,1-3-3v-7a6,6,0,0,0-6-6h0a6,6,0,0,0-6,6v7a3,3,0,0,1-3,3h0"/>
    <g>
      <line class="cls-1" x1="20.5" y1="61.45" x2="20.5" y2="52.45"/>
      <line class="cls-1" x1="20.5" y1="50.45" x2="20.5" y2="48.45"/>
    </g>
    <g>
      <line class="cls-1" x1="16.5" y1="61.45" x2="16.5" y2="52.45"/>
      <line class="cls-1" x1="16.5" y1="50.45" x2="16.5" y2="48.45"/>
    </g>
    <g>
      <path class="cls-1" d="M48.5,14.45a5,5,0,0,0,5,5"/>
      <path class="cls-1" d="M43.5,19.45a5,5,0,0,0,5-5"/>
      <path class="cls-1" d="M48.5,24.45a5,5,0,0,1,5-5"/>
      <path class="cls-1" d="M43.5,19.45a5,5,0,0,1,5,5"/>
    </g>
    <g>
      <path class="cls-1" d="M29.5,27.45a5,5,0,0,0,5,5"/>
      <path class="cls-1" d="M24.5,32.45a5,5,0,0,0,5-5"/>
      <path class="cls-1" d="M29.5,37.45a5,5,0,0,1,5-5"/>
      <path class="cls-1" d="M24.5,32.45a5,5,0,0,1,5,5"/>
    </g>
    <line class="cls-1" x1="33.5" y1="60.45" x2="29.5" y2="60.45"/>
    <line class="cls-1" x1="7.5" y1="60.45" x2="3.5" y2="60.45"/>
  </g>
</svg>
