<svg id="Ebene_1" data-name="Ebene 1" xmlns="http://www.w3.org/2000/svg" viewBox="0 0 73 66">
  <defs>
    <style>
      .cls-1 {
        fill: none;
        stroke: #fff;
        stroke-miterlimit: 10;
        stroke-width: 2px;
      }
    </style>
  </defs>
  <title>icon</title>
  <g>
    <g>
      <g>
        <path class="cls-1" d="M42.5,29.5V5.5a2,2,0,0,0-2-2h0a2,2,0,0,0-2,2v24l2,2Z"/>
        <line class="cls-1" x1="42.5" y1="26.5" x2="38.5" y2="26.5"/>
      </g>
      <rect class="cls-1" x="26.5" y="27.5" width="4" height="4"/>
      <rect class="cls-1" x="50.5" y="27.5" width="4" height="4"/>
      <rect class="cls-1" x="18.5" y="35.5" width="4" height="4"/>
      <rect class="cls-1" x="10.5" y="35.5" width="4" height="4"/>
      <rect class="cls-1" x="26.5" y="35.5" width="4" height="4"/>
      <rect class="cls-1" x="50.5" y="35.5" width="4" height="4"/>
      <rect class="cls-1" x="18.5" y="43.5" width="4" height="4"/>
      <rect class="cls-1" x="10.5" y="43.5" width="4" height="4"/>
      <rect class="cls-1" x="26.5" y="43.5" width="4" height="4"/>
      <rect class="cls-1" x="50.5" y="43.5" width="4" height="4"/>
      <rect class="cls-1" x="58.5" y="43.5" width="4" height="4"/>
      <rect class="cls-1" x="18.5" y="51.5" width="4" height="4"/>
      <rect class="cls-1" x="10.5" y="51.5" width="4" height="4"/>
      <rect class="cls-1" x="34.5" y="51.5" width="4" height="4"/>
      <rect class="cls-1" x="26.5" y="51.5" width="4" height="4"/>
      <polyline class="cls-1" points="55.5 61.5 67.5 61.5 67.5 22.5"/>
      <polyline class="cls-1" points="5.5 22.5 5.5 61.5 45.5 61.5"/>
      <line class="cls-1" x1="13.5" y1="9.5" x2="13.5" y2="17.5"/>
      <line class="cls-1" x1="21.5" y1="9.5" x2="21.5" y2="17.5"/>
      <line class="cls-1" x1="29.5" y1="9.5" x2="29.5" y2="17.5"/>
      <line class="cls-1" x1="51.5" y1="9.5" x2="51.5" y2="17.5"/>
      <rect class="cls-1" x="58.5" y="27.5" width="4" height="4"/>
      <rect class="cls-1" x="58.5" y="35.5" width="4" height="4"/>
      <line class="cls-1" x1="59.5" y1="9.5" x2="59.5" y2="17.5"/>
      <g>
        <polyline class="cls-1" points="67.5 20.5 67.5 13.5 45.5 13.5"/>
        <polyline class="cls-1" points="35.5 13.5 5.5 13.5 5.5 20.5"/>
      </g>
      <line class="cls-1" x1="64.5" y1="21.5" x2="45.5" y2="21.5"/>
      <line class="cls-1" x1="35.5" y1="21.5" x2="18.5" y2="21.5"/>
    </g>
    <g>
      <path class="cls-1" d="M14.5,21.5a5,5,0,0,1-5,5"/>
      <path class="cls-1" d="M19.5,26.5a5,5,0,0,1-5-5"/>
      <path class="cls-1" d="M14.5,31.5a5,5,0,0,0-5-5"/>
      <path class="cls-1" d="M19.5,26.5a5,5,0,0,0-5,5"/>
    </g>
    <g>
      <path class="cls-1" d="M50.5,52.5a5,5,0,0,1-5,5"/>
      <path class="cls-1" d="M55.5,57.5a5,5,0,0,1-5-5"/>
      <path class="cls-1" d="M50.5,62.5a5,5,0,0,0-5-5"/>
      <path class="cls-1" d="M55.5,57.5a5,5,0,0,0-5,5"/>
    </g>
    <g>
      <rect class="cls-1" x="34.5" y="35.5" width="12" height="12"/>
      <line class="cls-1" x1="37.5" y1="44.5" x2="43.5" y2="38.5"/>
      <line class="cls-1" x1="43.5" y1="44.5" x2="37.5" y2="38.5"/>
    </g>
  </g>
</svg>
