<svg id="Ebene_1" data-name="Ebene 1" xmlns="http://www.w3.org/2000/svg" viewBox="0 0 66 67">
  <defs>
    <style>
      .cls-1 {
        fill: none;
        stroke: #fff;
        stroke-miterlimit: 10;
        stroke-width: 2px;
      }
    </style>
  </defs>
  <title>icon</title>
  <g>
    <line class="cls-1" x1="65" y1="63.78" x2="1" y2="63.78"/>
    <g>
      <line class="cls-1" x1="45" y1="49.95" x2="45" y2="64.78"/>
      <polyline class="cls-1" points="21 17.95 21 13.78 33 2.22 45 13.78 45 33.78"/>
      <line class="cls-1" x1="21" y1="64.78" x2="21" y2="33.7"/>
      <circle class="cls-1" cx="33" cy="11.78" r="2"/>
      <line class="cls-1" x1="18" y1="17.78" x2="48" y2="17.78"/>
      <line class="cls-1" x1="18" y1="33.78" x2="48" y2="33.78"/>
      <line class="cls-1" x1="18" y1="49.78" x2="48" y2="49.78"/>
      <line class="cls-1" x1="26" y1="57.72" x2="40" y2="57.72"/>
      <line class="cls-1" x1="29.06" y1="57.72" x2="29.06" y2="63.78"/>
      <line class="cls-1" x1="37.06" y1="57.72" x2="37.06" y2="63.78"/>
      <line class="cls-1" x1="33" y1="57.78" x2="33" y2="63.78"/>
    </g>
    <g>
      <line class="cls-1" x1="24" y1="21.78" x2="26" y2="21.78"/>
      <line class="cls-1" x1="28" y1="21.78" x2="30" y2="21.78"/>
      <line class="cls-1" x1="32" y1="21.78" x2="34" y2="21.78"/>
      <line class="cls-1" x1="36" y1="21.78" x2="38" y2="21.78"/>
      <line class="cls-1" x1="40" y1="21.78" x2="42" y2="21.78"/>
    </g>
    <g>
      <line class="cls-1" x1="28" y1="25.78" x2="30" y2="25.78"/>
      <line class="cls-1" x1="32" y1="25.78" x2="34" y2="25.78"/>
      <line class="cls-1" x1="36" y1="25.78" x2="38" y2="25.78"/>
      <line class="cls-1" x1="40" y1="25.78" x2="42" y2="25.78"/>
    </g>
    <g>
      <line class="cls-1" x1="24" y1="29.78" x2="26" y2="29.78"/>
      <line class="cls-1" x1="28" y1="29.78" x2="30" y2="29.78"/>
      <line class="cls-1" x1="32" y1="29.78" x2="34" y2="29.78"/>
      <line class="cls-1" x1="36" y1="29.78" x2="38" y2="29.78"/>
      <line class="cls-1" x1="40" y1="29.78" x2="42" y2="29.78"/>
    </g>
    <g>
      <line class="cls-1" x1="24" y1="37.78" x2="26" y2="37.78"/>
      <line class="cls-1" x1="28" y1="37.78" x2="30" y2="37.78"/>
      <line class="cls-1" x1="32" y1="37.78" x2="34" y2="37.78"/>
      <line class="cls-1" x1="36" y1="37.78" x2="38" y2="37.78"/>
      <line class="cls-1" x1="40" y1="37.78" x2="42" y2="37.78"/>
    </g>
    <g>
      <line class="cls-1" x1="24" y1="41.78" x2="26" y2="41.78"/>
      <line class="cls-1" x1="28" y1="41.78" x2="30" y2="41.78"/>
      <line class="cls-1" x1="32" y1="41.78" x2="34" y2="41.78"/>
      <line class="cls-1" x1="36" y1="41.78" x2="38" y2="41.78"/>
    </g>
    <g>
      <line class="cls-1" x1="24" y1="45.78" x2="26" y2="45.78"/>
      <line class="cls-1" x1="28" y1="45.78" x2="30" y2="45.78"/>
      <line class="cls-1" x1="32" y1="45.78" x2="34" y2="45.78"/>
      <line class="cls-1" x1="36" y1="45.78" x2="38" y2="45.78"/>
      <line class="cls-1" x1="40" y1="45.78" x2="42" y2="45.78"/>
    </g>
    <g>
      <line class="cls-1" x1="24" y1="53.78" x2="26" y2="53.78"/>
      <line class="cls-1" x1="28" y1="53.78" x2="30" y2="53.78"/>
      <line class="cls-1" x1="32" y1="53.78" x2="34" y2="53.78"/>
      <line class="cls-1" x1="36" y1="53.78" x2="38" y2="53.78"/>
      <line class="cls-1" x1="40" y1="53.78" x2="42" y2="53.78"/>
    </g>
    <g>
      <polyline class="cls-1" points="17 37.78 4 37.78 4 60.78"/>
      <line class="cls-1" x1="10" y1="32.78" x2="10" y2="26.78"/>
      <polyline class="cls-1" points="14 37.78 14 31.81 6.06 31.81 6.06 37.53"/>
      <g>
        <line class="cls-1" x1="7" y1="41.78" x2="9" y2="41.78"/>
        <line class="cls-1" x1="11" y1="41.78" x2="13" y2="41.78"/>
        <line class="cls-1" x1="15" y1="41.78" x2="17" y2="41.78"/>
      </g>
      <g>
        <line class="cls-1" x1="7" y1="45.78" x2="9" y2="45.78"/>
        <line class="cls-1" x1="11" y1="45.78" x2="13" y2="45.78"/>
        <line class="cls-1" x1="15" y1="45.78" x2="17" y2="45.78"/>
      </g>
    </g>
    <g>
      <path class="cls-1" d="M21,20.78a5,5,0,0,1-5,5"/>
      <path class="cls-1" d="M26,25.78a5,5,0,0,1-5-5"/>
      <path class="cls-1" d="M21,30.78a5,5,0,0,0-5-5"/>
      <path class="cls-1" d="M26,25.78a5,5,0,0,0-5,5"/>
    </g>
    <g>
      <path class="cls-1" d="M46,36.78a5,5,0,0,1-5,5"/>
      <path class="cls-1" d="M51,41.78a5,5,0,0,1-5-5"/>
      <path class="cls-1" d="M46,46.78a5,5,0,0,0-5-5"/>
      <path class="cls-1" d="M51,41.78a5,5,0,0,0-5,5"/>
    </g>
    <g>
      <polyline class="cls-1" points="49 37.78 62 37.78 62 60.78"/>
      <line class="cls-1" x1="56" y1="32.78" x2="56" y2="26.78"/>
      <polyline class="cls-1" points="52 37.78 52 31.81 59.94 31.81 59.94 37.53"/>
      <g>
        <line class="cls-1" x1="59" y1="41.78" x2="57" y2="41.78"/>
        <line class="cls-1" x1="55" y1="41.78" x2="53" y2="41.78"/>
      </g>
      <g>
        <line class="cls-1" x1="59" y1="45.78" x2="57" y2="45.78"/>
        <line class="cls-1" x1="55" y1="45.78" x2="53" y2="45.78"/>
        <line class="cls-1" x1="51" y1="45.78" x2="49" y2="45.78"/>
      </g>
    </g>
  </g>
</svg>
