<svg id="Ebene_1" data-name="Ebene 1" xmlns="http://www.w3.org/2000/svg" viewBox="0 0 64 68">
  <defs>
    <style>
      .cls-1 {
        fill: none;
        stroke: #fff;
        stroke-miterlimit: 10;
        stroke-width: 2px;
      }
    </style>
  </defs>
  <title>icon</title>
  <g>
    <g>
      <polyline class="cls-1" points="23.52 10 23.52 14.98 37.44 14.98 37.44 10"/>
      <polyline class="cls-1" points="37.44 13 41.54 13 41.54 7 35.52 7 35.52 5.03 33.52 3 27.55 3 25.49 4.97 25.49 7 19.52 7 19.52 13 23.52 13"/>
      <line class="cls-1" x1="28.52" y1="7" x2="32.49" y2="7"/>
      <path class="cls-1" d="M55.55,55.14V16.94a2,2,0,0,1,2-2h0a2,2,0,0,1,2,2v38.2l-2,4.27Z"/>
    </g>
    <g>
      <path class="cls-1" d="M9.51,23a5,5,0,0,1-5,5"/>
      <path class="cls-1" d="M14.51,28a5,5,0,0,1-5-5"/>
      <path class="cls-1" d="M9.51,33a5,5,0,0,0-5-5"/>
      <path class="cls-1" d="M14.51,28a5,5,0,0,0-5,5"/>
    </g>
    <polyline class="cls-1" points="16.77 9 9.52 9 9.52 21"/>
    <polyline class="cls-1" points="9.52 35 9.52 65 51.52 65 51.52 9 44.77 9"/>
    <polyline class="cls-1" points="20.54 13 13.52 13 13.52 24"/>
    <polyline class="cls-1" points="40.51 61 47.52 61 47.52 13 40.58 13"/>
    <polyline class="cls-1" points="13.52 32 13.52 61 34.51 61"/>
    <g>
      <path class="cls-1" d="M20.51,26l9-4h2l9,4V36h0a8.93,8.93,0,0,1-3,6.66l-6,5.34h-2l-6-5.34a8.93,8.93,0,0,1-3-6.66h0Z"/>
      <line class="cls-1" x1="30.51" y1="22" x2="30.51" y2="48"/>
      <line class="cls-1" x1="20.51" y1="34" x2="40.51" y2="34"/>
    </g>
    <line class="cls-1" x1="18.51" y1="19" x2="22.51" y2="19"/>
    <line class="cls-1" x1="36.51" y1="19" x2="38.51" y2="19"/>
    <line class="cls-1" x1="40.51" y1="19" x2="42.51" y2="19"/>
    <line class="cls-1" x1="18.51" y1="52" x2="24.51" y2="52"/>
    <line class="cls-1" x1="36.51" y1="61" x2="38.51" y2="61"/>
    <g>
      <path class="cls-1" d="M39.51,47a5,5,0,0,1-5,5"/>
      <path class="cls-1" d="M44.51,52a5,5,0,0,1-5-5"/>
      <path class="cls-1" d="M39.51,57a5,5,0,0,0-5-5"/>
      <path class="cls-1" d="M44.51,52a5,5,0,0,0-5,5"/>
    </g>
    <line class="cls-1" x1="18.51" y1="56" x2="24.51" y2="56"/>
  </g>
</svg>
